<?xml version="1.0" encoding="utf-8" standalone="no"?>
<!DOCTYPE svg PUBLIC "-//W3C//DTD SVG 1.1//EN"
  "http://www.w3.org/Graphics/SVG/1.1/DTD/svg11.dtd">
<svg xmlns:xlink="http://www.w3.org/1999/xlink" width="864pt" height="436.32pt" viewBox="0 0 864 436.32" xmlns="http://www.w3.org/2000/svg" version="1.1">
 <metadata>
  <rdf:RDF xmlns:dc="http://purl.org/dc/elements/1.1/" xmlns:cc="http://creativecommons.org/ns#" xmlns:rdf="http://www.w3.org/1999/02/22-rdf-syntax-ns#">
   <cc:Work>
    <dc:type rdf:resource="http://purl.org/dc/dcmitype/StillImage"/>
    <dc:date>2022-05-03T18:47:50.482429</dc:date>
    <dc:format>image/svg+xml</dc:format>
    <dc:creator>
     <cc:Agent>
      <dc:title>Matplotlib v3.5.1, https://matplotlib.org/</dc:title>
     </cc:Agent>
    </dc:creator>
   </cc:Work>
  </rdf:RDF>
 </metadata>
 <defs>
  <style type="text/css">*{stroke-linejoin: round; stroke-linecap: butt}</style>
 </defs>
 <g id="figure_1">
  <g id="patch_1">
   <path d="M 0 436.32 
L 864 436.32 
L 864 0 
L 0 0 
z
" style="fill: #ffffff"/>
  </g>
  <g id="axes_1">
   <g id="patch_2">
    <path d="M 108 388.3248 
L 777.6 388.3248 
L 777.6 52.3584 
L 108 52.3584 
z
" style="fill: #ffffff"/>
   </g>
   <g id="matplotlib.axis_1">
    <g id="xtick_1">
     <g id="line2d_1">
      <path d="M 195.056089 388.3248 
L 195.056089 52.3584 
" clip-path="url(#p5812bea460)" style="fill: none; stroke: #b0b0b0; stroke-width: 0.8; stroke-linecap: square"/>
     </g>
     <g id="line2d_2">
      <defs>
       <path id="maaa78be033" d="M 0 0 
L 0 3.5 
" style="stroke: #000000; stroke-width: 0.8"/>
      </defs>
      <g>
       <use xlink:href="#maaa78be033" x="195.056089" y="388.3248" style="stroke: #000000; stroke-width: 0.8"/>
      </g>
     </g>
     <g id="text_1">
      <!-- 2006 -->
      <g transform="translate(182.331089 402.923238)scale(0.1 -0.1)">
       <defs>
        <path id="DejaVuSans-32" d="M 1228 531 
L 3431 531 
L 3431 0 
L 469 0 
L 469 531 
Q 828 903 1448 1529 
Q 2069 2156 2228 2338 
Q 2531 2678 2651 2914 
Q 2772 3150 2772 3378 
Q 2772 3750 2511 3984 
Q 2250 4219 1831 4219 
Q 1534 4219 1204 4116 
Q 875 4013 500 3803 
L 500 4441 
Q 881 4594 1212 4672 
Q 1544 4750 1819 4750 
Q 2544 4750 2975 4387 
Q 3406 4025 3406 3419 
Q 3406 3131 3298 2873 
Q 3191 2616 2906 2266 
Q 2828 2175 2409 1742 
Q 1991 1309 1228 531 
z
" transform="scale(0.015625)"/>
        <path id="DejaVuSans-30" d="M 2034 4250 
Q 1547 4250 1301 3770 
Q 1056 3291 1056 2328 
Q 1056 1369 1301 889 
Q 1547 409 2034 409 
Q 2525 409 2770 889 
Q 3016 1369 3016 2328 
Q 3016 3291 2770 3770 
Q 2525 4250 2034 4250 
z
M 2034 4750 
Q 2819 4750 3233 4129 
Q 3647 3509 3647 2328 
Q 3647 1150 3233 529 
Q 2819 -91 2034 -91 
Q 1250 -91 836 529 
Q 422 1150 422 2328 
Q 422 3509 836 4129 
Q 1250 4750 2034 4750 
z
" transform="scale(0.015625)"/>
        <path id="DejaVuSans-36" d="M 2113 2584 
Q 1688 2584 1439 2293 
Q 1191 2003 1191 1497 
Q 1191 994 1439 701 
Q 1688 409 2113 409 
Q 2538 409 2786 701 
Q 3034 994 3034 1497 
Q 3034 2003 2786 2293 
Q 2538 2584 2113 2584 
z
M 3366 4563 
L 3366 3988 
Q 3128 4100 2886 4159 
Q 2644 4219 2406 4219 
Q 1781 4219 1451 3797 
Q 1122 3375 1075 2522 
Q 1259 2794 1537 2939 
Q 1816 3084 2150 3084 
Q 2853 3084 3261 2657 
Q 3669 2231 3669 1497 
Q 3669 778 3244 343 
Q 2819 -91 2113 -91 
Q 1303 -91 875 529 
Q 447 1150 447 2328 
Q 447 3434 972 4092 
Q 1497 4750 2381 4750 
Q 2619 4750 2861 4703 
Q 3103 4656 3366 4563 
z
" transform="scale(0.015625)"/>
       </defs>
       <use xlink:href="#DejaVuSans-32"/>
       <use xlink:href="#DejaVuSans-30" x="63.623047"/>
       <use xlink:href="#DejaVuSans-30" x="127.246094"/>
       <use xlink:href="#DejaVuSans-36" x="190.869141"/>
      </g>
     </g>
    </g>
    <g id="xtick_2">
     <g id="line2d_3">
      <path d="M 290.292031 388.3248 
L 290.292031 52.3584 
" clip-path="url(#p5812bea460)" style="fill: none; stroke: #b0b0b0; stroke-width: 0.8; stroke-linecap: square"/>
     </g>
     <g id="line2d_4">
      <g>
       <use xlink:href="#maaa78be033" x="290.292031" y="388.3248" style="stroke: #000000; stroke-width: 0.8"/>
      </g>
     </g>
     <g id="text_2">
      <!-- 2008 -->
      <g transform="translate(277.567031 402.923238)scale(0.1 -0.1)">
       <defs>
        <path id="DejaVuSans-38" d="M 2034 2216 
Q 1584 2216 1326 1975 
Q 1069 1734 1069 1313 
Q 1069 891 1326 650 
Q 1584 409 2034 409 
Q 2484 409 2743 651 
Q 3003 894 3003 1313 
Q 3003 1734 2745 1975 
Q 2488 2216 2034 2216 
z
M 1403 2484 
Q 997 2584 770 2862 
Q 544 3141 544 3541 
Q 544 4100 942 4425 
Q 1341 4750 2034 4750 
Q 2731 4750 3128 4425 
Q 3525 4100 3525 3541 
Q 3525 3141 3298 2862 
Q 3072 2584 2669 2484 
Q 3125 2378 3379 2068 
Q 3634 1759 3634 1313 
Q 3634 634 3220 271 
Q 2806 -91 2034 -91 
Q 1263 -91 848 271 
Q 434 634 434 1313 
Q 434 1759 690 2068 
Q 947 2378 1403 2484 
z
M 1172 3481 
Q 1172 3119 1398 2916 
Q 1625 2713 2034 2713 
Q 2441 2713 2670 2916 
Q 2900 3119 2900 3481 
Q 2900 3844 2670 4047 
Q 2441 4250 2034 4250 
Q 1625 4250 1398 4047 
Q 1172 3844 1172 3481 
z
" transform="scale(0.015625)"/>
       </defs>
       <use xlink:href="#DejaVuSans-32"/>
       <use xlink:href="#DejaVuSans-30" x="63.623047"/>
       <use xlink:href="#DejaVuSans-30" x="127.246094"/>
       <use xlink:href="#DejaVuSans-38" x="190.869141"/>
      </g>
     </g>
    </g>
    <g id="xtick_3">
     <g id="line2d_5">
      <path d="M 385.527974 388.3248 
L 385.527974 52.3584 
" clip-path="url(#p5812bea460)" style="fill: none; stroke: #b0b0b0; stroke-width: 0.8; stroke-linecap: square"/>
     </g>
     <g id="line2d_6">
      <g>
       <use xlink:href="#maaa78be033" x="385.527974" y="388.3248" style="stroke: #000000; stroke-width: 0.8"/>
      </g>
     </g>
     <g id="text_3">
      <!-- 2010 -->
      <g transform="translate(372.802974 402.923238)scale(0.1 -0.1)">
       <defs>
        <path id="DejaVuSans-31" d="M 794 531 
L 1825 531 
L 1825 4091 
L 703 3866 
L 703 4441 
L 1819 4666 
L 2450 4666 
L 2450 531 
L 3481 531 
L 3481 0 
L 794 0 
L 794 531 
z
" transform="scale(0.015625)"/>
       </defs>
       <use xlink:href="#DejaVuSans-32"/>
       <use xlink:href="#DejaVuSans-30" x="63.623047"/>
       <use xlink:href="#DejaVuSans-31" x="127.246094"/>
       <use xlink:href="#DejaVuSans-30" x="190.869141"/>
      </g>
     </g>
    </g>
    <g id="xtick_4">
     <g id="line2d_7">
      <path d="M 480.763917 388.3248 
L 480.763917 52.3584 
" clip-path="url(#p5812bea460)" style="fill: none; stroke: #b0b0b0; stroke-width: 0.8; stroke-linecap: square"/>
     </g>
     <g id="line2d_8">
      <g>
       <use xlink:href="#maaa78be033" x="480.763917" y="388.3248" style="stroke: #000000; stroke-width: 0.8"/>
      </g>
     </g>
     <g id="text_4">
      <!-- 2012 -->
      <g transform="translate(468.038917 402.923238)scale(0.1 -0.1)">
       <use xlink:href="#DejaVuSans-32"/>
       <use xlink:href="#DejaVuSans-30" x="63.623047"/>
       <use xlink:href="#DejaVuSans-31" x="127.246094"/>
       <use xlink:href="#DejaVuSans-32" x="190.869141"/>
      </g>
     </g>
    </g>
    <g id="xtick_5">
     <g id="line2d_9">
      <path d="M 575.99986 388.3248 
L 575.99986 52.3584 
" clip-path="url(#p5812bea460)" style="fill: none; stroke: #b0b0b0; stroke-width: 0.8; stroke-linecap: square"/>
     </g>
     <g id="line2d_10">
      <g>
       <use xlink:href="#maaa78be033" x="575.99986" y="388.3248" style="stroke: #000000; stroke-width: 0.8"/>
      </g>
     </g>
     <g id="text_5">
      <!-- 2014 -->
      <g transform="translate(563.27486 402.923238)scale(0.1 -0.1)">
       <defs>
        <path id="DejaVuSans-34" d="M 2419 4116 
L 825 1625 
L 2419 1625 
L 2419 4116 
z
M 2253 4666 
L 3047 4666 
L 3047 1625 
L 3713 1625 
L 3713 1100 
L 3047 1100 
L 3047 0 
L 2419 0 
L 2419 1100 
L 313 1100 
L 313 1709 
L 2253 4666 
z
" transform="scale(0.015625)"/>
       </defs>
       <use xlink:href="#DejaVuSans-32"/>
       <use xlink:href="#DejaVuSans-30" x="63.623047"/>
       <use xlink:href="#DejaVuSans-31" x="127.246094"/>
       <use xlink:href="#DejaVuSans-34" x="190.869141"/>
      </g>
     </g>
    </g>
    <g id="xtick_6">
     <g id="line2d_11">
      <path d="M 671.235803 388.3248 
L 671.235803 52.3584 
" clip-path="url(#p5812bea460)" style="fill: none; stroke: #b0b0b0; stroke-width: 0.8; stroke-linecap: square"/>
     </g>
     <g id="line2d_12">
      <g>
       <use xlink:href="#maaa78be033" x="671.235803" y="388.3248" style="stroke: #000000; stroke-width: 0.8"/>
      </g>
     </g>
     <g id="text_6">
      <!-- 2016 -->
      <g transform="translate(658.510803 402.923238)scale(0.1 -0.1)">
       <use xlink:href="#DejaVuSans-32"/>
       <use xlink:href="#DejaVuSans-30" x="63.623047"/>
       <use xlink:href="#DejaVuSans-31" x="127.246094"/>
       <use xlink:href="#DejaVuSans-36" x="190.869141"/>
      </g>
     </g>
    </g>
    <g id="xtick_7">
     <g id="line2d_13">
      <path d="M 766.471745 388.3248 
L 766.471745 52.3584 
" clip-path="url(#p5812bea460)" style="fill: none; stroke: #b0b0b0; stroke-width: 0.8; stroke-linecap: square"/>
     </g>
     <g id="line2d_14">
      <g>
       <use xlink:href="#maaa78be033" x="766.471745" y="388.3248" style="stroke: #000000; stroke-width: 0.8"/>
      </g>
     </g>
     <g id="text_7">
      <!-- 2018 -->
      <g transform="translate(753.746745 402.923238)scale(0.1 -0.1)">
       <use xlink:href="#DejaVuSans-32"/>
       <use xlink:href="#DejaVuSans-30" x="63.623047"/>
       <use xlink:href="#DejaVuSans-31" x="127.246094"/>
       <use xlink:href="#DejaVuSans-38" x="190.869141"/>
      </g>
     </g>
    </g>
    <g id="text_8">
     <!-- Year -->
     <g transform="translate(430.095 418.12105)scale(0.12 -0.12)">
      <defs>
       <path id="DejaVuSans-59" d="M -13 4666 
L 666 4666 
L 1959 2747 
L 3244 4666 
L 3922 4666 
L 2272 2222 
L 2272 0 
L 1638 0 
L 1638 2222 
L -13 4666 
z
" transform="scale(0.015625)"/>
       <path id="DejaVuSans-65" d="M 3597 1894 
L 3597 1613 
L 953 1613 
Q 991 1019 1311 708 
Q 1631 397 2203 397 
Q 2534 397 2845 478 
Q 3156 559 3463 722 
L 3463 178 
Q 3153 47 2828 -22 
Q 2503 -91 2169 -91 
Q 1331 -91 842 396 
Q 353 884 353 1716 
Q 353 2575 817 3079 
Q 1281 3584 2069 3584 
Q 2775 3584 3186 3129 
Q 3597 2675 3597 1894 
z
M 3022 2063 
Q 3016 2534 2758 2815 
Q 2500 3097 2075 3097 
Q 1594 3097 1305 2825 
Q 1016 2553 972 2059 
L 3022 2063 
z
" transform="scale(0.015625)"/>
       <path id="DejaVuSans-61" d="M 2194 1759 
Q 1497 1759 1228 1600 
Q 959 1441 959 1056 
Q 959 750 1161 570 
Q 1363 391 1709 391 
Q 2188 391 2477 730 
Q 2766 1069 2766 1631 
L 2766 1759 
L 2194 1759 
z
M 3341 1997 
L 3341 0 
L 2766 0 
L 2766 531 
Q 2569 213 2275 61 
Q 1981 -91 1556 -91 
Q 1019 -91 701 211 
Q 384 513 384 1019 
Q 384 1609 779 1909 
Q 1175 2209 1959 2209 
L 2766 2209 
L 2766 2266 
Q 2766 2663 2505 2880 
Q 2244 3097 1772 3097 
Q 1472 3097 1187 3025 
Q 903 2953 641 2809 
L 641 3341 
Q 956 3463 1253 3523 
Q 1550 3584 1831 3584 
Q 2591 3584 2966 3190 
Q 3341 2797 3341 1997 
z
" transform="scale(0.015625)"/>
       <path id="DejaVuSans-72" d="M 2631 2963 
Q 2534 3019 2420 3045 
Q 2306 3072 2169 3072 
Q 1681 3072 1420 2755 
Q 1159 2438 1159 1844 
L 1159 0 
L 581 0 
L 581 3500 
L 1159 3500 
L 1159 2956 
Q 1341 3275 1631 3429 
Q 1922 3584 2338 3584 
Q 2397 3584 2469 3576 
Q 2541 3569 2628 3553 
L 2631 2963 
z
" transform="scale(0.015625)"/>
      </defs>
      <use xlink:href="#DejaVuSans-59"/>
      <use xlink:href="#DejaVuSans-65" x="47.833984"/>
      <use xlink:href="#DejaVuSans-61" x="109.357422"/>
      <use xlink:href="#DejaVuSans-72" x="170.636719"/>
     </g>
    </g>
   </g>
   <g id="matplotlib.axis_2">
    <g id="ytick_1">
     <g id="line2d_15">
      <defs>
       <path id="m1b2af8d859" d="M 0 0 
L -3.5 0 
" style="stroke: #000000; stroke-width: 0.8"/>
      </defs>
      <g>
       <use xlink:href="#m1b2af8d859" x="108" y="388.3248" style="stroke: #000000; stroke-width: 0.8"/>
      </g>
     </g>
     <g id="text_9">
      <!-- 18.0S -->
      <g transform="translate(72.385937 392.124019)scale(0.1 -0.1)">
       <defs>
        <path id="DejaVuSans-2e" d="M 684 794 
L 1344 794 
L 1344 0 
L 684 0 
L 684 794 
z
" transform="scale(0.015625)"/>
        <path id="DejaVuSans-53" d="M 3425 4513 
L 3425 3897 
Q 3066 4069 2747 4153 
Q 2428 4238 2131 4238 
Q 1616 4238 1336 4038 
Q 1056 3838 1056 3469 
Q 1056 3159 1242 3001 
Q 1428 2844 1947 2747 
L 2328 2669 
Q 3034 2534 3370 2195 
Q 3706 1856 3706 1288 
Q 3706 609 3251 259 
Q 2797 -91 1919 -91 
Q 1588 -91 1214 -16 
Q 841 59 441 206 
L 441 856 
Q 825 641 1194 531 
Q 1563 422 1919 422 
Q 2459 422 2753 634 
Q 3047 847 3047 1241 
Q 3047 1584 2836 1778 
Q 2625 1972 2144 2069 
L 1759 2144 
Q 1053 2284 737 2584 
Q 422 2884 422 3419 
Q 422 4038 858 4394 
Q 1294 4750 2059 4750 
Q 2388 4750 2728 4690 
Q 3069 4631 3425 4513 
z
" transform="scale(0.015625)"/>
       </defs>
       <use xlink:href="#DejaVuSans-31"/>
       <use xlink:href="#DejaVuSans-38" x="63.623047"/>
       <use xlink:href="#DejaVuSans-2e" x="127.246094"/>
       <use xlink:href="#DejaVuSans-30" x="159.033203"/>
       <use xlink:href="#DejaVuSans-53" x="222.65625"/>
      </g>
     </g>
    </g>
    <g id="ytick_2">
     <g id="line2d_16">
      <g>
       <use xlink:href="#m1b2af8d859" x="108" y="354.72816" style="stroke: #000000; stroke-width: 0.8"/>
      </g>
     </g>
     <g id="text_10">
      <!-- 15.0S -->
      <g transform="translate(72.385937 358.527379)scale(0.1 -0.1)">
       <defs>
        <path id="DejaVuSans-35" d="M 691 4666 
L 3169 4666 
L 3169 4134 
L 1269 4134 
L 1269 2991 
Q 1406 3038 1543 3061 
Q 1681 3084 1819 3084 
Q 2600 3084 3056 2656 
Q 3513 2228 3513 1497 
Q 3513 744 3044 326 
Q 2575 -91 1722 -91 
Q 1428 -91 1123 -41 
Q 819 9 494 109 
L 494 744 
Q 775 591 1075 516 
Q 1375 441 1709 441 
Q 2250 441 2565 725 
Q 2881 1009 2881 1497 
Q 2881 1984 2565 2268 
Q 2250 2553 1709 2553 
Q 1456 2553 1204 2497 
Q 953 2441 691 2322 
L 691 4666 
z
" transform="scale(0.015625)"/>
       </defs>
       <use xlink:href="#DejaVuSans-31"/>
       <use xlink:href="#DejaVuSans-35" x="63.623047"/>
       <use xlink:href="#DejaVuSans-2e" x="127.246094"/>
       <use xlink:href="#DejaVuSans-30" x="159.033203"/>
       <use xlink:href="#DejaVuSans-53" x="222.65625"/>
      </g>
     </g>
    </g>
    <g id="ytick_3">
     <g id="line2d_17">
      <g>
       <use xlink:href="#m1b2af8d859" x="108" y="321.13152" style="stroke: #000000; stroke-width: 0.8"/>
      </g>
     </g>
     <g id="text_11">
      <!-- 12.0S -->
      <g transform="translate(72.385937 324.930739)scale(0.1 -0.1)">
       <use xlink:href="#DejaVuSans-31"/>
       <use xlink:href="#DejaVuSans-32" x="63.623047"/>
       <use xlink:href="#DejaVuSans-2e" x="127.246094"/>
       <use xlink:href="#DejaVuSans-30" x="159.033203"/>
       <use xlink:href="#DejaVuSans-53" x="222.65625"/>
      </g>
     </g>
    </g>
    <g id="ytick_4">
     <g id="line2d_18">
      <g>
       <use xlink:href="#m1b2af8d859" x="108" y="287.53488" style="stroke: #000000; stroke-width: 0.8"/>
      </g>
     </g>
     <g id="text_12">
      <!-- 9.0S -->
      <g transform="translate(78.748437 291.334099)scale(0.1 -0.1)">
       <defs>
        <path id="DejaVuSans-39" d="M 703 97 
L 703 672 
Q 941 559 1184 500 
Q 1428 441 1663 441 
Q 2288 441 2617 861 
Q 2947 1281 2994 2138 
Q 2813 1869 2534 1725 
Q 2256 1581 1919 1581 
Q 1219 1581 811 2004 
Q 403 2428 403 3163 
Q 403 3881 828 4315 
Q 1253 4750 1959 4750 
Q 2769 4750 3195 4129 
Q 3622 3509 3622 2328 
Q 3622 1225 3098 567 
Q 2575 -91 1691 -91 
Q 1453 -91 1209 -44 
Q 966 3 703 97 
z
M 1959 2075 
Q 2384 2075 2632 2365 
Q 2881 2656 2881 3163 
Q 2881 3666 2632 3958 
Q 2384 4250 1959 4250 
Q 1534 4250 1286 3958 
Q 1038 3666 1038 3163 
Q 1038 2656 1286 2365 
Q 1534 2075 1959 2075 
z
" transform="scale(0.015625)"/>
       </defs>
       <use xlink:href="#DejaVuSans-39"/>
       <use xlink:href="#DejaVuSans-2e" x="63.623047"/>
       <use xlink:href="#DejaVuSans-30" x="95.410156"/>
       <use xlink:href="#DejaVuSans-53" x="159.033203"/>
      </g>
     </g>
    </g>
    <g id="ytick_5">
     <g id="line2d_19">
      <g>
       <use xlink:href="#m1b2af8d859" x="108" y="253.93824" style="stroke: #000000; stroke-width: 0.8"/>
      </g>
     </g>
     <g id="text_13">
      <!-- 6.0S -->
      <g transform="translate(78.748437 257.737459)scale(0.1 -0.1)">
       <use xlink:href="#DejaVuSans-36"/>
       <use xlink:href="#DejaVuSans-2e" x="63.623047"/>
       <use xlink:href="#DejaVuSans-30" x="95.410156"/>
       <use xlink:href="#DejaVuSans-53" x="159.033203"/>
      </g>
     </g>
    </g>
    <g id="ytick_6">
     <g id="line2d_20">
      <g>
       <use xlink:href="#m1b2af8d859" x="108" y="220.3416" style="stroke: #000000; stroke-width: 0.8"/>
      </g>
     </g>
     <g id="text_14">
      <!-- 3.0S -->
      <g transform="translate(78.748437 224.140819)scale(0.1 -0.1)">
       <defs>
        <path id="DejaVuSans-33" d="M 2597 2516 
Q 3050 2419 3304 2112 
Q 3559 1806 3559 1356 
Q 3559 666 3084 287 
Q 2609 -91 1734 -91 
Q 1441 -91 1130 -33 
Q 819 25 488 141 
L 488 750 
Q 750 597 1062 519 
Q 1375 441 1716 441 
Q 2309 441 2620 675 
Q 2931 909 2931 1356 
Q 2931 1769 2642 2001 
Q 2353 2234 1838 2234 
L 1294 2234 
L 1294 2753 
L 1863 2753 
Q 2328 2753 2575 2939 
Q 2822 3125 2822 3475 
Q 2822 3834 2567 4026 
Q 2313 4219 1838 4219 
Q 1578 4219 1281 4162 
Q 984 4106 628 3988 
L 628 4550 
Q 988 4650 1302 4700 
Q 1616 4750 1894 4750 
Q 2613 4750 3031 4423 
Q 3450 4097 3450 3541 
Q 3450 3153 3228 2886 
Q 3006 2619 2597 2516 
z
" transform="scale(0.015625)"/>
       </defs>
       <use xlink:href="#DejaVuSans-33"/>
       <use xlink:href="#DejaVuSans-2e" x="63.623047"/>
       <use xlink:href="#DejaVuSans-30" x="95.410156"/>
       <use xlink:href="#DejaVuSans-53" x="159.033203"/>
      </g>
     </g>
    </g>
    <g id="ytick_7">
     <g id="line2d_21">
      <g>
       <use xlink:href="#m1b2af8d859" x="108" y="186.74496" style="stroke: #000000; stroke-width: 0.8"/>
      </g>
     </g>
     <g id="text_15">
      <!-- 0 -->
      <g transform="translate(94.6375 190.544179)scale(0.1 -0.1)">
       <use xlink:href="#DejaVuSans-30"/>
      </g>
     </g>
    </g>
    <g id="ytick_8">
     <g id="line2d_22">
      <g>
       <use xlink:href="#m1b2af8d859" x="108" y="153.14832" style="stroke: #000000; stroke-width: 0.8"/>
      </g>
     </g>
     <g id="text_16">
      <!-- 3.0N -->
      <g transform="translate(77.615625 156.947539)scale(0.1 -0.1)">
       <defs>
        <path id="DejaVuSans-4e" d="M 628 4666 
L 1478 4666 
L 3547 763 
L 3547 4666 
L 4159 4666 
L 4159 0 
L 3309 0 
L 1241 3903 
L 1241 0 
L 628 0 
L 628 4666 
z
" transform="scale(0.015625)"/>
       </defs>
       <use xlink:href="#DejaVuSans-33"/>
       <use xlink:href="#DejaVuSans-2e" x="63.623047"/>
       <use xlink:href="#DejaVuSans-30" x="95.410156"/>
       <use xlink:href="#DejaVuSans-4e" x="159.033203"/>
      </g>
     </g>
    </g>
    <g id="ytick_9">
     <g id="line2d_23">
      <g>
       <use xlink:href="#m1b2af8d859" x="108" y="119.55168" style="stroke: #000000; stroke-width: 0.8"/>
      </g>
     </g>
     <g id="text_17">
      <!-- 6.0N -->
      <g transform="translate(77.615625 123.350899)scale(0.1 -0.1)">
       <use xlink:href="#DejaVuSans-36"/>
       <use xlink:href="#DejaVuSans-2e" x="63.623047"/>
       <use xlink:href="#DejaVuSans-30" x="95.410156"/>
       <use xlink:href="#DejaVuSans-4e" x="159.033203"/>
      </g>
     </g>
    </g>
    <g id="ytick_10">
     <g id="line2d_24">
      <g>
       <use xlink:href="#m1b2af8d859" x="108" y="85.95504" style="stroke: #000000; stroke-width: 0.8"/>
      </g>
     </g>
     <g id="text_18">
      <!-- 9.0N -->
      <g transform="translate(77.615625 89.754259)scale(0.1 -0.1)">
       <use xlink:href="#DejaVuSans-39"/>
       <use xlink:href="#DejaVuSans-2e" x="63.623047"/>
       <use xlink:href="#DejaVuSans-30" x="95.410156"/>
       <use xlink:href="#DejaVuSans-4e" x="159.033203"/>
      </g>
     </g>
    </g>
    <g id="ytick_11">
     <g id="line2d_25">
      <g>
       <use xlink:href="#m1b2af8d859" x="108" y="52.3584" style="stroke: #000000; stroke-width: 0.8"/>
      </g>
     </g>
     <g id="text_19">
      <!-- 12.0N -->
      <g transform="translate(71.253125 56.157619)scale(0.1 -0.1)">
       <use xlink:href="#DejaVuSans-31"/>
       <use xlink:href="#DejaVuSans-32" x="63.623047"/>
       <use xlink:href="#DejaVuSans-2e" x="127.246094"/>
       <use xlink:href="#DejaVuSans-30" x="159.033203"/>
       <use xlink:href="#DejaVuSans-4e" x="222.65625"/>
      </g>
     </g>
    </g>
    <g id="text_20">
     <!-- North South Boundary Latitude (°)  -->
     <g transform="translate(51.320125 325.36785)rotate(-90)scale(0.12 -0.12)">
      <defs>
       <path id="DejaVuSans-6f" d="M 1959 3097 
Q 1497 3097 1228 2736 
Q 959 2375 959 1747 
Q 959 1119 1226 758 
Q 1494 397 1959 397 
Q 2419 397 2687 759 
Q 2956 1122 2956 1747 
Q 2956 2369 2687 2733 
Q 2419 3097 1959 3097 
z
M 1959 3584 
Q 2709 3584 3137 3096 
Q 3566 2609 3566 1747 
Q 3566 888 3137 398 
Q 2709 -91 1959 -91 
Q 1206 -91 779 398 
Q 353 888 353 1747 
Q 353 2609 779 3096 
Q 1206 3584 1959 3584 
z
" transform="scale(0.015625)"/>
       <path id="DejaVuSans-74" d="M 1172 4494 
L 1172 3500 
L 2356 3500 
L 2356 3053 
L 1172 3053 
L 1172 1153 
Q 1172 725 1289 603 
Q 1406 481 1766 481 
L 2356 481 
L 2356 0 
L 1766 0 
Q 1100 0 847 248 
Q 594 497 594 1153 
L 594 3053 
L 172 3053 
L 172 3500 
L 594 3500 
L 594 4494 
L 1172 4494 
z
" transform="scale(0.015625)"/>
       <path id="DejaVuSans-68" d="M 3513 2113 
L 3513 0 
L 2938 0 
L 2938 2094 
Q 2938 2591 2744 2837 
Q 2550 3084 2163 3084 
Q 1697 3084 1428 2787 
Q 1159 2491 1159 1978 
L 1159 0 
L 581 0 
L 581 4863 
L 1159 4863 
L 1159 2956 
Q 1366 3272 1645 3428 
Q 1925 3584 2291 3584 
Q 2894 3584 3203 3211 
Q 3513 2838 3513 2113 
z
" transform="scale(0.015625)"/>
       <path id="DejaVuSans-20" transform="scale(0.015625)"/>
       <path id="DejaVuSans-75" d="M 544 1381 
L 544 3500 
L 1119 3500 
L 1119 1403 
Q 1119 906 1312 657 
Q 1506 409 1894 409 
Q 2359 409 2629 706 
Q 2900 1003 2900 1516 
L 2900 3500 
L 3475 3500 
L 3475 0 
L 2900 0 
L 2900 538 
Q 2691 219 2414 64 
Q 2138 -91 1772 -91 
Q 1169 -91 856 284 
Q 544 659 544 1381 
z
M 1991 3584 
L 1991 3584 
z
" transform="scale(0.015625)"/>
       <path id="DejaVuSans-42" d="M 1259 2228 
L 1259 519 
L 2272 519 
Q 2781 519 3026 730 
Q 3272 941 3272 1375 
Q 3272 1813 3026 2020 
Q 2781 2228 2272 2228 
L 1259 2228 
z
M 1259 4147 
L 1259 2741 
L 2194 2741 
Q 2656 2741 2882 2914 
Q 3109 3088 3109 3444 
Q 3109 3797 2882 3972 
Q 2656 4147 2194 4147 
L 1259 4147 
z
M 628 4666 
L 2241 4666 
Q 2963 4666 3353 4366 
Q 3744 4066 3744 3513 
Q 3744 3084 3544 2831 
Q 3344 2578 2956 2516 
Q 3422 2416 3680 2098 
Q 3938 1781 3938 1306 
Q 3938 681 3513 340 
Q 3088 0 2303 0 
L 628 0 
L 628 4666 
z
" transform="scale(0.015625)"/>
       <path id="DejaVuSans-6e" d="M 3513 2113 
L 3513 0 
L 2938 0 
L 2938 2094 
Q 2938 2591 2744 2837 
Q 2550 3084 2163 3084 
Q 1697 3084 1428 2787 
Q 1159 2491 1159 1978 
L 1159 0 
L 581 0 
L 581 3500 
L 1159 3500 
L 1159 2956 
Q 1366 3272 1645 3428 
Q 1925 3584 2291 3584 
Q 2894 3584 3203 3211 
Q 3513 2838 3513 2113 
z
" transform="scale(0.015625)"/>
       <path id="DejaVuSans-64" d="M 2906 2969 
L 2906 4863 
L 3481 4863 
L 3481 0 
L 2906 0 
L 2906 525 
Q 2725 213 2448 61 
Q 2172 -91 1784 -91 
Q 1150 -91 751 415 
Q 353 922 353 1747 
Q 353 2572 751 3078 
Q 1150 3584 1784 3584 
Q 2172 3584 2448 3432 
Q 2725 3281 2906 2969 
z
M 947 1747 
Q 947 1113 1208 752 
Q 1469 391 1925 391 
Q 2381 391 2643 752 
Q 2906 1113 2906 1747 
Q 2906 2381 2643 2742 
Q 2381 3103 1925 3103 
Q 1469 3103 1208 2742 
Q 947 2381 947 1747 
z
" transform="scale(0.015625)"/>
       <path id="DejaVuSans-79" d="M 2059 -325 
Q 1816 -950 1584 -1140 
Q 1353 -1331 966 -1331 
L 506 -1331 
L 506 -850 
L 844 -850 
Q 1081 -850 1212 -737 
Q 1344 -625 1503 -206 
L 1606 56 
L 191 3500 
L 800 3500 
L 1894 763 
L 2988 3500 
L 3597 3500 
L 2059 -325 
z
" transform="scale(0.015625)"/>
       <path id="DejaVuSans-4c" d="M 628 4666 
L 1259 4666 
L 1259 531 
L 3531 531 
L 3531 0 
L 628 0 
L 628 4666 
z
" transform="scale(0.015625)"/>
       <path id="DejaVuSans-69" d="M 603 3500 
L 1178 3500 
L 1178 0 
L 603 0 
L 603 3500 
z
M 603 4863 
L 1178 4863 
L 1178 4134 
L 603 4134 
L 603 4863 
z
" transform="scale(0.015625)"/>
       <path id="DejaVuSans-28" d="M 1984 4856 
Q 1566 4138 1362 3434 
Q 1159 2731 1159 2009 
Q 1159 1288 1364 580 
Q 1569 -128 1984 -844 
L 1484 -844 
Q 1016 -109 783 600 
Q 550 1309 550 2009 
Q 550 2706 781 3412 
Q 1013 4119 1484 4856 
L 1984 4856 
z
" transform="scale(0.015625)"/>
       <path id="DejaVuSans-b0" d="M 1600 4347 
Q 1350 4347 1178 4173 
Q 1006 4000 1006 3750 
Q 1006 3503 1178 3333 
Q 1350 3163 1600 3163 
Q 1850 3163 2022 3333 
Q 2194 3503 2194 3750 
Q 2194 3997 2020 4172 
Q 1847 4347 1600 4347 
z
M 1600 4750 
Q 1800 4750 1984 4673 
Q 2169 4597 2303 4453 
Q 2447 4313 2519 4134 
Q 2591 3956 2591 3750 
Q 2591 3338 2302 3052 
Q 2013 2766 1594 2766 
Q 1172 2766 890 3047 
Q 609 3328 609 3750 
Q 609 4169 896 4459 
Q 1184 4750 1600 4750 
z
" transform="scale(0.015625)"/>
       <path id="DejaVuSans-29" d="M 513 4856 
L 1013 4856 
Q 1481 4119 1714 3412 
Q 1947 2706 1947 2009 
Q 1947 1309 1714 600 
Q 1481 -109 1013 -844 
L 513 -844 
Q 928 -128 1133 580 
Q 1338 1288 1338 2009 
Q 1338 2731 1133 3434 
Q 928 4138 513 4856 
z
" transform="scale(0.015625)"/>
      </defs>
      <use xlink:href="#DejaVuSans-4e"/>
      <use xlink:href="#DejaVuSans-6f" x="74.804688"/>
      <use xlink:href="#DejaVuSans-72" x="135.986328"/>
      <use xlink:href="#DejaVuSans-74" x="177.099609"/>
      <use xlink:href="#DejaVuSans-68" x="216.308594"/>
      <use xlink:href="#DejaVuSans-20" x="279.6875"/>
      <use xlink:href="#DejaVuSans-53" x="311.474609"/>
      <use xlink:href="#DejaVuSans-6f" x="374.951172"/>
      <use xlink:href="#DejaVuSans-75" x="436.132812"/>
      <use xlink:href="#DejaVuSans-74" x="499.511719"/>
      <use xlink:href="#DejaVuSans-68" x="538.720703"/>
      <use xlink:href="#DejaVuSans-20" x="602.099609"/>
      <use xlink:href="#DejaVuSans-42" x="633.886719"/>
      <use xlink:href="#DejaVuSans-6f" x="702.490234"/>
      <use xlink:href="#DejaVuSans-75" x="763.671875"/>
      <use xlink:href="#DejaVuSans-6e" x="827.050781"/>
      <use xlink:href="#DejaVuSans-64" x="890.429688"/>
      <use xlink:href="#DejaVuSans-61" x="953.90625"/>
      <use xlink:href="#DejaVuSans-72" x="1015.185547"/>
      <use xlink:href="#DejaVuSans-79" x="1056.298828"/>
      <use xlink:href="#DejaVuSans-20" x="1115.478516"/>
      <use xlink:href="#DejaVuSans-4c" x="1147.265625"/>
      <use xlink:href="#DejaVuSans-61" x="1202.978516"/>
      <use xlink:href="#DejaVuSans-74" x="1264.257812"/>
      <use xlink:href="#DejaVuSans-69" x="1303.466797"/>
      <use xlink:href="#DejaVuSans-74" x="1331.25"/>
      <use xlink:href="#DejaVuSans-75" x="1370.458984"/>
      <use xlink:href="#DejaVuSans-64" x="1433.837891"/>
      <use xlink:href="#DejaVuSans-65" x="1497.314453"/>
      <use xlink:href="#DejaVuSans-20" x="1558.837891"/>
      <use xlink:href="#DejaVuSans-28" x="1590.625"/>
      <use xlink:href="#DejaVuSans-b0" x="1629.638672"/>
      <use xlink:href="#DejaVuSans-29" x="1679.638672"/>
      <use xlink:href="#DejaVuSans-20" x="1718.652344"/>
     </g>
     <!--  -->
     <g transform="translate(64.7575 220.3416)rotate(-90)scale(0.12 -0.12)"/>
    </g>
   </g>
   <g id="line2d_26">
    <path d="M 138.827744 323.913138 
L 186.576176 322.913173 
L 261.851709 318.644768 
L 368.698609 318.371136 
L 374.960698 320.485265 
L 400.400436 319.869526 
L 478.285173 299.227245 
L 507.508257 297.401676 
L 553.169325 249.803923 
L 663.277731 182.846002 
L 668.496138 185.704862 
L 747.163636 74.720284 
" clip-path="url(#p5812bea460)" style="fill: none; stroke: #000000; stroke-width: 1.5; stroke-linecap: square"/>
    <defs>
     <path id="ma98e2588bd" d="M -0.49999 0.49999 
L 0.50001 0.49999 
L 0.50001 -0.50001 
L -0.49999 -0.50001 
z
"/>
    </defs>
    <g clip-path="url(#p5812bea460)">
     <use xlink:href="#ma98e2588bd" x="138.827744" y="323.913138"/>
     <use xlink:href="#ma98e2588bd" x="186.576176" y="322.913173"/>
     <use xlink:href="#ma98e2588bd" x="261.851709" y="318.644768"/>
     <use xlink:href="#ma98e2588bd" x="368.698609" y="318.371136"/>
     <use xlink:href="#ma98e2588bd" x="374.960698" y="320.485265"/>
     <use xlink:href="#ma98e2588bd" x="400.400436" y="319.869526"/>
     <use xlink:href="#ma98e2588bd" x="478.285173" y="299.227245"/>
     <use xlink:href="#ma98e2588bd" x="507.508257" y="297.401676"/>
     <use xlink:href="#ma98e2588bd" x="553.169325" y="249.803923"/>
     <use xlink:href="#ma98e2588bd" x="663.277731" y="182.846002"/>
     <use xlink:href="#ma98e2588bd" x="668.496138" y="185.704862"/>
     <use xlink:href="#ma98e2588bd" x="747.163636" y="74.720284"/>
    </g>
   </g>
   <g id="LineCollection_1">
    <path d="M 138.436364 279.695664 
L 138.436364 266.257008 
" clip-path="url(#p5812bea460)" style="fill: none; stroke: #48008f; stroke-width: 2"/>
   </g>
   <g id="line2d_27">
    <defs>
     <path id="mb0c031ca38" d="M 6 0 
L -6 -0 
" style="stroke: #48008f; stroke-width: 2"/>
    </defs>
    <g clip-path="url(#p5812bea460)">
     <use xlink:href="#mb0c031ca38" x="138.436364" y="279.695664" style="fill: #48008f; stroke: #48008f; stroke-width: 2"/>
    </g>
   </g>
   <g id="line2d_28">
    <g clip-path="url(#p5812bea460)">
     <use xlink:href="#mb0c031ca38" x="138.436364" y="266.257008" style="fill: #48008f; stroke: #48008f; stroke-width: 2"/>
    </g>
   </g>
   <g id="LineCollection_2">
    <path d="M 186.445716 297.613872 
L 186.445716 286.414992 
" clip-path="url(#p5812bea460)" style="fill: none; stroke: #213a8c; stroke-width: 2"/>
   </g>
   <g id="line2d_29">
    <defs>
     <path id="m1e9c410ac0" d="M 6 0 
L -6 -0 
" style="stroke: #213a8c; stroke-width: 2"/>
    </defs>
    <g clip-path="url(#p5812bea460)">
     <use xlink:href="#m1e9c410ac0" x="186.445716" y="297.613872" style="fill: #213a8c; stroke: #213a8c; stroke-width: 2"/>
    </g>
   </g>
   <g id="line2d_30">
    <g clip-path="url(#p5812bea460)">
     <use xlink:href="#m1e9c410ac0" x="186.445716" y="286.414992" style="fill: #213a8c; stroke: #213a8c; stroke-width: 2"/>
    </g>
   </g>
   <g id="LineCollection_3">
    <path d="M 261.982169 302.093424 
L 261.982169 279.695664 
" clip-path="url(#p5812bea460)" style="fill: none; stroke: #187c7c; stroke-width: 2"/>
   </g>
   <g id="line2d_31">
    <defs>
     <path id="m36937db4dd" d="M 6 0 
L -6 -0 
" style="stroke: #187c7c; stroke-width: 2"/>
    </defs>
    <g clip-path="url(#p5812bea460)">
     <use xlink:href="#m36937db4dd" x="261.982169" y="302.093424" style="fill: #187c7c; stroke: #187c7c; stroke-width: 2"/>
    </g>
   </g>
   <g id="line2d_32">
    <g clip-path="url(#p5812bea460)">
     <use xlink:href="#m36937db4dd" x="261.982169" y="279.695664" style="fill: #187c7c; stroke: #187c7c; stroke-width: 2"/>
    </g>
   </g>
   <g id="line2d_33">
    <path d="M 138.436364 272.976336 
" clip-path="url(#p5812bea460)" style="fill: none; stroke: #6000bf; stroke-width: 1.5; stroke-linecap: square"/>
    <defs>
     <path id="me1e9499ea4" d="M 0 2.5 
C 0.663008 2.5 1.29895 2.236584 1.767767 1.767767 
C 2.236584 1.29895 2.5 0.663008 2.5 0 
C 2.5 -0.663008 2.236584 -1.29895 1.767767 -1.767767 
C 1.29895 -2.236584 0.663008 -2.5 0 -2.5 
C -0.663008 -2.5 -1.29895 -2.236584 -1.767767 -1.767767 
C -2.236584 -1.29895 -2.5 -0.663008 -2.5 0 
C -2.5 0.663008 -2.236584 1.29895 -1.767767 1.767767 
C -1.29895 2.236584 -0.663008 2.5 0 2.5 
z
" style="stroke: #6000bf"/>
    </defs>
    <g clip-path="url(#p5812bea460)">
     <use xlink:href="#me1e9499ea4" x="138.436364" y="272.976336" style="fill: #6000bf; stroke: #6000bf"/>
    </g>
   </g>
   <g id="line2d_34">
    <path d="M 186.445716 292.014432 
" clip-path="url(#p5812bea460)" style="fill: none; stroke: #2d4ebb; stroke-width: 1.5; stroke-linecap: square"/>
    <defs>
     <path id="m3b6c954413" d="M 0 2.5 
C 0.663008 2.5 1.29895 2.236584 1.767767 1.767767 
C 2.236584 1.29895 2.5 0.663008 2.5 0 
C 2.5 -0.663008 2.236584 -1.29895 1.767767 -1.767767 
C 1.29895 -2.236584 0.663008 -2.5 0 -2.5 
C -0.663008 -2.5 -1.29895 -2.236584 -1.767767 -1.767767 
C -2.236584 -1.29895 -2.5 -0.663008 -2.5 0 
C -2.5 0.663008 -2.236584 1.29895 -1.767767 1.767767 
C -1.29895 2.236584 -0.663008 2.5 0 2.5 
z
" style="stroke: #2d4ebb"/>
    </defs>
    <g clip-path="url(#p5812bea460)">
     <use xlink:href="#m3b6c954413" x="186.445716" y="292.014432" style="fill: #2d4ebb; stroke: #2d4ebb"/>
    </g>
   </g>
   <g id="line2d_35">
    <path d="M 261.982169 290.894544 
" clip-path="url(#p5812bea460)" style="fill: none; stroke: #20a6a6; stroke-width: 1.5; stroke-linecap: square"/>
    <defs>
     <path id="m15465ef6e1" d="M 0 2.5 
C 0.663008 2.5 1.29895 2.236584 1.767767 1.767767 
C 2.236584 1.29895 2.5 0.663008 2.5 0 
C 2.5 -0.663008 2.236584 -1.29895 1.767767 -1.767767 
C 1.29895 -2.236584 0.663008 -2.5 0 -2.5 
C -0.663008 -2.5 -1.29895 -2.236584 -1.767767 -1.767767 
C -2.236584 -1.29895 -2.5 -0.663008 -2.5 0 
C -2.5 0.663008 -2.236584 1.29895 -1.767767 1.767767 
C -1.29895 2.236584 -0.663008 2.5 0 2.5 
z
" style="stroke: #20a6a6"/>
    </defs>
    <g clip-path="url(#p5812bea460)">
     <use xlink:href="#m15465ef6e1" x="261.982169" y="290.894544" style="fill: #20a6a6; stroke: #20a6a6"/>
    </g>
   </g>
   <g id="patch_3">
    <path d="M 108 388.3248 
L 108 52.3584 
" style="fill: none; stroke: #000000; stroke-width: 0.8; stroke-linejoin: miter; stroke-linecap: square"/>
   </g>
   <g id="patch_4">
    <path d="M 777.6 388.3248 
L 777.6 52.3584 
" style="fill: none; stroke: #000000; stroke-width: 0.8; stroke-linejoin: miter; stroke-linecap: square"/>
   </g>
   <g id="patch_5">
    <path d="M 108 388.3248 
L 777.6 388.3248 
" style="fill: none; stroke: #000000; stroke-width: 0.8; stroke-linejoin: miter; stroke-linecap: square"/>
   </g>
   <g id="patch_6">
    <path d="M 108 52.3584 
L 777.6 52.3584 
" style="fill: none; stroke: #000000; stroke-width: 0.8; stroke-linejoin: miter; stroke-linecap: square"/>
   </g>
   <g id="legend_1">
    <g id="patch_7">
     <path d="M 315.075781 280.530275 
L 570.524219 280.530275 
Q 572.524219 280.530275 572.524219 278.530275 
L 572.524219 59.3584 
Q 572.524219 57.3584 570.524219 57.3584 
L 315.075781 57.3584 
Q 313.075781 57.3584 313.075781 59.3584 
L 313.075781 278.530275 
Q 313.075781 280.530275 315.075781 280.530275 
z
" style="fill: #ffffff; opacity: 0.8; stroke: #cccccc; stroke-linejoin: miter"/>
    </g>
    <g id="PathCollection_1">
     <defs>
      <path id="mc24c1b7cc9" d="M 0 3.872983 
C 1.027127 3.872983 2.012324 3.464901 2.738613 2.738613 
C 3.464901 2.012324 3.872983 1.027127 3.872983 0 
C 3.872983 -1.027127 3.464901 -2.012324 2.738613 -2.738613 
C 2.012324 -3.464901 1.027127 -3.872983 0 -3.872983 
C -1.027127 -3.872983 -2.012324 -3.464901 -2.738613 -2.738613 
C -3.464901 -2.012324 -3.872983 -1.027127 -3.872983 0 
C -3.872983 1.027127 -3.464901 2.012324 -2.738613 2.738613 
C -2.012324 3.464901 -1.027127 3.872983 0 3.872983 
z
" style="stroke: #4628be"/>
     </defs>
     <g>
      <use xlink:href="#mc24c1b7cc9" x="327.075781" y="66.331838" style="fill: #4628be; stroke: #4628be"/>
     </g>
    </g>
    <g id="text_21">
     <!-- Ta -->
     <g transform="translate(345.075781 68.956838)scale(0.1 -0.1)">
      <defs>
       <path id="DejaVuSans-54" d="M -19 4666 
L 3928 4666 
L 3928 4134 
L 2272 4134 
L 2272 0 
L 1638 0 
L 1638 4134 
L -19 4134 
L -19 4666 
z
" transform="scale(0.015625)"/>
      </defs>
      <use xlink:href="#DejaVuSans-54"/>
      <use xlink:href="#DejaVuSans-61" x="44.583984"/>
     </g>
    </g>
    <g id="PathCollection_2">
     <defs>
      <path id="m00b6868712" d="M 0 3.872983 
C 1.027127 3.872983 2.012324 3.464901 2.738613 2.738613 
C 3.464901 2.012324 3.872983 1.027127 3.872983 0 
C 3.872983 -1.027127 3.464901 -2.012324 2.738613 -2.738613 
C 2.012324 -3.464901 1.027127 -3.872983 0 -3.872983 
C -1.027127 -3.872983 -2.012324 -3.464901 -2.738613 -2.738613 
C -3.464901 -2.012324 -3.872983 -1.027127 -3.872983 0 
C -3.872983 1.027127 -3.464901 2.012324 -2.738613 2.738613 
C -2.012324 3.464901 -1.027127 3.872983 0 3.872983 
z
" style="stroke: #1370b6"/>
     </defs>
     <g>
      <use xlink:href="#m00b6868712" x="327.075781" y="81.009963" style="fill: #1370b6; stroke: #1370b6"/>
     </g>
    </g>
    <g id="text_22">
     <!-- T8 -->
     <g transform="translate(345.075781 83.634963)scale(0.1 -0.1)">
      <use xlink:href="#DejaVuSans-54"/>
      <use xlink:href="#DejaVuSans-38" x="61.083984"/>
     </g>
    </g>
    <g id="PathCollection_3">
     <defs>
      <path id="m46f66db316" d="M 0 3.872983 
C 1.027127 3.872983 2.012324 3.464901 2.738613 2.738613 
C 3.464901 2.012324 3.872983 1.027127 3.872983 0 
C 3.872983 -1.027127 3.464901 -2.012324 2.738613 -2.738613 
C 2.012324 -3.464901 1.027127 -3.872983 0 -3.872983 
C -1.027127 -3.872983 -2.012324 -3.464901 -2.738613 -2.738613 
C -3.464901 -2.012324 -3.872983 -1.027127 -3.872983 0 
C -3.872983 1.027127 -3.464901 2.012324 -2.738613 2.738613 
C -2.012324 3.464901 -1.027127 3.872983 0 3.872983 
z
" style="stroke: #068eaf"/>
     </defs>
     <g>
      <use xlink:href="#m46f66db316" x="327.075781" y="95.688087" style="fill: #068eaf; stroke: #068eaf"/>
     </g>
    </g>
    <g id="text_23">
     <!-- T31 -->
     <g transform="translate(345.075781 98.313087)scale(0.1 -0.1)">
      <use xlink:href="#DejaVuSans-54"/>
      <use xlink:href="#DejaVuSans-33" x="61.083984"/>
      <use xlink:href="#DejaVuSans-31" x="124.707031"/>
     </g>
    </g>
    <g id="PathCollection_4">
     <defs>
      <path id="m01b6e1d502" d="M 0 3.872983 
C 1.027127 3.872983 2.012324 3.464901 2.738613 2.738613 
C 3.464901 2.012324 3.872983 1.027127 3.872983 0 
C 3.872983 -1.027127 3.464901 -2.012324 2.738613 -2.738613 
C 2.012324 -3.464901 1.027127 -3.872983 0 -3.872983 
C -1.027127 -3.872983 -2.012324 -3.464901 -2.738613 -2.738613 
C -3.464901 -2.012324 -3.872983 -1.027127 -3.872983 0 
C -3.872983 1.027127 -3.464901 2.012324 -2.738613 2.738613 
C -2.012324 3.464901 -1.027127 3.872983 0 3.872983 
z
" style="stroke: #39b69b"/>
     </defs>
     <g>
      <use xlink:href="#m01b6e1d502" x="327.075781" y="110.366213" style="fill: #39b69b; stroke: #39b69b"/>
     </g>
    </g>
    <g id="text_24">
     <!-- T61 -->
     <g transform="translate(345.075781 112.991213)scale(0.1 -0.1)">
      <use xlink:href="#DejaVuSans-54"/>
      <use xlink:href="#DejaVuSans-36" x="61.083984"/>
      <use xlink:href="#DejaVuSans-31" x="124.707031"/>
     </g>
    </g>
    <g id="PathCollection_5">
     <defs>
      <path id="m0dfa88ecb0" d="M 0 3.872983 
C 1.027127 3.872983 2.012324 3.464901 2.738613 2.738613 
C 3.464901 2.012324 3.872983 1.027127 3.872983 0 
C 3.872983 -1.027127 3.464901 -2.012324 2.738613 -2.738613 
C 2.012324 -3.464901 1.027127 -3.872983 0 -3.872983 
C -1.027127 -3.872983 -2.012324 -3.464901 -2.738613 -2.738613 
C -3.464901 -2.012324 -3.872983 -1.027127 -3.872983 0 
C -3.872983 1.027127 -3.464901 2.012324 -2.738613 2.738613 
C -2.012324 3.464901 -1.027127 3.872983 0 3.872983 
z
" style="stroke: #53be8e"/>
     </defs>
     <g>
      <use xlink:href="#m0dfa88ecb0" x="327.075781" y="125.044338" style="fill: #53be8e; stroke: #53be8e"/>
     </g>
    </g>
    <g id="text_25">
     <!-- T62 -->
     <g transform="translate(345.075781 127.669338)scale(0.1 -0.1)">
      <use xlink:href="#DejaVuSans-54"/>
      <use xlink:href="#DejaVuSans-36" x="61.083984"/>
      <use xlink:href="#DejaVuSans-32" x="124.707031"/>
     </g>
    </g>
    <g id="PathCollection_6">
     <defs>
      <path id="mbab7ed1275" d="M 0 3.872983 
C 1.027127 3.872983 2.012324 3.464901 2.738613 2.738613 
C 3.464901 2.012324 3.872983 1.027127 3.872983 0 
C 3.872983 -1.027127 3.464901 -2.012324 2.738613 -2.738613 
C 2.012324 -3.464901 1.027127 -3.872983 0 -3.872983 
C -1.027127 -3.872983 -2.012324 -3.464901 -2.738613 -2.738613 
C -3.464901 -2.012324 -3.872983 -1.027127 -3.872983 0 
C -3.872983 1.027127 -3.464901 2.012324 -2.738613 2.738613 
C -2.012324 3.464901 -1.027127 3.872983 0 3.872983 
z
" style="stroke: #6cbe80"/>
     </defs>
     <g>
      <use xlink:href="#mbab7ed1275" x="327.075781" y="139.722463" style="fill: #6cbe80; stroke: #6cbe80"/>
     </g>
    </g>
    <g id="text_26">
     <!-- T67 -->
     <g transform="translate(345.075781 142.347463)scale(0.1 -0.1)">
      <defs>
       <path id="DejaVuSans-37" d="M 525 4666 
L 3525 4666 
L 3525 4397 
L 1831 0 
L 1172 0 
L 2766 4134 
L 525 4134 
L 525 4666 
z
" transform="scale(0.015625)"/>
      </defs>
      <use xlink:href="#DejaVuSans-54"/>
      <use xlink:href="#DejaVuSans-36" x="61.083984"/>
      <use xlink:href="#DejaVuSans-37" x="124.707031"/>
     </g>
    </g>
    <g id="PathCollection_7">
     <defs>
      <path id="mce787340f1" d="M 0 3.872983 
C 1.027127 3.872983 2.012324 3.464901 2.738613 2.738613 
C 3.464901 2.012324 3.872983 1.027127 3.872983 0 
C 3.872983 -1.027127 3.464901 -2.012324 2.738613 -2.738613 
C 2.012324 -3.464901 1.027127 -3.872983 0 -3.872983 
C -1.027127 -3.872983 -2.012324 -3.464901 -2.738613 -2.738613 
C -3.464901 -2.012324 -3.872983 -1.027127 -3.872983 0 
C -3.872983 1.027127 -3.464901 2.012324 -2.738613 2.738613 
C -2.012324 3.464901 -1.027127 3.872983 0 3.872983 
z
" style="stroke: #86b670"/>
     </defs>
     <g>
      <use xlink:href="#mce787340f1" x="327.075781" y="154.400588" style="fill: #86b670; stroke: #86b670"/>
     </g>
    </g>
    <g id="text_27">
     <!-- T79 -->
     <g transform="translate(345.075781 157.025588)scale(0.1 -0.1)">
      <use xlink:href="#DejaVuSans-54"/>
      <use xlink:href="#DejaVuSans-37" x="61.083984"/>
      <use xlink:href="#DejaVuSans-39" x="124.707031"/>
     </g>
    </g>
    <g id="PathCollection_8">
     <defs>
      <path id="m5ef70d6751" d="M 0 3.872983 
C 1.027127 3.872983 2.012324 3.464901 2.738613 2.738613 
C 3.464901 2.012324 3.872983 1.027127 3.872983 0 
C 3.872983 -1.027127 3.464901 -2.012324 2.738613 -2.738613 
C 2.012324 -3.464901 1.027127 -3.872983 0 -3.872983 
C -1.027127 -3.872983 -2.012324 -3.464901 -2.738613 -2.738613 
C -3.464901 -2.012324 -3.872983 -1.027127 -3.872983 0 
C -3.872983 1.027127 -3.464901 2.012324 -2.738613 2.738613 
C -2.012324 3.464901 -1.027127 3.872983 0 3.872983 
z
" style="stroke: #9fa660"/>
     </defs>
     <g>
      <use xlink:href="#m5ef70d6751" x="327.075781" y="169.078712" style="fill: #9fa660; stroke: #9fa660"/>
     </g>
    </g>
    <g id="text_28">
     <!-- T85 -->
     <g transform="translate(345.075781 171.703712)scale(0.1 -0.1)">
      <use xlink:href="#DejaVuSans-54"/>
      <use xlink:href="#DejaVuSans-38" x="61.083984"/>
      <use xlink:href="#DejaVuSans-35" x="124.707031"/>
     </g>
    </g>
    <g id="PathCollection_9">
     <defs>
      <path id="m487fe0761b" d="M 0 3.872983 
C 1.027127 3.872983 2.012324 3.464901 2.738613 2.738613 
C 3.464901 2.012324 3.872983 1.027127 3.872983 0 
C 3.872983 -1.027127 3.464901 -2.012324 2.738613 -2.738613 
C 2.012324 -3.464901 1.027127 -3.872983 0 -3.872983 
C -1.027127 -3.872983 -2.012324 -3.464901 -2.738613 -2.738613 
C -3.464901 -2.012324 -3.872983 -1.027127 -3.872983 0 
C -3.872983 1.027127 -3.464901 2.012324 -2.738613 2.738613 
C -2.012324 3.464901 -1.027127 3.872983 0 3.872983 
z
" style="stroke: #b98e4e"/>
     </defs>
     <g>
      <use xlink:href="#m487fe0761b" x="327.075781" y="183.756838" style="fill: #b98e4e; stroke: #b98e4e"/>
     </g>
    </g>
    <g id="text_29">
     <!-- T92 -->
     <g transform="translate(345.075781 186.381838)scale(0.1 -0.1)">
      <use xlink:href="#DejaVuSans-54"/>
      <use xlink:href="#DejaVuSans-39" x="61.083984"/>
      <use xlink:href="#DejaVuSans-32" x="124.707031"/>
     </g>
    </g>
    <g id="PathCollection_10">
     <defs>
      <path id="m8ba5e9f71f" d="M 0 3.872983 
C 1.027127 3.872983 2.012324 3.464901 2.738613 2.738613 
C 3.464901 2.012324 3.872983 1.027127 3.872983 0 
C 3.872983 -1.027127 3.464901 -2.012324 2.738613 -2.738613 
C 2.012324 -3.464901 1.027127 -3.872983 0 -3.872983 
C -1.027127 -3.872983 -2.012324 -3.464901 -2.738613 -2.738613 
C -3.464901 -2.012324 -3.872983 -1.027127 -3.872983 0 
C -3.872983 1.027127 -3.464901 2.012324 -2.738613 2.738613 
C -2.012324 3.464901 -1.027127 3.872983 0 3.872983 
z
" style="stroke: #bf703b"/>
     </defs>
     <g>
      <use xlink:href="#m8ba5e9f71f" x="327.075781" y="198.434962" style="fill: #bf703b; stroke: #bf703b"/>
     </g>
    </g>
    <g id="text_30">
     <!-- T108 -->
     <g transform="translate(345.075781 201.059962)scale(0.1 -0.1)">
      <use xlink:href="#DejaVuSans-54"/>
      <use xlink:href="#DejaVuSans-31" x="61.083984"/>
      <use xlink:href="#DejaVuSans-30" x="124.707031"/>
      <use xlink:href="#DejaVuSans-38" x="188.330078"/>
     </g>
    </g>
    <g id="PathCollection_11">
     <defs>
      <path id="m73222e9d37" d="M 0 3.872983 
C 1.027127 3.872983 2.012324 3.464901 2.738613 2.738613 
C 3.464901 2.012324 3.872983 1.027127 3.872983 0 
C 3.872983 -1.027127 3.464901 -2.012324 2.738613 -2.738613 
C 2.012324 -3.464901 1.027127 -3.872983 0 -3.872983 
C -1.027127 -3.872983 -2.012324 -3.464901 -2.738613 -2.738613 
C -3.464901 -2.012324 -3.872983 -1.027127 -3.872983 0 
C -3.872983 1.027127 -3.464901 2.012324 -2.738613 2.738613 
C -2.012324 3.464901 -1.027127 3.872983 0 3.872983 
z
" style="stroke: #bf4e28"/>
     </defs>
     <g>
      <use xlink:href="#m73222e9d37" x="327.075781" y="213.113087" style="fill: #bf4e28; stroke: #bf4e28"/>
     </g>
    </g>
    <g id="text_31">
     <!-- T114 -->
     <g transform="translate(345.075781 215.738087)scale(0.1 -0.1)">
      <use xlink:href="#DejaVuSans-54"/>
      <use xlink:href="#DejaVuSans-31" x="61.083984"/>
      <use xlink:href="#DejaVuSans-31" x="124.707031"/>
      <use xlink:href="#DejaVuSans-34" x="188.330078"/>
     </g>
    </g>
    <g id="PathCollection_12">
     <defs>
      <path id="mcbe2726a06" d="M 0 3.872983 
C 1.027127 3.872983 2.012324 3.464901 2.738613 2.738613 
C 3.464901 2.012324 3.872983 1.027127 3.872983 0 
C 3.872983 -1.027127 3.464901 -2.012324 2.738613 -2.738613 
C 2.012324 -3.464901 1.027127 -3.872983 0 -3.872983 
C -1.027127 -3.872983 -2.012324 -3.464901 -2.738613 -2.738613 
C -3.464901 -2.012324 -3.872983 -1.027127 -3.872983 0 
C -3.872983 1.027127 -3.464901 2.012324 -2.738613 2.738613 
C -2.012324 3.464901 -1.027127 3.872983 0 3.872983 
z
" style="stroke: #bf2814"/>
     </defs>
     <g>
      <use xlink:href="#mcbe2726a06" x="327.075781" y="227.791212" style="fill: #bf2814; stroke: #bf2814"/>
     </g>
    </g>
    <g id="text_32">
     <!-- 278TI -->
     <g transform="translate(345.075781 230.416212)scale(0.1 -0.1)">
      <defs>
       <path id="DejaVuSans-49" d="M 628 4666 
L 1259 4666 
L 1259 0 
L 628 0 
L 628 4666 
z
" transform="scale(0.015625)"/>
      </defs>
      <use xlink:href="#DejaVuSans-32"/>
      <use xlink:href="#DejaVuSans-37" x="63.623047"/>
      <use xlink:href="#DejaVuSans-38" x="127.246094"/>
      <use xlink:href="#DejaVuSans-54" x="190.869141"/>
      <use xlink:href="#DejaVuSans-49" x="251.953125"/>
     </g>
    </g>
    <g id="LineCollection_4">
     <path d="M 327.075781 246.594337 
L 327.075781 236.594337 
" style="fill: none; stroke: #48008f; stroke-width: 2"/>
    </g>
    <g id="line2d_36">
     <g>
      <use xlink:href="#mb0c031ca38" x="327.075781" y="246.594337" style="fill: #48008f; stroke: #48008f; stroke-width: 2"/>
     </g>
    </g>
    <g id="line2d_37">
     <g>
      <use xlink:href="#mb0c031ca38" x="327.075781" y="236.594337" style="fill: #48008f; stroke: #48008f; stroke-width: 2"/>
     </g>
    </g>
    <g id="line2d_38">
     <path d="M 317.075781 241.594337 
L 337.075781 241.594337 
" style="fill: none; stroke: #6000bf; stroke-width: 1.5; stroke-linecap: square"/>
    </g>
    <g id="line2d_39">
     <g>
      <use xlink:href="#me1e9499ea4" x="327.075781" y="241.594337" style="fill: #6000bf; stroke: #6000bf"/>
     </g>
    </g>
    <g id="text_33">
     <!-- Selected Roman Image taken on 10/23/2004 -->
     <g transform="translate(345.075781 245.094337)scale(0.1 -0.1)">
      <defs>
       <path id="DejaVuSans-6c" d="M 603 4863 
L 1178 4863 
L 1178 0 
L 603 0 
L 603 4863 
z
" transform="scale(0.015625)"/>
       <path id="DejaVuSans-63" d="M 3122 3366 
L 3122 2828 
Q 2878 2963 2633 3030 
Q 2388 3097 2138 3097 
Q 1578 3097 1268 2742 
Q 959 2388 959 1747 
Q 959 1106 1268 751 
Q 1578 397 2138 397 
Q 2388 397 2633 464 
Q 2878 531 3122 666 
L 3122 134 
Q 2881 22 2623 -34 
Q 2366 -91 2075 -91 
Q 1284 -91 818 406 
Q 353 903 353 1747 
Q 353 2603 823 3093 
Q 1294 3584 2113 3584 
Q 2378 3584 2631 3529 
Q 2884 3475 3122 3366 
z
" transform="scale(0.015625)"/>
       <path id="DejaVuSans-52" d="M 2841 2188 
Q 3044 2119 3236 1894 
Q 3428 1669 3622 1275 
L 4263 0 
L 3584 0 
L 2988 1197 
Q 2756 1666 2539 1819 
Q 2322 1972 1947 1972 
L 1259 1972 
L 1259 0 
L 628 0 
L 628 4666 
L 2053 4666 
Q 2853 4666 3247 4331 
Q 3641 3997 3641 3322 
Q 3641 2881 3436 2590 
Q 3231 2300 2841 2188 
z
M 1259 4147 
L 1259 2491 
L 2053 2491 
Q 2509 2491 2742 2702 
Q 2975 2913 2975 3322 
Q 2975 3731 2742 3939 
Q 2509 4147 2053 4147 
L 1259 4147 
z
" transform="scale(0.015625)"/>
       <path id="DejaVuSans-6d" d="M 3328 2828 
Q 3544 3216 3844 3400 
Q 4144 3584 4550 3584 
Q 5097 3584 5394 3201 
Q 5691 2819 5691 2113 
L 5691 0 
L 5113 0 
L 5113 2094 
Q 5113 2597 4934 2840 
Q 4756 3084 4391 3084 
Q 3944 3084 3684 2787 
Q 3425 2491 3425 1978 
L 3425 0 
L 2847 0 
L 2847 2094 
Q 2847 2600 2669 2842 
Q 2491 3084 2119 3084 
Q 1678 3084 1418 2786 
Q 1159 2488 1159 1978 
L 1159 0 
L 581 0 
L 581 3500 
L 1159 3500 
L 1159 2956 
Q 1356 3278 1631 3431 
Q 1906 3584 2284 3584 
Q 2666 3584 2933 3390 
Q 3200 3197 3328 2828 
z
" transform="scale(0.015625)"/>
       <path id="DejaVuSans-67" d="M 2906 1791 
Q 2906 2416 2648 2759 
Q 2391 3103 1925 3103 
Q 1463 3103 1205 2759 
Q 947 2416 947 1791 
Q 947 1169 1205 825 
Q 1463 481 1925 481 
Q 2391 481 2648 825 
Q 2906 1169 2906 1791 
z
M 3481 434 
Q 3481 -459 3084 -895 
Q 2688 -1331 1869 -1331 
Q 1566 -1331 1297 -1286 
Q 1028 -1241 775 -1147 
L 775 -588 
Q 1028 -725 1275 -790 
Q 1522 -856 1778 -856 
Q 2344 -856 2625 -561 
Q 2906 -266 2906 331 
L 2906 616 
Q 2728 306 2450 153 
Q 2172 0 1784 0 
Q 1141 0 747 490 
Q 353 981 353 1791 
Q 353 2603 747 3093 
Q 1141 3584 1784 3584 
Q 2172 3584 2450 3431 
Q 2728 3278 2906 2969 
L 2906 3500 
L 3481 3500 
L 3481 434 
z
" transform="scale(0.015625)"/>
       <path id="DejaVuSans-6b" d="M 581 4863 
L 1159 4863 
L 1159 1991 
L 2875 3500 
L 3609 3500 
L 1753 1863 
L 3688 0 
L 2938 0 
L 1159 1709 
L 1159 0 
L 581 0 
L 581 4863 
z
" transform="scale(0.015625)"/>
       <path id="DejaVuSans-2f" d="M 1625 4666 
L 2156 4666 
L 531 -594 
L 0 -594 
L 1625 4666 
z
" transform="scale(0.015625)"/>
      </defs>
      <use xlink:href="#DejaVuSans-53"/>
      <use xlink:href="#DejaVuSans-65" x="63.476562"/>
      <use xlink:href="#DejaVuSans-6c" x="125"/>
      <use xlink:href="#DejaVuSans-65" x="152.783203"/>
      <use xlink:href="#DejaVuSans-63" x="214.306641"/>
      <use xlink:href="#DejaVuSans-74" x="269.287109"/>
      <use xlink:href="#DejaVuSans-65" x="308.496094"/>
      <use xlink:href="#DejaVuSans-64" x="370.019531"/>
      <use xlink:href="#DejaVuSans-20" x="433.496094"/>
      <use xlink:href="#DejaVuSans-52" x="465.283203"/>
      <use xlink:href="#DejaVuSans-6f" x="530.265625"/>
      <use xlink:href="#DejaVuSans-6d" x="591.447266"/>
      <use xlink:href="#DejaVuSans-61" x="688.859375"/>
      <use xlink:href="#DejaVuSans-6e" x="750.138672"/>
      <use xlink:href="#DejaVuSans-20" x="813.517578"/>
      <use xlink:href="#DejaVuSans-49" x="845.304688"/>
      <use xlink:href="#DejaVuSans-6d" x="874.796875"/>
      <use xlink:href="#DejaVuSans-61" x="972.208984"/>
      <use xlink:href="#DejaVuSans-67" x="1033.488281"/>
      <use xlink:href="#DejaVuSans-65" x="1096.964844"/>
      <use xlink:href="#DejaVuSans-20" x="1158.488281"/>
      <use xlink:href="#DejaVuSans-74" x="1190.275391"/>
      <use xlink:href="#DejaVuSans-61" x="1229.484375"/>
      <use xlink:href="#DejaVuSans-6b" x="1290.763672"/>
      <use xlink:href="#DejaVuSans-65" x="1345.048828"/>
      <use xlink:href="#DejaVuSans-6e" x="1406.572266"/>
      <use xlink:href="#DejaVuSans-20" x="1469.951172"/>
      <use xlink:href="#DejaVuSans-6f" x="1501.738281"/>
      <use xlink:href="#DejaVuSans-6e" x="1562.919922"/>
      <use xlink:href="#DejaVuSans-20" x="1626.298828"/>
      <use xlink:href="#DejaVuSans-31" x="1658.085938"/>
      <use xlink:href="#DejaVuSans-30" x="1721.708984"/>
      <use xlink:href="#DejaVuSans-2f" x="1785.332031"/>
      <use xlink:href="#DejaVuSans-32" x="1819.023438"/>
      <use xlink:href="#DejaVuSans-33" x="1882.646484"/>
      <use xlink:href="#DejaVuSans-2f" x="1946.269531"/>
      <use xlink:href="#DejaVuSans-32" x="1979.960938"/>
      <use xlink:href="#DejaVuSans-30" x="2043.583984"/>
      <use xlink:href="#DejaVuSans-30" x="2107.207031"/>
      <use xlink:href="#DejaVuSans-34" x="2170.830078"/>
     </g>
    </g>
    <g id="LineCollection_5">
     <path d="M 327.075781 261.272462 
L 327.075781 251.272462 
" style="fill: none; stroke: #213a8c; stroke-width: 2"/>
    </g>
    <g id="line2d_40">
     <g>
      <use xlink:href="#m1e9c410ac0" x="327.075781" y="261.272462" style="fill: #213a8c; stroke: #213a8c; stroke-width: 2"/>
     </g>
    </g>
    <g id="line2d_41">
     <g>
      <use xlink:href="#m1e9c410ac0" x="327.075781" y="251.272462" style="fill: #213a8c; stroke: #213a8c; stroke-width: 2"/>
     </g>
    </g>
    <g id="line2d_42">
     <path d="M 317.075781 256.272462 
L 337.075781 256.272462 
" style="fill: none; stroke: #2d4ebb; stroke-width: 1.5; stroke-linecap: square"/>
    </g>
    <g id="line2d_43">
     <g>
      <use xlink:href="#m3b6c954413" x="327.075781" y="256.272462" style="fill: #2d4ebb; stroke: #2d4ebb"/>
     </g>
    </g>
    <g id="text_34">
     <!-- Selected Roman Image taken on 10/27/2005 -->
     <g transform="translate(345.075781 259.772462)scale(0.1 -0.1)">
      <use xlink:href="#DejaVuSans-53"/>
      <use xlink:href="#DejaVuSans-65" x="63.476562"/>
      <use xlink:href="#DejaVuSans-6c" x="125"/>
      <use xlink:href="#DejaVuSans-65" x="152.783203"/>
      <use xlink:href="#DejaVuSans-63" x="214.306641"/>
      <use xlink:href="#DejaVuSans-74" x="269.287109"/>
      <use xlink:href="#DejaVuSans-65" x="308.496094"/>
      <use xlink:href="#DejaVuSans-64" x="370.019531"/>
      <use xlink:href="#DejaVuSans-20" x="433.496094"/>
      <use xlink:href="#DejaVuSans-52" x="465.283203"/>
      <use xlink:href="#DejaVuSans-6f" x="530.265625"/>
      <use xlink:href="#DejaVuSans-6d" x="591.447266"/>
      <use xlink:href="#DejaVuSans-61" x="688.859375"/>
      <use xlink:href="#DejaVuSans-6e" x="750.138672"/>
      <use xlink:href="#DejaVuSans-20" x="813.517578"/>
      <use xlink:href="#DejaVuSans-49" x="845.304688"/>
      <use xlink:href="#DejaVuSans-6d" x="874.796875"/>
      <use xlink:href="#DejaVuSans-61" x="972.208984"/>
      <use xlink:href="#DejaVuSans-67" x="1033.488281"/>
      <use xlink:href="#DejaVuSans-65" x="1096.964844"/>
      <use xlink:href="#DejaVuSans-20" x="1158.488281"/>
      <use xlink:href="#DejaVuSans-74" x="1190.275391"/>
      <use xlink:href="#DejaVuSans-61" x="1229.484375"/>
      <use xlink:href="#DejaVuSans-6b" x="1290.763672"/>
      <use xlink:href="#DejaVuSans-65" x="1345.048828"/>
      <use xlink:href="#DejaVuSans-6e" x="1406.572266"/>
      <use xlink:href="#DejaVuSans-20" x="1469.951172"/>
      <use xlink:href="#DejaVuSans-6f" x="1501.738281"/>
      <use xlink:href="#DejaVuSans-6e" x="1562.919922"/>
      <use xlink:href="#DejaVuSans-20" x="1626.298828"/>
      <use xlink:href="#DejaVuSans-31" x="1658.085938"/>
      <use xlink:href="#DejaVuSans-30" x="1721.708984"/>
      <use xlink:href="#DejaVuSans-2f" x="1785.332031"/>
      <use xlink:href="#DejaVuSans-32" x="1819.023438"/>
      <use xlink:href="#DejaVuSans-37" x="1882.646484"/>
      <use xlink:href="#DejaVuSans-2f" x="1946.269531"/>
      <use xlink:href="#DejaVuSans-32" x="1979.960938"/>
      <use xlink:href="#DejaVuSans-30" x="2043.583984"/>
      <use xlink:href="#DejaVuSans-30" x="2107.207031"/>
      <use xlink:href="#DejaVuSans-35" x="2170.830078"/>
     </g>
    </g>
    <g id="LineCollection_6">
     <path d="M 327.075781 275.950587 
L 327.075781 265.950587 
" style="fill: none; stroke: #187c7c; stroke-width: 2"/>
    </g>
    <g id="line2d_44">
     <g>
      <use xlink:href="#m36937db4dd" x="327.075781" y="275.950587" style="fill: #187c7c; stroke: #187c7c; stroke-width: 2"/>
     </g>
    </g>
    <g id="line2d_45">
     <g>
      <use xlink:href="#m36937db4dd" x="327.075781" y="265.950587" style="fill: #187c7c; stroke: #187c7c; stroke-width: 2"/>
     </g>
    </g>
    <g id="line2d_46">
     <path d="M 317.075781 270.950587 
L 337.075781 270.950587 
" style="fill: none; stroke: #20a6a6; stroke-width: 1.5; stroke-linecap: square"/>
    </g>
    <g id="line2d_47">
     <g>
      <use xlink:href="#m15465ef6e1" x="327.075781" y="270.950587" style="fill: #20a6a6; stroke: #20a6a6"/>
     </g>
    </g>
    <g id="text_35">
     <!-- Selected Roman Image taken on 05/29/2007 -->
     <g transform="translate(345.075781 274.450587)scale(0.1 -0.1)">
      <use xlink:href="#DejaVuSans-53"/>
      <use xlink:href="#DejaVuSans-65" x="63.476562"/>
      <use xlink:href="#DejaVuSans-6c" x="125"/>
      <use xlink:href="#DejaVuSans-65" x="152.783203"/>
      <use xlink:href="#DejaVuSans-63" x="214.306641"/>
      <use xlink:href="#DejaVuSans-74" x="269.287109"/>
      <use xlink:href="#DejaVuSans-65" x="308.496094"/>
      <use xlink:href="#DejaVuSans-64" x="370.019531"/>
      <use xlink:href="#DejaVuSans-20" x="433.496094"/>
      <use xlink:href="#DejaVuSans-52" x="465.283203"/>
      <use xlink:href="#DejaVuSans-6f" x="530.265625"/>
      <use xlink:href="#DejaVuSans-6d" x="591.447266"/>
      <use xlink:href="#DejaVuSans-61" x="688.859375"/>
      <use xlink:href="#DejaVuSans-6e" x="750.138672"/>
      <use xlink:href="#DejaVuSans-20" x="813.517578"/>
      <use xlink:href="#DejaVuSans-49" x="845.304688"/>
      <use xlink:href="#DejaVuSans-6d" x="874.796875"/>
      <use xlink:href="#DejaVuSans-61" x="972.208984"/>
      <use xlink:href="#DejaVuSans-67" x="1033.488281"/>
      <use xlink:href="#DejaVuSans-65" x="1096.964844"/>
      <use xlink:href="#DejaVuSans-20" x="1158.488281"/>
      <use xlink:href="#DejaVuSans-74" x="1190.275391"/>
      <use xlink:href="#DejaVuSans-61" x="1229.484375"/>
      <use xlink:href="#DejaVuSans-6b" x="1290.763672"/>
      <use xlink:href="#DejaVuSans-65" x="1345.048828"/>
      <use xlink:href="#DejaVuSans-6e" x="1406.572266"/>
      <use xlink:href="#DejaVuSans-20" x="1469.951172"/>
      <use xlink:href="#DejaVuSans-6f" x="1501.738281"/>
      <use xlink:href="#DejaVuSans-6e" x="1562.919922"/>
      <use xlink:href="#DejaVuSans-20" x="1626.298828"/>
      <use xlink:href="#DejaVuSans-30" x="1658.085938"/>
      <use xlink:href="#DejaVuSans-35" x="1721.708984"/>
      <use xlink:href="#DejaVuSans-2f" x="1785.332031"/>
      <use xlink:href="#DejaVuSans-32" x="1819.023438"/>
      <use xlink:href="#DejaVuSans-39" x="1882.646484"/>
      <use xlink:href="#DejaVuSans-2f" x="1946.269531"/>
      <use xlink:href="#DejaVuSans-32" x="1979.960938"/>
      <use xlink:href="#DejaVuSans-30" x="2043.583984"/>
      <use xlink:href="#DejaVuSans-30" x="2107.207031"/>
      <use xlink:href="#DejaVuSans-37" x="2170.830078"/>
     </g>
    </g>
   </g>
   <g id="PathCollection_13">
    <g clip-path="url(#p5812bea460)">
     <use xlink:href="#mc24c1b7cc9" x="138.827744" y="323.913138" style="fill: #4628be; stroke: #4628be"/>
    </g>
   </g>
   <g id="PathCollection_14">
    <g clip-path="url(#p5812bea460)">
     <use xlink:href="#m00b6868712" x="186.576176" y="322.913173" style="fill: #1370b6; stroke: #1370b6"/>
    </g>
   </g>
   <g id="PathCollection_15">
    <g clip-path="url(#p5812bea460)">
     <use xlink:href="#m46f66db316" x="261.851709" y="318.644768" style="fill: #068eaf; stroke: #068eaf"/>
    </g>
   </g>
   <g id="PathCollection_16">
    <g clip-path="url(#p5812bea460)">
     <use xlink:href="#m01b6e1d502" x="368.698609" y="318.371136" style="fill: #39b69b; stroke: #39b69b"/>
    </g>
   </g>
   <g id="PathCollection_17">
    <g clip-path="url(#p5812bea460)">
     <use xlink:href="#m0dfa88ecb0" x="374.960698" y="320.485265" style="fill: #53be8e; stroke: #53be8e"/>
    </g>
   </g>
   <g id="PathCollection_18">
    <g clip-path="url(#p5812bea460)">
     <use xlink:href="#mbab7ed1275" x="400.400436" y="319.869526" style="fill: #6cbe80; stroke: #6cbe80"/>
    </g>
   </g>
   <g id="PathCollection_19">
    <g clip-path="url(#p5812bea460)">
     <use xlink:href="#mce787340f1" x="478.285173" y="299.227245" style="fill: #86b670; stroke: #86b670"/>
    </g>
   </g>
   <g id="PathCollection_20">
    <g clip-path="url(#p5812bea460)">
     <use xlink:href="#m5ef70d6751" x="507.508257" y="297.401676" style="fill: #9fa660; stroke: #9fa660"/>
    </g>
   </g>
   <g id="PathCollection_21">
    <g clip-path="url(#p5812bea460)">
     <use xlink:href="#m487fe0761b" x="553.169325" y="249.803923" style="fill: #b98e4e; stroke: #b98e4e"/>
    </g>
   </g>
   <g id="PathCollection_22">
    <g clip-path="url(#p5812bea460)">
     <use xlink:href="#m8ba5e9f71f" x="663.277731" y="182.846002" style="fill: #bf703b; stroke: #bf703b"/>
    </g>
   </g>
   <g id="PathCollection_23">
    <g clip-path="url(#p5812bea460)">
     <use xlink:href="#m73222e9d37" x="668.496138" y="185.704862" style="fill: #bf4e28; stroke: #bf4e28"/>
    </g>
   </g>
   <g id="PathCollection_24">
    <g clip-path="url(#p5812bea460)">
     <use xlink:href="#mcbe2726a06" x="747.163636" y="74.720284" style="fill: #bf2814; stroke: #bf2814"/>
    </g>
   </g>
  </g>
 </g>
 <defs>
  <clipPath id="p5812bea460">
   <rect x="108" y="52.3584" width="669.6" height="335.9664"/>
  </clipPath>
 </defs>
</svg>
