<?xml version="1.0" encoding="utf-8" standalone="no"?>
<!DOCTYPE svg PUBLIC "-//W3C//DTD SVG 1.1//EN"
  "http://www.w3.org/Graphics/SVG/1.1/DTD/svg11.dtd">
<svg xmlns:xlink="http://www.w3.org/1999/xlink" width="944.64pt" height="662.4pt" viewBox="0 0 944.64 662.4" xmlns="http://www.w3.org/2000/svg" version="1.1">
 <metadata>
  <rdf:RDF xmlns:dc="http://purl.org/dc/elements/1.1/" xmlns:cc="http://creativecommons.org/ns#" xmlns:rdf="http://www.w3.org/1999/02/22-rdf-syntax-ns#">
   <cc:Work>
    <dc:type rdf:resource="http://purl.org/dc/dcmitype/StillImage"/>
    <dc:date>2022-06-23T21:19:24.240967</dc:date>
    <dc:format>image/svg+xml</dc:format>
    <dc:creator>
     <cc:Agent>
      <dc:title>Matplotlib v3.5.1, https://matplotlib.org/</dc:title>
     </cc:Agent>
    </dc:creator>
   </cc:Work>
  </rdf:RDF>
 </metadata>
 <defs>
  <style type="text/css">*{stroke-linejoin: round; stroke-linecap: butt}</style>
 </defs>
 <g id="figure_1">
  <g id="patch_1">
   <path d="M 0 662.4 
L 944.64 662.4 
L 944.64 0 
L 0 0 
z
" style="fill: #ffffff"/>
  </g>
  <g id="axes_1">
   <g id="patch_2">
    <path d="M 118.08 589.536 
L 850.176 589.536 
L 850.176 79.488 
L 118.08 79.488 
z
" style="fill: #ffffff"/>
   </g>
   <g id="matplotlib.axis_1">
    <g id="xtick_1">
     <g id="line2d_1">
      <defs>
       <path id="me2d589ed76" d="M 0 0 
L 0 3.5 
" style="stroke: #000000; stroke-width: 0.8"/>
      </defs>
      <g>
       <use xlink:href="#me2d589ed76" x="118.08" y="589.536" style="stroke: #000000; stroke-width: 0.8"/>
      </g>
     </g>
     <g id="text_1">
      <!-- 0.000 -->
      <g transform="translate(90.988594 610.308812)scale(0.18 -0.18)">
       <defs>
        <path id="DejaVuSansMono-30" d="M 1509 2344 
Q 1509 2516 1629 2641 
Q 1750 2766 1919 2766 
Q 2094 2766 2219 2641 
Q 2344 2516 2344 2344 
Q 2344 2169 2220 2047 
Q 2097 1925 1919 1925 
Q 1744 1925 1626 2044 
Q 1509 2163 1509 2344 
z
M 1925 4250 
Q 1484 4250 1267 3775 
Q 1050 3300 1050 2328 
Q 1050 1359 1267 884 
Q 1484 409 1925 409 
Q 2369 409 2586 884 
Q 2803 1359 2803 2328 
Q 2803 3300 2586 3775 
Q 2369 4250 1925 4250 
z
M 1925 4750 
Q 2672 4750 3055 4137 
Q 3438 3525 3438 2328 
Q 3438 1134 3055 521 
Q 2672 -91 1925 -91 
Q 1178 -91 797 521 
Q 416 1134 416 2328 
Q 416 3525 797 4137 
Q 1178 4750 1925 4750 
z
" transform="scale(0.015625)"/>
        <path id="DejaVuSansMono-2e" d="M 1528 953 
L 2316 953 
L 2316 0 
L 1528 0 
L 1528 953 
z
" transform="scale(0.015625)"/>
       </defs>
       <use xlink:href="#DejaVuSansMono-30"/>
       <use xlink:href="#DejaVuSansMono-2e" x="60.205078"/>
       <use xlink:href="#DejaVuSansMono-30" x="120.410156"/>
       <use xlink:href="#DejaVuSansMono-30" x="180.615234"/>
       <use xlink:href="#DejaVuSansMono-30" x="240.820312"/>
      </g>
     </g>
    </g>
    <g id="xtick_2">
     <g id="line2d_2">
      <g>
       <use xlink:href="#me2d589ed76" x="264.4992" y="589.536" style="stroke: #000000; stroke-width: 0.8"/>
      </g>
     </g>
     <g id="text_2">
      <!-- 0.015 -->
      <g transform="translate(237.407794 610.308812)scale(0.18 -0.18)">
       <defs>
        <path id="DejaVuSansMono-31" d="M 844 531 
L 1825 531 
L 1825 4097 
L 769 3859 
L 769 4434 
L 1819 4666 
L 2450 4666 
L 2450 531 
L 3419 531 
L 3419 0 
L 844 0 
L 844 531 
z
" transform="scale(0.015625)"/>
        <path id="DejaVuSansMono-35" d="M 647 4666 
L 3009 4666 
L 3009 4134 
L 1222 4134 
L 1222 2988 
Q 1356 3038 1492 3061 
Q 1628 3084 1766 3084 
Q 2491 3084 2916 2656 
Q 3341 2228 3341 1497 
Q 3341 759 2895 334 
Q 2450 -91 1678 -91 
Q 1306 -91 998 -41 
Q 691 9 447 109 
L 447 750 
Q 734 594 1025 517 
Q 1316 441 1619 441 
Q 2141 441 2423 716 
Q 2706 991 2706 1497 
Q 2706 1997 2414 2275 
Q 2122 2553 1600 2553 
Q 1347 2553 1106 2495 
Q 866 2438 647 2322 
L 647 4666 
z
" transform="scale(0.015625)"/>
       </defs>
       <use xlink:href="#DejaVuSansMono-30"/>
       <use xlink:href="#DejaVuSansMono-2e" x="60.205078"/>
       <use xlink:href="#DejaVuSansMono-30" x="120.410156"/>
       <use xlink:href="#DejaVuSansMono-31" x="180.615234"/>
       <use xlink:href="#DejaVuSansMono-35" x="240.820312"/>
      </g>
     </g>
    </g>
    <g id="xtick_3">
     <g id="line2d_3">
      <g>
       <use xlink:href="#me2d589ed76" x="410.9184" y="589.536" style="stroke: #000000; stroke-width: 0.8"/>
      </g>
     </g>
     <g id="text_3">
      <!-- 0.030 -->
      <g transform="translate(383.826994 610.308812)scale(0.18 -0.18)">
       <defs>
        <path id="DejaVuSansMono-33" d="M 2425 2497 
Q 2884 2375 3128 2064 
Q 3372 1753 3372 1288 
Q 3372 644 2939 276 
Q 2506 -91 1741 -91 
Q 1419 -91 1084 -31 
Q 750 28 428 141 
L 428 769 
Q 747 603 1056 522 
Q 1366 441 1672 441 
Q 2191 441 2469 675 
Q 2747 909 2747 1350 
Q 2747 1756 2469 1995 
Q 2191 2234 1716 2234 
L 1234 2234 
L 1234 2753 
L 1716 2753 
Q 2150 2753 2394 2943 
Q 2638 3134 2638 3475 
Q 2638 3834 2411 4026 
Q 2184 4219 1766 4219 
Q 1488 4219 1191 4156 
Q 894 4094 569 3969 
L 569 4550 
Q 947 4650 1242 4700 
Q 1538 4750 1766 4750 
Q 2447 4750 2855 4408 
Q 3263 4066 3263 3500 
Q 3263 3116 3048 2859 
Q 2834 2603 2425 2497 
z
" transform="scale(0.015625)"/>
       </defs>
       <use xlink:href="#DejaVuSansMono-30"/>
       <use xlink:href="#DejaVuSansMono-2e" x="60.205078"/>
       <use xlink:href="#DejaVuSansMono-30" x="120.410156"/>
       <use xlink:href="#DejaVuSansMono-33" x="180.615234"/>
       <use xlink:href="#DejaVuSansMono-30" x="240.820312"/>
      </g>
     </g>
    </g>
    <g id="xtick_4">
     <g id="line2d_4">
      <g>
       <use xlink:href="#me2d589ed76" x="557.3376" y="589.536" style="stroke: #000000; stroke-width: 0.8"/>
      </g>
     </g>
     <g id="text_4">
      <!-- 0.045 -->
      <g transform="translate(530.246194 610.308812)scale(0.18 -0.18)">
       <defs>
        <path id="DejaVuSansMono-34" d="M 2297 4091 
L 825 1625 
L 2297 1625 
L 2297 4091 
z
M 2194 4666 
L 2925 4666 
L 2925 1625 
L 3547 1625 
L 3547 1113 
L 2925 1113 
L 2925 0 
L 2297 0 
L 2297 1113 
L 319 1113 
L 319 1709 
L 2194 4666 
z
" transform="scale(0.015625)"/>
       </defs>
       <use xlink:href="#DejaVuSansMono-30"/>
       <use xlink:href="#DejaVuSansMono-2e" x="60.205078"/>
       <use xlink:href="#DejaVuSansMono-30" x="120.410156"/>
       <use xlink:href="#DejaVuSansMono-34" x="180.615234"/>
       <use xlink:href="#DejaVuSansMono-35" x="240.820312"/>
      </g>
     </g>
    </g>
    <g id="xtick_5">
     <g id="line2d_5">
      <g>
       <use xlink:href="#me2d589ed76" x="703.7568" y="589.536" style="stroke: #000000; stroke-width: 0.8"/>
      </g>
     </g>
     <g id="text_5">
      <!-- 0.060 -->
      <g transform="translate(676.665394 610.308812)scale(0.18 -0.18)">
       <defs>
        <path id="DejaVuSansMono-36" d="M 3097 4563 
L 3097 3981 
Q 2900 4097 2678 4158 
Q 2456 4219 2216 4219 
Q 1616 4219 1306 3767 
Q 997 3316 997 2438 
Q 1147 2750 1412 2917 
Q 1678 3084 2022 3084 
Q 2697 3084 3067 2670 
Q 3438 2256 3438 1497 
Q 3438 741 3056 325 
Q 2675 -91 1984 -91 
Q 1172 -91 794 492 
Q 416 1075 416 2328 
Q 416 3509 870 4129 
Q 1325 4750 2188 4750 
Q 2419 4750 2650 4701 
Q 2881 4653 3097 4563 
z
M 1972 2591 
Q 1569 2591 1337 2300 
Q 1106 2009 1106 1497 
Q 1106 984 1337 693 
Q 1569 403 1972 403 
Q 2391 403 2603 679 
Q 2816 956 2816 1497 
Q 2816 2041 2603 2316 
Q 2391 2591 1972 2591 
z
" transform="scale(0.015625)"/>
       </defs>
       <use xlink:href="#DejaVuSansMono-30"/>
       <use xlink:href="#DejaVuSansMono-2e" x="60.205078"/>
       <use xlink:href="#DejaVuSansMono-30" x="120.410156"/>
       <use xlink:href="#DejaVuSansMono-36" x="180.615234"/>
       <use xlink:href="#DejaVuSansMono-30" x="240.820312"/>
      </g>
     </g>
    </g>
    <g id="xtick_6">
     <g id="line2d_6">
      <g>
       <use xlink:href="#me2d589ed76" x="850.176" y="589.536" style="stroke: #000000; stroke-width: 0.8"/>
      </g>
     </g>
     <g id="text_6">
      <!-- 0.075 -->
      <g transform="translate(823.084594 610.308812)scale(0.18 -0.18)">
       <defs>
        <path id="DejaVuSansMono-37" d="M 434 4666 
L 3372 4666 
L 3372 4397 
L 1703 0 
L 1044 0 
L 2669 4134 
L 434 4134 
L 434 4666 
z
" transform="scale(0.015625)"/>
       </defs>
       <use xlink:href="#DejaVuSansMono-30"/>
       <use xlink:href="#DejaVuSansMono-2e" x="60.205078"/>
       <use xlink:href="#DejaVuSansMono-30" x="120.410156"/>
       <use xlink:href="#DejaVuSansMono-37" x="180.615234"/>
       <use xlink:href="#DejaVuSansMono-35" x="240.820312"/>
      </g>
     </g>
    </g>
    <g id="text_7">
     <!-- I/F -->
     <g transform="translate(462.454875 636.416)scale(0.24 -0.24)">
      <defs>
       <path id="DejaVuSansMono-49" d="M 628 4666 
L 3219 4666 
L 3219 4134 
L 2241 4134 
L 2241 531 
L 3219 531 
L 3219 0 
L 628 0 
L 628 531 
L 1606 531 
L 1606 4134 
L 628 4134 
L 628 4666 
z
" transform="scale(0.015625)"/>
       <path id="DejaVuSansMono-2f" d="M 2778 4666 
L 3372 4666 
L 916 -594 
L 319 -594 
L 2778 4666 
z
" transform="scale(0.015625)"/>
       <path id="DejaVuSansMono-46" d="M 728 4666 
L 3475 4666 
L 3475 4134 
L 1363 4134 
L 1363 2759 
L 3278 2759 
L 3278 2228 
L 1363 2228 
L 1363 0 
L 728 0 
L 728 4666 
z
" transform="scale(0.015625)"/>
      </defs>
      <use xlink:href="#DejaVuSansMono-49"/>
      <use xlink:href="#DejaVuSansMono-2f" x="60.205078"/>
      <use xlink:href="#DejaVuSansMono-46" x="120.410156"/>
     </g>
    </g>
   </g>
   <g id="matplotlib.axis_2">
    <g id="ytick_1">
     <g id="line2d_7">
      <defs>
       <path id="m80aeb5f7b0" d="M 0 0 
L -3.5 0 
" style="stroke: #000000; stroke-width: 0.8"/>
      </defs>
      <g>
       <use xlink:href="#m80aeb5f7b0" x="118.08" y="589.536" style="stroke: #000000; stroke-width: 0.8"/>
      </g>
     </g>
     <g id="text_8">
      <!-- 90°S -->
      <g transform="translate(67.73375 596.422406)scale(0.18 -0.18)">
       <defs>
        <path id="DejaVuSansMono-39" d="M 1863 2069 
Q 2266 2069 2495 2359 
Q 2725 2650 2725 3163 
Q 2725 3675 2495 3965 
Q 2266 4256 1863 4256 
Q 1444 4256 1231 3979 
Q 1019 3703 1019 3163 
Q 1019 2619 1230 2344 
Q 1441 2069 1863 2069 
z
M 738 97 
L 738 678 
Q 934 563 1156 502 
Q 1378 441 1619 441 
Q 2219 441 2526 892 
Q 2834 1344 2834 2222 
Q 2688 1909 2422 1742 
Q 2156 1575 1813 1575 
Q 1138 1575 767 1990 
Q 397 2406 397 3169 
Q 397 3922 776 4336 
Q 1156 4750 1850 4750 
Q 2663 4750 3041 4165 
Q 3419 3581 3419 2328 
Q 3419 1150 2964 529 
Q 2509 -91 1644 -91 
Q 1416 -91 1184 -42 
Q 953 6 738 97 
z
" transform="scale(0.015625)"/>
        <path id="DejaVuSansMono-b0" d="M 1925 4750 
Q 2128 4750 2311 4673 
Q 2494 4597 2631 4453 
Q 2772 4313 2845 4134 
Q 2919 3956 2919 3750 
Q 2919 3338 2628 3052 
Q 2338 2766 1919 2766 
Q 1497 2766 1215 3047 
Q 934 3328 934 3750 
Q 934 4169 1221 4459 
Q 1509 4750 1925 4750 
z
M 1925 4347 
Q 1678 4347 1504 4173 
Q 1331 4000 1331 3750 
Q 1331 3500 1501 3331 
Q 1672 3163 1919 3163 
Q 2169 3163 2345 3334 
Q 2522 3506 2522 3750 
Q 2522 3997 2347 4172 
Q 2172 4347 1925 4347 
z
" transform="scale(0.015625)"/>
        <path id="DejaVuSansMono-53" d="M 3163 4506 
L 3163 3866 
Q 2875 4050 2586 4144 
Q 2297 4238 2003 4238 
Q 1556 4238 1297 4030 
Q 1038 3822 1038 3469 
Q 1038 3159 1208 2996 
Q 1378 2834 1844 2725 
L 2175 2650 
Q 2831 2497 3131 2169 
Q 3431 1841 3431 1275 
Q 3431 609 3018 259 
Q 2606 -91 1819 -91 
Q 1491 -91 1159 -20 
Q 828 50 494 191 
L 494 863 
Q 853 634 1173 528 
Q 1494 422 1819 422 
Q 2297 422 2562 636 
Q 2828 850 2828 1234 
Q 2828 1584 2645 1768 
Q 2463 1953 2009 2053 
L 1672 2131 
Q 1022 2278 728 2575 
Q 434 2872 434 3372 
Q 434 3997 854 4373 
Q 1275 4750 1972 4750 
Q 2241 4750 2537 4689 
Q 2834 4628 3163 4506 
z
" transform="scale(0.015625)"/>
       </defs>
       <use xlink:href="#DejaVuSansMono-39"/>
       <use xlink:href="#DejaVuSansMono-30" x="60.205078"/>
       <use xlink:href="#DejaVuSansMono-b0" x="120.410156"/>
       <use xlink:href="#DejaVuSansMono-53" x="180.615234"/>
      </g>
     </g>
    </g>
    <g id="ytick_2">
     <g id="line2d_8">
      <g>
       <use xlink:href="#m80aeb5f7b0" x="118.08" y="504.528" style="stroke: #000000; stroke-width: 0.8"/>
      </g>
     </g>
     <g id="text_9">
      <!-- 60°S -->
      <g transform="translate(67.73375 511.414406)scale(0.18 -0.18)">
       <use xlink:href="#DejaVuSansMono-36"/>
       <use xlink:href="#DejaVuSansMono-30" x="60.205078"/>
       <use xlink:href="#DejaVuSansMono-b0" x="120.410156"/>
       <use xlink:href="#DejaVuSansMono-53" x="180.615234"/>
      </g>
     </g>
    </g>
    <g id="ytick_3">
     <g id="line2d_9">
      <g>
       <use xlink:href="#m80aeb5f7b0" x="118.08" y="419.52" style="stroke: #000000; stroke-width: 0.8"/>
      </g>
     </g>
     <g id="text_10">
      <!-- 30°S -->
      <g transform="translate(67.73375 426.406406)scale(0.18 -0.18)">
       <use xlink:href="#DejaVuSansMono-33"/>
       <use xlink:href="#DejaVuSansMono-30" x="60.205078"/>
       <use xlink:href="#DejaVuSansMono-b0" x="120.410156"/>
       <use xlink:href="#DejaVuSansMono-53" x="180.615234"/>
      </g>
     </g>
    </g>
    <g id="ytick_4">
     <g id="line2d_10">
      <g>
       <use xlink:href="#m80aeb5f7b0" x="118.08" y="334.512" style="stroke: #000000; stroke-width: 0.8"/>
      </g>
     </g>
     <g id="text_11">
      <!-- 0° -->
      <g transform="translate(89.406875 341.398406)scale(0.18 -0.18)">
       <use xlink:href="#DejaVuSansMono-30"/>
       <use xlink:href="#DejaVuSansMono-b0" x="60.205078"/>
      </g>
     </g>
    </g>
    <g id="ytick_5">
     <g id="line2d_11">
      <g>
       <use xlink:href="#m80aeb5f7b0" x="118.08" y="249.504" style="stroke: #000000; stroke-width: 0.8"/>
      </g>
     </g>
     <g id="text_12">
      <!-- 30°N -->
      <g transform="translate(67.73375 256.390406)scale(0.18 -0.18)">
       <defs>
        <path id="DejaVuSansMono-4e" d="M 434 4666 
L 1234 4666 
L 2809 825 
L 2809 4666 
L 3419 4666 
L 3419 0 
L 2619 0 
L 1044 3841 
L 1044 0 
L 434 0 
L 434 4666 
z
" transform="scale(0.015625)"/>
       </defs>
       <use xlink:href="#DejaVuSansMono-33"/>
       <use xlink:href="#DejaVuSansMono-30" x="60.205078"/>
       <use xlink:href="#DejaVuSansMono-b0" x="120.410156"/>
       <use xlink:href="#DejaVuSansMono-4e" x="180.615234"/>
      </g>
     </g>
    </g>
    <g id="ytick_6">
     <g id="line2d_12">
      <g>
       <use xlink:href="#m80aeb5f7b0" x="118.08" y="164.496" style="stroke: #000000; stroke-width: 0.8"/>
      </g>
     </g>
     <g id="text_13">
      <!-- 60°N -->
      <g transform="translate(67.73375 171.382406)scale(0.18 -0.18)">
       <use xlink:href="#DejaVuSansMono-36"/>
       <use xlink:href="#DejaVuSansMono-30" x="60.205078"/>
       <use xlink:href="#DejaVuSansMono-b0" x="120.410156"/>
       <use xlink:href="#DejaVuSansMono-4e" x="180.615234"/>
      </g>
     </g>
    </g>
    <g id="ytick_7">
     <g id="line2d_13">
      <g>
       <use xlink:href="#m80aeb5f7b0" x="118.08" y="79.488" style="stroke: #000000; stroke-width: 0.8"/>
      </g>
     </g>
     <g id="text_14">
      <!-- 90°N -->
      <g transform="translate(67.73375 86.374406)scale(0.18 -0.18)">
       <use xlink:href="#DejaVuSansMono-39"/>
       <use xlink:href="#DejaVuSansMono-30" x="60.205078"/>
       <use xlink:href="#DejaVuSansMono-b0" x="120.410156"/>
       <use xlink:href="#DejaVuSansMono-4e" x="180.615234"/>
      </g>
     </g>
    </g>
    <g id="text_15">
     <!-- Latitude -->
     <g transform="translate(58.7425 392.307)rotate(-90)scale(0.24 -0.24)">
      <defs>
       <path id="DejaVuSansMono-4c" d="M 672 4666 
L 1306 4666 
L 1306 531 
L 3559 531 
L 3559 0 
L 672 0 
L 672 4666 
z
" transform="scale(0.015625)"/>
       <path id="DejaVuSansMono-61" d="M 2194 1759 
L 2003 1759 
Q 1500 1759 1245 1582 
Q 991 1406 991 1056 
Q 991 741 1181 566 
Q 1372 391 1709 391 
Q 2184 391 2456 720 
Q 2728 1050 2731 1631 
L 2731 1759 
L 2194 1759 
z
M 3309 1997 
L 3309 0 
L 2731 0 
L 2731 519 
Q 2547 206 2267 57 
Q 1988 -91 1588 -91 
Q 1053 -91 734 211 
Q 416 513 416 1019 
Q 416 1603 808 1906 
Q 1200 2209 1959 2209 
L 2731 2209 
L 2731 2300 
Q 2728 2719 2518 2908 
Q 2309 3097 1850 3097 
Q 1556 3097 1256 3012 
Q 956 2928 672 2766 
L 672 3341 
Q 991 3463 1283 3523 
Q 1575 3584 1850 3584 
Q 2284 3584 2592 3456 
Q 2900 3328 3091 3072 
Q 3209 2916 3259 2686 
Q 3309 2456 3309 1997 
z
" transform="scale(0.015625)"/>
       <path id="DejaVuSansMono-74" d="M 1919 4494 
L 1919 3500 
L 3225 3500 
L 3225 3053 
L 1919 3053 
L 1919 1153 
Q 1919 766 2066 612 
Q 2213 459 2578 459 
L 3225 459 
L 3225 0 
L 2522 0 
Q 1875 0 1609 259 
Q 1344 519 1344 1153 
L 1344 3053 
L 409 3053 
L 409 3500 
L 1344 3500 
L 1344 4494 
L 1919 4494 
z
" transform="scale(0.015625)"/>
       <path id="DejaVuSansMono-69" d="M 800 3500 
L 2272 3500 
L 2272 447 
L 3413 447 
L 3413 0 
L 556 0 
L 556 447 
L 1697 447 
L 1697 3053 
L 800 3053 
L 800 3500 
z
M 1697 4863 
L 2272 4863 
L 2272 4134 
L 1697 4134 
L 1697 4863 
z
" transform="scale(0.015625)"/>
       <path id="DejaVuSansMono-75" d="M 609 1325 
L 609 3494 
L 1184 3494 
L 1184 1325 
Q 1184 853 1351 631 
Q 1519 409 1869 409 
Q 2275 409 2490 695 
Q 2706 981 2706 1516 
L 2706 3494 
L 3284 3494 
L 3284 0 
L 2706 0 
L 2706 525 
Q 2553 222 2289 65 
Q 2025 -91 1672 -91 
Q 1134 -91 871 261 
Q 609 613 609 1325 
z
" transform="scale(0.015625)"/>
       <path id="DejaVuSansMono-64" d="M 2681 3053 
L 2681 4863 
L 3256 4863 
L 3256 0 
L 2681 0 
L 2681 441 
Q 2538 181 2298 45 
Q 2059 -91 1747 -91 
Q 1113 -91 748 401 
Q 384 894 384 1759 
Q 384 2613 750 3098 
Q 1116 3584 1747 3584 
Q 2063 3584 2303 3448 
Q 2544 3313 2681 3053 
z
M 991 1747 
Q 991 1078 1203 737 
Q 1416 397 1831 397 
Q 2247 397 2464 740 
Q 2681 1084 2681 1747 
Q 2681 2413 2464 2755 
Q 2247 3097 1831 3097 
Q 1416 3097 1203 2756 
Q 991 2416 991 1747 
z
" transform="scale(0.015625)"/>
       <path id="DejaVuSansMono-65" d="M 3475 1894 
L 3475 1613 
L 984 1613 
L 984 1594 
Q 984 1022 1282 709 
Q 1581 397 2125 397 
Q 2400 397 2700 484 
Q 3000 572 3341 750 
L 3341 178 
Q 3013 44 2708 -23 
Q 2403 -91 2119 -91 
Q 1303 -91 843 398 
Q 384 888 384 1747 
Q 384 2584 834 3084 
Q 1284 3584 2034 3584 
Q 2703 3584 3089 3131 
Q 3475 2678 3475 1894 
z
M 2900 2063 
Q 2888 2569 2661 2833 
Q 2434 3097 2009 3097 
Q 1594 3097 1325 2822 
Q 1056 2547 1006 2059 
L 2900 2063 
z
" transform="scale(0.015625)"/>
      </defs>
      <use xlink:href="#DejaVuSansMono-4c"/>
      <use xlink:href="#DejaVuSansMono-61" x="60.205078"/>
      <use xlink:href="#DejaVuSansMono-74" x="120.410156"/>
      <use xlink:href="#DejaVuSansMono-69" x="180.615234"/>
      <use xlink:href="#DejaVuSansMono-74" x="240.820312"/>
      <use xlink:href="#DejaVuSansMono-75" x="301.025391"/>
      <use xlink:href="#DejaVuSansMono-64" x="361.230469"/>
      <use xlink:href="#DejaVuSansMono-65" x="421.435547"/>
     </g>
    </g>
   </g>
   <g id="line2d_14">
    <path d="M 260.707091 102.1568 
L 260.797809 109.2408 
L 260.9112 110.6576 
L 260.9112 113.4912 
L 261.818354 114.908 
L 261.818354 116.3248 
L 269.964592 117.7416 
L 270.200446 119.1584 
L 270.985145 120.5752 
L 271.307181 121.992 
L 272.109999 123.4088 
L 272.636144 126.2424 
L 274.105742 127.6592 
L 274.568378 131.9096 
L 275.103596 133.3264 
L 275.416577 134.7432 
L 275.520886 136.16 
L 275.838395 137.5768 
L 275.98354 138.9936 
L 276.369085 140.4104 
L 276.518776 141.8272 
L 277.058521 143.244 
L 277.112957 144.6608 
L 277.766102 146.0776 
L 278.124411 147.4944 
L 278.954483 148.9112 
L 279.085992 150.328 
L 279.775446 151.7448 
L 280.387772 154.5784 
L 281.222335 155.9952 
L 281.635099 157.412 
L 281.83468 158.8288 
L 282.183916 160.2456 
L 283.358679 161.6624 
L 283.685278 163.0792 
L 285.154859 164.496 
L 286.828548 165.9128 
L 287.490766 167.3296 
L 290.892599 172.9968 
L 292.257852 174.4136 
L 292.657015 175.8304 
L 294.521214 177.2472 
L 295.237867 178.664 
L 298.508155 181.4976 
L 299.383554 182.9144 
L 301.093535 184.3312 
L 301.742152 185.748 
L 303.438532 187.1648 
L 303.556441 188.5816 
L 305.434258 189.9984 
L 306.187184 191.4152 
L 307.783783 192.832 
L 308.337146 194.2488 
L 310.169599 195.6656 
L 311.022325 197.0824 
L 312.020179 198.4992 
L 314.474049 201.3328 
L 315.285939 202.7496 
L 317.131992 204.1664 
L 321.459097 208.4168 
L 323.767822 209.8336 
L 324.670439 211.2504 
L 326.68431 212.6672 
L 327.709382 214.084 
L 329.401235 215.5008 
L 329.922834 216.9176 
L 332.05465 218.3344 
L 332.635232 219.7512 
L 334.172867 221.168 
L 335.111775 222.5848 
L 336.504228 224.0016 
L 337.470373 225.4184 
L 340.200897 228.252 
L 340.92206 229.6688 
L 342.545877 231.0856 
L 343.203549 232.5024 
L 344.868184 233.9192 
L 348.560289 238.1696 
L 350.338324 239.5864 
L 352.261486 242.42 
L 353.531485 243.8368 
L 355.096338 245.2536 
L 355.518155 246.6704 
L 358.207862 249.504 
L 359.228425 250.9208 
L 360.593678 252.3376 
L 361.795658 253.7544 
L 362.407985 255.1712 
L 363.950147 256.588 
L 366.154527 259.4216 
L 367.21589 260.8384 
L 368.830634 262.2552 
L 369.610778 263.672 
L 371.066759 265.0888 
L 372.246049 266.5056 
L 373.783683 267.9224 
L 374.9539 269.3392 
L 376.86799 270.756 
L 378.05637 272.1728 
L 381.081713 275.0064 
L 382.011566 276.4232 
L 384.04811 277.84 
L 385.345345 279.2568 
L 386.801326 280.6736 
L 387.917124 282.0904 
L 390.507031 284.924 
L 391.84963 286.3408 
L 393.400847 287.7576 
L 394.416864 289.1744 
L 399.415277 290.5912 
L 400.658076 292.008 
L 402.60391 293.4248 
L 403.6426 294.8416 
L 405.04869 296.2584 
L 406.667961 297.6752 
L 407.40276 299.092 
L 409.30325 300.5088 
L 414.129299 301.9256 
L 415.707753 303.3424 
L 416.49697 304.7592 
L 418.474568 306.176 
L 418.99164 307.5928 
L 421.073547 309.0096 
L 424.080763 311.8432 
L 427.654941 314.6768 
L 429.133594 316.0936 
L 431.53301 317.5104 
L 433.315554 318.9272 
L 434.717116 320.344 
L 438.749403 323.1776 
L 440.645365 324.5944 
L 442.042418 326.0112 
L 443.997289 327.428 
L 445.55307 328.8448 
L 449.158993 331.6784 
L 450.660337 333.0952 
L 454.987424 335.9288 
L 456.851641 337.3456 
L 458.230512 338.7624 
L 459.437056 340.1792 
L 461.419163 341.596 
L 462.444253 343.0128 
L 464.045379 344.4296 
L 464.911706 345.8464 
L 466.762286 347.2632 
L 467.673994 348.68 
L 469.864755 350.0968 
L 470.817264 351.5136 
L 473.057952 352.9304 
L 473.688388 354.3472 
L 475.262314 355.764 
L 477.149221 357.1808 
L 478.537147 358.5976 
L 480.473909 360.0144 
L 481.671326 361.4312 
L 483.839433 362.848 
L 484.746596 364.2648 
L 487.223139 365.6816 
L 488.31172 367.0984 
L 489.726882 368.5152 
L 491.631898 369.932 
L 493.178588 371.3488 
L 495.133495 372.7656 
L 496.548657 374.1824 
L 498.571601 375.5992 
L 499.859781 377.016 
L 502.136725 378.4328 
L 503.370469 379.8496 
L 505.520394 381.2664 
L 506.722357 382.6832 
L 507.556974 384.1 
L 509.793081 385.5168 
L 510.659407 386.9336 
L 512.510024 388.3504 
L 513.330969 389.7672 
L 514.850494 391.184 
L 515.662384 392.6008 
L 517.358746 394.0176 
L 517.943873 395.4344 
L 518.88729 396.8512 
L 520.257107 398.268 
L 520.873943 399.6848 
L 522.506851 401.1016 
L 523.101032 402.5184 
L 524.352885 403.9352 
L 525.173866 405.352 
L 526.684265 406.7688 
L 527.251246 408.1856 
L 528.453245 409.6024 
L 529.419317 411.0192 
L 529.795826 412.436 
L 531.024988 413.8528 
L 531.492151 415.2696 
L 532.784877 416.6864 
L 533.242986 418.1032 
L 534.617348 419.52 
L 535.052766 420.9368 
L 536.059674 422.3536 
L 536.844401 423.7704 
L 537.261709 425.1872 
L 538.554363 426.604 
L 539.00338 428.0208 
L 540.418579 429.4376 
L 540.636252 430.8544 
L 541.652287 432.2712 
L 542.182977 433.688 
L 543.003958 435.1048 
L 543.480212 436.5216 
L 544.119739 437.9384 
L 544.500757 439.3552 
L 544.999702 440.772 
L 545.67101 442.1888 
L 546.537337 445.0224 
L 547.108791 446.4392 
L 547.430863 447.856 
L 547.988754 449.2728 
L 549.027444 453.5232 
L 549.848425 454.94 
L 549.975443 456.3568 
L 551.168314 457.7736 
L 551.544787 459.1904 
L 552.216095 460.6072 
L 552.642458 463.4408 
L 552.592567 466.2744 
L 552.692349 467.6912 
L 552.578967 469.108 
L 552.633367 470.5248 
L 552.483695 473.3584 
L 552.424713 477.6088 
L 552.179804 483.276 
L 552.306822 484.6928 
L 552.207004 487.5264 
L 551.975695 488.9432 
L 552.329477 490.36 
L 551.744386 493.1936 
L 551.222751 494.6104 
L 550.587733 497.444 
L 549.326789 500.2776 
L 549.059225 501.6944 
L 547.888972 505.9448 
L 547.716645 507.3616 
L 547.335627 508.7784 
L 547.086136 510.1952 
L 546.569082 511.612 
L 546.210719 513.0288 
L 545.539447 514.4456 
L 543.30334 520.1128 
L 543.049304 521.5296 
L 542.09225 522.9464 
L 541.797414 524.3632 
L 541.062651 525.78 
L 541.030906 527.1968 
L 539.869743 530.0304 
L 539.511416 531.4472 
L 538.427381 532.864 
L 538.413745 534.2808 
L 537.143746 535.6976 
L 536.998619 537.1144 
L 535.964438 538.5312 
L 535.683238 539.948 
L 534.939384 541.3648 
L 534.336112 542.7816 
L 533.878003 544.1984 
L 533.061568 545.6152 
L 532.803023 547.032 
L 531.664551 548.4488 
L 531.251788 549.8656 
L 529.80488 551.2824 
L 529.333171 552.6992 
L 528.557572 554.116 
L 527.201355 555.5328 
L 526.339574 556.9496 
L 525.137575 558.3664 
L 525.010557 559.7832 
L 523.876631 561.2 
L 523.554595 562.6168 
L 522.588487 564.0336 
L 522.570342 565.4504 
L 521.613288 566.8672 
L 520.955616 568.284 
L 519.631181 569.7008 
L 517.576455 571.1176 
L 517.141038 572.5344 
L 515.666894 573.9512 
L 515.44013 575.368 
L 515.435585 576.7848 
L 514.991112 578.2016 
L 514.864094 579.6184 
L 514.532967 581.0352 
L 511.584716 582.452 
L 494.285314 583.8688 
L 497.564656 585.2856 
L 505.910466 586.7024 
L 510.069772 588.1192 
L 510.069772 589.536 
L 510.069772 589.536 
" clip-path="url(#p6dc65b1724)" style="fill: none; stroke: #b900ff; stroke-width: 4; stroke-linecap: square"/>
   </g>
   <g id="line2d_15">
    <path d="M 174.954728 79.488 
L 174.954728 82.3216 
L 177.12658 83.7384 
L 178.472879 85.1552 
L 179.126978 89.4056 
L 179.133324 90.8224 
L 179.723918 92.2392 
L 179.495305 93.656 
L 180.435168 95.0728 
L 181.032117 96.4896 
L 182.060889 102.1568 
L 182.181548 104.9904 
L 182.924552 106.4072 
L 186.626866 112.0744 
L 187.99857 113.4912 
L 188.830478 114.908 
L 189.846554 116.3248 
L 190.640358 117.7416 
L 192.272429 119.1584 
L 193.180547 120.5752 
L 193.834641 121.992 
L 197.022579 123.4088 
L 198.775305 124.8256 
L 199.429395 126.2424 
L 200.940803 127.6592 
L 202.039438 129.076 
L 204.160491 130.4928 
L 205.024153 131.9096 
L 206.453007 133.3264 
L 208.542305 134.7432 
L 211.038039 137.5768 
L 212.111265 138.9936 
L 213.559173 140.4104 
L 215.178535 141.8272 
L 216.26447 143.244 
L 218.880858 144.6608 
L 220.544684 146.0776 
L 223.129318 147.4944 
L 224.056481 148.9112 
L 227.815959 151.7448 
L 230.597456 153.1616 
L 232.267627 154.5784 
L 238.865758 158.8288 
L 245.622642 163.0792 
L 249.553584 164.496 
L 251.693682 165.9128 
L 255.846887 167.3296 
L 257.974294 168.7464 
L 259.657165 170.1632 
L 262.864153 171.58 
L 265.353523 172.9968 
L 268.966938 174.4136 
L 271.265799 175.8304 
L 274.161615 177.2472 
L 277.616266 178.664 
L 279.730973 180.0808 
L 283.814315 181.4976 
L 284.881205 182.9144 
L 287.618238 184.3312 
L 291.066544 185.748 
L 293.505124 187.1648 
L 297.378902 188.5816 
L 299.785718 189.9984 
L 303.005405 191.4152 
L 304.567604 192.832 
L 307.050656 194.2488 
L 310.390998 195.6656 
L 312.727978 197.0824 
L 316.379465 198.4992 
L 319.243535 199.916 
L 321.796424 201.3328 
L 324.75573 202.7496 
L 326.756128 204.1664 
L 330.153634 205.5832 
L 332.414377 207 
L 337.596372 209.8336 
L 339.679316 211.2504 
L 342.759295 212.6672 
L 344.791438 214.084 
L 347.858708 215.5008 
L 350.030579 216.9176 
L 351.99285 218.3344 
L 354.990265 219.7512 
L 356.577882 221.168 
L 359.219697 222.5848 
L 361.175623 224.0016 
L 362.839457 225.4184 
L 365.195455 226.8352 
L 366.351254 228.252 
L 369.037506 229.6688 
L 375.572118 233.9192 
L 381.363731 238.1696 
L 386.367908 241.0032 
L 387.720543 242.42 
L 390.559213 243.8368 
L 394.172609 246.6704 
L 395.849135 248.0872 
L 397.830479 249.504 
L 400.415131 250.9208 
L 403.876109 253.7544 
L 407.92136 256.588 
L 408.892977 258.0048 
L 410.956884 259.4216 
L 412.792155 260.8384 
L 414.824299 262.2552 
L 416.094407 263.672 
L 417.707423 265.0888 
L 421.485965 267.9224 
L 423.060855 269.3392 
L 425.283525 270.756 
L 426.966396 272.1728 
L 428.99854 273.5896 
L 432.122973 276.4232 
L 434.282098 277.84 
L 435.469661 279.2568 
L 437.63515 280.6736 
L 439.025912 282.0904 
L 440.632565 283.5072 
L 442.455182 284.924 
L 443.699871 286.3408 
L 445.611324 287.7576 
L 448.354776 290.5912 
L 450.151901 292.008 
L 451.618882 293.4248 
L 453.632007 294.8416 
L 456.731022 297.6752 
L 458.451966 299.092 
L 459.626802 300.5088 
L 463.881597 303.3424 
L 465.151742 304.7592 
L 467.018722 306.176 
L 471.42599 310.4264 
L 473.439043 311.8432 
L 476.525404 314.6768 
L 477.611293 316.0936 
L 479.173547 317.5104 
L 481.580344 318.9272 
L 482.329689 320.344 
L 483.872888 321.7608 
L 485.117577 323.1776 
L 486.641685 324.5944 
L 488.559501 326.0112 
L 489.886773 327.428 
L 493.582733 330.2616 
L 494.808368 331.6784 
L 496.96753 333.0952 
L 498.104219 334.512 
L 499.742691 335.9288 
L 501.876434 337.3456 
L 502.96236 338.7624 
L 504.98814 340.1792 
L 506.359848 341.596 
L 509.801772 344.4296 
L 513.789877 347.2632 
L 515.390203 348.68 
L 517.657328 350.0968 
L 521.423143 352.9304 
L 524.122085 354.3472 
L 527.20841 355.764 
L 528.681718 357.1808 
L 530.809097 358.5976 
L 533.635095 360.0144 
L 535.705311 361.4312 
L 538.188327 362.848 
L 542.189159 365.6816 
L 545.567592 367.0984 
L 547.028209 368.5152 
L 549.54297 369.932 
L 551.683077 371.3488 
L 552.680095 372.7656 
L 557.106381 374.1824 
L 558.598744 375.5992 
L 560.294306 377.016 
L 561.767613 378.4328 
L 563.050412 379.8496 
L 564.904738 381.2664 
L 566.4479 382.6832 
L 567.590989 384.1 
L 569.648551 385.5168 
L 570.721787 386.9336 
L 574.20182 389.7672 
L 575.789418 391.184 
L 578.01207 394.0176 
L 579.631451 395.4344 
L 580.990468 396.8512 
L 582.031921 398.268 
L 583.282975 399.6848 
L 584.038647 401.1016 
L 585.016646 402.5184 
L 587.480643 405.352 
L 588.706278 406.7688 
L 590.13515 409.6024 
L 591.386167 411.0192 
L 592.192675 412.436 
L 593.284965 413.8528 
L 594.08511 415.2696 
L 594.516927 416.6864 
L 595.596526 418.1032 
L 595.469508 419.52 
L 596.117253 420.9368 
L 596.43478 422.3536 
L 596.936452 423.7704 
L 596.987252 425.1872 
L 597.546088 428.0208 
L 597.558815 432.2712 
L 598.365324 433.688 
L 598.543105 436.5216 
L 597.98427 437.9384 
L 598.581214 439.3552 
L 598.879723 440.772 
L 598.606633 443.6056 
L 597.304779 445.0224 
L 597.285725 446.4392 
L 596.23158 447.856 
L 596.561798 450.6896 
L 596.549071 452.1064 
L 596.853907 453.5232 
L 596.015653 454.94 
L 595.729872 456.3568 
L 595.710854 457.7736 
L 595.564781 459.1904 
L 594.669327 462.024 
L 594.891618 463.4408 
L 594.288309 466.2744 
L 594.783691 469.108 
L 595.945799 470.5248 
L 595.418708 471.9416 
L 595.666345 474.7752 
L 596.422089 476.192 
L 595.933108 477.6088 
L 596.847543 480.4424 
L 597.812852 481.8592 
L 599.381396 483.276 
L 598.574887 484.6928 
L 600.213322 487.5264 
L 600.708631 488.9432 
L 600.435576 490.36 
L 600.924558 491.7768 
L 600.321286 493.1936 
L 601.629466 494.6104 
L 601.350012 497.444 
L 601.038849 498.8608 
L 599.889431 501.6944 
L 599.025796 503.1112 
L 598.505033 504.528 
L 598.428815 505.9448 
L 598.644742 507.3616 
L 597.958888 510.1952 
L 598.733651 511.612 
L 599.254377 514.4456 
L 598.397069 515.8624 
L 597.635034 518.696 
L 597.47627 520.1128 
L 598.289142 521.5296 
L 597.254016 522.9464 
L 597.228598 524.3632 
L 597.736633 525.78 
L 597.177761 527.1968 
L 595.577472 528.6136 
L 594.777291 530.0304 
L 594.624891 531.4472 
L 594.675727 532.864 
L 593.615183 535.6976 
L 593.411947 537.1144 
L 593.856492 539.948 
L 592.503838 542.7816 
L 591.983112 544.1984 
L 592.472093 545.6152 
L 591.792603 547.032 
L 590.954349 548.4488 
L 589.881114 549.8656 
L 589.944605 551.2824 
L 588.30617 552.6992 
L 587.004353 554.116 
L 586.915407 555.5328 
L 587.601298 556.9496 
L 588.52846 558.3664 
L 591.633839 559.7832 
L 592.014857 561.2 
L 593.691365 562.6168 
L 594.066055 564.0336 
L 594.586782 565.4504 
L 593.697728 568.284 
L 592.541948 569.7008 
L 590.935258 571.1176 
L 587.518752 572.5344 
L 587.556825 573.9512 
L 586.464535 575.368 
L 586.521735 576.7848 
L 584.959482 578.2016 
L 585.061082 579.6184 
L 584.445083 581.0352 
L 585.372282 582.452 
L 585.061082 583.8688 
L 580.361777 585.2856 
L 580.228396 586.7024 
L 575.529055 588.1192 
L 598.225615 589.536 
L 598.225615 589.536 
" clip-path="url(#p6dc65b1724)" style="fill: none; stroke: #5400ff; stroke-width: 4; stroke-linecap: square"/>
   </g>
   <g id="line2d_16">
    <path d="M 253.762534 79.488 
L 253.762534 80.9048 
L 254.536315 82.3216 
L 253.042726 85.1552 
L 253.150698 87.9888 
L 254.806242 89.4056 
L 258.47723 92.2392 
L 258.567202 93.656 
L 259.179029 95.0728 
L 259.916828 96.4896 
L 261.860299 97.9064 
L 262.993989 99.3232 
L 263.317889 100.74 
L 264.001706 102.1568 
L 265.585259 103.5736 
L 267.384776 104.9904 
L 268.824374 106.4072 
L 269.004311 107.824 
L 271.685581 109.2408 
L 273.413106 110.6576 
L 276.20234 112.0744 
L 278.217793 113.4912 
L 279.9453 114.908 
L 282.15868 116.3248 
L 285.595731 117.7416 
L 290.544363 120.5752 
L 291.804016 121.992 
L 294.557268 123.4088 
L 302.385097 126.2424 
L 305.264294 127.6592 
L 306.685911 129.076 
L 312.624269 131.9096 
L 315.953357 133.3264 
L 318.472663 134.7432 
L 319.42639 136.16 
L 322.143642 137.5768 
L 325.86862 138.9936 
L 328.801799 140.4104 
L 330.007471 141.8272 
L 336.77361 144.6608 
L 340.696515 146.0776 
L 344.223548 147.4944 
L 345.015329 148.9112 
L 348.704326 150.328 
L 354.840629 151.7448 
L 366.069509 154.5784 
L 367.851035 155.9952 
L 387.573579 158.8288 
L 401.861638 161.6624 
L 404.039036 163.0792 
L 407.566051 164.496 
L 411.66892 165.9128 
L 413.360446 167.3296 
L 416.221661 168.7464 
L 418.02115 170.1632 
L 420.756402 171.58 
L 422.465946 172.9968 
L 424.715308 174.4136 
L 427.180651 175.8304 
L 428.96214 177.2472 
L 431.319483 178.664 
L 436.43006 181.4976 
L 440.946819 184.3312 
L 442.890308 185.748 
L 445.517579 187.1648 
L 450.664156 191.4152 
L 452.031791 192.832 
L 454.425097 194.2488 
L 455.270878 195.6656 
L 457.070404 197.0824 
L 459.13982 198.4992 
L 460.021565 199.916 
L 462.630871 201.3328 
L 464.08847 202.7496 
L 469.882828 207 
L 472.546098 208.4168 
L 474.021697 209.8336 
L 476.109149 211.2504 
L 478.412456 212.6672 
L 480.212018 214.084 
L 483.037216 215.5008 
L 484.674741 216.9176 
L 487.535975 218.3344 
L 489.371464 219.7512 
L 494.068187 222.5848 
L 495.669749 224.0016 
L 497.811129 225.4184 
L 499.466654 226.8352 
L 501.572107 228.252 
L 503.245633 229.6688 
L 505.387049 231.0856 
L 508.122283 232.5024 
L 509.687845 233.9192 
L 518.937327 239.5864 
L 520.934743 241.0032 
L 527.790846 245.2536 
L 529.500371 246.6704 
L 531.929714 248.0872 
L 533.927167 249.504 
L 535.726656 250.9208 
L 537.742109 252.3376 
L 539.361635 253.7544 
L 541.503087 255.1712 
L 545.228029 258.0048 
L 546.865591 259.4216 
L 548.70108 260.8384 
L 550.734533 262.2552 
L 553.019912 263.672 
L 555.701146 265.0888 
L 557.518672 266.5056 
L 564.554701 270.756 
L 566.930045 272.1728 
L 568.531607 273.5896 
L 574.200038 277.84 
L 576.305454 279.2568 
L 577.853052 280.6736 
L 580.228396 282.0904 
L 581.703958 283.5072 
L 583.41352 284.924 
L 587.822279 287.7576 
L 589.963659 289.1744 
L 591.097367 290.5912 
L 593.310747 292.008 
L 595.146272 293.4248 
L 596.351908 294.8416 
L 597.863506 296.2584 
L 598.637287 297.6752 
L 600.814703 299.092 
L 603.29801 300.5088 
L 605.475426 301.9256 
L 608.17466 303.3424 
L 610.604003 304.7592 
L 613.951091 306.176 
L 616.416361 307.5928 
L 621.796901 310.4264 
L 624.370208 311.8432 
L 627.231369 313.26 
L 628.904931 314.6768 
L 631.226311 316.0936 
L 633.241727 317.5104 
L 634.465398 318.9272 
L 636.678778 320.344 
L 638.640231 321.7608 
L 641.303537 324.5944 
L 641.663392 326.0112 
L 642.437173 327.428 
L 642.599136 328.8448 
L 643.570881 331.6784 
L 644.776552 333.0952 
L 646.288151 334.512 
L 647.475822 335.9288 
L 648.213604 337.3456 
L 649.473239 338.7624 
L 650.930837 340.1792 
L 652.550436 341.596 
L 653.468144 343.0128 
L 654.583816 344.4296 
L 655.285633 345.8464 
L 657.553049 348.68 
L 657.103159 350.0968 
L 656.941195 352.9304 
L 656.437341 354.3472 
L 657.013159 355.764 
L 656.923195 357.1808 
L 656.581305 358.5976 
L 656.851232 360.0144 
L 657.283086 361.4312 
L 658.002903 362.848 
L 658.416794 364.2648 
L 658.596721 365.6816 
L 659.460502 367.0984 
L 660.648173 368.5152 
L 661.529918 369.932 
L 662.897553 371.3488 
L 663.275444 372.7656 
L 664.067225 374.1824 
L 665.254896 375.5992 
L 666.136641 377.016 
L 667.270349 378.4328 
L 667.936167 379.8496 
L 669.573692 382.6832 
L 669.501692 384.1 
L 670.023583 385.5168 
L 670.059546 386.9336 
L 670.527437 388.3504 
L 671.121291 389.7672 
L 671.229218 391.184 
L 672.470926 392.6008 
L 672.380926 394.0176 
L 673.568598 396.8512 
L 673.604597 398.268 
L 673.964488 399.6848 
L 674.108452 401.1016 
L 674.504342 402.5184 
L 675.026196 403.9352 
L 675.260123 405.352 
L 675.871977 406.7688 
L 676.681758 408.1856 
L 676.663722 409.6024 
L 677.149612 412.436 
L 677.581503 413.8528 
L 677.527503 415.2696 
L 677.86943 416.6864 
L 677.563503 418.1032 
L 677.77943 420.9368 
L 678.17532 422.3536 
L 678.013393 423.7704 
L 678.17532 425.1872 
L 677.995393 426.604 
L 678.139357 428.0208 
L 678.535211 429.4376 
L 676.231831 430.8544 
L 675.943977 432.2712 
L 675.13416 433.688 
L 674.594306 435.1048 
L 674.270415 440.772 
L 674.432342 442.1888 
L 673.856525 443.6056 
L 674.288379 445.0224 
L 674.468342 446.4392 
L 673.910524 447.856 
L 673.550598 449.2728 
L 672.974744 450.6896 
L 673.046743 452.1064 
L 672.434926 453.5232 
L 671.895072 456.3568 
L 671.535145 457.7736 
L 671.301218 459.1904 
L 670.365473 462.024 
L 669.555729 463.4408 
L 669.195802 466.2744 
L 668.314021 467.6912 
L 667.99013 469.108 
L 667.000386 470.5248 
L 666.028677 473.3584 
L 665.722787 474.7752 
L 664.697079 476.192 
L 663.455371 479.0256 
L 662.429663 480.4424 
L 660.144283 484.6928 
L 659.604465 486.1096 
L 658.344794 487.5264 
L 657.607013 488.9432 
L 656.149414 490.36 
L 655.771524 493.1936 
L 654.205961 494.6104 
L 653.03629 496.0272 
L 652.064545 497.444 
L 651.848618 498.8608 
L 651.128801 500.2776 
L 649.401275 501.6944 
L 650.193056 503.1112 
L 648.609494 504.528 
L 649.113348 505.9448 
L 648.843421 507.3616 
L 648.429531 508.7784 
L 649.005385 510.1952 
L 647.817713 511.612 
L 647.205895 513.0288 
L 646.827968 514.4456 
L 646.288151 515.8624 
L 645.208406 517.2792 
L 644.434662 518.696 
L 643.984771 520.1128 
L 643.300954 521.5296 
L 642.491209 522.9464 
L 641.501464 524.3632 
L 641.087574 525.78 
L 639.378012 528.6136 
L 638.118413 530.0304 
L 637.632523 531.4472 
L 636.732742 532.864 
L 635.56307 534.2808 
L 635.56307 535.6976 
L 634.861289 537.1144 
L 634.465398 538.5312 
L 634.375399 539.948 
L 632.162019 541.3648 
L 631.622165 542.7816 
L 629.912676 544.1984 
L 629.624749 545.6152 
L 629.156894 547.032 
L 628.545004 548.4488 
L 625.84577 549.8656 
L 625.989734 551.2824 
L 623.560391 552.6992 
L 624.154245 554.116 
L 626.097734 555.5328 
L 626.259661 556.9496 
L 624.730062 558.3664 
L 615.73258 559.7832 
L 615.24669 561.2 
L 609.506295 562.6168 
L 587.300425 564.0336 
L 586.472681 565.4504 
L 586.148717 566.8672 
L 579.940469 568.284 
L 580.408323 569.7008 
L 578.788761 571.1176 
L 578.41087 572.5344 
L 573.930111 573.9512 
L 539.163708 575.368 
L 539.163708 576.7848 
L 539.163708 576.7848 
" clip-path="url(#p6dc65b1724)" style="fill: none; stroke: #0010ff; stroke-width: 4; stroke-linecap: square"/>
   </g>
   <g id="line2d_17">
    <path d="M 380.00275 83.7384 
L 380.00275 87.9888 
L 382.222439 89.4056 
L 384.214473 90.8224 
L 383.745747 92.2392 
L 384.549255 93.656 
L 385.017982 95.0728 
L 385.017982 96.4896 
L 385.573727 97.9064 
L 385.854945 100.74 
L 387.030071 102.1568 
L 387.070271 103.5736 
L 389.336832 104.9904 
L 389.460687 106.4072 
L 389.959541 107.824 
L 391.918084 110.6576 
L 392.527393 112.0744 
L 392.654629 113.4912 
L 393.103247 114.908 
L 393.24721 116.3248 
L 393.833101 117.7416 
L 394.8877 121.992 
L 395.567335 123.4088 
L 396.88308 124.8256 
L 397.720061 126.2424 
L 398.108424 127.6592 
L 398.687623 129.076 
L 400.187495 131.9096 
L 400.749949 133.3264 
L 401.77442 134.7432 
L 403.234128 136.16 
L 404.141418 137.5768 
L 404.5164 138.9936 
L 405.222781 140.4104 
L 406.116707 141.8272 
L 407.181324 143.244 
L 408.031723 144.6608 
L 409.096359 146.0776 
L 409.628686 147.4944 
L 411.034812 150.328 
L 413.167464 154.5784 
L 414.282318 155.9952 
L 414.771117 157.412 
L 417.325606 161.6624 
L 419.257367 163.0792 
L 419.732767 164.496 
L 420.549657 165.9128 
L 421.068584 167.3296 
L 421.721456 168.7464 
L 424.480144 172.9968 
L 425.06938 174.4136 
L 426.117306 175.8304 
L 426.525742 177.2472 
L 427.828105 178.664 
L 428.561268 180.0808 
L 429.481994 181.4976 
L 430.185048 184.3312 
L 431.105738 185.748 
L 431.611265 187.1648 
L 432.254064 188.5816 
L 432.488427 189.9984 
L 433.191481 191.4152 
L 433.526281 192.832 
L 436.532751 198.4992 
L 436.87086 199.916 
L 439.130748 204.1664 
L 439.529112 205.5832 
L 440.439765 207 
L 440.875001 208.4168 
L 442.3682 211.2504 
L 442.903872 212.6672 
L 443.801108 214.084 
L 444.249762 215.5008 
L 445.023106 216.9176 
L 445.428197 218.3344 
L 446.255142 219.7512 
L 447.202595 222.5848 
L 447.842049 224.0016 
L 447.979358 225.4184 
L 448.531758 226.8352 
L 448.802921 228.252 
L 449.763793 229.6688 
L 451.263646 233.9192 
L 451.635318 235.336 
L 452.164263 236.7528 
L 452.646372 239.5864 
L 452.723354 241.0032 
L 453.530226 245.2536 
L 454.065898 246.6704 
L 454.698661 249.504 
L 455.518915 253.7544 
L 455.800114 255.1712 
L 456.285568 256.588 
L 456.861422 260.8384 
L 456.971931 263.672 
L 456.824586 265.0888 
L 456.87815 267.9224 
L 456.921677 269.3392 
L 457.109204 270.756 
L 457.21964 273.5896 
L 457.420513 275.0064 
L 457.440585 279.2568 
L 457.631458 280.6736 
L 457.544404 283.5072 
L 457.638149 286.3408 
L 457.638149 287.7576 
L 457.808912 289.1744 
L 457.514258 290.5912 
L 457.356913 293.4248 
L 457.313386 296.2584 
L 457.544404 299.092 
L 457.664913 300.5088 
L 457.269858 301.9256 
L 455.13386 303.3424 
L 454.306952 307.5928 
L 453.958771 310.4264 
L 453.741134 313.26 
L 452.947681 320.344 
L 452.455536 321.7608 
L 452.090627 324.5944 
L 451.705573 326.0112 
L 451.143137 330.2616 
L 450.781537 331.6784 
L 448.307431 333.0952 
L 434.353226 334.512 
L 434.16908 335.9288 
L 433.73719 337.3456 
L 433.49279 338.7624 
L 433.070936 340.1792 
L 432.736173 343.0128 
L 432.679264 347.2632 
L 432.990609 348.68 
L 432.742864 350.0968 
L 433.24839 351.5136 
L 433.405736 352.9304 
L 433.837626 354.3472 
L 435.953515 355.764 
L 437.503659 360.0144 
L 437.908713 361.4312 
L 438.082822 362.848 
L 438.645294 364.2648 
L 441.209801 372.7656 
L 441.363801 374.1824 
L 442.244309 377.016 
L 442.314636 378.4328 
L 442.538927 379.8496 
L 442.840272 382.6832 
L 443.087981 385.5168 
L 443.121472 388.3504 
L 442.950745 392.6008 
L 442.046782 401.1016 
L 441.711982 405.352 
L 439.050385 419.52 
L 437.875259 423.7704 
L 437.523732 425.1872 
L 438.163186 426.604 
L 437.694459 428.0208 
L 437.423259 429.4376 
L 436.854132 430.8544 
L 436.639878 432.2712 
L 436.110897 433.688 
L 434.78508 439.3552 
L 434.115517 440.772 
L 433.958171 442.1888 
L 433.037481 443.6056 
L 431.815483 446.4392 
L 430.931629 447.856 
L 430.663811 449.2728 
L 429.676139 450.6896 
L 429.351412 452.1064 
L 427.784577 454.94 
L 427.098251 456.3568 
L 425.949888 457.7736 
L 425.692107 459.1904 
L 424.500217 460.6072 
L 424.014763 462.024 
L 423.000364 463.4408 
L 419.890112 469.108 
L 418.828804 470.5248 
L 417.928223 471.9416 
L 418.979458 473.3584 
L 416.214079 477.6088 
L 415.079135 479.0256 
L 414.17519 480.4424 
L 412.665265 481.8592 
L 411.684302 483.276 
L 410.961157 484.6928 
L 410.107431 486.1096 
L 409.421104 487.5264 
L 408.262723 488.9432 
L 408.011651 490.36 
L 406.983797 491.7768 
L 406.394561 493.1936 
L 403.739655 496.0272 
L 402.912728 497.444 
L 401.332494 498.8608 
L 400.723149 500.2776 
L 399.317023 501.6944 
L 398.828223 503.1112 
L 397.284825 504.528 
L 395.168936 507.3616 
L 393.642264 508.7784 
L 393.233829 510.1952 
L 391.666994 511.612 
L 391.43263 513.0288 
L 389.688359 514.4456 
L 388.811178 515.8624 
L 387.689616 517.2792 
L 386.932998 518.696 
L 385.801381 520.1128 
L 384.308201 521.5296 
L 383.333965 522.9464 
L 382.158839 524.3632 
L 381.479203 525.78 
L 380.471459 527.1968 
L 377.799807 531.4472 
L 375.519864 534.2808 
L 374.80341 535.6976 
L 373.641684 537.1144 
L 372.637285 538.5312 
L 371.288068 539.948 
L 370.889668 541.3648 
L 369.707851 542.7816 
L 369.33956 544.1984 
L 368.107543 545.6152 
L 367.491508 547.032 
L 366.590927 548.4488 
L 365.399037 549.8656 
L 365.014037 551.2824 
L 363.80542 552.6992 
L 363.259712 554.116 
L 361.910477 555.5328 
L 361.569004 556.9496 
L 360.280042 559.7832 
L 360.373787 561.2 
L 359.898388 562.6168 
L 359.761115 564.0336 
L 358.639552 565.4504 
L 358.622825 566.8672 
L 358.468807 568.284 
L 357.260208 569.7008 
L 357.313772 571.1176 
L 355.96121 572.5344 
L 355.800501 573.9512 
L 354.072975 576.7848 
L 353.403376 579.6184 
L 354.46132 581.0352 
L 353.949084 582.452 
L 354.089702 583.8688 
L 353.614284 585.2856 
L 352.743831 586.7024 
L 352.070904 588.1192 
L 352.070904 589.536 
L 352.070904 589.536 
" clip-path="url(#p6dc65b1724)" style="fill: none; stroke: #0074ff; stroke-width: 4; stroke-linecap: square"/>
   </g>
   <g id="line2d_18">
    <path d="M 320.787625 79.488 
L 331.685869 80.9048 
L 331.685869 82.3216 
L 331.080179 83.7384 
L 331.080179 89.4056 
L 331.400087 90.8224 
L 331.400087 93.656 
L 331.540851 95.0728 
L 331.924742 96.4896 
L 331.924742 97.9064 
L 332.039923 99.3232 
L 334.019085 100.74 
L 334.129994 103.5736 
L 335.477865 104.9904 
L 335.563174 106.4072 
L 336.040901 107.824 
L 336.748991 109.2408 
L 337.000646 110.6576 
L 337.917718 112.0744 
L 338.681244 113.4912 
L 339.176026 117.7416 
L 339.039535 119.1584 
L 337.179791 120.5752 
L 337.248027 121.992 
L 337.926245 124.8256 
L 338.203499 126.2424 
L 338.139517 127.6592 
L 338.821989 129.076 
L 339.158971 130.4928 
L 340.233861 131.9096 
L 340.933406 133.3264 
L 341.104024 134.7432 
L 342.511622 136.16 
L 343.236749 137.5768 
L 343.774203 138.9936 
L 345.906928 141.8272 
L 345.906928 143.244 
L 346.162855 144.6608 
L 347.971417 146.0776 
L 347.971417 147.4944 
L 349.216925 148.9112 
L 351.980959 150.328 
L 353.298976 151.7448 
L 353.298976 153.1616 
L 356.365845 154.5784 
L 357.995262 155.9952 
L 359.091479 157.412 
L 361.987731 158.8288 
L 362.119949 160.2456 
L 364.192965 161.6624 
L 365.370237 163.0792 
L 365.873564 164.496 
L 368.185452 165.9128 
L 369.234742 167.3296 
L 369.71676 168.7464 
L 372.630066 170.1632 
L 372.630066 171.58 
L 373.589793 172.9968 
L 376.904062 174.4136 
L 377.117335 175.8304 
L 377.117335 177.2472 
L 380.397459 178.664 
L 380.33775 180.0808 
L 381.497949 181.4976 
L 383.468601 182.9144 
L 383.519783 184.3312 
L 384.590419 185.748 
L 386.936416 187.1648 
L 387.072907 188.5816 
L 387.95587 189.9984 
L 389.964904 191.4152 
L 389.188596 192.832 
L 391.073921 194.2488 
L 391.385303 195.6656 
L 393.057356 198.4992 
L 393.274901 199.916 
L 397.35697 207 
L 397.715261 208.4168 
L 398.662169 209.8336 
L 399.412895 211.2504 
L 399.85224 212.6672 
L 400.56884 214.084 
L 402.479765 215.5008 
L 403.162237 216.9176 
L 403.162237 218.3344 
L 404.463218 219.7512 
L 405.226744 221.168 
L 405.226744 222.5848 
L 406.587434 224.0016 
L 407.197361 225.4184 
L 407.197361 226.8352 
L 408.630577 228.252 
L 409.829158 231.0856 
L 410.042431 232.5024 
L 411.121611 235.336 
L 412.175174 236.7528 
L 412.175174 238.1696 
L 412.546283 239.5864 
L 413.608373 241.0032 
L 413.608373 242.42 
L 413.288446 243.8368 
L 413.710736 245.2536 
L 413.710736 246.6704 
L 412.977082 248.0872 
L 413.488936 249.504 
L 413.587045 252.3376 
L 414.120227 253.7544 
L 414.120227 255.1712 
L 414.734444 258.0048 
L 414.734444 259.4216 
L 415.399862 260.8384 
L 415.399862 262.2552 
L 415.084226 263.672 
L 415.92877 265.0888 
L 415.92877 266.5056 
L 415.741098 267.9224 
L 416.329734 269.3392 
L 416.410752 272.1728 
L 416.641115 273.5896 
L 416.641115 275.0064 
L 417.191351 277.84 
L 417.191351 279.2568 
L 417.775732 282.0904 
L 417.775732 283.5072 
L 418.044441 286.3408 
L 417.984732 290.5912 
L 417.609369 292.008 
L 417.73306 293.4248 
L 417.724551 294.8416 
L 417.425951 299.092 
L 416.790406 300.5088 
L 416.918351 301.9256 
L 416.905588 303.3424 
L 416.120716 304.7592 
L 416.129261 306.176 
L 415.613153 307.5928 
L 415.830661 309.0096 
L 415.770952 310.4264 
L 415.344407 311.8432 
L 415.438244 313.26 
L 415.408407 314.6768 
L 415.15248 316.0936 
L 415.003171 318.9272 
L 414.832553 320.344 
L 414.87519 321.7608 
L 414.785626 323.1776 
L 414.43159 324.5944 
L 414.461463 326.0112 
L 414.192736 328.8448 
L 414.188463 330.2616 
L 413.676609 331.6784 
L 413.599827 334.512 
L 412.942955 335.9288 
L 412.870446 338.7624 
L 412.456683 340.1792 
L 412.384174 343.0128 
L 412.806464 345.8464 
L 413.15621 347.2632 
L 413.821627 348.68 
L 414.060481 350.0968 
L 415.587534 351.5136 
L 415.587534 352.9304 
L 416.090879 354.3472 
L 417.596569 355.764 
L 417.596569 357.1808 
L 418.215059 358.5976 
L 420.010821 360.0144 
L 420.010821 361.4312 
L 420.765802 362.848 
L 423.094764 364.2648 
L 423.094764 365.6816 
L 424.655926 367.0984 
L 425.875816 368.5152 
L 425.875816 369.932 
L 427.151196 371.3488 
L 428.699558 372.7656 
L 428.699558 374.1824 
L 430.627556 375.5992 
L 431.032792 377.016 
L 431.032792 378.4328 
L 433.037554 379.8496 
L 433.929008 389.7672 
L 433.634717 391.184 
L 433.813844 392.6008 
L 433.660281 394.0176 
L 433.306281 395.4344 
L 433.404354 398.268 
L 433.0205 401.1016 
L 433.0205 402.5184 
L 432.679264 403.9352 
L 432.453191 405.352 
L 432.342282 406.7688 
L 432.457446 408.1856 
L 432.231409 409.6024 
L 431.843228 411.0192 
L 431.941301 412.436 
L 431.557446 413.8528 
L 430.67872 418.1032 
L 430.171157 419.52 
L 430.171157 420.9368 
L 429.211412 422.3536 
L 429.126103 425.1872 
L 428.277268 426.604 
L 428.115195 428.0208 
L 428.115195 429.4376 
L 427.065887 430.8544 
L 427.142687 433.688 
L 426.148833 435.1048 
L 425.59007 436.5216 
L 425.59007 437.9384 
L 424.771053 439.3552 
L 424.519417 440.772 
L 423.453054 442.1888 
L 423.815599 443.6056 
L 422.139292 446.4392 
L 422.412292 447.856 
L 422.143546 449.2728 
L 420.927911 450.6896 
L 421.290456 452.1064 
L 420.539748 453.5232 
L 419.123622 454.94 
L 418.765313 456.3568 
L 418.765313 457.7736 
L 417.00366 459.1904 
L 416.415043 460.6072 
L 413.1605 466.2744 
L 413.186082 467.6912 
L 411.334866 470.5248 
L 411.181302 471.9416 
L 409.679867 474.7752 
L 409.85474 476.192 
L 408.660414 477.6088 
L 407.905433 479.0256 
L 408.575105 480.4424 
L 406.937179 481.8592 
L 406.937179 483.276 
L 405.981707 484.6928 
L 403.866055 486.1096 
L 403.405382 487.5264 
L 403.405382 488.9432 
L 402.083075 490.36 
L 402.176929 491.7768 
L 401.733329 493.1936 
L 400.78213 494.6104 
L 400.64564 496.0272 
L 399.685877 497.444 
L 399.685877 498.8608 
L 400.261731 500.2776 
L 399.600568 501.6944 
L 399.600568 503.1112 
L 398.62806 504.528 
L 396.550771 505.9448 
L 396.550771 507.3616 
L 395.32659 508.7784 
L 393.620392 510.1952 
L 393.820882 511.612 
L 392.71612 513.0288 
L 390.417049 514.4456 
L 390.250686 515.8624 
L 387.947343 517.2792 
L 387.094253 518.696 
L 387.115562 520.1128 
L 385.115073 521.5296 
L 384.08711 522.9464 
L 384.249183 524.3632 
L 382.58993 525.78 
L 382.099385 527.1968 
L 381.886112 528.6136 
L 380.529695 530.0304 
L 380.657659 531.4472 
L 380.252441 532.864 
L 379.01546 534.2808 
L 378.891751 535.6976 
L 377.92777 537.1144 
L 377.522553 538.5312 
L 377.471371 539.948 
L 376.729172 541.3648 
L 376.238645 542.7816 
L 376.18319 544.1984 
L 375.462336 545.6152 
L 375.325846 547.032 
L 375.816354 548.4488 
L 375.500718 549.8656 
L 375.675609 551.2824 
L 377.450025 552.6992 
L 377.889389 554.116 
L 379.070897 555.5328 
L 378.478006 556.9496 
L 378.196497 558.3664 
L 375.568954 559.7832 
L 375.155209 562.6168 
L 372.834793 564.0336 
L 371.887867 566.8672 
L 370.906795 568.284 
L 371.039031 569.7008 
L 371.725794 571.1176 
L 372.024376 572.5344 
L 372.024376 573.9512 
L 374.080319 575.368 
L 374.651883 576.7848 
L 374.651883 578.2016 
L 375.308773 579.6184 
L 375.308773 582.452 
L 376.831535 583.8688 
L 376.831535 586.7024 
L 375.807827 588.1192 
L 375.807827 589.536 
L 375.807827 589.536 
" clip-path="url(#p6dc65b1724)" style="fill: none; stroke: #00d9ff; stroke-width: 4; stroke-linecap: square"/>
   </g>
   <g id="line2d_19">
    <path d="M 657.130759 106.4072 
L 627.93555 107.824 
L 627.93555 109.2408 
L 589.906532 112.0744 
L 590.119841 113.4912 
L 588.054497 114.908 
L 587.902934 116.3248 
L 587.308062 117.7416 
L 587.852461 119.1584 
L 587.807552 120.5752 
L 587.886134 121.992 
L 587.72897 123.4088 
L 588.604497 124.8256 
L 588.537151 126.2424 
L 588.071297 127.6592 
L 587.392243 131.9096 
L 587.005007 133.3264 
L 586.988171 134.7432 
L 586.101408 136.16 
L 586.017226 137.5768 
L 585.629954 138.9936 
L 584.198828 141.8272 
L 584.170756 143.244 
L 583.620756 146.0776 
L 583.076393 147.4944 
L 583.025848 148.9112 
L 582.649848 150.328 
L 582.329921 153.1616 
L 582.823811 154.5784 
L 582.644248 155.9952 
L 582.313085 157.412 
L 582.172794 160.2456 
L 582.436575 161.6624 
L 582.240139 163.0792 
L 582.167157 164.496 
L 582.301885 165.9128 
L 582.262576 167.3296 
L 582.054939 168.7464 
L 582.18963 170.1632 
L 582.111048 172.9968 
L 581.953921 174.4136 
L 581.948321 175.8304 
L 581.662067 177.2472 
L 581.662067 178.664 
L 581.538613 180.0808 
L 581.723812 181.4976 
L 581.347813 182.9144 
L 581.370249 184.3312 
L 581.134504 187.1648 
L 580.500323 188.5816 
L 580.416141 189.9984 
L 579.96716 192.832 
L 579.523778 194.2488 
L 579.523778 195.6656 
L 578.098252 197.0824 
L 577.33498 198.4992 
L 577.177853 199.916 
L 576.526799 201.3328 
L 575.572691 202.7496 
L 575.965563 205.5832 
L 575.280873 207 
L 575.443673 208.4168 
L 573.866584 209.8336 
L 573.771165 211.2504 
L 573.310984 212.6672 
L 572.991093 214.084 
L 572.418621 215.5008 
L 572.536439 216.9176 
L 571.862985 218.3344 
L 571.823676 219.7512 
L 569.438479 221.168 
L 569.466551 224.0016 
L 567.154263 225.4184 
L 566.216991 226.8352 
L 566.2451 228.252 
L 566.458336 229.6688 
L 565.380773 231.0856 
L 564.673647 232.5024 
L 563.562375 233.9192 
L 562.973103 235.336 
L 561.553177 238.1696 
L 560.307251 241.0032 
L 560.374596 242.42 
L 558.006199 243.8368 
L 558.180162 246.6704 
L 556.7322 248.0872 
L 554.212275 249.504 
L 553.578094 250.9208 
L 553.482712 252.3376 
L 544.048394 253.7544 
L 543.992285 255.1712 
L 541.247887 256.588 
L 536.758001 258.0048 
L 534.148294 259.4216 
L 530.393643 260.8384 
L 526.178811 262.2552 
L 525.118085 263.672 
L 521.520597 265.0888 
L 515.857802 266.5056 
L 512.933805 269.3392 
L 505.486249 270.756 
L 502.708179 273.5896 
L 500.098436 275.0064 
L 493.13357 276.4232 
L 491.590153 277.84 
L 490.316154 279.2568 
L 487.448266 280.6736 
L 483.951833 282.0904 
L 482.851798 283.5072 
L 480.045655 284.924 
L 478.01962 286.3408 
L 475.561441 287.7576 
L 474.102242 289.1744 
L 472.199662 290.5912 
L 468.34963 292.008 
L 466.851122 293.4248 
L 465.100105 294.8416 
L 463.725052 296.2584 
L 460.952582 297.6752 
L 459.122984 299.092 
L 456.928586 300.5088 
L 455.772442 301.9256 
L 450.895355 304.7592 
L 449.806593 306.176 
L 447.421322 307.5928 
L 445.266197 309.0096 
L 443.633035 310.4264 
L 441.747291 311.8432 
L 440.108493 313.26 
L 438.228386 314.6768 
L 436.836496 316.0936 
L 433.261518 318.9272 
L 430.775229 320.344 
L 430.011957 321.7608 
L 427.901741 323.1776 
L 426.021597 324.5944 
L 424.607308 326.0112 
L 423.619527 327.428 
L 421.346565 328.8448 
L 420.173585 330.2616 
L 418.164387 331.6784 
L 416.52557 333.0952 
L 414.364845 334.512 
L 412.720446 335.9288 
L 411.322993 337.3456 
L 408.533668 338.7624 
L 406.984652 340.1792 
L 405.093326 341.596 
L 403.886673 343.0128 
L 401.748402 344.4296 
L 400.67644 345.8464 
L 397.971297 348.68 
L 396.528934 350.0968 
L 395.558008 351.5136 
L 393.930446 352.9304 
L 391.696757 354.3472 
L 391.101831 355.764 
L 390.220704 357.1808 
L 388.19467 358.5976 
L 386.96558 360.0144 
L 385.899235 361.4312 
L 383.42422 364.2648 
L 382.262457 365.6816 
L 380.550713 367.0984 
L 379.192533 368.5152 
L 376.094536 371.3488 
L 375.291991 372.7656 
L 373.866465 374.1824 
L 371.728158 375.5992 
L 371.26234 377.016 
L 369.870487 378.4328 
L 366.828617 381.2664 
L 365.779109 382.6832 
L 365.217873 384.1 
L 362.018876 385.5168 
L 360.071406 388.3504 
L 358.46628 389.7672 
L 356.5581 391.184 
L 355.284101 392.6008 
L 353.60603 394.0176 
L 349.817724 396.8512 
L 348.139653 398.268 
L 346.702891 399.6848 
L 343.531949 401.1016 
L 341.49466 402.5184 
L 340.602315 403.9352 
L 338.17779 405.352 
L 334.468066 408.1856 
L 332.587941 409.6024 
L 331.066997 411.0192 
L 328.283309 412.436 
L 325.320002 415.2696 
L 324.276131 416.6864 
L 321.346497 418.1032 
L 320.695461 419.52 
L 319.051063 420.9368 
L 316.935229 422.3536 
L 315.262739 423.7704 
L 313.955086 425.1872 
L 312.226488 426.604 
L 310.727998 428.0208 
L 308.449418 429.4376 
L 307.467256 430.8544 
L 302.898842 435.1048 
L 301.024335 436.5216 
L 298.549319 439.3552 
L 295.754376 440.772 
L 293.896705 442.1888 
L 292.718124 443.6056 
L 291.06249 445.0224 
L 288.233892 446.4392 
L 287.077748 447.856 
L 285.029259 449.2728 
L 284.108842 450.6896 
L 281.471062 452.1064 
L 279.377664 453.5232 
L 278.631247 454.94 
L 274.842923 456.3568 
L 273.490361 457.7736 
L 272.40158 459.1904 
L 269.909719 460.6072 
L 268.080093 462.024 
L 265.801495 463.4408 
L 264.544342 464.8576 
L 262.681062 466.2744 
L 259.970319 467.6912 
L 258.309075 469.108 
L 252.404936 473.3584 
L 251.097255 474.7752 
L 248.768148 476.192 
L 247.763549 477.6088 
L 245.80486 479.0256 
L 243.290544 480.4424 
L 241.662973 481.8592 
L 240.663983 483.276 
L 237.947622 484.6928 
L 235.854233 486.1096 
L 234.73178 487.5264 
L 230.23632 490.36 
L 229.169985 491.7768 
L 227.946495 493.1936 
L 225.51637 494.6104 
L 223.641854 496.0272 
L 222.104092 497.444 
L 220.93112 498.8608 
L 217.490769 500.2776 
L 216.817297 501.6944 
L 215.380544 503.1112 
L 213.522873 504.528 
L 211.429475 505.9448 
L 210.357539 507.3616 
L 204.503899 511.612 
L 203.561037 513.0288 
L 201.860502 514.4456 
L 200.345176 515.8624 
L 199.262004 517.2792 
L 197.207906 518.696 
L 196.175235 520.1128 
L 194.817054 521.5296 
L 192.734897 522.9464 
L 191.376716 524.3632 
L 190.383336 525.78 
L 188.407806 527.1968 
L 187.397593 528.6136 
L 186.19094 530.0304 
L 184.815927 531.4472 
L 184.075105 532.864 
L 182.930193 534.2808 
L 181.633753 535.6976 
L 181.061294 537.1144 
L 179.282196 539.948 
L 178.457188 541.3648 
L 177.895957 542.7816 
L 177.463812 544.1984 
L 176.212263 547.032 
L 175.948486 548.4488 
L 175.437768 549.8656 
L 173.220907 558.3664 
L 172.895393 562.6168 
L 173.058152 564.0336 
L 173.170393 572.5344 
L 173.709174 573.9512 
L 173.074988 576.7848 
L 173.967342 578.2016 
L 173.793361 579.6184 
L 174.354592 581.0352 
L 175.252559 582.452 
L 174.691328 583.8688 
L 174.775514 585.2856 
L 174.483673 586.7024 
L 174.483673 589.536 
L 174.483673 589.536 
" clip-path="url(#p6dc65b1724)" style="fill: none; stroke: #00ffc1; stroke-width: 4; stroke-linecap: square"/>
   </g>
   <g id="line2d_20">
    <path d="M 643.723899 131.9096 
L 643.723899 136.16 
L 633.245909 137.5768 
L 634.74198 138.9936 
L 634.74198 140.4104 
L 632.158382 141.8272 
L 632.141801 143.244 
L 631.705692 144.6608 
L 632.528237 146.0776 
L 632.202528 147.4944 
L 632.235619 148.9112 
L 629.624458 150.328 
L 629.607876 151.7448 
L 629.762457 153.1616 
L 629.685148 154.5784 
L 629.81213 155.9952 
L 629.823185 157.412 
L 630.62362 158.8288 
L 630.861038 161.6624 
L 631.170165 163.0792 
L 631.705692 164.496 
L 631.898892 165.9128 
L 626.847588 167.3296 
L 627.294787 168.7464 
L 627.311333 170.1632 
L 625.555807 171.58 
L 625.870461 172.9968 
L 624.617335 174.4136 
L 624.368899 175.8304 
L 623.314464 177.2472 
L 623.021846 178.664 
L 622.983228 180.0808 
L 619.786831 181.4976 
L 619.880685 182.9144 
L 619.041522 184.3312 
L 618.169341 188.5816 
L 618.207959 189.9984 
L 616.717379 191.4152 
L 616.722943 192.832 
L 616.358579 194.2488 
L 616.17087 195.6656 
L 615.839634 197.0824 
L 615.861707 199.916 
L 606.857752 201.3328 
L 606.703134 202.7496 
L 606.222844 204.1664 
L 603.429464 205.5832 
L 603.274883 207 
L 603.313537 208.4168 
L 603.230737 209.8336 
L 592.868638 211.2504 
L 593.25511 214.084 
L 589.252714 215.5008 
L 589.263769 216.9176 
L 589.771623 218.3344 
L 588.822097 219.7512 
L 589.219587 222.5848 
L 589.147805 224.0016 
L 588.57366 225.4184 
L 588.236933 226.8352 
L 588.385988 228.252 
L 584.527119 233.9192 
L 583.290538 235.336 
L 582.810211 236.7528 
L 581.728212 238.1696 
L 580.993995 239.5864 
L 580.132759 241.0032 
L 579.652505 242.42 
L 579.564178 243.8368 
L 578.702943 245.2536 
L 578.266834 246.6704 
L 576.831526 248.0872 
L 575.672182 249.504 
L 575.456873 250.9208 
L 574.877237 252.3376 
L 573.53022 253.7544 
L 572.99473 255.1712 
L 571.239204 256.588 
L 568.997861 258.0048 
L 565.591682 259.4216 
L 565.492301 260.8384 
L 563.863757 262.2552 
L 561.142123 263.672 
L 560.661832 265.0888 
L 556.847145 266.5056 
L 556.090819 267.9224 
L 552.877876 269.3392 
L 552.634967 270.756 
L 551.425987 272.1728 
L 549.532389 273.5896 
L 548.207481 275.0064 
L 545.535556 276.4232 
L 544.541848 277.84 
L 542.725595 279.2568 
L 540.335197 280.6736 
L 539.104144 282.0904 
L 538.099381 283.5072 
L 536.945601 284.924 
L 532.253132 286.3408 
L 531.463678 287.7576 
L 530.160843 289.1744 
L 527.08041 290.5912 
L 526.489683 293.4248 
L 522.890268 294.8416 
L 521.427361 297.6752 
L 520.047217 299.092 
L 517.033001 300.5088 
L 516.050348 301.9256 
L 514.929658 303.3424 
L 511.413079 304.7592 
L 509.569227 307.5928 
L 505.069995 309.0096 
L 504.755304 310.4264 
L 503.695378 311.8432 
L 502.436652 313.26 
L 499.135418 314.6768 
L 496.822293 317.5104 
L 491.97528 318.9272 
L 491.599862 320.344 
L 490.484699 321.7608 
L 486.598267 323.1776 
L 484.395542 326.0112 
L 483.004379 327.428 
L 479.471219 328.8448 
L 479.189692 330.2616 
L 478.190457 331.6784 
L 475.176241 333.0952 
L 472.857625 335.9288 
L 469.882028 337.3456 
L 467.773194 338.7624 
L 467.552394 340.1792 
L 464.560251 341.596 
L 463.008944 343.0128 
L 461.849672 344.4296 
L 460.243165 345.8464 
L 455.13666 348.68 
L 454.844079 350.0968 
L 452.249427 351.5136 
L 450.328265 352.9304 
L 449.378739 354.3472 
L 444.796707 355.764 
L 443.940998 357.1808 
L 442.086091 358.5976 
L 441.793546 360.0144 
L 438.933876 361.4312 
L 437.470968 362.848 
L 436.532424 364.2648 
L 433.463008 365.6816 
L 432.441737 367.0984 
L 428.367559 369.932 
L 426.087561 371.3488 
L 425.806034 372.7656 
L 424.436944 374.1824 
L 421.290238 375.5992 
L 419.854876 377.016 
L 415.063062 379.8496 
L 412.816192 381.2664 
L 412.49601 382.6832 
L 408.79725 384.1 
L 405.783017 386.9336 
L 403.348473 388.3504 
L 398.037697 391.184 
L 397.524297 392.6008 
L 392.760065 394.0176 
L 390.193013 395.4344 
L 388.260833 396.8512 
L 381.630658 398.268 
L 381.189022 399.6848 
L 378.59437 401.1016 
L 377.976061 402.5184 
L 373.74732 403.9352 
L 372.173976 405.352 
L 370.313559 406.7688 
L 364.417601 408.1856 
L 364.075329 409.6024 
L 358.538243 412.436 
L 357.699099 413.8528 
L 355.750373 415.2696 
L 351.714832 416.6864 
L 348.021599 418.1032 
L 346.989254 419.52 
L 339.464771 422.3536 
L 337.532573 423.7704 
L 334.915848 425.1872 
L 329.903198 426.604 
L 326.977292 428.0208 
L 326.430765 429.4376 
L 318.989081 430.8544 
L 318.580554 432.2712 
L 317.067919 433.688 
L 314.925958 435.1048 
L 310.44878 436.5216 
L 306.772111 437.9384 
L 306.236621 439.3552 
L 299.970808 440.772 
L 299.650627 442.1888 
L 297.895083 443.6056 
L 292.843797 445.0224 
L 291.198671 446.4392 
L 287.925002 447.856 
L 287.31222 449.2728 
L 280.157591 450.6896 
L 279.782173 452.1064 
L 278.098411 453.5232 
L 271.650435 454.94 
L 269.812092 456.3568 
L 262.613299 459.1904 
L 259.52732 460.6072 
L 259.019429 462.024 
L 257.479203 463.4408 
L 251.815118 464.8576 
L 250.584046 466.2744 
L 246.951523 467.6912 
L 242.529572 469.108 
L 239.714102 470.5248 
L 239.173075 471.9416 
L 234.298444 473.3584 
L 232.123346 474.7752 
L 230.787383 476.192 
L 228.19824 477.6088 
L 224.019199 479.0256 
L 221.292047 480.4424 
L 220.541248 481.8592 
L 216.974978 483.276 
L 214.678435 484.6928 
L 214.004927 486.1096 
L 207.452051 487.5264 
L 206.618452 488.9432 
L 204.001709 490.36 
L 200.584503 491.7768 
L 198.459087 493.1936 
L 197.962242 494.6104 
L 197.316334 496.0272 
L 192.204311 497.444 
L 191.630175 498.8608 
L 189.383318 500.2776 
L 185.877776 501.6944 
L 183.630915 503.1112 
L 182.841479 504.528 
L 180.11985 505.9448 
L 178.044125 507.3616 
L 177.746011 508.7784 
L 175.913195 510.1952 
L 173.036993 511.612 
L 171.452599 513.0288 
L 171.066159 514.4456 
L 168.212039 515.8624 
L 166.627645 517.2792 
L 166.467549 518.696 
L 162.735662 520.1128 
L 160.256937 522.9464 
L 159.925706 524.3632 
L 158.13153 525.78 
L 156.801081 527.1968 
L 156.166218 528.6136 
L 153.654371 530.0304 
L 153.411469 531.4472 
L 152.263195 532.864 
L 150.767128 534.2808 
L 150.430376 535.6976 
L 149.491881 537.1144 
L 149.353868 538.5312 
L 147.786035 539.948 
L 147.670104 541.3648 
L 147.305747 542.7816 
L 146.295489 544.1984 
L 146.323091 545.6152 
L 145.699269 547.032 
L 145.196901 548.4488 
L 145.130654 549.8656 
L 145.533653 552.6992 
L 143.419287 554.116 
L 143.330958 555.5328 
L 143.733957 556.9496 
L 143.126697 558.3664 
L 142.668492 559.7832 
L 142.397988 561.2 
L 142.602245 562.6168 
L 142.431109 564.0336 
L 141.669275 565.4504 
L 139.6874 566.8672 
L 139.218153 568.284 
L 139.196071 569.7008 
L 138.417676 571.1176 
L 136.198418 572.5344 
L 135.657405 575.368 
L 135.017021 576.7848 
L 134.652666 578.2016 
L 134.459447 579.6184 
L 129.115563 581.0352 
L 128.696001 582.452 
L 128.762248 583.8688 
L 128.972029 585.2856 
L 128.585591 586.7024 
L 128.933385 588.1192 
L 128.37029 589.536 
L 128.37029 589.536 
" clip-path="url(#p6dc65b1724)" style="fill: none; stroke: #00ff5c; stroke-width: 4; stroke-linecap: square"/>
   </g>
   <g id="line2d_21">
    <path d="M 554.317693 81.6132 
L 555.096711 83.03 
L 556.654673 84.4468 
L 562.367322 87.2804 
L 566.2623 88.6972 
L 569.20517 90.114 
L 572.75393 91.5308 
L 575.956436 92.9476 
L 578.726215 94.3644 
L 585.73719 97.198 
L 595.950708 101.4484 
L 599.066669 102.8652 
L 603.134774 104.282 
L 609.107095 107.1156 
L 611.790256 108.5324 
L 614.733126 109.9492 
L 623.561772 115.6164 
L 628.149186 118.45 
L 629.966857 119.8668 
L 631.265183 121.2836 
L 635.160161 124.1172 
L 636.545033 125.534 
L 640.007248 128.3676 
L 641.478664 129.7844 
L 643.382881 131.2012 
L 646.066078 134.0348 
L 648.143422 135.4516 
L 649.614839 136.8684 
L 651.6056 138.2852 
L 653.250181 139.702 
L 659.828356 143.9524 
L 661.645991 145.3692 
L 666.06035 148.2028 
L 667.96453 149.6196 
L 669.435947 151.0364 
L 671.94609 152.4532 
L 673.330925 153.87 
L 691.247853 166.6212 
L 694.883159 169.4548 
L 697.479811 172.2884 
L 698.258829 173.7052 
L 698.864719 175.122 
L 699.643664 176.5388 
L 700.24959 177.9556 
L 702.500024 185.0396 
L 703.452133 187.8732 
L 704.317659 189.29 
L 704.317659 190.7068 
L 705.096677 192.1236 
L 705.702567 193.5404 
L 705.962203 194.9572 
L 706.395003 196.374 
L 707.000893 197.7908 
L 707.433656 199.2076 
L 707.520202 200.6244 
L 708.47231 203.458 
L 708.818528 204.8748 
L 708.905109 206.2916 
L 708.818528 207.7084 
L 709.424418 209.1252 
L 709.597545 211.9588 
L 709.857181 213.3756 
L 709.943763 214.7924 
L 710.289981 216.2092 
L 710.203435 219.0428 
L 710.549653 220.4596 
L 710.549653 221.8764 
L 710.895871 223.2932 
L 710.982416 226.1268 
L 710.982416 227.5436 
L 711.242089 228.9604 
L 711.242089 230.3772 
L 711.588307 231.794 
L 711.41518 233.2108 
L 711.501761 234.6276 
L 711.328634 237.4612 
L 711.41518 238.878 
L 711.328634 240.2948 
L 710.636199 244.5452 
L 710.463071 245.962 
L 709.770636 247.3788 
L 709.510963 248.7956 
L 708.645437 251.6292 
L 708.039546 253.046 
L 706.395003 255.8796 
L 705.356349 257.2964 
L 704.750459 258.7132 
L 700.076463 267.214 
L 699.816827 268.6308 
L 699.03781 270.0476 
L 698.085701 271.4644 
L 697.479811 272.8812 
L 696.441158 274.298 
L 694.796614 277.1316 
L 693.325197 278.5484 
L 692.546179 279.9652 
L 690.641963 282.7988 
L 689.257055 284.2156 
L 688.045311 285.6324 
L 686.660403 287.0492 
L 685.448659 288.466 
L 683.977242 289.8828 
L 682.852007 291.2996 
L 681.467099 292.7164 
L 680.601573 294.1332 
L 677.918375 296.9668 
L 675.235141 299.8004 
L 672.898198 302.634 
L 671.253654 304.0508 
L 670.128419 305.4676 
L 668.743511 306.8844 
L 666.839295 308.3012 
L 662.251881 312.5516 
L 660.780464 313.9684 
L 653.856034 319.6356 
L 651.778764 321.0524 
L 649.961056 322.4692 
L 648.66273 323.886 
L 646.671969 325.3028 
L 645.373643 326.7196 
L 643.382881 328.1364 
L 634.727362 335.2204 
L 633.255909 336.6372 
L 631.351729 338.054 
L 626.591188 342.3044 
L 624.687008 343.7212 
L 623.215555 345.138 
L 621.224757 346.5548 
L 619.75334 347.9716 
L 612.655819 353.6388 
L 610.838148 355.0556 
L 608.587714 356.4724 
L 606.94317 357.8892 
L 601.403648 362.1396 
L 599.239796 363.5564 
L 595.604454 366.39 
L 591.363258 369.2236 
L 588.07417 372.0572 
L 582.274975 376.3076 
L 581.063231 377.7244 
L 579.505233 379.1412 
L 577.60098 380.558 
L 576.475817 381.9748 
L 575.09091 383.3916 
L 573.359784 384.8084 
L 570.763132 387.642 
L 569.118588 389.0588 
L 564.531211 394.726 
L 563.059757 396.1428 
L 562.194231 397.5596 
L 561.588341 398.9764 
L 558.73198 401.81 
L 558.126089 403.2268 
L 557.260563 404.6436 
L 556.135328 407.4772 
L 555.096711 408.894 
L 554.577366 410.3108 
L 553.884893 411.7276 
L 553.538676 413.1444 
L 553.019367 414.5612 
L 552.586567 417.3948 
L 552.586567 418.8116 
L 551.980713 420.2284 
L 532.852041 421.6452 
L 505.327485 423.062 
L 472.955916 424.4788 
L 429.764903 425.8956 
L 396.960534 427.3124 
L 306.94322 430.146 
L 257.95303 431.5628 
L 220.38813 432.9796 
L 181.957662 435.8132 
L 159.280229 437.23 
L 130.976709 438.6468 
L 126.475844 440.0636 
L 126.735509 445.7308 
L 126.822064 448.5644 
L 124.831298 449.9812 
L 124.831298 449.9812 
" clip-path="url(#p6dc65b1724)" style="fill: none; stroke: #08ff00; stroke-width: 4; stroke-linecap: square"/>
   </g>
   <g id="line2d_22">
    <path d="M 0 0 
" clip-path="url(#p6dc65b1724)" style="fill: none; stroke: #6cff00; stroke-width: 4; stroke-linecap: square"/>
   </g>
   <g id="patch_3">
    <path d="M 118.08 589.536 
L 118.08 79.488 
" style="fill: none; stroke: #000000; stroke-width: 0.8; stroke-linejoin: miter; stroke-linecap: square"/>
   </g>
   <g id="patch_4">
    <path d="M 850.176 589.536 
L 850.176 79.488 
" style="fill: none; stroke: #000000; stroke-width: 0.8; stroke-linejoin: miter; stroke-linecap: square"/>
   </g>
   <g id="patch_5">
    <path d="M 118.08 589.536 
L 850.176 589.536 
" style="fill: none; stroke: #000000; stroke-width: 0.8; stroke-linejoin: miter; stroke-linecap: square"/>
   </g>
   <g id="patch_6">
    <path d="M 118.08 79.488 
L 850.176 79.488 
" style="fill: none; stroke: #000000; stroke-width: 0.8; stroke-linejoin: miter; stroke-linecap: square"/>
   </g>
   <g id="legend_1">
    <g id="line2d_23">
     <path d="M 753.54975 98.42625 
L 767.94975 98.42625 
L 782.34975 98.42625 
" style="fill: none; stroke: #b900ff; stroke-width: 4; stroke-linecap: square"/>
    </g>
    <g id="text_16">
     <!-- Ta -->
     <g transform="translate(793.86975 103.46625)scale(0.144 -0.144)">
      <defs>
       <path id="DejaVuSansMono-54" d="M 147 4666 
L 3706 4666 
L 3706 4134 
L 2247 4134 
L 2247 0 
L 1613 0 
L 1613 4134 
L 147 4134 
L 147 4666 
z
" transform="scale(0.015625)"/>
      </defs>
      <use xlink:href="#DejaVuSansMono-54"/>
      <use xlink:href="#DejaVuSansMono-61" x="60.205078"/>
     </g>
    </g>
    <g id="line2d_24">
     <path d="M 753.54975 119.63925 
L 767.94975 119.63925 
L 782.34975 119.63925 
" style="fill: none; stroke: #5400ff; stroke-width: 4; stroke-linecap: square"/>
    </g>
    <g id="text_17">
     <!-- T8 -->
     <g transform="translate(793.86975 124.67925)scale(0.144 -0.144)">
      <defs>
       <path id="DejaVuSansMono-38" d="M 1925 2216 
Q 1503 2216 1273 1980 
Q 1044 1744 1044 1313 
Q 1044 881 1276 642 
Q 1509 403 1925 403 
Q 2350 403 2579 639 
Q 2809 875 2809 1313 
Q 2809 1741 2576 1978 
Q 2344 2216 1925 2216 
z
M 1375 2478 
Q 972 2581 745 2862 
Q 519 3144 519 3541 
Q 519 4097 897 4423 
Q 1275 4750 1925 4750 
Q 2578 4750 2956 4423 
Q 3334 4097 3334 3541 
Q 3334 3144 3107 2862 
Q 2881 2581 2478 2478 
Q 2947 2375 3195 2062 
Q 3444 1750 3444 1253 
Q 3444 622 3041 265 
Q 2638 -91 1925 -91 
Q 1213 -91 811 264 
Q 409 619 409 1247 
Q 409 1747 657 2061 
Q 906 2375 1375 2478 
z
M 1147 3481 
Q 1147 3106 1347 2909 
Q 1547 2713 1925 2713 
Q 2306 2713 2506 2909 
Q 2706 3106 2706 3481 
Q 2706 3863 2507 4063 
Q 2309 4263 1925 4263 
Q 1547 4263 1347 4061 
Q 1147 3859 1147 3481 
z
" transform="scale(0.015625)"/>
      </defs>
      <use xlink:href="#DejaVuSansMono-54"/>
      <use xlink:href="#DejaVuSansMono-38" x="60.205078"/>
     </g>
    </g>
    <g id="line2d_25">
     <path d="M 753.54975 140.85225 
L 767.94975 140.85225 
L 782.34975 140.85225 
" style="fill: none; stroke: #0010ff; stroke-width: 4; stroke-linecap: square"/>
    </g>
    <g id="text_18">
     <!-- T31 -->
     <g transform="translate(793.86975 145.89225)scale(0.144 -0.144)">
      <use xlink:href="#DejaVuSansMono-54"/>
      <use xlink:href="#DejaVuSansMono-33" x="60.205078"/>
      <use xlink:href="#DejaVuSansMono-31" x="120.410156"/>
     </g>
    </g>
    <g id="line2d_26">
     <path d="M 753.54975 162.06525 
L 767.94975 162.06525 
L 782.34975 162.06525 
" style="fill: none; stroke: #0074ff; stroke-width: 4; stroke-linecap: square"/>
    </g>
    <g id="text_19">
     <!-- T61 -->
     <g transform="translate(793.86975 167.10525)scale(0.144 -0.144)">
      <use xlink:href="#DejaVuSansMono-54"/>
      <use xlink:href="#DejaVuSansMono-36" x="60.205078"/>
      <use xlink:href="#DejaVuSansMono-31" x="120.410156"/>
     </g>
    </g>
    <g id="line2d_27">
     <path d="M 753.54975 183.27825 
L 767.94975 183.27825 
L 782.34975 183.27825 
" style="fill: none; stroke: #00d9ff; stroke-width: 4; stroke-linecap: square"/>
    </g>
    <g id="text_20">
     <!-- T67 -->
     <g transform="translate(793.86975 188.31825)scale(0.144 -0.144)">
      <use xlink:href="#DejaVuSansMono-54"/>
      <use xlink:href="#DejaVuSansMono-36" x="60.205078"/>
      <use xlink:href="#DejaVuSansMono-37" x="120.410156"/>
     </g>
    </g>
    <g id="line2d_28">
     <path d="M 753.54975 204.49125 
L 767.94975 204.49125 
L 782.34975 204.49125 
" style="fill: none; stroke: #00ffc1; stroke-width: 4; stroke-linecap: square"/>
    </g>
    <g id="text_21">
     <!-- T85 -->
     <g transform="translate(793.86975 209.53125)scale(0.144 -0.144)">
      <use xlink:href="#DejaVuSansMono-54"/>
      <use xlink:href="#DejaVuSansMono-38" x="60.205078"/>
      <use xlink:href="#DejaVuSansMono-35" x="120.410156"/>
     </g>
    </g>
    <g id="line2d_29">
     <path d="M 753.54975 225.70425 
L 767.94975 225.70425 
L 782.34975 225.70425 
" style="fill: none; stroke: #00ff5c; stroke-width: 4; stroke-linecap: square"/>
    </g>
    <g id="text_22">
     <!-- T108 -->
     <g transform="translate(793.86975 230.74425)scale(0.144 -0.144)">
      <use xlink:href="#DejaVuSansMono-54"/>
      <use xlink:href="#DejaVuSansMono-31" x="60.205078"/>
      <use xlink:href="#DejaVuSansMono-30" x="120.410156"/>
      <use xlink:href="#DejaVuSansMono-38" x="180.615234"/>
     </g>
    </g>
    <g id="line2d_30">
     <path d="M 753.54975 246.91725 
L 767.94975 246.91725 
L 782.34975 246.91725 
" style="fill: none; stroke: #08ff00; stroke-width: 4; stroke-linecap: square"/>
    </g>
    <g id="text_23">
     <!-- 278TI -->
     <g transform="translate(793.86975 251.95725)scale(0.144 -0.144)">
      <defs>
       <path id="DejaVuSansMono-32" d="M 1166 531 
L 3309 531 
L 3309 0 
L 475 0 
L 475 531 
Q 1059 1147 1496 1619 
Q 1934 2091 2100 2284 
Q 2413 2666 2522 2902 
Q 2631 3138 2631 3384 
Q 2631 3775 2401 3997 
Q 2172 4219 1772 4219 
Q 1488 4219 1175 4116 
Q 863 4013 513 3803 
L 513 4441 
Q 834 4594 1145 4672 
Q 1456 4750 1759 4750 
Q 2444 4750 2861 4386 
Q 3278 4022 3278 3431 
Q 3278 3131 3139 2831 
Q 3000 2531 2688 2169 
Q 2513 1966 2180 1606 
Q 1847 1247 1166 531 
z
" transform="scale(0.015625)"/>
      </defs>
      <use xlink:href="#DejaVuSansMono-32"/>
      <use xlink:href="#DejaVuSansMono-37" x="60.205078"/>
      <use xlink:href="#DejaVuSansMono-38" x="120.410156"/>
      <use xlink:href="#DejaVuSansMono-54" x="180.615234"/>
      <use xlink:href="#DejaVuSansMono-49" x="240.820312"/>
     </g>
    </g>
    <g id="line2d_31">
     <path d="M 753.54975 268.13025 
L 767.94975 268.13025 
L 782.34975 268.13025 
" style="fill: none; stroke: #6cff00; stroke-width: 4; stroke-linecap: square"/>
    </g>
    <g id="text_24">
     <!-- 283TI -->
     <g transform="translate(793.86975 273.17025)scale(0.144 -0.144)">
      <use xlink:href="#DejaVuSansMono-32"/>
      <use xlink:href="#DejaVuSansMono-38" x="60.205078"/>
      <use xlink:href="#DejaVuSansMono-33" x="120.410156"/>
      <use xlink:href="#DejaVuSansMono-54" x="180.615234"/>
      <use xlink:href="#DejaVuSansMono-49" x="240.820312"/>
     </g>
    </g>
   </g>
  </g>
  <g id="text_25">
   <!-- 0.54954µm -->
   <g transform="translate(472.32 66.24)scale(0.2 -0.2)">
    <defs>
     <path id="DejaVuSansMono-b5" d="M 609 -1338 
L 609 3500 
L 1184 3500 
L 1184 1325 
Q 1184 881 1371 645 
Q 1559 409 1906 409 
Q 2303 409 2504 675 
Q 2706 941 2706 1459 
L 2706 3500 
L 3284 3500 
L 3284 800 
Q 3284 616 3334 528 
Q 3384 441 3488 441 
Q 3516 441 3561 456 
Q 3606 472 3694 513 
L 3694 50 
Q 3575 -22 3469 -56 
Q 3363 -91 3256 -91 
Q 3063 -91 2945 32 
Q 2828 156 2791 403 
Q 2647 153 2439 31 
Q 2231 -91 1953 -91 
Q 1666 -91 1467 28 
Q 1269 147 1131 397 
L 1131 -1338 
L 609 -1338 
z
" transform="scale(0.015625)"/>
     <path id="DejaVuSansMono-6d" d="M 2113 3144 
Q 2219 3369 2383 3476 
Q 2547 3584 2778 3584 
Q 3200 3584 3373 3257 
Q 3547 2931 3547 2028 
L 3547 0 
L 3022 0 
L 3022 2003 
Q 3022 2744 2939 2923 
Q 2856 3103 2638 3103 
Q 2388 3103 2295 2911 
Q 2203 2719 2203 2003 
L 2203 0 
L 1678 0 
L 1678 2003 
Q 1678 2753 1589 2928 
Q 1500 3103 1269 3103 
Q 1041 3103 952 2911 
Q 863 2719 863 2003 
L 863 0 
L 341 0 
L 341 3500 
L 863 3500 
L 863 3200 
Q 966 3388 1120 3486 
Q 1275 3584 1472 3584 
Q 1709 3584 1867 3475 
Q 2025 3366 2113 3144 
z
" transform="scale(0.015625)"/>
    </defs>
    <use xlink:href="#DejaVuSansMono-30"/>
    <use xlink:href="#DejaVuSansMono-2e" x="60.205078"/>
    <use xlink:href="#DejaVuSansMono-35" x="120.410156"/>
    <use xlink:href="#DejaVuSansMono-34" x="180.615234"/>
    <use xlink:href="#DejaVuSansMono-39" x="240.820312"/>
    <use xlink:href="#DejaVuSansMono-35" x="301.025391"/>
    <use xlink:href="#DejaVuSansMono-34" x="361.230469"/>
    <use xlink:href="#DejaVuSansMono-b5" x="421.435547"/>
    <use xlink:href="#DejaVuSansMono-6d" x="481.640625"/>
   </g>
  </g>
 </g>
 <defs>
  <clipPath id="p6dc65b1724">
   <rect x="118.08" y="79.488" width="732.096" height="510.048"/>
  </clipPath>
 </defs>
</svg>
