<?xml version="1.0" encoding="utf-8" standalone="no"?>
<!DOCTYPE svg PUBLIC "-//W3C//DTD SVG 1.1//EN"
  "http://www.w3.org/Graphics/SVG/1.1/DTD/svg11.dtd">
<svg xmlns:xlink="http://www.w3.org/1999/xlink" width="1382.4pt" height="702pt" viewBox="0 0 1382.4 702" xmlns="http://www.w3.org/2000/svg" version="1.1">
 <metadata>
  <rdf:RDF xmlns:dc="http://purl.org/dc/elements/1.1/" xmlns:cc="http://creativecommons.org/ns#" xmlns:rdf="http://www.w3.org/1999/02/22-rdf-syntax-ns#">
   <cc:Work>
    <dc:type rdf:resource="http://purl.org/dc/dcmitype/StillImage"/>
    <dc:date>2022-07-12T21:54:02.686145</dc:date>
    <dc:format>image/svg+xml</dc:format>
    <dc:creator>
     <cc:Agent>
      <dc:title>Matplotlib v3.5.1, https://matplotlib.org/</dc:title>
     </cc:Agent>
    </dc:creator>
   </cc:Work>
  </rdf:RDF>
 </metadata>
 <defs>
  <style type="text/css">*{stroke-linejoin: round; stroke-linecap: butt}</style>
 </defs>
 <g id="figure_1">
  <g id="patch_1">
   <path d="M 0 702 
L 1382.4 702 
L 1382.4 0 
L 0 0 
z
" style="fill: #ffffff"/>
  </g>
  <g id="axes_1">
   <g id="patch_2">
    <path d="M 172.8 624.78 
L 1244.16 624.78 
L 1244.16 84.24 
L 172.8 84.24 
z
" style="fill: #ffffff"/>
   </g>
   <g id="matplotlib.axis_1">
    <g id="xtick_1">
     <g id="line2d_1">
      <defs>
       <path id="m203c0fa73b" d="M 0 0 
L 0 3.5 
" style="stroke: #000000; stroke-width: 0.8"/>
      </defs>
      <g>
       <use xlink:href="#m203c0fa73b" x="172.8" y="624.78" style="stroke: #000000; stroke-width: 0.8"/>
      </g>
     </g>
     <g id="text_1">
      <!-- 0.000 -->
      <g transform="translate(145.708594 645.552813)scale(0.18 -0.18)">
       <defs>
        <path id="DejaVuSansMono-30" d="M 1509 2344 
Q 1509 2516 1629 2641 
Q 1750 2766 1919 2766 
Q 2094 2766 2219 2641 
Q 2344 2516 2344 2344 
Q 2344 2169 2220 2047 
Q 2097 1925 1919 1925 
Q 1744 1925 1626 2044 
Q 1509 2163 1509 2344 
z
M 1925 4250 
Q 1484 4250 1267 3775 
Q 1050 3300 1050 2328 
Q 1050 1359 1267 884 
Q 1484 409 1925 409 
Q 2369 409 2586 884 
Q 2803 1359 2803 2328 
Q 2803 3300 2586 3775 
Q 2369 4250 1925 4250 
z
M 1925 4750 
Q 2672 4750 3055 4137 
Q 3438 3525 3438 2328 
Q 3438 1134 3055 521 
Q 2672 -91 1925 -91 
Q 1178 -91 797 521 
Q 416 1134 416 2328 
Q 416 3525 797 4137 
Q 1178 4750 1925 4750 
z
" transform="scale(0.015625)"/>
        <path id="DejaVuSansMono-2e" d="M 1528 953 
L 2316 953 
L 2316 0 
L 1528 0 
L 1528 953 
z
" transform="scale(0.015625)"/>
       </defs>
       <use xlink:href="#DejaVuSansMono-30"/>
       <use xlink:href="#DejaVuSansMono-2e" x="60.205078"/>
       <use xlink:href="#DejaVuSansMono-30" x="120.410156"/>
       <use xlink:href="#DejaVuSansMono-30" x="180.615234"/>
       <use xlink:href="#DejaVuSansMono-30" x="240.820312"/>
      </g>
     </g>
    </g>
    <g id="xtick_2">
     <g id="line2d_2">
      <g>
       <use xlink:href="#m203c0fa73b" x="387.072" y="624.78" style="stroke: #000000; stroke-width: 0.8"/>
      </g>
     </g>
     <g id="text_2">
      <!-- 0.015 -->
      <g transform="translate(359.980594 645.552813)scale(0.18 -0.18)">
       <defs>
        <path id="DejaVuSansMono-31" d="M 844 531 
L 1825 531 
L 1825 4097 
L 769 3859 
L 769 4434 
L 1819 4666 
L 2450 4666 
L 2450 531 
L 3419 531 
L 3419 0 
L 844 0 
L 844 531 
z
" transform="scale(0.015625)"/>
        <path id="DejaVuSansMono-35" d="M 647 4666 
L 3009 4666 
L 3009 4134 
L 1222 4134 
L 1222 2988 
Q 1356 3038 1492 3061 
Q 1628 3084 1766 3084 
Q 2491 3084 2916 2656 
Q 3341 2228 3341 1497 
Q 3341 759 2895 334 
Q 2450 -91 1678 -91 
Q 1306 -91 998 -41 
Q 691 9 447 109 
L 447 750 
Q 734 594 1025 517 
Q 1316 441 1619 441 
Q 2141 441 2423 716 
Q 2706 991 2706 1497 
Q 2706 1997 2414 2275 
Q 2122 2553 1600 2553 
Q 1347 2553 1106 2495 
Q 866 2438 647 2322 
L 647 4666 
z
" transform="scale(0.015625)"/>
       </defs>
       <use xlink:href="#DejaVuSansMono-30"/>
       <use xlink:href="#DejaVuSansMono-2e" x="60.205078"/>
       <use xlink:href="#DejaVuSansMono-30" x="120.410156"/>
       <use xlink:href="#DejaVuSansMono-31" x="180.615234"/>
       <use xlink:href="#DejaVuSansMono-35" x="240.820312"/>
      </g>
     </g>
    </g>
    <g id="xtick_3">
     <g id="line2d_3">
      <g>
       <use xlink:href="#m203c0fa73b" x="601.344" y="624.78" style="stroke: #000000; stroke-width: 0.8"/>
      </g>
     </g>
     <g id="text_3">
      <!-- 0.030 -->
      <g transform="translate(574.252594 645.552813)scale(0.18 -0.18)">
       <defs>
        <path id="DejaVuSansMono-33" d="M 2425 2497 
Q 2884 2375 3128 2064 
Q 3372 1753 3372 1288 
Q 3372 644 2939 276 
Q 2506 -91 1741 -91 
Q 1419 -91 1084 -31 
Q 750 28 428 141 
L 428 769 
Q 747 603 1056 522 
Q 1366 441 1672 441 
Q 2191 441 2469 675 
Q 2747 909 2747 1350 
Q 2747 1756 2469 1995 
Q 2191 2234 1716 2234 
L 1234 2234 
L 1234 2753 
L 1716 2753 
Q 2150 2753 2394 2943 
Q 2638 3134 2638 3475 
Q 2638 3834 2411 4026 
Q 2184 4219 1766 4219 
Q 1488 4219 1191 4156 
Q 894 4094 569 3969 
L 569 4550 
Q 947 4650 1242 4700 
Q 1538 4750 1766 4750 
Q 2447 4750 2855 4408 
Q 3263 4066 3263 3500 
Q 3263 3116 3048 2859 
Q 2834 2603 2425 2497 
z
" transform="scale(0.015625)"/>
       </defs>
       <use xlink:href="#DejaVuSansMono-30"/>
       <use xlink:href="#DejaVuSansMono-2e" x="60.205078"/>
       <use xlink:href="#DejaVuSansMono-30" x="120.410156"/>
       <use xlink:href="#DejaVuSansMono-33" x="180.615234"/>
       <use xlink:href="#DejaVuSansMono-30" x="240.820312"/>
      </g>
     </g>
    </g>
    <g id="xtick_4">
     <g id="line2d_4">
      <g>
       <use xlink:href="#m203c0fa73b" x="815.616" y="624.78" style="stroke: #000000; stroke-width: 0.8"/>
      </g>
     </g>
     <g id="text_4">
      <!-- 0.045 -->
      <g transform="translate(788.524594 645.552813)scale(0.18 -0.18)">
       <defs>
        <path id="DejaVuSansMono-34" d="M 2297 4091 
L 825 1625 
L 2297 1625 
L 2297 4091 
z
M 2194 4666 
L 2925 4666 
L 2925 1625 
L 3547 1625 
L 3547 1113 
L 2925 1113 
L 2925 0 
L 2297 0 
L 2297 1113 
L 319 1113 
L 319 1709 
L 2194 4666 
z
" transform="scale(0.015625)"/>
       </defs>
       <use xlink:href="#DejaVuSansMono-30"/>
       <use xlink:href="#DejaVuSansMono-2e" x="60.205078"/>
       <use xlink:href="#DejaVuSansMono-30" x="120.410156"/>
       <use xlink:href="#DejaVuSansMono-34" x="180.615234"/>
       <use xlink:href="#DejaVuSansMono-35" x="240.820312"/>
      </g>
     </g>
    </g>
    <g id="xtick_5">
     <g id="line2d_5">
      <g>
       <use xlink:href="#m203c0fa73b" x="1029.888" y="624.78" style="stroke: #000000; stroke-width: 0.8"/>
      </g>
     </g>
     <g id="text_5">
      <!-- 0.060 -->
      <g transform="translate(1002.796594 645.552813)scale(0.18 -0.18)">
       <defs>
        <path id="DejaVuSansMono-36" d="M 3097 4563 
L 3097 3981 
Q 2900 4097 2678 4158 
Q 2456 4219 2216 4219 
Q 1616 4219 1306 3767 
Q 997 3316 997 2438 
Q 1147 2750 1412 2917 
Q 1678 3084 2022 3084 
Q 2697 3084 3067 2670 
Q 3438 2256 3438 1497 
Q 3438 741 3056 325 
Q 2675 -91 1984 -91 
Q 1172 -91 794 492 
Q 416 1075 416 2328 
Q 416 3509 870 4129 
Q 1325 4750 2188 4750 
Q 2419 4750 2650 4701 
Q 2881 4653 3097 4563 
z
M 1972 2591 
Q 1569 2591 1337 2300 
Q 1106 2009 1106 1497 
Q 1106 984 1337 693 
Q 1569 403 1972 403 
Q 2391 403 2603 679 
Q 2816 956 2816 1497 
Q 2816 2041 2603 2316 
Q 2391 2591 1972 2591 
z
" transform="scale(0.015625)"/>
       </defs>
       <use xlink:href="#DejaVuSansMono-30"/>
       <use xlink:href="#DejaVuSansMono-2e" x="60.205078"/>
       <use xlink:href="#DejaVuSansMono-30" x="120.410156"/>
       <use xlink:href="#DejaVuSansMono-36" x="180.615234"/>
       <use xlink:href="#DejaVuSansMono-30" x="240.820312"/>
      </g>
     </g>
    </g>
    <g id="xtick_6">
     <g id="line2d_6">
      <g>
       <use xlink:href="#m203c0fa73b" x="1244.16" y="624.78" style="stroke: #000000; stroke-width: 0.8"/>
      </g>
     </g>
     <g id="text_6">
      <!-- 0.075 -->
      <g transform="translate(1217.068594 645.552813)scale(0.18 -0.18)">
       <defs>
        <path id="DejaVuSansMono-37" d="M 434 4666 
L 3372 4666 
L 3372 4397 
L 1703 0 
L 1044 0 
L 2669 4134 
L 434 4134 
L 434 4666 
z
" transform="scale(0.015625)"/>
       </defs>
       <use xlink:href="#DejaVuSansMono-30"/>
       <use xlink:href="#DejaVuSansMono-2e" x="60.205078"/>
       <use xlink:href="#DejaVuSansMono-30" x="120.410156"/>
       <use xlink:href="#DejaVuSansMono-37" x="180.615234"/>
       <use xlink:href="#DejaVuSansMono-35" x="240.820312"/>
      </g>
     </g>
    </g>
    <g id="text_7">
     <!-- I/F -->
     <g transform="translate(686.806875 671.66)scale(0.24 -0.24)">
      <defs>
       <path id="DejaVuSansMono-49" d="M 628 4666 
L 3219 4666 
L 3219 4134 
L 2241 4134 
L 2241 531 
L 3219 531 
L 3219 0 
L 628 0 
L 628 531 
L 1606 531 
L 1606 4134 
L 628 4134 
L 628 4666 
z
" transform="scale(0.015625)"/>
       <path id="DejaVuSansMono-2f" d="M 2778 4666 
L 3372 4666 
L 916 -594 
L 319 -594 
L 2778 4666 
z
" transform="scale(0.015625)"/>
       <path id="DejaVuSansMono-46" d="M 728 4666 
L 3475 4666 
L 3475 4134 
L 1363 4134 
L 1363 2759 
L 3278 2759 
L 3278 2228 
L 1363 2228 
L 1363 0 
L 728 0 
L 728 4666 
z
" transform="scale(0.015625)"/>
      </defs>
      <use xlink:href="#DejaVuSansMono-49"/>
      <use xlink:href="#DejaVuSansMono-2f" x="60.205078"/>
      <use xlink:href="#DejaVuSansMono-46" x="120.410156"/>
     </g>
    </g>
   </g>
   <g id="matplotlib.axis_2">
    <g id="ytick_1">
     <g id="line2d_7">
      <defs>
       <path id="md91311b4cf" d="M 0 0 
L -3.5 0 
" style="stroke: #000000; stroke-width: 0.8"/>
      </defs>
      <g>
       <use xlink:href="#md91311b4cf" x="172.8" y="624.78" style="stroke: #000000; stroke-width: 0.8"/>
      </g>
     </g>
     <g id="text_8">
      <!-- 90°S -->
      <g transform="translate(122.45375 631.666406)scale(0.18 -0.18)">
       <defs>
        <path id="DejaVuSansMono-39" d="M 1863 2069 
Q 2266 2069 2495 2359 
Q 2725 2650 2725 3163 
Q 2725 3675 2495 3965 
Q 2266 4256 1863 4256 
Q 1444 4256 1231 3979 
Q 1019 3703 1019 3163 
Q 1019 2619 1230 2344 
Q 1441 2069 1863 2069 
z
M 738 97 
L 738 678 
Q 934 563 1156 502 
Q 1378 441 1619 441 
Q 2219 441 2526 892 
Q 2834 1344 2834 2222 
Q 2688 1909 2422 1742 
Q 2156 1575 1813 1575 
Q 1138 1575 767 1990 
Q 397 2406 397 3169 
Q 397 3922 776 4336 
Q 1156 4750 1850 4750 
Q 2663 4750 3041 4165 
Q 3419 3581 3419 2328 
Q 3419 1150 2964 529 
Q 2509 -91 1644 -91 
Q 1416 -91 1184 -42 
Q 953 6 738 97 
z
" transform="scale(0.015625)"/>
        <path id="DejaVuSansMono-b0" d="M 1925 4750 
Q 2128 4750 2311 4673 
Q 2494 4597 2631 4453 
Q 2772 4313 2845 4134 
Q 2919 3956 2919 3750 
Q 2919 3338 2628 3052 
Q 2338 2766 1919 2766 
Q 1497 2766 1215 3047 
Q 934 3328 934 3750 
Q 934 4169 1221 4459 
Q 1509 4750 1925 4750 
z
M 1925 4347 
Q 1678 4347 1504 4173 
Q 1331 4000 1331 3750 
Q 1331 3500 1501 3331 
Q 1672 3163 1919 3163 
Q 2169 3163 2345 3334 
Q 2522 3506 2522 3750 
Q 2522 3997 2347 4172 
Q 2172 4347 1925 4347 
z
" transform="scale(0.015625)"/>
        <path id="DejaVuSansMono-53" d="M 3163 4506 
L 3163 3866 
Q 2875 4050 2586 4144 
Q 2297 4238 2003 4238 
Q 1556 4238 1297 4030 
Q 1038 3822 1038 3469 
Q 1038 3159 1208 2996 
Q 1378 2834 1844 2725 
L 2175 2650 
Q 2831 2497 3131 2169 
Q 3431 1841 3431 1275 
Q 3431 609 3018 259 
Q 2606 -91 1819 -91 
Q 1491 -91 1159 -20 
Q 828 50 494 191 
L 494 863 
Q 853 634 1173 528 
Q 1494 422 1819 422 
Q 2297 422 2562 636 
Q 2828 850 2828 1234 
Q 2828 1584 2645 1768 
Q 2463 1953 2009 2053 
L 1672 2131 
Q 1022 2278 728 2575 
Q 434 2872 434 3372 
Q 434 3997 854 4373 
Q 1275 4750 1972 4750 
Q 2241 4750 2537 4689 
Q 2834 4628 3163 4506 
z
" transform="scale(0.015625)"/>
       </defs>
       <use xlink:href="#DejaVuSansMono-39"/>
       <use xlink:href="#DejaVuSansMono-30" x="60.205078"/>
       <use xlink:href="#DejaVuSansMono-b0" x="120.410156"/>
       <use xlink:href="#DejaVuSansMono-53" x="180.615234"/>
      </g>
     </g>
    </g>
    <g id="ytick_2">
     <g id="line2d_8">
      <g>
       <use xlink:href="#md91311b4cf" x="172.8" y="534.69" style="stroke: #000000; stroke-width: 0.8"/>
      </g>
     </g>
     <g id="text_9">
      <!-- 60°S -->
      <g transform="translate(122.45375 541.576406)scale(0.18 -0.18)">
       <use xlink:href="#DejaVuSansMono-36"/>
       <use xlink:href="#DejaVuSansMono-30" x="60.205078"/>
       <use xlink:href="#DejaVuSansMono-b0" x="120.410156"/>
       <use xlink:href="#DejaVuSansMono-53" x="180.615234"/>
      </g>
     </g>
    </g>
    <g id="ytick_3">
     <g id="line2d_9">
      <g>
       <use xlink:href="#md91311b4cf" x="172.8" y="444.6" style="stroke: #000000; stroke-width: 0.8"/>
      </g>
     </g>
     <g id="text_10">
      <!-- 30°S -->
      <g transform="translate(122.45375 451.486406)scale(0.18 -0.18)">
       <use xlink:href="#DejaVuSansMono-33"/>
       <use xlink:href="#DejaVuSansMono-30" x="60.205078"/>
       <use xlink:href="#DejaVuSansMono-b0" x="120.410156"/>
       <use xlink:href="#DejaVuSansMono-53" x="180.615234"/>
      </g>
     </g>
    </g>
    <g id="ytick_4">
     <g id="line2d_10">
      <g>
       <use xlink:href="#md91311b4cf" x="172.8" y="354.51" style="stroke: #000000; stroke-width: 0.8"/>
      </g>
     </g>
     <g id="text_11">
      <!-- 0° -->
      <g transform="translate(144.126875 361.396406)scale(0.18 -0.18)">
       <use xlink:href="#DejaVuSansMono-30"/>
       <use xlink:href="#DejaVuSansMono-b0" x="60.205078"/>
      </g>
     </g>
    </g>
    <g id="ytick_5">
     <g id="line2d_11">
      <g>
       <use xlink:href="#md91311b4cf" x="172.8" y="264.42" style="stroke: #000000; stroke-width: 0.8"/>
      </g>
     </g>
     <g id="text_12">
      <!-- 30°N -->
      <g transform="translate(122.45375 271.306406)scale(0.18 -0.18)">
       <defs>
        <path id="DejaVuSansMono-4e" d="M 434 4666 
L 1234 4666 
L 2809 825 
L 2809 4666 
L 3419 4666 
L 3419 0 
L 2619 0 
L 1044 3841 
L 1044 0 
L 434 0 
L 434 4666 
z
" transform="scale(0.015625)"/>
       </defs>
       <use xlink:href="#DejaVuSansMono-33"/>
       <use xlink:href="#DejaVuSansMono-30" x="60.205078"/>
       <use xlink:href="#DejaVuSansMono-b0" x="120.410156"/>
       <use xlink:href="#DejaVuSansMono-4e" x="180.615234"/>
      </g>
     </g>
    </g>
    <g id="ytick_6">
     <g id="line2d_12">
      <g>
       <use xlink:href="#md91311b4cf" x="172.8" y="174.33" style="stroke: #000000; stroke-width: 0.8"/>
      </g>
     </g>
     <g id="text_13">
      <!-- 60°N -->
      <g transform="translate(122.45375 181.216406)scale(0.18 -0.18)">
       <use xlink:href="#DejaVuSansMono-36"/>
       <use xlink:href="#DejaVuSansMono-30" x="60.205078"/>
       <use xlink:href="#DejaVuSansMono-b0" x="120.410156"/>
       <use xlink:href="#DejaVuSansMono-4e" x="180.615234"/>
      </g>
     </g>
    </g>
    <g id="ytick_7">
     <g id="line2d_13">
      <g>
       <use xlink:href="#md91311b4cf" x="172.8" y="84.24" style="stroke: #000000; stroke-width: 0.8"/>
      </g>
     </g>
     <g id="text_14">
      <!-- 90°N -->
      <g transform="translate(122.45375 91.126406)scale(0.18 -0.18)">
       <use xlink:href="#DejaVuSansMono-39"/>
       <use xlink:href="#DejaVuSansMono-30" x="60.205078"/>
       <use xlink:href="#DejaVuSansMono-b0" x="120.410156"/>
       <use xlink:href="#DejaVuSansMono-4e" x="180.615234"/>
      </g>
     </g>
    </g>
    <g id="text_15">
     <!-- Latitude -->
     <g transform="translate(113.4625 412.305)rotate(-90)scale(0.24 -0.24)">
      <defs>
       <path id="DejaVuSansMono-4c" d="M 672 4666 
L 1306 4666 
L 1306 531 
L 3559 531 
L 3559 0 
L 672 0 
L 672 4666 
z
" transform="scale(0.015625)"/>
       <path id="DejaVuSansMono-61" d="M 2194 1759 
L 2003 1759 
Q 1500 1759 1245 1582 
Q 991 1406 991 1056 
Q 991 741 1181 566 
Q 1372 391 1709 391 
Q 2184 391 2456 720 
Q 2728 1050 2731 1631 
L 2731 1759 
L 2194 1759 
z
M 3309 1997 
L 3309 0 
L 2731 0 
L 2731 519 
Q 2547 206 2267 57 
Q 1988 -91 1588 -91 
Q 1053 -91 734 211 
Q 416 513 416 1019 
Q 416 1603 808 1906 
Q 1200 2209 1959 2209 
L 2731 2209 
L 2731 2300 
Q 2728 2719 2518 2908 
Q 2309 3097 1850 3097 
Q 1556 3097 1256 3012 
Q 956 2928 672 2766 
L 672 3341 
Q 991 3463 1283 3523 
Q 1575 3584 1850 3584 
Q 2284 3584 2592 3456 
Q 2900 3328 3091 3072 
Q 3209 2916 3259 2686 
Q 3309 2456 3309 1997 
z
" transform="scale(0.015625)"/>
       <path id="DejaVuSansMono-74" d="M 1919 4494 
L 1919 3500 
L 3225 3500 
L 3225 3053 
L 1919 3053 
L 1919 1153 
Q 1919 766 2066 612 
Q 2213 459 2578 459 
L 3225 459 
L 3225 0 
L 2522 0 
Q 1875 0 1609 259 
Q 1344 519 1344 1153 
L 1344 3053 
L 409 3053 
L 409 3500 
L 1344 3500 
L 1344 4494 
L 1919 4494 
z
" transform="scale(0.015625)"/>
       <path id="DejaVuSansMono-69" d="M 800 3500 
L 2272 3500 
L 2272 447 
L 3413 447 
L 3413 0 
L 556 0 
L 556 447 
L 1697 447 
L 1697 3053 
L 800 3053 
L 800 3500 
z
M 1697 4863 
L 2272 4863 
L 2272 4134 
L 1697 4134 
L 1697 4863 
z
" transform="scale(0.015625)"/>
       <path id="DejaVuSansMono-75" d="M 609 1325 
L 609 3494 
L 1184 3494 
L 1184 1325 
Q 1184 853 1351 631 
Q 1519 409 1869 409 
Q 2275 409 2490 695 
Q 2706 981 2706 1516 
L 2706 3494 
L 3284 3494 
L 3284 0 
L 2706 0 
L 2706 525 
Q 2553 222 2289 65 
Q 2025 -91 1672 -91 
Q 1134 -91 871 261 
Q 609 613 609 1325 
z
" transform="scale(0.015625)"/>
       <path id="DejaVuSansMono-64" d="M 2681 3053 
L 2681 4863 
L 3256 4863 
L 3256 0 
L 2681 0 
L 2681 441 
Q 2538 181 2298 45 
Q 2059 -91 1747 -91 
Q 1113 -91 748 401 
Q 384 894 384 1759 
Q 384 2613 750 3098 
Q 1116 3584 1747 3584 
Q 2063 3584 2303 3448 
Q 2544 3313 2681 3053 
z
M 991 1747 
Q 991 1078 1203 737 
Q 1416 397 1831 397 
Q 2247 397 2464 740 
Q 2681 1084 2681 1747 
Q 2681 2413 2464 2755 
Q 2247 3097 1831 3097 
Q 1416 3097 1203 2756 
Q 991 2416 991 1747 
z
" transform="scale(0.015625)"/>
       <path id="DejaVuSansMono-65" d="M 3475 1894 
L 3475 1613 
L 984 1613 
L 984 1594 
Q 984 1022 1282 709 
Q 1581 397 2125 397 
Q 2400 397 2700 484 
Q 3000 572 3341 750 
L 3341 178 
Q 3013 44 2708 -23 
Q 2403 -91 2119 -91 
Q 1303 -91 843 398 
Q 384 888 384 1747 
Q 384 2584 834 3084 
Q 1284 3584 2034 3584 
Q 2703 3584 3089 3131 
Q 3475 2678 3475 1894 
z
M 2900 2063 
Q 2888 2569 2661 2833 
Q 2434 3097 2009 3097 
Q 1594 3097 1325 2822 
Q 1056 2547 1006 2059 
L 2900 2063 
z
" transform="scale(0.015625)"/>
      </defs>
      <use xlink:href="#DejaVuSansMono-4c"/>
      <use xlink:href="#DejaVuSansMono-61" x="60.205078"/>
      <use xlink:href="#DejaVuSansMono-74" x="120.410156"/>
      <use xlink:href="#DejaVuSansMono-69" x="180.615234"/>
      <use xlink:href="#DejaVuSansMono-74" x="240.820312"/>
      <use xlink:href="#DejaVuSansMono-75" x="301.025391"/>
      <use xlink:href="#DejaVuSansMono-64" x="361.230469"/>
      <use xlink:href="#DejaVuSansMono-65" x="421.435547"/>
     </g>
    </g>
   </g>
   <g id="line2d_14">
    <path d="M 662.835417 108.264 
L 662.835417 112.7685 
L 663.214787 114.27 
L 663.214787 115.7715 
L 663.688933 117.273 
L 663.688933 120.276 
L 670.300208 121.7775 
L 670.300208 123.279 
L 682.82511 124.7805 
L 683.373757 126.282 
L 686.571075 129.285 
L 690.797945 130.7865 
L 694.035867 132.288 
L 695.499014 133.7895 
L 689.619339 135.291 
L 691.861447 138.294 
L 692.085004 139.7955 
L 696.840245 142.7985 
L 697.158631 144.3 
L 699.33305 145.8015 
L 700.112012 147.303 
L 701.669988 148.8045 
L 702.171327 150.306 
L 704.122136 151.8075 
L 704.481178 153.309 
L 706.296556 154.8105 
L 709.100934 156.312 
L 710.719895 157.8135 
L 711.045039 159.315 
L 713.138145 160.8165 
L 715.346463 163.8195 
L 717.297326 165.321 
L 718.624987 166.8225 
L 719.356587 168.324 
L 720.39295 169.8255 
L 722.492921 171.327 
L 723.915412 172.8285 
L 726.489476 174.33 
L 730.282856 175.8315 
L 732.342118 177.333 
L 734.00844 178.8345 
L 735.471641 180.336 
L 737.585076 181.8375 
L 738.723132 183.339 
L 741.168469 184.8405 
L 741.642615 186.342 
L 745.158266 187.8435 
L 746.377528 189.345 
L 749.080373 190.8465 
L 752.77887 192.348 
L 754.404589 193.8495 
L 757.771185 195.351 
L 758.895672 196.8525 
L 761.659447 198.354 
L 761.937123 199.8555 
L 764.700899 201.357 
L 765.750831 202.8585 
L 767.999805 204.36 
L 768.744868 205.8615 
L 771.908289 207.363 
L 773.06662 208.8645 
L 774.367249 210.366 
L 776.175815 211.8675 
L 777.48996 213.369 
L 778.187662 214.8705 
L 780.375651 216.372 
L 782.820988 217.8735 
L 784.859922 219.375 
L 787.650784 220.8765 
L 790.732892 222.378 
L 791.803152 223.8795 
L 794.458529 225.381 
L 795.677792 226.8825 
L 797.547395 228.384 
L 798.055439 229.8855 
L 800.927561 231.387 
L 801.388137 232.8885 
L 802.871665 234.39 
L 805.079929 237.393 
L 805.743787 238.8945 
L 806.780202 240.396 
L 807.674321 241.8975 
L 808.074019 243.399 
L 809.110382 244.9005 
L 809.333885 246.402 
L 810.512598 247.9035 
L 811.000314 249.405 
L 811.664118 250.9065 
L 811.941847 252.408 
L 812.842778 253.9095 
L 813.405048 255.411 
L 814.001162 258.414 
L 814.475308 259.9155 
L 814.705623 262.9185 
L 815.152682 264.42 
L 815.342394 265.9215 
L 815.511671 270.426 
L 816.053613 271.9275 
L 815.99944 273.429 
L 816.087457 274.9305 
L 815.843626 276.432 
L 815.735227 277.9335 
L 815.850385 279.435 
L 815.823298 280.9365 
L 816.541328 282.438 
L 816.758073 283.9395 
L 817.482862 285.441 
L 823.105189 286.9425 
L 823.172932 288.444 
L 825.753807 289.9455 
L 826.539581 291.447 
L 828.260129 292.9485 
L 830.630965 294.45 
L 831.558982 297.453 
L 832.04675 300.456 
L 832.033127 301.9575 
L 832.866368 303.459 
L 835.054304 304.9605 
L 835.149187 306.462 
L 838.739285 307.9635 
L 838.231294 309.465 
L 839.660544 310.9665 
L 838.271898 313.9695 
L 837.262568 315.471 
L 837.127136 316.9725 
L 836.293948 318.474 
L 838.495454 319.9755 
L 837.662266 321.477 
L 837.330364 322.9785 
L 836.131376 324.48 
L 835.961993 325.9815 
L 834.586917 327.483 
L 834.573347 328.9845 
L 833.645383 330.486 
L 832.961197 331.9875 
L 832.100923 333.489 
L 831.694467 334.9905 
L 831.003576 339.495 
L 830.40065 340.9965 
L 829.100075 345.501 
L 828.51753 347.0025 
L 828.456545 348.504 
L 827.420183 350.0055 
L 827.3253 351.507 
L 826.288885 353.0085 
L 826.241523 354.51 
L 826.424423 356.0115 
L 825.902863 357.513 
L 825.692823 359.0145 
L 824.819032 360.516 
L 822.881686 362.0175 
L 822.319416 363.519 
L 820.388935 365.0205 
L 819.718319 366.522 
L 817.68609 368.0235 
L 816.839333 369.525 
L 814.482067 371.0265 
L 813.73695 372.528 
L 811.129041 374.0295 
L 810.32294 375.531 
L 808.277248 377.0325 
L 806.678562 378.534 
L 804.206085 380.0355 
L 802.837767 381.537 
L 798.387395 384.54 
L 796.700638 386.0415 
L 792.243454 389.0445 
L 791.179951 390.546 
L 788.063999 392.0475 
L 785.645695 393.549 
L 784.155461 395.0505 
L 781.886213 396.552 
L 779.955678 398.0535 
L 773.554336 404.0595 
L 772.043774 405.561 
L 771.562817 407.0625 
L 769.821941 408.564 
L 769.456141 410.0655 
L 767.904922 411.567 
L 767.498466 413.0685 
L 766.428205 414.57 
L 766.157235 416.0715 
L 764.924455 417.573 
L 764.694141 419.0745 
L 764.152199 420.576 
L 763.366479 425.0805 
L 763.305441 426.582 
L 763.122541 428.0835 
L 763.176767 429.585 
L 763.569601 431.0865 
L 763.528998 432.588 
L 764.328341 435.591 
L 764.538327 437.0925 
L 765.181856 438.594 
L 765.344428 440.0955 
L 765.886317 441.597 
L 766.170804 443.0985 
L 766.882076 444.6 
L 767.247877 446.1015 
L 768.494279 449.1045 
L 768.677179 450.606 
L 769.510313 452.1075 
L 770.025169 453.609 
L 771.224103 455.1105 
L 771.562817 456.612 
L 772.890532 458.1135 
L 773.954034 459.615 
L 775.173297 461.1165 
L 776.182626 462.618 
L 777.821862 464.1195 
L 778.384132 465.621 
L 781.811659 470.1255 
L 783.0107 471.627 
L 784.514503 473.1285 
L 785.157979 474.63 
L 786.783698 476.1315 
L 787.867529 477.633 
L 790.590595 480.636 
L 793.279816 482.1375 
L 793.598255 483.639 
L 797.798038 485.1405 
L 798.786986 486.642 
L 800.778505 488.1435 
L 801.733662 489.645 
L 803.46778 491.1465 
L 804.178999 492.648 
L 807.213745 495.651 
L 807.674321 497.1525 
L 809.523597 498.654 
L 810.255197 500.1555 
L 811.833501 501.657 
L 812.998591 503.1585 
L 815.112079 504.66 
L 816.399031 506.1615 
L 818.41769 507.663 
L 819.454053 509.1645 
L 822.001084 510.666 
L 822.536161 512.1675 
L 824.514163 513.669 
L 826.702099 516.672 
L 827.989158 518.1735 
L 830.387133 519.675 
L 831.003576 521.1765 
L 832.608967 522.678 
L 834.830748 525.681 
L 835.582676 527.1825 
L 837.425193 528.684 
L 837.994221 530.1855 
L 840.757891 533.1885 
L 841.550475 534.69 
L 842.525907 536.1915 
L 844.0974 537.693 
L 844.131298 539.1945 
L 845.066126 540.696 
L 845.519944 542.1975 
L 847.80952 545.2005 
L 848.602052 546.702 
L 849.672366 548.2035 
L 850.342981 549.705 
L 851.988975 551.2065 
L 852.192204 552.708 
L 853.68249 554.2095 
L 854.122791 555.711 
L 855.233708 557.2125 
L 856.005858 558.714 
L 856.933928 560.2155 
L 857.692615 561.717 
L 859.528321 566.2215 
L 859.670564 567.723 
L 860.32761 569.2245 
L 861.126953 572.2275 
L 861.743343 573.729 
L 862.224354 576.732 
L 863.165887 578.2335 
L 863.287803 579.735 
L 865.32679 581.2365 
L 865.672208 582.738 
L 867.304739 584.2395 
L 867.413085 585.741 
L 867.738282 587.2425 
L 868.537572 588.744 
L 869.513003 590.2455 
L 871.003237 591.747 
L 875.832979 593.2485 
L 876.659409 594.75 
L 877.749997 596.2515 
L 878.217438 597.753 
L 877.722911 599.2545 
L 878.203868 602.2575 
L 878.237713 603.759 
L 879.971831 605.2605 
L 881.069231 606.762 
L 880.425702 608.2635 
L 881.394375 609.765 
L 881.143786 611.2665 
L 882.518862 612.768 
L 883.487482 614.2695 
L 882.993008 615.771 
L 880.547671 617.2725 
L 870.081978 618.774 
L 874.559544 620.2755 
L 880.44603 621.777 
L 884.185184 623.2785 
L 884.185184 624.78 
L 884.185184 624.78 
" clip-path="url(#p6216e8e4af)" style="fill: none; stroke: #000080; stroke-width: 4; stroke-linecap: square"/>
   </g>
   <g id="line2d_15">
    <path d="M 376.40793 84.24 
L 376.40793 87.243 
L 382.946633 88.7445 
L 389.877279 91.7475 
L 390.422174 93.249 
L 390.766315 94.7505 
L 390.814103 96.252 
L 391.731836 97.7535 
L 391.330328 99.255 
L 392.735577 100.7565 
L 393.615049 102.258 
L 393.720215 103.7595 
L 394.90558 105.261 
L 396.454217 106.7625 
L 398.375678 108.264 
L 400.010364 111.267 
L 403.203239 112.7685 
L 405.975503 114.27 
L 415.41074 117.273 
L 420.649333 118.7745 
L 428.822709 120.276 
L 438.114559 123.279 
L 441.144915 124.7805 
L 447.176971 126.282 
L 450.972107 127.7835 
L 453.562721 129.285 
L 466.716598 130.7865 
L 472.356699 132.288 
L 475.998868 133.7895 
L 481.868433 135.291 
L 485.998105 136.7925 
L 493.531011 138.294 
L 496.484898 139.7955 
L 501.035235 141.297 
L 508.147503 142.7985 
L 512.802966 144.3 
L 516.253961 145.8015 
L 519.322579 147.303 
L 523.308863 148.8045 
L 528.318073 150.306 
L 531.587418 151.8075 
L 540.277007 153.309 
L 545.553862 154.8105 
L 553.755894 156.312 
L 556.700228 157.8135 
L 561.556472 159.315 
L 567.445114 160.8165 
L 575.63762 162.318 
L 580.646804 163.8195 
L 593.160184 166.8225 
L 598.43704 168.324 
L 602.643235 169.8255 
L 608.617926 171.327 
L 613.598427 172.8285 
L 622.871145 174.33 
L 627.861225 175.8315 
L 636.445607 177.333 
L 640.709195 178.8345 
L 643.968987 180.336 
L 650.545939 181.8375 
L 655.220507 183.339 
L 662.868145 184.8405 
L 667.131679 186.342 
L 672.657049 187.8435 
L 678.918542 189.345 
L 682.943088 190.8465 
L 693.133499 192.348 
L 693.582847 193.8495 
L 697.88459 195.351 
L 703.371751 196.8525 
L 707.033051 198.354 
L 713.581267 199.8555 
L 716.936687 201.357 
L 721.467894 202.8585 
L 723.943829 204.36 
L 727.069733 205.8615 
L 731.017809 207.363 
L 733.503323 208.8645 
L 737.805066 210.366 
L 741.609781 211.8675 
L 744.668847 213.369 
L 748.492613 214.8705 
L 751.494313 216.372 
L 755.767426 217.8735 
L 758.138156 219.375 
L 759.753711 220.8765 
L 761.703882 222.378 
L 763.281175 223.8795 
L 766.435815 225.381 
L 770.068433 226.8825 
L 772.429637 228.384 
L 773.882673 229.8855 
L 774.819523 231.387 
L 776.27256 232.8885 
L 777.257144 234.39 
L 778.758021 235.8915 
L 780.622143 238.8945 
L 781.998709 240.396 
L 782.88772 241.8975 
L 784.742263 243.399 
L 787.581445 246.402 
L 788.527821 247.9035 
L 789.32131 249.405 
L 790.458834 250.9065 
L 791.137592 252.408 
L 793.470113 253.9095 
L 794.817943 255.411 
L 795.133455 256.9125 
L 797.007103 258.414 
L 797.504238 259.9155 
L 798.852121 261.417 
L 799.578613 262.9185 
L 800.907392 264.42 
L 802.886246 267.423 
L 804.100294 270.426 
L 805.209188 271.9275 
L 806.51881 274.9305 
L 807.235776 277.9335 
L 807.216672 279.435 
L 807.312246 280.9365 
L 807.89543 282.438 
L 809.023429 283.9395 
L 809.941175 285.441 
L 811.250797 286.9425 
L 813.181811 291.447 
L 813.124445 292.9485 
L 813.889251 294.45 
L 814.0804 295.9515 
L 815.275343 297.453 
L 815.294447 298.9545 
L 815.47607 300.456 
L 815.782003 301.9575 
L 815.743742 303.459 
L 816.001888 306.462 
L 815.896735 307.9635 
L 815.67685 309.465 
L 815.734216 310.9665 
L 815.90626 312.468 
L 815.428283 313.9695 
L 815.313551 315.471 
L 815.915839 316.9725 
L 816.193036 318.474 
L 818.70718 321.477 
L 818.735863 322.9785 
L 819.59619 324.48 
L 819.883019 325.9815 
L 819.452829 327.483 
L 819.242523 328.9845 
L 819.481512 330.486 
L 818.898382 331.9875 
L 818.506453 333.489 
L 817.703438 334.9905 
L 817.225514 336.492 
L 817.846853 337.9935 
L 817.560077 339.495 
L 817.483554 340.9965 
L 816.833532 342.498 
L 816.843111 343.9995 
L 816.355555 345.501 
L 815.992309 347.0025 
L 816.422446 348.504 
L 816.279085 350.0055 
L 816.298189 351.507 
L 816.049675 353.0085 
L 815.60038 354.51 
L 815.638589 356.0115 
L 816.508548 357.513 
L 816.193036 359.0145 
L 816.326925 360.516 
L 815.743742 362.0175 
L 815.772478 363.519 
L 816.240823 365.0205 
L 816.298189 366.522 
L 816.183511 368.0235 
L 815.437862 369.525 
L 816.479812 371.0265 
L 816.173932 372.528 
L 815.715112 375.531 
L 815.963626 377.0325 
L 815.122403 378.534 
L 812.828144 381.537 
L 811.910397 383.0385 
L 811.222114 384.54 
L 811.174327 386.0415 
L 808.382933 387.543 
L 807.608654 389.0445 
L 806.327662 390.546 
L 804.807681 392.0475 
L 803.115656 393.549 
L 801.060385 395.0505 
L 801.882504 396.552 
L 801.194168 398.0535 
L 798.919013 399.555 
L 796.892425 401.0565 
L 795.907787 402.558 
L 794.158396 404.0595 
L 793.584792 405.561 
L 792.160491 407.0625 
L 790.908129 410.0655 
L 790.477939 411.567 
L 788.929381 414.57 
L 788.279307 416.0715 
L 788.269728 417.573 
L 787.868221 419.0745 
L 787.677019 420.576 
L 787.868221 422.0775 
L 787.810855 423.579 
L 788.212415 425.0805 
L 788.279307 426.582 
L 788.671235 428.0835 
L 789.971332 431.0865 
L 790.191163 432.588 
L 790.927233 434.0895 
L 792.571524 435.591 
L 794.636374 440.0955 
L 794.703265 441.597 
L 794.970937 443.0985 
L 794.884941 444.6 
L 795.659273 446.1015 
L 795.659273 447.603 
L 796.481339 449.1045 
L 796.691644 450.606 
L 798.374091 453.609 
L 798.364565 455.1105 
L 797.532868 456.612 
L 798.068211 458.1135 
L 799.349203 459.615 
L 800.094799 461.1165 
L 800.534568 462.618 
L 800.620616 464.1195 
L 802.494317 465.621 
L 803.813465 467.1225 
L 805.993099 470.1255 
L 805.601117 471.627 
L 806.308504 473.1285 
L 806.566651 474.63 
L 808.688813 476.1315 
L 810.189689 477.633 
L 811.164748 479.1345 
L 813.516373 480.636 
L 814.223814 482.1375 
L 815.504753 483.639 
L 817.139412 485.1405 
L 817.560077 486.642 
L 818.67855 488.1435 
L 820.198478 489.645 
L 823.171495 491.1465 
L 823.133233 492.648 
L 825.21724 494.1495 
L 831.593412 497.1525 
L 836.248875 498.654 
L 836.908529 500.1555 
L 840.483727 501.657 
L 844.651687 503.1585 
L 849.488774 504.66 
L 850.502147 506.1615 
L 858.70418 509.1645 
L 863.99056 510.666 
L 868.712968 512.1675 
L 869.659344 513.669 
L 873.846462 515.1705 
L 879.362253 516.672 
L 883.597105 518.1735 
L 884.725157 519.675 
L 888.577659 521.1765 
L 891.493257 522.678 
L 896.741483 524.1795 
L 900.029905 525.681 
L 901.291793 527.1825 
L 903.012501 528.684 
L 903.997085 530.1855 
L 905.30676 531.687 
L 906.425234 533.1885 
L 910.669611 536.1915 
L 915.669269 539.1945 
L 917.571653 540.696 
L 923.575 543.699 
L 925.897996 545.2005 
L 926.261188 546.702 
L 928.679811 548.2035 
L 930.247526 549.705 
L 933.956613 551.2065 
L 936.585489 552.708 
L 937.340663 554.2095 
L 944.405171 557.2125 
L 946.718535 558.714 
L 946.785426 560.2155 
L 947.942161 561.717 
L 950.465884 563.2185 
L 952.473367 564.72 
L 954.280124 566.2215 
L 955.255183 567.723 
L 955.780947 569.2245 
L 958.696652 572.2275 
L 962.625624 575.2305 
L 964.116815 576.732 
L 966.153035 578.2335 
L 969.192997 581.2365 
L 969.986379 582.738 
L 971.783557 584.2395 
L 972.366741 585.741 
L 973.628576 587.2425 
L 974.345488 588.744 
L 974.450694 590.2455 
L 976.639854 591.747 
L 977.662647 593.2485 
L 976.639854 596.2515 
L 975.769895 597.753 
L 974.756574 599.2545 
L 974.0014 600.756 
L 974.708787 603.759 
L 974.43159 605.2605 
L 973.131494 606.762 
L 973.341747 608.2635 
L 973.905826 609.765 
L 975.999305 612.768 
L 976.305238 615.771 
L 976.859686 617.2725 
L 976.859686 618.774 
L 977.987684 620.2755 
L 977.987684 621.777 
L 969.575347 623.2785 
L 970.015116 624.78 
L 970.015116 624.78 
" clip-path="url(#p6216e8e4af)" style="fill: none; stroke: #003669; stroke-width: 4; stroke-linecap: square"/>
   </g>
   <g id="line2d_16">
    <path d="M 514.494193 84.24 
L 514.494193 85.7415 
L 514.169023 87.243 
L 503.926327 90.246 
L 503.980527 91.7475 
L 502.354701 93.249 
L 503.005042 94.7505 
L 503.1947 96.252 
L 505.606352 97.7535 
L 505.172783 99.255 
L 507.232178 100.7565 
L 508.749631 102.258 
L 513.789679 103.7595 
L 519.371669 105.261 
L 520.86201 106.7625 
L 523.680091 108.264 
L 534.762812 111.267 
L 540.317716 112.7685 
L 542.106113 114.27 
L 553.622377 115.7715 
L 561.046991 117.273 
L 571.072888 118.7745 
L 579.12073 120.276 
L 584.404663 121.7775 
L 593.915731 123.279 
L 605.079739 124.7805 
L 618.140542 126.282 
L 626.26967 127.7835 
L 632.122631 129.285 
L 641.5253 130.7865 
L 662.173316 133.7895 
L 669.299819 135.291 
L 674.502493 136.7925 
L 682.929624 138.294 
L 701.220161 141.297 
L 707.777689 142.7985 
L 709.403462 144.3 
L 715.96099 145.8015 
L 723.927545 147.303 
L 730.891477 148.8045 
L 732.977931 150.306 
L 746.418078 153.309 
L 753.354976 154.8105 
L 759.451822 156.312 
L 760.535706 157.8135 
L 771.59134 160.8165 
L 780.939784 163.8195 
L 782.348864 165.321 
L 787.903768 166.8225 
L 800.558089 169.8255 
L 806.194252 171.327 
L 808.118188 172.8285 
L 814.811148 174.33 
L 827.140325 177.333 
L 835.621736 178.8345 
L 837.626878 180.336 
L 846.81275 181.8375 
L 854.074792 183.339 
L 859.033581 184.8405 
L 862.014261 186.342 
L 862.962659 187.8435 
L 865.374311 189.345 
L 868.056933 190.8465 
L 869.872417 192.348 
L 872.17567 193.8495 
L 873.178241 195.351 
L 875.400181 196.8525 
L 878.543487 198.354 
L 882.445425 201.357 
L 883.989991 202.8585 
L 885.128048 204.36 
L 892.119119 208.8645 
L 892.904945 210.366 
L 893.961742 213.369 
L 893.934603 214.8705 
L 894.232713 216.372 
L 894.097175 219.375 
L 895.099799 220.8765 
L 895.966938 222.378 
L 896.590139 223.8795 
L 898.215965 225.381 
L 898.595334 226.8825 
L 899.11019 228.384 
L 899.299848 229.8855 
L 899.923103 231.387 
L 900.004362 232.8885 
L 900.383732 234.39 
L 898.541108 237.393 
L 899.218536 238.8945 
L 897.755335 243.399 
L 897.674023 244.9005 
L 898.026306 246.402 
L 897.890767 247.9035 
L 898.243051 249.405 
L 898.757906 250.9065 
L 898.757906 253.9095 
L 894.774602 258.414 
L 893.772031 259.9155 
L 893.609459 261.417 
L 892.335864 262.9185 
L 890.683005 264.42 
L 887.891983 265.9215 
L 886.510042 267.423 
L 886.049413 268.9245 
L 883.746107 273.429 
L 883.502222 274.9305 
L 883.529309 276.432 
L 883.231305 277.9335 
L 883.177079 279.435 
L 882.282907 282.438 
L 882.120281 283.9395 
L 881.686739 285.441 
L 880.521596 286.9425 
L 880.223485 288.444 
L 879.789942 289.9455 
L 880.088053 291.447 
L 880.033827 292.9485 
L 879.518971 294.45 
L 878.109944 295.9515 
L 878.624799 297.453 
L 876.917661 300.456 
L 876.26732 301.9575 
L 876.240234 307.9635 
L 877.459603 309.465 
L 877.75766 312.468 
L 877.107319 313.9695 
L 877.215772 315.471 
L 876.64669 316.9725 
L 876.26732 318.474 
L 875.210523 319.9755 
L 873.63887 321.477 
L 872.853097 322.9785 
L 871.389844 324.48 
L 871.091786 325.9815 
L 870.549845 327.483 
L 869.872417 328.9845 
L 868.409217 330.486 
L 867.135622 333.489 
L 865.347224 337.9935 
L 865.591109 339.495 
L 865.591109 340.9965 
L 865.157513 342.498 
L 864.507225 343.9995 
L 864.100715 345.501 
L 863.992316 347.0025 
L 863.423341 350.0055 
L 862.691688 351.507 
L 862.12266 353.0085 
L 861.201348 354.51 
L 861.418146 357.513 
L 861.038776 359.0145 
L 859.656835 362.0175 
L 860.334262 363.519 
L 860.551007 366.522 
L 860.063291 368.0235 
L 859.954892 369.525 
L 860.876151 371.0265 
L 860.280089 374.0295 
L 859.006494 375.531 
L 857.461981 377.0325 
L 856.784554 378.534 
L 852.015423 381.537 
L 850.281199 383.0385 
L 847.219259 384.54 
L 846.406347 386.0415 
L 844.645036 387.543 
L 843.317321 389.0445 
L 841.52887 390.546 
L 840.119843 392.0475 
L 838.954646 393.549 
L 837.003677 395.0505 
L 834.185569 398.0535 
L 832.668089 399.555 
L 832.559743 401.0565 
L 831.340374 402.558 
L 830.581688 404.0595 
L 829.579063 405.561 
L 829.660376 407.0625 
L 828.847463 408.564 
L 828.955809 410.0655 
L 830.202264 411.567 
L 831.855176 413.0685 
L 831.746831 414.57 
L 833.345516 416.0715 
L 833.426882 417.573 
L 832.93906 419.0745 
L 831.394547 422.0775 
L 829.551977 425.0805 
L 828.901636 426.582 
L 829.416438 428.0835 
L 829.362265 429.585 
L 831.773917 431.0865 
L 834.510766 432.588 
L 836.32625 434.0895 
L 838.412704 435.591 
L 838.16882 437.0925 
L 839.008819 438.594 
L 839.063045 440.0955 
L 839.848872 443.0985 
L 839.930131 444.6 
L 841.826927 446.1015 
L 841.339212 447.603 
L 840.607558 449.1045 
L 841.664355 450.606 
L 843.208868 452.1075 
L 843.723724 453.609 
L 845.295376 455.1105 
L 845.837318 456.612 
L 847.192173 458.1135 
L 849.224401 462.618 
L 849.685084 464.1195 
L 851.852851 465.621 
L 852.665764 467.1225 
L 855.185762 468.624 
L 857.109698 470.1255 
L 862.312318 473.1285 
L 864.751056 474.63 
L 870.820762 479.1345 
L 873.530525 480.636 
L 875.346008 482.1375 
L 880.060913 485.1405 
L 885.724216 488.1435 
L 887.5397 489.645 
L 890.411981 491.1465 
L 892.308777 494.1495 
L 894.666256 495.651 
L 896.075284 497.1525 
L 898.215965 498.654 
L 899.570819 500.1555 
L 901.792759 501.657 
L 902.714071 503.1585 
L 905.478006 504.66 
L 907.781206 506.1615 
L 909.867714 507.663 
L 912.225193 509.1645 
L 915.12456 510.666 
L 916.533588 512.1675 
L 920.110383 513.669 
L 922.467862 515.1705 
L 925.448542 516.672 
L 927.724708 518.1735 
L 929.431793 519.675 
L 931.599613 521.1765 
L 936.016407 522.678 
L 937.967377 524.1795 
L 940.18937 525.681 
L 943.278449 527.1825 
L 944.335193 528.684 
L 946.801071 530.1855 
L 948.291358 531.687 
L 951.434663 533.1885 
L 952.491407 534.69 
L 954.713401 536.1915 
L 956.095342 537.693 
L 958.046311 539.1945 
L 958.723738 540.696 
L 960.186992 542.1975 
L 960.512136 543.699 
L 962.327673 545.2005 
L 964.359901 548.2035 
L 965.579324 549.705 
L 966.229665 552.708 
L 966.934178 554.2095 
L 967.476067 555.711 
L 967.503207 557.2125 
L 968.695489 558.714 
L 969.020633 560.2155 
L 969.129032 561.717 
L 969.454176 563.2185 
L 970.240002 564.72 
L 971.892967 566.2215 
L 971.513597 567.723 
L 973.085197 569.2245 
L 972.597481 570.726 
L 974.331706 572.2275 
L 974.385879 573.729 
L 974.765248 575.2305 
L 975.280051 576.732 
L 974.114908 578.2335 
L 974.006509 579.735 
L 973.031024 581.2365 
L 968.478691 582.738 
L 967.801264 584.2395 
L 966.934178 585.741 
L 967.801264 587.2425 
L 970.158743 588.744 
L 970.646459 590.2455 
L 972.624568 591.747 
L 967.55738 593.2485 
L 971.540684 594.75 
L 963.818013 596.2515 
L 939.566116 597.753 
L 942.817714 599.2545 
L 945.635822 600.756 
L 946.990676 602.2575 
L 951.353351 603.759 
L 952.708152 605.2605 
L 953.277234 606.762 
L 955.14689 608.2635 
L 990.047966 609.765 
L 990.047966 611.2665 
L 990.047966 611.2665 
" clip-path="url(#p6216e8e4af)" style="fill: none; stroke: #00a9ff; stroke-width: 4; stroke-linecap: square"/>
   </g>
   <g id="line2d_17">
    <path d="M 882.59017 88.7445 
L 882.59017 94.7505 
L 884.267561 96.252 
L 881.904388 97.7535 
L 882.378055 99.255 
L 882.654294 100.7565 
L 882.654294 102.258 
L 906.261172 103.7595 
L 906.315398 106.7625 
L 908.076709 108.264 
L 908.07176 109.7655 
L 909.048628 111.267 
L 909.097905 112.7685 
L 908.639139 114.27 
L 909.241001 115.7715 
L 909.596211 117.273 
L 909.70477 118.7745 
L 909.566623 120.276 
L 909.586366 123.279 
L 909.931732 124.7805 
L 910.188281 127.7835 
L 910.573079 130.7865 
L 912.516864 133.7895 
L 914.5939 139.7955 
L 914.801066 141.297 
L 915.93577 142.7985 
L 916.53279 144.3 
L 916.99161 145.8015 
L 916.878102 147.303 
L 916.947175 148.8045 
L 917.435583 150.306 
L 917.154394 151.8075 
L 917.864815 153.309 
L 917.366509 154.8105 
L 917.553986 156.312 
L 917.687183 159.315 
L 917.800691 160.8165 
L 918.259511 162.318 
L 919.157408 166.8225 
L 919.186996 168.324 
L 919.84319 169.8255 
L 919.971438 171.327 
L 920.671961 172.8285 
L 920.410515 174.33 
L 920.060201 180.336 
L 919.423802 181.8375 
L 917.978269 187.8435 
L 917.045836 189.345 
L 917.055734 190.8465 
L 916.197269 192.348 
L 914.233741 193.8495 
L 907.948461 196.8525 
L 902.556076 198.354 
L 901.332556 199.8555 
L 896.428685 201.357 
L 893.917521 202.8585 
L 891.98358 204.36 
L 890.414695 205.8615 
L 885.357884 210.366 
L 885.214788 211.8675 
L 882.580272 214.8705 
L 880.937418 216.372 
L 878.924559 219.375 
L 878.016764 220.8765 
L 874.242648 225.381 
L 872.945159 226.8825 
L 871.938704 228.384 
L 870.557348 229.8855 
L 869.590324 231.387 
L 867.962317 232.8885 
L 866.561165 234.39 
L 864.711092 235.8915 
L 862.584779 237.393 
L 861.479663 238.8945 
L 859.698662 240.396 
L 858.697155 241.8975 
L 856.847082 243.399 
L 855.860315 244.9005 
L 852.214501 249.405 
L 850.354529 250.9065 
L 849.249413 252.408 
L 847.951924 253.9095 
L 846.476803 255.411 
L 845.159572 256.9125 
L 844.251777 258.414 
L 843.131866 259.9155 
L 841.686333 261.417 
L 840.689775 262.9185 
L 839.135737 264.42 
L 836.634418 267.423 
L 835.169142 268.9245 
L 833.032931 271.9275 
L 831.251931 273.429 
L 830.06795 274.9305 
L 828.469477 276.432 
L 827.374205 277.9335 
L 825.637639 279.435 
L 823.417561 280.9365 
L 822.346981 282.438 
L 820.501804 283.9395 
L 819.293077 285.441 
L 817.295013 286.9425 
L 815.948194 288.444 
L 814.428692 289.9455 
L 812.430574 291.447 
L 811.438965 292.9485 
L 809.61353 294.45 
L 808.582436 295.9515 
L 803.801864 300.456 
L 801.823542 301.9575 
L 800.550692 303.459 
L 798.838764 304.9605 
L 797.881692 306.462 
L 795.691149 307.9635 
L 793.722672 309.465 
L 790.456706 312.468 
L 789.139474 313.9695 
L 787.407804 315.471 
L 785.094015 318.474 
L 782.760429 319.9755 
L 775.902822 321.477 
L 771.773495 324.48 
L 770.337807 325.9815 
L 768.132523 327.483 
L 766.997819 328.9845 
L 763.805875 331.9875 
L 762.5922 333.489 
L 760.396761 334.9905 
L 759.849179 336.492 
L 758.048435 337.9935 
L 756.997598 339.495 
L 753.391162 342.498 
L 751.995013 343.9995 
L 750.011742 345.501 
L 747.855789 348.504 
L 746.503967 350.0055 
L 744.461521 351.507 
L 737.973918 353.0085 
L 709.941678 354.51 
L 707.992944 356.0115 
L 705.718587 357.513 
L 703.656398 359.0145 
L 700.133883 362.0175 
L 698.155508 363.519 
L 696.517603 365.0205 
L 694.080461 366.522 
L 692.176108 368.0235 
L 690.508562 369.525 
L 687.977655 371.0265 
L 685.841444 372.528 
L 683.478271 374.0295 
L 681.800934 375.531 
L 679.353894 377.0325 
L 677.306499 378.534 
L 674.213163 380.0355 
L 672.363089 381.537 
L 669.856874 383.0385 
L 667.947625 384.54 
L 665.559761 386.0415 
L 658.499883 392.0475 
L 657.054403 393.549 
L 656.506767 395.0505 
L 654.340969 398.0535 
L 652.762239 401.0565 
L 651.691659 402.558 
L 651.02067 404.0595 
L 648.795644 407.0625 
L 646.930829 410.0655 
L 646.254945 411.567 
L 645.164569 413.0685 
L 645.021527 414.57 
L 643.931205 416.0715 
L 641.262205 422.0775 
L 640.413638 423.579 
L 640.30508 425.0805 
L 639.283883 426.582 
L 638.879289 428.0835 
L 638.075157 429.585 
L 637.759379 431.0865 
L 636.777615 434.0895 
L 635.54425 437.0925 
L 634.932491 438.594 
L 634.286194 441.597 
L 634.005006 443.0985 
L 633.496856 444.6 
L 632.766692 446.1015 
L 632.312768 447.603 
L 630.176557 449.1045 
L 629.698048 450.606 
L 626.165634 452.1075 
L 626.293882 453.609 
L 625.795577 455.1105 
L 625.667329 456.612 
L 624.986496 458.1135 
L 624.858247 459.615 
L 624.142878 461.1165 
L 624.059011 462.618 
L 622.978586 465.621 
L 622.55425 467.1225 
L 622.263217 468.624 
L 621.26171 471.627 
L 621.483723 473.1285 
L 621.148255 474.63 
L 619.520195 477.633 
L 618.839335 479.1345 
L 617.872392 480.636 
L 616.45155 482.1375 
L 615.573369 483.639 
L 615.750948 486.642 
L 616.195001 488.1435 
L 616.777146 491.1465 
L 617.388906 492.648 
L 617.54182 494.1495 
L 617.482645 497.1525 
L 617.650378 500.1555 
L 618.183167 501.657 
L 618.316391 506.1615 
L 618.829464 507.663 
L 619.105756 509.1645 
L 621.967235 516.672 
L 623.052555 518.1735 
L 623.200546 519.675 
L 623.629778 521.1765 
L 623.684111 522.678 
L 624.029423 524.1795 
L 624.67572 525.681 
L 625.563719 531.687 
L 625.904136 533.1885 
L 626.412286 534.69 
L 626.703372 536.1915 
L 627.773952 537.693 
L 628.183442 539.1945 
L 628.814944 543.699 
L 629.372425 545.2005 
L 629.476035 546.702 
L 630.082845 548.2035 
L 630.34924 549.705 
L 630.808113 551.2065 
L 631.385283 552.708 
L 631.77503 554.2095 
L 631.735598 555.711 
L 631.878693 557.2125 
L 631.730649 558.714 
L 632.450914 561.717 
L 632.959064 563.2185 
L 633.521494 567.723 
L 633.235357 569.2245 
L 632.460812 575.2305 
L 632.574267 576.732 
L 633.615259 578.2335 
L 633.5067 579.735 
L 634.009955 581.2365 
L 634.523001 584.2395 
L 633.161388 585.741 
L 633.63 588.744 
L 633.225512 590.2455 
L 633.260049 591.747 
L 634.666043 593.2485 
L 635.381413 594.75 
L 633.664536 596.2515 
L 633.496856 597.753 
L 632.406533 599.2545 
L 632.495296 600.756 
L 632.455863 602.2575 
L 630.344344 603.759 
L 630.438056 605.2605 
L 626.964871 606.762 
L 627.246112 608.2635 
L 627.251008 609.765 
L 626.81688 611.2665 
L 627.305287 612.768 
L 626.505997 614.2695 
L 628.686643 615.771 
L 629.086288 617.2725 
L 627.759158 618.774 
L 629.135618 620.2755 
L 629.614128 621.777 
L 630.625532 623.2785 
L 630.625532 624.78 
L 630.625532 624.78 
" clip-path="url(#p6216e8e4af)" style="fill: none; stroke: #00fdd1; stroke-width: 4; stroke-linecap: square"/>
   </g>
   <g id="line2d_18">
    <path d="M 770.880547 84.24 
L 786.702758 85.7415 
L 786.702758 87.243 
L 784.911115 88.7445 
L 784.911115 94.7505 
L 785.638245 96.252 
L 785.638245 99.255 
L 785.958174 100.7565 
L 789.29715 102.258 
L 789.378569 105.261 
L 795.876177 106.7625 
L 795.934341 109.7655 
L 798.709026 111.267 
L 798.796299 112.7685 
L 800.913725 114.27 
L 802.72277 115.7715 
L 802.850752 117.273 
L 805.084452 118.7745 
L 806.625985 120.276 
L 806.765568 121.7775 
L 803.694263 123.279 
L 801.594292 124.7805 
L 801.210398 126.282 
L 793.59006 127.7835 
L 791.687942 129.285 
L 791.926452 130.7865 
L 787.744017 132.288 
L 787.720708 133.7895 
L 785.13797 135.291 
L 783.759382 136.7925 
L 784.102566 138.294 
L 783.311471 139.7955 
L 782.345831 141.297 
L 782.578487 142.7985 
L 781.868865 144.3 
L 781.65361 145.8015 
L 782.252758 147.303 
L 780.769442 148.8045 
L 781.833956 150.306 
L 781.833956 151.8075 
L 781.002098 153.309 
L 781.484918 154.8105 
L 781.484918 156.312 
L 782.328377 157.8135 
L 783.404491 159.315 
L 784.946024 160.8165 
L 784.946024 162.318 
L 785.335771 163.8195 
L 786.650448 165.321 
L 786.766723 166.8225 
L 787.232141 168.324 
L 787.394979 169.8255 
L 787.202979 171.327 
L 787.691653 174.33 
L 788.180327 175.8315 
L 788.430437 177.333 
L 790.140609 178.8345 
L 789.145913 180.336 
L 789.145913 181.8375 
L 790.937557 183.339 
L 789.849788 186.342 
L 789.849788 187.8435 
L 788.936512 189.345 
L 787.773125 190.8465 
L 787.540416 192.348 
L 786.731814 193.8495 
L 784.777332 195.351 
L 784.021147 196.8525 
L 783.084562 198.354 
L 781.927029 199.8555 
L 781.2173 201.357 
L 779.768893 202.8585 
L 774.818672 204.36 
L 772.398772 205.8615 
L 766.680658 207.363 
L 765.965128 208.8645 
L 765.12167 210.366 
L 760.904379 211.8675 
L 759.339591 214.8705 
L 756.70449 216.372 
L 755.442229 219.375 
L 751.870596 220.8765 
L 750.532664 223.8795 
L 747.275106 225.381 
L 746.687666 226.8825 
L 745.803445 228.384 
L 742.656468 229.8855 
L 742.656468 231.387 
L 739.84102 232.8885 
L 739.340746 234.39 
L 739.340746 235.8915 
L 735.949459 237.393 
L 735.62953 238.8945 
L 735.62953 240.396 
L 732.174225 241.8975 
L 731.784478 243.399 
L 731.057348 244.9005 
L 728.724774 246.402 
L 727.759134 249.405 
L 724.920431 250.9065 
L 724.920431 252.408 
L 722.53544 253.9095 
L 721.796709 255.411 
L 721.796709 256.9125 
L 717.329255 258.414 
L 715.159465 259.9155 
L 715.159465 261.417 
L 710.244153 262.9185 
L 708.6154 264.42 
L 708.6154 265.9215 
L 705.677771 267.423 
L 704.124691 268.9245 
L 704.124691 270.426 
L 700.413368 271.9275 
L 699.80842 273.429 
L 699.80842 274.9305 
L 695.666747 276.432 
L 695.666747 277.9335 
L 693.415539 279.435 
L 691.548277 280.9365 
L 691.548277 282.438 
L 687.982498 283.9395 
L 686.766694 285.441 
L 686.766694 286.9425 
L 683.072932 288.444 
L 682.491239 289.9455 
L 682.491239 291.447 
L 679.134808 292.9485 
L 678.663642 294.45 
L 678.663642 295.9515 
L 675.446847 297.453 
L 674.946572 298.9545 
L 674.946572 300.456 
L 671.671613 301.9575 
L 671.270265 303.459 
L 669.275021 304.9605 
L 667.768397 306.462 
L 666.84352 307.9635 
L 664.871531 309.465 
L 664.278236 310.9665 
L 663.318397 312.468 
L 661.42788 313.9695 
L 661.014878 315.471 
L 660.119056 316.9725 
L 657.129117 318.474 
L 656.710315 319.9755 
L 656.128621 321.477 
L 653.086318 322.9785 
L 652.190496 324.48 
L 650.230161 325.9815 
L 649.561195 327.483 
L 649.107484 328.9845 
L 646.821419 330.486 
L 646.5364 331.9875 
L 646.041926 333.489 
L 643.854735 334.9905 
L 643.563861 336.492 
L 643.022878 337.9935 
L 641.388325 339.495 
L 641.208032 340.9965 
L 640.777523 342.498 
L 639.282553 343.9995 
L 639.119715 345.501 
L 638.70666 347.0025 
L 637.368781 348.504 
L 637.21169 350.0055 
L 635.734228 351.507 
L 635.734228 353.0085 
L 635.478264 354.51 
L 633.52953 356.0115 
L 633.52953 357.513 
L 633.366692 359.0145 
L 632.127633 360.516 
L 632.057815 363.519 
L 630.7839 365.0205 
L 630.702481 366.522 
L 630.44077 368.0235 
L 628.829419 369.525 
L 628.544399 371.0265 
L 626.572463 372.528 
L 626.572463 374.0295 
L 625.880242 375.531 
L 622.355066 377.0325 
L 622.355066 378.534 
L 621.418588 380.0355 
L 617.160507 381.537 
L 617.160507 383.0385 
L 616.491568 384.54 
L 612.262623 386.0415 
L 612.262623 387.543 
L 611.186456 389.0445 
L 607.504295 390.546 
L 607.504295 392.0475 
L 605.328732 393.549 
L 602.484229 395.0505 
L 602.484229 396.552 
L 597.853883 398.0535 
L 596.905751 399.555 
L 596.905751 401.0565 
L 593.258499 402.558 
L 592.548797 405.561 
L 591.699485 407.0625 
L 591.600612 408.564 
L 591.170182 410.0655 
L 590.576861 411.567 
L 589.872986 414.57 
L 589.15751 416.0715 
L 588.715399 419.0745 
L 588.854982 420.576 
L 588.854982 422.0775 
L 587.976615 423.579 
L 587.959187 426.582 
L 587.360013 428.0835 
L 587.284394 429.585 
L 587.517103 434.0895 
L 587.476394 435.591 
L 587.94756 438.594 
L 587.982469 441.597 
L 588.569963 444.6 
L 588.569963 446.1015 
L 588.738681 447.603 
L 589.093519 449.1045 
L 589.046982 452.1075 
L 589.617022 453.609 
L 589.617022 455.1105 
L 589.762458 456.612 
L 590.65248 458.1135 
L 590.65248 459.615 
L 591.635521 462.618 
L 591.635521 464.1195 
L 592.217214 465.621 
L 593.095581 467.1225 
L 593.683129 468.624 
L 594.549842 470.1255 
L 594.735988 471.627 
L 596.21933 473.1285 
L 597.219852 474.63 
L 597.248908 476.1315 
L 598.022601 477.633 
L 599.360507 479.1345 
L 599.628098 480.636 
L 600.262129 482.1375 
L 602.146872 483.639 
L 602.146872 485.1405 
L 602.745994 486.642 
L 604.287526 488.1435 
L 604.793601 489.645 
L 607.184366 491.1465 
L 607.905696 494.1495 
L 610.226643 495.651 
L 611.081728 498.654 
L 613.850639 500.1555 
L 614.281096 501.657 
L 614.595251 503.1585 
L 617.096543 504.66 
L 617.771336 506.1615 
L 618.126121 507.663 
L 622.529611 509.1645 
L 623.803579 510.666 
L 623.803579 512.1675 
L 625.333404 513.669 
L 626.549155 515.1705 
L 629.184257 516.672 
L 629.184257 518.1735 
L 630.184805 519.675 
L 632.040413 521.1765 
L 633.145636 524.1795 
L 636.851052 527.1825 
L 636.851052 528.684 
L 642.732057 531.687 
L 642.732057 533.1885 
L 644.500393 534.69 
L 644.802867 536.1915 
L 644.802867 537.693 
L 645.687088 539.1945 
L 645.669633 540.696 
L 646.018671 542.1975 
L 646.210617 543.699 
L 645.535851 545.2005 
L 644.616721 546.702 
L 644.965811 548.2035 
L 645.105394 549.705 
L 644.680738 551.2065 
L 644.768011 554.2095 
L 644.477138 555.711 
L 644.36661 557.2125 
L 644.552756 558.714 
L 645.122796 560.2155 
L 645.419469 563.2185 
L 645.314795 564.72 
L 645.349705 566.2215 
L 645.995362 567.723 
L 645.297341 569.2245 
L 647.059876 573.729 
L 647.007565 576.732 
L 647.26353 578.2335 
L 647.403113 579.735 
L 649.037666 581.2365 
L 650.06727 584.2395 
L 653.318974 585.741 
L 654.494015 587.2425 
L 656.099512 588.744 
L 655.767983 590.2455 
L 655.261908 591.747 
L 655.395637 593.2485 
L 654.726671 594.75 
L 654.66856 596.2515 
L 655.465455 597.753 
L 652.760536 599.2545 
L 653.557484 600.756 
L 653.761085 602.2575 
L 653.481865 603.759 
L 654.296215 605.2605 
L 654.02865 606.762 
L 654.02865 608.2635 
L 656.611441 609.765 
L 655.052454 611.2665 
L 655.052454 612.768 
L 656.076204 614.2695 
L 656.076204 617.2725 
L 658.449541 618.774 
L 658.449541 621.777 
L 658.821887 623.2785 
L 658.821887 624.78 
L 658.821887 624.78 
" clip-path="url(#p6216e8e4af)" style="fill: none; stroke: #00fe2a; stroke-width: 4; stroke-linecap: square"/>
   </g>
   <g id="line2d_19">
    <path d="M 1039.498881 109.7655 
L 1039.498881 112.7685 
L 1032.569114 114.27 
L 1032.569114 115.7715 
L 1016.299364 117.273 
L 1008.719522 118.7745 
L 1013.365726 120.276 
L 1016.98919 121.7775 
L 1016.537182 124.7805 
L 1016.545164 126.282 
L 1016.045635 130.7865 
L 1015.133849 132.288 
L 1014.285495 135.291 
L 1014.222009 136.7925 
L 1013.809699 138.294 
L 1010.669959 139.7955 
L 1010.305277 141.297 
L 1009.639237 142.7985 
L 1009.663025 144.3 
L 1009.266573 145.8015 
L 1008.568817 147.303 
L 1008.045501 150.306 
L 1008.053483 151.8075 
L 1008.196206 153.309 
L 1008.013784 154.8105 
L 1008.140702 156.312 
L 1008.132773 157.8135 
L 1007.442947 160.8165 
L 1006.951346 162.318 
L 1007.228863 163.8195 
L 1006.792766 165.321 
L 1007.030637 166.8225 
L 1006.69767 169.8255 
L 1006.372527 171.327 
L 1006.261573 172.8285 
L 1005.936483 174.33 
L 1005.793813 175.8315 
L 1005.191206 178.8345 
L 1004.691677 181.8375 
L 1003.890844 183.339 
L 1003.827465 184.8405 
L 1003.565806 186.342 
L 1002.32893 187.8435 
L 1002.344788 189.345 
L 1001.440877 190.8465 
L 1000.751051 192.348 
L 1000.513233 193.8495 
L 999.458724 195.351 
L 998.586583 196.8525 
L 997.968118 198.354 
L 997.119711 199.8555 
L 996.088989 201.357 
L 995.35957 202.8585 
L 994.820396 204.36 
L 993.631093 205.8615 
L 993.417009 207.363 
L 992.330784 208.8645 
L 990.118688 210.366 
L 989.444667 211.8675 
L 988.255417 213.369 
L 986.534869 214.8705 
L 986.193921 216.372 
L 984.513017 217.8735 
L 983.60916 219.375 
L 981.682457 220.8765 
L 980.19978 222.378 
L 979.097697 223.8795 
L 976.933122 225.381 
L 975.886596 226.8825 
L 972.318581 229.8855 
L 970.130273 231.387 
L 968.917183 232.8885 
L 967.038107 234.39 
L 965.809159 235.8915 
L 963.929977 237.393 
L 959.577148 240.396 
L 958.958683 241.8975 
L 957.031979 243.399 
L 956.033027 244.9005 
L 953.234129 246.402 
L 951.973465 247.9035 
L 949.4838 249.405 
L 947.89017 250.9065 
L 944.97239 252.408 
L 944.060604 253.9095 
L 940.254771 255.411 
L 938.803811 256.9125 
L 936.036682 258.414 
L 932.849315 259.9155 
L 931.977174 261.417 
L 929.249691 262.9185 
L 926.022679 264.42 
L 923.604428 265.9215 
L 922.367551 267.423 
L 910.062162 268.9245 
L 908.611201 270.426 
L 905.074956 271.9275 
L 899.873719 273.429 
L 896.147177 274.9305 
L 889.352257 276.432 
L 884.365104 277.9335 
L 881.661408 279.435 
L 877.776286 280.9365 
L 866.200314 282.438 
L 864.329114 283.9395 
L 860.126883 285.441 
L 849.446894 286.9425 
L 844.079147 288.444 
L 840.701483 289.9455 
L 832.376311 291.447 
L 816.082775 292.9485 
L 812.530672 294.45 
L 807.749621 295.9515 
L 801.192571 297.453 
L 792.859471 298.9545 
L 787.721613 300.456 
L 781.227996 301.9575 
L 772.83141 303.459 
L 763.110781 304.9605 
L 758.417002 306.462 
L 754.516075 307.9635 
L 745.461378 309.465 
L 741.655653 310.9665 
L 737.223479 312.468 
L 733.925106 313.9695 
L 728.597004 315.471 
L 724.236139 316.9725 
L 718.662238 318.474 
L 716.029956 319.9755 
L 710.804879 321.477 
L 706.190338 322.9785 
L 703.439068 324.48 
L 698.364696 325.9815 
L 694.582651 327.483 
L 691.538006 328.9845 
L 684.124674 331.9875 
L 680.675649 333.489 
L 678.035385 334.9905 
L 673.952036 336.492 
L 671.359347 337.9935 
L 665.238395 339.495 
L 663.930157 340.9965 
L 658.89543 342.498 
L 655.248178 343.9995 
L 652.473121 345.501 
L 650.03103 347.0025 
L 645.797083 348.504 
L 642.712847 350.0055 
L 638.050731 351.507 
L 635.125023 353.0085 
L 630.11403 354.51 
L 626.902928 356.0115 
L 624.135747 357.513 
L 617.578724 359.0145 
L 614.970177 360.516 
L 611.005791 362.0175 
L 608.206946 363.519 
L 603.536902 365.0205 
L 601.126554 366.522 
L 597.598291 368.0235 
L 593.626002 369.525 
L 585.221514 374.0295 
L 579.703115 375.531 
L 577.927064 377.0325 
L 575.255084 378.534 
L 570.410627 380.0355 
L 566.446241 381.537 
L 563.425384 383.0385 
L 560.079462 384.54 
L 556.234038 386.0415 
L 553.688896 387.543 
L 548.670027 389.0445 
L 545.887014 390.546 
L 538.061346 393.549 
L 536.309108 395.0505 
L 532.661883 396.552 
L 527.991839 398.0535 
L 527.032452 399.555 
L 520.475402 402.558 
L 517.288062 404.0595 
L 515.559558 405.561 
L 514.061049 407.0625 
L 508.923218 408.564 
L 507.733889 410.0655 
L 505.973722 411.567 
L 504.0074 413.0685 
L 501.129266 414.57 
L 498.988505 416.0715 
L 497.371034 417.573 
L 494.120261 419.0745 
L 491.789204 420.576 
L 485.46207 423.579 
L 481.323245 425.0805 
L 477.731523 426.582 
L 476.12991 428.0835 
L 473.537221 429.585 
L 471.340957 431.0865 
L 468.914777 432.588 
L 465.822559 434.0895 
L 464.363669 435.591 
L 460.890883 437.0925 
L 458.591568 438.594 
L 457.211968 440.0955 
L 456.641104 441.597 
L 452.454704 443.0985 
L 452.002776 444.6 
L 450.932409 446.1015 
L 447.42788 447.603 
L 445.493274 449.1045 
L 445.231616 450.606 
L 442.662714 452.1075 
L 442.131495 453.609 
L 441.140392 455.1105 
L 441.124533 456.612 
L 440.728108 458.1135 
L 439.53085 461.1165 
L 439.213715 462.618 
L 439.245404 464.1195 
L 438.206754 465.621 
L 437.580386 467.1225 
L 434.155174 471.627 
L 432.40291 473.1285 
L 431.491097 474.63 
L 430.032234 476.1315 
L 429.659569 477.633 
L 427.66946 479.1345 
L 426.226428 480.636 
L 425.845861 482.1375 
L 424.220461 483.639 
L 423.04699 485.1405 
L 422.777402 486.642 
L 421.278894 488.1435 
L 420.819036 489.645 
L 419.764501 491.1465 
L 419.098488 492.648 
L 418.178746 494.1495 
L 416.640592 495.651 
L 415.142031 498.654 
L 413.857579 500.1555 
L 410.757432 504.66 
L 410.067658 506.1615 
L 407.855536 509.1645 
L 406.515555 510.666 
L 406.095343 512.1675 
L 404.263815 513.669 
L 403.01108 515.1705 
L 402.146841 516.672 
L 399.141842 519.675 
L 398.023901 522.678 
L 395.050604 525.681 
L 393.068411 528.684 
L 390.523296 530.1855 
L 389.833496 531.687 
L 388.588677 533.1885 
L 385.417181 536.1915 
L 384.394375 537.693 
L 382.055388 540.696 
L 380.112853 542.1975 
L 379.280344 543.699 
L 377.520151 545.2005 
L 376.005757 546.702 
L 375.125674 548.2035 
L 372.580546 549.705 
L 371.77181 551.2065 
L 370.162282 552.708 
L 367.696444 554.2095 
L 365.555683 555.711 
L 364.239503 557.2125 
L 361.377239 558.714 
L 359.823201 560.2155 
L 354.043144 564.72 
L 352.386028 566.2215 
L 349.674403 567.723 
L 348.4613 569.2245 
L 345.051947 572.2275 
L 342.324464 573.729 
L 341.135148 575.2305 
L 339.145039 576.732 
L 336.782278 578.2335 
L 335.180666 579.735 
L 334.054782 581.2365 
L 330.970505 582.738 
L 329.345106 584.2395 
L 327.93379 585.741 
L 323.525404 588.744 
L 322.51054 590.2455 
L 320.060547 591.747 
L 318.768167 593.2485 
L 316.81769 594.75 
L 315.802813 596.2515 
L 314.597652 597.753 
L 312.68682 599.2545 
L 310.324046 602.2575 
L 308.833453 603.759 
L 308.809666 605.2605 
L 306.193177 606.762 
L 306.113886 608.2635 
L 304.710499 609.765 
L 303.877977 611.2665 
L 304.377493 612.768 
L 304.131706 614.2695 
L 306.121815 615.771 
L 307.358705 617.2725 
L 304.115848 620.2755 
L 302.982035 621.777 
L 302.982035 624.78 
L 302.982035 624.78 
" clip-path="url(#p6216e8e4af)" style="fill: none; stroke: #6cdb00; stroke-width: 4; stroke-linecap: square"/>
   </g>
   <g id="line2d_20">
    <path d="M 1042.335348 139.7955 
L 1042.335348 144.3 
L 1035.00418 145.8015 
L 1035.382911 147.303 
L 1035.382911 148.8045 
L 1032.731366 150.306 
L 1032.826089 151.8075 
L 1032.171118 153.309 
L 1034.349156 154.8105 
L 1033.978247 156.312 
L 1034.009857 157.8135 
L 1026.954822 159.315 
L 1026.710192 160.8165 
L 1028.840869 162.318 
L 1028.746199 166.8225 
L 1029.046066 168.324 
L 1028.943467 169.8255 
L 1028.71459 171.327 
L 1028.777756 172.8285 
L 1029.322305 174.33 
L 1029.464336 175.8315 
L 1024.208554 177.333 
L 1024.350585 178.8345 
L 1024.137512 180.336 
L 1021.738472 181.8375 
L 1021.738472 183.339 
L 1019.883982 184.8405 
L 1019.702465 186.342 
L 1017.508676 187.8435 
L 1017.603345 190.8465 
L 1013.555012 192.348 
L 1012.844751 193.8495 
L 1011.89779 195.351 
L 1010.485197 196.8525 
L 1008.346591 199.8555 
L 1008.188755 201.357 
L 1004.921672 202.8585 
L 1004.424537 204.36 
L 1003.390676 205.8615 
L 1002.727829 207.363 
L 1000.810173 208.8645 
L 1000.013118 210.366 
L 999.871087 211.8675 
L 988.262655 213.369 
L 986.100368 214.8705 
L 984.26163 216.372 
L 979.51884 217.8735 
L 978.319374 220.8765 
L 978.02733 222.378 
L 962.473163 223.8795 
L 962.64675 225.381 
L 961.257891 226.8825 
L 953.997712 228.384 
L 953.145367 229.8855 
L 953.311078 231.387 
L 949.294302 232.8885 
L 947.297727 235.8915 
L 946.500726 237.393 
L 943.351992 238.8945 
L 941.986761 240.396 
L 941.142345 241.8975 
L 938.404006 243.399 
L 936.77834 244.9005 
L 934.276755 246.402 
L 931.309538 247.9035 
L 928.626437 250.9065 
L 926.069561 252.408 
L 923.954636 253.9095 
L 920.127252 255.411 
L 918.777825 256.9125 
L 917.17584 258.414 
L 915.076667 259.9155 
L 913.853466 261.417 
L 909.434224 262.9185 
L 907.050989 264.42 
L 906.782679 265.9215 
L 905.567408 267.423 
L 902.27659 268.9245 
L 900.666729 270.426 
L 896.539532 271.9275 
L 891.615173 273.429 
L 884.031446 274.9305 
L 883.834125 276.432 
L 880.117215 277.9335 
L 874.885166 279.435 
L 873.859234 280.9365 
L 866.109796 282.438 
L 864.578799 283.9395 
L 858.005147 285.441 
L 857.563249 286.9425 
L 854.201443 288.444 
L 850.413544 289.9455 
L 848.9852 291.447 
L 842.277393 292.9485 
L 840.943718 294.45 
L 837.431952 295.9515 
L 831.055621 297.453 
L 826.849398 300.456 
L 825.279023 301.9575 
L 814.514953 303.459 
L 812.834104 304.9605 
L 808.833079 306.462 
L 800.302337 307.9635 
L 798.408361 309.465 
L 796.033055 310.9665 
L 787.257685 312.468 
L 783.01203 315.471 
L 779.445027 316.9725 
L 772.658355 318.474 
L 770.859048 319.9755 
L 768.420629 321.477 
L 760.931519 322.9785 
L 758.832399 324.48 
L 757.112064 325.9815 
L 747.650166 327.483 
L 747.263452 328.9845 
L 745.132722 330.486 
L 743.199314 331.9875 
L 736.586176 333.489 
L 734.463376 334.9905 
L 732.601009 336.492 
L 723.865071 337.9935 
L 723.202225 339.495 
L 721.687033 340.9965 
L 715.839393 342.498 
L 714.087502 343.9995 
L 711.751575 345.501 
L 708.523924 347.0025 
L 702.171273 348.504 
L 701.571487 350.0055 
L 699.914318 351.507 
L 695.179404 353.0085 
L 693.190705 354.51 
L 691.525607 356.0115 
L 686.67229 357.513 
L 683.23162 359.0145 
L 682.844959 360.516 
L 678.062631 362.0175 
L 675.28486 363.519 
L 673.03578 365.0205 
L 670.202719 366.522 
L 666.722562 368.0235 
L 662.492713 369.525 
L 661.916607 371.0265 
L 654.577509 374.0295 
L 653.030762 375.531 
L 645.336507 377.0325 
L 643.852925 378.534 
L 640.641079 380.0355 
L 640.175448 381.537 
L 635.566814 383.0385 
L 633.207259 384.54 
L 631.64476 386.0415 
L 626.112738 387.543 
L 624.021494 389.0445 
L 620.265152 390.546 
L 617.04543 392.0475 
L 612.933931 393.549 
L 612.200016 395.0505 
L 609.824656 396.552 
L 604.655721 398.0535 
L 602.098872 399.555 
L 597.798007 401.0565 
L 593.994277 402.558 
L 590.885029 404.0595 
L 590.561455 405.561 
L 584.97425 407.0625 
L 580.768081 410.0655 
L 578.053396 411.567 
L 574.636353 413.0685 
L 571.945349 414.57 
L 571.290378 416.0715 
L 565.624228 417.573 
L 563.138395 419.0745 
L 561.44174 420.576 
L 554.228869 422.0775 
L 553.779069 423.579 
L 551.135426 425.0805 
L 550.598779 426.582 
L 546.021702 428.0835 
L 544.474954 429.585 
L 542.754618 431.0865 
L 537.546198 432.588 
L 537.333125 434.0895 
L 534.626342 435.591 
L 532.361484 437.0925 
L 531.643321 438.594 
L 530.12028 440.0955 
L 523.964898 443.0985 
L 523.262539 444.6 
L 519.490392 446.1015 
L 516.728346 447.603 
L 514.353014 449.1045 
L 511.480493 450.606 
L 507.392701 452.1075 
L 505.317235 453.609 
L 504.962078 455.1105 
L 498.435814 456.612 
L 498.341117 458.1135 
L 497.315238 459.615 
L 495.807923 461.1165 
L 491.909523 462.618 
L 489.952434 464.1195 
L 489.912975 465.621 
L 484.554621 467.1225 
L 484.302089 468.624 
L 482.52649 470.1255 
L 478.95954 471.627 
L 477.736339 473.1285 
L 474.145708 474.63 
L 473.609088 476.1315 
L 467.998202 477.633 
L 467.56418 479.1345 
L 466.372563 480.636 
L 460.461783 482.1375 
L 458.99398 483.639 
L 455.81369 485.1405 
L 452.104683 486.642 
L 449.674086 488.1435 
L 448.948074 489.645 
L 447.716971 491.1465 
L 442.682191 492.648 
L 441.301181 494.1495 
L 436.921371 495.651 
L 431.641962 497.1525 
L 429.724305 498.654 
L 429.329742 500.1555 
L 423.537366 501.657 
L 421.43822 503.1585 
L 420.301839 504.66 
L 409.308945 509.1645 
L 408.267261 510.666 
L 404.447779 512.1675 
L 401.819888 513.669 
L 401.188572 515.1705 
L 391.560909 516.672 
L 390.866453 518.1735 
L 386.297278 519.675 
L 381.073092 521.1765 
L 377.095761 522.678 
L 376.298706 524.1795 
L 375.004503 525.681 
L 366.907797 527.1825 
L 366.426414 528.684 
L 362.725296 530.1855 
L 356.767195 531.687 
L 353.223899 533.1885 
L 351.235227 534.69 
L 345.458629 536.1915 
L 340.968358 537.693 
L 339.966147 539.1945 
L 336.675369 540.696 
L 330.772506 542.1975 
L 327.536992 543.699 
L 326.376931 545.2005 
L 320.521416 546.702 
L 316.993911 548.2035 
L 316.094285 549.705 
L 308.186971 551.2065 
L 306.84542 552.708 
L 303.530975 554.2095 
L 302.781282 555.711 
L 298.022688 557.2125 
L 295.450047 558.714 
L 294.802939 560.2155 
L 289.578753 561.717 
L 289.633991 563.2185 
L 282.989343 566.2215 
L 282.681574 567.723 
L 279.911645 569.2245 
L 279.895867 570.726 
L 278.798939 572.2275 
L 277.441596 573.729 
L 276.652444 575.2305 
L 279.051471 576.732 
L 279.406581 578.2335 
L 279.32767 579.735 
L 281.300551 581.2365 
L 280.629775 582.738 
L 281.971333 584.2395 
L 282.421153 585.741 
L 285.427822 587.2425 
L 286.390588 588.744 
L 288.92377 590.2455 
L 287.440161 591.747 
L 288.813282 593.2485 
L 288.907978 594.75 
L 277.04702 596.2515 
L 274.916311 597.753 
L 273.487946 599.2545 
L 270.54441 600.756 
L 269.194957 602.2575 
L 267.269424 603.759 
L 263.860283 605.2605 
L 258.233632 606.762 
L 257.925857 608.2635 
L 255.447926 609.765 
L 247.627425 611.2665 
L 245.851833 612.768 
L 243.145044 614.2695 
L 242.947749 615.771 
L 245.141592 617.2725 
L 243.736901 618.774 
L 241.140593 620.2755 
L 244.234069 621.777 
L 245.615079 623.2785 
L 245.007437 624.78 
L 245.007437 624.78 
" clip-path="url(#p6216e8e4af)" style="fill: none; stroke: #adff30; stroke-width: 4; stroke-linecap: square"/>
   </g>
   <g id="line2d_21">
    <path d="M 810.927995 86.49225 
L 811.662096 87.99375 
L 814.047992 89.49525 
L 818.085629 90.99675 
L 820.104394 92.49825 
L 823.591468 93.99975 
L 825.426748 95.50125 
L 825.977364 97.00275 
L 825.426748 98.50425 
L 824.325623 100.00575 
L 824.692647 101.50725 
L 823.958492 103.00875 
L 822.123265 104.51025 
L 820.471524 106.01175 
L 819.186754 107.51325 
L 817.351527 109.01475 
L 814.415069 112.01775 
L 814.415069 113.51925 
L 813.497429 115.02075 
L 812.029226 116.52225 
L 810.193893 118.02375 
L 807.991589 119.52525 
L 806.339795 121.02675 
L 805.23867 122.52825 
L 803.219798 124.02975 
L 801.751595 125.53125 
L 801.384571 127.03275 
L 800.466931 128.53425 
L 801.201033 130.03575 
L 802.669235 131.53725 
L 805.23867 133.03875 
L 813.31389 136.04175 
L 816.800965 137.54325 
L 821.756188 140.54625 
L 825.059724 142.04775 
L 827.629052 143.54925 
L 829.464385 145.05075 
L 833.134945 146.55225 
L 837.172581 148.05375 
L 842.311344 149.55525 
L 854.791279 152.55825 
L 861.581782 154.05975 
L 869.657109 155.56125 
L 878.466484 157.06275 
L 893.882825 160.06575 
L 899.93928 161.56725 
L 905.078042 163.06875 
L 917.1909 166.07175 
L 922.329715 167.57325 
L 928.202632 169.07475 
L 942.334308 173.57925 
L 945.270767 175.08075 
L 949.124865 176.58225 
L 955.181267 179.58525 
L 957.383624 181.08675 
L 959.218904 182.58825 
L 959.585928 184.08975 
L 960.68716 185.59125 
L 961.237723 187.09275 
L 962.338901 188.59425 
L 963.623565 190.09575 
L 964.541258 191.59725 
L 965.825922 193.09875 
L 966.376485 194.60025 
L 966.743562 196.10175 
L 967.661202 197.60325 
L 968.762381 199.10475 
L 969.680021 200.60625 
L 970.964738 202.10775 
L 977.388217 206.61225 
L 980.324622 208.11375 
L 982.710518 209.61525 
L 985.463491 211.11675 
L 992.804557 215.62125 
L 996.475117 218.62425 
L 997.576349 220.12575 
L 999.22809 221.62725 
L 1000.329215 223.12875 
L 1001.797524 226.13175 
L 1003.449212 230.63625 
L 1003.81629 232.13775 
L 1004.366852 233.63925 
L 1005.100953 236.64225 
L 1005.100953 238.14375 
L 1005.835108 239.64525 
L 1006.018647 241.14675 
L 1006.385724 242.64825 
L 1006.569209 244.14975 
L 1007.670388 247.15275 
L 1008.037412 250.15575 
L 1008.955052 251.65725 
L 1009.322182 253.15875 
L 1008.588028 256.16175 
L 1008.404489 257.66325 
L 1007.853926 259.16475 
L 1007.119825 260.66625 
L 1006.018647 263.66925 
L 1006.385724 265.17075 
L 1006.202185 266.67225 
L 1004.733929 268.17375 
L 1003.81629 269.67525 
L 1003.265727 271.17675 
L 1001.98101 272.67825 
L 1001.246855 274.17975 
L 999.962191 275.68125 
L 998.861013 277.18275 
L 998.677527 278.68425 
L 998.31045 280.18575 
L 997.759887 281.68725 
L 1000.14573 283.18875 
L 1002.164548 284.69025 
L 1005.284492 286.19175 
L 1004.917415 287.69325 
L 1008.771513 289.19475 
L 1012.258587 290.69625 
L 1016.112686 292.19775 
L 1018.131504 293.69925 
L 1021.618525 295.20075 
L 1027.858519 296.70225 
L 1031.896103 298.20375 
L 1035.566716 299.70525 
L 1037.218457 301.20675 
L 1039.971377 302.70825 
L 1044.559577 304.20975 
L 1047.496035 305.71125 
L 1047.129011 307.21275 
L 1047.129011 308.71425 
L 1047.863112 310.21575 
L 1048.964238 311.71725 
L 1048.780752 313.21875 
L 1045.660755 314.72025 
L 1043.091374 316.22175 
L 1042.540811 317.72325 
L 1039.787838 319.22475 
L 1037.401943 320.72625 
L 1035.566716 322.22775 
L 1032.446719 323.72925 
L 1029.877285 325.23075 
L 1023.453805 328.23375 
L 1020.700885 329.73525 
L 1012.992689 332.73825 
L 1008.037412 335.74125 
L 1004.733929 337.24275 
L 1003.265727 338.74425 
L 1002.164548 340.24575 
L 1001.98101 341.74725 
L 1002.164548 343.24875 
L 1001.246855 344.75025 
L 999.595114 346.25175 
L 999.778653 347.75325 
L 999.595114 349.25475 
L 998.126911 352.25775 
L 997.943426 353.75925 
L 997.576349 355.26075 
L 996.475117 356.76225 
L 995.924554 358.26375 
L 996.108093 359.76525 
L 995.190453 361.26675 
L 995.741016 362.76825 
L 995.741016 364.26975 
L 994.272813 365.77125 
L 994.089328 367.27275 
L 993.538712 368.77425 
L 993.538712 370.27575 
L 992.988149 371.77725 
L 992.988149 373.27875 
L 992.804557 374.78025 
L 992.070456 376.28175 
L 992.253995 377.78325 
L 992.070456 379.28475 
L 992.070456 380.78625 
L 992.253995 382.28775 
L 991.519893 385.29075 
L 992.437533 386.79225 
L 992.253995 388.29375 
L 992.621019 389.79525 
L 993.171688 391.29675 
L 992.253995 392.79825 
L 991.152816 397.30275 
L 989.317589 400.30575 
L 988.583435 401.80725 
L 988.583435 403.30875 
L 985.279952 406.31175 
L 984.912822 407.81325 
L 983.628158 409.31475 
L 982.894057 410.81625 
L 981.058777 413.81925 
L 979.223497 415.32075 
L 978.489396 416.82225 
L 978.489396 418.32375 
L 977.204679 419.82525 
L 976.654116 421.32675 
L 975.919961 422.82825 
L 975.002321 424.32975 
L 973.901196 425.83125 
L 973.534119 427.33275 
L 971.331762 428.83425 
L 971.5153 430.33575 
L 970.414122 431.83725 
L 969.680021 433.33875 
L 968.578895 434.84025 
L 969.129458 436.34175 
L 967.477663 437.84325 
L 966.743562 439.34475 
L 966.376485 440.84625 
L 966.376485 442.34775 
L 966.560023 443.84925 
L 967.294125 445.35075 
L 966.927101 448.35375 
L 948.941326 449.85525 
L 784.499922 452.85825 
L 556.007156 455.86125 
L 431.207913 457.36275 
L 373.763529 458.86425 
L 368.991791 460.36575 
L 326.229685 461.86725 
L 268.785321 463.36875 
L 198.493966 464.87025 
L 188.21638 466.37175 
L 188.21638 475.38075 
L 187.11521 476.88225 
L 176.654095 478.38375 
L 176.654095 478.38375 
" clip-path="url(#p6216e8e4af)" style="fill: none; stroke: #fff500; stroke-width: 4; stroke-linecap: square"/>
   </g>
   <g id="line2d_22">
    <path d="M 743.206072 86.49225 
L 743.206072 90.99675 
L 744.490736 92.49825 
L 747.060171 93.99975 
L 747.060171 103.00875 
L 749.629552 104.51025 
L 750.914269 106.01175 
L 750.914269 112.01775 
L 749.629552 113.51925 
L 747.060171 115.02075 
L 747.060171 125.53125 
L 745.775454 127.03275 
L 745.775454 128.53425 
L 744.490736 130.03575 
L 747.060171 131.53725 
L 744.490736 134.54025 
L 740.636638 136.04175 
L 740.636638 140.54625 
L 738.06731 142.04775 
L 738.06731 143.54925 
L 740.636638 146.55225 
L 743.206072 148.05375 
L 750.914269 151.05675 
L 757.337749 152.55825 
L 761.191847 154.05975 
L 767.615326 155.56125 
L 772.754142 157.06275 
L 795.878732 161.56725 
L 801.017494 163.06875 
L 810.010355 164.57025 
L 825.426748 167.57325 
L 827.996129 169.07475 
L 836.989043 170.57625 
L 840.843088 172.07775 
L 845.981957 173.57925 
L 847.266621 175.08075 
L 852.405383 176.58225 
L 856.259481 178.08375 
L 865.252395 179.58525 
L 869.106493 181.08675 
L 874.245309 182.58825 
L 875.529973 184.08975 
L 881.953452 185.59125 
L 887.092268 187.09275 
L 888.376985 188.59425 
L 892.231083 190.09575 
L 892.231083 193.09875 
L 893.515747 194.60025 
L 892.231083 196.10175 
L 892.231083 197.60325 
L 893.515747 199.10475 
L 893.515747 200.60625 
L 888.376985 203.60925 
L 887.092268 205.11075 
L 884.522887 206.61225 
L 884.522887 208.11375 
L 888.376985 209.61525 
L 887.092268 211.11675 
L 879.384071 212.61825 
L 875.529973 214.11975 
L 875.529973 215.62125 
L 874.245309 217.12275 
L 875.529973 218.62425 
L 874.245309 220.12575 
L 870.391211 221.62725 
L 870.391211 224.63025 
L 872.960592 227.63325 
L 871.675875 229.13475 
L 872.960592 230.63625 
L 872.960592 232.13775 
L 871.675875 233.63925 
L 874.245309 235.14075 
L 874.245309 236.64225 
L 875.529973 238.14375 
L 878.099407 239.64525 
L 879.384071 241.14675 
L 879.384071 242.64825 
L 884.522887 245.65125 
L 889.661649 247.15275 
L 892.231083 248.65425 
L 890.946366 250.15575 
L 894.800464 251.65725 
L 894.800464 253.15875 
L 899.93928 254.66025 
L 903.793378 256.16175 
L 905.078042 257.66325 
L 907.647477 259.16475 
L 907.647477 262.16775 
L 908.932141 263.66925 
L 911.501575 265.17075 
L 914.070903 268.17375 
L 914.070903 269.67525 
L 916.640337 272.67825 
L 916.640337 275.68125 
L 917.925001 277.18275 
L 916.640337 278.68425 
L 919.209772 281.68725 
L 919.209772 283.18875 
L 916.640337 286.19175 
L 917.925001 287.69325 
L 915.355673 290.69625 
L 915.355673 295.20075 
L 912.786239 296.70225 
L 908.932141 301.20675 
L 908.932141 302.70825 
L 905.078042 304.20975 
L 905.078042 307.21275 
L 901.223944 311.71725 
L 897.369846 313.21875 
L 897.369846 316.22175 
L 894.800464 319.22475 
L 894.800464 322.22775 
L 893.515747 323.72925 
L 894.800464 325.23075 
L 894.800464 326.73225 
L 892.231083 329.73525 
L 892.231083 331.23675 
L 890.946366 332.73825 
L 890.946366 334.23975 
L 888.376985 337.24275 
L 889.661649 338.74425 
L 888.376985 340.24575 
L 888.376985 343.24875 
L 889.661649 344.75025 
L 887.092268 346.25175 
L 889.661649 347.75325 
L 888.376985 349.25475 
L 889.661649 350.75625 
L 888.376985 352.25775 
L 892.231083 353.75925 
L 892.231083 356.76225 
L 893.515747 358.26375 
L 890.946366 359.76525 
L 892.231083 361.26675 
L 898.654563 362.76825 
L 897.369846 364.26975 
L 893.515747 365.77125 
L 898.654563 367.27275 
L 901.223944 368.77425 
L 897.369846 370.27575 
L 896.085182 371.77725 
L 902.508608 373.27875 
L 898.654563 374.78025 
L 897.369846 376.28175 
L 899.93928 377.78325 
L 905.078042 379.28475 
L 899.93928 382.28775 
L 899.93928 383.78925 
L 907.647477 385.29075 
L 899.93928 386.79225 
L 901.223944 388.29375 
L 907.647477 389.79525 
L 910.216805 391.29675 
L 905.078042 392.79825 
L 910.216805 394.29975 
L 907.647477 395.80125 
L 907.647477 397.30275 
L 903.793378 398.80425 
L 903.793378 400.30575 
L 910.216805 401.80725 
L 914.070903 403.30875 
L 906.362706 404.81025 
L 562.063584 406.31175 
L 384.775221 407.81325 
L 237.034914 409.31475 
L 237.034914 412.31775 
L 193.355174 413.81925 
L 193.355174 416.82225 
L 192.070475 418.32375 
L 193.355174 419.82525 
L 192.070475 421.32675 
L 192.070475 436.34175 
L 190.785776 437.84325 
L 190.785776 440.84625 
L 192.070475 442.34775 
L 192.070475 445.35075 
L 190.785776 446.85225 
L 190.785776 449.85525 
L 188.21638 452.85825 
L 188.21638 457.36275 
L 180.50819 458.86425 
L 176.654095 460.36575 
L 176.654095 463.36875 
L 176.654095 463.36875 
" clip-path="url(#p6216e8e4af)" style="fill: none; stroke: #ffc40a; stroke-width: 4; stroke-linecap: square"/>
   </g>
   <g id="patch_3">
    <path d="M 172.8 624.78 
L 172.8 84.24 
" style="fill: none; stroke: #000000; stroke-width: 0.8; stroke-linejoin: miter; stroke-linecap: square"/>
   </g>
   <g id="patch_4">
    <path d="M 1244.16 624.78 
L 1244.16 84.24 
" style="fill: none; stroke: #000000; stroke-width: 0.8; stroke-linejoin: miter; stroke-linecap: square"/>
   </g>
   <g id="patch_5">
    <path d="M 172.8 624.78 
L 1244.16 624.78 
" style="fill: none; stroke: #000000; stroke-width: 0.8; stroke-linejoin: miter; stroke-linecap: square"/>
   </g>
   <g id="patch_6">
    <path d="M 172.8 84.24 
L 1244.16 84.24 
" style="fill: none; stroke: #000000; stroke-width: 0.8; stroke-linejoin: miter; stroke-linecap: square"/>
   </g>
   <g id="legend_1">
    <g id="line2d_23">
     <path d="M 1147.53375 103.17825 
L 1161.93375 103.17825 
L 1176.33375 103.17825 
" style="fill: none; stroke: #000080; stroke-width: 4; stroke-linecap: square"/>
    </g>
    <g id="text_16">
     <!-- Ta -->
     <g transform="translate(1187.85375 108.21825)scale(0.144 -0.144)">
      <defs>
       <path id="DejaVuSansMono-54" d="M 147 4666 
L 3706 4666 
L 3706 4134 
L 2247 4134 
L 2247 0 
L 1613 0 
L 1613 4134 
L 147 4134 
L 147 4666 
z
" transform="scale(0.015625)"/>
      </defs>
      <use xlink:href="#DejaVuSansMono-54"/>
      <use xlink:href="#DejaVuSansMono-61" x="60.205078"/>
     </g>
    </g>
    <g id="line2d_24">
     <path d="M 1147.53375 124.39125 
L 1161.93375 124.39125 
L 1176.33375 124.39125 
" style="fill: none; stroke: #003669; stroke-width: 4; stroke-linecap: square"/>
    </g>
    <g id="text_17">
     <!-- T8 -->
     <g transform="translate(1187.85375 129.43125)scale(0.144 -0.144)">
      <defs>
       <path id="DejaVuSansMono-38" d="M 1925 2216 
Q 1503 2216 1273 1980 
Q 1044 1744 1044 1313 
Q 1044 881 1276 642 
Q 1509 403 1925 403 
Q 2350 403 2579 639 
Q 2809 875 2809 1313 
Q 2809 1741 2576 1978 
Q 2344 2216 1925 2216 
z
M 1375 2478 
Q 972 2581 745 2862 
Q 519 3144 519 3541 
Q 519 4097 897 4423 
Q 1275 4750 1925 4750 
Q 2578 4750 2956 4423 
Q 3334 4097 3334 3541 
Q 3334 3144 3107 2862 
Q 2881 2581 2478 2478 
Q 2947 2375 3195 2062 
Q 3444 1750 3444 1253 
Q 3444 622 3041 265 
Q 2638 -91 1925 -91 
Q 1213 -91 811 264 
Q 409 619 409 1247 
Q 409 1747 657 2061 
Q 906 2375 1375 2478 
z
M 1147 3481 
Q 1147 3106 1347 2909 
Q 1547 2713 1925 2713 
Q 2306 2713 2506 2909 
Q 2706 3106 2706 3481 
Q 2706 3863 2507 4063 
Q 2309 4263 1925 4263 
Q 1547 4263 1347 4061 
Q 1147 3859 1147 3481 
z
" transform="scale(0.015625)"/>
      </defs>
      <use xlink:href="#DejaVuSansMono-54"/>
      <use xlink:href="#DejaVuSansMono-38" x="60.205078"/>
     </g>
    </g>
    <g id="line2d_25">
     <path d="M 1147.53375 145.60425 
L 1161.93375 145.60425 
L 1176.33375 145.60425 
" style="fill: none; stroke: #00a9ff; stroke-width: 4; stroke-linecap: square"/>
    </g>
    <g id="text_18">
     <!-- T31 -->
     <g transform="translate(1187.85375 150.64425)scale(0.144 -0.144)">
      <use xlink:href="#DejaVuSansMono-54"/>
      <use xlink:href="#DejaVuSansMono-33" x="60.205078"/>
      <use xlink:href="#DejaVuSansMono-31" x="120.410156"/>
     </g>
    </g>
    <g id="line2d_26">
     <path d="M 1147.53375 166.81725 
L 1161.93375 166.81725 
L 1176.33375 166.81725 
" style="fill: none; stroke: #00fdd1; stroke-width: 4; stroke-linecap: square"/>
    </g>
    <g id="text_19">
     <!-- T61 -->
     <g transform="translate(1187.85375 171.85725)scale(0.144 -0.144)">
      <use xlink:href="#DejaVuSansMono-54"/>
      <use xlink:href="#DejaVuSansMono-36" x="60.205078"/>
      <use xlink:href="#DejaVuSansMono-31" x="120.410156"/>
     </g>
    </g>
    <g id="line2d_27">
     <path d="M 1147.53375 188.03025 
L 1161.93375 188.03025 
L 1176.33375 188.03025 
" style="fill: none; stroke: #00fe2a; stroke-width: 4; stroke-linecap: square"/>
    </g>
    <g id="text_20">
     <!-- T67 -->
     <g transform="translate(1187.85375 193.07025)scale(0.144 -0.144)">
      <use xlink:href="#DejaVuSansMono-54"/>
      <use xlink:href="#DejaVuSansMono-36" x="60.205078"/>
      <use xlink:href="#DejaVuSansMono-37" x="120.410156"/>
     </g>
    </g>
    <g id="line2d_28">
     <path d="M 1147.53375 209.24325 
L 1161.93375 209.24325 
L 1176.33375 209.24325 
" style="fill: none; stroke: #6cdb00; stroke-width: 4; stroke-linecap: square"/>
    </g>
    <g id="text_21">
     <!-- T85 -->
     <g transform="translate(1187.85375 214.28325)scale(0.144 -0.144)">
      <use xlink:href="#DejaVuSansMono-54"/>
      <use xlink:href="#DejaVuSansMono-38" x="60.205078"/>
      <use xlink:href="#DejaVuSansMono-35" x="120.410156"/>
     </g>
    </g>
    <g id="line2d_29">
     <path d="M 1147.53375 230.45625 
L 1161.93375 230.45625 
L 1176.33375 230.45625 
" style="fill: none; stroke: #adff30; stroke-width: 4; stroke-linecap: square"/>
    </g>
    <g id="text_22">
     <!-- T108 -->
     <g transform="translate(1187.85375 235.49625)scale(0.144 -0.144)">
      <use xlink:href="#DejaVuSansMono-54"/>
      <use xlink:href="#DejaVuSansMono-31" x="60.205078"/>
      <use xlink:href="#DejaVuSansMono-30" x="120.410156"/>
      <use xlink:href="#DejaVuSansMono-38" x="180.615234"/>
     </g>
    </g>
    <g id="line2d_30">
     <path d="M 1147.53375 251.66925 
L 1161.93375 251.66925 
L 1176.33375 251.66925 
" style="fill: none; stroke: #fff500; stroke-width: 4; stroke-linecap: square"/>
    </g>
    <g id="text_23">
     <!-- 278TI -->
     <g transform="translate(1187.85375 256.70925)scale(0.144 -0.144)">
      <defs>
       <path id="DejaVuSansMono-32" d="M 1166 531 
L 3309 531 
L 3309 0 
L 475 0 
L 475 531 
Q 1059 1147 1496 1619 
Q 1934 2091 2100 2284 
Q 2413 2666 2522 2902 
Q 2631 3138 2631 3384 
Q 2631 3775 2401 3997 
Q 2172 4219 1772 4219 
Q 1488 4219 1175 4116 
Q 863 4013 513 3803 
L 513 4441 
Q 834 4594 1145 4672 
Q 1456 4750 1759 4750 
Q 2444 4750 2861 4386 
Q 3278 4022 3278 3431 
Q 3278 3131 3139 2831 
Q 3000 2531 2688 2169 
Q 2513 1966 2180 1606 
Q 1847 1247 1166 531 
z
" transform="scale(0.015625)"/>
      </defs>
      <use xlink:href="#DejaVuSansMono-32"/>
      <use xlink:href="#DejaVuSansMono-37" x="60.205078"/>
      <use xlink:href="#DejaVuSansMono-38" x="120.410156"/>
      <use xlink:href="#DejaVuSansMono-54" x="180.615234"/>
      <use xlink:href="#DejaVuSansMono-49" x="240.820312"/>
     </g>
    </g>
    <g id="line2d_31">
     <path d="M 1147.53375 272.88225 
L 1161.93375 272.88225 
L 1176.33375 272.88225 
" style="fill: none; stroke: #ffc40a; stroke-width: 4; stroke-linecap: square"/>
    </g>
    <g id="text_24">
     <!-- 283TI -->
     <g transform="translate(1187.85375 277.92225)scale(0.144 -0.144)">
      <use xlink:href="#DejaVuSansMono-32"/>
      <use xlink:href="#DejaVuSansMono-38" x="60.205078"/>
      <use xlink:href="#DejaVuSansMono-33" x="120.410156"/>
      <use xlink:href="#DejaVuSansMono-54" x="180.615234"/>
      <use xlink:href="#DejaVuSansMono-49" x="240.820312"/>
     </g>
    </g>
   </g>
  </g>
  <g id="text_25">
   <!-- 1.00295µm -->
   <g transform="translate(691.2 70.2)scale(0.2 -0.2)">
    <defs>
     <path id="DejaVuSansMono-b5" d="M 609 -1338 
L 609 3500 
L 1184 3500 
L 1184 1325 
Q 1184 881 1371 645 
Q 1559 409 1906 409 
Q 2303 409 2504 675 
Q 2706 941 2706 1459 
L 2706 3500 
L 3284 3500 
L 3284 800 
Q 3284 616 3334 528 
Q 3384 441 3488 441 
Q 3516 441 3561 456 
Q 3606 472 3694 513 
L 3694 50 
Q 3575 -22 3469 -56 
Q 3363 -91 3256 -91 
Q 3063 -91 2945 32 
Q 2828 156 2791 403 
Q 2647 153 2439 31 
Q 2231 -91 1953 -91 
Q 1666 -91 1467 28 
Q 1269 147 1131 397 
L 1131 -1338 
L 609 -1338 
z
" transform="scale(0.015625)"/>
     <path id="DejaVuSansMono-6d" d="M 2113 3144 
Q 2219 3369 2383 3476 
Q 2547 3584 2778 3584 
Q 3200 3584 3373 3257 
Q 3547 2931 3547 2028 
L 3547 0 
L 3022 0 
L 3022 2003 
Q 3022 2744 2939 2923 
Q 2856 3103 2638 3103 
Q 2388 3103 2295 2911 
Q 2203 2719 2203 2003 
L 2203 0 
L 1678 0 
L 1678 2003 
Q 1678 2753 1589 2928 
Q 1500 3103 1269 3103 
Q 1041 3103 952 2911 
Q 863 2719 863 2003 
L 863 0 
L 341 0 
L 341 3500 
L 863 3500 
L 863 3200 
Q 966 3388 1120 3486 
Q 1275 3584 1472 3584 
Q 1709 3584 1867 3475 
Q 2025 3366 2113 3144 
z
" transform="scale(0.015625)"/>
    </defs>
    <use xlink:href="#DejaVuSansMono-31"/>
    <use xlink:href="#DejaVuSansMono-2e" x="60.205078"/>
    <use xlink:href="#DejaVuSansMono-30" x="120.410156"/>
    <use xlink:href="#DejaVuSansMono-30" x="180.615234"/>
    <use xlink:href="#DejaVuSansMono-32" x="240.820312"/>
    <use xlink:href="#DejaVuSansMono-39" x="301.025391"/>
    <use xlink:href="#DejaVuSansMono-35" x="361.230469"/>
    <use xlink:href="#DejaVuSansMono-b5" x="421.435547"/>
    <use xlink:href="#DejaVuSansMono-6d" x="481.640625"/>
   </g>
  </g>
 </g>
 <defs>
  <clipPath id="p6216e8e4af">
   <rect x="172.8" y="84.24" width="1071.36" height="540.54"/>
  </clipPath>
 </defs>
</svg>
