<?xml version="1.0" encoding="utf-8" standalone="no"?>
<!DOCTYPE svg PUBLIC "-//W3C//DTD SVG 1.1//EN"
  "http://www.w3.org/Graphics/SVG/1.1/DTD/svg11.dtd">
<svg xmlns:xlink="http://www.w3.org/1999/xlink" width="964.8pt" height="619.2pt" viewBox="0 0 964.8 619.2" xmlns="http://www.w3.org/2000/svg" version="1.1">
 <metadata>
  <rdf:RDF xmlns:dc="http://purl.org/dc/elements/1.1/" xmlns:cc="http://creativecommons.org/ns#" xmlns:rdf="http://www.w3.org/1999/02/22-rdf-syntax-ns#">
   <cc:Work>
    <dc:type rdf:resource="http://purl.org/dc/dcmitype/StillImage"/>
    <dc:date>2022-06-23T21:19:24.411967</dc:date>
    <dc:format>image/svg+xml</dc:format>
    <dc:creator>
     <cc:Agent>
      <dc:title>Matplotlib v3.5.1, https://matplotlib.org/</dc:title>
     </cc:Agent>
    </dc:creator>
   </cc:Work>
  </rdf:RDF>
 </metadata>
 <defs>
  <style type="text/css">*{stroke-linejoin: round; stroke-linecap: butt}</style>
 </defs>
 <g id="figure_1">
  <g id="patch_1">
   <path d="M 0 619.2 
L 964.8 619.2 
L 964.8 0 
L 0 0 
z
" style="fill: #ffffff"/>
  </g>
  <g id="axes_1">
   <g id="patch_2">
    <path d="M 120.6 551.088 
L 868.32 551.088 
L 868.32 74.304 
L 120.6 74.304 
z
" style="fill: #ffffff"/>
   </g>
   <g id="matplotlib.axis_1">
    <g id="xtick_1">
     <g id="line2d_1">
      <defs>
       <path id="m72f4816ea0" d="M 0 0 
L 0 3.5 
" style="stroke: #000000; stroke-width: 0.8"/>
      </defs>
      <g>
       <use xlink:href="#m72f4816ea0" x="120.6" y="551.088" style="stroke: #000000; stroke-width: 0.8"/>
      </g>
     </g>
     <g id="text_1">
      <!-- 0.000 -->
      <g transform="translate(93.508594 571.860812)scale(0.18 -0.18)">
       <defs>
        <path id="DejaVuSansMono-30" d="M 1509 2344 
Q 1509 2516 1629 2641 
Q 1750 2766 1919 2766 
Q 2094 2766 2219 2641 
Q 2344 2516 2344 2344 
Q 2344 2169 2220 2047 
Q 2097 1925 1919 1925 
Q 1744 1925 1626 2044 
Q 1509 2163 1509 2344 
z
M 1925 4250 
Q 1484 4250 1267 3775 
Q 1050 3300 1050 2328 
Q 1050 1359 1267 884 
Q 1484 409 1925 409 
Q 2369 409 2586 884 
Q 2803 1359 2803 2328 
Q 2803 3300 2586 3775 
Q 2369 4250 1925 4250 
z
M 1925 4750 
Q 2672 4750 3055 4137 
Q 3438 3525 3438 2328 
Q 3438 1134 3055 521 
Q 2672 -91 1925 -91 
Q 1178 -91 797 521 
Q 416 1134 416 2328 
Q 416 3525 797 4137 
Q 1178 4750 1925 4750 
z
" transform="scale(0.015625)"/>
        <path id="DejaVuSansMono-2e" d="M 1528 953 
L 2316 953 
L 2316 0 
L 1528 0 
L 1528 953 
z
" transform="scale(0.015625)"/>
       </defs>
       <use xlink:href="#DejaVuSansMono-30"/>
       <use xlink:href="#DejaVuSansMono-2e" x="60.205078"/>
       <use xlink:href="#DejaVuSansMono-30" x="120.410156"/>
       <use xlink:href="#DejaVuSansMono-30" x="180.615234"/>
       <use xlink:href="#DejaVuSansMono-30" x="240.820312"/>
      </g>
     </g>
    </g>
    <g id="xtick_2">
     <g id="line2d_2">
      <g>
       <use xlink:href="#m72f4816ea0" x="270.144" y="551.088" style="stroke: #000000; stroke-width: 0.8"/>
      </g>
     </g>
     <g id="text_2">
      <!-- 0.015 -->
      <g transform="translate(243.052594 571.860812)scale(0.18 -0.18)">
       <defs>
        <path id="DejaVuSansMono-31" d="M 844 531 
L 1825 531 
L 1825 4097 
L 769 3859 
L 769 4434 
L 1819 4666 
L 2450 4666 
L 2450 531 
L 3419 531 
L 3419 0 
L 844 0 
L 844 531 
z
" transform="scale(0.015625)"/>
        <path id="DejaVuSansMono-35" d="M 647 4666 
L 3009 4666 
L 3009 4134 
L 1222 4134 
L 1222 2988 
Q 1356 3038 1492 3061 
Q 1628 3084 1766 3084 
Q 2491 3084 2916 2656 
Q 3341 2228 3341 1497 
Q 3341 759 2895 334 
Q 2450 -91 1678 -91 
Q 1306 -91 998 -41 
Q 691 9 447 109 
L 447 750 
Q 734 594 1025 517 
Q 1316 441 1619 441 
Q 2141 441 2423 716 
Q 2706 991 2706 1497 
Q 2706 1997 2414 2275 
Q 2122 2553 1600 2553 
Q 1347 2553 1106 2495 
Q 866 2438 647 2322 
L 647 4666 
z
" transform="scale(0.015625)"/>
       </defs>
       <use xlink:href="#DejaVuSansMono-30"/>
       <use xlink:href="#DejaVuSansMono-2e" x="60.205078"/>
       <use xlink:href="#DejaVuSansMono-30" x="120.410156"/>
       <use xlink:href="#DejaVuSansMono-31" x="180.615234"/>
       <use xlink:href="#DejaVuSansMono-35" x="240.820312"/>
      </g>
     </g>
    </g>
    <g id="xtick_3">
     <g id="line2d_3">
      <g>
       <use xlink:href="#m72f4816ea0" x="419.688" y="551.088" style="stroke: #000000; stroke-width: 0.8"/>
      </g>
     </g>
     <g id="text_3">
      <!-- 0.030 -->
      <g transform="translate(392.596594 571.860812)scale(0.18 -0.18)">
       <defs>
        <path id="DejaVuSansMono-33" d="M 2425 2497 
Q 2884 2375 3128 2064 
Q 3372 1753 3372 1288 
Q 3372 644 2939 276 
Q 2506 -91 1741 -91 
Q 1419 -91 1084 -31 
Q 750 28 428 141 
L 428 769 
Q 747 603 1056 522 
Q 1366 441 1672 441 
Q 2191 441 2469 675 
Q 2747 909 2747 1350 
Q 2747 1756 2469 1995 
Q 2191 2234 1716 2234 
L 1234 2234 
L 1234 2753 
L 1716 2753 
Q 2150 2753 2394 2943 
Q 2638 3134 2638 3475 
Q 2638 3834 2411 4026 
Q 2184 4219 1766 4219 
Q 1488 4219 1191 4156 
Q 894 4094 569 3969 
L 569 4550 
Q 947 4650 1242 4700 
Q 1538 4750 1766 4750 
Q 2447 4750 2855 4408 
Q 3263 4066 3263 3500 
Q 3263 3116 3048 2859 
Q 2834 2603 2425 2497 
z
" transform="scale(0.015625)"/>
       </defs>
       <use xlink:href="#DejaVuSansMono-30"/>
       <use xlink:href="#DejaVuSansMono-2e" x="60.205078"/>
       <use xlink:href="#DejaVuSansMono-30" x="120.410156"/>
       <use xlink:href="#DejaVuSansMono-33" x="180.615234"/>
       <use xlink:href="#DejaVuSansMono-30" x="240.820312"/>
      </g>
     </g>
    </g>
    <g id="xtick_4">
     <g id="line2d_4">
      <g>
       <use xlink:href="#m72f4816ea0" x="569.232" y="551.088" style="stroke: #000000; stroke-width: 0.8"/>
      </g>
     </g>
     <g id="text_4">
      <!-- 0.045 -->
      <g transform="translate(542.140594 571.860812)scale(0.18 -0.18)">
       <defs>
        <path id="DejaVuSansMono-34" d="M 2297 4091 
L 825 1625 
L 2297 1625 
L 2297 4091 
z
M 2194 4666 
L 2925 4666 
L 2925 1625 
L 3547 1625 
L 3547 1113 
L 2925 1113 
L 2925 0 
L 2297 0 
L 2297 1113 
L 319 1113 
L 319 1709 
L 2194 4666 
z
" transform="scale(0.015625)"/>
       </defs>
       <use xlink:href="#DejaVuSansMono-30"/>
       <use xlink:href="#DejaVuSansMono-2e" x="60.205078"/>
       <use xlink:href="#DejaVuSansMono-30" x="120.410156"/>
       <use xlink:href="#DejaVuSansMono-34" x="180.615234"/>
       <use xlink:href="#DejaVuSansMono-35" x="240.820312"/>
      </g>
     </g>
    </g>
    <g id="xtick_5">
     <g id="line2d_5">
      <g>
       <use xlink:href="#m72f4816ea0" x="718.776" y="551.088" style="stroke: #000000; stroke-width: 0.8"/>
      </g>
     </g>
     <g id="text_5">
      <!-- 0.060 -->
      <g transform="translate(691.684594 571.860812)scale(0.18 -0.18)">
       <defs>
        <path id="DejaVuSansMono-36" d="M 3097 4563 
L 3097 3981 
Q 2900 4097 2678 4158 
Q 2456 4219 2216 4219 
Q 1616 4219 1306 3767 
Q 997 3316 997 2438 
Q 1147 2750 1412 2917 
Q 1678 3084 2022 3084 
Q 2697 3084 3067 2670 
Q 3438 2256 3438 1497 
Q 3438 741 3056 325 
Q 2675 -91 1984 -91 
Q 1172 -91 794 492 
Q 416 1075 416 2328 
Q 416 3509 870 4129 
Q 1325 4750 2188 4750 
Q 2419 4750 2650 4701 
Q 2881 4653 3097 4563 
z
M 1972 2591 
Q 1569 2591 1337 2300 
Q 1106 2009 1106 1497 
Q 1106 984 1337 693 
Q 1569 403 1972 403 
Q 2391 403 2603 679 
Q 2816 956 2816 1497 
Q 2816 2041 2603 2316 
Q 2391 2591 1972 2591 
z
" transform="scale(0.015625)"/>
       </defs>
       <use xlink:href="#DejaVuSansMono-30"/>
       <use xlink:href="#DejaVuSansMono-2e" x="60.205078"/>
       <use xlink:href="#DejaVuSansMono-30" x="120.410156"/>
       <use xlink:href="#DejaVuSansMono-36" x="180.615234"/>
       <use xlink:href="#DejaVuSansMono-30" x="240.820312"/>
      </g>
     </g>
    </g>
    <g id="xtick_6">
     <g id="line2d_6">
      <g>
       <use xlink:href="#m72f4816ea0" x="868.32" y="551.088" style="stroke: #000000; stroke-width: 0.8"/>
      </g>
     </g>
     <g id="text_6">
      <!-- 0.075 -->
      <g transform="translate(841.228594 571.860812)scale(0.18 -0.18)">
       <defs>
        <path id="DejaVuSansMono-37" d="M 434 4666 
L 3372 4666 
L 3372 4397 
L 1703 0 
L 1044 0 
L 2669 4134 
L 434 4134 
L 434 4666 
z
" transform="scale(0.015625)"/>
       </defs>
       <use xlink:href="#DejaVuSansMono-30"/>
       <use xlink:href="#DejaVuSansMono-2e" x="60.205078"/>
       <use xlink:href="#DejaVuSansMono-30" x="120.410156"/>
       <use xlink:href="#DejaVuSansMono-37" x="180.615234"/>
       <use xlink:href="#DejaVuSansMono-35" x="240.820312"/>
      </g>
     </g>
    </g>
    <g id="text_7">
     <!-- I/F -->
     <g transform="translate(472.786875 597.968)scale(0.24 -0.24)">
      <defs>
       <path id="DejaVuSansMono-49" d="M 628 4666 
L 3219 4666 
L 3219 4134 
L 2241 4134 
L 2241 531 
L 3219 531 
L 3219 0 
L 628 0 
L 628 531 
L 1606 531 
L 1606 4134 
L 628 4134 
L 628 4666 
z
" transform="scale(0.015625)"/>
       <path id="DejaVuSansMono-2f" d="M 2778 4666 
L 3372 4666 
L 916 -594 
L 319 -594 
L 2778 4666 
z
" transform="scale(0.015625)"/>
       <path id="DejaVuSansMono-46" d="M 728 4666 
L 3475 4666 
L 3475 4134 
L 1363 4134 
L 1363 2759 
L 3278 2759 
L 3278 2228 
L 1363 2228 
L 1363 0 
L 728 0 
L 728 4666 
z
" transform="scale(0.015625)"/>
      </defs>
      <use xlink:href="#DejaVuSansMono-49"/>
      <use xlink:href="#DejaVuSansMono-2f" x="60.205078"/>
      <use xlink:href="#DejaVuSansMono-46" x="120.410156"/>
     </g>
    </g>
   </g>
   <g id="matplotlib.axis_2">
    <g id="ytick_1">
     <g id="line2d_7">
      <defs>
       <path id="mdeb4d6096a" d="M 0 0 
L -3.5 0 
" style="stroke: #000000; stroke-width: 0.8"/>
      </defs>
      <g>
       <use xlink:href="#mdeb4d6096a" x="120.6" y="551.088" style="stroke: #000000; stroke-width: 0.8"/>
      </g>
     </g>
     <g id="text_8">
      <!-- 90°S -->
      <g transform="translate(70.25375 557.974406)scale(0.18 -0.18)">
       <defs>
        <path id="DejaVuSansMono-39" d="M 1863 2069 
Q 2266 2069 2495 2359 
Q 2725 2650 2725 3163 
Q 2725 3675 2495 3965 
Q 2266 4256 1863 4256 
Q 1444 4256 1231 3979 
Q 1019 3703 1019 3163 
Q 1019 2619 1230 2344 
Q 1441 2069 1863 2069 
z
M 738 97 
L 738 678 
Q 934 563 1156 502 
Q 1378 441 1619 441 
Q 2219 441 2526 892 
Q 2834 1344 2834 2222 
Q 2688 1909 2422 1742 
Q 2156 1575 1813 1575 
Q 1138 1575 767 1990 
Q 397 2406 397 3169 
Q 397 3922 776 4336 
Q 1156 4750 1850 4750 
Q 2663 4750 3041 4165 
Q 3419 3581 3419 2328 
Q 3419 1150 2964 529 
Q 2509 -91 1644 -91 
Q 1416 -91 1184 -42 
Q 953 6 738 97 
z
" transform="scale(0.015625)"/>
        <path id="DejaVuSansMono-b0" d="M 1925 4750 
Q 2128 4750 2311 4673 
Q 2494 4597 2631 4453 
Q 2772 4313 2845 4134 
Q 2919 3956 2919 3750 
Q 2919 3338 2628 3052 
Q 2338 2766 1919 2766 
Q 1497 2766 1215 3047 
Q 934 3328 934 3750 
Q 934 4169 1221 4459 
Q 1509 4750 1925 4750 
z
M 1925 4347 
Q 1678 4347 1504 4173 
Q 1331 4000 1331 3750 
Q 1331 3500 1501 3331 
Q 1672 3163 1919 3163 
Q 2169 3163 2345 3334 
Q 2522 3506 2522 3750 
Q 2522 3997 2347 4172 
Q 2172 4347 1925 4347 
z
" transform="scale(0.015625)"/>
        <path id="DejaVuSansMono-53" d="M 3163 4506 
L 3163 3866 
Q 2875 4050 2586 4144 
Q 2297 4238 2003 4238 
Q 1556 4238 1297 4030 
Q 1038 3822 1038 3469 
Q 1038 3159 1208 2996 
Q 1378 2834 1844 2725 
L 2175 2650 
Q 2831 2497 3131 2169 
Q 3431 1841 3431 1275 
Q 3431 609 3018 259 
Q 2606 -91 1819 -91 
Q 1491 -91 1159 -20 
Q 828 50 494 191 
L 494 863 
Q 853 634 1173 528 
Q 1494 422 1819 422 
Q 2297 422 2562 636 
Q 2828 850 2828 1234 
Q 2828 1584 2645 1768 
Q 2463 1953 2009 2053 
L 1672 2131 
Q 1022 2278 728 2575 
Q 434 2872 434 3372 
Q 434 3997 854 4373 
Q 1275 4750 1972 4750 
Q 2241 4750 2537 4689 
Q 2834 4628 3163 4506 
z
" transform="scale(0.015625)"/>
       </defs>
       <use xlink:href="#DejaVuSansMono-39"/>
       <use xlink:href="#DejaVuSansMono-30" x="60.205078"/>
       <use xlink:href="#DejaVuSansMono-b0" x="120.410156"/>
       <use xlink:href="#DejaVuSansMono-53" x="180.615234"/>
      </g>
     </g>
    </g>
    <g id="ytick_2">
     <g id="line2d_8">
      <g>
       <use xlink:href="#mdeb4d6096a" x="120.6" y="471.624" style="stroke: #000000; stroke-width: 0.8"/>
      </g>
     </g>
     <g id="text_9">
      <!-- 60°S -->
      <g transform="translate(70.25375 478.510406)scale(0.18 -0.18)">
       <use xlink:href="#DejaVuSansMono-36"/>
       <use xlink:href="#DejaVuSansMono-30" x="60.205078"/>
       <use xlink:href="#DejaVuSansMono-b0" x="120.410156"/>
       <use xlink:href="#DejaVuSansMono-53" x="180.615234"/>
      </g>
     </g>
    </g>
    <g id="ytick_3">
     <g id="line2d_9">
      <g>
       <use xlink:href="#mdeb4d6096a" x="120.6" y="392.16" style="stroke: #000000; stroke-width: 0.8"/>
      </g>
     </g>
     <g id="text_10">
      <!-- 30°S -->
      <g transform="translate(70.25375 399.046406)scale(0.18 -0.18)">
       <use xlink:href="#DejaVuSansMono-33"/>
       <use xlink:href="#DejaVuSansMono-30" x="60.205078"/>
       <use xlink:href="#DejaVuSansMono-b0" x="120.410156"/>
       <use xlink:href="#DejaVuSansMono-53" x="180.615234"/>
      </g>
     </g>
    </g>
    <g id="ytick_4">
     <g id="line2d_10">
      <g>
       <use xlink:href="#mdeb4d6096a" x="120.6" y="312.696" style="stroke: #000000; stroke-width: 0.8"/>
      </g>
     </g>
     <g id="text_11">
      <!-- 0° -->
      <g transform="translate(91.926875 319.582406)scale(0.18 -0.18)">
       <use xlink:href="#DejaVuSansMono-30"/>
       <use xlink:href="#DejaVuSansMono-b0" x="60.205078"/>
      </g>
     </g>
    </g>
    <g id="ytick_5">
     <g id="line2d_11">
      <g>
       <use xlink:href="#mdeb4d6096a" x="120.6" y="233.232" style="stroke: #000000; stroke-width: 0.8"/>
      </g>
     </g>
     <g id="text_12">
      <!-- 30°N -->
      <g transform="translate(70.25375 240.118406)scale(0.18 -0.18)">
       <defs>
        <path id="DejaVuSansMono-4e" d="M 434 4666 
L 1234 4666 
L 2809 825 
L 2809 4666 
L 3419 4666 
L 3419 0 
L 2619 0 
L 1044 3841 
L 1044 0 
L 434 0 
L 434 4666 
z
" transform="scale(0.015625)"/>
       </defs>
       <use xlink:href="#DejaVuSansMono-33"/>
       <use xlink:href="#DejaVuSansMono-30" x="60.205078"/>
       <use xlink:href="#DejaVuSansMono-b0" x="120.410156"/>
       <use xlink:href="#DejaVuSansMono-4e" x="180.615234"/>
      </g>
     </g>
    </g>
    <g id="ytick_6">
     <g id="line2d_12">
      <g>
       <use xlink:href="#mdeb4d6096a" x="120.6" y="153.768" style="stroke: #000000; stroke-width: 0.8"/>
      </g>
     </g>
     <g id="text_13">
      <!-- 60°N -->
      <g transform="translate(70.25375 160.654406)scale(0.18 -0.18)">
       <use xlink:href="#DejaVuSansMono-36"/>
       <use xlink:href="#DejaVuSansMono-30" x="60.205078"/>
       <use xlink:href="#DejaVuSansMono-b0" x="120.410156"/>
       <use xlink:href="#DejaVuSansMono-4e" x="180.615234"/>
      </g>
     </g>
    </g>
    <g id="ytick_7">
     <g id="line2d_13">
      <g>
       <use xlink:href="#mdeb4d6096a" x="120.6" y="74.304" style="stroke: #000000; stroke-width: 0.8"/>
      </g>
     </g>
     <g id="text_14">
      <!-- 90°N -->
      <g transform="translate(70.25375 81.190406)scale(0.18 -0.18)">
       <use xlink:href="#DejaVuSansMono-39"/>
       <use xlink:href="#DejaVuSansMono-30" x="60.205078"/>
       <use xlink:href="#DejaVuSansMono-b0" x="120.410156"/>
       <use xlink:href="#DejaVuSansMono-4e" x="180.615234"/>
      </g>
     </g>
    </g>
    <g id="text_15">
     <!-- Latitude -->
     <g transform="translate(61.2625 370.491)rotate(-90)scale(0.24 -0.24)">
      <defs>
       <path id="DejaVuSansMono-4c" d="M 672 4666 
L 1306 4666 
L 1306 531 
L 3559 531 
L 3559 0 
L 672 0 
L 672 4666 
z
" transform="scale(0.015625)"/>
       <path id="DejaVuSansMono-61" d="M 2194 1759 
L 2003 1759 
Q 1500 1759 1245 1582 
Q 991 1406 991 1056 
Q 991 741 1181 566 
Q 1372 391 1709 391 
Q 2184 391 2456 720 
Q 2728 1050 2731 1631 
L 2731 1759 
L 2194 1759 
z
M 3309 1997 
L 3309 0 
L 2731 0 
L 2731 519 
Q 2547 206 2267 57 
Q 1988 -91 1588 -91 
Q 1053 -91 734 211 
Q 416 513 416 1019 
Q 416 1603 808 1906 
Q 1200 2209 1959 2209 
L 2731 2209 
L 2731 2300 
Q 2728 2719 2518 2908 
Q 2309 3097 1850 3097 
Q 1556 3097 1256 3012 
Q 956 2928 672 2766 
L 672 3341 
Q 991 3463 1283 3523 
Q 1575 3584 1850 3584 
Q 2284 3584 2592 3456 
Q 2900 3328 3091 3072 
Q 3209 2916 3259 2686 
Q 3309 2456 3309 1997 
z
" transform="scale(0.015625)"/>
       <path id="DejaVuSansMono-74" d="M 1919 4494 
L 1919 3500 
L 3225 3500 
L 3225 3053 
L 1919 3053 
L 1919 1153 
Q 1919 766 2066 612 
Q 2213 459 2578 459 
L 3225 459 
L 3225 0 
L 2522 0 
Q 1875 0 1609 259 
Q 1344 519 1344 1153 
L 1344 3053 
L 409 3053 
L 409 3500 
L 1344 3500 
L 1344 4494 
L 1919 4494 
z
" transform="scale(0.015625)"/>
       <path id="DejaVuSansMono-69" d="M 800 3500 
L 2272 3500 
L 2272 447 
L 3413 447 
L 3413 0 
L 556 0 
L 556 447 
L 1697 447 
L 1697 3053 
L 800 3053 
L 800 3500 
z
M 1697 4863 
L 2272 4863 
L 2272 4134 
L 1697 4134 
L 1697 4863 
z
" transform="scale(0.015625)"/>
       <path id="DejaVuSansMono-75" d="M 609 1325 
L 609 3494 
L 1184 3494 
L 1184 1325 
Q 1184 853 1351 631 
Q 1519 409 1869 409 
Q 2275 409 2490 695 
Q 2706 981 2706 1516 
L 2706 3494 
L 3284 3494 
L 3284 0 
L 2706 0 
L 2706 525 
Q 2553 222 2289 65 
Q 2025 -91 1672 -91 
Q 1134 -91 871 261 
Q 609 613 609 1325 
z
" transform="scale(0.015625)"/>
       <path id="DejaVuSansMono-64" d="M 2681 3053 
L 2681 4863 
L 3256 4863 
L 3256 0 
L 2681 0 
L 2681 441 
Q 2538 181 2298 45 
Q 2059 -91 1747 -91 
Q 1113 -91 748 401 
Q 384 894 384 1759 
Q 384 2613 750 3098 
Q 1116 3584 1747 3584 
Q 2063 3584 2303 3448 
Q 2544 3313 2681 3053 
z
M 991 1747 
Q 991 1078 1203 737 
Q 1416 397 1831 397 
Q 2247 397 2464 740 
Q 2681 1084 2681 1747 
Q 2681 2413 2464 2755 
Q 2247 3097 1831 3097 
Q 1416 3097 1203 2756 
Q 991 2416 991 1747 
z
" transform="scale(0.015625)"/>
       <path id="DejaVuSansMono-65" d="M 3475 1894 
L 3475 1613 
L 984 1613 
L 984 1594 
Q 984 1022 1282 709 
Q 1581 397 2125 397 
Q 2400 397 2700 484 
Q 3000 572 3341 750 
L 3341 178 
Q 3013 44 2708 -23 
Q 2403 -91 2119 -91 
Q 1303 -91 843 398 
Q 384 888 384 1747 
Q 384 2584 834 3084 
Q 1284 3584 2034 3584 
Q 2703 3584 3089 3131 
Q 3475 2678 3475 1894 
z
M 2900 2063 
Q 2888 2569 2661 2833 
Q 2434 3097 2009 3097 
Q 1594 3097 1325 2822 
Q 1056 2547 1006 2059 
L 2900 2063 
z
" transform="scale(0.015625)"/>
      </defs>
      <use xlink:href="#DejaVuSansMono-4c"/>
      <use xlink:href="#DejaVuSansMono-61" x="60.205078"/>
      <use xlink:href="#DejaVuSansMono-74" x="120.410156"/>
      <use xlink:href="#DejaVuSansMono-69" x="180.615234"/>
      <use xlink:href="#DejaVuSansMono-74" x="240.820312"/>
      <use xlink:href="#DejaVuSansMono-75" x="301.025391"/>
      <use xlink:href="#DejaVuSansMono-64" x="361.230469"/>
      <use xlink:href="#DejaVuSansMono-65" x="421.435547"/>
     </g>
    </g>
   </g>
   <g id="line2d_14">
    <path d="M 462.603885 95.4944 
L 462.603885 99.4676 
L 462.868654 100.792 
L 462.868654 102.1164 
L 463.199568 103.4408 
L 463.199568 106.0896 
L 467.813687 107.414 
L 467.813687 108.7384 
L 476.555025 110.0628 
L 476.937935 111.3872 
L 479.169396 114.036 
L 482.119399 115.3604 
L 484.379199 116.6848 
L 485.400353 118.0092 
L 481.29683 119.3336 
L 482.861635 121.9824 
L 483.017659 123.3068 
L 486.336421 125.9556 
L 486.558628 127.28 
L 488.076191 128.6044 
L 488.619841 129.9288 
L 489.707179 131.2532 
L 490.057072 132.5776 
L 491.418574 133.902 
L 491.669156 135.2264 
L 492.936138 136.5508 
L 494.89336 137.8752 
L 496.02326 139.1996 
L 496.250183 140.524 
L 497.710997 141.8484 
L 499.252219 144.4972 
L 500.613758 145.8216 
L 501.540356 147.146 
L 502.050952 148.4704 
L 502.774246 149.7948 
L 504.239851 151.1192 
L 505.232632 152.4436 
L 507.029114 153.768 
L 509.676577 155.0924 
L 511.11377 156.4168 
L 513.297916 159.0656 
L 514.772917 160.39 
L 515.567186 161.7144 
L 517.273827 163.0388 
L 517.604742 164.3632 
L 520.058373 165.6876 
L 520.909317 167.012 
L 522.795677 168.3364 
L 525.37692 169.6608 
L 526.511536 170.9852 
L 528.861139 172.3096 
L 529.645938 173.634 
L 531.574823 174.9584 
L 531.768617 176.2828 
L 533.697502 177.6072 
L 534.430268 178.9316 
L 535.999864 180.256 
L 536.519856 181.5804 
L 538.72766 182.9048 
L 540.443809 185.5536 
L 541.706037 186.878 
L 542.623201 188.2024 
L 543.110139 189.5268 
L 544.637173 190.8512 
L 546.343815 192.1756 
L 547.76682 193.5 
L 549.71461 194.8244 
L 551.865664 196.1488 
L 552.612617 197.4732 
L 554.465848 198.7976 
L 555.316792 200.122 
L 556.62162 201.4464 
L 556.976192 202.7708 
L 558.980693 204.0952 
L 559.302137 205.4196 
L 560.337516 206.744 
L 561.878701 209.3928 
L 562.342018 210.7172 
L 563.68937 213.366 
L 563.968326 214.6904 
L 564.691621 216.0148 
L 564.847607 217.3392 
L 565.670251 218.6636 
L 566.010636 219.988 
L 566.473916 221.3124 
L 566.667748 222.6368 
L 567.296522 223.9612 
L 567.688939 225.2856 
L 568.104978 227.9344 
L 568.435892 229.2588 
L 568.596633 231.9076 
L 568.908643 233.232 
L 569.078854 235.8808 
L 569.055196 237.2052 
L 569.159187 238.5296 
L 569.537417 239.854 
L 569.376677 247.8004 
L 569.877802 249.1248 
L 570.029072 250.4492 
L 570.534914 251.7736 
L 574.45883 253.098 
L 574.506109 254.4224 
L 576.307345 255.7468 
L 576.855749 257.0712 
L 578.056548 258.3956 
L 579.711194 259.72 
L 580.358873 262.3688 
L 580.699295 265.0176 
L 580.689787 266.342 
L 581.27132 267.6664 
L 582.798316 268.9908 
L 582.864536 270.3152 
L 585.370126 271.6396 
L 585.015591 272.964 
L 586.013088 274.2884 
L 585.043928 276.9372 
L 584.339501 278.2616 
L 584.24498 279.586 
L 583.663485 280.9104 
L 585.199952 282.2348 
L 584.618457 283.5592 
L 584.386817 284.8836 
L 583.550023 286.208 
L 583.431808 287.5324 
L 582.472119 288.8568 
L 582.462648 290.1812 
L 581.815007 291.5056 
L 581.337502 292.83 
L 580.737103 294.1544 
L 580.45343 295.4788 
L 579.971246 299.452 
L 579.550454 300.7764 
L 578.642761 304.7496 
L 578.236193 306.074 
L 578.193631 307.3984 
L 577.470336 308.7228 
L 577.404116 310.0472 
L 576.680784 311.3716 
L 576.64773 312.696 
L 576.775379 314.0204 
L 576.411373 315.3448 
L 576.264783 316.6692 
L 575.65495 317.9936 
L 574.302843 319.318 
L 573.910426 320.6424 
L 572.563111 321.9668 
L 572.095077 323.2912 
L 570.67675 324.6156 
L 570.085784 325.94 
L 568.440609 327.2644 
L 567.920579 328.5888 
L 566.100476 329.9132 
L 565.537885 331.2376 
L 564.110162 332.562 
L 562.994413 333.8864 
L 561.26883 335.2108 
L 560.313858 336.5352 
L 557.207869 339.184 
L 556.030653 340.5084 
L 552.91991 343.1572 
L 552.177674 344.4816 
L 550.002999 345.806 
L 548.315225 347.1304 
L 547.275166 348.4548 
L 545.691419 349.7792 
L 544.344067 351.1036 
L 539.876464 356.4012 
L 538.822218 357.7256 
L 538.486549 359.05 
L 537.271563 360.3744 
L 537.016265 361.6988 
L 535.933644 363.0232 
L 535.649971 364.3476 
L 534.903018 365.672 
L 534.713903 366.9964 
L 533.853526 368.3208 
L 533.692786 369.6452 
L 533.314555 370.9696 
L 532.766188 374.9428 
L 532.633786 378.916 
L 532.90795 380.2404 
L 532.879613 381.5648 
L 533.437488 384.2136 
L 533.584041 385.538 
L 534.033171 386.8624 
L 534.146632 388.1868 
L 534.524825 389.5112 
L 534.723374 390.8356 
L 535.219783 392.16 
L 535.475081 393.4844 
L 536.344965 396.1332 
L 536.472614 397.4576 
L 537.054073 398.782 
L 537.413399 400.1064 
L 538.250155 401.4308 
L 538.486549 402.7552 
L 539.413184 404.0796 
L 541.710791 408.0528 
L 542.854841 409.3772 
L 543.247259 410.7016 
L 545.639387 414.6748 
L 546.476217 415.9992 
L 547.525747 417.3236 
L 547.97484 418.648 
L 549.109456 419.9724 
L 549.865879 421.2968 
L 551.766353 423.9456 
L 553.643205 425.27 
L 553.865449 426.5944 
L 556.796547 427.9188 
L 557.486751 429.2432 
L 558.876665 430.5676 
L 559.543285 431.892 
L 560.753555 433.2164 
L 561.249926 434.5408 
L 563.367926 437.1896 
L 563.68937 438.514 
L 564.98001 439.8384 
L 565.490606 441.1628 
L 566.592131 442.4872 
L 567.405267 443.8116 
L 568.880305 445.136 
L 569.778491 446.4604 
L 571.187346 447.7848 
L 571.910641 449.1092 
L 573.688256 450.4336 
L 574.061696 451.758 
L 575.442177 453.0824 
L 577.867433 457.0556 
L 579.54102 458.38 
L 579.971246 459.7044 
L 581.091675 461.0288 
L 582.642293 463.6776 
L 583.167076 465.002 
L 584.452999 466.3264 
L 584.850134 467.6508 
L 586.778945 470.2996 
L 587.332103 471.624 
L 588.012872 472.9484 
L 589.109644 474.2728 
L 589.133302 475.5972 
L 589.785734 476.9216 
L 590.102461 478.246 
L 591.700394 480.8948 
L 592.253515 482.2192 
L 593.000505 483.5436 
L 593.468539 484.868 
L 594.617306 486.1924 
L 594.759142 487.5168 
L 595.799238 488.8412 
L 596.106532 490.1656 
L 596.881859 491.49 
L 599.014009 496.7876 
L 599.382732 498.112 
L 599.87914 499.4364 
L 599.978415 500.7608 
L 600.436978 502.0852 
L 601.61891 507.3828 
L 601.760747 508.7072 
L 602.417859 510.0316 
L 602.502946 511.356 
L 603.925989 512.6804 
L 604.167062 514.0048 
L 605.306432 515.3292 
L 605.382049 516.6536 
L 605.609009 517.978 
L 606.166847 519.3024 
L 606.847617 520.6268 
L 607.887676 521.9512 
L 611.258433 523.2756 
L 611.835212 524.6 
L 612.596352 525.9244 
L 612.922587 527.2488 
L 612.577448 528.5732 
L 612.913116 531.222 
L 612.936737 532.5464 
L 614.147007 533.8708 
L 614.912901 535.1952 
L 614.463771 536.5196 
L 615.139824 537.844 
L 614.964934 539.1684 
L 615.924622 540.4928 
L 616.600638 541.8172 
L 616.255537 543.1416 
L 614.548895 544.466 
L 607.244714 545.7904 
L 610.369681 547.1148 
L 614.477959 548.4392 
L 617.087576 549.7636 
L 617.087576 551.088 
L 617.087576 551.088 
" clip-path="url(#p7ceb89b858)" style="fill: none; stroke: #b900ff; stroke-width: 4; stroke-linecap: square"/>
   </g>
   <g id="line2d_15">
    <path d="M 262.701368 74.304 
L 262.701368 76.9528 
L 267.264838 78.2772 
L 272.101851 80.926 
L 272.482142 82.2504 
L 272.722324 83.5748 
L 272.755676 84.8992 
L 273.396177 86.2236 
L 273.115958 87.548 
L 274.096705 88.8724 
L 274.710503 90.1968 
L 274.7839 91.5212 
L 275.611186 92.8456 
L 276.692006 94.17 
L 278.033026 95.4944 
L 279.1739 98.1432 
L 281.402261 99.4676 
L 283.33707 100.792 
L 289.922079 103.4408 
L 293.578181 104.7652 
L 299.282516 106.0896 
L 305.767452 108.7384 
L 307.882388 110.0628 
L 312.092261 111.3872 
L 314.74095 112.7116 
L 316.548982 114.036 
L 325.729292 115.3604 
L 329.665613 116.6848 
L 332.207543 118.0092 
L 336.30401 119.3336 
L 339.186177 120.658 
L 344.443518 121.9824 
L 346.505085 123.3068 
L 349.680841 124.6312 
L 354.644611 125.9556 
L 357.893737 127.28 
L 360.302243 128.6044 
L 362.443883 129.9288 
L 365.225977 131.2532 
L 368.721989 132.5776 
L 371.003719 133.902 
L 377.068327 135.2264 
L 380.751133 136.5508 
L 386.475468 137.8752 
L 388.530368 139.1996 
L 391.919621 140.524 
L 396.029402 141.8484 
L 401.747089 143.1728 
L 405.243082 144.4972 
L 413.976379 147.146 
L 417.659184 148.4704 
L 420.594758 149.7948 
L 424.764594 151.1192 
L 428.240569 152.4436 
L 434.712153 153.768 
L 438.194813 155.0924 
L 444.185996 156.4168 
L 447.161625 157.7412 
L 449.436689 159.0656 
L 454.026853 160.39 
L 457.289312 161.7144 
L 462.626726 163.0388 
L 465.602318 164.3632 
L 469.458565 165.6876 
L 473.828566 167.012 
L 476.637363 168.3364 
L 483.749421 169.6608 
L 484.063029 170.9852 
L 487.065287 172.3096 
L 490.894868 173.634 
L 493.450151 174.9584 
L 498.020259 176.2828 
L 500.362063 177.6072 
L 503.524467 178.9316 
L 505.252464 180.256 
L 507.434085 181.5804 
L 510.189513 182.9048 
L 511.924194 184.2292 
L 514.926453 185.5536 
L 517.581827 186.878 
L 519.7168 188.2024 
L 522.385469 189.5268 
L 524.480406 190.8512 
L 527.462683 192.1756 
L 529.117255 193.5 
L 530.244777 194.8244 
L 531.605834 196.1488 
L 532.706654 197.4732 
L 534.908329 198.7976 
L 537.443594 200.122 
L 539.091517 201.4464 
L 540.105615 202.7708 
L 540.759459 204.0952 
L 541.773557 205.4196 
L 542.460715 206.744 
L 543.508202 208.0684 
L 544.809204 210.7172 
L 545.769933 212.0416 
L 546.390388 213.366 
L 547.684705 214.6904 
L 549.666217 217.3392 
L 551.674395 221.3124 
L 552.148111 222.6368 
L 553.776016 223.9612 
L 554.71669 225.2856 
L 554.936891 226.61 
L 556.244541 227.9344 
L 556.591499 229.2588 
L 557.53221 230.5832 
L 558.03924 231.9076 
L 558.966617 233.232 
L 560.347693 235.8808 
L 561.194997 238.5296 
L 561.968913 239.854 
L 562.88292 242.5028 
L 563.383302 245.1516 
L 563.436672 247.8004 
L 563.843685 249.1248 
L 564.630935 250.4492 
L 565.271445 251.7736 
L 566.185452 253.098 
L 567.533139 257.0712 
L 567.493102 258.3956 
L 568.026873 259.72 
L 568.160279 261.0444 
L 568.99425 262.3688 
L 569.007583 263.6932 
L 569.407874 268.9908 
L 569.501317 270.3152 
L 569.314505 274.2884 
L 569.434578 275.6128 
L 569.100989 276.9372 
L 569.020916 278.2616 
L 569.441263 279.586 
L 569.634723 280.9104 
L 571.389386 283.5592 
L 571.409404 284.8836 
L 572.009841 286.208 
L 572.210024 287.5324 
L 571.909787 288.8568 
L 571.763011 290.1812 
L 571.929805 291.5056 
L 571.522829 292.83 
L 571.249295 294.1544 
L 570.688858 295.4788 
L 570.355307 296.8032 
L 570.788949 298.1276 
L 570.588804 299.452 
L 570.535397 300.7764 
L 570.081736 302.1008 
L 570.088421 303.4252 
L 569.494632 306.074 
L 569.794832 307.3984 
L 569.694778 308.7228 
L 569.708111 310.0472 
L 569.534669 311.3716 
L 569.221099 312.696 
L 569.247765 314.0204 
L 569.854924 315.3448 
L 569.634723 316.6692 
L 569.728166 317.9936 
L 569.321153 319.318 
L 569.341208 320.6424 
L 569.668075 321.9668 
L 569.708111 323.2912 
L 569.628075 324.6156 
L 569.107674 325.94 
L 569.834869 327.2644 
L 569.301172 331.2376 
L 569.474614 332.562 
L 568.88751 333.8864 
L 566.645798 337.8596 
L 566.165434 339.184 
L 566.132082 340.5084 
L 564.183922 341.8328 
L 563.64354 343.1572 
L 562.749514 344.4816 
L 560.507802 347.1304 
L 559.073394 348.4548 
L 559.647164 349.7792 
L 559.166763 351.1036 
L 557.578894 352.428 
L 556.164505 353.7524 
L 555.47731 355.0768 
L 554.256381 356.4012 
L 553.856052 357.7256 
L 552.86201 359.05 
L 551.987965 361.6988 
L 551.687728 363.0232 
L 550.606964 365.672 
L 550.153266 366.9964 
L 550.146581 368.3208 
L 549.866362 369.6452 
L 549.732919 370.9696 
L 549.866362 372.294 
L 549.826326 373.6184 
L 550.106582 374.9428 
L 550.153266 376.2672 
L 550.4268 377.5916 
L 551.334159 380.2404 
L 551.487582 381.5648 
L 552.001298 382.8892 
L 553.148876 384.2136 
L 554.589969 388.1868 
L 554.636654 389.5112 
L 554.823466 390.8356 
L 554.763448 392.16 
L 555.303868 393.4844 
L 555.303868 394.8088 
L 555.877601 396.1332 
L 556.024377 397.4576 
L 557.198584 400.1064 
L 557.191936 401.4308 
L 556.611481 402.7552 
L 556.985105 404.0796 
L 557.879131 405.404 
L 558.399495 406.7284 
L 558.706417 408.0528 
L 558.766472 409.3772 
L 560.074159 410.7016 
L 560.994814 412.026 
L 562.516017 414.6748 
L 562.242446 415.9992 
L 562.736144 417.3236 
L 562.916308 418.648 
L 564.3974 419.9724 
L 565.444887 421.2968 
L 566.125397 422.6212 
L 567.766636 423.9456 
L 568.26037 425.27 
L 569.154359 426.5944 
L 570.295215 427.9188 
L 570.588804 429.2432 
L 571.369405 430.5676 
L 572.430188 431.892 
L 574.505106 433.2164 
L 574.478403 434.5408 
L 575.932866 435.8652 
L 580.382902 438.514 
L 583.632027 439.8384 
L 584.092411 441.1628 
L 586.587601 442.4872 
L 589.49649 443.8116 
L 592.872373 445.136 
L 593.579624 446.4604 
L 599.303959 449.1092 
L 602.993412 450.4336 
L 606.289259 451.758 
L 606.949751 453.0824 
L 609.87201 454.4068 
L 613.721572 455.7312 
L 616.677146 457.0556 
L 617.464432 458.38 
L 620.153158 459.7044 
L 622.188002 461.0288 
L 625.850826 462.3532 
L 628.145871 463.6776 
L 629.026564 465.002 
L 630.227475 466.3264 
L 630.914633 467.6508 
L 632.609278 470.2996 
L 635.571499 472.9484 
L 639.060844 475.5972 
L 640.38855 476.9216 
L 644.578386 479.5704 
L 646.199643 480.8948 
L 646.453121 482.2192 
L 648.141118 483.5436 
L 649.235253 484.868 
L 651.823886 486.1924 
L 653.658622 487.5168 
L 654.185671 488.8412 
L 659.116109 491.49 
L 660.730644 492.8144 
L 660.777329 494.1388 
L 661.584633 495.4632 
L 663.345981 496.7876 
L 666.008003 499.4364 
L 666.688513 500.7608 
L 667.055453 502.0852 
L 669.090372 504.734 
L 671.832467 507.3828 
L 672.873194 508.7072 
L 674.294306 510.0316 
L 676.415946 512.6804 
L 676.969661 514.0048 
L 678.223941 515.3292 
L 678.630955 516.6536 
L 679.51161 517.978 
L 680.011955 519.3024 
L 680.085381 520.6268 
L 681.613232 521.9512 
L 682.327056 523.2756 
L 681.613232 525.9244 
L 679.77181 529.8976 
L 680.265508 532.5464 
L 680.072047 533.8708 
L 679.164688 535.1952 
L 679.311427 536.5196 
L 679.705108 537.844 
L 681.166182 540.4928 
L 681.379697 543.1416 
L 681.766656 544.466 
L 681.766656 545.7904 
L 682.553905 547.1148 
L 682.553905 548.4392 
L 676.682794 549.7636 
L 676.989716 551.088 
L 676.989716 551.088 
" clip-path="url(#p7ceb89b858)" style="fill: none; stroke: #5400ff; stroke-width: 4; stroke-linecap: square"/>
   </g>
   <g id="line2d_16">
    <path d="M 359.074072 74.304 
L 359.074072 75.6284 
L 358.84713 76.9528 
L 351.698583 79.6016 
L 351.736409 80.926 
L 350.601719 82.2504 
L 351.055602 83.5748 
L 351.187968 84.8992 
L 352.8711 86.2236 
L 352.568505 87.548 
L 354.005791 88.8724 
L 355.064847 90.1968 
L 358.58238 91.5212 
L 362.478144 92.8456 
L 363.518277 94.17 
L 365.485064 95.4944 
L 373.219879 98.1432 
L 377.096739 99.4676 
L 378.344892 100.792 
L 386.382284 102.1164 
L 391.564046 103.4408 
L 398.561287 104.7652 
L 404.178009 106.0896 
L 407.865754 107.414 
L 414.503688 108.7384 
L 422.295234 110.0628 
L 431.410587 111.3872 
L 437.08404 112.7116 
L 441.168919 114.036 
L 447.731199 115.3604 
L 462.141793 118.0092 
L 467.115499 119.3336 
L 470.746531 120.658 
L 476.627967 121.9824 
L 489.393238 124.6312 
L 493.969846 125.9556 
L 495.104499 127.28 
L 499.681107 128.6044 
L 505.241099 129.9288 
L 510.101343 131.2532 
L 511.557515 132.5776 
L 520.937617 135.2264 
L 525.778994 136.5508 
L 530.034084 137.8752 
L 530.790545 139.1996 
L 538.506456 141.8484 
L 545.030891 144.4972 
L 546.014312 145.8216 
L 549.891172 147.146 
L 562.656405 151.1192 
L 563.999152 152.4436 
L 568.670281 153.768 
L 577.275018 156.4168 
L 583.194337 157.7412 
L 584.593759 159.0656 
L 591.004732 160.39 
L 596.073032 161.7144 
L 599.533853 163.0388 
L 601.614119 164.3632 
L 602.276022 165.6876 
L 603.959154 167.012 
L 605.831401 168.3364 
L 607.098458 169.6608 
L 608.705936 170.9852 
L 609.405647 172.3096 
L 610.956377 173.634 
L 613.150142 174.9584 
L 615.87337 177.6072 
L 616.951348 178.9316 
L 617.745617 180.256 
L 622.624802 184.2292 
L 623.173243 185.5536 
L 623.910799 188.2024 
L 623.891858 189.5268 
L 624.099915 190.8512 
L 624.00532 193.5 
L 625.310259 196.1488 
L 625.745201 197.4732 
L 626.879892 198.7976 
L 627.636352 202.7708 
L 628.071332 204.0952 
L 628.128044 205.4196 
L 628.392813 206.744 
L 627.106815 209.3928 
L 627.579603 210.7172 
L 626.558411 214.6904 
L 626.501662 216.0148 
L 626.747526 217.3392 
L 626.652931 218.6636 
L 626.898796 219.988 
L 627.258122 221.3124 
L 627.258122 223.9612 
L 624.478108 227.9344 
L 623.778397 229.2588 
L 623.664935 230.5832 
L 622.776072 231.9076 
L 621.622514 233.232 
L 619.674613 234.5564 
L 618.710134 235.8808 
L 618.388653 237.2052 
L 616.781137 241.1784 
L 616.610926 242.5028 
L 616.62983 243.8272 
L 616.421848 245.1516 
L 616.384003 246.476 
L 615.759945 249.1248 
L 615.646446 250.4492 
L 615.34387 251.7736 
L 614.530697 253.098 
L 614.020064 255.7468 
L 614.22812 257.0712 
L 614.190275 258.3956 
L 613.830949 259.72 
L 612.847565 261.0444 
L 613.206891 262.3688 
L 612.015451 265.0176 
L 611.561567 266.342 
L 611.542663 271.6396 
L 612.393681 272.964 
L 612.6017 275.6128 
L 612.147817 276.9372 
L 612.223507 278.2616 
L 611.826336 279.586 
L 611.561567 280.9104 
L 610.824011 282.2348 
L 609.727128 283.5592 
L 609.178724 284.8836 
L 608.157495 286.208 
L 607.949476 287.5324 
L 607.098458 290.1812 
L 606.077266 291.5056 
L 605.188403 294.1544 
L 603.94025 298.1276 
L 604.110461 299.452 
L 604.110461 300.7764 
L 603.807847 302.1008 
L 603.354001 303.4252 
L 603.070291 304.7496 
L 602.824426 307.3984 
L 602.59754 308.7228 
L 601.046774 312.696 
L 601.198081 315.3448 
L 600.933312 316.6692 
L 599.968833 319.318 
L 600.441621 320.6424 
L 600.59289 323.2912 
L 600.252505 324.6156 
L 600.176852 325.94 
L 600.819814 327.2644 
L 600.403812 329.9132 
L 599.514949 331.2376 
L 598.437008 332.562 
L 597.96422 333.8864 
L 594.635764 336.5352 
L 593.42542 337.8596 
L 591.288441 339.184 
L 590.721096 340.5084 
L 589.491848 341.8328 
L 588.565213 343.1572 
L 587.317024 344.4816 
L 586.33364 345.806 
L 585.52043 347.1304 
L 584.158816 348.4548 
L 581.132937 352.428 
L 581.057321 353.7524 
L 580.206303 355.0768 
L 579.676803 356.4012 
L 578.977055 357.7256 
L 579.033804 359.05 
L 578.466459 360.3744 
L 578.542075 361.6988 
L 579.411997 363.0232 
L 580.565592 364.3476 
L 580.489975 365.672 
L 581.605725 366.9964 
L 581.662512 368.3208 
L 581.322052 369.6452 
L 580.244111 372.294 
L 578.95815 374.9428 
L 578.504267 376.2672 
L 578.863556 377.5916 
L 578.825748 378.916 
L 580.50888 380.2404 
L 582.418972 381.5648 
L 583.686028 382.8892 
L 585.1422 384.2136 
L 584.971989 385.538 
L 585.558238 386.8624 
L 585.596084 388.1868 
L 586.144525 390.8356 
L 586.201237 392.16 
L 587.525043 393.4844 
L 587.184658 394.8088 
L 586.674025 396.1332 
L 587.411581 397.4576 
L 588.489523 398.782 
L 588.848849 400.1064 
L 589.945731 401.4308 
L 590.323962 402.7552 
L 591.269537 404.0796 
L 592.687864 408.0528 
L 593.009382 409.3772 
L 594.522302 410.7016 
L 595.089648 412.026 
L 596.848396 413.3504 
L 598.191143 414.6748 
L 601.822139 417.3236 
L 603.524175 418.648 
L 607.760324 422.6212 
L 609.651512 423.9456 
L 610.918568 425.27 
L 614.209179 427.9188 
L 618.161692 430.5676 
L 619.428749 431.892 
L 621.433362 433.2164 
L 622.757167 435.8652 
L 624.402491 437.1896 
L 625.385875 438.514 
L 626.879892 439.8384 
L 627.825467 441.1628 
L 629.376197 442.4872 
L 630.019195 443.8116 
L 631.948192 445.136 
L 636.657166 449.1092 
L 638.680683 450.4336 
L 639.664067 451.758 
L 642.160371 453.0824 
L 643.805695 454.4068 
L 645.885961 455.7312 
L 647.474536 457.0556 
L 648.665939 458.38 
L 650.178897 459.7044 
L 653.261451 461.0288 
L 654.623065 462.3532 
L 656.173831 463.6776 
L 658.329751 465.002 
L 659.06727 466.3264 
L 660.788248 467.6508 
L 661.828344 468.9752 
L 664.022109 470.2996 
L 664.759628 471.624 
L 666.310394 472.9484 
L 667.274874 474.2728 
L 668.636488 475.5972 
L 669.109276 476.9216 
L 670.130505 478.246 
L 670.357428 479.5704 
L 671.624522 480.8948 
L 673.893903 484.868 
L 674.347787 487.5168 
L 675.217672 490.1656 
L 675.236613 491.49 
L 676.068727 492.8144 
L 676.29565 494.1388 
L 676.371304 495.4632 
L 676.598227 496.7876 
L 677.146668 498.112 
L 678.3003 499.4364 
L 678.035532 500.7608 
L 679.132377 502.0852 
L 678.791992 503.4096 
L 680.002336 504.734 
L 680.040144 506.0584 
L 680.664202 508.7072 
L 679.851029 510.0316 
L 679.775376 511.356 
L 679.094569 512.6804 
L 675.91742 514.0048 
L 675.444632 515.3292 
L 674.839479 516.6536 
L 675.444632 517.978 
L 677.089956 519.3024 
L 677.430341 520.6268 
L 678.810896 521.9512 
L 675.274421 523.2756 
L 678.054436 524.6 
L 672.664655 525.9244 
L 655.738852 527.2488 
L 658.008196 528.5732 
L 659.975001 529.8976 
L 660.920576 531.222 
L 663.965359 532.5464 
L 664.910898 533.8708 
L 665.308069 535.1952 
L 666.612934 536.5196 
L 690.970976 537.844 
L 690.970976 539.1684 
L 690.970976 539.1684 
" clip-path="url(#p7ceb89b858)" style="fill: none; stroke: #0010ff; stroke-width: 4; stroke-linecap: square"/>
   </g>
   <g id="line2d_17">
    <path d="M 615.97439 78.2772 
L 615.97439 83.5748 
L 617.145069 84.8992 
L 615.495771 86.2236 
L 615.826351 87.548 
L 616.019143 88.8724 
L 616.019143 90.1968 
L 632.494776 91.5212 
L 632.532622 94.17 
L 633.76187 95.4944 
L 633.758416 96.8188 
L 634.440188 98.1432 
L 634.47458 99.4676 
L 634.154399 100.792 
L 634.574448 102.1164 
L 634.822355 103.4408 
L 634.89812 104.7652 
L 634.80516 107.414 
L 634.815485 108.7384 
L 635.056521 110.0628 
L 635.504128 115.3604 
L 636.860728 118.0092 
L 638.310326 123.3068 
L 638.454911 124.6312 
L 639.24684 125.9556 
L 639.983728 128.6044 
L 639.904509 129.9288 
L 639.952716 131.2532 
L 640.293584 132.5776 
L 640.097338 133.902 
L 640.593152 135.2264 
L 640.245376 136.5508 
L 640.376219 137.8752 
L 640.46918 140.524 
L 640.548399 141.8484 
L 641.088966 144.4972 
L 641.495274 147.146 
L 641.515924 148.4704 
L 641.973893 149.7948 
L 642.0634 151.1192 
L 642.552306 152.4436 
L 642.369839 153.768 
L 642.125349 159.0656 
L 641.681195 160.39 
L 640.672334 165.6876 
L 640.021573 167.012 
L 640.028481 168.3364 
L 639.429344 169.6608 
L 638.058965 170.9852 
L 633.672363 173.634 
L 629.908928 174.9584 
L 629.055013 176.2828 
L 625.632519 177.6072 
L 623.879936 178.9316 
L 622.530207 180.256 
L 620.226731 182.9048 
L 617.906023 185.5536 
L 617.806154 186.878 
L 614.104742 192.1756 
L 611.932072 196.1488 
L 609.242976 200.122 
L 608.540554 201.4464 
L 607.576482 202.7708 
L 606.901581 204.0952 
L 605.765367 205.4196 
L 604.78748 206.744 
L 603.496283 208.0684 
L 602.012294 209.3928 
L 601.241014 210.7172 
L 599.998025 212.0416 
L 599.299056 213.366 
L 598.007859 214.6904 
L 597.319178 216.0148 
L 594.774704 219.988 
L 593.476598 221.3124 
L 592.705319 222.6368 
L 590.770269 225.2856 
L 589.850951 226.61 
L 589.217386 227.9344 
L 588.435782 229.2588 
L 587.42692 230.5832 
L 586.731406 231.9076 
L 585.646816 233.232 
L 582.100351 238.5296 
L 581.387567 239.854 
L 580.144577 241.1784 
L 579.318257 242.5028 
L 578.202656 243.8272 
L 577.438247 245.1516 
L 576.226269 246.476 
L 574.67684 247.8004 
L 573.929664 249.1248 
L 572.641884 250.4492 
L 571.798294 251.7736 
L 570.403811 253.098 
L 568.403358 255.7468 
L 567.008838 257.0712 
L 566.316778 258.3956 
L 565.042776 259.72 
L 564.323158 261.0444 
L 560.986717 265.0176 
L 559.606014 266.342 
L 558.71767 267.6664 
L 557.522888 268.9908 
L 556.854931 270.3152 
L 553.952281 272.964 
L 551.672909 275.6128 
L 550.753591 276.9372 
L 549.54503 278.2616 
L 547.930198 280.9104 
L 546.30155 282.2348 
L 541.515511 283.5592 
L 538.633585 286.208 
L 537.631595 287.5324 
L 536.09249 288.8568 
L 535.300561 290.1812 
L 533.072851 292.83 
L 532.225806 294.1544 
L 530.693573 295.4788 
L 530.311406 296.8032 
L 529.054637 298.1276 
L 528.32124 299.452 
L 525.804249 302.1008 
L 524.829853 303.4252 
L 523.445695 304.7496 
L 521.941019 307.3984 
L 520.997561 308.7228 
L 519.572103 310.0472 
L 515.044297 311.3716 
L 495.48013 312.696 
L 494.120076 314.0204 
L 491.093528 316.6692 
L 486.111243 321.9668 
L 484.410322 323.2912 
L 483.081242 324.6156 
L 481.917434 325.94 
L 480.151072 327.2644 
L 472.703494 333.8864 
L 470.544603 335.2108 
L 469.253406 336.5352 
L 467.504277 337.8596 
L 466.17178 339.184 
L 464.50525 340.5084 
L 459.578043 345.806 
L 458.569219 347.1304 
L 458.187015 348.4548 
L 456.675468 351.1036 
L 455.573646 353.7524 
L 454.82647 355.0768 
L 454.358176 356.4012 
L 452.805293 359.05 
L 451.503808 361.6988 
L 451.032097 363.0232 
L 450.271106 364.3476 
L 450.171274 365.672 
L 449.41032 366.9964 
L 447.547581 372.294 
L 446.955352 373.6184 
L 446.879587 374.9428 
L 446.166877 376.2672 
L 445.884504 377.5916 
L 445.323287 378.916 
L 444.782682 381.5648 
L 443.946 384.2136 
L 442.871735 388.1868 
L 442.48266 390.8356 
L 442.128014 392.16 
L 441.618421 393.4844 
L 441.301619 394.8088 
L 439.810722 396.1332 
L 439.476762 397.4576 
L 437.011432 398.782 
L 437.100939 400.1064 
L 436.753163 401.4308 
L 436.663656 402.7552 
L 436.188492 404.0796 
L 436.098985 405.404 
L 435.599717 406.7284 
L 435.541185 408.0528 
L 434.787138 410.7016 
L 433.588902 415.9992 
L 433.743848 417.3236 
L 433.50972 418.648 
L 432.373469 421.2968 
L 431.898286 422.6212 
L 431.22344 423.9456 
L 430.231811 425.27 
L 429.618914 426.5944 
L 429.742849 429.2432 
L 430.269675 431.892 
L 430.45905 433.2164 
L 430.886008 434.5408 
L 430.992728 435.8652 
L 430.951429 438.514 
L 431.068493 441.1628 
L 431.440335 442.4872 
L 431.533315 446.4604 
L 431.891397 447.7848 
L 432.084226 449.1092 
L 434.081299 455.7312 
L 434.838762 457.0556 
L 434.942048 458.38 
L 435.241616 459.7044 
L 435.279536 461.0288 
L 435.520535 462.3532 
L 435.971596 463.6776 
L 436.591346 468.9752 
L 436.828928 470.2996 
L 437.183574 471.624 
L 437.386728 472.9484 
L 438.133904 474.2728 
L 438.419694 475.5972 
L 438.86043 479.5704 
L 439.249505 480.8948 
L 439.321816 482.2192 
L 439.745319 483.5436 
L 439.93124 484.868 
L 440.926323 488.8412 
L 440.898803 490.1656 
L 440.998671 491.49 
L 440.895349 492.8144 
L 442.045341 499.4364 
L 442.145209 500.7608 
L 441.828445 503.4096 
L 441.663174 504.734 
L 441.663174 506.0584 
L 441.404942 507.3828 
L 441.484124 508.7072 
L 442.210649 510.0316 
L 442.134885 511.356 
L 442.486114 512.6804 
L 442.844178 515.3292 
L 441.893885 516.6536 
L 442.220937 519.3024 
L 441.938639 520.6268 
L 441.962742 521.9512 
L 442.944009 523.2756 
L 443.443277 524.6 
L 442.245041 525.9244 
L 442.128014 527.2488 
L 441.367059 528.5732 
L 441.401488 531.222 
L 439.927824 532.5464 
L 439.993226 533.8708 
L 437.569233 535.1952 
L 437.765516 536.5196 
L 437.768933 537.844 
L 437.465947 539.1684 
L 437.806815 540.4928 
L 437.248977 541.8172 
L 438.770886 543.1416 
L 439.049805 544.466 
L 438.123579 545.7904 
L 439.084233 547.1148 
L 439.418193 548.4392 
L 440.124069 549.7636 
L 440.124069 551.088 
L 440.124069 551.088 
" clip-path="url(#p7ceb89b858)" style="fill: none; stroke: #0074ff; stroke-width: 4; stroke-linecap: square"/>
   </g>
   <g id="line2d_18">
    <path d="M 538.010382 74.304 
L 549.052967 75.6284 
L 549.052967 76.9528 
L 547.802549 78.2772 
L 547.802549 83.5748 
L 548.310025 84.8992 
L 548.310025 87.548 
L 548.533309 88.8724 
L 550.863636 90.1968 
L 550.92046 92.8456 
L 555.455249 94.17 
L 555.495842 96.8188 
L 557.432341 98.1432 
L 557.49325 99.4676 
L 558.971037 100.792 
L 560.2336 102.1164 
L 560.32292 103.4408 
L 561.881857 104.7652 
L 562.957719 106.0896 
L 563.055136 107.414 
L 560.911621 108.7384 
L 559.446016 110.0628 
L 559.178091 111.3872 
L 553.859729 112.7116 
L 552.532209 114.036 
L 552.698669 115.3604 
L 549.779678 116.6848 
L 549.763411 118.0092 
L 547.960875 119.3336 
L 546.998735 120.658 
L 547.238249 121.9824 
L 546.686131 123.3068 
L 546.012195 124.6312 
L 546.174569 125.9556 
L 545.679312 127.28 
L 545.529082 128.6044 
L 545.947237 129.9288 
L 544.912007 131.2532 
L 545.654948 132.5776 
L 545.654948 133.902 
L 545.074381 135.2264 
L 545.411349 136.5508 
L 545.411349 137.8752 
L 546.000013 139.1996 
L 546.751051 140.524 
L 547.826912 141.8484 
L 547.826912 143.1728 
L 548.098923 144.4972 
L 549.016458 145.8216 
L 549.097609 147.146 
L 549.422432 148.4704 
L 549.536079 149.7948 
L 549.402079 151.1192 
L 549.743133 153.768 
L 550.084186 155.0924 
L 550.258743 156.4168 
L 551.4523 157.7412 
L 550.758085 159.0656 
L 550.758085 160.39 
L 552.008503 161.7144 
L 551.249332 164.3632 
L 551.249332 165.6876 
L 550.611941 167.012 
L 549.799994 168.3364 
L 549.637582 169.6608 
L 549.073245 170.9852 
L 547.70918 172.3096 
L 547.181425 173.634 
L 546.527767 174.9584 
L 545.719906 176.2828 
L 545.224574 177.6072 
L 544.213707 178.9316 
L 540.758865 180.256 
L 539.069976 181.5804 
L 535.079209 182.9048 
L 533.991166 185.5536 
L 531.047848 186.878 
L 529.955757 189.5268 
L 528.116675 190.8512 
L 527.235723 193.5 
L 524.74302 194.8244 
L 523.809255 197.4732 
L 521.535751 198.7976 
L 521.125767 200.122 
L 520.508654 201.4464 
L 518.312326 202.7708 
L 518.312326 204.0952 
L 516.347379 205.4196 
L 515.998229 206.744 
L 515.998229 208.0684 
L 513.631393 209.3928 
L 513.408109 210.7172 
L 513.408109 212.0416 
L 510.996594 213.366 
L 510.724584 214.6904 
L 510.217107 216.0148 
L 508.589165 217.3392 
L 507.915229 219.988 
L 505.934051 221.3124 
L 505.934051 222.6368 
L 504.269526 223.9612 
L 503.753953 225.2856 
L 503.753953 226.61 
L 500.636042 227.9344 
L 499.12171 229.2588 
L 499.12171 230.5832 
L 495.691232 231.9076 
L 494.554498 233.232 
L 494.554498 234.5564 
L 492.504278 235.8808 
L 491.420357 237.2052 
L 491.420357 238.5296 
L 488.830163 239.854 
L 488.40796 241.1784 
L 488.40796 242.5028 
L 485.517418 243.8272 
L 485.517418 245.1516 
L 483.946262 246.476 
L 482.643068 247.8004 
L 482.643068 249.1248 
L 480.154451 250.4492 
L 479.305922 251.7736 
L 479.305922 253.098 
L 476.727984 254.4224 
L 476.322011 255.7468 
L 476.322011 257.0712 
L 473.979501 258.3956 
L 473.650667 259.72 
L 473.650667 261.0444 
L 471.405612 262.3688 
L 471.056462 263.6932 
L 471.056462 265.0176 
L 468.770813 266.342 
L 468.490706 267.6664 
L 467.098192 268.9908 
L 466.046694 270.3152 
L 465.401207 271.6396 
L 464.024922 272.964 
L 463.610852 274.2884 
L 462.940965 275.6128 
L 461.621541 276.9372 
L 461.3333 278.2616 
L 460.708091 279.586 
L 458.621363 280.9104 
L 457.9231 283.5592 
L 455.799826 284.8836 
L 455.174617 286.208 
L 453.806467 287.5324 
L 453.339584 288.8568 
L 453.022931 290.1812 
L 451.427449 291.5056 
L 451.228529 292.83 
L 450.883427 294.1544 
L 449.35695 295.4788 
L 449.153945 296.8032 
L 448.776383 298.1276 
L 447.635602 299.452 
L 447.509772 300.7764 
L 447.209313 302.1008 
L 446.165948 303.4252 
L 446.052301 304.7496 
L 445.764023 306.074 
L 444.830295 307.3984 
L 444.720659 308.7228 
L 443.689513 310.0472 
L 443.689513 311.3716 
L 443.510872 312.696 
L 442.150818 314.0204 
L 442.150818 315.3448 
L 442.03717 316.6692 
L 441.17241 317.9936 
L 441.123683 320.6424 
L 440.234597 321.9668 
L 440.177773 323.2912 
L 439.995121 324.6156 
L 438.870532 325.94 
L 438.671612 327.2644 
L 437.295365 328.5888 
L 437.295365 329.9132 
L 436.812252 331.2376 
L 434.351973 332.562 
L 434.351973 333.8864 
L 433.698389 335.2108 
L 430.726604 336.5352 
L 430.726604 337.8596 
L 430.25974 339.184 
L 427.308289 340.5084 
L 427.308289 341.8328 
L 426.557214 343.1572 
L 423.987373 344.4816 
L 423.987373 345.806 
L 422.469011 347.1304 
L 420.483785 348.4548 
L 420.483785 349.7792 
L 417.252189 351.1036 
L 416.590472 352.428 
L 416.590472 353.7524 
L 414.044994 355.0768 
L 413.549681 357.7256 
L 412.956932 359.05 
L 412.887927 360.3744 
L 411.682188 365.672 
L 411.182845 366.9964 
L 410.874289 369.6452 
L 410.971706 372.294 
L 410.358679 373.6184 
L 410.346516 376.2672 
L 409.928342 377.5916 
L 409.875567 378.916 
L 410.362765 389.5112 
L 410.772786 392.16 
L 410.772786 393.4844 
L 410.890538 394.8088 
L 411.138185 396.1332 
L 411.105706 398.782 
L 411.503546 400.1064 
L 411.605049 402.7552 
L 412.22621 404.0796 
L 412.22621 405.404 
L 412.912291 408.0528 
L 412.912291 409.3772 
L 413.318264 410.7016 
L 413.931291 412.026 
L 414.34135 413.3504 
L 414.946244 414.6748 
L 415.076158 415.9992 
L 416.111407 417.3236 
L 416.809689 418.648 
L 416.829967 419.9724 
L 417.36994 421.2968 
L 418.303687 422.6212 
L 418.490444 423.9456 
L 418.932944 425.27 
L 420.248338 426.5944 
L 420.248338 427.9188 
L 420.666475 429.2432 
L 421.742336 430.5676 
L 422.095534 431.892 
L 423.764089 433.2164 
L 424.267517 435.8652 
L 425.887344 437.1896 
L 426.484123 439.8384 
L 428.416592 441.1628 
L 428.936269 443.8116 
L 430.681962 445.136 
L 431.152912 446.4604 
L 431.400522 447.7848 
L 434.473791 449.1092 
L 435.362914 450.4336 
L 435.362914 451.758 
L 436.430605 453.0824 
L 437.279098 454.4068 
L 439.118179 455.7312 
L 439.118179 457.0556 
L 439.816479 458.38 
L 441.111539 459.7044 
L 441.882892 462.3532 
L 444.468963 465.002 
L 444.468963 466.3264 
L 448.573415 468.9752 
L 448.573415 470.2996 
L 449.807566 471.624 
L 450.018668 472.9484 
L 450.018668 474.2728 
L 450.63578 475.5972 
L 450.623598 476.9216 
L 451.00116 479.5704 
L 450.530229 480.8948 
L 449.888753 482.2192 
L 450.132389 483.5436 
L 450.229806 484.868 
L 449.933432 486.1924 
L 449.994341 488.8412 
L 449.791336 490.1656 
L 449.714197 491.49 
L 449.844111 492.8144 
L 450.241951 494.1388 
L 450.449005 496.7876 
L 450.400315 499.4364 
L 450.85093 500.7608 
L 450.363769 502.0852 
L 451.593872 506.0584 
L 451.557363 508.7072 
L 451.833422 511.356 
L 452.974204 512.6804 
L 453.692782 515.3292 
L 455.962201 516.6536 
L 456.782281 517.978 
L 457.902785 519.3024 
L 457.671405 520.6268 
L 457.318207 521.9512 
L 457.411539 523.2756 
L 456.944656 524.6 
L 456.904099 525.9244 
L 457.460266 527.2488 
L 455.572457 528.5732 
L 456.128661 529.8976 
L 456.270757 531.222 
L 456.075885 532.5464 
L 456.644233 533.8708 
L 456.457495 535.1952 
L 456.457495 536.5196 
L 458.260068 537.844 
L 457.172025 539.1684 
L 457.172025 540.4928 
L 457.886518 541.8172 
L 457.886518 544.466 
L 459.542909 545.7904 
L 459.542909 548.4392 
L 459.802775 549.7636 
L 459.802775 551.088 
L 459.802775 551.088 
" clip-path="url(#p7ceb89b858)" style="fill: none; stroke: #00d9ff; stroke-width: 4; stroke-linecap: square"/>
   </g>
   <g id="line2d_19">
    <path d="M 725.483594 96.8188 
L 725.483594 99.4676 
L 720.647194 100.792 
L 720.647194 102.1164 
L 709.292265 103.4408 
L 704.002166 104.7652 
L 707.24483 106.0896 
L 709.773706 107.414 
L 709.458242 110.0628 
L 709.369738 112.7116 
L 709.115183 115.3604 
L 708.478832 116.6848 
L 707.886751 119.3336 
L 707.842444 120.658 
L 707.554686 121.9824 
L 705.363409 123.3068 
L 705.108891 124.6312 
L 704.644051 125.9556 
L 704.660653 127.28 
L 704.383962 128.6044 
L 703.896987 129.9288 
L 703.531756 132.5776 
L 703.592665 139.1996 
L 703.111223 141.8484 
L 702.768127 143.1728 
L 702.96181 144.4972 
L 702.657451 145.8216 
L 702.823465 147.146 
L 702.286723 152.4436 
L 702.059837 153.768 
L 701.960265 155.0924 
L 701.539696 157.7412 
L 701.191066 160.39 
L 700.632151 161.7144 
L 700.587918 163.0388 
L 700.405302 164.3632 
L 699.542065 165.6876 
L 699.553133 167.012 
L 698.922279 168.3364 
L 698.440838 169.6608 
L 698.27486 170.9852 
L 697.538901 172.3096 
L 696.930219 173.634 
L 696.498582 174.9584 
L 695.906465 176.2828 
L 695.187107 177.6072 
L 694.678033 178.9316 
L 694.301734 180.256 
L 693.4717 181.5804 
L 693.322288 182.9048 
L 692.564193 184.2292 
L 691.020335 185.5536 
L 690.549924 186.878 
L 689.719927 188.2024 
L 688.519127 189.5268 
L 688.281174 190.8512 
L 687.108043 192.1756 
L 686.477226 193.5 
L 685.132548 194.8244 
L 684.097763 196.1488 
L 683.328601 197.4732 
L 681.817908 198.7976 
L 681.08752 200.122 
L 677.070086 204.0952 
L 676.223451 205.4196 
L 674.912012 206.744 
L 674.054309 208.0684 
L 672.742797 209.3928 
L 669.704884 212.0416 
L 669.273247 213.366 
L 667.928569 214.6904 
L 667.231383 216.0148 
L 665.277986 217.3392 
L 664.398148 218.6636 
L 662.660569 219.988 
L 661.548348 221.3124 
L 659.511981 222.6368 
L 658.87563 223.9612 
L 656.219476 225.2856 
L 655.206826 226.61 
L 653.275601 227.9344 
L 651.051084 229.2588 
L 650.442403 230.5832 
L 648.538847 231.9076 
L 646.286661 233.232 
L 644.598924 234.5564 
L 643.735687 235.8808 
L 635.14755 237.2052 
L 634.1349 238.5296 
L 631.666896 239.854 
L 628.036866 241.1784 
L 625.436051 242.5028 
L 620.693763 243.8272 
L 617.213146 245.1516 
L 615.326191 246.476 
L 612.614699 247.8004 
L 604.535636 249.1248 
L 603.229694 250.4492 
L 600.296887 251.7736 
L 592.843144 253.098 
L 589.096905 254.4224 
L 586.739577 255.7468 
L 580.9293 257.0712 
L 569.55777 258.3956 
L 567.078698 259.72 
L 563.741923 261.0444 
L 559.165649 262.3688 
L 553.349839 263.6932 
L 549.764042 265.0176 
L 545.232039 266.342 
L 539.371922 267.6664 
L 532.587732 268.9908 
L 529.311866 270.3152 
L 526.589344 271.6396 
L 520.26992 272.964 
L 517.613841 274.2884 
L 514.520553 275.6128 
L 512.218563 276.9372 
L 508.499993 278.2616 
L 505.456472 279.586 
L 501.566353 280.9104 
L 499.72924 282.2348 
L 496.082572 283.5592 
L 492.862007 284.8836 
L 490.94185 286.208 
L 487.400361 287.5324 
L 484.760808 288.8568 
L 482.6359 290.1812 
L 477.462012 292.83 
L 475.05488 294.1544 
L 473.212196 295.4788 
L 470.362359 296.8032 
L 468.552878 298.1276 
L 464.280963 299.452 
L 463.367922 300.7764 
L 459.854102 302.1008 
L 457.308625 303.4252 
L 455.371866 304.7496 
L 453.66749 306.074 
L 450.712548 307.3984 
L 448.560008 308.7228 
L 445.30624 310.0472 
L 443.264339 311.3716 
L 439.767083 312.696 
L 437.526002 314.0204 
L 435.59474 315.3448 
L 431.018485 316.6692 
L 429.197936 317.9936 
L 426.431125 319.318 
L 424.477765 320.6424 
L 421.218463 321.9668 
L 419.536241 323.2912 
L 417.073807 324.6156 
L 414.301481 325.94 
L 408.435848 329.9132 
L 404.584466 331.2376 
L 403.34493 332.562 
L 401.480111 333.8864 
L 398.099084 335.2108 
L 395.332272 336.5352 
L 393.223966 337.8596 
L 390.888791 339.184 
L 388.205006 340.5084 
L 386.428709 341.8328 
L 382.925957 343.1572 
L 380.983646 344.4816 
L 375.521981 347.1304 
L 374.299065 348.4548 
L 371.753606 349.7792 
L 368.494304 351.1036 
L 367.824732 352.428 
L 363.248458 355.0768 
L 361.02396 356.4012 
L 359.817608 357.7256 
L 358.771774 359.05 
L 355.185996 360.3744 
L 354.355943 361.6988 
L 351.755165 364.3476 
L 349.746467 365.672 
L 348.252394 366.9964 
L 347.123534 368.3208 
L 344.854766 369.6452 
L 343.227882 370.9696 
L 338.81207 373.6184 
L 335.923514 374.9428 
L 333.416792 376.2672 
L 332.299 377.5916 
L 330.489519 378.916 
L 327.263438 381.5648 
L 325.105327 382.8892 
L 324.087144 384.2136 
L 321.663429 385.538 
L 320.058698 386.8624 
L 319.095853 388.1868 
L 318.697437 389.5112 
L 315.775679 390.8356 
L 315.460271 392.16 
L 314.713244 393.4844 
L 312.267375 394.8088 
L 310.917181 396.1332 
L 310.734565 397.4576 
L 308.941686 398.782 
L 308.570939 400.1064 
L 307.879232 401.4308 
L 307.868164 402.7552 
L 307.591492 404.0796 
L 306.755906 406.7284 
L 306.534572 408.0528 
L 306.556689 409.3772 
L 305.831797 410.7016 
L 305.394644 412.026 
L 303.004132 415.9992 
L 301.781198 417.3236 
L 301.144828 418.648 
L 300.126663 419.9724 
L 299.866574 421.2968 
L 298.477644 422.6212 
L 297.470528 423.9456 
L 297.204924 425.27 
L 296.07053 426.5944 
L 295.251545 427.9188 
L 295.063395 429.2432 
L 294.017561 430.5676 
L 293.696619 431.892 
L 292.960641 433.2164 
L 292.49582 434.5408 
L 291.853917 435.8652 
L 290.780413 437.1896 
L 289.734542 439.8384 
L 288.838102 441.1628 
L 286.674457 445.136 
L 286.193053 446.4604 
L 284.649176 449.1092 
L 283.713981 450.4336 
L 283.420708 451.758 
L 282.142454 453.0824 
L 281.268149 454.4068 
L 280.664983 455.7312 
L 278.567744 458.38 
L 277.787514 461.0288 
L 275.712401 463.6776 
L 274.328995 466.3264 
L 272.552717 467.6508 
L 272.071294 468.9752 
L 271.202514 470.2996 
L 268.989074 472.9484 
L 268.275241 474.2728 
L 266.642823 476.9216 
L 265.287096 478.246 
L 264.706073 479.5704 
L 263.477605 480.8948 
L 262.420685 482.2192 
L 261.80646 483.5436 
L 260.030172 484.868 
L 259.465743 486.1924 
L 258.342426 487.5168 
L 256.621476 488.8412 
L 255.127404 490.1656 
L 254.20882 491.49 
L 252.211198 492.8144 
L 251.126609 494.1388 
L 247.092611 498.112 
L 245.936082 499.4364 
L 244.043594 500.7608 
L 243.196949 502.0852 
L 240.817504 504.734 
L 238.913949 506.0584 
L 238.083905 507.3828 
L 236.694975 508.7072 
L 235.045965 510.0316 
L 233.928173 511.356 
L 233.1424 512.6804 
L 230.989832 514.0048 
L 229.855438 515.3292 
L 228.870458 516.6536 
L 225.793771 519.3024 
L 225.085481 520.6268 
L 223.37559 521.9512 
L 222.473616 523.2756 
L 221.112346 524.6 
L 220.404046 525.9244 
L 219.562945 527.2488 
L 218.229343 528.5732 
L 216.580324 531.222 
L 215.540014 532.5464 
L 215.523413 533.8708 
L 213.697321 535.1952 
L 213.641983 536.5196 
L 212.662536 537.844 
L 212.081505 539.1684 
L 212.430125 540.4928 
L 212.258587 541.8172 
L 213.647517 543.1416 
L 214.510763 544.466 
L 212.247519 547.1148 
L 211.456212 548.4392 
L 211.456212 551.088 
L 211.456212 551.088 
" clip-path="url(#p7ceb89b858)" style="fill: none; stroke: #00ffc1; stroke-width: 4; stroke-linecap: square"/>
   </g>
   <g id="line2d_20">
    <path d="M 727.463212 123.3068 
L 727.463212 127.28 
L 722.346667 128.6044 
L 722.61099 129.9288 
L 722.61099 131.2532 
L 720.760433 132.5776 
L 720.826541 133.902 
L 720.369426 135.2264 
L 721.889515 136.5508 
L 721.630652 137.8752 
L 721.652713 139.1996 
L 716.728886 140.524 
L 716.558155 141.8484 
L 718.04519 143.1728 
L 717.979118 147.146 
L 718.1884 148.4704 
L 718.001142 152.4436 
L 718.381192 153.768 
L 718.480318 155.0924 
L 714.81222 156.4168 
L 714.911346 157.7412 
L 714.762638 159.0656 
L 713.088309 160.39 
L 713.088309 161.7144 
L 711.794029 163.0388 
L 711.667345 164.3632 
L 710.136263 165.6876 
L 710.202335 168.3364 
L 707.376935 169.6608 
L 706.881232 170.9852 
L 706.220332 172.3096 
L 705.23446 173.634 
L 703.741892 176.2828 
L 703.631736 177.6072 
L 701.351584 178.9316 
L 701.004625 180.256 
L 700.283076 181.5804 
L 699.820464 182.9048 
L 698.4821 184.2292 
L 697.925822 185.5536 
L 697.826696 186.878 
L 689.724978 188.2024 
L 688.215882 189.5268 
L 686.932596 190.8512 
L 683.622524 192.1756 
L 682.785396 194.8244 
L 682.581574 196.1488 
L 671.726061 197.4732 
L 671.847211 198.7976 
L 670.877903 200.122 
L 665.810903 201.4464 
L 665.216037 202.7708 
L 665.33169 204.0952 
L 662.528315 205.4196 
L 661.134872 208.0684 
L 660.578631 209.3928 
L 658.381078 210.7172 
L 657.42826 212.0416 
L 656.838928 213.366 
L 654.927796 214.6904 
L 653.793217 216.0148 
L 652.047319 217.3392 
L 649.976449 218.6636 
L 648.103867 221.3124 
L 646.319381 222.6368 
L 644.84334 223.9612 
L 642.172144 225.2856 
L 641.230357 226.61 
L 640.112305 227.9344 
L 638.647257 229.2588 
L 637.793565 230.5832 
L 634.709302 231.9076 
L 633.046003 233.232 
L 632.858745 234.5564 
L 632.010587 235.8808 
L 629.71387 237.2052 
L 628.590322 238.5296 
L 625.709881 239.854 
L 622.273089 241.1784 
L 616.98028 242.5028 
L 616.842566 243.8272 
L 614.248473 245.1516 
L 610.596939 246.476 
L 609.880924 247.8004 
L 604.472461 249.1248 
L 603.403954 250.4492 
L 598.816092 251.7736 
L 598.507684 253.098 
L 596.161424 254.4224 
L 593.517786 255.7468 
L 592.520921 257.0712 
L 587.83943 258.3956 
L 586.908636 259.72 
L 584.457716 261.0444 
L 580.007569 262.3688 
L 577.071976 265.0176 
L 575.975985 266.342 
L 568.463561 267.6664 
L 567.290468 268.9908 
L 564.498086 270.3152 
L 558.54434 271.6396 
L 557.222502 272.964 
L 555.564737 274.2884 
L 549.440259 275.6128 
L 546.477146 278.2616 
L 543.987675 279.586 
L 539.251143 280.9104 
L 537.995377 282.2348 
L 536.293564 283.5592 
L 531.066789 284.8836 
L 529.601778 286.208 
L 528.401128 287.5324 
L 521.797512 288.8568 
L 521.527618 290.1812 
L 518.691188 292.83 
L 514.075769 294.1544 
L 512.594231 295.4788 
L 511.294454 296.8032 
L 505.197497 298.1276 
L 504.734886 299.452 
L 503.677409 300.7764 
L 499.596243 302.1008 
L 498.373569 303.4252 
L 496.743287 304.7496 
L 494.490655 306.074 
L 490.057035 307.3984 
L 489.638434 308.7228 
L 488.481868 310.0472 
L 485.177293 311.3716 
L 483.789347 312.696 
L 482.627247 314.0204 
L 479.240036 315.3448 
L 476.838735 316.6692 
L 476.568878 317.9936 
L 473.231211 319.318 
L 471.292559 320.6424 
L 469.722888 321.9668 
L 467.745647 323.2912 
L 465.316788 324.6156 
L 462.364706 325.94 
L 461.962632 327.2644 
L 456.840554 329.9132 
L 455.761052 331.2376 
L 450.391104 332.562 
L 449.355688 333.8864 
L 447.114087 335.2108 
L 446.789115 336.5352 
L 443.572672 337.8596 
L 441.9259 339.184 
L 440.835405 340.5084 
L 436.974515 341.8328 
L 435.515001 343.1572 
L 432.893387 344.4816 
L 430.64629 345.806 
L 427.776806 347.1304 
L 427.264594 348.4548 
L 425.606791 349.7792 
L 421.999305 351.1036 
L 420.214838 352.428 
L 417.213192 353.7524 
L 414.558506 355.0768 
L 412.38851 356.4012 
L 412.162682 357.7256 
L 408.263279 359.05 
L 405.327723 361.6988 
L 403.433099 363.0232 
L 401.048288 364.3476 
L 399.170191 365.672 
L 398.713077 366.9964 
L 394.758576 368.3208 
L 393.023671 369.6452 
L 391.839548 370.9696 
L 386.805565 372.294 
L 386.491642 373.6184 
L 384.6466 374.9428 
L 384.272065 376.2672 
L 381.077646 377.5916 
L 378.797494 380.2404 
L 375.16245 381.5648 
L 375.013743 382.8892 
L 373.124635 384.2136 
L 371.543952 385.538 
L 371.042734 386.8624 
L 369.979779 388.1868 
L 365.683835 390.8356 
L 365.193647 392.16 
L 362.561003 393.4844 
L 360.633325 394.8088 
L 358.975541 396.1332 
L 356.970761 397.4576 
L 354.117822 398.782 
L 352.66932 400.1064 
L 352.42145 401.4308 
L 347.866662 402.7552 
L 347.800572 404.0796 
L 347.084593 405.404 
L 346.032613 406.7284 
L 343.311854 408.0528 
L 341.945969 409.3772 
L 341.91843 410.7016 
L 338.178746 412.026 
L 338.002499 413.3504 
L 336.763279 414.6748 
L 334.273845 415.9992 
L 333.420153 417.3236 
L 330.914192 418.648 
L 330.539676 419.9724 
L 326.623745 421.2968 
L 326.320834 422.6212 
L 325.489184 423.9456 
L 321.363953 425.27 
L 320.339548 426.5944 
L 318.119971 427.9188 
L 315.531393 429.2432 
L 313.835039 430.5676 
L 313.328343 431.892 
L 312.469136 433.2164 
L 308.955279 434.5408 
L 307.991449 435.8652 
L 304.934707 437.1896 
L 301.250119 438.514 
L 299.911754 439.8384 
L 299.636382 441.1628 
L 295.593787 442.4872 
L 294.128757 443.8116 
L 293.335659 445.136 
L 285.663535 449.1092 
L 284.936526 450.4336 
L 282.270846 451.758 
L 280.436797 453.0824 
L 279.996191 454.4068 
L 273.276884 455.7312 
L 272.792212 457.0556 
L 269.603308 458.38 
L 265.957262 459.7044 
L 263.181416 461.0288 
L 262.625139 462.3532 
L 261.721893 463.6776 
L 256.071067 465.002 
L 255.735101 466.3264 
L 253.152029 467.6508 
L 248.993771 468.9752 
L 246.520846 470.2996 
L 245.132919 471.624 
L 241.101335 472.9484 
L 237.9675 474.2728 
L 237.26804 475.5972 
L 234.971351 476.9216 
L 230.851645 478.246 
L 228.593526 479.5704 
L 227.7839 480.8948 
L 223.697238 482.2192 
L 221.235334 483.5436 
L 220.607469 484.868 
L 215.088823 486.1924 
L 214.152533 487.5168 
L 211.839326 488.8412 
L 211.316103 490.1656 
L 207.995001 491.49 
L 206.199512 492.8144 
L 205.747885 494.1388 
L 202.101838 495.4632 
L 202.140389 496.7876 
L 197.502979 499.4364 
L 197.288182 500.7608 
L 195.355002 502.0852 
L 195.34399 503.4096 
L 194.578426 504.734 
L 193.631114 506.0584 
L 193.080352 507.3828 
L 194.754672 508.7072 
L 195.00251 510.0316 
L 194.947436 511.356 
L 196.324343 512.6804 
L 195.856197 514.0048 
L 196.792493 515.3292 
L 197.106429 516.6536 
L 199.204834 517.978 
L 199.876764 519.3024 
L 201.644714 520.6268 
L 200.609279 521.9512 
L 201.567603 523.2756 
L 201.633693 524.6 
L 193.355733 525.9244 
L 191.868675 527.2488 
L 190.871796 528.5732 
L 188.817453 529.8976 
L 187.875647 531.222 
L 186.531786 532.5464 
L 184.152489 533.8708 
L 180.225556 535.1952 
L 180.010754 536.5196 
L 178.281365 537.844 
L 172.823307 539.1684 
L 171.584092 540.4928 
L 169.694978 541.8172 
L 169.557283 543.1416 
L 171.088403 544.466 
L 170.108046 545.7904 
L 168.296039 547.1148 
L 170.455028 548.4392 
L 171.418857 549.7636 
L 170.994774 551.088 
L 170.994774 551.088 
" clip-path="url(#p7ceb89b858)" style="fill: none; stroke: #00ff5c; stroke-width: 4; stroke-linecap: square"/>
   </g>
   <g id="line2d_21">
    <path d="M 564.220504 76.2906 
L 564.73084 77.615 
L 566.389497 78.9394 
L 569.196401 80.2638 
L 570.599871 81.5882 
L 573.024051 82.9126 
L 574.299872 84.237 
L 574.682671 85.5614 
L 574.299872 86.8858 
L 573.534387 88.2102 
L 573.789536 89.5346 
L 573.2792 90.859 
L 570.855058 93.5078 
L 569.961923 94.8322 
L 568.686065 96.1566 
L 566.644684 98.8054 
L 566.644684 100.1298 
L 566.006736 101.4542 
L 564.986027 102.7786 
L 563.710168 104.103 
L 562.179123 105.4274 
L 561.030839 106.7518 
L 560.265317 108.0762 
L 558.861846 109.4006 
L 557.841137 110.725 
L 557.585988 112.0494 
L 556.94804 113.3738 
L 557.458413 114.6982 
L 558.479085 116.0226 
L 560.265317 117.347 
L 565.879124 119.9958 
L 568.303304 121.3202 
L 571.748155 123.969 
L 574.044723 125.2934 
L 575.830917 126.6178 
L 577.106813 127.9422 
L 579.65853 129.2666 
L 582.465471 130.591 
L 586.037897 131.9154 
L 594.713832 134.5642 
L 599.434542 135.8886 
L 605.048386 137.213 
L 611.172604 138.5374 
L 621.889919 141.1862 
L 626.100293 142.5106 
L 629.67272 143.835 
L 638.093468 146.4838 
L 641.665931 147.8082 
L 645.748693 149.1326 
L 655.572912 153.1058 
L 657.614293 154.4302 
L 660.293622 155.7546 
L 664.503996 158.4034 
L 666.035041 159.7278 
L 667.310936 161.0522 
L 667.566086 162.3766 
L 668.331646 163.701 
L 668.71437 165.0254 
L 671.904072 170.323 
L 672.286796 171.6474 
L 672.541982 172.9718 
L 673.17993 174.2962 
L 675.476535 178.2694 
L 679.942059 182.2426 
L 681.98344 183.567 
L 683.642059 184.8914 
L 685.555903 186.2158 
L 690.659374 190.189 
L 693.211091 192.8378 
L 693.976651 194.1622 
L 695.124935 195.4866 
L 695.89042 196.811 
L 696.911167 199.4598 
L 698.059413 203.433 
L 698.3146 204.7574 
L 698.697361 206.0818 
L 699.207697 208.7306 
L 699.207697 210.055 
L 699.718033 211.3794 
L 699.845645 212.7038 
L 700.100831 214.0282 
L 700.228406 215.3526 
L 700.993929 218.0014 
L 701.249078 220.6502 
L 701.887026 221.9746 
L 702.142213 223.299 
L 701.631877 225.9478 
L 701.504265 227.2722 
L 701.121541 228.5966 
L 700.611205 229.921 
L 699.845645 232.5698 
L 700.100831 233.8942 
L 699.973257 235.2186 
L 698.952548 236.543 
L 698.3146 237.8674 
L 697.931839 239.1918 
L 697.038704 240.5162 
L 696.528368 241.8406 
L 694.869748 244.4894 
L 694.742174 245.8138 
L 694.486987 247.1382 
L 694.104226 248.4626 
L 695.762883 249.787 
L 697.166316 251.1114 
L 699.335309 252.4358 
L 699.080122 253.7602 
L 701.759451 255.0846 
L 704.183631 256.409 
L 706.86296 257.7334 
L 708.266393 259.0578 
L 710.690573 260.3822 
L 715.028521 261.7066 
L 720.387179 264.3554 
L 721.535463 265.6798 
L 723.449269 267.0042 
L 726.638934 268.3286 
L 728.680315 269.653 
L 728.425166 270.9774 
L 728.425166 272.3018 
L 728.935539 273.6262 
L 729.701024 274.9506 
L 729.573487 276.275 
L 727.404494 277.5994 
L 725.618262 278.9238 
L 725.235501 280.2482 
L 723.321657 281.5726 
L 721.663038 282.897 
L 720.387179 284.2214 
L 718.218223 285.5458 
L 716.431992 286.8702 
L 711.966394 289.519 
L 710.052625 290.8434 
L 704.693967 293.4922 
L 701.249078 296.141 
L 698.952548 297.4654 
L 697.931839 298.7898 
L 697.166316 300.1142 
L 697.038704 301.4386 
L 697.166316 302.763 
L 696.528368 304.0874 
L 695.380084 305.4118 
L 695.507696 306.7362 
L 695.380084 308.0606 
L 694.359375 310.7094 
L 694.231838 312.0338 
L 693.976651 313.3582 
L 693.211091 314.6826 
L 692.828367 316.007 
L 692.955942 317.3314 
L 692.317994 318.6558 
L 692.700755 319.9802 
L 692.700755 321.3046 
L 691.680046 322.629 
L 691.552509 323.9534 
L 691.16971 325.2778 
L 691.16971 326.6022 
L 690.786949 327.9266 
L 690.786949 329.251 
L 690.659374 330.5754 
L 690.149001 331.8998 
L 690.276613 333.2242 
L 690.149001 334.5486 
L 690.149001 335.873 
L 690.276613 337.1974 
L 689.766277 339.8462 
L 690.404225 341.1706 
L 690.276613 342.495 
L 690.531762 343.8194 
L 690.914561 345.1438 
L 690.276613 346.4682 
L 689.51109 350.4414 
L 688.235232 353.0902 
L 687.724896 354.4146 
L 687.724896 355.739 
L 685.428291 358.3878 
L 685.173105 359.7122 
L 684.280007 361.0366 
L 683.769671 362.361 
L 682.493776 365.0098 
L 681.217917 366.3342 
L 680.707581 367.6586 
L 680.707581 368.983 
L 679.814447 370.3074 
L 679.431685 371.6318 
L 678.921349 372.9562 
L 678.283402 374.2806 
L 677.517916 375.605 
L 677.26273 376.9294 
L 675.731685 378.2538 
L 675.859259 379.5782 
L 675.093737 380.9026 
L 674.583401 382.227 
L 673.817878 383.5514 
L 674.200639 384.8758 
L 673.052356 386.2002 
L 672.541982 387.5246 
L 672.286796 388.849 
L 672.286796 390.1734 
L 672.414408 391.4978 
L 672.924744 392.8222 
L 672.669594 395.471 
L 660.166047 396.7954 
L 545.847926 399.4442 
L 387.001978 402.093 
L 300.242706 403.4174 
L 260.307921 404.7418 
L 256.990663 406.0662 
L 227.262858 407.3906 
L 187.328078 408.715 
L 138.462201 410.0394 
L 131.31732 411.3638 
L 131.31732 419.3102 
L 130.551797 420.6346 
L 123.27933 421.959 
L 123.27933 421.959 
" clip-path="url(#p7ceb89b858)" style="fill: none; stroke: #08ff00; stroke-width: 4; stroke-linecap: square"/>
   </g>
   <g id="line2d_22">
    <path d="M 0 0 
" clip-path="url(#p7ceb89b858)" style="fill: none; stroke: #6cff00; stroke-width: 4; stroke-linecap: square"/>
   </g>
   <g id="patch_3">
    <path d="M 120.6 551.088 
L 120.6 74.304 
" style="fill: none; stroke: #000000; stroke-width: 0.8; stroke-linejoin: miter; stroke-linecap: square"/>
   </g>
   <g id="patch_4">
    <path d="M 868.32 551.088 
L 868.32 74.304 
" style="fill: none; stroke: #000000; stroke-width: 0.8; stroke-linejoin: miter; stroke-linecap: square"/>
   </g>
   <g id="patch_5">
    <path d="M 120.6 551.088 
L 868.32 551.088 
" style="fill: none; stroke: #000000; stroke-width: 0.8; stroke-linejoin: miter; stroke-linecap: square"/>
   </g>
   <g id="patch_6">
    <path d="M 120.6 74.304 
L 868.32 74.304 
" style="fill: none; stroke: #000000; stroke-width: 0.8; stroke-linejoin: miter; stroke-linecap: square"/>
   </g>
   <g id="legend_1">
    <g id="line2d_23">
     <path d="M 771.69375 93.24225 
L 786.09375 93.24225 
L 800.49375 93.24225 
" style="fill: none; stroke: #b900ff; stroke-width: 4; stroke-linecap: square"/>
    </g>
    <g id="text_16">
     <!-- Ta -->
     <g transform="translate(812.01375 98.28225)scale(0.144 -0.144)">
      <defs>
       <path id="DejaVuSansMono-54" d="M 147 4666 
L 3706 4666 
L 3706 4134 
L 2247 4134 
L 2247 0 
L 1613 0 
L 1613 4134 
L 147 4134 
L 147 4666 
z
" transform="scale(0.015625)"/>
      </defs>
      <use xlink:href="#DejaVuSansMono-54"/>
      <use xlink:href="#DejaVuSansMono-61" x="60.205078"/>
     </g>
    </g>
    <g id="line2d_24">
     <path d="M 771.69375 114.45525 
L 786.09375 114.45525 
L 800.49375 114.45525 
" style="fill: none; stroke: #5400ff; stroke-width: 4; stroke-linecap: square"/>
    </g>
    <g id="text_17">
     <!-- T8 -->
     <g transform="translate(812.01375 119.49525)scale(0.144 -0.144)">
      <defs>
       <path id="DejaVuSansMono-38" d="M 1925 2216 
Q 1503 2216 1273 1980 
Q 1044 1744 1044 1313 
Q 1044 881 1276 642 
Q 1509 403 1925 403 
Q 2350 403 2579 639 
Q 2809 875 2809 1313 
Q 2809 1741 2576 1978 
Q 2344 2216 1925 2216 
z
M 1375 2478 
Q 972 2581 745 2862 
Q 519 3144 519 3541 
Q 519 4097 897 4423 
Q 1275 4750 1925 4750 
Q 2578 4750 2956 4423 
Q 3334 4097 3334 3541 
Q 3334 3144 3107 2862 
Q 2881 2581 2478 2478 
Q 2947 2375 3195 2062 
Q 3444 1750 3444 1253 
Q 3444 622 3041 265 
Q 2638 -91 1925 -91 
Q 1213 -91 811 264 
Q 409 619 409 1247 
Q 409 1747 657 2061 
Q 906 2375 1375 2478 
z
M 1147 3481 
Q 1147 3106 1347 2909 
Q 1547 2713 1925 2713 
Q 2306 2713 2506 2909 
Q 2706 3106 2706 3481 
Q 2706 3863 2507 4063 
Q 2309 4263 1925 4263 
Q 1547 4263 1347 4061 
Q 1147 3859 1147 3481 
z
" transform="scale(0.015625)"/>
      </defs>
      <use xlink:href="#DejaVuSansMono-54"/>
      <use xlink:href="#DejaVuSansMono-38" x="60.205078"/>
     </g>
    </g>
    <g id="line2d_25">
     <path d="M 771.69375 135.66825 
L 786.09375 135.66825 
L 800.49375 135.66825 
" style="fill: none; stroke: #0010ff; stroke-width: 4; stroke-linecap: square"/>
    </g>
    <g id="text_18">
     <!-- T31 -->
     <g transform="translate(812.01375 140.70825)scale(0.144 -0.144)">
      <use xlink:href="#DejaVuSansMono-54"/>
      <use xlink:href="#DejaVuSansMono-33" x="60.205078"/>
      <use xlink:href="#DejaVuSansMono-31" x="120.410156"/>
     </g>
    </g>
    <g id="line2d_26">
     <path d="M 771.69375 156.88125 
L 786.09375 156.88125 
L 800.49375 156.88125 
" style="fill: none; stroke: #0074ff; stroke-width: 4; stroke-linecap: square"/>
    </g>
    <g id="text_19">
     <!-- T61 -->
     <g transform="translate(812.01375 161.92125)scale(0.144 -0.144)">
      <use xlink:href="#DejaVuSansMono-54"/>
      <use xlink:href="#DejaVuSansMono-36" x="60.205078"/>
      <use xlink:href="#DejaVuSansMono-31" x="120.410156"/>
     </g>
    </g>
    <g id="line2d_27">
     <path d="M 771.69375 178.09425 
L 786.09375 178.09425 
L 800.49375 178.09425 
" style="fill: none; stroke: #00d9ff; stroke-width: 4; stroke-linecap: square"/>
    </g>
    <g id="text_20">
     <!-- T67 -->
     <g transform="translate(812.01375 183.13425)scale(0.144 -0.144)">
      <use xlink:href="#DejaVuSansMono-54"/>
      <use xlink:href="#DejaVuSansMono-36" x="60.205078"/>
      <use xlink:href="#DejaVuSansMono-37" x="120.410156"/>
     </g>
    </g>
    <g id="line2d_28">
     <path d="M 771.69375 199.30725 
L 786.09375 199.30725 
L 800.49375 199.30725 
" style="fill: none; stroke: #00ffc1; stroke-width: 4; stroke-linecap: square"/>
    </g>
    <g id="text_21">
     <!-- T85 -->
     <g transform="translate(812.01375 204.34725)scale(0.144 -0.144)">
      <use xlink:href="#DejaVuSansMono-54"/>
      <use xlink:href="#DejaVuSansMono-38" x="60.205078"/>
      <use xlink:href="#DejaVuSansMono-35" x="120.410156"/>
     </g>
    </g>
    <g id="line2d_29">
     <path d="M 771.69375 220.52025 
L 786.09375 220.52025 
L 800.49375 220.52025 
" style="fill: none; stroke: #00ff5c; stroke-width: 4; stroke-linecap: square"/>
    </g>
    <g id="text_22">
     <!-- T108 -->
     <g transform="translate(812.01375 225.56025)scale(0.144 -0.144)">
      <use xlink:href="#DejaVuSansMono-54"/>
      <use xlink:href="#DejaVuSansMono-31" x="60.205078"/>
      <use xlink:href="#DejaVuSansMono-30" x="120.410156"/>
      <use xlink:href="#DejaVuSansMono-38" x="180.615234"/>
     </g>
    </g>
    <g id="line2d_30">
     <path d="M 771.69375 241.73325 
L 786.09375 241.73325 
L 800.49375 241.73325 
" style="fill: none; stroke: #08ff00; stroke-width: 4; stroke-linecap: square"/>
    </g>
    <g id="text_23">
     <!-- 278TI -->
     <g transform="translate(812.01375 246.77325)scale(0.144 -0.144)">
      <defs>
       <path id="DejaVuSansMono-32" d="M 1166 531 
L 3309 531 
L 3309 0 
L 475 0 
L 475 531 
Q 1059 1147 1496 1619 
Q 1934 2091 2100 2284 
Q 2413 2666 2522 2902 
Q 2631 3138 2631 3384 
Q 2631 3775 2401 3997 
Q 2172 4219 1772 4219 
Q 1488 4219 1175 4116 
Q 863 4013 513 3803 
L 513 4441 
Q 834 4594 1145 4672 
Q 1456 4750 1759 4750 
Q 2444 4750 2861 4386 
Q 3278 4022 3278 3431 
Q 3278 3131 3139 2831 
Q 3000 2531 2688 2169 
Q 2513 1966 2180 1606 
Q 1847 1247 1166 531 
z
" transform="scale(0.015625)"/>
      </defs>
      <use xlink:href="#DejaVuSansMono-32"/>
      <use xlink:href="#DejaVuSansMono-37" x="60.205078"/>
      <use xlink:href="#DejaVuSansMono-38" x="120.410156"/>
      <use xlink:href="#DejaVuSansMono-54" x="180.615234"/>
      <use xlink:href="#DejaVuSansMono-49" x="240.820312"/>
     </g>
    </g>
    <g id="line2d_31">
     <path d="M 771.69375 262.94625 
L 786.09375 262.94625 
L 800.49375 262.94625 
" style="fill: none; stroke: #6cff00; stroke-width: 4; stroke-linecap: square"/>
    </g>
    <g id="text_24">
     <!-- 283TI -->
     <g transform="translate(812.01375 267.98625)scale(0.144 -0.144)">
      <use xlink:href="#DejaVuSansMono-32"/>
      <use xlink:href="#DejaVuSansMono-38" x="60.205078"/>
      <use xlink:href="#DejaVuSansMono-33" x="120.410156"/>
      <use xlink:href="#DejaVuSansMono-54" x="180.615234"/>
      <use xlink:href="#DejaVuSansMono-49" x="240.820312"/>
     </g>
    </g>
   </g>
  </g>
  <g id="text_25">
   <!-- 1.00295µm -->
   <g transform="translate(482.4 61.92)scale(0.2 -0.2)">
    <defs>
     <path id="DejaVuSansMono-b5" d="M 609 -1338 
L 609 3500 
L 1184 3500 
L 1184 1325 
Q 1184 881 1371 645 
Q 1559 409 1906 409 
Q 2303 409 2504 675 
Q 2706 941 2706 1459 
L 2706 3500 
L 3284 3500 
L 3284 800 
Q 3284 616 3334 528 
Q 3384 441 3488 441 
Q 3516 441 3561 456 
Q 3606 472 3694 513 
L 3694 50 
Q 3575 -22 3469 -56 
Q 3363 -91 3256 -91 
Q 3063 -91 2945 32 
Q 2828 156 2791 403 
Q 2647 153 2439 31 
Q 2231 -91 1953 -91 
Q 1666 -91 1467 28 
Q 1269 147 1131 397 
L 1131 -1338 
L 609 -1338 
z
" transform="scale(0.015625)"/>
     <path id="DejaVuSansMono-6d" d="M 2113 3144 
Q 2219 3369 2383 3476 
Q 2547 3584 2778 3584 
Q 3200 3584 3373 3257 
Q 3547 2931 3547 2028 
L 3547 0 
L 3022 0 
L 3022 2003 
Q 3022 2744 2939 2923 
Q 2856 3103 2638 3103 
Q 2388 3103 2295 2911 
Q 2203 2719 2203 2003 
L 2203 0 
L 1678 0 
L 1678 2003 
Q 1678 2753 1589 2928 
Q 1500 3103 1269 3103 
Q 1041 3103 952 2911 
Q 863 2719 863 2003 
L 863 0 
L 341 0 
L 341 3500 
L 863 3500 
L 863 3200 
Q 966 3388 1120 3486 
Q 1275 3584 1472 3584 
Q 1709 3584 1867 3475 
Q 2025 3366 2113 3144 
z
" transform="scale(0.015625)"/>
    </defs>
    <use xlink:href="#DejaVuSansMono-31"/>
    <use xlink:href="#DejaVuSansMono-2e" x="60.205078"/>
    <use xlink:href="#DejaVuSansMono-30" x="120.410156"/>
    <use xlink:href="#DejaVuSansMono-30" x="180.615234"/>
    <use xlink:href="#DejaVuSansMono-32" x="240.820312"/>
    <use xlink:href="#DejaVuSansMono-39" x="301.025391"/>
    <use xlink:href="#DejaVuSansMono-35" x="361.230469"/>
    <use xlink:href="#DejaVuSansMono-b5" x="421.435547"/>
    <use xlink:href="#DejaVuSansMono-6d" x="481.640625"/>
   </g>
  </g>
 </g>
 <defs>
  <clipPath id="p7ceb89b858">
   <rect x="120.6" y="74.304" width="747.72" height="476.784"/>
  </clipPath>
 </defs>
</svg>
