<?xml version="1.0" encoding="utf-8" standalone="no"?>
<!DOCTYPE svg PUBLIC "-//W3C//DTD SVG 1.1//EN"
  "http://www.w3.org/Graphics/SVG/1.1/DTD/svg11.dtd">
<svg xmlns:xlink="http://www.w3.org/1999/xlink" width="1008pt" height="720pt" viewBox="0 0 1008 720" xmlns="http://www.w3.org/2000/svg" version="1.1">
 <metadata>
  <rdf:RDF xmlns:dc="http://purl.org/dc/elements/1.1/" xmlns:cc="http://creativecommons.org/ns#" xmlns:rdf="http://www.w3.org/1999/02/22-rdf-syntax-ns#">
   <cc:Work>
    <dc:type rdf:resource="http://purl.org/dc/dcmitype/StillImage"/>
    <dc:date>2023-04-28T20:31:07.909800</dc:date>
    <dc:format>image/svg+xml</dc:format>
    <dc:creator>
     <cc:Agent>
      <dc:title>Matplotlib v3.6.3, https://matplotlib.org/</dc:title>
     </cc:Agent>
    </dc:creator>
   </cc:Work>
  </rdf:RDF>
 </metadata>
 <defs>
  <style type="text/css">*{stroke-linejoin: round; stroke-linecap: butt}</style>
 </defs>
 <g id="figure_1">
  <g id="patch_1">
   <path d="M 0 720 
L 1008 720 
L 1008 0 
L 0 0 
z
" style="fill: #ffffff"/>
  </g>
  <g id="axes_1">
   <g id="patch_2">
    <path d="M 126 640.8 
L 907.2 640.8 
L 907.2 86.4 
L 126 86.4 
z
" style="fill: #ffffff"/>
   </g>
   <g id="matplotlib.axis_1">
    <g id="xtick_1">
     <g id="line2d_1">
      <defs>
       <path id="m7d69d6cb55" d="M 0 0 
L 0 3.5 
" style="stroke: #000000; stroke-width: 0.8"/>
      </defs>
      <g>
       <use xlink:href="#m7d69d6cb55" x="126" y="640.8" style="stroke: #000000; stroke-width: 0.8"/>
      </g>
     </g>
     <g id="text_1">
      <!-- 0.000 -->
      <g transform="translate(86.867969 667.694062) scale(0.26 -0.26)">
       <defs>
        <path id="DejaVuSansMono-30" d="M 1509 2344 
Q 1509 2516 1629 2641 
Q 1750 2766 1919 2766 
Q 2094 2766 2219 2641 
Q 2344 2516 2344 2344 
Q 2344 2169 2220 2047 
Q 2097 1925 1919 1925 
Q 1744 1925 1626 2044 
Q 1509 2163 1509 2344 
z
M 1925 4250 
Q 1484 4250 1267 3775 
Q 1050 3300 1050 2328 
Q 1050 1359 1267 884 
Q 1484 409 1925 409 
Q 2369 409 2586 884 
Q 2803 1359 2803 2328 
Q 2803 3300 2586 3775 
Q 2369 4250 1925 4250 
z
M 1925 4750 
Q 2672 4750 3055 4137 
Q 3438 3525 3438 2328 
Q 3438 1134 3055 521 
Q 2672 -91 1925 -91 
Q 1178 -91 797 521 
Q 416 1134 416 2328 
Q 416 3525 797 4137 
Q 1178 4750 1925 4750 
z
" transform="scale(0.015625)"/>
        <path id="DejaVuSansMono-2e" d="M 1528 953 
L 2316 953 
L 2316 0 
L 1528 0 
L 1528 953 
z
" transform="scale(0.015625)"/>
       </defs>
       <use xlink:href="#DejaVuSansMono-30"/>
       <use xlink:href="#DejaVuSansMono-2e" x="60.205078"/>
       <use xlink:href="#DejaVuSansMono-30" x="120.410156"/>
       <use xlink:href="#DejaVuSansMono-30" x="180.615234"/>
       <use xlink:href="#DejaVuSansMono-30" x="240.820312"/>
      </g>
     </g>
    </g>
    <g id="xtick_2">
     <g id="line2d_2">
      <g>
       <use xlink:href="#m7d69d6cb55" x="282.24" y="640.8" style="stroke: #000000; stroke-width: 0.8"/>
      </g>
     </g>
     <g id="text_2">
      <!-- 0.015 -->
      <g transform="translate(243.107969 667.694062) scale(0.26 -0.26)">
       <defs>
        <path id="DejaVuSansMono-31" d="M 844 531 
L 1825 531 
L 1825 4097 
L 769 3859 
L 769 4434 
L 1819 4666 
L 2450 4666 
L 2450 531 
L 3419 531 
L 3419 0 
L 844 0 
L 844 531 
z
" transform="scale(0.015625)"/>
        <path id="DejaVuSansMono-35" d="M 647 4666 
L 3009 4666 
L 3009 4134 
L 1222 4134 
L 1222 2988 
Q 1356 3038 1492 3061 
Q 1628 3084 1766 3084 
Q 2491 3084 2916 2656 
Q 3341 2228 3341 1497 
Q 3341 759 2895 334 
Q 2450 -91 1678 -91 
Q 1306 -91 998 -41 
Q 691 9 447 109 
L 447 750 
Q 734 594 1025 517 
Q 1316 441 1619 441 
Q 2141 441 2423 716 
Q 2706 991 2706 1497 
Q 2706 1997 2414 2275 
Q 2122 2553 1600 2553 
Q 1347 2553 1106 2495 
Q 866 2438 647 2322 
L 647 4666 
z
" transform="scale(0.015625)"/>
       </defs>
       <use xlink:href="#DejaVuSansMono-30"/>
       <use xlink:href="#DejaVuSansMono-2e" x="60.205078"/>
       <use xlink:href="#DejaVuSansMono-30" x="120.410156"/>
       <use xlink:href="#DejaVuSansMono-31" x="180.615234"/>
       <use xlink:href="#DejaVuSansMono-35" x="240.820312"/>
      </g>
     </g>
    </g>
    <g id="xtick_3">
     <g id="line2d_3">
      <g>
       <use xlink:href="#m7d69d6cb55" x="438.48" y="640.8" style="stroke: #000000; stroke-width: 0.8"/>
      </g>
     </g>
     <g id="text_3">
      <!-- 0.030 -->
      <g transform="translate(399.347969 667.694062) scale(0.26 -0.26)">
       <defs>
        <path id="DejaVuSansMono-33" d="M 2425 2497 
Q 2884 2375 3128 2064 
Q 3372 1753 3372 1288 
Q 3372 644 2939 276 
Q 2506 -91 1741 -91 
Q 1419 -91 1084 -31 
Q 750 28 428 141 
L 428 769 
Q 747 603 1056 522 
Q 1366 441 1672 441 
Q 2191 441 2469 675 
Q 2747 909 2747 1350 
Q 2747 1756 2469 1995 
Q 2191 2234 1716 2234 
L 1234 2234 
L 1234 2753 
L 1716 2753 
Q 2150 2753 2394 2943 
Q 2638 3134 2638 3475 
Q 2638 3834 2411 4026 
Q 2184 4219 1766 4219 
Q 1488 4219 1191 4156 
Q 894 4094 569 3969 
L 569 4550 
Q 947 4650 1242 4700 
Q 1538 4750 1766 4750 
Q 2447 4750 2855 4408 
Q 3263 4066 3263 3500 
Q 3263 3116 3048 2859 
Q 2834 2603 2425 2497 
z
" transform="scale(0.015625)"/>
       </defs>
       <use xlink:href="#DejaVuSansMono-30"/>
       <use xlink:href="#DejaVuSansMono-2e" x="60.205078"/>
       <use xlink:href="#DejaVuSansMono-30" x="120.410156"/>
       <use xlink:href="#DejaVuSansMono-33" x="180.615234"/>
       <use xlink:href="#DejaVuSansMono-30" x="240.820312"/>
      </g>
     </g>
    </g>
    <g id="xtick_4">
     <g id="line2d_4">
      <g>
       <use xlink:href="#m7d69d6cb55" x="594.72" y="640.8" style="stroke: #000000; stroke-width: 0.8"/>
      </g>
     </g>
     <g id="text_4">
      <!-- 0.045 -->
      <g transform="translate(555.587969 667.694062) scale(0.26 -0.26)">
       <defs>
        <path id="DejaVuSansMono-34" d="M 2297 4091 
L 825 1625 
L 2297 1625 
L 2297 4091 
z
M 2194 4666 
L 2925 4666 
L 2925 1625 
L 3547 1625 
L 3547 1113 
L 2925 1113 
L 2925 0 
L 2297 0 
L 2297 1113 
L 319 1113 
L 319 1709 
L 2194 4666 
z
" transform="scale(0.015625)"/>
       </defs>
       <use xlink:href="#DejaVuSansMono-30"/>
       <use xlink:href="#DejaVuSansMono-2e" x="60.205078"/>
       <use xlink:href="#DejaVuSansMono-30" x="120.410156"/>
       <use xlink:href="#DejaVuSansMono-34" x="180.615234"/>
       <use xlink:href="#DejaVuSansMono-35" x="240.820312"/>
      </g>
     </g>
    </g>
    <g id="xtick_5">
     <g id="line2d_5">
      <g>
       <use xlink:href="#m7d69d6cb55" x="750.96" y="640.8" style="stroke: #000000; stroke-width: 0.8"/>
      </g>
     </g>
     <g id="text_5">
      <!-- 0.060 -->
      <g transform="translate(711.827969 667.694062) scale(0.26 -0.26)">
       <defs>
        <path id="DejaVuSansMono-36" d="M 3097 4563 
L 3097 3981 
Q 2900 4097 2678 4158 
Q 2456 4219 2216 4219 
Q 1616 4219 1306 3767 
Q 997 3316 997 2438 
Q 1147 2750 1412 2917 
Q 1678 3084 2022 3084 
Q 2697 3084 3067 2670 
Q 3438 2256 3438 1497 
Q 3438 741 3056 325 
Q 2675 -91 1984 -91 
Q 1172 -91 794 492 
Q 416 1075 416 2328 
Q 416 3509 870 4129 
Q 1325 4750 2188 4750 
Q 2419 4750 2650 4701 
Q 2881 4653 3097 4563 
z
M 1972 2591 
Q 1569 2591 1337 2300 
Q 1106 2009 1106 1497 
Q 1106 984 1337 693 
Q 1569 403 1972 403 
Q 2391 403 2603 679 
Q 2816 956 2816 1497 
Q 2816 2041 2603 2316 
Q 2391 2591 1972 2591 
z
" transform="scale(0.015625)"/>
       </defs>
       <use xlink:href="#DejaVuSansMono-30"/>
       <use xlink:href="#DejaVuSansMono-2e" x="60.205078"/>
       <use xlink:href="#DejaVuSansMono-30" x="120.410156"/>
       <use xlink:href="#DejaVuSansMono-36" x="180.615234"/>
       <use xlink:href="#DejaVuSansMono-30" x="240.820312"/>
      </g>
     </g>
    </g>
    <g id="xtick_6">
     <g id="line2d_6">
      <g>
       <use xlink:href="#m7d69d6cb55" x="907.2" y="640.8" style="stroke: #000000; stroke-width: 0.8"/>
      </g>
     </g>
     <g id="text_6">
      <!-- 0.075 -->
      <g transform="translate(868.067969 667.694062) scale(0.26 -0.26)">
       <defs>
        <path id="DejaVuSansMono-37" d="M 434 4666 
L 3372 4666 
L 3372 4397 
L 1703 0 
L 1044 0 
L 2669 4134 
L 434 4134 
L 434 4666 
z
" transform="scale(0.015625)"/>
       </defs>
       <use xlink:href="#DejaVuSansMono-30"/>
       <use xlink:href="#DejaVuSansMono-2e" x="60.205078"/>
       <use xlink:href="#DejaVuSansMono-30" x="120.410156"/>
       <use xlink:href="#DejaVuSansMono-37" x="180.615234"/>
       <use xlink:href="#DejaVuSansMono-35" x="240.820312"/>
      </g>
     </g>
    </g>
    <g id="text_7">
     <!-- I/F -->
     <g transform="translate(494.926875 695.465) scale(0.24 -0.24)">
      <defs>
       <path id="DejaVuSansMono-49" d="M 628 4666 
L 3219 4666 
L 3219 4134 
L 2241 4134 
L 2241 531 
L 3219 531 
L 3219 0 
L 628 0 
L 628 531 
L 1606 531 
L 1606 4134 
L 628 4134 
L 628 4666 
z
" transform="scale(0.015625)"/>
       <path id="DejaVuSansMono-2f" d="M 2778 4666 
L 3372 4666 
L 916 -594 
L 319 -594 
L 2778 4666 
z
" transform="scale(0.015625)"/>
       <path id="DejaVuSansMono-46" d="M 728 4666 
L 3475 4666 
L 3475 4134 
L 1363 4134 
L 1363 2759 
L 3278 2759 
L 3278 2228 
L 1363 2228 
L 1363 0 
L 728 0 
L 728 4666 
z
" transform="scale(0.015625)"/>
      </defs>
      <use xlink:href="#DejaVuSansMono-49"/>
      <use xlink:href="#DejaVuSansMono-2f" x="60.205078"/>
      <use xlink:href="#DejaVuSansMono-46" x="120.410156"/>
     </g>
    </g>
   </g>
   <g id="matplotlib.axis_2">
    <g id="ytick_1">
     <g id="line2d_7">
      <defs>
       <path id="mfec052cf0f" d="M 0 0 
L -3.5 0 
" style="stroke: #000000; stroke-width: 0.8"/>
      </defs>
      <g>
       <use xlink:href="#mfec052cf0f" x="126" y="640.8" style="stroke: #000000; stroke-width: 0.8"/>
      </g>
     </g>
     <g id="text_8">
      <!-- 90°S -->
      <g transform="translate(56.38875 650.747031) scale(0.26 -0.26)">
       <defs>
        <path id="DejaVuSansMono-39" d="M 1863 2069 
Q 2266 2069 2495 2359 
Q 2725 2650 2725 3163 
Q 2725 3675 2495 3965 
Q 2266 4256 1863 4256 
Q 1444 4256 1231 3979 
Q 1019 3703 1019 3163 
Q 1019 2619 1230 2344 
Q 1441 2069 1863 2069 
z
M 738 97 
L 738 678 
Q 934 563 1156 502 
Q 1378 441 1619 441 
Q 2219 441 2526 892 
Q 2834 1344 2834 2222 
Q 2688 1909 2422 1742 
Q 2156 1575 1813 1575 
Q 1138 1575 767 1990 
Q 397 2406 397 3169 
Q 397 3922 776 4336 
Q 1156 4750 1850 4750 
Q 2663 4750 3041 4165 
Q 3419 3581 3419 2328 
Q 3419 1150 2964 529 
Q 2509 -91 1644 -91 
Q 1416 -91 1184 -42 
Q 953 6 738 97 
z
" transform="scale(0.015625)"/>
        <path id="DejaVuSansMono-b0" d="M 1925 4750 
Q 2128 4750 2311 4673 
Q 2494 4597 2631 4453 
Q 2772 4313 2845 4134 
Q 2919 3956 2919 3750 
Q 2919 3338 2628 3052 
Q 2338 2766 1919 2766 
Q 1497 2766 1215 3047 
Q 934 3328 934 3750 
Q 934 4169 1221 4459 
Q 1509 4750 1925 4750 
z
M 1925 4347 
Q 1678 4347 1504 4173 
Q 1331 4000 1331 3750 
Q 1331 3500 1501 3331 
Q 1672 3163 1919 3163 
Q 2169 3163 2345 3334 
Q 2522 3506 2522 3750 
Q 2522 3997 2347 4172 
Q 2172 4347 1925 4347 
z
" transform="scale(0.015625)"/>
        <path id="DejaVuSansMono-53" d="M 3163 4506 
L 3163 3866 
Q 2875 4050 2586 4144 
Q 2297 4238 2003 4238 
Q 1556 4238 1297 4030 
Q 1038 3822 1038 3469 
Q 1038 3159 1208 2996 
Q 1378 2834 1844 2725 
L 2175 2650 
Q 2831 2497 3131 2169 
Q 3431 1841 3431 1275 
Q 3431 609 3018 259 
Q 2606 -91 1819 -91 
Q 1491 -91 1159 -20 
Q 828 50 494 191 
L 494 863 
Q 853 634 1173 528 
Q 1494 422 1819 422 
Q 2297 422 2562 636 
Q 2828 850 2828 1234 
Q 2828 1584 2645 1768 
Q 2463 1953 2009 2053 
L 1672 2131 
Q 1022 2278 728 2575 
Q 434 2872 434 3372 
Q 434 3997 854 4373 
Q 1275 4750 1972 4750 
Q 2241 4750 2537 4689 
Q 2834 4628 3163 4506 
z
" transform="scale(0.015625)"/>
       </defs>
       <use xlink:href="#DejaVuSansMono-39"/>
       <use xlink:href="#DejaVuSansMono-30" x="60.205078"/>
       <use xlink:href="#DejaVuSansMono-b0" x="120.410156"/>
       <use xlink:href="#DejaVuSansMono-53" x="180.615234"/>
      </g>
     </g>
    </g>
    <g id="ytick_2">
     <g id="line2d_8">
      <g>
       <use xlink:href="#mfec052cf0f" x="126" y="548.4" style="stroke: #000000; stroke-width: 0.8"/>
      </g>
     </g>
     <g id="text_9">
      <!-- 60°S -->
      <g transform="translate(56.38875 558.347031) scale(0.26 -0.26)">
       <use xlink:href="#DejaVuSansMono-36"/>
       <use xlink:href="#DejaVuSansMono-30" x="60.205078"/>
       <use xlink:href="#DejaVuSansMono-b0" x="120.410156"/>
       <use xlink:href="#DejaVuSansMono-53" x="180.615234"/>
      </g>
     </g>
    </g>
    <g id="ytick_3">
     <g id="line2d_9">
      <g>
       <use xlink:href="#mfec052cf0f" x="126" y="456" style="stroke: #000000; stroke-width: 0.8"/>
      </g>
     </g>
     <g id="text_10">
      <!-- 30°S -->
      <g transform="translate(56.38875 465.947031) scale(0.26 -0.26)">
       <use xlink:href="#DejaVuSansMono-33"/>
       <use xlink:href="#DejaVuSansMono-30" x="60.205078"/>
       <use xlink:href="#DejaVuSansMono-b0" x="120.410156"/>
       <use xlink:href="#DejaVuSansMono-53" x="180.615234"/>
      </g>
     </g>
    </g>
    <g id="ytick_4">
     <g id="line2d_10">
      <g>
       <use xlink:href="#mfec052cf0f" x="126" y="363.6" style="stroke: #000000; stroke-width: 0.8"/>
      </g>
     </g>
     <g id="text_11">
      <!-- 0° -->
      <g transform="translate(87.694375 373.547031) scale(0.26 -0.26)">
       <use xlink:href="#DejaVuSansMono-30"/>
       <use xlink:href="#DejaVuSansMono-b0" x="60.205078"/>
      </g>
     </g>
    </g>
    <g id="ytick_5">
     <g id="line2d_11">
      <g>
       <use xlink:href="#mfec052cf0f" x="126" y="271.2" style="stroke: #000000; stroke-width: 0.8"/>
      </g>
     </g>
     <g id="text_12">
      <!-- 30°N -->
      <g transform="translate(56.38875 281.147031) scale(0.26 -0.26)">
       <defs>
        <path id="DejaVuSansMono-4e" d="M 434 4666 
L 1234 4666 
L 2809 825 
L 2809 4666 
L 3419 4666 
L 3419 0 
L 2619 0 
L 1044 3841 
L 1044 0 
L 434 0 
L 434 4666 
z
" transform="scale(0.015625)"/>
       </defs>
       <use xlink:href="#DejaVuSansMono-33"/>
       <use xlink:href="#DejaVuSansMono-30" x="60.205078"/>
       <use xlink:href="#DejaVuSansMono-b0" x="120.410156"/>
       <use xlink:href="#DejaVuSansMono-4e" x="180.615234"/>
      </g>
     </g>
    </g>
    <g id="ytick_6">
     <g id="line2d_12">
      <g>
       <use xlink:href="#mfec052cf0f" x="126" y="178.8" style="stroke: #000000; stroke-width: 0.8"/>
      </g>
     </g>
     <g id="text_13">
      <!-- 60°N -->
      <g transform="translate(56.38875 188.747031) scale(0.26 -0.26)">
       <use xlink:href="#DejaVuSansMono-36"/>
       <use xlink:href="#DejaVuSansMono-30" x="60.205078"/>
       <use xlink:href="#DejaVuSansMono-b0" x="120.410156"/>
       <use xlink:href="#DejaVuSansMono-4e" x="180.615234"/>
      </g>
     </g>
    </g>
    <g id="ytick_7">
     <g id="line2d_13">
      <g>
       <use xlink:href="#mfec052cf0f" x="126" y="86.4" style="stroke: #000000; stroke-width: 0.8"/>
      </g>
     </g>
     <g id="text_14">
      <!-- 90°N -->
      <g transform="translate(56.38875 96.347031) scale(0.26 -0.26)">
       <use xlink:href="#DejaVuSansMono-39"/>
       <use xlink:href="#DejaVuSansMono-30" x="60.205078"/>
       <use xlink:href="#DejaVuSansMono-b0" x="120.410156"/>
       <use xlink:href="#DejaVuSansMono-4e" x="180.615234"/>
      </g>
     </g>
    </g>
    <g id="text_15">
     <!-- Latitude (°) -->
     <g transform="translate(47.3975 450.2925) rotate(-90) scale(0.24 -0.24)">
      <defs>
       <path id="DejaVuSansMono-4c" d="M 672 4666 
L 1306 4666 
L 1306 531 
L 3559 531 
L 3559 0 
L 672 0 
L 672 4666 
z
" transform="scale(0.015625)"/>
       <path id="DejaVuSansMono-61" d="M 2194 1759 
L 2003 1759 
Q 1500 1759 1245 1582 
Q 991 1406 991 1056 
Q 991 741 1181 566 
Q 1372 391 1709 391 
Q 2184 391 2456 720 
Q 2728 1050 2731 1631 
L 2731 1759 
L 2194 1759 
z
M 3309 1997 
L 3309 0 
L 2731 0 
L 2731 519 
Q 2547 206 2267 57 
Q 1988 -91 1588 -91 
Q 1053 -91 734 211 
Q 416 513 416 1019 
Q 416 1603 808 1906 
Q 1200 2209 1959 2209 
L 2731 2209 
L 2731 2300 
Q 2728 2719 2518 2908 
Q 2309 3097 1850 3097 
Q 1556 3097 1256 3012 
Q 956 2928 672 2766 
L 672 3341 
Q 991 3463 1283 3523 
Q 1575 3584 1850 3584 
Q 2284 3584 2592 3456 
Q 2900 3328 3091 3072 
Q 3209 2916 3259 2686 
Q 3309 2456 3309 1997 
z
" transform="scale(0.015625)"/>
       <path id="DejaVuSansMono-74" d="M 1919 4494 
L 1919 3500 
L 3225 3500 
L 3225 3053 
L 1919 3053 
L 1919 1153 
Q 1919 766 2066 612 
Q 2213 459 2578 459 
L 3225 459 
L 3225 0 
L 2522 0 
Q 1875 0 1609 259 
Q 1344 519 1344 1153 
L 1344 3053 
L 409 3053 
L 409 3500 
L 1344 3500 
L 1344 4494 
L 1919 4494 
z
" transform="scale(0.015625)"/>
       <path id="DejaVuSansMono-69" d="M 800 3500 
L 2272 3500 
L 2272 447 
L 3413 447 
L 3413 0 
L 556 0 
L 556 447 
L 1697 447 
L 1697 3053 
L 800 3053 
L 800 3500 
z
M 1697 4863 
L 2272 4863 
L 2272 4134 
L 1697 4134 
L 1697 4863 
z
" transform="scale(0.015625)"/>
       <path id="DejaVuSansMono-75" d="M 609 1325 
L 609 3494 
L 1184 3494 
L 1184 1325 
Q 1184 853 1351 631 
Q 1519 409 1869 409 
Q 2275 409 2490 695 
Q 2706 981 2706 1516 
L 2706 3494 
L 3284 3494 
L 3284 0 
L 2706 0 
L 2706 525 
Q 2553 222 2289 65 
Q 2025 -91 1672 -91 
Q 1134 -91 871 261 
Q 609 613 609 1325 
z
" transform="scale(0.015625)"/>
       <path id="DejaVuSansMono-64" d="M 2681 3053 
L 2681 4863 
L 3256 4863 
L 3256 0 
L 2681 0 
L 2681 441 
Q 2538 181 2298 45 
Q 2059 -91 1747 -91 
Q 1113 -91 748 401 
Q 384 894 384 1759 
Q 384 2613 750 3098 
Q 1116 3584 1747 3584 
Q 2063 3584 2303 3448 
Q 2544 3313 2681 3053 
z
M 991 1747 
Q 991 1078 1203 737 
Q 1416 397 1831 397 
Q 2247 397 2464 740 
Q 2681 1084 2681 1747 
Q 2681 2413 2464 2755 
Q 2247 3097 1831 3097 
Q 1416 3097 1203 2756 
Q 991 2416 991 1747 
z
" transform="scale(0.015625)"/>
       <path id="DejaVuSansMono-65" d="M 3475 1894 
L 3475 1613 
L 984 1613 
L 984 1594 
Q 984 1022 1282 709 
Q 1581 397 2125 397 
Q 2400 397 2700 484 
Q 3000 572 3341 750 
L 3341 178 
Q 3013 44 2708 -23 
Q 2403 -91 2119 -91 
Q 1303 -91 843 398 
Q 384 888 384 1747 
Q 384 2584 834 3084 
Q 1284 3584 2034 3584 
Q 2703 3584 3089 3131 
Q 3475 2678 3475 1894 
z
M 2900 2063 
Q 2888 2569 2661 2833 
Q 2434 3097 2009 3097 
Q 1594 3097 1325 2822 
Q 1056 2547 1006 2059 
L 2900 2063 
z
" transform="scale(0.015625)"/>
       <path id="DejaVuSansMono-20" transform="scale(0.015625)"/>
       <path id="DejaVuSansMono-28" d="M 2766 4856 
Q 2350 4144 2145 3436 
Q 1941 2728 1941 2009 
Q 1941 1294 2145 584 
Q 2350 -125 2766 -844 
L 2266 -844 
Q 1794 -100 1562 604 
Q 1331 1309 1331 2009 
Q 1331 2706 1562 3412 
Q 1794 4119 2266 4856 
L 2766 4856 
z
" transform="scale(0.015625)"/>
       <path id="DejaVuSansMono-29" d="M 1088 4856 
L 1588 4856 
Q 2059 4119 2290 3412 
Q 2522 2706 2522 2009 
Q 2522 1306 2290 600 
Q 2059 -106 1588 -844 
L 1088 -844 
Q 1503 -119 1708 590 
Q 1913 1300 1913 2009 
Q 1913 2722 1708 3431 
Q 1503 4141 1088 4856 
z
" transform="scale(0.015625)"/>
      </defs>
      <use xlink:href="#DejaVuSansMono-4c"/>
      <use xlink:href="#DejaVuSansMono-61" x="60.205078"/>
      <use xlink:href="#DejaVuSansMono-74" x="120.410156"/>
      <use xlink:href="#DejaVuSansMono-69" x="180.615234"/>
      <use xlink:href="#DejaVuSansMono-74" x="240.820312"/>
      <use xlink:href="#DejaVuSansMono-75" x="301.025391"/>
      <use xlink:href="#DejaVuSansMono-64" x="361.230469"/>
      <use xlink:href="#DejaVuSansMono-65" x="421.435547"/>
      <use xlink:href="#DejaVuSansMono-20" x="481.640625"/>
      <use xlink:href="#DejaVuSansMono-28" x="541.845703"/>
      <use xlink:href="#DejaVuSansMono-b0" x="602.050781"/>
      <use xlink:href="#DejaVuSansMono-29" x="662.255859"/>
     </g>
    </g>
   </g>
   <g id="line2d_14">
    <path d="M 334.857567 111.04 
L 334.857567 115.66 
L 335.149363 117.2 
L 335.149363 118.74 
L 335.514127 120.28 
L 335.514127 123.36 
L 334.474585 124.9 
L 334.474585 126.44 
L 345.79104 127.98 
L 345.79104 129.52 
L 344.842685 131.06 
L 344.67855 132.6 
L 346.000769 134.14 
L 345.262161 135.68 
L 345.435414 137.22 
L 349.019108 138.76 
L 349.155888 140.3 
L 349.511514 141.84 
L 349.703005 143.38 
L 350.186311 144.92 
L 350.459888 148 
L 350.815515 149.54 
L 351.280583 152.62 
L 351.526786 154.16 
L 351.991855 155.7 
L 352.073922 157.24 
L 353.186394 158.78 
L 354.763973 160.32 
L 355.621122 161.86 
L 355.694091 163.4 
L 356.970717 164.94 
L 357.125752 166.48 
L 357.125752 168.02 
L 359.314259 169.56 
L 360.134954 171.1 
L 360.381157 172.64 
L 361.14714 174.18 
L 362.286986 175.72 
L 362.597039 177.26 
L 363.864565 178.8 
L 366.189851 180.34 
L 367.557683 181.88 
L 369.554698 184.96 
L 371.460528 186.5 
L 372.454477 188.04 
L 374.798019 189.58 
L 375.408986 191.12 
L 379.010917 192.66 
L 380.096052 194.2 
L 386.843984 197.28 
L 388.266526 198.82 
L 391.385171 200.36 
L 392.63446 201.9 
L 395.762204 203.44 
L 395.999288 204.98 
L 399.300305 206.52 
L 400.795797 208.06 
L 403.622626 209.6 
L 404.744255 211.14 
L 407.571065 212.68 
L 410.844745 215.76 
L 416.635202 220.38 
L 419.243185 221.92 
L 422.835997 225 
L 425.006267 226.54 
L 427.915183 228.08 
L 429.994267 229.62 
L 432.702573 231.16 
L 434.708708 232.7 
L 438.17386 234.24 
L 438.720996 235.78 
L 442.140555 237.32 
L 443.68164 238.86 
L 445.824554 240.4 
L 447.575367 241.94 
L 449.690944 243.48 
L 451.560299 245.02 
L 452.800431 246.56 
L 455.435789 248.1 
L 456.466231 249.64 
L 458.499722 251.18 
L 460.15023 252.72 
L 462.366093 254.26 
L 467.034941 258.88 
L 469.487888 260.42 
L 472.132364 263.5 
L 475.524567 266.58 
L 476.281412 268.12 
L 482.98375 274.28 
L 484.23304 275.82 
L 485.035478 277.36 
L 486.439823 278.9 
L 490.169376 283.52 
L 491.984058 285.06 
L 493.242466 286.6 
L 494.975003 288.14 
L 495.795678 289.68 
L 497.491819 291.22 
L 498.276058 292.76 
L 500.145414 294.3 
L 501.367308 295.84 
L 502.899275 297.38 
L 504.248869 298.92 
L 505.179006 300.46 
L 506.820396 302 
L 507.905512 303.54 
L 509.16392 305.08 
L 510.030227 306.62 
L 513.467984 311.24 
L 515.547106 312.78 
L 516.604866 314.32 
L 517.416462 315.86 
L 519.550257 318.94 
L 520.152085 320.48 
L 522.185614 323.56 
L 522.641545 325.1 
L 523.836084 326.64 
L 526.407611 328.18 
L 527.283037 329.72 
L 527.948696 331.26 
L 529.207104 332.8 
L 529.44415 334.34 
L 530.383445 335.88 
L 530.894087 337.42 
L 533.538525 343.58 
L 535.225508 346.66 
L 535.781782 348.2 
L 536.538627 349.74 
L 537.459608 351.28 
L 538.991613 352.82 
L 539.648153 354.36 
L 540.961273 355.9 
L 541.517508 357.44 
L 543.578355 358.98 
L 546.332216 362.06 
L 548.073949 363.6 
L 550.581646 365.14 
L 552.405408 368.22 
L 553.080186 369.76 
L 554.110628 371.3 
L 554.666864 372.84 
L 555.642556 374.38 
L 557.101573 375.92 
L 558.396456 377.46 
L 558.642658 379 
L 559.481571 380.54 
L 559.809841 382.08 
L 560.676149 383.62 
L 560.86764 385.16 
L 561.369164 386.7 
L 562.791707 392.86 
L 563.265913 394.4 
L 563.384417 395.94 
L 563.895098 397.48 
L 564.268961 399.02 
L 564.451334 400.56 
L 565.199099 403.64 
L 565.32676 405.18 
L 566.156554 406.72 
L 566.211304 408.26 
L 566.384519 409.8 
L 566.43927 411.34 
L 566.940793 414.42 
L 567.132284 415.96 
L 567.451436 417.5 
L 568.299506 419.04 
L 568.490997 420.58 
L 569.156656 422.12 
L 569.621744 423.66 
L 570.44242 425.2 
L 570.916627 426.74 
L 572.111127 428.28 
L 572.640084 429.82 
L 573.433404 431.36 
L 574.472926 432.9 
L 575.257127 434.44 
L 576.61584 435.98 
L 577.400079 437.52 
L 578.758792 439.06 
L 579.68893 440.6 
L 581.147947 442.14 
L 581.804488 443.68 
L 582.816654 445.22 
L 584.266553 446.76 
L 584.640455 448.3 
L 586.062959 449.84 
L 586.756013 451.38 
L 587.996145 452.92 
L 588.75299 454.46 
L 590.357905 456 
L 590.91418 457.54 
L 593.850452 460.62 
L 594.443162 462.16 
L 596.586076 463.7 
L 597.443264 465.24 
L 600.014753 466.78 
L 600.589265 468.32 
L 602.568043 469.86 
L 603.571091 471.4 
L 605.07574 472.94 
L 606.270279 474.48 
L 607.975499 476.02 
L 609.252106 477.56 
L 610.255231 479.1 
L 612.133666 480.64 
L 612.917906 482.18 
L 615.990919 485.26 
L 617.440856 486.8 
L 619.264618 488.34 
L 620.568619 489.88 
L 623.377192 492.96 
L 626.842344 494.5 
L 627.535359 496.04 
L 632.140377 497.58 
L 634.110036 499.12 
L 637.164889 500.66 
L 638.386784 502.2 
L 640.97651 503.74 
L 642.371697 505.28 
L 644.158985 506.82 
L 645.353562 508.36 
L 646.21987 509.9 
L 648.098305 511.44 
L 648.973731 512.98 
L 651.353767 516.06 
L 654.864512 519.14 
L 656.551495 520.68 
L 657.764271 522.22 
L 659.323593 523.76 
L 660.089596 525.3 
L 661.648918 526.84 
L 662.843496 528.38 
L 664.357186 529.92 
L 665.524408 531.46 
L 667.785864 533 
L 668.478878 534.54 
L 669.518478 536.08 
L 669.947053 537.62 
L 670.147663 539.16 
L 671.251015 542.24 
L 671.488138 543.78 
L 672.217628 545.32 
L 672.664479 546.86 
L 672.874168 549.94 
L 673.466917 551.48 
L 673.530708 553.02 
L 674.278474 554.56 
L 674.342304 556.1 
L 674.925896 557.64 
L 675.035319 559.18 
L 675.482131 560.72 
L 675.500407 563.8 
L 676.348439 565.34 
L 676.020168 568.42 
L 675.518644 569.96 
L 675.445696 571.5 
L 675.74661 574.58 
L 675.609831 576.12 
L 675.664542 577.66 
L 675.263323 579.2 
L 676.339359 580.74 
L 675.336272 582.28 
L 675.637186 583.82 
L 675.308916 585.36 
L 675.117387 586.9 
L 673.421324 589.98 
L 672.691796 591.52 
L 671.597562 593.06 
L 671.533731 594.6 
L 670.348234 596.14 
L 669.810274 597.68 
L 668.633934 599.22 
L 667.849694 602.3 
L 667.038098 603.84 
L 666.381558 605.38 
L 665.506171 606.92 
L 664.940816 608.46 
L 663.846544 610 
L 663.700646 611.54 
L 662.861733 613.08 
L 662.259866 614.62 
L 660.755255 616.16 
L 659.414818 617.7 
L 657.636611 619.24 
L 656.5241 620.78 
L 656.405597 622.32 
L 653.642579 623.86 
L 651.718512 625.4 
L 650.049727 626.94 
L 648.554274 628.48 
L 646.064814 630.02 
L 643.010039 631.56 
L 639.20746 633.1 
L 602.941907 634.64 
L 601.893266 636.18 
L 631.337899 637.72 
L 630.708715 639.26 
L 630.708715 640.8 
L 630.708715 640.8 
" clip-path="url(#pe379128ba9)" style="fill: none; stroke: #1f77b4; stroke-width: 4"/>
   </g>
   <g id="LineCollection_1">
    <path d="M 564.797841 410.716333 
L 564.797841 392.421538 
" clip-path="url(#pe379128ba9)" style="fill: none; stroke: #ff0000; stroke-width: 3"/>
   </g>
   <g id="line2d_15">
    <defs>
     <path id="m6085099450" d="M 5 0 
L -5 -0 
" style="stroke: #ff0000; stroke-width: 2"/>
    </defs>
    <g clip-path="url(#pe379128ba9)">
     <use xlink:href="#m6085099450" x="564.797841" y="410.716333" style="fill: #ff0000; stroke: #ff0000; stroke-width: 2"/>
    </g>
   </g>
   <g id="line2d_16">
    <g clip-path="url(#pe379128ba9)">
     <use xlink:href="#m6085099450" x="564.797841" y="392.421538" style="fill: #ff0000; stroke: #ff0000; stroke-width: 2"/>
    </g>
   </g>
   <g id="line2d_17">
    <path d="M 195.847808 86.4 
L 195.952837 91.02 
L 196.478011 92.56 
L 197.248262 97.18 
L 197.300777 98.72 
L 197.589623 100.26 
L 196.941911 101.8 
L 197.116969 103.34 
L 196.731843 104.88 
L 196.54803 106.42 
L 197.344546 107.96 
L 196.486761 109.5 
L 196.836877 111.04 
L 197.00318 112.58 
L 198.202322 117.2 
L 199.051347 118.74 
L 199.576521 120.28 
L 201.265823 123.36 
L 201.922286 124.9 
L 202.832581 126.44 
L 203.594082 127.98 
L 205.388417 129.52 
L 206.079895 131.06 
L 206.570054 132.6 
L 213.012158 134.14 
L 216.583328 135.68 
L 217.589897 137.22 
L 219.14791 138.76 
L 220.014441 140.3 
L 221.87005 141.84 
L 222.824109 143.38 
L 224.110785 144.92 
L 225.581259 146.46 
L 226.876685 148 
L 231.568213 152.62 
L 233.66015 154.16 
L 235.016844 155.7 
L 237.327589 157.24 
L 239.121929 158.78 
L 241.660261 160.32 
L 243.060716 161.86 
L 247.375878 164.94 
L 250.404364 166.48 
L 252.408762 168.02 
L 258.90339 172.64 
L 260.76775 174.18 
L 263.323582 175.72 
L 265.616836 177.26 
L 269.380555 178.8 
L 271.061106 180.34 
L 274.124612 181.88 
L 276.321568 183.42 
L 277.301897 184.96 
L 280.374143 186.5 
L 281.494521 188.04 
L 285.372028 189.58 
L 287.148858 191.12 
L 292.48809 194.2 
L 293.836054 195.74 
L 295.735423 197.28 
L 297.380965 198.82 
L 303.25411 203.44 
L 305.687423 204.98 
L 307.297926 206.52 
L 309.416122 208.06 
L 310.772837 209.6 
L 312.549647 211.14 
L 314.659094 212.68 
L 316.575963 214.22 
L 319.018006 215.76 
L 321.066183 217.3 
L 325.8715 220.38 
L 327.65708 221.92 
L 330.974414 223.46 
L 334.816921 226.54 
L 337.005156 228.08 
L 338.606909 229.62 
L 341.110241 231.16 
L 342.274359 232.7 
L 345.232826 234.24 
L 346.887118 235.78 
L 348.375101 237.32 
L 350.169451 238.86 
L 356.795348 246.56 
L 357.679388 248.1 
L 360.602836 251.18 
L 362.589744 254.26 
L 363.578823 255.8 
L 364.935498 257.34 
L 365.6795 258.88 
L 368.016504 261.96 
L 370.082181 263.5 
L 371.727723 265.04 
L 372.646783 266.58 
L 373.697111 268.12 
L 374.563652 269.66 
L 376.086655 271.2 
L 377.951004 272.74 
L 378.773775 274.28 
L 382.082358 278.9 
L 382.625032 280.44 
L 384.454382 283.52 
L 385.312172 285.06 
L 385.968616 286.6 
L 386.896425 288.14 
L 388.962102 291.22 
L 389.618565 292.76 
L 391.657973 295.84 
L 393.145956 298.92 
L 393.303514 300.46 
L 394.336343 302 
L 394.616459 303.54 
L 395.369192 305.08 
L 395.579269 306.62 
L 395.911866 308.16 
L 396.507059 309.7 
L 397.855004 314.32 
L 398.152601 315.86 
L 398.660255 317.4 
L 399.369238 318.94 
L 400.218278 320.48 
L 400.690933 322.02 
L 402.327724 325.1 
L 402.826629 326.64 
L 403.754439 328.18 
L 405.154903 329.72 
L 405.42623 331.26 
L 406.126462 332.8 
L 406.922964 335.88 
L 407.036752 337.42 
L 407.990812 338.96 
L 408.375947 342.04 
L 408.804833 343.58 
L 408.708544 345.12 
L 409.286238 346.66 
L 409.12868 348.2 
L 409.277488 349.74 
L 409.181199 351.28 
L 409.96022 354.36 
L 410.100239 355.9 
L 411.386934 360.52 
L 412.340994 362.06 
L 412.542282 363.6 
L 413.137495 365.14 
L 414.187824 366.68 
L 415.176903 372.84 
L 417.076272 379 
L 417.741485 380.54 
L 418.214139 382.08 
L 418.459236 383.62 
L 419.238218 385.16 
L 420.376105 386.7 
L 420.997568 388.24 
L 420.927549 389.78 
L 421.356415 391.32 
L 421.295165 392.86 
L 422.056647 395.94 
L 422.170455 397.48 
L 422.030397 399.02 
L 421.575242 400.56 
L 421.794069 402.1 
L 421.671531 403.64 
L 420.708721 405.18 
L 420.244816 406.72 
L 420.682471 408.26 
L 420.533663 409.8 
L 420.034758 411.34 
L 420.691221 414.42 
L 421.400203 417.5 
L 422.275474 419.04 
L 423.430861 422.12 
L 424.052324 423.66 
L 424.822556 425.2 
L 425.400249 426.74 
L 426.905752 429.82 
L 427.816023 431.36 
L 428.437486 432.9 
L 429.339046 434.44 
L 431.159626 439.06 
L 432.227474 440.6 
L 433.137784 442.14 
L 433.54915 443.68 
L 434.792075 445.22 
L 436.367578 446.76 
L 439.115987 451.38 
L 439.693661 452.92 
L 440.533952 454.46 
L 442.144455 459.08 
L 443.334841 460.62 
L 444.33267 463.7 
L 445.050402 465.24 
L 444.892864 466.78 
L 442.52084 468.32 
L 445.155441 471.4 
L 445.636865 472.94 
L 447.92135 476.02 
L 449.829469 477.56 
L 450.328413 479.1 
L 452.026435 480.64 
L 452.796667 482.18 
L 455.256249 483.72 
L 457.453215 485.26 
L 459.326334 486.8 
L 461.619569 488.34 
L 463.116303 489.88 
L 463.685227 491.42 
L 465.348307 492.96 
L 465.899731 494.5 
L 465.330807 496.04 
L 466.372386 497.58 
L 466.897541 499.12 
L 465.987231 502.2 
L 466.538655 503.74 
L 466.573694 505.28 
L 468.044158 506.82 
L 471.300242 508.36 
L 476.578213 511.44 
L 477.330945 512.98 
L 483.046572 516.06 
L 489.6287 517.6 
L 490.42524 519.14 
L 493.663785 520.68 
L 497.182407 522.22 
L 501.103683 523.76 
L 508.806237 525.3 
L 511.19578 526.84 
L 513.03386 528.38 
L 519.694758 529.92 
L 521.375338 531.46 
L 522.373147 533 
L 524.176267 534.54 
L 525.76927 536.08 
L 527.659889 537.62 
L 529.261661 539.16 
L 529.743046 540.7 
L 531.18728 542.24 
L 534.69721 545.32 
L 535.117326 546.86 
L 536.150174 548.4 
L 539.117372 549.94 
L 541.620685 553.02 
L 542.005801 554.56 
L 542.819841 556.1 
L 543.852689 557.64 
L 544.404113 559.18 
L 544.369074 560.72 
L 544.806729 562.26 
L 544.631652 563.8 
L 544.815499 565.34 
L 545.892077 566.88 
L 545.927077 568.42 
L 546.303463 569.96 
L 546.320963 571.5 
L 546.102155 573.04 
L 545.139345 574.58 
L 545.191884 576.12 
L 545.927077 577.66 
L 546.303463 579.2 
L 546.434771 580.74 
L 546.426001 582.28 
L 546.172194 583.82 
L 547.170003 585.36 
L 547.528888 586.9 
L 547.738927 588.44 
L 548.246621 589.98 
L 548.202851 591.52 
L 548.798045 599.22 
L 548.587967 600.76 
L 549.043122 603.84 
L 548.631737 605.38 
L 549.953432 606.92 
L 540.404067 608.46 
L 540.360298 610 
L 551.677704 613.08 
L 552.404205 616.16 
L 552.325436 617.7 
L 552.027859 619.24 
L 551.04751 620.78 
L 550.25974 622.32 
L 549.638315 630.02 
L 547.940235 631.56 
L 548.596737 633.1 
L 548.237851 634.64 
L 545.979616 636.18 
L 545.795808 637.72 
L 543.082418 639.26 
L 547.170003 640.8 
L 547.170003 640.8 
" clip-path="url(#pe379128ba9)" style="fill: none; stroke: #ff7f0e; stroke-width: 4"/>
   </g>
   <g id="LineCollection_2">
    <path d="M 421.575242 409.226741 
L 421.575242 392.480013 
" clip-path="url(#pe379128ba9)" style="fill: none; stroke: #ff0000; stroke-width: 3"/>
   </g>
   <g id="line2d_18">
    <g clip-path="url(#pe379128ba9)">
     <use xlink:href="#m6085099450" x="421.575242" y="409.226741" style="fill: #ff0000; stroke: #ff0000; stroke-width: 2"/>
    </g>
   </g>
   <g id="line2d_19">
    <g clip-path="url(#pe379128ba9)">
     <use xlink:href="#m6085099450" x="421.575242" y="392.480013" style="fill: #ff0000; stroke: #ff0000; stroke-width: 2"/>
    </g>
   </g>
   <g id="line2d_20">
    <path d="M 272.835278 86.4 
L 272.835278 87.94 
L 271.076346 89.48 
L 270.116932 91.02 
L 269.850425 92.56 
L 269.850425 94.1 
L 270.996393 95.64 
L 273.741397 97.18 
L 274.647507 98.72 
L 276.299839 100.26 
L 276.308724 101.8 
L 277.108243 103.34 
L 277.570178 104.88 
L 278.609545 106.42 
L 278.884937 107.96 
L 280.004257 111.04 
L 281.105806 112.58 
L 282.980224 114.12 
L 284.401584 115.66 
L 284.996777 117.2 
L 286.6047 118.74 
L 287.999402 120.28 
L 292.556634 121.82 
L 294.54653 123.36 
L 298.019986 126.44 
L 300.303035 127.98 
L 303.358955 131.06 
L 305.49987 132.6 
L 307.107812 134.14 
L 312.384601 137.22 
L 314.170181 138.76 
L 315.68036 140.3 
L 317.803523 141.84 
L 322.343003 144.92 
L 323.933134 146.46 
L 324.928092 148 
L 327.202255 149.54 
L 329.689639 151.08 
L 331.413039 152.62 
L 332.319157 154.16 
L 334.611093 155.7 
L 337.818052 157.24 
L 349.713035 160.32 
L 350.441477 161.86 
L 361.7324 164.94 
L 363.757839 166.48 
L 368.226232 168.02 
L 369.843021 169.56 
L 372.650217 171.1 
L 374.382501 172.64 
L 377.776004 174.18 
L 380.263369 175.72 
L 381.578118 177.26 
L 385.504633 178.8 
L 389.830893 180.34 
L 391.527654 181.88 
L 393.792932 183.42 
L 395.036634 184.96 
L 398.190259 186.5 
L 399.673799 188.04 
L 402.054573 189.58 
L 404.692977 191.12 
L 406.087699 192.66 
L 408.077594 194.2 
L 410.280691 195.74 
L 413.434335 197.28 
L 415.148848 198.82 
L 417.858319 201.9 
L 421.616024 203.44 
L 422.486619 204.98 
L 424.147837 206.52 
L 424.627534 208.06 
L 426.350933 209.6 
L 426.564134 211.14 
L 427.39032 212.68 
L 429.451282 214.22 
L 431.050319 215.76 
L 431.97419 217.3 
L 434.159515 218.84 
L 436.042839 220.38 
L 437.508608 221.92 
L 439.702819 223.46 
L 443.211798 225 
L 448.07107 226.54 
L 452.326302 229.62 
L 454.769237 231.16 
L 457.460937 232.7 
L 460.907735 234.24 
L 463.341824 235.78 
L 467.570339 238.86 
L 469.240443 240.4 
L 471.283634 241.94 
L 474.04642 243.48 
L 476.34726 245.02 
L 486.723159 252.72 
L 488.366606 254.26 
L 490.543045 255.8 
L 493.989843 258.88 
L 496.104159 260.42 
L 497.63209 261.96 
L 502.313704 265.04 
L 504.392438 266.58 
L 505.929294 268.12 
L 507.972485 269.66 
L 509.580388 271.2 
L 513.16932 274.28 
L 514.839424 275.82 
L 516.855958 277.36 
L 520.418233 280.44 
L 522.523624 281.98 
L 524.042747 283.52 
L 526.210261 285.06 
L 527.960376 286.6 
L 529.923595 288.14 
L 531.069553 289.68 
L 532.970648 291.22 
L 534.596323 292.76 
L 538.380704 295.84 
L 539.713186 297.38 
L 541.498767 298.92 
L 543.071165 300.46 
L 546.802232 303.54 
L 548.063705 305.08 
L 550.719861 306.62 
L 552.301107 308.16 
L 558.44849 311.24 
L 560.118594 312.78 
L 562.854683 314.32 
L 567.483021 317.4 
L 570.210264 318.94 
L 571.418383 320.48 
L 574.678657 322.02 
L 576.304332 323.56 
L 582.949165 326.64 
L 584.308343 328.18 
L 587.621893 329.72 
L 590.23362 331.26 
L 594.542147 332.8 
L 598.148851 334.34 
L 600.112109 335.88 
L 603.01699 337.42 
L 607.165611 338.96 
L 610.861134 340.5 
L 613.56168 342.04 
L 615.693729 343.58 
L 619.238232 345.12 
L 620.89945 346.66 
L 624.053095 348.2 
L 624.124181 349.74 
L 626.185144 351.28 
L 628.050696 352.82 
L 627.917409 354.36 
L 628.166173 355.9 
L 628.299421 357.44 
L 629.276626 360.52 
L 630.689081 362.06 
L 632.439118 363.6 
L 633.594 365.14 
L 635.717125 366.68 
L 636.800882 368.22 
L 638.399938 369.76 
L 640.363196 371.3 
L 641.58024 372.84 
L 642.59295 374.38 
L 642.894989 375.92 
L 644.769428 379 
L 644.129766 380.54 
L 645.329078 382.08 
L 645.790984 385.16 
L 646.403988 386.7 
L 646.661599 389.78 
L 646.750457 391.32 
L 646.972524 392.86 
L 647.079115 394.4 
L 647.789824 395.94 
L 647.780938 397.48 
L 648.358321 399.02 
L 648.464951 400.56 
L 648.731447 402.1 
L 656.291285 403.64 
L 656.90425 405.18 
L 659.231748 408.26 
L 660.342201 411.34 
L 660.47541 412.88 
L 660.404363 414.42 
L 660.564268 415.96 
L 660.43102 417.5 
L 661.479234 419.04 
L 661.505931 420.58 
L 663.220424 422.12 
L 663.975524 423.66 
L 663.993295 425.2 
L 664.748394 426.74 
L 665.290273 429.82 
L 665.894352 431.36 
L 666.907062 437.52 
L 667.85761 439.06 
L 668.41726 440.6 
L 669.536599 442.14 
L 670.50488 443.68 
L 671.384341 448.3 
L 671.775239 449.84 
L 672.725748 451.38 
L 672.965626 452.92 
L 673.125531 456 
L 673.676296 462.16 
L 673.614134 463.7 
L 673.383142 465.24 
L 673.285398 466.78 
L 672.183869 468.32 
L 672.210527 469.86 
L 672.734634 472.94 
L 673.276551 474.48 
L 673.36537 476.02 
L 674.475785 477.56 
L 674.617958 479.1 
L 674.973312 480.64 
L 675.017703 482.18 
L 675.826078 483.72 
L 676.092613 485.26 
L 676.145889 486.8 
L 676.625645 491.42 
L 677.425134 492.96 
L 677.407362 494.5 
L 678.198004 496.04 
L 678.100299 497.58 
L 679.06858 499.12 
L 680.507731 505.28 
L 681.138428 506.82 
L 681.467125 508.36 
L 681.467125 509.9 
L 681.964575 511.44 
L 682.044547 512.98 
L 681.760279 514.52 
L 681.893528 516.06 
L 681.147314 517.6 
L 680.525463 519.14 
L 682.177834 520.68 
L 681.404925 522.22 
L 681.26283 523.76 
L 681.591488 525.3 
L 681.324991 526.84 
L 681.209476 528.38 
L 680.063518 529.92 
L 679.77925 531.46 
L 679.290686 533 
L 678.76654 536.08 
L 678.118032 537.62 
L 677.807107 539.16 
L 677.780488 540.7 
L 676.909913 543.78 
L 677.84265 545.32 
L 678.588863 546.86 
L 677.780488 548.4 
L 678.242395 549.94 
L 677.531725 553.02 
L 677.460677 554.56 
L 676.776626 556.1 
L 676.519015 557.64 
L 675.497419 559.18 
L 675.763916 560.72 
L 674.866683 562.26 
L 674.671234 565.34 
L 674.68012 566.88 
L 672.690205 568.42 
L 672.068393 569.96 
L 672.459252 571.5 
L 669.68758 573.04 
L 671.615333 574.58 
L 671.233321 576.12 
L 671.57979 577.66 
L 671.57979 577.66 
" clip-path="url(#pe379128ba9)" style="fill: none; stroke: #2ca02c; stroke-width: 4"/>
   </g>
   <g id="LineCollection_3">
    <path d="M 648.731447 410.482049 
L 648.731447 392.26088 
" clip-path="url(#pe379128ba9)" style="fill: none; stroke: #ff0000; stroke-width: 3"/>
   </g>
   <g id="line2d_21">
    <g clip-path="url(#pe379128ba9)">
     <use xlink:href="#m6085099450" x="648.731447" y="410.482049" style="fill: #ff0000; stroke: #ff0000; stroke-width: 2"/>
    </g>
   </g>
   <g id="line2d_22">
    <g clip-path="url(#pe379128ba9)">
     <use xlink:href="#m6085099450" x="648.731447" y="392.26088" style="fill: #ff0000; stroke: #ff0000; stroke-width: 2"/>
    </g>
   </g>
   <g id="line2d_23">
    <path d="M 599.71314 91.02 
L 599.71314 95.64 
L 597.34455 97.18 
L 597.34455 98.72 
L 595.784763 100.26 
L 595.784763 104.88 
L 597.105255 106.42 
L 597.567394 107.96 
L 597.534373 109.5 
L 596.527561 111.04 
L 596.568808 112.58 
L 597.955304 114.12 
L 598.070819 115.66 
L 597.740725 117.2 
L 598.648513 118.74 
L 598.516467 120.28 
L 598.61553 121.82 
L 598.326645 124.9 
L 598.293624 126.44 
L 597.509617 127.98 
L 597.534373 129.52 
L 597.369307 131.06 
L 598.318419 135.68 
L 599.094161 137.22 
L 599.292248 138.76 
L 601.04182 141.84 
L 601.619513 143.38 
L 601.858887 144.92 
L 602.692406 146.46 
L 602.122977 148 
L 602.387068 149.54 
L 600.629193 152.62 
L 600.596172 154.16 
L 600.249587 155.7 
L 600.109276 157.24 
L 597.649927 158.78 
L 597.897488 160.32 
L 598.384422 161.86 
L 598.607227 163.4 
L 599.267492 164.94 
L 599.57283 166.48 
L 599.72967 168.02 
L 600.959325 169.56 
L 601.107862 171.1 
L 602.007423 172.64 
L 603.253569 174.18 
L 604.27695 175.72 
L 605.465358 177.26 
L 605.5314 178.8 
L 605.836776 180.34 
L 606.02656 181.88 
L 607.206703 184.96 
L 608.00724 186.5 
L 608.510665 188.04 
L 609.212139 191.12 
L 609.360714 192.66 
L 609.921917 195.74 
L 609.98792 197.28 
L 607.759679 198.82 
L 603.839566 200.36 
L 601.487507 201.9 
L 598.607227 203.44 
L 597.567394 204.98 
L 599.283983 206.52 
L 598.1946 209.6 
L 598.021307 211.14 
L 597.625171 212.68 
L 597.080499 214.22 
L 596.84939 215.76 
L 596.973171 217.3 
L 595.727024 228.08 
L 595.48769 229.62 
L 595.008982 231.16 
L 594.654132 232.7 
L 594.447818 234.24 
L 594.043456 235.78 
L 593.837104 237.32 
L 592.912786 240.4 
L 589.809741 243.48 
L 586.954217 246.56 
L 586.648879 248.1 
L 585.642028 249.64 
L 585.311934 251.18 
L 584.618687 252.72 
L 583.719126 255.8 
L 582.192359 258.88 
L 581.135996 260.42 
L 579.757727 261.96 
L 578.338288 265.04 
L 577.925622 266.58 
L 577.100329 268.12 
L 576.76197 269.66 
L 575.928451 271.2 
L 573.947771 275.82 
L 572.808875 278.9 
L 571.051 280.44 
L 570.382547 281.98 
L 568.789738 283.52 
L 566.503682 286.6 
L 564.192908 288.14 
L 563.598685 289.68 
L 562.13796 291.22 
L 561.51898 292.76 
L 560.231548 294.3 
L 559.439276 295.84 
L 558.481938 297.38 
L 557.29353 298.92 
L 556.484767 300.46 
L 555.131293 302 
L 554.44631 303.54 
L 553.068079 305.08 
L 551.86318 306.62 
L 550.872821 308.16 
L 549.643127 309.7 
L 549.147967 311.24 
L 547.662447 312.78 
L 547.101284 314.32 
L 544.806962 315.86 
L 542.000989 318.94 
L 540.895153 320.48 
L 539.3271 322.02 
L 537.173128 325.1 
L 536.347835 326.64 
L 535.291433 328.18 
L 534.730231 329.72 
L 532.180123 332.8 
L 530.001394 335.88 
L 529.14308 337.42 
L 528.103247 338.96 
L 526.865288 340.5 
L 525.982257 342.04 
L 524.835096 343.58 
L 524.579271 345.12 
L 523.811716 346.66 
L 521.938325 352.82 
L 521.137827 354.36 
L 520.073238 357.44 
L 519.693594 358.98 
L 518.827015 360.52 
L 516.425481 362.06 
L 510.112023 363.6 
L 509.237218 365.14 
L 508.832817 366.68 
L 507.883743 368.22 
L 507.429869 369.76 
L 505.952576 372.84 
L 504.260742 375.92 
L 502.659707 379 
L 502.181038 380.54 
L 501.207209 382.08 
L 498.987194 385.16 
L 497.955588 386.7 
L 496.783671 388.24 
L 495.166145 389.78 
L 493.870409 391.32 
L 492.401419 392.86 
L 488.613352 397.48 
L 485.229724 402.1 
L 484.057807 405.18 
L 483.50487 406.72 
L 481.978064 409.8 
L 481.639705 411.34 
L 480.418276 414.42 
L 479.774579 415.96 
L 479.378443 417.5 
L 477.991987 420.58 
L 477.554565 422.12 
L 476.935585 423.66 
L 476.696251 425.2 
L 475.920509 426.74 
L 475.664683 428.28 
L 474.71561 431.36 
L 474.113121 435.98 
L 473.642717 437.52 
L 473.485916 439.06 
L 472.825689 442.14 
L 472.190219 446.76 
L 471.695058 456 
L 471.703285 459.08 
L 470.894521 460.62 
L 470.911013 462.16 
L 467.824458 463.7 
L 468.006015 466.78 
L 468.030771 468.32 
L 468.171082 469.86 
L 468.889085 474.48 
L 469.417267 476.02 
L 469.961939 480.64 
L 469.87118 483.72 
L 469.879406 485.26 
L 469.71434 486.8 
L 469.805138 488.34 
L 469.293486 497.58 
L 469.367755 499.12 
L 469.293486 500.66 
L 469.442023 502.2 
L 469.334734 503.74 
L 469.392511 508.36 
L 469.334734 511.44 
L 469.483309 512.98 
L 469.227444 514.52 
L 469.450249 517.6 
L 469.62358 520.68 
L 470.671717 528.38 
L 471.125591 529.92 
L 471.719814 531.46 
L 471.752835 533 
L 472.13248 534.54 
L 472.140706 536.08 
L 471.785818 539.16 
L 471.249371 543.78 
L 470.911013 545.32 
L 470.696473 546.86 
L 469.99496 549.94 
L 469.417267 553.02 
L 469.219218 554.56 
L 468.856064 556.1 
L 469.078908 557.64 
L 467.667656 560.72 
L 467.510855 562.26 
L 466.776321 563.8 
L 465.90982 565.34 
L 463.830077 568.42 
L 462.963537 569.96 
L 462.575666 571.5 
L 461.494508 573.04 
L 460.974631 574.58 
L 460.066804 576.12 
L 459.95125 577.66 
L 459.588135 579.2 
L 458.72986 580.74 
L 458.606041 582.28 
L 457.607417 583.82 
L 456.881225 585.36 
L 455.535977 586.9 
L 455.024287 588.44 
L 453.951433 589.98 
L 453.547032 591.52 
L 452.614489 593.06 
L 452.127555 594.6 
L 451.219767 596.14 
L 450.130384 597.68 
L 448.710887 600.76 
L 448.422059 602.3 
L 446.887008 603.84 
L 446.647693 605.38 
L 445.624313 606.92 
L 445.1704 610 
L 444.122302 611.54 
L 444.006767 613.08 
L 442.876117 614.62 
L 442.174643 617.7 
L 441.010991 619.24 
L 441.118261 622.32 
L 440.639611 623.86 
L 440.515811 625.4 
L 439.253116 626.94 
L 441.134772 628.48 
L 440.804658 630.02 
L 441.027482 631.56 
L 439.261381 633.1 
L 438.815733 634.64 
L 435.233998 636.18 
L 434.433461 637.72 
L 434.433461 640.8 
L 434.433461 640.8 
" clip-path="url(#pe379128ba9)" style="fill: none; stroke: #d62728; stroke-width: 4"/>
   </g>
   <g id="LineCollection_4">
    <path d="M 486.459379 409.40066 
L 486.459379 392.7258 
" clip-path="url(#pe379128ba9)" style="fill: none; stroke: #ff0000; stroke-width: 3"/>
   </g>
   <g id="line2d_24">
    <g clip-path="url(#pe379128ba9)">
     <use xlink:href="#m6085099450" x="486.459379" y="409.40066" style="fill: #ff0000; stroke: #ff0000; stroke-width: 2"/>
    </g>
   </g>
   <g id="line2d_25">
    <g clip-path="url(#pe379128ba9)">
     <use xlink:href="#m6085099450" x="486.459379" y="392.7258" style="fill: #ff0000; stroke: #ff0000; stroke-width: 2"/>
    </g>
   </g>
   <g id="line2d_26">
    <path d="M 414.405138 86.4 
L 412.079289 87.94 
L 412.079289 89.48 
L 410.189543 91.02 
L 410.189543 97.18 
L 410.593343 98.72 
L 410.593343 101.8 
L 410.771001 103.34 
L 410.771001 106.42 
L 410.916375 107.96 
L 410.884071 115.66 
L 411.942006 117.2 
L 411.5786 120.28 
L 410.496433 121.82 
L 410.205685 123.36 
L 410.310685 124.9 
L 411.917793 126.44 
L 412.345805 127.98 
L 413.153385 129.52 
L 412.588069 131.06 
L 412.265057 132.6 
L 412.402321 134.14 
L 413.153385 135.68 
L 413.032243 137.22 
L 412.59616 138.76 
L 413.71061 141.84 
L 413.702539 143.38 
L 415.85073 152.62 
L 416.860219 154.16 
L 416.860219 155.7 
L 416.416045 157.24 
L 417.368999 158.78 
L 417.368999 160.32 
L 421.592664 163.4 
L 424.104242 164.94 
L 424.104242 166.48 
L 428.97399 169.56 
L 429.660428 171.1 
L 431.364465 172.64 
L 433.989094 174.18 
L 435.402363 175.72 
L 436.347246 177.26 
L 439.125378 178.8 
L 440.643627 180.34 
L 441.750007 181.88 
L 445.287215 183.42 
L 447.621154 184.96 
L 447.621154 186.5 
L 451.586413 188.04 
L 453.718424 189.58 
L 457.990554 191.12 
L 457.990554 192.66 
L 460.09028 194.2 
L 463.393315 195.74 
L 464.233197 197.28 
L 465.460718 198.82 
L 468.376115 200.36 
L 469.03832 201.9 
L 470.26588 203.44 
L 472.317142 204.98 
L 472.745135 206.52 
L 474.416868 208.06 
L 476.75884 209.6 
L 477.08191 211.14 
L 477.824903 212.68 
L 478.236754 214.22 
L 478.325573 215.76 
L 479.714629 217.3 
L 479.940732 218.84 
L 480.304158 220.38 
L 482.072781 221.92 
L 482.250458 223.46 
L 482.654239 225 
L 484.40672 226.54 
L 485.133532 229.62 
L 486.894085 231.16 
L 487.927787 234.24 
L 489.526804 235.78 
L 489.526804 237.32 
L 491.965743 238.86 
L 492.498697 240.4 
L 492.498697 241.94 
L 494.856849 243.48 
L 495.228345 245.02 
L 495.228345 246.56 
L 498.394096 248.1 
L 499.007876 251.18 
L 500.929925 252.72 
L 501.131815 254.26 
L 501.470989 255.8 
L 503.812999 257.34 
L 503.812999 258.88 
L 504.887094 260.42 
L 505.460481 261.96 
L 505.460481 263.5 
L 508.052806 265.04 
L 508.456625 266.58 
L 508.456625 268.12 
L 507.091782 269.66 
L 506.56686 271.2 
L 506.56686 272.74 
L 506.849498 274.28 
L 506.744537 277.36 
L 506.841466 278.9 
L 506.712253 280.44 
L 506.712253 281.98 
L 506.437647 283.52 
L 506.437647 285.06 
L 506.324576 286.6 
L 505.993512 288.14 
L 505.993512 289.68 
L 506.187293 291.22 
L 506.235757 294.3 
L 505.597764 295.84 
L 505.508906 298.92 
L 505.202055 300.46 
L 505.218197 305.08 
L 505.024378 309.7 
L 504.895165 311.24 
L 505.339339 312.78 
L 505.121307 314.32 
L 504.782094 318.94 
L 504.523669 320.48 
L 503.707999 323.56 
L 503.554573 325.1 
L 502.028233 326.64 
L 501.874769 329.72 
L 500.719964 331.26 
L 500.493822 332.8 
L 499.500514 334.34 
L 499.322837 337.42 
L 499.088624 338.96 
L 499.193624 340.5 
L 498.902876 343.58 
L 498.773663 346.66 
L 498.999766 348.2 
L 499.007876 351.28 
L 498.846341 352.82 
L 498.814057 355.9 
L 498.474844 357.44 
L 498.442561 358.98 
L 497.901458 360.52 
L 497.885316 363.6 
L 497.384607 365.14 
L 497.384607 366.68 
L 497.255394 368.22 
L 496.980827 369.76 
L 496.980827 371.3 
L 496.811221 372.84 
L 496.391299 374.38 
L 496.20555 380.54 
L 496.254015 385.16 
L 496.528544 386.7 
L 496.552795 389.78 
L 497.586497 391.32 
L 497.586497 392.86 
L 497.764174 394.4 
L 498.878663 395.94 
L 498.878663 397.48 
L 499.25016 399.02 
L 500.36461 400.56 
L 500.36461 402.1 
L 500.800712 403.64 
L 501.737524 405.18 
L 501.737524 406.72 
L 502.973116 408.26 
L 502.81162 409.8 
L 502.81162 411.34 
L 504.184495 412.88 
L 504.354101 415.96 
L 504.709417 419.04 
L 504.790204 422.12 
L 504.741701 425.2 
L 504.378314 426.74 
L 504.257173 428.28 
L 504.32985 429.82 
L 504.232921 432.9 
L 503.780676 434.44 
L 503.724141 437.52 
L 503.796818 440.6 
L 503.724141 443.68 
L 503.699967 446.76 
L 503.909889 448.3 
L 503.990676 451.38 
L 504.305598 452.92 
L 504.43485 457.54 
L 504.192566 459.08 
L 504.063353 460.62 
L 503.974534 468.32 
L 503.699967 469.86 
L 503.699967 471.4 
L 503.506109 472.94 
L 502.819652 474.48 
L 502.819652 477.56 
L 502.108982 479.1 
L 501.616344 483.72 
L 502.480478 485.26 
L 501.575989 486.8 
L 501.963627 489.88 
L 500.986461 491.42 
L 500.824925 492.96 
L 500.501893 494.5 
L 499.492404 496.04 
L 499.492404 497.58 
L 499.032089 499.12 
L 498.03071 500.66 
L 497.764174 502.2 
L 496.70626 503.74 
L 496.383189 506.82 
L 495.850196 508.36 
L 495.438306 511.44 
L 494.840707 512.98 
L 494.15425 520.68 
L 494.87303 522.22 
L 494.56614 523.76 
L 494.56614 525.3 
L 493.782792 526.84 
L 493.34669 528.38 
L 492.781374 529.92 
L 492.878264 533 
L 493.104406 534.54 
L 493.104406 537.62 
L 495.777519 540.7 
L 495.777519 542.24 
L 498.208348 543.78 
L 498.765592 545.32 
L 498.765592 546.86 
L 494.396572 548.4 
L 493.411296 549.94 
L 493.411296 551.48 
L 491.392318 553.02 
L 491.077357 554.56 
L 490.503971 556.1 
L 490.051726 557.64 
L 489.195701 559.18 
L 487.798574 560.72 
L 487.184833 562.26 
L 487.023298 563.8 
L 485.860383 565.34 
L 485.577706 566.88 
L 485.01239 568.42 
L 483.28416 571.5 
L 482.993412 573.04 
L 482.153568 574.58 
L 481.55593 576.12 
L 481.467072 577.66 
L 481.208686 579.2 
L 480.239551 582.28 
L 479.8277 583.82 
L 479.940732 585.36 
L 479.609668 586.9 
L 479.900378 588.44 
L 479.714629 589.98 
L 479.173566 591.52 
L 479.310849 593.06 
L 479.238172 594.6 
L 479.706558 596.14 
L 480.619119 597.68 
L 481.257111 599.22 
L 485.981486 600.76 
L 488.711173 602.3 
L 492.321059 603.84 
L 492.207988 605.38 
L 492.337201 606.92 
L 490.932002 608.46 
L 490.560506 610 
L 490.770467 611.54 
L 490.31019 614.62 
L 490.940073 616.16 
L 490.09212 617.7 
L 490.455545 619.24 
L 491.578066 620.78 
L 492.264523 622.32 
L 492.264523 623.86 
L 497.546104 625.4 
L 498.628309 626.94 
L 498.628309 628.48 
L 499.783152 630.02 
L 499.783152 633.1 
L 502.197801 634.64 
L 502.197801 637.72 
L 501.212602 639.26 
L 501.212602 640.8 
L 501.212602 640.8 
" clip-path="url(#pe379128ba9)" style="fill: none; stroke: #9467bd; stroke-width: 4"/>
   </g>
   <g id="LineCollection_5">
    <path d="M 500.36461 413.231182 
L 500.36461 389.525774 
" clip-path="url(#pe379128ba9)" style="fill: none; stroke: #ff0000; stroke-width: 3"/>
   </g>
   <g id="line2d_27">
    <g clip-path="url(#pe379128ba9)">
     <use xlink:href="#m6085099450" x="500.36461" y="413.231182" style="fill: #ff0000; stroke: #ff0000; stroke-width: 2"/>
    </g>
   </g>
   <g id="line2d_28">
    <g clip-path="url(#pe379128ba9)">
     <use xlink:href="#m6085099450" x="500.36461" y="389.525774" style="fill: #ff0000; stroke: #ff0000; stroke-width: 2"/>
    </g>
   </g>
   <g id="line2d_29">
    <path d="M 439.858864 154.16 
L 447.814546 155.7 
L 449.667236 157.24 
L 449.776193 158.78 
L 450.330198 160.32 
L 450.720746 163.4 
L 453.000265 164.94 
L 452.882188 166.48 
L 459.212215 168.02 
L 463.716812 169.56 
L 463.480698 171.1 
L 469.483813 172.64 
L 469.610892 175.72 
L 476.531262 177.26 
L 476.240669 178.8 
L 476.812814 180.34 
L 476.93997 181.88 
L 477.630152 183.42 
L 478.674603 186.5 
L 478.919835 188.04 
L 479.419303 189.58 
L 478.629204 191.12 
L 479.382945 192.66 
L 479.382945 194.2 
L 480.036885 195.74 
L 480.018726 197.28 
L 480.62719 198.82 
L 480.917782 200.36 
L 475.877399 201.9 
L 475.913718 203.44 
L 470.473707 204.98 
L 470.428308 206.52 
L 470.573624 208.06 
L 469.365737 209.6 
L 469.365737 212.68 
L 469.847045 214.22 
L 477.584792 215.76 
L 477.493955 217.3 
L 477.730069 218.84 
L 477.966183 221.92 
L 478.184176 223.46 
L 480.118604 225 
L 480.554512 226.54 
L 484.804796 228.08 
L 484.741238 229.62 
L 484.931953 231.16 
L 485.422379 232.7 
L 485.803809 235.78 
L 485.731131 238.86 
L 485.894646 240.4 
L 495.176233 241.94 
L 509.670876 243.48 
L 509.707195 245.02 
L 516.382333 246.56 
L 516.191618 248.1 
L 523.175547 249.64 
L 523.175547 251.18 
L 526.463138 252.72 
L 526.290583 254.26 
L 525.727557 257.34 
L 528.833552 258.88 
L 528.897071 260.42 
L 528.206889 261.96 
L 528.016135 265.04 
L 527.516668 266.58 
L 527.507588 268.12 
L 526.435899 271.2 
L 525.99999 272.74 
L 524.074643 277.36 
L 519.651764 278.9 
L 518.625551 280.44 
L 518.026167 281.98 
L 516.854561 283.52 
L 526.76285 285.06 
L 530.722541 286.6 
L 533.147356 288.14 
L 532.157462 289.68 
L 546.788263 291.22 
L 545.834688 292.76 
L 547.387686 294.3 
L 557.731883 295.84 
L 556.342361 297.38 
L 555.842894 298.92 
L 563.480686 300.46 
L 561.86413 302 
L 561.328266 303.54 
L 559.566432 305.08 
L 565.496831 306.62 
L 567.749169 308.16 
L 565.106361 309.7 
L 575.968224 311.24 
L 571.854137 312.78 
L 569.801633 314.32 
L 579.764401 315.86 
L 577.93897 317.4 
L 575.114489 318.94 
L 572.008533 320.48 
L 576.186139 322.02 
L 572.880389 323.56 
L 570.155824 325.1 
L 567.858126 326.64 
L 566.305129 328.18 
L 563.816717 329.72 
L 558.403945 331.26 
L 557.677404 332.8 
L 555.851974 334.34 
L 549.276714 338.96 
L 546.388712 340.5 
L 544.181813 342.04 
L 539.050593 345.12 
L 535.681206 346.66 
L 532.629729 348.2 
L 531.103971 349.74 
L 529.051467 351.28 
L 525.62764 352.82 
L 523.493379 354.36 
L 523.311783 355.9 
L 519.915156 357.44 
L 517.145192 360.52 
L 515.574035 362.06 
L 512.404521 363.6 
L 509.834351 365.14 
L 508.462989 366.68 
L 507.427619 368.22 
L 505.87466 369.76 
L 503.186453 371.3 
L 502.396315 372.84 
L 500.334771 374.38 
L 499.135963 375.92 
L 496.810988 377.46 
L 495.339709 379 
L 494.213579 380.54 
L 493.296324 382.08 
L 490.208489 383.62 
L 487.838153 385.16 
L 486.902738 386.7 
L 485.522296 388.24 
L 482.09843 389.78 
L 478.211416 392.86 
L 476.985369 394.4 
L 474.941945 395.94 
L 473.225511 397.48 
L 470.455547 399.02 
L 468.575599 400.56 
L 465.278889 402.1 
L 463.299063 403.64 
L 461.791465 405.18 
L 457.995249 406.72 
L 454.65314 408.26 
L 453.581489 409.8 
L 451.592583 411.34 
L 449.031513 412.88 
L 446.089013 414.42 
L 443.882094 415.96 
L 443.210052 417.5 
L 438.669156 419.04 
L 436.398678 422.12 
L 434.464251 423.66 
L 432.31185 425.2 
L 430.577237 426.74 
L 429.732621 428.28 
L 427.289627 429.82 
L 425.564055 431.36 
L 421.440907 434.44 
L 417.562973 435.98 
L 414.647693 437.52 
L 407.200597 442.14 
L 404.230857 443.68 
L 401.94222 445.22 
L 400.47098 446.76 
L 397.601118 448.3 
L 395.448737 449.84 
L 394.486044 451.38 
L 393.314496 452.92 
L 389.4729 454.46 
L 389.14593 456 
L 387.783667 457.54 
L 384.913805 459.08 
L 383.369907 460.62 
L 382.54345 462.16 
L 380.082277 463.7 
L 378.847131 465.24 
L 377.266914 466.78 
L 376.376898 468.32 
L 374.578688 469.86 
L 373.652333 471.4 
L 372.253731 472.94 
L 370.228487 474.48 
L 367.849052 477.56 
L 363.51703 480.64 
L 362.445379 482.18 
L 361.119435 483.72 
L 358.167836 485.26 
L 356.950869 486.8 
L 354.789388 488.34 
L 354.335301 489.88 
L 351.338283 491.42 
L 349.2313 492.96 
L 348.468421 494.5 
L 345.135392 496.04 
L 343.609673 497.58 
L 342.710558 499.12 
L 340.340184 500.66 
L 339.250373 502.2 
L 337.252387 503.74 
L 335.944603 505.28 
L 334.427925 506.82 
L 331.821436 508.36 
L 330.304777 509.9 
L 328.551985 511.44 
L 324.683131 514.52 
L 323.566062 516.06 
L 320.750698 517.6 
L 319.733526 519.14 
L 317.971674 520.68 
L 315.138132 522.22 
L 313.557895 523.76 
L 312.340928 525.3 
L 309.325751 526.84 
L 307.15521 528.38 
L 305.847425 529.92 
L 300.698026 533 
L 299.417482 534.54 
L 297.900823 536.08 
L 294.785748 537.62 
L 291.970385 539.16 
L 288.473881 542.24 
L 284.178178 543.78 
L 283.206424 545.32 
L 281.317406 546.86 
L 278.95613 548.4 
L 276.131678 549.94 
L 274.342557 551.48 
L 271.554443 553.02 
L 269.165928 554.56 
L 266.15984 556.1 
L 264.534185 557.64 
L 261.809649 559.18 
L 259.748065 560.72 
L 258.167829 562.26 
L 254.871128 563.8 
L 253.34538 565.34 
L 251.120331 566.88 
L 247.941698 568.42 
L 245.634901 569.96 
L 243.800381 571.5 
L 240.521841 573.04 
L 238.71456 574.58 
L 236.435022 576.12 
L 233.58332 577.66 
L 229.269458 580.74 
L 226.018167 582.28 
L 224.546907 583.82 
L 220.441919 586.9 
L 217.608397 588.44 
L 213.775861 591.52 
L 211.287439 593.06 
L 209.570967 594.6 
L 208.145125 596.14 
L 205.157207 597.68 
L 203.422574 599.22 
L 202.060302 600.76 
L 200.007808 602.3 
L 198.218687 603.84 
L 197.401324 605.38 
L 195.258013 606.92 
L 194.313503 608.46 
L 192.297338 610 
L 191.607117 611.54 
L 188.746341 614.62 
L 187.493055 616.16 
L 186.693847 617.7 
L 185.050041 619.24 
L 184.959224 620.78 
L 183.46072 622.32 
L 182.325491 623.86 
L 181.753337 625.4 
L 180.781578 626.94 
L 178.68368 628.48 
L 177.185181 630.02 
L 175.868312 631.56 
L 175.723001 633.1 
L 174.642266 634.64 
L 173.779494 636.18 
L 173.488877 637.72 
L 173.488877 640.8 
L 173.488877 640.8 
" clip-path="url(#pe379128ba9)" style="fill: none; stroke: #8c564b; stroke-width: 4"/>
   </g>
   <g id="LineCollection_6">
    <path d="M 474.941945 405.475084 
L 474.941945 385.307075 
" clip-path="url(#pe379128ba9)" style="fill: none; stroke: #ff0000; stroke-width: 3"/>
   </g>
   <g id="line2d_30">
    <g clip-path="url(#pe379128ba9)">
     <use xlink:href="#m6085099450" x="474.941945" y="405.475084" style="fill: #ff0000; stroke: #ff0000; stroke-width: 2"/>
    </g>
   </g>
   <g id="line2d_31">
    <g clip-path="url(#pe379128ba9)">
     <use xlink:href="#m6085099450" x="474.941945" y="385.307075" style="fill: #ff0000; stroke: #ff0000; stroke-width: 2"/>
    </g>
   </g>
   <g id="line2d_32">
    <path d="M 722.210812 143.38 
L 722.210812 148 
L 719.730082 149.54 
L 714.656872 151.08 
L 714.656872 152.62 
L 713.152184 154.16 
L 712.928526 155.7 
L 711.749159 157.24 
L 714.087521 158.78 
L 713.345343 160.32 
L 713.619833 161.86 
L 706.381126 163.4 
L 706.035472 164.94 
L 709.034644 166.48 
L 709.12614 168.02 
L 709.339671 169.56 
L 709.776821 171.1 
L 711.271304 172.64 
L 711.484835 174.18 
L 712.257512 177.26 
L 713.802865 178.8 
L 713.924861 180.34 
L 714.219683 181.88 
L 714.982193 183.42 
L 714.880569 184.96 
L 715.551544 186.5 
L 716.395385 188.04 
L 716.303927 191.12 
L 715.765075 192.66 
L 716.181893 194.2 
L 716.131061 195.74 
L 716.547879 197.28 
L 717.229098 198.82 
L 716.761371 200.36 
L 717.717041 201.9 
L 717.788244 203.44 
L 717.39172 204.98 
L 717.351055 206.52 
L 716.181893 209.6 
L 715.236389 211.14 
L 714.107854 214.22 
L 713.691036 215.76 
L 713.68087 217.3 
L 707.662117 218.84 
L 707.32663 220.38 
L 706.32009 221.92 
L 703.636073 223.46 
L 703.503912 225 
L 703.656406 226.54 
L 703.636073 228.08 
L 701.999223 229.62 
L 701.867062 231.16 
L 700.850394 234.24 
L 700.220046 235.78 
L 700.209879 237.32 
L 699.803189 238.86 
L 699.081383 240.4 
L 698.725524 241.94 
L 698.613694 243.48 
L 699.111881 245.02 
L 699.122048 246.56 
L 698.745856 248.1 
L 698.888184 249.64 
L 698.552697 251.18 
L 698.674653 254.26 
L 698.593362 255.8 
L 698.115508 258.88 
L 695.594152 260.42 
L 694.628316 261.96 
L 694.241958 263.5 
L 691.873097 265.04 
L 690.185415 268.12 
L 688.284242 269.66 
L 687.714891 271.2 
L 687.013379 274.28 
L 685.091873 275.82 
L 684.207367 277.36 
L 683.719346 278.9 
L 680.323651 280.44 
L 678.341109 281.98 
L 678.229279 283.52 
L 675.809587 285.06 
L 674.874249 286.6 
L 674.142199 288.14 
L 671.102363 289.68 
L 670.441515 291.22 
L 668.652171 292.76 
L 668.621672 294.3 
L 666.578171 295.84 
L 664.636293 298.92 
L 661.555714 300.46 
L 660.49842 302 
L 655.760698 305.08 
L 654.378005 306.62 
L 653.402003 308.16 
L 652.568328 309.7 
L 650.13843 311.24 
L 649.741945 312.78 
L 647.139259 315.86 
L 646.549576 318.94 
L 643.763896 320.48 
L 642.411703 322.02 
L 641.344165 323.56 
L 636.31162 326.64 
L 635.132253 328.18 
L 633.271745 329.72 
L 630.526692 331.26 
L 627.863008 334.34 
L 623.267652 335.88 
L 622.840629 337.42 
L 621.651135 338.96 
L 619.953248 340.5 
L 616.45589 342.04 
L 613.212689 345.12 
L 607.509131 346.66 
L 607.02111 348.2 
L 605.30293 349.74 
L 599.884027 351.28 
L 598.501334 352.82 
L 596.701824 354.36 
L 595.390295 355.9 
L 589.808732 357.44 
L 589.473244 358.98 
L 588.151588 360.52 
L 583.667984 362.06 
L 582.478489 363.6 
L 580.780642 365.14 
L 576.835928 366.68 
L 574.233242 368.22 
L 573.755388 369.76 
L 569.444688 371.3 
L 567.645139 372.84 
L 566.099785 374.38 
L 564.269776 375.92 
L 560.528388 377.46 
L 557.732543 379 
L 557.244522 380.54 
L 553.492968 382.08 
L 550.483631 385.16 
L 546.101728 386.7 
L 544.607245 388.24 
L 542.08585 389.78 
L 541.770696 391.32 
L 537.988643 392.86 
L 536.138301 394.4 
L 534.745442 395.94 
L 530.292375 397.48 
L 529.082548 399.02 
L 520.827096 403.64 
L 520.481442 405.18 
L 519.06825 406.72 
L 514.849047 408.26 
L 513.324026 409.8 
L 508.138948 412.88 
L 505.546429 414.42 
L 505.170276 415.96 
L 501.205191 417.5 
L 499.121024 419.04 
L 497.575671 420.58 
L 494.749288 422.12 
L 488.38492 425.2 
L 487.866401 426.74 
L 483.586161 428.28 
L 481.613785 429.82 
L 480.078637 431.36 
L 473.6329 432.9 
L 473.043217 434.44 
L 469.281496 435.98 
L 468.712145 437.52 
L 463.821967 439.06 
L 461.442901 440.6 
L 459.684055 442.14 
L 452.262316 443.68 
L 451.784462 445.22 
L 445.206564 448.3 
L 444.047549 449.84 
L 441.587171 451.38 
L 436.513961 452.92 
L 432.447252 454.46 
L 430.962897 456 
L 422.829459 459.08 
L 421.253607 460.62 
L 418.396744 462.16 
L 413.120189 463.7 
L 409.388968 465.24 
L 408.80947 466.78 
L 400.970894 468.32 
L 400.513372 469.86 
L 396.466995 472.94 
L 391.02776 474.48 
L 387.449052 476.02 
L 386.859369 477.56 
L 379.305468 479.1 
L 378.847946 480.64 
L 376.723095 482.18 
L 371.060182 483.72 
L 369.12851 485.26 
L 365.559968 486.8 
L 365.061781 488.34 
L 358.473717 489.88 
L 358.13821 491.42 
L 356.125188 492.96 
L 349.150766 494.5 
L 347.11743 496.04 
L 336.330456 500.66 
L 335.923785 502.2 
L 333.981927 503.74 
L 328.430863 505.28 
L 326.916009 506.82 
L 323.377966 508.36 
L 321.04977 509.9 
L 318.111577 511.44 
L 317.389732 512.98 
L 313.363688 514.52 
L 310.862665 516.06 
L 309.469806 517.6 
L 306.70444 519.14 
L 301.275371 520.68 
L 298.449026 522.22 
L 297.605166 523.76 
L 292.786113 525.3 
L 290.508748 526.84 
L 289.654741 528.38 
L 282.222826 529.92 
L 281.236638 531.46 
L 278.623786 533 
L 274.831576 534.54 
L 272.239037 536.08 
L 271.842533 537.62 
L 270.907186 539.16 
L 265.874631 540.7 
L 265.376454 542.24 
L 262.946595 543.78 
L 259.012047 545.32 
L 256.134852 546.86 
L 255.321511 548.4 
L 248.570766 551.48 
L 248.143762 553.02 
L 245.663062 554.56 
L 242.226692 556.1 
L 239.878163 557.64 
L 239.308822 559.18 
L 235.567444 560.72 
L 233.086753 562.26 
L 232.446239 563.8 
L 228.10503 565.34 
L 227.566188 566.88 
L 225.736169 568.42 
L 225.349821 569.96 
L 223.204637 571.5 
L 220.815433 573.04 
L 219.981769 574.58 
L 216.016723 576.12 
L 215.640551 577.66 
L 212.092342 580.74 
L 211.146828 582.28 
L 209.326966 583.82 
L 209.194804 585.36 
L 208.11712 586.9 
L 207.76129 588.44 
L 207.008946 589.98 
L 204.131746 591.52 
L 203.836909 593.06 
L 202.220392 594.6 
L 197.258996 596.14 
L 195.916983 597.68 
L 195.632312 599.22 
L 194.727469 600.76 
L 189.786411 602.3 
L 189.867746 603.84 
L 189.664411 605.38 
L 187.193881 606.92 
L 186.472036 608.46 
L 184.967353 610 
L 181.86649 611.54 
L 180.839637 614.62 
L 178.623279 616.16 
L 177.881106 617.7 
L 177.545599 619.24 
L 176.986429 620.78 
L 174.444736 622.32 
L 174.363396 623.86 
L 173.265384 625.4 
L 167.704153 626.94 
L 167.846486 628.48 
L 168.273494 630.02 
L 170.845691 631.56 
L 171.303198 633.1 
L 171.191364 634.64 
L 168.853002 636.18 
L 168.090491 637.72 
L 170.99819 639.26 
L 169.554509 640.8 
L 169.554509 640.8 
" clip-path="url(#pe379128ba9)" style="fill: none; stroke: #e377c2; stroke-width: 4"/>
   </g>
   <g id="LineCollection_7">
    <path d="M 580.780642 379.076537 
L 580.780642 352.123977 
" clip-path="url(#pe379128ba9)" style="fill: none; stroke: #ff0000; stroke-width: 3"/>
   </g>
   <g id="line2d_33">
    <g clip-path="url(#pe379128ba9)">
     <use xlink:href="#m6085099450" x="580.780642" y="379.076537" style="fill: #ff0000; stroke: #ff0000; stroke-width: 2"/>
    </g>
   </g>
   <g id="line2d_34">
    <g clip-path="url(#pe379128ba9)">
     <use xlink:href="#m6085099450" x="580.780642" y="352.123977" style="fill: #ff0000; stroke: #ff0000; stroke-width: 2"/>
    </g>
   </g>
   <g id="line2d_35">
    <path d="M 600.08421 88.71 
L 600.989281 90.25 
L 602.839312 91.79 
L 605.155131 93.33 
L 608.389368 94.87 
L 612.555257 96.41 
L 616.135497 97.95 
L 625.026226 101.03 
L 639.440431 107.19 
L 645.190126 110.27 
L 649.848419 113.35 
L 653.149165 116.43 
L 654.320422 117.97 
L 656.010742 121.05 
L 657.142032 125.67 
L 657.674443 128.75 
L 658.206815 130.29 
L 659.005373 131.83 
L 660.056847 133.37 
L 661.640692 134.91 
L 665.700029 137.99 
L 667.989267 139.53 
L 670.558001 141.07 
L 673.539361 142.61 
L 680.327182 145.69 
L 683.401708 147.23 
L 690.34924 150.31 
L 693.876282 151.85 
L 697.736018 153.39 
L 701.063382 154.93 
L 707.238975 158.01 
L 712.0304 161.09 
L 714.931866 162.63 
L 716.914991 164.17 
L 722.052458 167.25 
L 724.607883 168.79 
L 733.445374 173.41 
L 747.553465 179.57 
L 753.862151 182.65 
L 758.680195 185.73 
L 760.397095 187.27 
L 762.979176 190.35 
L 764.070539 191.89 
L 764.80255 193.43 
L 765.17525 194.97 
L 766.785675 198.05 
L 767.797182 199.59 
L 771.004762 202.67 
L 772.575298 204.21 
L 774.758062 205.75 
L 776.648021 207.29 
L 779.110242 208.83 
L 783.422533 211.91 
L 785.312453 213.45 
L 787.4154 214.99 
L 790.316828 218.07 
L 792.53952 221.15 
L 794.083398 225.77 
L 794.895304 227.31 
L 795.560847 228.85 
L 796.572354 230.39 
L 797.317675 231.93 
L 799.220866 235.01 
L 803.400064 241.17 
L 806.27495 245.79 
L 807.006923 247.33 
L 807.579261 248.87 
L 808.377819 250.41 
L 809.309548 253.49 
L 809.65559 255.03 
L 809.788605 258.11 
L 810.001554 259.65 
L 810.161343 262.73 
L 809.961665 264.27 
L 809.881809 265.81 
L 809.429293 268.89 
L 809.376056 270.43 
L 808.763828 276.59 
L 808.830335 278.13 
L 808.324582 287.37 
L 807.738973 290.45 
L 806.913796 293.53 
L 805.875671 296.61 
L 805.529629 298.15 
L 805.010528 299.69 
L 803.719564 307.39 
L 803.280319 310.47 
L 801.74971 318.17 
L 801.403669 319.71 
L 800.791441 321.25 
L 800.338925 322.79 
L 799.194325 325.87 
L 798.741809 327.41 
L 798.435656 328.95 
L 797.477386 332.03 
L 796.745336 335.11 
L 796.559006 336.65 
L 796.212964 338.19 
L 796.332786 339.73 
L 796.239583 342.81 
L 796.212964 350.51 
L 796.066523 352.05 
L 795.720559 353.59 
L 794.229839 356.67 
L 792.805783 358.21 
L 790.729455 361.29 
L 789.158957 362.83 
L 788.320433 364.37 
L 786.656731 365.91 
L 785.312453 367.45 
L 784.287676 368.99 
L 782.424374 370.53 
L 781.359552 372.07 
L 780.148367 373.61 
L 778.444777 375.15 
L 776.235433 378.23 
L 774.372092 379.77 
L 773.227454 381.31 
L 771.430659 382.85 
L 766.49287 385.93 
L 763.817662 387.47 
L 759.585266 389.01 
L 754.26143 390.55 
L 750.029033 392.09 
L 744.372503 393.63 
L 736.094002 396.71 
L 730.863331 398.25 
L 721.493468 401.33 
L 696.085626 409.03 
L 674.990075 415.19 
L 668.069162 416.73 
L 662.62558 418.27 
L 657.607858 419.81 
L 651.951328 421.35 
L 645.389726 422.89 
L 640.345463 424.43 
L 633.890336 425.97 
L 628.659742 427.51 
L 622.217925 429.05 
L 617.386571 430.59 
L 572.560228 441.37 
L 572.560228 441.37 
" clip-path="url(#pe379128ba9)" style="fill: none; stroke: #7f7f7f; stroke-width: 4"/>
   </g>
   <g id="LineCollection_8">
    <path d="M 797.064759 340.568235 
L 797.064759 325.473815 
" clip-path="url(#pe379128ba9)" style="fill: none; stroke: #ff0000; stroke-width: 3"/>
   </g>
   <g id="line2d_36">
    <g clip-path="url(#pe379128ba9)">
     <use xlink:href="#m6085099450" x="797.064759" y="340.568235" style="fill: #ff0000; stroke: #ff0000; stroke-width: 2"/>
    </g>
   </g>
   <g id="line2d_37">
    <g clip-path="url(#pe379128ba9)">
     <use xlink:href="#m6085099450" x="797.064759" y="325.473815" style="fill: #ff0000; stroke: #ff0000; stroke-width: 2"/>
    </g>
   </g>
   <g id="line2d_38">
    <path d="M 633.114982 88.71 
L 633.96344 90.25 
L 635.395994 91.79 
L 638.594921 93.33 
L 642.266775 94.87 
L 646.828722 96.41 
L 655.424124 99.49 
L 659.707933 101.03 
L 662.962503 102.57 
L 667.315847 104.11 
L 677.037806 107.19 
L 680.834837 108.73 
L 685.313358 110.27 
L 690.139512 111.81 
L 694.173006 113.35 
L 698.790557 114.89 
L 709.096728 117.97 
L 713.811673 119.51 
L 717.803416 121.05 
L 721.461339 122.59 
L 724.507267 124.13 
L 727.12206 125.67 
L 730.251453 128.75 
L 732.518496 131.83 
L 733.561627 133.37 
L 736.746663 136.45 
L 738.679964 137.99 
L 744.090331 141.07 
L 760.418824 148.77 
L 763.214398 150.31 
L 765.704013 151.85 
L 767.957165 153.39 
L 788.972782 170.33 
L 795.356745 176.49 
L 799.404169 181.11 
L 802.700452 185.73 
L 803.966116 188.81 
L 804.564142 190.35 
L 804.897922 191.89 
L 804.939674 193.43 
L 805.356957 196.51 
L 805.05096 201.13 
L 805.106525 202.67 
L 804.744962 204.21 
L 804.647568 208.83 
L 804.411105 210.37 
L 804.327679 213.45 
L 804.18861 216.53 
L 804.244253 219.61 
L 804.508499 222.69 
L 804.856248 224.23 
L 805.342988 227.31 
L 806.497367 231.93 
L 807.137222 233.47 
L 807.902177 236.55 
L 808.361134 238.09 
L 808.65324 239.63 
L 808.764449 241.17 
L 809.390413 244.25 
L 810.739502 250.41 
L 811.532317 253.49 
L 812.686695 258.11 
L 813.117793 259.65 
L 815.524021 273.51 
L 816.17769 276.59 
L 816.400262 278.13 
L 817.248642 281.21 
L 817.332068 282.75 
L 817.860637 285.83 
L 818.333486 288.91 
L 818.528198 290.45 
L 818.903729 291.99 
L 819.279261 295.07 
L 819.473973 296.61 
L 819.501755 298.15 
L 819.710436 299.69 
L 819.766079 302.77 
L 819.766079 305.85 
L 819.849505 308.93 
L 819.654793 315.09 
L 818.917621 322.79 
L 818.695127 325.87 
L 818.597732 328.95 
L 818.458663 330.49 
L 817.874529 333.57 
L 817.818886 335.11 
L 817.415494 336.65 
L 817.137356 338.19 
L 816.734042 339.73 
L 811.907772 341.27 
L 804.480717 342.81 
L 795.481923 344.35 
L 781.782113 345.89 
L 781.782113 345.89 
" clip-path="url(#pe379128ba9)" style="fill: none; stroke: #bcbd22; stroke-width: 4"/>
   </g>
   <g id="LineCollection_9">
    <path d="M 817.874529 342.611642 
L 817.874529 323.227156 
" clip-path="url(#pe379128ba9)" style="fill: none; stroke: #ff0000; stroke-width: 3"/>
   </g>
   <g id="line2d_39">
    <g clip-path="url(#pe379128ba9)">
     <use xlink:href="#m6085099450" x="817.874529" y="342.611642" style="fill: #ff0000; stroke: #ff0000; stroke-width: 2"/>
    </g>
   </g>
   <g id="line2d_40">
    <g clip-path="url(#pe379128ba9)">
     <use xlink:href="#m6085099450" x="817.874529" y="323.227156" style="fill: #ff0000; stroke: #ff0000; stroke-width: 2"/>
    </g>
   </g>
   <g id="LineCollection_10">
    <path d="M 282.24 379 
L 282.24 348.2 
" clip-path="url(#pe379128ba9)" style="fill: none; stroke: #ff0000; stroke-width: 5"/>
   </g>
   <g id="line2d_41">
    <defs>
     <path id="m02ae5a477d" d="M 9 0 
L -9 -0 
" style="stroke: #ff0000; stroke-width: 3"/>
    </defs>
    <g clip-path="url(#pe379128ba9)">
     <use xlink:href="#m02ae5a477d" x="282.24" y="379" style="fill: #ff0000; stroke: #ff0000; stroke-width: 3"/>
    </g>
   </g>
   <g id="line2d_42">
    <g clip-path="url(#pe379128ba9)">
     <use xlink:href="#m02ae5a477d" x="282.24" y="348.2" style="fill: #ff0000; stroke: #ff0000; stroke-width: 3"/>
    </g>
   </g>
   <g id="line2d_43">
    <path d="M 564.797841 401.568935 
" clip-path="url(#pe379128ba9)" style="fill: none; stroke: #1f77b4; stroke-width: 1.5; stroke-linecap: square"/>
   </g>
   <g id="line2d_44">
    <path d="M 421.575242 400.853377 
" clip-path="url(#pe379128ba9)" style="fill: none; stroke: #ff7f0e; stroke-width: 1.5; stroke-linecap: square"/>
   </g>
   <g id="line2d_45">
    <path d="M 648.731447 401.371464 
" clip-path="url(#pe379128ba9)" style="fill: none; stroke: #2ca02c; stroke-width: 1.5; stroke-linecap: square"/>
   </g>
   <g id="line2d_46">
    <path d="M 486.459379 401.06323 
" clip-path="url(#pe379128ba9)" style="fill: none; stroke: #d62728; stroke-width: 1.5; stroke-linecap: square"/>
   </g>
   <g id="line2d_47">
    <path d="M 500.36461 401.378478 
" clip-path="url(#pe379128ba9)" style="fill: none; stroke: #9467bd; stroke-width: 1.5; stroke-linecap: square"/>
   </g>
   <g id="line2d_48">
    <path d="M 474.941945 395.391079 
" clip-path="url(#pe379128ba9)" style="fill: none; stroke: #8c564b; stroke-width: 1.5; stroke-linecap: square"/>
   </g>
   <g id="line2d_49">
    <path d="M 580.780642 365.600257 
" clip-path="url(#pe379128ba9)" style="fill: none; stroke: #e377c2; stroke-width: 1.5; stroke-linecap: square"/>
   </g>
   <g id="line2d_50">
    <path d="M 797.064759 333.021025 
" clip-path="url(#pe379128ba9)" style="fill: none; stroke: #7f7f7f; stroke-width: 1.5; stroke-linecap: square"/>
   </g>
   <g id="line2d_51">
    <path d="M 817.874529 332.919399 
" clip-path="url(#pe379128ba9)" style="fill: none; stroke: #bcbd22; stroke-width: 1.5; stroke-linecap: square"/>
   </g>
   <g id="line2d_52">
    <path d="M 282.24 363.6 
" clip-path="url(#pe379128ba9)" style="fill: none; stroke: #17becf; stroke-width: 1.5; stroke-linecap: square"/>
   </g>
   <g id="patch_3">
    <path d="M 126 640.8 
L 126 86.4 
" style="fill: none; stroke: #000000; stroke-width: 0.8; stroke-linejoin: miter; stroke-linecap: square"/>
   </g>
   <g id="patch_4">
    <path d="M 907.2 640.8 
L 907.2 86.4 
" style="fill: none; stroke: #000000; stroke-width: 0.8; stroke-linejoin: miter; stroke-linecap: square"/>
   </g>
   <g id="patch_5">
    <path d="M 126 640.8 
L 907.2 640.8 
" style="fill: none; stroke: #000000; stroke-width: 0.8; stroke-linejoin: miter; stroke-linecap: square"/>
   </g>
   <g id="patch_6">
    <path d="M 126 86.4 
L 907.2 86.4 
" style="fill: none; stroke: #000000; stroke-width: 0.8; stroke-linejoin: miter; stroke-linecap: square"/>
   </g>
   <g id="legend_1">
    <g id="line2d_53">
     <path d="M 144 244.321875 
L 164 244.321875 
L 184 244.321875 
" style="fill: none; stroke: #1f77b4; stroke-width: 4"/>
    </g>
    <g id="text_16">
     <!-- Ta -->
     <g transform="translate(200 251.321875) scale(0.2 -0.2)">
      <defs>
       <path id="DejaVuSansMono-54" d="M 147 4666 
L 3706 4666 
L 3706 4134 
L 2247 4134 
L 2247 0 
L 1613 0 
L 1613 4134 
L 147 4134 
L 147 4666 
z
" transform="scale(0.015625)"/>
      </defs>
      <use xlink:href="#DejaVuSansMono-54"/>
      <use xlink:href="#DejaVuSansMono-61" x="60.205078"/>
     </g>
    </g>
    <g id="line2d_54">
     <path d="M 144 273.784375 
L 164 273.784375 
L 184 273.784375 
" style="fill: none; stroke: #ff7f0e; stroke-width: 4"/>
    </g>
    <g id="text_17">
     <!-- T8 -->
     <g transform="translate(200 280.784375) scale(0.2 -0.2)">
      <defs>
       <path id="DejaVuSansMono-38" d="M 1925 2216 
Q 1503 2216 1273 1980 
Q 1044 1744 1044 1313 
Q 1044 881 1276 642 
Q 1509 403 1925 403 
Q 2350 403 2579 639 
Q 2809 875 2809 1313 
Q 2809 1741 2576 1978 
Q 2344 2216 1925 2216 
z
M 1375 2478 
Q 972 2581 745 2862 
Q 519 3144 519 3541 
Q 519 4097 897 4423 
Q 1275 4750 1925 4750 
Q 2578 4750 2956 4423 
Q 3334 4097 3334 3541 
Q 3334 3144 3107 2862 
Q 2881 2581 2478 2478 
Q 2947 2375 3195 2062 
Q 3444 1750 3444 1253 
Q 3444 622 3041 265 
Q 2638 -91 1925 -91 
Q 1213 -91 811 264 
Q 409 619 409 1247 
Q 409 1747 657 2061 
Q 906 2375 1375 2478 
z
M 1147 3481 
Q 1147 3106 1347 2909 
Q 1547 2713 1925 2713 
Q 2306 2713 2506 2909 
Q 2706 3106 2706 3481 
Q 2706 3863 2507 4063 
Q 2309 4263 1925 4263 
Q 1547 4263 1347 4061 
Q 1147 3859 1147 3481 
z
" transform="scale(0.015625)"/>
      </defs>
      <use xlink:href="#DejaVuSansMono-54"/>
      <use xlink:href="#DejaVuSansMono-38" x="60.205078"/>
     </g>
    </g>
    <g id="line2d_55">
     <path d="M 144 303.246875 
L 164 303.246875 
L 184 303.246875 
" style="fill: none; stroke: #2ca02c; stroke-width: 4"/>
    </g>
    <g id="text_18">
     <!-- T31 -->
     <g transform="translate(200 310.246875) scale(0.2 -0.2)">
      <use xlink:href="#DejaVuSansMono-54"/>
      <use xlink:href="#DejaVuSansMono-33" x="60.205078"/>
      <use xlink:href="#DejaVuSansMono-31" x="120.410156"/>
     </g>
    </g>
    <g id="line2d_56">
     <path d="M 144 332.709375 
L 164 332.709375 
L 184 332.709375 
" style="fill: none; stroke: #d62728; stroke-width: 4"/>
    </g>
    <g id="text_19">
     <!-- T61 -->
     <g transform="translate(200 339.709375) scale(0.2 -0.2)">
      <use xlink:href="#DejaVuSansMono-54"/>
      <use xlink:href="#DejaVuSansMono-36" x="60.205078"/>
      <use xlink:href="#DejaVuSansMono-31" x="120.410156"/>
     </g>
    </g>
    <g id="line2d_57">
     <path d="M 144 362.171875 
L 164 362.171875 
L 184 362.171875 
" style="fill: none; stroke: #9467bd; stroke-width: 4"/>
    </g>
    <g id="text_20">
     <!-- T67 -->
     <g transform="translate(200 369.171875) scale(0.2 -0.2)">
      <use xlink:href="#DejaVuSansMono-54"/>
      <use xlink:href="#DejaVuSansMono-36" x="60.205078"/>
      <use xlink:href="#DejaVuSansMono-37" x="120.410156"/>
     </g>
    </g>
    <g id="line2d_58">
     <path d="M 144 391.634375 
L 164 391.634375 
L 184 391.634375 
" style="fill: none; stroke: #8c564b; stroke-width: 4"/>
    </g>
    <g id="text_21">
     <!-- T85 -->
     <g transform="translate(200 398.634375) scale(0.2 -0.2)">
      <use xlink:href="#DejaVuSansMono-54"/>
      <use xlink:href="#DejaVuSansMono-38" x="60.205078"/>
      <use xlink:href="#DejaVuSansMono-35" x="120.410156"/>
     </g>
    </g>
    <g id="line2d_59">
     <path d="M 144 421.096875 
L 164 421.096875 
L 184 421.096875 
" style="fill: none; stroke: #e377c2; stroke-width: 4"/>
    </g>
    <g id="text_22">
     <!-- T108 -->
     <g transform="translate(200 428.096875) scale(0.2 -0.2)">
      <use xlink:href="#DejaVuSansMono-54"/>
      <use xlink:href="#DejaVuSansMono-31" x="60.205078"/>
      <use xlink:href="#DejaVuSansMono-30" x="120.410156"/>
      <use xlink:href="#DejaVuSansMono-38" x="180.615234"/>
     </g>
    </g>
    <g id="line2d_60">
     <path d="M 144 450.559375 
L 164 450.559375 
L 184 450.559375 
" style="fill: none; stroke: #7f7f7f; stroke-width: 4"/>
    </g>
    <g id="text_23">
     <!-- 278TI -->
     <g transform="translate(200 457.559375) scale(0.2 -0.2)">
      <defs>
       <path id="DejaVuSansMono-32" d="M 1166 531 
L 3309 531 
L 3309 0 
L 475 0 
L 475 531 
Q 1059 1147 1496 1619 
Q 1934 2091 2100 2284 
Q 2413 2666 2522 2902 
Q 2631 3138 2631 3384 
Q 2631 3775 2401 3997 
Q 2172 4219 1772 4219 
Q 1488 4219 1175 4116 
Q 863 4013 513 3803 
L 513 4441 
Q 834 4594 1145 4672 
Q 1456 4750 1759 4750 
Q 2444 4750 2861 4386 
Q 3278 4022 3278 3431 
Q 3278 3131 3139 2831 
Q 3000 2531 2688 2169 
Q 2513 1966 2180 1606 
Q 1847 1247 1166 531 
z
" transform="scale(0.015625)"/>
      </defs>
      <use xlink:href="#DejaVuSansMono-32"/>
      <use xlink:href="#DejaVuSansMono-37" x="60.205078"/>
      <use xlink:href="#DejaVuSansMono-38" x="120.410156"/>
      <use xlink:href="#DejaVuSansMono-54" x="180.615234"/>
      <use xlink:href="#DejaVuSansMono-49" x="240.820312"/>
     </g>
    </g>
    <g id="line2d_61">
     <path d="M 144 480.021875 
L 164 480.021875 
L 184 480.021875 
" style="fill: none; stroke: #bcbd22; stroke-width: 4"/>
    </g>
    <g id="text_24">
     <!-- 283TI -->
     <g transform="translate(200 487.021875) scale(0.2 -0.2)">
      <use xlink:href="#DejaVuSansMono-32"/>
      <use xlink:href="#DejaVuSansMono-38" x="60.205078"/>
      <use xlink:href="#DejaVuSansMono-33" x="120.410156"/>
      <use xlink:href="#DejaVuSansMono-54" x="180.615234"/>
      <use xlink:href="#DejaVuSansMono-49" x="240.820312"/>
     </g>
    </g>
   </g>
  </g>
  <g id="text_25">
   <!-- 0.550µm -->
   <g transform="translate(504 72) scale(0.24 -0.24)">
    <defs>
     <path id="DejaVuSansMono-b5" d="M 609 -1338 
L 609 3500 
L 1184 3500 
L 1184 1325 
Q 1184 881 1371 645 
Q 1559 409 1906 409 
Q 2303 409 2504 675 
Q 2706 941 2706 1459 
L 2706 3500 
L 3284 3500 
L 3284 800 
Q 3284 616 3334 528 
Q 3384 441 3488 441 
Q 3516 441 3561 456 
Q 3606 472 3694 513 
L 3694 50 
Q 3575 -22 3469 -56 
Q 3363 -91 3256 -91 
Q 3063 -91 2945 32 
Q 2828 156 2791 403 
Q 2647 153 2439 31 
Q 2231 -91 1953 -91 
Q 1666 -91 1467 28 
Q 1269 147 1131 397 
L 1131 -1338 
L 609 -1338 
z
" transform="scale(0.015625)"/>
     <path id="DejaVuSansMono-6d" d="M 2113 3144 
Q 2219 3369 2383 3476 
Q 2547 3584 2778 3584 
Q 3200 3584 3373 3257 
Q 3547 2931 3547 2028 
L 3547 0 
L 3022 0 
L 3022 2003 
Q 3022 2744 2939 2923 
Q 2856 3103 2638 3103 
Q 2388 3103 2295 2911 
Q 2203 2719 2203 2003 
L 2203 0 
L 1678 0 
L 1678 2003 
Q 1678 2753 1589 2928 
Q 1500 3103 1269 3103 
Q 1041 3103 952 2911 
Q 863 2719 863 2003 
L 863 0 
L 341 0 
L 341 3500 
L 863 3500 
L 863 3200 
Q 966 3388 1120 3486 
Q 1275 3584 1472 3584 
Q 1709 3584 1867 3475 
Q 2025 3366 2113 3144 
z
" transform="scale(0.015625)"/>
    </defs>
    <use xlink:href="#DejaVuSansMono-30"/>
    <use xlink:href="#DejaVuSansMono-2e" x="60.205078"/>
    <use xlink:href="#DejaVuSansMono-35" x="120.410156"/>
    <use xlink:href="#DejaVuSansMono-35" x="180.615234"/>
    <use xlink:href="#DejaVuSansMono-30" x="240.820312"/>
    <use xlink:href="#DejaVuSansMono-b5" x="301.025391"/>
    <use xlink:href="#DejaVuSansMono-6d" x="361.230469"/>
   </g>
  </g>
 </g>
 <defs>
  <clipPath id="pe379128ba9">
   <rect x="126" y="86.4" width="781.2" height="554.4"/>
  </clipPath>
 </defs>
</svg>
