<?xml version="1.0" encoding="utf-8" standalone="no"?>
<!DOCTYPE svg PUBLIC "-//W3C//DTD SVG 1.1//EN"
  "http://www.w3.org/Graphics/SVG/1.1/DTD/svg11.dtd">
<svg xmlns:xlink="http://www.w3.org/1999/xlink" width="1008pt" height="720pt" viewBox="0 0 1008 720" xmlns="http://www.w3.org/2000/svg" version="1.1">
 <metadata>
  <rdf:RDF xmlns:dc="http://purl.org/dc/elements/1.1/" xmlns:cc="http://creativecommons.org/ns#" xmlns:rdf="http://www.w3.org/1999/02/22-rdf-syntax-ns#">
   <cc:Work>
    <dc:type rdf:resource="http://purl.org/dc/dcmitype/StillImage"/>
    <dc:date>2023-05-07T21:25:42.840764</dc:date>
    <dc:format>image/svg+xml</dc:format>
    <dc:creator>
     <cc:Agent>
      <dc:title>Matplotlib v3.6.3, https://matplotlib.org/</dc:title>
     </cc:Agent>
    </dc:creator>
   </cc:Work>
  </rdf:RDF>
 </metadata>
 <defs>
  <style type="text/css">*{stroke-linejoin: round; stroke-linecap: butt}</style>
 </defs>
 <g id="figure_1">
  <g id="patch_1">
   <path d="M 0 720 
L 1008 720 
L 1008 0 
L 0 0 
z
" style="fill: #ffffff"/>
  </g>
  <g id="axes_1">
   <g id="patch_2">
    <path d="M 126 640.8 
L 907.2 640.8 
L 907.2 86.4 
L 126 86.4 
z
" style="fill: #ffffff"/>
   </g>
   <g id="matplotlib.axis_1">
    <g id="xtick_1">
     <g id="line2d_1">
      <defs>
       <path id="m2a90a2347b" d="M 0 0 
L 0 3.5 
" style="stroke: #000000; stroke-width: 0.8"/>
      </defs>
      <g>
       <use xlink:href="#m2a90a2347b" x="126" y="640.8" style="stroke: #000000; stroke-width: 0.8"/>
      </g>
     </g>
     <g id="text_1">
      <!-- 0.000 -->
      <g transform="translate(86.867969 667.694062) scale(0.26 -0.26)">
       <defs>
        <path id="DejaVuSansMono-30" d="M 1509 2344 
Q 1509 2516 1629 2641 
Q 1750 2766 1919 2766 
Q 2094 2766 2219 2641 
Q 2344 2516 2344 2344 
Q 2344 2169 2220 2047 
Q 2097 1925 1919 1925 
Q 1744 1925 1626 2044 
Q 1509 2163 1509 2344 
z
M 1925 4250 
Q 1484 4250 1267 3775 
Q 1050 3300 1050 2328 
Q 1050 1359 1267 884 
Q 1484 409 1925 409 
Q 2369 409 2586 884 
Q 2803 1359 2803 2328 
Q 2803 3300 2586 3775 
Q 2369 4250 1925 4250 
z
M 1925 4750 
Q 2672 4750 3055 4137 
Q 3438 3525 3438 2328 
Q 3438 1134 3055 521 
Q 2672 -91 1925 -91 
Q 1178 -91 797 521 
Q 416 1134 416 2328 
Q 416 3525 797 4137 
Q 1178 4750 1925 4750 
z
" transform="scale(0.015625)"/>
        <path id="DejaVuSansMono-2e" d="M 1528 953 
L 2316 953 
L 2316 0 
L 1528 0 
L 1528 953 
z
" transform="scale(0.015625)"/>
       </defs>
       <use xlink:href="#DejaVuSansMono-30"/>
       <use xlink:href="#DejaVuSansMono-2e" x="60.205078"/>
       <use xlink:href="#DejaVuSansMono-30" x="120.410156"/>
       <use xlink:href="#DejaVuSansMono-30" x="180.615234"/>
       <use xlink:href="#DejaVuSansMono-30" x="240.820312"/>
      </g>
     </g>
    </g>
    <g id="xtick_2">
     <g id="line2d_2">
      <g>
       <use xlink:href="#m2a90a2347b" x="282.24" y="640.8" style="stroke: #000000; stroke-width: 0.8"/>
      </g>
     </g>
     <g id="text_2">
      <!-- 0.015 -->
      <g transform="translate(243.107969 667.694062) scale(0.26 -0.26)">
       <defs>
        <path id="DejaVuSansMono-31" d="M 844 531 
L 1825 531 
L 1825 4097 
L 769 3859 
L 769 4434 
L 1819 4666 
L 2450 4666 
L 2450 531 
L 3419 531 
L 3419 0 
L 844 0 
L 844 531 
z
" transform="scale(0.015625)"/>
        <path id="DejaVuSansMono-35" d="M 647 4666 
L 3009 4666 
L 3009 4134 
L 1222 4134 
L 1222 2988 
Q 1356 3038 1492 3061 
Q 1628 3084 1766 3084 
Q 2491 3084 2916 2656 
Q 3341 2228 3341 1497 
Q 3341 759 2895 334 
Q 2450 -91 1678 -91 
Q 1306 -91 998 -41 
Q 691 9 447 109 
L 447 750 
Q 734 594 1025 517 
Q 1316 441 1619 441 
Q 2141 441 2423 716 
Q 2706 991 2706 1497 
Q 2706 1997 2414 2275 
Q 2122 2553 1600 2553 
Q 1347 2553 1106 2495 
Q 866 2438 647 2322 
L 647 4666 
z
" transform="scale(0.015625)"/>
       </defs>
       <use xlink:href="#DejaVuSansMono-30"/>
       <use xlink:href="#DejaVuSansMono-2e" x="60.205078"/>
       <use xlink:href="#DejaVuSansMono-30" x="120.410156"/>
       <use xlink:href="#DejaVuSansMono-31" x="180.615234"/>
       <use xlink:href="#DejaVuSansMono-35" x="240.820312"/>
      </g>
     </g>
    </g>
    <g id="xtick_3">
     <g id="line2d_3">
      <g>
       <use xlink:href="#m2a90a2347b" x="438.48" y="640.8" style="stroke: #000000; stroke-width: 0.8"/>
      </g>
     </g>
     <g id="text_3">
      <!-- 0.030 -->
      <g transform="translate(399.347969 667.694062) scale(0.26 -0.26)">
       <defs>
        <path id="DejaVuSansMono-33" d="M 2425 2497 
Q 2884 2375 3128 2064 
Q 3372 1753 3372 1288 
Q 3372 644 2939 276 
Q 2506 -91 1741 -91 
Q 1419 -91 1084 -31 
Q 750 28 428 141 
L 428 769 
Q 747 603 1056 522 
Q 1366 441 1672 441 
Q 2191 441 2469 675 
Q 2747 909 2747 1350 
Q 2747 1756 2469 1995 
Q 2191 2234 1716 2234 
L 1234 2234 
L 1234 2753 
L 1716 2753 
Q 2150 2753 2394 2943 
Q 2638 3134 2638 3475 
Q 2638 3834 2411 4026 
Q 2184 4219 1766 4219 
Q 1488 4219 1191 4156 
Q 894 4094 569 3969 
L 569 4550 
Q 947 4650 1242 4700 
Q 1538 4750 1766 4750 
Q 2447 4750 2855 4408 
Q 3263 4066 3263 3500 
Q 3263 3116 3048 2859 
Q 2834 2603 2425 2497 
z
" transform="scale(0.015625)"/>
       </defs>
       <use xlink:href="#DejaVuSansMono-30"/>
       <use xlink:href="#DejaVuSansMono-2e" x="60.205078"/>
       <use xlink:href="#DejaVuSansMono-30" x="120.410156"/>
       <use xlink:href="#DejaVuSansMono-33" x="180.615234"/>
       <use xlink:href="#DejaVuSansMono-30" x="240.820312"/>
      </g>
     </g>
    </g>
    <g id="xtick_4">
     <g id="line2d_4">
      <g>
       <use xlink:href="#m2a90a2347b" x="594.72" y="640.8" style="stroke: #000000; stroke-width: 0.8"/>
      </g>
     </g>
     <g id="text_4">
      <!-- 0.045 -->
      <g transform="translate(555.587969 667.694062) scale(0.26 -0.26)">
       <defs>
        <path id="DejaVuSansMono-34" d="M 2297 4091 
L 825 1625 
L 2297 1625 
L 2297 4091 
z
M 2194 4666 
L 2925 4666 
L 2925 1625 
L 3547 1625 
L 3547 1113 
L 2925 1113 
L 2925 0 
L 2297 0 
L 2297 1113 
L 319 1113 
L 319 1709 
L 2194 4666 
z
" transform="scale(0.015625)"/>
       </defs>
       <use xlink:href="#DejaVuSansMono-30"/>
       <use xlink:href="#DejaVuSansMono-2e" x="60.205078"/>
       <use xlink:href="#DejaVuSansMono-30" x="120.410156"/>
       <use xlink:href="#DejaVuSansMono-34" x="180.615234"/>
       <use xlink:href="#DejaVuSansMono-35" x="240.820312"/>
      </g>
     </g>
    </g>
    <g id="xtick_5">
     <g id="line2d_5">
      <g>
       <use xlink:href="#m2a90a2347b" x="750.96" y="640.8" style="stroke: #000000; stroke-width: 0.8"/>
      </g>
     </g>
     <g id="text_5">
      <!-- 0.060 -->
      <g transform="translate(711.827969 667.694062) scale(0.26 -0.26)">
       <defs>
        <path id="DejaVuSansMono-36" d="M 3097 4563 
L 3097 3981 
Q 2900 4097 2678 4158 
Q 2456 4219 2216 4219 
Q 1616 4219 1306 3767 
Q 997 3316 997 2438 
Q 1147 2750 1412 2917 
Q 1678 3084 2022 3084 
Q 2697 3084 3067 2670 
Q 3438 2256 3438 1497 
Q 3438 741 3056 325 
Q 2675 -91 1984 -91 
Q 1172 -91 794 492 
Q 416 1075 416 2328 
Q 416 3509 870 4129 
Q 1325 4750 2188 4750 
Q 2419 4750 2650 4701 
Q 2881 4653 3097 4563 
z
M 1972 2591 
Q 1569 2591 1337 2300 
Q 1106 2009 1106 1497 
Q 1106 984 1337 693 
Q 1569 403 1972 403 
Q 2391 403 2603 679 
Q 2816 956 2816 1497 
Q 2816 2041 2603 2316 
Q 2391 2591 1972 2591 
z
" transform="scale(0.015625)"/>
       </defs>
       <use xlink:href="#DejaVuSansMono-30"/>
       <use xlink:href="#DejaVuSansMono-2e" x="60.205078"/>
       <use xlink:href="#DejaVuSansMono-30" x="120.410156"/>
       <use xlink:href="#DejaVuSansMono-36" x="180.615234"/>
       <use xlink:href="#DejaVuSansMono-30" x="240.820312"/>
      </g>
     </g>
    </g>
    <g id="xtick_6">
     <g id="line2d_6">
      <g>
       <use xlink:href="#m2a90a2347b" x="907.2" y="640.8" style="stroke: #000000; stroke-width: 0.8"/>
      </g>
     </g>
     <g id="text_6">
      <!-- 0.075 -->
      <g transform="translate(868.067969 667.694062) scale(0.26 -0.26)">
       <defs>
        <path id="DejaVuSansMono-37" d="M 434 4666 
L 3372 4666 
L 3372 4397 
L 1703 0 
L 1044 0 
L 2669 4134 
L 434 4134 
L 434 4666 
z
" transform="scale(0.015625)"/>
       </defs>
       <use xlink:href="#DejaVuSansMono-30"/>
       <use xlink:href="#DejaVuSansMono-2e" x="60.205078"/>
       <use xlink:href="#DejaVuSansMono-30" x="120.410156"/>
       <use xlink:href="#DejaVuSansMono-37" x="180.615234"/>
       <use xlink:href="#DejaVuSansMono-35" x="240.820312"/>
      </g>
     </g>
    </g>
    <g id="text_7">
     <!-- I/F -->
     <g transform="translate(494.926875 695.465) scale(0.24 -0.24)">
      <defs>
       <path id="DejaVuSansMono-49" d="M 628 4666 
L 3219 4666 
L 3219 4134 
L 2241 4134 
L 2241 531 
L 3219 531 
L 3219 0 
L 628 0 
L 628 531 
L 1606 531 
L 1606 4134 
L 628 4134 
L 628 4666 
z
" transform="scale(0.015625)"/>
       <path id="DejaVuSansMono-2f" d="M 2778 4666 
L 3372 4666 
L 916 -594 
L 319 -594 
L 2778 4666 
z
" transform="scale(0.015625)"/>
       <path id="DejaVuSansMono-46" d="M 728 4666 
L 3475 4666 
L 3475 4134 
L 1363 4134 
L 1363 2759 
L 3278 2759 
L 3278 2228 
L 1363 2228 
L 1363 0 
L 728 0 
L 728 4666 
z
" transform="scale(0.015625)"/>
      </defs>
      <use xlink:href="#DejaVuSansMono-49"/>
      <use xlink:href="#DejaVuSansMono-2f" x="60.205078"/>
      <use xlink:href="#DejaVuSansMono-46" x="120.410156"/>
     </g>
    </g>
   </g>
   <g id="matplotlib.axis_2">
    <g id="ytick_1">
     <g id="line2d_7">
      <defs>
       <path id="m3cfa4658f3" d="M 0 0 
L -3.5 0 
" style="stroke: #000000; stroke-width: 0.8"/>
      </defs>
      <g>
       <use xlink:href="#m3cfa4658f3" x="126" y="640.8" style="stroke: #000000; stroke-width: 0.8"/>
      </g>
     </g>
     <g id="text_8">
      <!-- 90°S -->
      <g transform="translate(56.38875 650.747031) scale(0.26 -0.26)">
       <defs>
        <path id="DejaVuSansMono-39" d="M 1863 2069 
Q 2266 2069 2495 2359 
Q 2725 2650 2725 3163 
Q 2725 3675 2495 3965 
Q 2266 4256 1863 4256 
Q 1444 4256 1231 3979 
Q 1019 3703 1019 3163 
Q 1019 2619 1230 2344 
Q 1441 2069 1863 2069 
z
M 738 97 
L 738 678 
Q 934 563 1156 502 
Q 1378 441 1619 441 
Q 2219 441 2526 892 
Q 2834 1344 2834 2222 
Q 2688 1909 2422 1742 
Q 2156 1575 1813 1575 
Q 1138 1575 767 1990 
Q 397 2406 397 3169 
Q 397 3922 776 4336 
Q 1156 4750 1850 4750 
Q 2663 4750 3041 4165 
Q 3419 3581 3419 2328 
Q 3419 1150 2964 529 
Q 2509 -91 1644 -91 
Q 1416 -91 1184 -42 
Q 953 6 738 97 
z
" transform="scale(0.015625)"/>
        <path id="DejaVuSansMono-b0" d="M 1925 4750 
Q 2128 4750 2311 4673 
Q 2494 4597 2631 4453 
Q 2772 4313 2845 4134 
Q 2919 3956 2919 3750 
Q 2919 3338 2628 3052 
Q 2338 2766 1919 2766 
Q 1497 2766 1215 3047 
Q 934 3328 934 3750 
Q 934 4169 1221 4459 
Q 1509 4750 1925 4750 
z
M 1925 4347 
Q 1678 4347 1504 4173 
Q 1331 4000 1331 3750 
Q 1331 3500 1501 3331 
Q 1672 3163 1919 3163 
Q 2169 3163 2345 3334 
Q 2522 3506 2522 3750 
Q 2522 3997 2347 4172 
Q 2172 4347 1925 4347 
z
" transform="scale(0.015625)"/>
        <path id="DejaVuSansMono-53" d="M 3163 4506 
L 3163 3866 
Q 2875 4050 2586 4144 
Q 2297 4238 2003 4238 
Q 1556 4238 1297 4030 
Q 1038 3822 1038 3469 
Q 1038 3159 1208 2996 
Q 1378 2834 1844 2725 
L 2175 2650 
Q 2831 2497 3131 2169 
Q 3431 1841 3431 1275 
Q 3431 609 3018 259 
Q 2606 -91 1819 -91 
Q 1491 -91 1159 -20 
Q 828 50 494 191 
L 494 863 
Q 853 634 1173 528 
Q 1494 422 1819 422 
Q 2297 422 2562 636 
Q 2828 850 2828 1234 
Q 2828 1584 2645 1768 
Q 2463 1953 2009 2053 
L 1672 2131 
Q 1022 2278 728 2575 
Q 434 2872 434 3372 
Q 434 3997 854 4373 
Q 1275 4750 1972 4750 
Q 2241 4750 2537 4689 
Q 2834 4628 3163 4506 
z
" transform="scale(0.015625)"/>
       </defs>
       <use xlink:href="#DejaVuSansMono-39"/>
       <use xlink:href="#DejaVuSansMono-30" x="60.205078"/>
       <use xlink:href="#DejaVuSansMono-b0" x="120.410156"/>
       <use xlink:href="#DejaVuSansMono-53" x="180.615234"/>
      </g>
     </g>
    </g>
    <g id="ytick_2">
     <g id="line2d_8">
      <g>
       <use xlink:href="#m3cfa4658f3" x="126" y="548.4" style="stroke: #000000; stroke-width: 0.8"/>
      </g>
     </g>
     <g id="text_9">
      <!-- 60°S -->
      <g transform="translate(56.38875 558.347031) scale(0.26 -0.26)">
       <use xlink:href="#DejaVuSansMono-36"/>
       <use xlink:href="#DejaVuSansMono-30" x="60.205078"/>
       <use xlink:href="#DejaVuSansMono-b0" x="120.410156"/>
       <use xlink:href="#DejaVuSansMono-53" x="180.615234"/>
      </g>
     </g>
    </g>
    <g id="ytick_3">
     <g id="line2d_9">
      <g>
       <use xlink:href="#m3cfa4658f3" x="126" y="456" style="stroke: #000000; stroke-width: 0.8"/>
      </g>
     </g>
     <g id="text_10">
      <!-- 30°S -->
      <g transform="translate(56.38875 465.947031) scale(0.26 -0.26)">
       <use xlink:href="#DejaVuSansMono-33"/>
       <use xlink:href="#DejaVuSansMono-30" x="60.205078"/>
       <use xlink:href="#DejaVuSansMono-b0" x="120.410156"/>
       <use xlink:href="#DejaVuSansMono-53" x="180.615234"/>
      </g>
     </g>
    </g>
    <g id="ytick_4">
     <g id="line2d_10">
      <g>
       <use xlink:href="#m3cfa4658f3" x="126" y="363.6" style="stroke: #000000; stroke-width: 0.8"/>
      </g>
     </g>
     <g id="text_11">
      <!-- 0° -->
      <g transform="translate(87.694375 373.547031) scale(0.26 -0.26)">
       <use xlink:href="#DejaVuSansMono-30"/>
       <use xlink:href="#DejaVuSansMono-b0" x="60.205078"/>
      </g>
     </g>
    </g>
    <g id="ytick_5">
     <g id="line2d_11">
      <g>
       <use xlink:href="#m3cfa4658f3" x="126" y="271.2" style="stroke: #000000; stroke-width: 0.8"/>
      </g>
     </g>
     <g id="text_12">
      <!-- 30°N -->
      <g transform="translate(56.38875 281.147031) scale(0.26 -0.26)">
       <defs>
        <path id="DejaVuSansMono-4e" d="M 434 4666 
L 1234 4666 
L 2809 825 
L 2809 4666 
L 3419 4666 
L 3419 0 
L 2619 0 
L 1044 3841 
L 1044 0 
L 434 0 
L 434 4666 
z
" transform="scale(0.015625)"/>
       </defs>
       <use xlink:href="#DejaVuSansMono-33"/>
       <use xlink:href="#DejaVuSansMono-30" x="60.205078"/>
       <use xlink:href="#DejaVuSansMono-b0" x="120.410156"/>
       <use xlink:href="#DejaVuSansMono-4e" x="180.615234"/>
      </g>
     </g>
    </g>
    <g id="ytick_6">
     <g id="line2d_12">
      <g>
       <use xlink:href="#m3cfa4658f3" x="126" y="178.8" style="stroke: #000000; stroke-width: 0.8"/>
      </g>
     </g>
     <g id="text_13">
      <!-- 60°N -->
      <g transform="translate(56.38875 188.747031) scale(0.26 -0.26)">
       <use xlink:href="#DejaVuSansMono-36"/>
       <use xlink:href="#DejaVuSansMono-30" x="60.205078"/>
       <use xlink:href="#DejaVuSansMono-b0" x="120.410156"/>
       <use xlink:href="#DejaVuSansMono-4e" x="180.615234"/>
      </g>
     </g>
    </g>
    <g id="ytick_7">
     <g id="line2d_13">
      <g>
       <use xlink:href="#m3cfa4658f3" x="126" y="86.4" style="stroke: #000000; stroke-width: 0.8"/>
      </g>
     </g>
     <g id="text_14">
      <!-- 90°N -->
      <g transform="translate(56.38875 96.347031) scale(0.26 -0.26)">
       <use xlink:href="#DejaVuSansMono-39"/>
       <use xlink:href="#DejaVuSansMono-30" x="60.205078"/>
       <use xlink:href="#DejaVuSansMono-b0" x="120.410156"/>
       <use xlink:href="#DejaVuSansMono-4e" x="180.615234"/>
      </g>
     </g>
    </g>
    <g id="text_15">
     <!-- Latitude (°) -->
     <g transform="translate(47.3975 450.2925) rotate(-90) scale(0.24 -0.24)">
      <defs>
       <path id="DejaVuSansMono-4c" d="M 672 4666 
L 1306 4666 
L 1306 531 
L 3559 531 
L 3559 0 
L 672 0 
L 672 4666 
z
" transform="scale(0.015625)"/>
       <path id="DejaVuSansMono-61" d="M 2194 1759 
L 2003 1759 
Q 1500 1759 1245 1582 
Q 991 1406 991 1056 
Q 991 741 1181 566 
Q 1372 391 1709 391 
Q 2184 391 2456 720 
Q 2728 1050 2731 1631 
L 2731 1759 
L 2194 1759 
z
M 3309 1997 
L 3309 0 
L 2731 0 
L 2731 519 
Q 2547 206 2267 57 
Q 1988 -91 1588 -91 
Q 1053 -91 734 211 
Q 416 513 416 1019 
Q 416 1603 808 1906 
Q 1200 2209 1959 2209 
L 2731 2209 
L 2731 2300 
Q 2728 2719 2518 2908 
Q 2309 3097 1850 3097 
Q 1556 3097 1256 3012 
Q 956 2928 672 2766 
L 672 3341 
Q 991 3463 1283 3523 
Q 1575 3584 1850 3584 
Q 2284 3584 2592 3456 
Q 2900 3328 3091 3072 
Q 3209 2916 3259 2686 
Q 3309 2456 3309 1997 
z
" transform="scale(0.015625)"/>
       <path id="DejaVuSansMono-74" d="M 1919 4494 
L 1919 3500 
L 3225 3500 
L 3225 3053 
L 1919 3053 
L 1919 1153 
Q 1919 766 2066 612 
Q 2213 459 2578 459 
L 3225 459 
L 3225 0 
L 2522 0 
Q 1875 0 1609 259 
Q 1344 519 1344 1153 
L 1344 3053 
L 409 3053 
L 409 3500 
L 1344 3500 
L 1344 4494 
L 1919 4494 
z
" transform="scale(0.015625)"/>
       <path id="DejaVuSansMono-69" d="M 800 3500 
L 2272 3500 
L 2272 447 
L 3413 447 
L 3413 0 
L 556 0 
L 556 447 
L 1697 447 
L 1697 3053 
L 800 3053 
L 800 3500 
z
M 1697 4863 
L 2272 4863 
L 2272 4134 
L 1697 4134 
L 1697 4863 
z
" transform="scale(0.015625)"/>
       <path id="DejaVuSansMono-75" d="M 609 1325 
L 609 3494 
L 1184 3494 
L 1184 1325 
Q 1184 853 1351 631 
Q 1519 409 1869 409 
Q 2275 409 2490 695 
Q 2706 981 2706 1516 
L 2706 3494 
L 3284 3494 
L 3284 0 
L 2706 0 
L 2706 525 
Q 2553 222 2289 65 
Q 2025 -91 1672 -91 
Q 1134 -91 871 261 
Q 609 613 609 1325 
z
" transform="scale(0.015625)"/>
       <path id="DejaVuSansMono-64" d="M 2681 3053 
L 2681 4863 
L 3256 4863 
L 3256 0 
L 2681 0 
L 2681 441 
Q 2538 181 2298 45 
Q 2059 -91 1747 -91 
Q 1113 -91 748 401 
Q 384 894 384 1759 
Q 384 2613 750 3098 
Q 1116 3584 1747 3584 
Q 2063 3584 2303 3448 
Q 2544 3313 2681 3053 
z
M 991 1747 
Q 991 1078 1203 737 
Q 1416 397 1831 397 
Q 2247 397 2464 740 
Q 2681 1084 2681 1747 
Q 2681 2413 2464 2755 
Q 2247 3097 1831 3097 
Q 1416 3097 1203 2756 
Q 991 2416 991 1747 
z
" transform="scale(0.015625)"/>
       <path id="DejaVuSansMono-65" d="M 3475 1894 
L 3475 1613 
L 984 1613 
L 984 1594 
Q 984 1022 1282 709 
Q 1581 397 2125 397 
Q 2400 397 2700 484 
Q 3000 572 3341 750 
L 3341 178 
Q 3013 44 2708 -23 
Q 2403 -91 2119 -91 
Q 1303 -91 843 398 
Q 384 888 384 1747 
Q 384 2584 834 3084 
Q 1284 3584 2034 3584 
Q 2703 3584 3089 3131 
Q 3475 2678 3475 1894 
z
M 2900 2063 
Q 2888 2569 2661 2833 
Q 2434 3097 2009 3097 
Q 1594 3097 1325 2822 
Q 1056 2547 1006 2059 
L 2900 2063 
z
" transform="scale(0.015625)"/>
       <path id="DejaVuSansMono-20" transform="scale(0.015625)"/>
       <path id="DejaVuSansMono-28" d="M 2766 4856 
Q 2350 4144 2145 3436 
Q 1941 2728 1941 2009 
Q 1941 1294 2145 584 
Q 2350 -125 2766 -844 
L 2266 -844 
Q 1794 -100 1562 604 
Q 1331 1309 1331 2009 
Q 1331 2706 1562 3412 
Q 1794 4119 2266 4856 
L 2766 4856 
z
" transform="scale(0.015625)"/>
       <path id="DejaVuSansMono-29" d="M 1088 4856 
L 1588 4856 
Q 2059 4119 2290 3412 
Q 2522 2706 2522 2009 
Q 2522 1306 2290 600 
Q 2059 -106 1588 -844 
L 1088 -844 
Q 1503 -119 1708 590 
Q 1913 1300 1913 2009 
Q 1913 2722 1708 3431 
Q 1503 4141 1088 4856 
z
" transform="scale(0.015625)"/>
      </defs>
      <use xlink:href="#DejaVuSansMono-4c"/>
      <use xlink:href="#DejaVuSansMono-61" x="60.205078"/>
      <use xlink:href="#DejaVuSansMono-74" x="120.410156"/>
      <use xlink:href="#DejaVuSansMono-69" x="180.615234"/>
      <use xlink:href="#DejaVuSansMono-74" x="240.820312"/>
      <use xlink:href="#DejaVuSansMono-75" x="301.025391"/>
      <use xlink:href="#DejaVuSansMono-64" x="361.230469"/>
      <use xlink:href="#DejaVuSansMono-65" x="421.435547"/>
      <use xlink:href="#DejaVuSansMono-20" x="481.640625"/>
      <use xlink:href="#DejaVuSansMono-28" x="541.845703"/>
      <use xlink:href="#DejaVuSansMono-b0" x="602.050781"/>
      <use xlink:href="#DejaVuSansMono-29" x="662.255859"/>
     </g>
    </g>
   </g>
   <g id="line2d_14">
    <path d="M 310.889458 111.04 
L 310.889458 115.66 
L 311.187249 117.2 
L 311.187249 118.74 
L 311.559482 120.28 
L 311.559482 123.36 
L 310.96392 124.9 
L 310.96392 126.44 
L 321.442336 127.98 
L 321.442336 129.52 
L 320.977054 131.06 
L 320.865399 132.6 
L 321.16317 134.14 
L 321.014285 135.68 
L 321.200401 137.22 
L 323.480327 138.76 
L 323.619939 140.3 
L 323.964254 141.84 
L 324.085241 143.38 
L 324.67149 144.92 
L 325.006512 146.46 
L 325.211235 148 
L 325.555569 149.54 
L 325.704455 151.08 
L 326.030145 152.62 
L 326.188362 154.16 
L 326.588495 155.7 
L 326.625726 157.24 
L 327.68659 158.78 
L 329.091788 160.32 
L 329.799043 161.86 
L 329.845568 163.4 
L 330.934369 164.94 
L 331.260059 168.02 
L 332.953736 169.56 
L 335.187156 174.18 
L 336.517892 175.72 
L 336.759846 177.26 
L 338.546591 178.8 
L 340.742761 180.34 
L 341.868794 181.88 
L 342.678391 183.42 
L 343.664812 184.96 
L 345.265439 186.5 
L 346.102975 188.04 
L 348.18749 189.58 
L 348.894726 191.12 
L 351.900533 192.66 
L 352.980022 194.2 
L 358.833436 197.28 
L 360.247909 198.82 
L 362.872188 200.36 
L 364.09125 201.9 
L 366.976089 203.44 
L 367.199437 204.98 
L 370.335504 206.52 
L 372.038493 208.06 
L 374.904707 209.6 
L 375.891128 211.14 
L 378.943459 212.68 
L 382.284268 215.76 
L 384.406015 217.3 
L 386.760403 218.84 
L 388.240044 220.38 
L 391.199326 221.92 
L 392.911589 223.46 
L 394.800714 225 
L 396.894523 226.54 
L 400.291188 228.08 
L 401.584693 229.62 
L 404.664942 231.16 
L 406.535442 232.7 
L 409.885544 234.24 
L 410.741685 235.78 
L 414.352366 237.32 
L 415.599366 238.86 
L 417.879311 240.4 
L 419.628825 241.94 
L 421.685422 243.48 
L 425.22166 246.56 
L 427.585361 248.1 
L 428.674143 249.64 
L 431.140205 251.18 
L 432.36858 252.72 
L 435.011446 254.26 
L 436.723747 255.8 
L 438.2406 257.34 
L 439.962195 258.88 
L 442.614374 260.42 
L 445.666705 263.5 
L 447.397593 265.04 
L 449.789212 266.58 
L 450.328956 268.12 
L 452.413491 269.66 
L 454.256034 271.2 
L 455.78218 272.74 
L 457.531713 274.28 
L 459.45803 275.82 
L 460.109449 277.36 
L 462.18469 278.9 
L 463.413065 280.44 
L 464.864749 281.98 
L 466.698018 283.52 
L 468.996569 285.06 
L 469.899234 286.6 
L 472.188473 288.14 
L 473.407573 289.68 
L 475.59445 291.22 
L 476.534328 292.76 
L 478.963217 294.3 
L 480.275327 295.84 
L 482.248169 297.38 
L 483.913927 298.92 
L 485.114403 300.46 
L 487.357117 302 
L 488.855363 303.54 
L 490.632795 305.08 
L 491.879756 306.62 
L 493.554827 308.16 
L 494.960025 309.7 
L 496.662995 311.24 
L 499.166268 312.78 
L 500.897176 314.32 
L 502.153449 315.86 
L 503.912295 317.4 
L 505.149982 318.94 
L 506.043335 320.48 
L 509.24459 323.56 
L 510.035582 325.1 
L 511.775763 326.64 
L 514.45586 328.18 
L 516.112305 329.72 
L 516.847499 331.26 
L 518.78309 332.8 
L 519.294935 334.34 
L 520.960654 335.88 
L 521.826147 337.42 
L 526.823382 343.58 
L 528.405403 345.12 
L 530.945889 348.2 
L 534.184356 351.28 
L 536.352608 352.82 
L 537.432097 354.36 
L 539.479401 355.9 
L 540.8567 357.44 
L 543.750793 358.98 
L 545.863247 360.52 
L 547.70579 362.06 
L 550.181203 363.6 
L 553.298645 365.14 
L 556.071791 368.22 
L 557.281579 369.76 
L 559.114847 371.3 
L 560.045412 372.84 
L 561.618121 374.38 
L 562.623187 375.92 
L 564.000447 377.46 
L 564.903112 379 
L 566.606082 380.54 
L 567.2575 382.08 
L 568.913946 383.62 
L 569.444378 385.16 
L 574.171779 391.32 
L 575.120969 392.86 
L 576.479642 394.4 
L 577.270634 395.94 
L 578.629269 397.48 
L 579.829745 399.02 
L 580.490476 400.56 
L 583.049586 403.64 
L 583.924353 405.18 
L 585.403974 406.72 
L 586.40904 408.26 
L 587.125569 409.8 
L 589.991803 414.42 
L 590.726957 415.96 
L 591.238764 417.5 
L 592.625337 419.04 
L 593.118557 420.58 
L 594.291094 422.12 
L 594.989037 423.66 
L 596.124363 425.2 
L 596.719945 426.74 
L 598.218192 428.28 
L 598.730037 429.82 
L 599.632664 431.36 
L 600.749403 432.9 
L 601.438033 434.44 
L 602.610571 435.98 
L 603.5598 437.52 
L 604.741611 439.06 
L 605.672214 440.6 
L 607.412434 442.14 
L 608.063814 443.68 
L 609.338752 445.22 
L 611.004471 446.76 
L 611.497691 448.3 
L 612.828427 449.84 
L 613.442634 451.38 
L 614.77337 452.92 
L 615.480625 454.46 
L 617.025396 456 
L 617.537242 457.54 
L 620.235926 460.62 
L 620.812921 462.16 
L 622.711339 463.7 
L 623.492979 465.24 
L 625.949767 466.78 
L 626.294063 468.32 
L 627.959821 469.86 
L 628.732226 471.4 
L 629.932662 472.94 
L 630.798116 474.48 
L 631.89623 476.02 
L 632.715121 477.56 
L 633.385165 479.1 
L 634.632165 480.64 
L 635.395257 482.18 
L 639.294416 488.34 
L 640.076095 489.88 
L 641.14631 491.42 
L 641.900051 492.96 
L 644.142765 494.5 
L 644.552249 496.04 
L 647.920977 497.58 
L 649.037677 499.12 
L 651.057044 500.66 
L 651.596788 502.2 
L 653.262546 503.74 
L 653.783704 505.28 
L 654.723581 506.82 
L 655.402899 508.36 
L 655.719295 509.9 
L 656.640586 511.44 
L 658.036472 516.06 
L 658.836776 517.6 
L 659.329957 519.14 
L 661.181851 523.76 
L 661.349362 525.3 
L 662.26134 526.84 
L 662.670824 528.38 
L 663.601427 529.92 
L 663.889886 531.46 
L 665.741741 533 
L 665.83479 534.54 
L 666.309385 536.08 
L 666.216375 537.62 
L 665.872041 540.7 
L 665.397407 542.24 
L 665.053111 543.78 
L 665.108948 545.32 
L 664.718128 546.86 
L 664.615767 548.4 
L 664.150446 549.94 
L 664.466842 551.48 
L 664.113195 553.02 
L 664.448256 554.56 
L 664.020185 556.1 
L 664.066671 557.64 
L 663.461816 559.18 
L 663.499027 560.72 
L 662.894133 562.26 
L 662.466101 563.8 
L 662.345115 565.34 
L 661.954256 566.88 
L 660.772406 568.42 
L 659.423045 573.04 
L 659.069436 574.58 
L 658.222608 576.12 
L 657.822436 577.66 
L 656.81741 579.2 
L 657.059344 580.74 
L 655.365687 582.28 
L 655.2447 583.82 
L 653.913964 585.36 
L 653.616193 586.9 
L 652.527391 588.44 
L 651.661938 589.98 
L 650.945408 591.52 
L 649.912444 593.06 
L 649.69837 594.6 
L 647.660417 596.14 
L 647.036898 597.68 
L 645.026844 599.22 
L 644.384738 600.76 
L 644.375387 602.3 
L 643.007439 603.84 
L 642.458421 605.38 
L 641.127685 606.92 
L 640.922962 608.46 
L 638.84772 610 
L 638.791883 611.54 
L 637.535571 613.08 
L 637.051702 614.62 
L 635.413843 616.16 
L 634.325042 617.7 
L 630.183909 620.78 
L 629.988499 622.32 
L 627.420076 623.86 
L 626.368525 625.4 
L 623.474393 628.48 
L 621.613225 630.02 
L 618.021149 631.56 
L 617.016123 633.1 
L 603.811047 634.64 
L 603.745897 636.18 
L 615.731911 637.72 
L 615.638824 640.8 
L 615.638824 640.8 
" clip-path="url(#p90f8a76cee)" style="fill: none; stroke: #1f77b4; stroke-width: 4"/>
   </g>
   <g id="LineCollection_1">
    <path d="M 580.490476 409.955583 
L 580.490476 391.677418 
" clip-path="url(#p90f8a76cee)" style="fill: none; stroke: #ff0000; stroke-width: 3"/>
   </g>
   <g id="line2d_15">
    <defs>
     <path id="ma2f2f8fa33" d="M 5 0 
L -5 -0 
" style="stroke: #ff0000; stroke-width: 2"/>
    </defs>
    <g clip-path="url(#p90f8a76cee)">
     <use xlink:href="#ma2f2f8fa33" x="580.490476" y="409.955583" style="fill: #ff0000; stroke: #ff0000; stroke-width: 2"/>
    </g>
   </g>
   <g id="line2d_16">
    <g clip-path="url(#p90f8a76cee)">
     <use xlink:href="#ma2f2f8fa33" x="580.490476" y="391.677418" style="fill: #ff0000; stroke: #ff0000; stroke-width: 2"/>
    </g>
   </g>
   <g id="line2d_17">
    <path d="M 191.49167 86.4 
L 191.563692 91.02 
L 191.923834 92.56 
L 192.419033 97.18 
L 192.518072 100.26 
L 192.905225 101.8 
L 192.92323 103.34 
L 193.328387 106.42 
L 194.039668 107.96 
L 193.71554 109.5 
L 194.426817 112.58 
L 194.534858 114.12 
L 194.976034 115.66 
L 195.201123 117.2 
L 195.768345 118.74 
L 196.002436 120.28 
L 196.353576 121.82 
L 197.325955 124.9 
L 197.812147 127.98 
L 198.496416 129.52 
L 198.622462 131.06 
L 198.55043 132.6 
L 201.692661 134.14 
L 203.169242 135.68 
L 203.457361 137.22 
L 204.285681 138.76 
L 204.501768 140.3 
L 205.438133 141.84 
L 206.437529 144.92 
L 207.364887 146.46 
L 207.806058 148 
L 210.128968 152.62 
L 213.991488 158.78 
L 215.269986 160.32 
L 215.864219 161.86 
L 217.097696 163.4 
L 218.160121 164.94 
L 219.717727 166.48 
L 220.663094 168.02 
L 225.452977 174.18 
L 228.442147 177.26 
L 231.07118 178.8 
L 232.23263 180.34 
L 234.564551 181.88 
L 236.230203 183.42 
L 236.941474 184.96 
L 239.633542 186.5 
L 240.533889 188.04 
L 243.865191 189.58 
L 245.458815 191.12 
L 248.195894 192.66 
L 250.455778 194.2 
L 251.75229 195.74 
L 254.894517 198.82 
L 256.623193 200.36 
L 258.657993 201.9 
L 260.476701 203.44 
L 262.853633 204.98 
L 264.321207 206.52 
L 266.518066 208.06 
L 267.940628 209.6 
L 269.77735 211.14 
L 272.136278 212.68 
L 274.090039 214.22 
L 276.800101 215.76 
L 278.807895 217.3 
L 283.858861 220.38 
L 285.686581 221.92 
L 288.83781 223.46 
L 290.764574 225 
L 295.392369 228.08 
L 297.256117 229.62 
L 300.245277 231.16 
L 301.622829 232.7 
L 305.314277 234.24 
L 307.421105 235.78 
L 309.068742 237.32 
L 311.409665 238.86 
L 312.922269 240.4 
L 314.785998 241.94 
L 319.584874 246.56 
L 320.629285 248.1 
L 322.853141 249.64 
L 324.63585 251.18 
L 326.085419 252.72 
L 327.309894 254.26 
L 328.696428 255.8 
L 330.425124 257.34 
L 331.415503 258.88 
L 332.973117 260.42 
L 334.350649 261.96 
L 336.583527 263.5 
L 338.573306 265.04 
L 341.121319 268.12 
L 342.156728 269.66 
L 343.984429 271.2 
L 346.028221 272.74 
L 347.14467 274.28 
L 348.567232 275.82 
L 351.88053 278.9 
L 352.654837 280.44 
L 357.273629 285.06 
L 358.372073 286.6 
L 362.792798 291.22 
L 363.864216 292.76 
L 369.797545 298.92 
L 370.652871 300.46 
L 372.705704 302 
L 373.516019 303.54 
L 375.037587 305.08 
L 375.928941 306.62 
L 376.96435 308.16 
L 378.422922 309.7 
L 379.431324 311.24 
L 380.880874 312.78 
L 381.790252 314.32 
L 382.537552 315.86 
L 384.797436 318.94 
L 386.174968 320.48 
L 387.102331 322.02 
L 389.452238 325.1 
L 390.226563 326.64 
L 391.721143 328.18 
L 393.593875 329.72 
L 394.48521 331.26 
L 397.015218 334.34 
L 398.18568 335.88 
L 399.050028 337.42 
L 400.607623 338.96 
L 404.281048 345.12 
L 405.919703 346.66 
L 406.135794 348.2 
L 407.414302 349.74 
L 408.071541 351.28 
L 409.178987 352.82 
L 410.529512 354.36 
L 411.483882 355.9 
L 412.987484 357.44 
L 414.265972 358.98 
L 415.13032 360.52 
L 417.237147 362.06 
L 417.822369 363.6 
L 419.001833 365.14 
L 420.775539 366.68 
L 421.459785 368.22 
L 422.558229 369.76 
L 423.251496 371.3 
L 424.295907 372.84 
L 425.160255 374.38 
L 426.402735 375.92 
L 427.240076 377.46 
L 428.383512 379 
L 429.680024 380.54 
L 431.669783 383.62 
L 433.290433 385.16 
L 435.658344 386.7 
L 437.170948 388.24 
L 438.251368 389.78 
L 440.250149 391.32 
L 441.348593 392.86 
L 442.708121 394.4 
L 443.905589 395.94 
L 446.831734 399.02 
L 447.534023 400.56 
L 449.271682 402.1 
L 450.604222 403.64 
L 450.59522 405.18 
L 451.54959 406.72 
L 452.999139 408.26 
L 454.187625 409.8 
L 454.565756 411.34 
L 455.493139 412.88 
L 456.735638 414.42 
L 457.65398 415.96 
L 458.81542 417.5 
L 460.427087 419.04 
L 462.551919 422.12 
L 463.722361 423.66 
L 465.099893 425.2 
L 466.1263 426.74 
L 466.981626 428.28 
L 469.421613 431.36 
L 470.213885 432.9 
L 471.249294 434.44 
L 472.788904 437.52 
L 473.806309 439.06 
L 476.273264 442.14 
L 476.84048 443.68 
L 478.272064 445.22 
L 480.000721 446.76 
L 482.053535 449.84 
L 483.160962 451.38 
L 484.628555 454.46 
L 484.961675 456 
L 485.844047 459.08 
L 486.843447 460.62 
L 487.536695 465.24 
L 486.951435 466.78 
L 484.457474 468.32 
L 485.654962 469.86 
L 486.501286 471.4 
L 486.88842 472.94 
L 487.8068 474.48 
L 488.166927 476.02 
L 489.193373 477.56 
L 489.436472 479.1 
L 490.219741 480.64 
L 490.318766 482.18 
L 493.605076 485.26 
L 494.78456 486.8 
L 496.468167 488.34 
L 497.278482 489.88 
L 497.44056 491.42 
L 498.142849 492.96 
L 497.917755 494.5 
L 496.36014 496.04 
L 496.531221 497.58 
L 496.864341 499.12 
L 495.171655 500.66 
L 493.668092 502.2 
L 492.74975 503.74 
L 492.524656 505.28 
L 492.62368 506.82 
L 494.442398 508.36 
L 496.180096 511.44 
L 495.864941 512.98 
L 496.783322 514.52 
L 497.917755 516.06 
L 502.761681 517.6 
L 502.653615 519.14 
L 505.867869 522.22 
L 507.7406 523.76 
L 514.232163 525.3 
L 516.077849 526.84 
L 516.609095 528.38 
L 521.85812 529.92 
L 522.317311 531.46 
L 522.947543 533 
L 523.739854 534.54 
L 524.127026 536.08 
L 525.018361 537.62 
L 525.738693 539.16 
L 525.900733 540.7 
L 526.440943 542.24 
L 527.494357 543.78 
L 528.682803 545.32 
L 528.700808 546.86 
L 528.565775 548.4 
L 530.285429 549.94 
L 530.204409 551.48 
L 530.519564 553.02 
L 530.492519 554.56 
L 531.500921 556.1 
L 532.932467 557.64 
L 533.580703 559.18 
L 533.517727 560.72 
L 534.445071 562.26 
L 534.228979 565.34 
L 535.597547 566.88 
L 535.489482 568.42 
L 535.858611 569.96 
L 535.948672 571.5 
L 536.218777 573.04 
L 535.390458 574.58 
L 535.73258 576.12 
L 536.912025 577.66 
L 537.452235 579.2 
L 538.424629 583.82 
L 540.018291 585.36 
L 540.594472 586.9 
L 541.008651 588.44 
L 541.386782 593.06 
L 542.359176 594.6 
L 542.953399 596.14 
L 543.070467 597.68 
L 543.619679 599.22 
L 543.187496 600.76 
L 543.061426 602.3 
L 542.548261 603.84 
L 543.007413 605.38 
L 544.015815 606.92 
L 536.695972 608.46 
L 538.46964 610 
L 546.248712 611.54 
L 552.254078 613.08 
L 552.533185 614.62 
L 552.686223 616.16 
L 552.389111 617.7 
L 551.542787 619.24 
L 549.30989 620.78 
L 548.823693 622.32 
L 549.255877 623.86 
L 549.273881 625.4 
L 550.552389 626.94 
L 549.787085 628.48 
L 550.228271 630.02 
L 548.742673 631.56 
L 550.957566 633.1 
L 551.938923 634.64 
L 547.545224 636.18 
L 547.73431 637.72 
L 542.620279 639.26 
L 564.886001 640.8 
L 564.886001 640.8 
" clip-path="url(#p90f8a76cee)" style="fill: none; stroke: #ff7f0e; stroke-width: 4"/>
   </g>
   <g id="LineCollection_2">
    <path d="M 447.534023 408.102735 
L 447.534023 394.264099 
" clip-path="url(#p90f8a76cee)" style="fill: none; stroke: #ff0000; stroke-width: 3"/>
   </g>
   <g id="line2d_18">
    <g clip-path="url(#p90f8a76cee)">
     <use xlink:href="#ma2f2f8fa33" x="447.534023" y="408.102735" style="fill: #ff0000; stroke: #ff0000; stroke-width: 2"/>
    </g>
   </g>
   <g id="line2d_19">
    <g clip-path="url(#p90f8a76cee)">
     <use xlink:href="#ma2f2f8fa33" x="447.534023" y="394.264099" style="fill: #ff0000; stroke: #ff0000; stroke-width: 2"/>
    </g>
   </g>
   <g id="line2d_20">
    <path d="M 346.897672 86.4 
L 346.897672 87.94 
L 347.071352 89.48 
L 346.102412 92.56 
L 346.102412 94.1 
L 339.393031 95.64 
L 329.045594 97.18 
L 322.299641 98.72 
L 318.36909 100.26 
L 318.10401 101.8 
L 316.486077 103.34 
L 315.663403 104.88 
L 318.524475 107.96 
L 319.621387 109.5 
L 321.010792 112.58 
L 324.301507 114.12 
L 328.890208 115.66 
L 329.402093 117.2 
L 335.416771 118.74 
L 338.972546 120.28 
L 344.850116 121.82 
L 349.310846 127.98 
L 350.3072 129.52 
L 350.535709 131.06 
L 353.022026 132.6 
L 353.305382 134.14 
L 353.844719 135.68 
L 352.245061 137.22 
L 352.025691 138.76 
L 352.16278 140.3 
L 352.16278 141.84 
L 352.455313 143.38 
L 351.760611 144.92 
L 352.245061 146.46 
L 351.559497 148 
L 352.537575 151.08 
L 352.793498 152.62 
L 353.168292 154.16 
L 354.81362 155.7 
L 357.546741 158.78 
L 359.246956 160.32 
L 359.621712 161.86 
L 361.321926 163.4 
L 363.214059 164.94 
L 364.31097 166.48 
L 366.550483 168.02 
L 367.428004 169.56 
L 369.704069 171.1 
L 371.715054 172.64 
L 376.577993 175.72 
L 377.135567 177.26 
L 379.740717 178.8 
L 383.342221 180.34 
L 386.559793 181.88 
L 389.375176 183.42 
L 389.969321 184.96 
L 392.629299 186.5 
L 394.622008 188.04 
L 397.026064 189.58 
L 398.945629 191.12 
L 400.069955 192.66 
L 408.031632 197.28 
L 410.938415 198.82 
L 411.651393 200.36 
L 414.302253 201.9 
L 421.386409 204.98 
L 424.229206 206.52 
L 425.170732 208.06 
L 427.995233 209.6 
L 432.11776 211.14 
L 436.103177 214.22 
L 437.264055 215.76 
L 440.015452 217.3 
L 444.43963 218.84 
L 446.944223 220.38 
L 448.553018 221.92 
L 451.450662 223.46 
L 459.266074 226.54 
L 461.743233 228.08 
L 462.840144 229.62 
L 471.423401 234.24 
L 472.904226 235.78 
L 473.781747 237.32 
L 475.609894 238.86 
L 477.054128 240.4 
L 479.010284 241.94 
L 481.167516 243.48 
L 482.465541 245.02 
L 486.460078 248.1 
L 488.589876 249.64 
L 491.021365 251.18 
L 492.227971 252.72 
L 494.174932 254.26 
L 496.716115 255.8 
L 498.708824 257.34 
L 501.460202 258.88 
L 503.251835 260.42 
L 507.904503 263.5 
L 511.917315 266.58 
L 512.813112 268.12 
L 515.11663 269.66 
L 517.027077 271.2 
L 518.581006 272.74 
L 520.482334 274.28 
L 521.259318 275.82 
L 526.277623 280.44 
L 528.252017 281.98 
L 529.056434 283.52 
L 531.19539 285.06 
L 534.915708 288.14 
L 536.323389 289.68 
L 538.197284 291.22 
L 539.531862 292.76 
L 541.698212 295.84 
L 543.307008 298.92 
L 544.723847 300.46 
L 546.625137 302 
L 549.266858 303.54 
L 550.848181 305.08 
L 553.517336 306.62 
L 554.404015 308.16 
L 557.676434 309.7 
L 560.500916 311.24 
L 561.378476 312.78 
L 567.475377 315.86 
L 573.170167 318.94 
L 574.587006 320.48 
L 577.128151 322.02 
L 577.950805 323.56 
L 583.572413 326.64 
L 584.751586 328.18 
L 587.466411 329.72 
L 589.943571 331.26 
L 593.718756 332.8 
L 598.280043 334.34 
L 598.673075 335.88 
L 601.049735 337.42 
L 604.69691 338.96 
L 607.439169 340.5 
L 609.440997 342.04 
L 610.985807 343.58 
L 614.166807 345.12 
L 616.342354 346.66 
L 618.088278 348.2 
L 618.051726 349.74 
L 620.208958 351.28 
L 622.759221 352.82 
L 623.874409 354.36 
L 625.154119 355.9 
L 625.538032 357.44 
L 626.580116 358.98 
L 626.625825 360.52 
L 628.216306 362.06 
L 631.781219 363.6 
L 633.088363 365.14 
L 636.004303 366.68 
L 637.320604 368.22 
L 636.644197 369.76 
L 637.000638 371.3 
L 638.042721 372.84 
L 641.452269 375.92 
L 643.755748 377.46 
L 646.708278 379 
L 645.657076 380.54 
L 649.386513 382.08 
L 650.593119 383.62 
L 652.320729 385.16 
L 653.499902 386.7 
L 654.222018 388.24 
L 656.808873 391.32 
L 659.423161 392.86 
L 661.434146 394.4 
L 660.922261 395.94 
L 661.936872 397.48 
L 663.097808 399.02 
L 664.505451 400.56 
L 667.238591 402.1 
L 668.637116 403.64 
L 671.543936 405.18 
L 675.8584 408.26 
L 677.595167 409.8 
L 678.06138 411.34 
L 678.920587 412.88 
L 679.139977 415.96 
L 679.578718 417.5 
L 680.904138 419.04 
L 680.931572 420.58 
L 682.732324 422.12 
L 683.692107 423.66 
L 683.820078 425.2 
L 685.785353 426.74 
L 692.385059 429.82 
L 694.021249 431.36 
L 694.588 432.9 
L 693.445379 434.44 
L 691.041362 435.98 
L 690.154684 437.52 
L 689.770771 439.06 
L 689.981003 443.68 
L 690.675725 445.22 
L 692.321034 446.76 
L 692.714105 448.3 
L 695.328393 449.84 
L 698.545984 451.38 
L 701.397938 452.92 
L 704.725224 454.46 
L 704.597214 456 
L 709.450996 457.54 
L 706.251719 459.08 
L 704.149316 460.62 
L 701.425371 462.16 
L 701.352228 463.7 
L 698.418013 465.24 
L 697.366811 466.78 
L 694.514857 468.32 
L 694.523976 469.86 
L 695.33755 471.4 
L 694.286309 472.94 
L 694.588 474.48 
L 694.514857 476.02 
L 695.008465 477.56 
L 695.319274 479.1 
L 693.673888 480.64 
L 692.668434 482.18 
L 692.321034 483.72 
L 692.119959 486.8 
L 692.430768 488.34 
L 691.845741 489.88 
L 692.275364 491.42 
L 693.098018 492.96 
L 693.125451 494.5 
L 693.417946 496.04 
L 692.95181 497.58 
L 692.9061 499.12 
L 693.088899 500.66 
L 692.942652 502.2 
L 693.152885 503.74 
L 691.525813 505.28 
L 691.800031 506.82 
L 692.476439 508.36 
L 692.741538 509.9 
L 693.408827 511.44 
L 693.198594 512.98 
L 693.728755 514.52 
L 693.884159 516.06 
L 697.540492 520.68 
L 698.902464 522.22 
L 699.615462 523.76 
L 700.127346 525.3 
L 701.224257 526.84 
L 701.836679 528.38 
L 703.637431 529.92 
L 704.268129 533 
L 705.05427 534.54 
L 706.105433 537.62 
L 706.288271 539.16 
L 706.626475 540.7 
L 706.434519 542.24 
L 706.599042 543.78 
L 708.070748 545.32 
L 709.131107 546.86 
L 709.249882 548.4 
L 711.233472 549.94 
L 712.284674 556.1 
L 712.412645 557.64 
L 711.626542 559.18 
L 712.120151 560.72 
L 711.562518 562.26 
L 711.772751 563.8 
L 711.763632 565.34 
L 712.229846 566.88 
L 710.264531 568.42 
L 709.450996 569.96 
L 709.972037 571.5 
L 707.915343 573.04 
L 701.114562 574.58 
L 701.397938 576.12 
L 703.152981 577.66 
L 703.152981 577.66 
" clip-path="url(#p90f8a76cee)" style="fill: none; stroke: #2ca02c; stroke-width: 4"/>
   </g>
   <g id="LineCollection_3">
    <path d="M 667.238591 409.931613 
L 667.238591 393.400868 
" clip-path="url(#p90f8a76cee)" style="fill: none; stroke: #ff0000; stroke-width: 3"/>
   </g>
   <g id="line2d_21">
    <g clip-path="url(#p90f8a76cee)">
     <use xlink:href="#ma2f2f8fa33" x="667.238591" y="409.931613" style="fill: #ff0000; stroke: #ff0000; stroke-width: 2"/>
    </g>
   </g>
   <g id="line2d_22">
    <g clip-path="url(#p90f8a76cee)">
     <use xlink:href="#ma2f2f8fa33" x="667.238591" y="393.400868" style="fill: #ff0000; stroke: #ff0000; stroke-width: 2"/>
    </g>
   </g>
   <g id="line2d_23">
    <path d="M 409.820666 91.02 
L 409.820666 98.72 
L 407.842819 100.26 
L 407.842819 104.88 
L 408.507644 106.42 
L 408.673855 107.96 
L 408.673855 109.5 
L 408.208475 111.04 
L 408.250014 112.58 
L 409.22233 114.12 
L 409.205683 117.2 
L 410.402376 118.74 
L 410.917616 123.36 
L 411.183531 124.9 
L 411.27495 126.44 
L 411.216785 127.98 
L 411.41623 129.52 
L 411.349742 131.06 
L 411.732025 132.6 
L 411.848375 134.14 
L 412.180778 135.68 
L 412.762506 137.22 
L 412.870533 138.76 
L 413.277728 140.3 
L 414.648935 143.38 
L 414.873311 144.92 
L 416.111542 146.46 
L 418.238973 148 
L 419.078293 149.54 
L 419.551996 151.08 
L 420.806834 152.62 
L 421.463335 154.16 
L 423.050595 155.7 
L 423.557532 157.24 
L 425.942594 158.78 
L 428.020144 161.86 
L 429.59912 163.4 
L 432.058935 166.48 
L 432.881667 168.02 
L 435.158663 169.56 
L 435.889976 171.1 
L 438.906628 174.18 
L 440.14482 175.72 
L 442.36367 177.26 
L 442.962026 178.8 
L 443.942646 180.34 
L 444.748712 181.88 
L 448.953733 186.5 
L 450.524386 188.04 
L 451.455125 189.58 
L 452.884478 191.12 
L 453.482814 192.66 
L 455.518827 194.2 
L 458.136568 197.28 
L 459.291683 198.82 
L 459.939881 200.36 
L 461.718283 201.9 
L 462.291708 203.44 
L 463.13939 204.98 
L 465.964842 206.52 
L 466.945462 208.06 
L 467.468987 209.6 
L 470.593646 214.22 
L 475.596468 221.92 
L 476.261274 223.46 
L 477.46625 225 
L 477.923306 226.54 
L 480.200361 229.62 
L 480.939939 231.16 
L 482.045193 232.7 
L 482.618618 234.24 
L 483.707264 235.78 
L 484.247474 237.32 
L 485.460716 238.86 
L 487.438563 243.48 
L 487.57154 245.02 
L 488.194826 246.56 
L 488.510602 248.1 
L 489.291777 249.64 
L 491.693465 255.8 
L 492.54107 257.34 
L 493.031418 260.42 
L 492.782073 261.96 
L 493.147749 263.5 
L 494.128368 266.58 
L 494.909543 268.12 
L 495.383168 269.66 
L 496.039708 272.74 
L 496.546626 274.28 
L 496.879048 275.82 
L 497.917833 278.9 
L 497.734995 280.44 
L 498.067417 281.98 
L 498.000948 283.52 
L 497.81811 285.06 
L 498.250255 286.6 
L 498.067417 288.14 
L 498.133924 289.68 
L 498.482915 291.22 
L 498.856895 294.3 
L 499.496789 298.92 
L 499.455231 303.54 
L 499.671284 305.08 
L 499.563297 306.62 
L 499.621423 308.16 
L 499.613119 311.24 
L 499.604816 312.78 
L 499.862426 314.32 
L 499.488485 315.86 
L 499.397066 317.4 
L 499.189317 318.94 
L 499.239178 320.48 
L 499.081291 322.02 
L 499.480143 323.56 
L 499.962149 328.18 
L 500.435851 331.26 
L 500.261317 332.8 
L 500.485713 335.88 
L 500.020353 340.5 
L 500.053568 343.58 
L 500.352736 346.66 
L 500.685158 352.82 
L 500.286267 358.98 
L 499.879072 360.52 
L 498.300116 362.06 
L 493.471828 363.6 
L 493.147749 365.14 
L 493.006468 366.68 
L 492.607577 368.22 
L 492.499551 369.76 
L 492.200382 371.3 
L 491.84301 374.38 
L 491.967683 375.92 
L 491.934429 377.46 
L 492.640792 382.08 
L 493.554943 385.16 
L 494.510613 386.7 
L 495.333345 388.24 
L 496.88739 389.78 
L 497.759945 391.32 
L 498.998175 392.86 
L 500.053568 394.4 
L 501.557713 395.94 
L 502.530029 397.48 
L 503.726702 399.02 
L 506.868007 403.64 
L 508.239175 406.72 
L 509.302911 409.8 
L 510.158858 414.42 
L 510.582699 415.96 
L 511.056401 419.04 
L 511.604876 420.58 
L 511.870791 426.74 
L 511.646395 429.82 
L 510.823702 440.6 
L 510.300138 442.14 
L 510.150554 443.68 
L 509.685155 445.22 
L 508.970488 448.3 
L 508.43866 449.84 
L 508.081288 451.38 
L 505.197632 459.08 
L 504.092378 460.62 
L 503.502345 462.16 
L 501.532802 463.7 
L 500.843046 465.24 
L 500.518967 466.78 
L 499.787654 468.32 
L 499.40537 469.86 
L 498.624196 471.4 
L 498.250255 472.94 
L 497.726691 474.48 
L 496.88739 476.02 
L 496.430295 477.56 
L 495.358256 479.1 
L 494.926112 480.64 
L 493.646362 482.18 
L 492.549412 483.72 
L 491.685122 485.26 
L 490.064608 486.8 
L 489.682325 488.34 
L 487.903962 489.88 
L 487.230853 491.42 
L 485.710062 492.96 
L 483.482907 496.04 
L 481.737721 497.58 
L 481.338868 499.12 
L 479.743305 500.66 
L 479.244652 502.2 
L 477.773722 503.74 
L 476.635214 505.28 
L 475.721102 506.82 
L 474.615848 508.36 
L 470.826345 512.98 
L 468.931613 516.06 
L 467.643521 517.6 
L 466.72937 519.14 
L 465.266783 520.68 
L 464.344328 522.22 
L 462.441292 523.76 
L 460.995312 525.3 
L 460.089504 526.84 
L 458.726601 528.38 
L 457.987023 529.92 
L 456.50775 531.46 
L 456.183671 533 
L 454.679487 534.54 
L 454.205823 536.08 
L 452.518802 537.62 
L 451.131006 539.16 
L 450.108848 540.7 
L 448.305535 542.24 
L 447.582526 543.78 
L 446.0285 545.32 
L 445.322157 546.86 
L 443.69332 548.4 
L 442.421855 549.94 
L 441.316601 551.48 
L 439.829044 553.02 
L 439.230707 554.56 
L 437.793031 556.1 
L 437.576978 557.64 
L 435.732069 559.18 
L 434.660049 560.72 
L 433.770848 562.26 
L 432.582479 563.8 
L 431.16145 565.34 
L 429.45784 566.88 
L 426.698818 569.96 
L 425.90934 571.5 
L 424.189122 573.04 
L 423.308225 574.58 
L 421.961968 576.12 
L 420.956418 577.66 
L 418.496584 580.74 
L 417.85669 582.28 
L 416.485502 583.82 
L 415.272202 585.36 
L 413.626757 586.9 
L 413.020117 588.44 
L 411.582441 589.98 
L 411.208461 591.52 
L 409.637848 593.06 
L 408.981327 594.6 
L 407.934238 596.14 
L 406.529796 597.68 
L 406.16414 599.22 
L 404.543626 600.76 
L 404.360807 602.3 
L 402.466075 603.84 
L 401.984069 605.38 
L 400.837257 606.92 
L 400.081014 608.46 
L 399.831707 610 
L 400.031152 611.54 
L 399.848334 613.08 
L 398.834479 614.62 
L 398.053305 616.16 
L 397.604572 617.7 
L 396.873259 619.24 
L 396.956355 620.78 
L 396.574091 622.32 
L 396.341411 623.86 
L 395.576863 625.4 
L 395.21953 626.94 
L 395.003438 628.48 
L 395.153042 630.02 
L 396.391272 631.56 
L 395.726447 633.1 
L 394.837246 634.64 
L 395.369095 636.18 
L 394.870481 637.72 
L 394.870481 640.8 
L 394.870481 640.8 
" clip-path="url(#p90f8a76cee)" style="fill: none; stroke: #d62728; stroke-width: 4"/>
   </g>
   <g id="LineCollection_4">
    <path d="M 504.748879 408.52684 
L 504.748879 391.719478 
" clip-path="url(#p90f8a76cee)" style="fill: none; stroke: #ff0000; stroke-width: 3"/>
   </g>
   <g id="line2d_24">
    <g clip-path="url(#p90f8a76cee)">
     <use xlink:href="#ma2f2f8fa33" x="504.748879" y="408.52684" style="fill: #ff0000; stroke: #ff0000; stroke-width: 2"/>
    </g>
   </g>
   <g id="line2d_25">
    <g clip-path="url(#p90f8a76cee)">
     <use xlink:href="#ma2f2f8fa33" x="504.748879" y="391.719478" style="fill: #ff0000; stroke: #ff0000; stroke-width: 2"/>
    </g>
   </g>
   <g id="line2d_26">
    <path d="M 437.500266 86.4 
L 439.807683 87.94 
L 439.807683 89.48 
L 434.832333 91.02 
L 434.832333 97.18 
L 436.635006 98.72 
L 436.635006 101.8 
L 437.42817 103.34 
L 437.42817 106.42 
L 438.077125 107.96 
L 438.077125 111.04 
L 438.413621 114.12 
L 438.629926 115.66 
L 438.629926 117.2 
L 440.905293 118.74 
L 442.371489 120.28 
L 442.371489 121.82 
L 446.465534 123.36 
L 447.282717 124.9 
L 443.060507 126.44 
L 442.379482 127.98 
L 441.249821 129.52 
L 437.708558 131.06 
L 437.436202 132.6 
L 438.429627 134.14 
L 438.806226 135.68 
L 439.447148 137.22 
L 439.086614 138.76 
L 440.216275 140.3 
L 442.02696 141.84 
L 441.810655 143.38 
L 442.195228 144.92 
L 443.044443 146.46 
L 442.908265 148 
L 444.983332 149.54 
L 446.705858 151.08 
L 446.537649 152.62 
L 450.263128 154.16 
L 450.263128 155.7 
L 450.054835 157.24 
L 454.269072 158.78 
L 454.237021 161.86 
L 459.444721 163.4 
L 459.180281 164.94 
L 459.180281 166.48 
L 464.171656 168.02 
L 464.107593 169.56 
L 465.766056 171.1 
L 469.299268 172.64 
L 469.058886 174.18 
L 472.07936 175.72 
L 473.040772 177.26 
L 473.040772 178.8 
L 475.420304 180.34 
L 476.453812 181.88 
L 476.093297 183.42 
L 478.633045 184.96 
L 478.633045 186.5 
L 479.017618 188.04 
L 482.046085 189.58 
L 481.957964 192.66 
L 485.162712 194.2 
L 484.86626 195.74 
L 485.891813 197.28 
L 487.894727 198.82 
L 487.894727 200.36 
L 488.591777 201.9 
L 490.915201 203.44 
L 490.762978 204.98 
L 491.363876 206.52 
L 492.653752 208.06 
L 487.878701 209.6 
L 487.942803 211.14 
L 484.561814 212.68 
L 484.714037 214.22 
L 485.106603 215.76 
L 485.162712 217.3 
L 485.346985 218.84 
L 486.019939 220.38 
L 487.446052 225 
L 487.574256 226.54 
L 488.351395 228.08 
L 488.695924 229.62 
L 488.607803 231.16 
L 489.048445 232.7 
L 490.041909 234.24 
L 490.466565 235.78 
L 490.466565 237.32 
L 491.035372 238.86 
L 491.275755 240.4 
L 491.275755 241.94 
L 492.149008 243.48 
L 492.477511 245.02 
L 492.477511 246.56 
L 493.54307 248.1 
L 494.055846 251.18 
L 494.336234 252.72 
L 494.688795 255.8 
L 495.546061 257.34 
L 495.546061 258.88 
L 495.794398 260.42 
L 496.307175 261.96 
L 496.307175 263.5 
L 496.130933 265.04 
L 495.241616 266.58 
L 495.241616 268.12 
L 492.565632 269.66 
L 491.788493 271.2 
L 491.788493 272.74 
L 491.588193 274.28 
L 491.267723 275.82 
L 491.267723 277.36 
L 490.474519 278.9 
L 490.146094 280.44 
L 490.146094 281.98 
L 488.984343 283.52 
L 488.912248 286.6 
L 487.974854 288.14 
L 487.974854 289.68 
L 487.52618 291.22 
L 486.94934 292.76 
L 486.94934 294.3 
L 485.947844 295.84 
L 485.379036 297.38 
L 485.379036 298.92 
L 484.63391 300.46 
L 484.257369 302 
L 484.257369 303.54 
L 483.496217 305.08 
L 483.127708 306.62 
L 483.127708 308.16 
L 481.957964 309.7 
L 481.517322 311.24 
L 481.581424 312.78 
L 480.58796 314.32 
L 477.142869 325.1 
L 475.892998 326.64 
L 475.524489 328.18 
L 474.979662 329.72 
L 473.713765 331.26 
L 471.919143 335.88 
L 471.622691 337.42 
L 471.174017 338.96 
L 470.669272 342.04 
L 470.324782 343.58 
L 469.860082 345.12 
L 468.634269 351.28 
L 468.105505 352.82 
L 467.112003 358.98 
L 466.142597 360.52 
L 466.142597 362.06 
L 465.790075 363.6 
L 464.62037 365.14 
L 464.62037 366.68 
L 464.267809 368.22 
L 463.6349 369.76 
L 463.6349 371.3 
L 463.226308 372.84 
L 462.489213 374.38 
L 462.288914 375.92 
L 461.095152 380.54 
L 460.245879 382.08 
L 460.245879 383.62 
L 459.725109 385.16 
L 458.787715 386.7 
L 458.787715 388.24 
L 458.218907 389.78 
L 457.305532 391.32 
L 457.305532 392.86 
L 456.720699 394.4 
L 455.831343 395.94 
L 455.831343 397.48 
L 455.358649 399.02 
L 455.342624 402.1 
L 455.126299 403.64 
L 455.21442 406.72 
L 455.791299 408.26 
L 455.847368 412.88 
L 455.959547 415.96 
L 455.783305 417.5 
L 455.807324 419.04 
L 454.076766 428.28 
L 453.660181 429.82 
L 453.604072 432.9 
L 452.826933 434.44 
L 452.762831 437.52 
L 452.41031 439.06 
L 451.969628 442.14 
L 451.128407 446.76 
L 451.088343 448.3 
L 450.751866 451.38 
L 450.447421 454.46 
L 450.263128 456 
L 450.263128 457.54 
L 449.670262 459.08 
L 449.510027 460.62 
L 449.510027 462.16 
L 448.965219 463.7 
L 448.812977 465.24 
L 448.812977 466.78 
L 448.04385 468.32 
L 447.619233 469.86 
L 447.619233 471.4 
L 446.329318 474.48 
L 446.329318 476.02 
L 444.390467 480.64 
L 444.638823 482.18 
L 444.029932 483.72 
L 444.406492 485.26 
L 444.25425 488.34 
L 443.493137 489.88 
L 443.541213 491.42 
L 443.076532 492.96 
L 442.002922 494.5 
L 441.410057 496.04 
L 441.410057 497.58 
L 440.184243 499.12 
L 439.959925 500.66 
L 439.367021 502.2 
L 439.238856 503.74 
L 438.437659 505.28 
L 437.788705 506.82 
L 437.628469 508.36 
L 436.1543 511.44 
L 436.026096 512.98 
L 434.616008 516.06 
L 435.409192 517.6 
L 434.487824 519.14 
L 433.959022 520.68 
L 436.050115 522.22 
L 434.672098 523.76 
L 434.62404 526.84 
L 432.941539 528.38 
L 433.053718 529.92 
L 433.053718 531.46 
L 432.044229 533 
L 432.989596 534.54 
L 432.460852 536.08 
L 431.587541 537.62 
L 432.997629 539.16 
L 433.229979 540.7 
L 433.229979 542.24 
L 436.034089 543.78 
L 436.522827 545.32 
L 436.522827 546.86 
L 433.646583 548.4 
L 431.259038 549.94 
L 431.259038 551.48 
L 429.881021 553.02 
L 428.078368 554.56 
L 428.078368 556.1 
L 426.604159 557.64 
L 424.593194 559.18 
L 423.880157 560.72 
L 421.628809 562.26 
L 420.595301 563.8 
L 420.739511 565.34 
L 418.416068 566.88 
L 416.749612 568.42 
L 416.893822 569.96 
L 414.442194 571.5 
L 413.705119 573.04 
L 413.536871 574.58 
L 411.061205 576.12 
L 410.949046 577.66 
L 409.779322 579.2 
L 408.104834 580.74 
L 408.192974 582.28 
L 405.821474 583.82 
L 405.308716 585.36 
L 405.69327 586.9 
L 404.13096 589.98 
L 404.339272 591.52 
L 402.632752 593.06 
L 402.07995 594.6 
L 402.688841 596.14 
L 402.552624 597.68 
L 402.873115 599.22 
L 408.080795 600.76 
L 409.48287 602.3 
L 413.312534 603.84 
L 412.960012 605.38 
L 412.327083 606.92 
L 410.452315 610 
L 409.795347 611.54 
L 408.81789 613.08 
L 408.200986 614.62 
L 407.712267 616.16 
L 406.478441 617.7 
L 406.614638 619.24 
L 407.263612 620.78 
L 407.34372 623.86 
L 411.093256 625.4 
L 412.166847 626.94 
L 412.166847 628.48 
L 412.69563 630.02 
L 412.69563 633.1 
L 413.801253 634.64 
L 413.801253 637.72 
L 409.851437 639.26 
L 409.851437 640.8 
L 409.851437 640.8 
" clip-path="url(#p90f8a76cee)" style="fill: none; stroke: #9467bd; stroke-width: 4"/>
   </g>
   <g id="LineCollection_5">
    <path d="M 455.342624 412.214153 
L 455.342624 392.014818 
" clip-path="url(#p90f8a76cee)" style="fill: none; stroke: #ff0000; stroke-width: 3"/>
   </g>
   <g id="line2d_27">
    <g clip-path="url(#p90f8a76cee)">
     <use xlink:href="#ma2f2f8fa33" x="455.342624" y="412.214153" style="fill: #ff0000; stroke: #ff0000; stroke-width: 2"/>
    </g>
   </g>
   <g id="line2d_28">
    <g clip-path="url(#p90f8a76cee)">
     <use xlink:href="#ma2f2f8fa33" x="455.342624" y="392.014818" style="fill: #ff0000; stroke: #ff0000; stroke-width: 2"/>
    </g>
   </g>
   <g id="line2d_29">
    <path d="M 435.786567 151.08 
L 435.989621 152.62 
L 436.635666 154.16 
L 445.717167 155.7 
L 445.652561 157.24 
L 445.818694 158.78 
L 445.827929 160.32 
L 446.243234 161.86 
L 445.883281 163.4 
L 447.86757 164.94 
L 448.015233 166.48 
L 454.327974 168.02 
L 458.370354 169.56 
L 458.831833 171.1 
L 464.636977 172.64 
L 465.17226 174.18 
L 465.2092 175.72 
L 471.328102 177.26 
L 471.346572 178.8 
L 470.995874 180.34 
L 471.106655 181.88 
L 471.614232 183.42 
L 471.844953 184.96 
L 471.678839 186.5 
L 472.961692 188.04 
L 473.533915 189.58 
L 473.201648 191.12 
L 473.77387 192.66 
L 473.496975 194.2 
L 474.143038 195.74 
L 474.207645 197.28 
L 475.33358 198.82 
L 477.81625 200.36 
L 478.693034 201.9 
L 487.876024 203.44 
L 487.636107 204.98 
L 490.67249 206.52 
L 495.305524 208.06 
L 495.407031 209.6 
L 499.569389 211.14 
L 500.104671 214.22 
L 500.289294 215.76 
L 500.344665 217.3 
L 502.448931 218.84 
L 502.938039 220.38 
L 502.707357 221.92 
L 503.796353 223.46 
L 501.821338 225 
L 502.31968 226.54 
L 502.735023 229.62 
L 502.901137 231.16 
L 499.00644 232.7 
L 499.532487 235.78 
L 500.14165 238.86 
L 500.06777 240.4 
L 500.298529 241.94 
L 510.515221 243.48 
L 510.450615 245.02 
L 519.144498 246.56 
L 518.784564 248.1 
L 527.201591 249.64 
L 527.247727 251.18 
L 531.216265 252.72 
L 531.40085 254.26 
L 531.963837 255.8 
L 531.797684 257.34 
L 536.559969 258.88 
L 536.59687 260.42 
L 536.892197 261.96 
L 537.030645 263.5 
L 536.458422 265.04 
L 536.975273 266.58 
L 542.540462 268.12 
L 542.263605 269.66 
L 545.973718 271.2 
L 546.610508 272.74 
L 549.988432 274.28 
L 549.87765 275.82 
L 549.526952 277.36 
L 551.732726 278.9 
L 554.778344 280.44 
L 556.356524 281.98 
L 556.624223 283.52 
L 574.777992 285.06 
L 578.321991 286.6 
L 578.24815 288.14 
L 577.602086 289.68 
L 595.848205 291.22 
L 595.755932 292.76 
L 595.202141 294.3 
L 608.353709 295.84 
L 608.104557 297.38 
L 608.03995 298.92 
L 620.600825 300.46 
L 620.185521 302 
L 620.185521 303.54 
L 617.527502 305.08 
L 626.470576 306.62 
L 626.848979 308.16 
L 624.947806 309.7 
L 638.41317 311.24 
L 632.931019 312.78 
L 632.746435 314.32 
L 639.72369 315.86 
L 639.889843 317.4 
L 642.418648 318.94 
L 639.788335 320.48 
L 639.262249 322.02 
L 637.933259 323.56 
L 636.862656 325.1 
L 634.666117 326.64 
L 635.02605 328.18 
L 632.903314 329.72 
L 631.278997 331.26 
L 631.186724 332.8 
L 630.116121 334.34 
L 629.590074 335.88 
L 628.344122 337.42 
L 627.891877 338.96 
L 624.744752 342.04 
L 624.117197 343.58 
L 623.065025 345.12 
L 621.588391 346.66 
L 619.299502 348.2 
L 618.561204 349.74 
L 616.789205 351.28 
L 615.192555 352.82 
L 614.029679 354.36 
L 613.097523 355.9 
L 610.688695 357.44 
L 609.009007 358.98 
L 607.716919 360.52 
L 606.21258 362.06 
L 603.019279 363.6 
L 600.693527 365.14 
L 599.253756 366.68 
L 596.789595 368.22 
L 595.515938 369.76 
L 593.264028 371.3 
L 591.390521 372.84 
L 588.344864 375.92 
L 586.17603 377.46 
L 584.284053 379 
L 582.871987 382.08 
L 577.980489 385.16 
L 577.122175 386.7 
L 572.618316 389.78 
L 567.080832 392.86 
L 565.327303 394.4 
L 563.223036 395.94 
L 561.875577 397.48 
L 558.543867 399.02 
L 557.297915 400.56 
L 554.621465 402.1 
L 552.554139 403.64 
L 551.252815 405.18 
L 545.226147 408.26 
L 544.552417 409.8 
L 541.903672 411.34 
L 540.242377 412.88 
L 536.726083 414.42 
L 534.686423 415.96 
L 533.006696 417.5 
L 528.678263 419.04 
L 527.266197 420.58 
L 525.032718 422.12 
L 517.584787 426.74 
L 516.145016 428.28 
L 513.145534 429.82 
L 511.115109 431.36 
L 508.853964 432.9 
L 505.937559 434.44 
L 502.042823 435.98 
L 498.831052 437.52 
L 495.951587 439.06 
L 492.084557 440.6 
L 489.195818 442.14 
L 486.556269 443.68 
L 483.01227 445.22 
L 481.267937 446.76 
L 475.213603 449.84 
L 472.564819 452.92 
L 467.987157 454.46 
L 467.44264 456 
L 465.006146 457.54 
L 462.154308 459.08 
L 460.594598 460.62 
L 458.767227 462.16 
L 455.352441 463.7 
L 453.728085 465.24 
L 450.977794 466.78 
L 449.178109 468.32 
L 445.966358 469.86 
L 443.945168 471.4 
L 441.536359 472.94 
L 437.863128 474.48 
L 433.590028 477.56 
L 429.62147 479.1 
L 426.178999 480.64 
L 424.120888 482.18 
L 421.702844 483.72 
L 417.512801 485.26 
L 415.196285 486.8 
L 411.116965 488.34 
L 410.378648 489.88 
L 405.367211 491.42 
L 402.432336 492.96 
L 400.909488 494.5 
L 395.814995 496.04 
L 392.870904 497.58 
L 391.883377 499.12 
L 387.038055 500.66 
L 385.376798 502.2 
L 382.026618 503.74 
L 379.516283 505.28 
L 376.67368 506.82 
L 372.262132 508.36 
L 367.056877 511.44 
L 363.540563 512.98 
L 360.48571 514.52 
L 358.095352 516.06 
L 354.449826 517.6 
L 352.419402 519.14 
L 350.130571 520.68 
L 346.171267 522.22 
L 343.891633 523.76 
L 342.156573 525.3 
L 338.594085 526.84 
L 335.48388 528.38 
L 333.65649 529.92 
L 330.361662 531.46 
L 326.753076 533 
L 323.70742 536.08 
L 320.043443 537.62 
L 317.053216 539.16 
L 314.782835 540.7 
L 313.204636 542.24 
L 308.710031 543.78 
L 307.777875 545.32 
L 305.765921 546.86 
L 303.523226 548.4 
L 300.819071 549.94 
L 299.000935 551.48 
L 294.598622 554.56 
L 291.608356 556.1 
L 290.150134 557.64 
L 287.759796 559.18 
L 285.960101 560.72 
L 284.584955 562.26 
L 281.317833 563.8 
L 280.450284 565.34 
L 278.70597 566.88 
L 276.02951 568.42 
L 274.4144 569.96 
L 273.149997 571.5 
L 270.962693 573.04 
L 269.984392 574.58 
L 268.673852 576.12 
L 267.040281 577.66 
L 264.954495 580.74 
L 263.311698 582.28 
L 262.591822 583.82 
L 261.715058 585.36 
L 260.985947 586.9 
L 259.583115 588.44 
L 259.029363 589.98 
L 257.331186 593.06 
L 256.823589 594.6 
L 256.103713 596.14 
L 254.765488 597.68 
L 253.741041 600.76 
L 252.79967 602.3 
L 252.190546 603.84 
L 251.996727 605.38 
L 251.609108 606.92 
L 250.981524 608.46 
L 250.667728 610 
L 250.667728 611.54 
L 249.781728 616.16 
L 249.320268 620.78 
L 248.803436 622.32 
L 248.452728 623.86 
L 248.508109 625.4 
L 247.594414 626.94 
L 245.407091 628.48 
L 243.985809 630.02 
L 243.635092 631.56 
L 243.718158 633.1 
L 241.364711 634.64 
L 238.17143 636.18 
L 237.045465 637.72 
L 237.045465 640.8 
L 237.045465 640.8 
" clip-path="url(#p90f8a76cee)" style="fill: none; stroke: #8c564b; stroke-width: 4"/>
   </g>
   <g id="LineCollection_6">
    <path d="M 565.327303 405.199138 
L 565.327303 383.575304 
" clip-path="url(#p90f8a76cee)" style="fill: none; stroke: #ff0000; stroke-width: 3"/>
   </g>
   <g id="line2d_30">
    <g clip-path="url(#p90f8a76cee)">
     <use xlink:href="#ma2f2f8fa33" x="565.327303" y="405.199138" style="fill: #ff0000; stroke: #ff0000; stroke-width: 2"/>
    </g>
   </g>
   <g id="line2d_31">
    <g clip-path="url(#p90f8a76cee)">
     <use xlink:href="#ma2f2f8fa33" x="565.327303" y="383.575304" style="fill: #ff0000; stroke: #ff0000; stroke-width: 2"/>
    </g>
   </g>
   <g id="line2d_32">
    <path d="M 684.621895 143.38 
L 684.621895 148 
L 681.75182 149.54 
L 678.55398 151.08 
L 678.55398 152.62 
L 676.369159 154.16 
L 676.1209 155.7 
L 674.452465 157.24 
L 674.82982 158.78 
L 673.687743 160.32 
L 673.677848 161.86 
L 666.547323 163.4 
L 665.971336 164.94 
L 667.173015 166.48 
L 666.785687 168.02 
L 666.845249 169.56 
L 666.706258 171.1 
L 668.185957 172.64 
L 668.305159 174.18 
L 668.205824 175.72 
L 668.434255 177.26 
L 669.308168 178.8 
L 669.407464 180.34 
L 669.318102 181.88 
L 670.142386 183.42 
L 670.221815 184.96 
L 671.453294 188.04 
L 671.423493 189.58 
L 671.1653 191.12 
L 671.661819 192.66 
L 671.790954 194.2 
L 671.781021 195.74 
L 672.714534 197.28 
L 673.42955 198.82 
L 673.250825 200.36 
L 673.360054 203.44 
L 673.221025 204.98 
L 673.310387 206.52 
L 672.605305 208.06 
L 672.426541 209.6 
L 671.781021 211.14 
L 671.363892 212.68 
L 671.453294 217.3 
L 664.144043 218.84 
L 663.885812 220.38 
L 663.111195 221.92 
L 661.969117 223.46 
L 661.969117 228.08 
L 661.641391 229.62 
L 661.710886 231.16 
L 662.406113 234.24 
L 662.207482 235.78 
L 662.267044 237.32 
L 662.743734 238.86 
L 662.733801 240.4 
L 663.021833 243.48 
L 663.379321 245.02 
L 663.409122 249.64 
L 663.160862 251.18 
L 663.180729 252.72 
L 663.51839 254.26 
L 663.657381 255.8 
L 663.399188 258.88 
L 661.979051 260.42 
L 661.710886 261.96 
L 661.631457 263.5 
L 659.972955 265.04 
L 659.307607 266.58 
L 658.463456 268.12 
L 656.397798 269.66 
L 654.739335 271.2 
L 654.560533 272.74 
L 653.99448 274.28 
L 651.620962 275.82 
L 650.995309 277.36 
L 650.528552 278.9 
L 647.380379 280.44 
L 646.079443 281.98 
L 645.950308 283.52 
L 643.686058 285.06 
L 642.702878 286.6 
L 641.977889 288.14 
L 639.286617 289.68 
L 638.561629 291.22 
L 636.883299 292.76 
L 636.654868 294.3 
L 634.89707 295.84 
L 633.248541 298.92 
L 630.775688 300.46 
L 629.862042 302 
L 625.899518 305.08 
L 624.916376 306.62 
L 623.714736 308.16 
L 622.910319 309.7 
L 620.526829 311.24 
L 619.851508 312.78 
L 617.974547 314.32 
L 616.296218 315.86 
L 615.779793 317.4 
L 615.034938 318.94 
L 612.194664 320.48 
L 610.705031 322.02 
L 609.652316 323.56 
L 604.73645 326.64 
L 603.50501 328.18 
L 601.747213 329.72 
L 598.738108 331.26 
L 596.116292 334.34 
L 591.111025 335.88 
L 590.584707 337.42 
L 589.22417 338.96 
L 587.446506 340.5 
L 583.841509 342.04 
L 580.772804 345.12 
L 575.340514 346.66 
L 574.834023 348.2 
L 573.00673 349.74 
L 567.822738 351.28 
L 566.442296 352.82 
L 564.744099 354.36 
L 563.443125 355.9 
L 557.881739 357.44 
L 557.424916 358.98 
L 556.064379 360.52 
L 551.41664 362.06 
L 550.105732 363.6 
L 548.427363 365.14 
L 544.315915 366.68 
L 541.644432 368.22 
L 541.237276 369.76 
L 537.165561 371.3 
L 535.447498 372.84 
L 534.096856 374.38 
L 532.358925 375.92 
L 528.416307 377.46 
L 525.615728 379 
L 525.218505 380.54 
L 521.136857 382.08 
L 519.309525 383.62 
L 517.899283 385.16 
L 513.052951 386.7 
L 511.404422 388.24 
L 508.633643 389.78 
L 508.266221 391.32 
L 504.055438 392.86 
L 501.979847 394.4 
L 500.400774 395.94 
L 495.901998 397.48 
L 494.422298 399.02 
L 485.583643 403.64 
L 485.255916 405.18 
L 483.676921 406.72 
L 479.217839 408.26 
L 477.767902 409.8 
L 468.879618 414.42 
L 468.432728 415.96 
L 464.311346 417.5 
L 462.285422 419.04 
L 460.775845 420.58 
L 457.96541 422.12 
L 451.162631 425.2 
L 450.536958 426.74 
L 446.11763 428.28 
L 443.982457 429.82 
L 442.075696 431.36 
L 435.660245 432.9 
L 435.044525 434.44 
L 431.638159 435.98 
L 430.843675 437.52 
L 426.046973 439.06 
L 423.931667 440.6 
L 422.094421 442.14 
L 415.351223 443.68 
L 414.795085 445.22 
L 411.845562 446.76 
L 408.548445 448.3 
L 407.267337 449.84 
L 404.844171 451.38 
L 400.017688 452.92 
L 396.055183 454.46 
L 394.704561 456 
L 386.908687 459.08 
L 385.359434 460.62 
L 382.797238 462.16 
L 377.84162 463.7 
L 374.335977 465.24 
L 373.680523 466.78 
L 366.371254 468.32 
L 365.864782 469.86 
L 364.136766 471.4 
L 361.7434 472.94 
L 356.609037 474.48 
L 353.023927 476.02 
L 352.408188 477.56 
L 344.920193 479.1 
L 344.542799 480.64 
L 342.41756 482.18 
L 336.866107 483.72 
L 334.96926 485.26 
L 331.205406 486.8 
L 330.659181 488.34 
L 323.409512 489.88 
L 322.972537 491.42 
L 320.887031 492.96 
L 314.560962 494.5 
L 312.366189 496.04 
L 300.667392 500.66 
L 300.230435 502.2 
L 298.095243 503.74 
L 291.510962 505.28 
L 289.822699 506.82 
L 277.994795 511.44 
L 277.259903 512.98 
L 271.956719 514.52 
L 269.315066 516.06 
L 267.388438 517.6 
L 264.021806 519.14 
L 258.400829 520.68 
L 255.232827 522.22 
L 254.190065 523.76 
L 249.61185 525.3 
L 246.78149 526.84 
L 245.669222 528.38 
L 238.022302 529.92 
L 236.949749 531.46 
L 233.811538 533 
L 229.134008 534.54 
L 226.134827 536.08 
L 225.519107 537.62 
L 224.57566 539.16 
L 218.150265 540.7 
L 217.504745 542.24 
L 214.733985 543.78 
L 209.967073 545.32 
L 207.136723 546.86 
L 206.203204 548.4 
L 202.330091 549.94 
L 199.320982 551.48 
L 198.933674 553.02 
L 196.589942 554.56 
L 192.935317 556.1 
L 190.641238 557.64 
L 189.946064 559.18 
L 185.983574 560.72 
L 183.490879 562.26 
L 182.815568 563.8 
L 178.495556 565.34 
L 177.909626 566.88 
L 176.1419 568.42 
L 175.436793 569.96 
L 172.934169 571.5 
L 171.15651 573.04 
L 170.481199 574.58 
L 165.863257 576.12 
L 165.575257 577.66 
L 163.91677 579.2 
L 161.38435 580.74 
L 160.897729 582.28 
L 159.398141 583.82 
L 159.288899 585.36 
L 156.895515 586.9 
L 156.736618 588.44 
L 156.130822 589.98 
L 154.561716 591.52 
L 154.472337 593.06 
L 153.747368 594.6 
L 152.386812 596.14 
L 151.641986 597.68 
L 151.532742 599.22 
L 152.009433 600.76 
L 151.721435 602.3 
L 151.949849 603.84 
L 152.992609 605.38 
L 152.535781 606.92 
L 152.694675 608.46 
L 152.72447 610 
L 151.77109 611.54 
L 151.502952 613.08 
L 150.350948 616.16 
L 149.467085 617.7 
L 149.238671 619.24 
L 147.351769 622.32 
L 146.994249 623.86 
L 146.338801 625.4 
L 143.339622 626.94 
L 142.74376 628.48 
L 142.445828 630.02 
L 139.436717 631.56 
L 139.277821 633.1 
L 138.781268 634.64 
L 138.04637 636.18 
L 138.215198 637.72 
L 138.622371 639.26 
L 138.334371 640.8 
L 138.334371 640.8 
" clip-path="url(#p90f8a76cee)" style="fill: none; stroke: #e377c2; stroke-width: 4"/>
   </g>
   <g id="LineCollection_7">
    <path d="M 548.427363 378.731953 
L 548.427363 352.346521 
" clip-path="url(#p90f8a76cee)" style="fill: none; stroke: #ff0000; stroke-width: 3"/>
   </g>
   <g id="line2d_33">
    <g clip-path="url(#p90f8a76cee)">
     <use xlink:href="#ma2f2f8fa33" x="548.427363" y="378.731953" style="fill: #ff0000; stroke: #ff0000; stroke-width: 2"/>
    </g>
   </g>
   <g id="line2d_34">
    <g clip-path="url(#p90f8a76cee)">
     <use xlink:href="#ma2f2f8fa33" x="548.427363" y="352.346521" style="fill: #ff0000; stroke: #ff0000; stroke-width: 2"/>
    </g>
   </g>
   <g id="line2d_35">
    <path d="M 648.429252 88.71 
L 649.209146 90.25 
L 650.419284 91.79 
L 652.153916 93.33 
L 654.372534 94.87 
L 665.371603 101.03 
L 668.558346 102.57 
L 676.451382 105.65 
L 680.377703 107.19 
L 683.833387 108.73 
L 687.746244 110.27 
L 696.029207 113.35 
L 699.538671 114.89 
L 710.725972 119.51 
L 716.965085 122.59 
L 722.881476 125.67 
L 728.394437 128.75 
L 734.458705 131.83 
L 740.509547 134.91 
L 744.045941 136.45 
L 756.645114 142.61 
L 759.307478 144.15 
L 764.981819 147.23 
L 769.607363 150.31 
L 774.864847 154.93 
L 776.559125 156.47 
L 778.011274 158.01 
L 784.478973 164.17 
L 790.018901 168.79 
L 803.263401 179.57 
L 806.423331 182.65 
L 808.601633 185.73 
L 809.260501 187.27 
L 810.040357 188.81 
L 810.578238 190.35 
L 810.914347 191.89 
L 811.909479 194.97 
L 812.151452 196.51 
L 813.872581 204.21 
L 814.249122 210.37 
L 814.343257 216.53 
L 814.410386 218.07 
L 815.149964 224.23 
L 815.970173 227.31 
L 816.521481 230.39 
L 817.36862 235.01 
L 817.677877 236.55 
L 817.946779 242.71 
L 817.691303 244.25 
L 817.274485 250.41 
L 816.198799 259.65 
L 815.230673 264.27 
L 815.096183 265.81 
L 814.53145 268.89 
L 814.154987 270.43 
L 812.877604 279.67 
L 812.003536 284.29 
L 811.653925 285.83 
L 810.067286 290.45 
L 808.184815 295.07 
L 807.364605 296.61 
L 806.826723 298.15 
L 806.006513 299.69 
L 804.594641 302.77 
L 799.511963 313.55 
L 797.427719 318.17 
L 796.84956 319.71 
L 795.935215 321.25 
L 794.657832 324.33 
L 792.882923 327.41 
L 792.277835 328.95 
L 791.36349 330.49 
L 790.583634 332.03 
L 787.598471 336.65 
L 786.724481 338.19 
L 785.568085 339.73 
L 782.462013 344.35 
L 779.275231 348.97 
L 775.833011 353.59 
L 774.367358 355.13 
L 772.605874 356.67 
L 770.588953 358.21 
L 767.805563 361.29 
L 765.896164 362.83 
L 759.54949 368.99 
L 757.532568 370.53 
L 754.466812 373.61 
L 752.436426 375.15 
L 749.236218 378.23 
L 747.219258 379.77 
L 745.538483 381.31 
L 743.171911 382.85 
L 737.470681 385.93 
L 734.122558 387.47 
L 729.644929 389.01 
L 724.669773 390.55 
L 720.192183 392.09 
L 714.08756 393.63 
L 705.011316 396.71 
L 694.308078 399.79 
L 678.69689 404.41 
L 647.192225 413.65 
L 642.929718 415.19 
L 636.583044 416.73 
L 626.337017 419.81 
L 614.584905 422.89 
L 609.502227 424.43 
L 603.047954 425.97 
L 597.763619 427.51 
L 591.121114 429.05 
L 586.159423 430.59 
L 559.656765 436.75 
L 539.890708 441.37 
L 539.890708 441.37 
" clip-path="url(#p90f8a76cee)" style="fill: none; stroke: #7f7f7f; stroke-width: 4"/>
   </g>
   <g id="LineCollection_8">
    <path d="M 790.583634 340.619016 
L 790.583634 324.903815 
" clip-path="url(#p90f8a76cee)" style="fill: none; stroke: #ff0000; stroke-width: 3"/>
   </g>
   <g id="line2d_36">
    <g clip-path="url(#p90f8a76cee)">
     <use xlink:href="#ma2f2f8fa33" x="790.583634" y="340.619016" style="fill: #ff0000; stroke: #ff0000; stroke-width: 2"/>
    </g>
   </g>
   <g id="line2d_37">
    <g clip-path="url(#p90f8a76cee)">
     <use xlink:href="#ma2f2f8fa33" x="790.583634" y="324.903815" style="fill: #ff0000; stroke: #ff0000; stroke-width: 2"/>
    </g>
   </g>
   <g id="line2d_38">
    <path d="M 572.075351 88.71 
L 573.396192 90.25 
L 575.517958 91.79 
L 579.171342 93.33 
L 583.47106 94.87 
L 594.234404 97.95 
L 606.416953 101.03 
L 626.482333 105.65 
L 647.067591 110.27 
L 653.348571 111.81 
L 672.289878 117.97 
L 680.453717 121.05 
L 689.235838 124.13 
L 708.331656 131.83 
L 717.043544 136.45 
L 719.629001 137.99 
L 728.551626 142.61 
L 732.078513 144.15 
L 744.49997 150.31 
L 750.949548 154.93 
L 754.771529 158.01 
L 759.394396 161.09 
L 761.881528 162.63 
L 764.733947 164.17 
L 769.72218 167.25 
L 776.663581 171.87 
L 789.928103 181.11 
L 792.007691 182.65 
L 793.890549 184.19 
L 797.206699 187.27 
L 799.834258 190.35 
L 801.77338 193.43 
L 806.902156 204.21 
L 807.731212 205.75 
L 808.770967 207.29 
L 810.190212 210.37 
L 810.836586 211.91 
L 811.342417 213.45 
L 811.932528 216.53 
L 812.438359 221.15 
L 812.536762 222.69 
L 812.761585 224.23 
L 813.16909 225.77 
L 813.618734 228.85 
L 814.194798 230.39 
L 814.265109 231.93 
L 814.672536 233.47 
L 815.192491 238.09 
L 815.234631 241.17 
L 815.234631 242.71 
L 814.265109 251.95 
L 813.71706 255.03 
L 812.030931 261.19 
L 811.005145 264.27 
L 810.429081 265.81 
L 809.571931 267.35 
L 808.911511 268.89 
L 803.529819 278.13 
L 802.363568 279.67 
L 801.394045 281.21 
L 800.01694 282.75 
L 798.963139 284.29 
L 795.281623 288.91 
L 793.10371 291.99 
L 789.450365 296.61 
L 788.22785 298.15 
L 786.780589 299.69 
L 785.656477 301.23 
L 784.152953 302.77 
L 782.930438 304.31 
L 781.398898 305.85 
L 780.429298 307.39 
L 778.869666 308.93 
L 773.502021 315.09 
L 770.410694 318.17 
L 769.061759 319.71 
L 759.478714 328.95 
L 757.666127 330.49 
L 756.13451 332.03 
L 752.50922 335.11 
L 750.331267 336.65 
L 748.588874 338.19 
L 746.593604 339.73 
L 742.350111 341.27 
L 736.350139 342.81 
L 727.736616 344.35 
L 715.174693 345.89 
L 715.174693 345.89 
" clip-path="url(#p90f8a76cee)" style="fill: none; stroke: #bcbd22; stroke-width: 4"/>
   </g>
   <g id="LineCollection_9">
    <path d="M 756.13451 342.457836 
L 756.13451 323.059031 
" clip-path="url(#p90f8a76cee)" style="fill: none; stroke: #ff0000; stroke-width: 3"/>
   </g>
   <g id="line2d_39">
    <g clip-path="url(#p90f8a76cee)">
     <use xlink:href="#ma2f2f8fa33" x="756.13451" y="342.457836" style="fill: #ff0000; stroke: #ff0000; stroke-width: 2"/>
    </g>
   </g>
   <g id="line2d_40">
    <g clip-path="url(#p90f8a76cee)">
     <use xlink:href="#ma2f2f8fa33" x="756.13451" y="323.059031" style="fill: #ff0000; stroke: #ff0000; stroke-width: 2"/>
    </g>
   </g>
   <g id="LineCollection_10">
    <path d="M 282.24 379 
L 282.24 348.2 
" clip-path="url(#p90f8a76cee)" style="fill: none; stroke: #ff0000; stroke-width: 5"/>
   </g>
   <g id="line2d_41">
    <defs>
     <path id="mc482639dac" d="M 9 0 
L -9 -0 
" style="stroke: #ff0000; stroke-width: 3"/>
    </defs>
    <g clip-path="url(#p90f8a76cee)">
     <use xlink:href="#mc482639dac" x="282.24" y="379" style="fill: #ff0000; stroke: #ff0000; stroke-width: 3"/>
    </g>
   </g>
   <g id="line2d_42">
    <g clip-path="url(#p90f8a76cee)">
     <use xlink:href="#mc482639dac" x="282.24" y="348.2" style="fill: #ff0000; stroke: #ff0000; stroke-width: 3"/>
    </g>
   </g>
   <g id="line2d_43">
    <path d="M 580.490476 400.816501 
" clip-path="url(#p90f8a76cee)" style="fill: none; stroke: #1f77b4; stroke-width: 1.5; stroke-linecap: square"/>
   </g>
   <g id="line2d_44">
    <path d="M 447.534023 401.183417 
" clip-path="url(#p90f8a76cee)" style="fill: none; stroke: #ff7f0e; stroke-width: 1.5; stroke-linecap: square"/>
   </g>
   <g id="line2d_45">
    <path d="M 667.238591 401.666241 
" clip-path="url(#p90f8a76cee)" style="fill: none; stroke: #2ca02c; stroke-width: 1.5; stroke-linecap: square"/>
   </g>
   <g id="line2d_46">
    <path d="M 504.748879 400.123159 
" clip-path="url(#p90f8a76cee)" style="fill: none; stroke: #d62728; stroke-width: 1.5; stroke-linecap: square"/>
   </g>
   <g id="line2d_47">
    <path d="M 455.342624 402.114486 
" clip-path="url(#p90f8a76cee)" style="fill: none; stroke: #9467bd; stroke-width: 1.5; stroke-linecap: square"/>
   </g>
   <g id="line2d_48">
    <path d="M 565.327303 394.387221 
" clip-path="url(#p90f8a76cee)" style="fill: none; stroke: #8c564b; stroke-width: 1.5; stroke-linecap: square"/>
   </g>
   <g id="line2d_49">
    <path d="M 548.427363 365.539237 
" clip-path="url(#p90f8a76cee)" style="fill: none; stroke: #e377c2; stroke-width: 1.5; stroke-linecap: square"/>
   </g>
   <g id="line2d_50">
    <path d="M 790.583634 332.761416 
" clip-path="url(#p90f8a76cee)" style="fill: none; stroke: #7f7f7f; stroke-width: 1.5; stroke-linecap: square"/>
   </g>
   <g id="line2d_51">
    <path d="M 756.13451 332.758433 
" clip-path="url(#p90f8a76cee)" style="fill: none; stroke: #bcbd22; stroke-width: 1.5; stroke-linecap: square"/>
   </g>
   <g id="line2d_52">
    <path d="M 282.24 363.6 
" clip-path="url(#p90f8a76cee)" style="fill: none; stroke: #17becf; stroke-width: 1.5; stroke-linecap: square"/>
   </g>
   <g id="patch_3">
    <path d="M 126 640.8 
L 126 86.4 
" style="fill: none; stroke: #000000; stroke-width: 0.8; stroke-linejoin: miter; stroke-linecap: square"/>
   </g>
   <g id="patch_4">
    <path d="M 907.2 640.8 
L 907.2 86.4 
" style="fill: none; stroke: #000000; stroke-width: 0.8; stroke-linejoin: miter; stroke-linecap: square"/>
   </g>
   <g id="patch_5">
    <path d="M 126 640.8 
L 907.2 640.8 
" style="fill: none; stroke: #000000; stroke-width: 0.8; stroke-linejoin: miter; stroke-linecap: square"/>
   </g>
   <g id="patch_6">
    <path d="M 126 86.4 
L 907.2 86.4 
" style="fill: none; stroke: #000000; stroke-width: 0.8; stroke-linejoin: miter; stroke-linecap: square"/>
   </g>
   <g id="legend_1">
    <g id="line2d_53">
     <path d="M 144 244.321875 
L 164 244.321875 
L 184 244.321875 
" style="fill: none; stroke: #1f77b4; stroke-width: 4"/>
    </g>
    <g id="text_16">
     <!-- Ta -->
     <g transform="translate(200 251.321875) scale(0.2 -0.2)">
      <defs>
       <path id="DejaVuSansMono-54" d="M 147 4666 
L 3706 4666 
L 3706 4134 
L 2247 4134 
L 2247 0 
L 1613 0 
L 1613 4134 
L 147 4134 
L 147 4666 
z
" transform="scale(0.015625)"/>
      </defs>
      <use xlink:href="#DejaVuSansMono-54"/>
      <use xlink:href="#DejaVuSansMono-61" x="60.205078"/>
     </g>
    </g>
    <g id="line2d_54">
     <path d="M 144 273.784375 
L 164 273.784375 
L 184 273.784375 
" style="fill: none; stroke: #ff7f0e; stroke-width: 4"/>
    </g>
    <g id="text_17">
     <!-- T8 -->
     <g transform="translate(200 280.784375) scale(0.2 -0.2)">
      <defs>
       <path id="DejaVuSansMono-38" d="M 1925 2216 
Q 1503 2216 1273 1980 
Q 1044 1744 1044 1313 
Q 1044 881 1276 642 
Q 1509 403 1925 403 
Q 2350 403 2579 639 
Q 2809 875 2809 1313 
Q 2809 1741 2576 1978 
Q 2344 2216 1925 2216 
z
M 1375 2478 
Q 972 2581 745 2862 
Q 519 3144 519 3541 
Q 519 4097 897 4423 
Q 1275 4750 1925 4750 
Q 2578 4750 2956 4423 
Q 3334 4097 3334 3541 
Q 3334 3144 3107 2862 
Q 2881 2581 2478 2478 
Q 2947 2375 3195 2062 
Q 3444 1750 3444 1253 
Q 3444 622 3041 265 
Q 2638 -91 1925 -91 
Q 1213 -91 811 264 
Q 409 619 409 1247 
Q 409 1747 657 2061 
Q 906 2375 1375 2478 
z
M 1147 3481 
Q 1147 3106 1347 2909 
Q 1547 2713 1925 2713 
Q 2306 2713 2506 2909 
Q 2706 3106 2706 3481 
Q 2706 3863 2507 4063 
Q 2309 4263 1925 4263 
Q 1547 4263 1347 4061 
Q 1147 3859 1147 3481 
z
" transform="scale(0.015625)"/>
      </defs>
      <use xlink:href="#DejaVuSansMono-54"/>
      <use xlink:href="#DejaVuSansMono-38" x="60.205078"/>
     </g>
    </g>
    <g id="line2d_55">
     <path d="M 144 303.246875 
L 164 303.246875 
L 184 303.246875 
" style="fill: none; stroke: #2ca02c; stroke-width: 4"/>
    </g>
    <g id="text_18">
     <!-- T31 -->
     <g transform="translate(200 310.246875) scale(0.2 -0.2)">
      <use xlink:href="#DejaVuSansMono-54"/>
      <use xlink:href="#DejaVuSansMono-33" x="60.205078"/>
      <use xlink:href="#DejaVuSansMono-31" x="120.410156"/>
     </g>
    </g>
    <g id="line2d_56">
     <path d="M 144 332.709375 
L 164 332.709375 
L 184 332.709375 
" style="fill: none; stroke: #d62728; stroke-width: 4"/>
    </g>
    <g id="text_19">
     <!-- T61 -->
     <g transform="translate(200 339.709375) scale(0.2 -0.2)">
      <use xlink:href="#DejaVuSansMono-54"/>
      <use xlink:href="#DejaVuSansMono-36" x="60.205078"/>
      <use xlink:href="#DejaVuSansMono-31" x="120.410156"/>
     </g>
    </g>
    <g id="line2d_57">
     <path d="M 144 362.171875 
L 164 362.171875 
L 184 362.171875 
" style="fill: none; stroke: #9467bd; stroke-width: 4"/>
    </g>
    <g id="text_20">
     <!-- T67 -->
     <g transform="translate(200 369.171875) scale(0.2 -0.2)">
      <use xlink:href="#DejaVuSansMono-54"/>
      <use xlink:href="#DejaVuSansMono-36" x="60.205078"/>
      <use xlink:href="#DejaVuSansMono-37" x="120.410156"/>
     </g>
    </g>
    <g id="line2d_58">
     <path d="M 144 391.634375 
L 164 391.634375 
L 184 391.634375 
" style="fill: none; stroke: #8c564b; stroke-width: 4"/>
    </g>
    <g id="text_21">
     <!-- T85 -->
     <g transform="translate(200 398.634375) scale(0.2 -0.2)">
      <use xlink:href="#DejaVuSansMono-54"/>
      <use xlink:href="#DejaVuSansMono-38" x="60.205078"/>
      <use xlink:href="#DejaVuSansMono-35" x="120.410156"/>
     </g>
    </g>
    <g id="line2d_59">
     <path d="M 144 421.096875 
L 164 421.096875 
L 184 421.096875 
" style="fill: none; stroke: #e377c2; stroke-width: 4"/>
    </g>
    <g id="text_22">
     <!-- T108 -->
     <g transform="translate(200 428.096875) scale(0.2 -0.2)">
      <use xlink:href="#DejaVuSansMono-54"/>
      <use xlink:href="#DejaVuSansMono-31" x="60.205078"/>
      <use xlink:href="#DejaVuSansMono-30" x="120.410156"/>
      <use xlink:href="#DejaVuSansMono-38" x="180.615234"/>
     </g>
    </g>
    <g id="line2d_60">
     <path d="M 144 450.559375 
L 164 450.559375 
L 184 450.559375 
" style="fill: none; stroke: #7f7f7f; stroke-width: 4"/>
    </g>
    <g id="text_23">
     <!-- 278TI -->
     <g transform="translate(200 457.559375) scale(0.2 -0.2)">
      <defs>
       <path id="DejaVuSansMono-32" d="M 1166 531 
L 3309 531 
L 3309 0 
L 475 0 
L 475 531 
Q 1059 1147 1496 1619 
Q 1934 2091 2100 2284 
Q 2413 2666 2522 2902 
Q 2631 3138 2631 3384 
Q 2631 3775 2401 3997 
Q 2172 4219 1772 4219 
Q 1488 4219 1175 4116 
Q 863 4013 513 3803 
L 513 4441 
Q 834 4594 1145 4672 
Q 1456 4750 1759 4750 
Q 2444 4750 2861 4386 
Q 3278 4022 3278 3431 
Q 3278 3131 3139 2831 
Q 3000 2531 2688 2169 
Q 2513 1966 2180 1606 
Q 1847 1247 1166 531 
z
" transform="scale(0.015625)"/>
      </defs>
      <use xlink:href="#DejaVuSansMono-32"/>
      <use xlink:href="#DejaVuSansMono-37" x="60.205078"/>
      <use xlink:href="#DejaVuSansMono-38" x="120.410156"/>
      <use xlink:href="#DejaVuSansMono-54" x="180.615234"/>
      <use xlink:href="#DejaVuSansMono-49" x="240.820312"/>
     </g>
    </g>
    <g id="line2d_61">
     <path d="M 144 480.021875 
L 164 480.021875 
L 184 480.021875 
" style="fill: none; stroke: #bcbd22; stroke-width: 4"/>
    </g>
    <g id="text_24">
     <!-- 283TI -->
     <g transform="translate(200 487.021875) scale(0.2 -0.2)">
      <use xlink:href="#DejaVuSansMono-32"/>
      <use xlink:href="#DejaVuSansMono-38" x="60.205078"/>
      <use xlink:href="#DejaVuSansMono-33" x="120.410156"/>
      <use xlink:href="#DejaVuSansMono-54" x="180.615234"/>
      <use xlink:href="#DejaVuSansMono-49" x="240.820312"/>
     </g>
    </g>
   </g>
  </g>
  <g id="text_25">
   <!-- 1.003µm -->
   <g transform="translate(504 72) scale(0.24 -0.24)">
    <defs>
     <path id="DejaVuSansMono-b5" d="M 609 -1338 
L 609 3500 
L 1184 3500 
L 1184 1325 
Q 1184 881 1371 645 
Q 1559 409 1906 409 
Q 2303 409 2504 675 
Q 2706 941 2706 1459 
L 2706 3500 
L 3284 3500 
L 3284 800 
Q 3284 616 3334 528 
Q 3384 441 3488 441 
Q 3516 441 3561 456 
Q 3606 472 3694 513 
L 3694 50 
Q 3575 -22 3469 -56 
Q 3363 -91 3256 -91 
Q 3063 -91 2945 32 
Q 2828 156 2791 403 
Q 2647 153 2439 31 
Q 2231 -91 1953 -91 
Q 1666 -91 1467 28 
Q 1269 147 1131 397 
L 1131 -1338 
L 609 -1338 
z
" transform="scale(0.015625)"/>
     <path id="DejaVuSansMono-6d" d="M 2113 3144 
Q 2219 3369 2383 3476 
Q 2547 3584 2778 3584 
Q 3200 3584 3373 3257 
Q 3547 2931 3547 2028 
L 3547 0 
L 3022 0 
L 3022 2003 
Q 3022 2744 2939 2923 
Q 2856 3103 2638 3103 
Q 2388 3103 2295 2911 
Q 2203 2719 2203 2003 
L 2203 0 
L 1678 0 
L 1678 2003 
Q 1678 2753 1589 2928 
Q 1500 3103 1269 3103 
Q 1041 3103 952 2911 
Q 863 2719 863 2003 
L 863 0 
L 341 0 
L 341 3500 
L 863 3500 
L 863 3200 
Q 966 3388 1120 3486 
Q 1275 3584 1472 3584 
Q 1709 3584 1867 3475 
Q 2025 3366 2113 3144 
z
" transform="scale(0.015625)"/>
    </defs>
    <use xlink:href="#DejaVuSansMono-31"/>
    <use xlink:href="#DejaVuSansMono-2e" x="60.205078"/>
    <use xlink:href="#DejaVuSansMono-30" x="120.410156"/>
    <use xlink:href="#DejaVuSansMono-30" x="180.615234"/>
    <use xlink:href="#DejaVuSansMono-33" x="240.820312"/>
    <use xlink:href="#DejaVuSansMono-b5" x="301.025391"/>
    <use xlink:href="#DejaVuSansMono-6d" x="361.230469"/>
   </g>
  </g>
 </g>
 <defs>
  <clipPath id="p90f8a76cee">
   <rect x="126" y="86.4" width="781.2" height="554.4"/>
  </clipPath>
 </defs>
</svg>
