<?xml version="1.0" encoding="utf-8" standalone="no"?>
<!DOCTYPE svg PUBLIC "-//W3C//DTD SVG 1.1//EN"
  "http://www.w3.org/Graphics/SVG/1.1/DTD/svg11.dtd">
<svg xmlns:xlink="http://www.w3.org/1999/xlink" width="1152pt" height="733.68pt" viewBox="0 0 1152 733.68" xmlns="http://www.w3.org/2000/svg" version="1.1">
 <metadata>
  <rdf:RDF xmlns:dc="http://purl.org/dc/elements/1.1/" xmlns:cc="http://creativecommons.org/ns#" xmlns:rdf="http://www.w3.org/1999/02/22-rdf-syntax-ns#">
   <cc:Work>
    <dc:type rdf:resource="http://purl.org/dc/dcmitype/StillImage"/>
    <dc:date>2022-05-02T17:34:29.952348</dc:date>
    <dc:format>image/svg+xml</dc:format>
    <dc:creator>
     <cc:Agent>
      <dc:title>Matplotlib v3.5.1, https://matplotlib.org/</dc:title>
     </cc:Agent>
    </dc:creator>
   </cc:Work>
  </rdf:RDF>
 </metadata>
 <defs>
  <style type="text/css">*{stroke-linejoin: round; stroke-linecap: butt}</style>
 </defs>
 <g id="figure_1">
  <g id="patch_1">
   <path d="M 0 733.68 
L 1152 733.68 
L 1152 0 
L 0 0 
z
" style="fill: #ffffff"/>
  </g>
  <g id="axes_1">
   <g id="patch_2">
    <path d="M 144 652.9752 
L 1036.8 652.9752 
L 1036.8 88.0416 
L 144 88.0416 
z
" style="fill: #ffffff"/>
   </g>
   <g id="matplotlib.axis_1">
    <g id="xtick_1">
     <g id="line2d_1">
      <defs>
       <path id="m006792e9e5" d="M 0 0 
L 0 3.5 
" style="stroke: #000000; stroke-width: 0.8"/>
      </defs>
      <g>
       <use xlink:href="#m006792e9e5" x="144" y="652.9752" style="stroke: #000000; stroke-width: 0.8"/>
      </g>
     </g>
     <g id="text_1">
      <!-- 0.000 -->
      <g transform="translate(128.949219 667.626762)scale(0.1 -0.1)">
       <defs>
        <path id="DejaVuSansMono-30" d="M 1509 2344 
Q 1509 2516 1629 2641 
Q 1750 2766 1919 2766 
Q 2094 2766 2219 2641 
Q 2344 2516 2344 2344 
Q 2344 2169 2220 2047 
Q 2097 1925 1919 1925 
Q 1744 1925 1626 2044 
Q 1509 2163 1509 2344 
z
M 1925 4250 
Q 1484 4250 1267 3775 
Q 1050 3300 1050 2328 
Q 1050 1359 1267 884 
Q 1484 409 1925 409 
Q 2369 409 2586 884 
Q 2803 1359 2803 2328 
Q 2803 3300 2586 3775 
Q 2369 4250 1925 4250 
z
M 1925 4750 
Q 2672 4750 3055 4137 
Q 3438 3525 3438 2328 
Q 3438 1134 3055 521 
Q 2672 -91 1925 -91 
Q 1178 -91 797 521 
Q 416 1134 416 2328 
Q 416 3525 797 4137 
Q 1178 4750 1925 4750 
z
" transform="scale(0.015625)"/>
        <path id="DejaVuSansMono-2e" d="M 1528 953 
L 2316 953 
L 2316 0 
L 1528 0 
L 1528 953 
z
" transform="scale(0.015625)"/>
       </defs>
       <use xlink:href="#DejaVuSansMono-30"/>
       <use xlink:href="#DejaVuSansMono-2e" x="60.205078"/>
       <use xlink:href="#DejaVuSansMono-30" x="120.410156"/>
       <use xlink:href="#DejaVuSansMono-30" x="180.615234"/>
       <use xlink:href="#DejaVuSansMono-30" x="240.820312"/>
      </g>
     </g>
    </g>
    <g id="xtick_2">
     <g id="line2d_2">
      <g>
       <use xlink:href="#m006792e9e5" x="203.52" y="652.9752" style="stroke: #000000; stroke-width: 0.8"/>
      </g>
     </g>
     <g id="text_2">
      <!-- 0.005 -->
      <g transform="translate(188.469219 667.626762)scale(0.1 -0.1)">
       <defs>
        <path id="DejaVuSansMono-35" d="M 647 4666 
L 3009 4666 
L 3009 4134 
L 1222 4134 
L 1222 2988 
Q 1356 3038 1492 3061 
Q 1628 3084 1766 3084 
Q 2491 3084 2916 2656 
Q 3341 2228 3341 1497 
Q 3341 759 2895 334 
Q 2450 -91 1678 -91 
Q 1306 -91 998 -41 
Q 691 9 447 109 
L 447 750 
Q 734 594 1025 517 
Q 1316 441 1619 441 
Q 2141 441 2423 716 
Q 2706 991 2706 1497 
Q 2706 1997 2414 2275 
Q 2122 2553 1600 2553 
Q 1347 2553 1106 2495 
Q 866 2438 647 2322 
L 647 4666 
z
" transform="scale(0.015625)"/>
       </defs>
       <use xlink:href="#DejaVuSansMono-30"/>
       <use xlink:href="#DejaVuSansMono-2e" x="60.205078"/>
       <use xlink:href="#DejaVuSansMono-30" x="120.410156"/>
       <use xlink:href="#DejaVuSansMono-30" x="180.615234"/>
       <use xlink:href="#DejaVuSansMono-35" x="240.820312"/>
      </g>
     </g>
    </g>
    <g id="xtick_3">
     <g id="line2d_3">
      <g>
       <use xlink:href="#m006792e9e5" x="263.04" y="652.9752" style="stroke: #000000; stroke-width: 0.8"/>
      </g>
     </g>
     <g id="text_3">
      <!-- 0.010 -->
      <g transform="translate(247.989219 667.626762)scale(0.1 -0.1)">
       <defs>
        <path id="DejaVuSansMono-31" d="M 844 531 
L 1825 531 
L 1825 4097 
L 769 3859 
L 769 4434 
L 1819 4666 
L 2450 4666 
L 2450 531 
L 3419 531 
L 3419 0 
L 844 0 
L 844 531 
z
" transform="scale(0.015625)"/>
       </defs>
       <use xlink:href="#DejaVuSansMono-30"/>
       <use xlink:href="#DejaVuSansMono-2e" x="60.205078"/>
       <use xlink:href="#DejaVuSansMono-30" x="120.410156"/>
       <use xlink:href="#DejaVuSansMono-31" x="180.615234"/>
       <use xlink:href="#DejaVuSansMono-30" x="240.820312"/>
      </g>
     </g>
    </g>
    <g id="xtick_4">
     <g id="line2d_4">
      <g>
       <use xlink:href="#m006792e9e5" x="322.56" y="652.9752" style="stroke: #000000; stroke-width: 0.8"/>
      </g>
     </g>
     <g id="text_4">
      <!-- 0.015 -->
      <g transform="translate(307.509219 667.626762)scale(0.1 -0.1)">
       <use xlink:href="#DejaVuSansMono-30"/>
       <use xlink:href="#DejaVuSansMono-2e" x="60.205078"/>
       <use xlink:href="#DejaVuSansMono-30" x="120.410156"/>
       <use xlink:href="#DejaVuSansMono-31" x="180.615234"/>
       <use xlink:href="#DejaVuSansMono-35" x="240.820312"/>
      </g>
     </g>
    </g>
    <g id="xtick_5">
     <g id="line2d_5">
      <g>
       <use xlink:href="#m006792e9e5" x="382.08" y="652.9752" style="stroke: #000000; stroke-width: 0.8"/>
      </g>
     </g>
     <g id="text_5">
      <!-- 0.020 -->
      <g transform="translate(367.029219 667.626762)scale(0.1 -0.1)">
       <defs>
        <path id="DejaVuSansMono-32" d="M 1166 531 
L 3309 531 
L 3309 0 
L 475 0 
L 475 531 
Q 1059 1147 1496 1619 
Q 1934 2091 2100 2284 
Q 2413 2666 2522 2902 
Q 2631 3138 2631 3384 
Q 2631 3775 2401 3997 
Q 2172 4219 1772 4219 
Q 1488 4219 1175 4116 
Q 863 4013 513 3803 
L 513 4441 
Q 834 4594 1145 4672 
Q 1456 4750 1759 4750 
Q 2444 4750 2861 4386 
Q 3278 4022 3278 3431 
Q 3278 3131 3139 2831 
Q 3000 2531 2688 2169 
Q 2513 1966 2180 1606 
Q 1847 1247 1166 531 
z
" transform="scale(0.015625)"/>
       </defs>
       <use xlink:href="#DejaVuSansMono-30"/>
       <use xlink:href="#DejaVuSansMono-2e" x="60.205078"/>
       <use xlink:href="#DejaVuSansMono-30" x="120.410156"/>
       <use xlink:href="#DejaVuSansMono-32" x="180.615234"/>
       <use xlink:href="#DejaVuSansMono-30" x="240.820312"/>
      </g>
     </g>
    </g>
    <g id="xtick_6">
     <g id="line2d_6">
      <g>
       <use xlink:href="#m006792e9e5" x="441.6" y="652.9752" style="stroke: #000000; stroke-width: 0.8"/>
      </g>
     </g>
     <g id="text_6">
      <!-- 0.025 -->
      <g transform="translate(426.549219 667.626762)scale(0.1 -0.1)">
       <use xlink:href="#DejaVuSansMono-30"/>
       <use xlink:href="#DejaVuSansMono-2e" x="60.205078"/>
       <use xlink:href="#DejaVuSansMono-30" x="120.410156"/>
       <use xlink:href="#DejaVuSansMono-32" x="180.615234"/>
       <use xlink:href="#DejaVuSansMono-35" x="240.820312"/>
      </g>
     </g>
    </g>
    <g id="xtick_7">
     <g id="line2d_7">
      <g>
       <use xlink:href="#m006792e9e5" x="501.12" y="652.9752" style="stroke: #000000; stroke-width: 0.8"/>
      </g>
     </g>
     <g id="text_7">
      <!-- 0.030 -->
      <g transform="translate(486.069219 667.626762)scale(0.1 -0.1)">
       <defs>
        <path id="DejaVuSansMono-33" d="M 2425 2497 
Q 2884 2375 3128 2064 
Q 3372 1753 3372 1288 
Q 3372 644 2939 276 
Q 2506 -91 1741 -91 
Q 1419 -91 1084 -31 
Q 750 28 428 141 
L 428 769 
Q 747 603 1056 522 
Q 1366 441 1672 441 
Q 2191 441 2469 675 
Q 2747 909 2747 1350 
Q 2747 1756 2469 1995 
Q 2191 2234 1716 2234 
L 1234 2234 
L 1234 2753 
L 1716 2753 
Q 2150 2753 2394 2943 
Q 2638 3134 2638 3475 
Q 2638 3834 2411 4026 
Q 2184 4219 1766 4219 
Q 1488 4219 1191 4156 
Q 894 4094 569 3969 
L 569 4550 
Q 947 4650 1242 4700 
Q 1538 4750 1766 4750 
Q 2447 4750 2855 4408 
Q 3263 4066 3263 3500 
Q 3263 3116 3048 2859 
Q 2834 2603 2425 2497 
z
" transform="scale(0.015625)"/>
       </defs>
       <use xlink:href="#DejaVuSansMono-30"/>
       <use xlink:href="#DejaVuSansMono-2e" x="60.205078"/>
       <use xlink:href="#DejaVuSansMono-30" x="120.410156"/>
       <use xlink:href="#DejaVuSansMono-33" x="180.615234"/>
       <use xlink:href="#DejaVuSansMono-30" x="240.820312"/>
      </g>
     </g>
    </g>
    <g id="xtick_8">
     <g id="line2d_8">
      <g>
       <use xlink:href="#m006792e9e5" x="560.64" y="652.9752" style="stroke: #000000; stroke-width: 0.8"/>
      </g>
     </g>
     <g id="text_8">
      <!-- 0.035 -->
      <g transform="translate(545.589219 667.626762)scale(0.1 -0.1)">
       <use xlink:href="#DejaVuSansMono-30"/>
       <use xlink:href="#DejaVuSansMono-2e" x="60.205078"/>
       <use xlink:href="#DejaVuSansMono-30" x="120.410156"/>
       <use xlink:href="#DejaVuSansMono-33" x="180.615234"/>
       <use xlink:href="#DejaVuSansMono-35" x="240.820312"/>
      </g>
     </g>
    </g>
    <g id="xtick_9">
     <g id="line2d_9">
      <g>
       <use xlink:href="#m006792e9e5" x="620.16" y="652.9752" style="stroke: #000000; stroke-width: 0.8"/>
      </g>
     </g>
     <g id="text_9">
      <!-- 0.040 -->
      <g transform="translate(605.109219 667.626762)scale(0.1 -0.1)">
       <defs>
        <path id="DejaVuSansMono-34" d="M 2297 4091 
L 825 1625 
L 2297 1625 
L 2297 4091 
z
M 2194 4666 
L 2925 4666 
L 2925 1625 
L 3547 1625 
L 3547 1113 
L 2925 1113 
L 2925 0 
L 2297 0 
L 2297 1113 
L 319 1113 
L 319 1709 
L 2194 4666 
z
" transform="scale(0.015625)"/>
       </defs>
       <use xlink:href="#DejaVuSansMono-30"/>
       <use xlink:href="#DejaVuSansMono-2e" x="60.205078"/>
       <use xlink:href="#DejaVuSansMono-30" x="120.410156"/>
       <use xlink:href="#DejaVuSansMono-34" x="180.615234"/>
       <use xlink:href="#DejaVuSansMono-30" x="240.820312"/>
      </g>
     </g>
    </g>
    <g id="xtick_10">
     <g id="line2d_10">
      <g>
       <use xlink:href="#m006792e9e5" x="679.68" y="652.9752" style="stroke: #000000; stroke-width: 0.8"/>
      </g>
     </g>
     <g id="text_10">
      <!-- 0.045 -->
      <g transform="translate(664.629219 667.626762)scale(0.1 -0.1)">
       <use xlink:href="#DejaVuSansMono-30"/>
       <use xlink:href="#DejaVuSansMono-2e" x="60.205078"/>
       <use xlink:href="#DejaVuSansMono-30" x="120.410156"/>
       <use xlink:href="#DejaVuSansMono-34" x="180.615234"/>
       <use xlink:href="#DejaVuSansMono-35" x="240.820312"/>
      </g>
     </g>
    </g>
    <g id="xtick_11">
     <g id="line2d_11">
      <g>
       <use xlink:href="#m006792e9e5" x="739.2" y="652.9752" style="stroke: #000000; stroke-width: 0.8"/>
      </g>
     </g>
     <g id="text_11">
      <!-- 0.050 -->
      <g transform="translate(724.149219 667.626762)scale(0.1 -0.1)">
       <use xlink:href="#DejaVuSansMono-30"/>
       <use xlink:href="#DejaVuSansMono-2e" x="60.205078"/>
       <use xlink:href="#DejaVuSansMono-30" x="120.410156"/>
       <use xlink:href="#DejaVuSansMono-35" x="180.615234"/>
       <use xlink:href="#DejaVuSansMono-30" x="240.820312"/>
      </g>
     </g>
    </g>
    <g id="xtick_12">
     <g id="line2d_12">
      <g>
       <use xlink:href="#m006792e9e5" x="798.72" y="652.9752" style="stroke: #000000; stroke-width: 0.8"/>
      </g>
     </g>
     <g id="text_12">
      <!-- 0.055 -->
      <g transform="translate(783.669219 667.626762)scale(0.1 -0.1)">
       <use xlink:href="#DejaVuSansMono-30"/>
       <use xlink:href="#DejaVuSansMono-2e" x="60.205078"/>
       <use xlink:href="#DejaVuSansMono-30" x="120.410156"/>
       <use xlink:href="#DejaVuSansMono-35" x="180.615234"/>
       <use xlink:href="#DejaVuSansMono-35" x="240.820312"/>
      </g>
     </g>
    </g>
    <g id="xtick_13">
     <g id="line2d_13">
      <g>
       <use xlink:href="#m006792e9e5" x="858.24" y="652.9752" style="stroke: #000000; stroke-width: 0.8"/>
      </g>
     </g>
     <g id="text_13">
      <!-- 0.060 -->
      <g transform="translate(843.189219 667.626762)scale(0.1 -0.1)">
       <defs>
        <path id="DejaVuSansMono-36" d="M 3097 4563 
L 3097 3981 
Q 2900 4097 2678 4158 
Q 2456 4219 2216 4219 
Q 1616 4219 1306 3767 
Q 997 3316 997 2438 
Q 1147 2750 1412 2917 
Q 1678 3084 2022 3084 
Q 2697 3084 3067 2670 
Q 3438 2256 3438 1497 
Q 3438 741 3056 325 
Q 2675 -91 1984 -91 
Q 1172 -91 794 492 
Q 416 1075 416 2328 
Q 416 3509 870 4129 
Q 1325 4750 2188 4750 
Q 2419 4750 2650 4701 
Q 2881 4653 3097 4563 
z
M 1972 2591 
Q 1569 2591 1337 2300 
Q 1106 2009 1106 1497 
Q 1106 984 1337 693 
Q 1569 403 1972 403 
Q 2391 403 2603 679 
Q 2816 956 2816 1497 
Q 2816 2041 2603 2316 
Q 2391 2591 1972 2591 
z
" transform="scale(0.015625)"/>
       </defs>
       <use xlink:href="#DejaVuSansMono-30"/>
       <use xlink:href="#DejaVuSansMono-2e" x="60.205078"/>
       <use xlink:href="#DejaVuSansMono-30" x="120.410156"/>
       <use xlink:href="#DejaVuSansMono-36" x="180.615234"/>
       <use xlink:href="#DejaVuSansMono-30" x="240.820312"/>
      </g>
     </g>
    </g>
    <g id="xtick_14">
     <g id="line2d_14">
      <g>
       <use xlink:href="#m006792e9e5" x="917.76" y="652.9752" style="stroke: #000000; stroke-width: 0.8"/>
      </g>
     </g>
     <g id="text_14">
      <!-- 0.065 -->
      <g transform="translate(902.709219 667.626762)scale(0.1 -0.1)">
       <use xlink:href="#DejaVuSansMono-30"/>
       <use xlink:href="#DejaVuSansMono-2e" x="60.205078"/>
       <use xlink:href="#DejaVuSansMono-30" x="120.410156"/>
       <use xlink:href="#DejaVuSansMono-36" x="180.615234"/>
       <use xlink:href="#DejaVuSansMono-35" x="240.820312"/>
      </g>
     </g>
    </g>
    <g id="xtick_15">
     <g id="line2d_15">
      <g>
       <use xlink:href="#m006792e9e5" x="977.28" y="652.9752" style="stroke: #000000; stroke-width: 0.8"/>
      </g>
     </g>
     <g id="text_15">
      <!-- 0.070 -->
      <g transform="translate(962.229219 667.626762)scale(0.1 -0.1)">
       <defs>
        <path id="DejaVuSansMono-37" d="M 434 4666 
L 3372 4666 
L 3372 4397 
L 1703 0 
L 1044 0 
L 2669 4134 
L 434 4134 
L 434 4666 
z
" transform="scale(0.015625)"/>
       </defs>
       <use xlink:href="#DejaVuSansMono-30"/>
       <use xlink:href="#DejaVuSansMono-2e" x="60.205078"/>
       <use xlink:href="#DejaVuSansMono-30" x="120.410156"/>
       <use xlink:href="#DejaVuSansMono-37" x="180.615234"/>
       <use xlink:href="#DejaVuSansMono-30" x="240.820312"/>
      </g>
     </g>
    </g>
    <g id="xtick_16">
     <g id="line2d_16">
      <g>
       <use xlink:href="#m006792e9e5" x="1036.8" y="652.9752" style="stroke: #000000; stroke-width: 0.8"/>
      </g>
     </g>
     <g id="text_16">
      <!-- 0.075 -->
      <g transform="translate(1021.749219 667.626762)scale(0.1 -0.1)">
       <use xlink:href="#DejaVuSansMono-30"/>
       <use xlink:href="#DejaVuSansMono-2e" x="60.205078"/>
       <use xlink:href="#DejaVuSansMono-30" x="120.410156"/>
       <use xlink:href="#DejaVuSansMono-37" x="180.615234"/>
       <use xlink:href="#DejaVuSansMono-35" x="240.820312"/>
      </g>
     </g>
    </g>
    <g id="text_17">
     <!-- I/F -->
     <g transform="translate(579.563437 682.888325)scale(0.12 -0.12)">
      <defs>
       <path id="DejaVuSansMono-49" d="M 628 4666 
L 3219 4666 
L 3219 4134 
L 2241 4134 
L 2241 531 
L 3219 531 
L 3219 0 
L 628 0 
L 628 531 
L 1606 531 
L 1606 4134 
L 628 4134 
L 628 4666 
z
" transform="scale(0.015625)"/>
       <path id="DejaVuSansMono-2f" d="M 2778 4666 
L 3372 4666 
L 916 -594 
L 319 -594 
L 2778 4666 
z
" transform="scale(0.015625)"/>
       <path id="DejaVuSansMono-46" d="M 728 4666 
L 3475 4666 
L 3475 4134 
L 1363 4134 
L 1363 2759 
L 3278 2759 
L 3278 2228 
L 1363 2228 
L 1363 0 
L 728 0 
L 728 4666 
z
" transform="scale(0.015625)"/>
      </defs>
      <use xlink:href="#DejaVuSansMono-49"/>
      <use xlink:href="#DejaVuSansMono-2f" x="60.205078"/>
      <use xlink:href="#DejaVuSansMono-46" x="120.410156"/>
     </g>
    </g>
   </g>
   <g id="matplotlib.axis_2">
    <g id="ytick_1">
     <g id="line2d_17">
      <defs>
       <path id="ma5c9d1112d" d="M 0 0 
L -3.5 0 
" style="stroke: #000000; stroke-width: 0.8"/>
      </defs>
      <g>
       <use xlink:href="#ma5c9d1112d" x="144" y="621.59" style="stroke: #000000; stroke-width: 0.8"/>
      </g>
     </g>
     <g id="text_18">
      <!-- −80 -->
      <g transform="translate(118.939063 625.415781)scale(0.1 -0.1)">
       <defs>
        <path id="DejaVuSansMono-2212" d="M 275 2272 
L 3578 2272 
L 3578 1741 
L 275 1741 
L 275 2272 
z
" transform="scale(0.015625)"/>
        <path id="DejaVuSansMono-38" d="M 1925 2216 
Q 1503 2216 1273 1980 
Q 1044 1744 1044 1313 
Q 1044 881 1276 642 
Q 1509 403 1925 403 
Q 2350 403 2579 639 
Q 2809 875 2809 1313 
Q 2809 1741 2576 1978 
Q 2344 2216 1925 2216 
z
M 1375 2478 
Q 972 2581 745 2862 
Q 519 3144 519 3541 
Q 519 4097 897 4423 
Q 1275 4750 1925 4750 
Q 2578 4750 2956 4423 
Q 3334 4097 3334 3541 
Q 3334 3144 3107 2862 
Q 2881 2581 2478 2478 
Q 2947 2375 3195 2062 
Q 3444 1750 3444 1253 
Q 3444 622 3041 265 
Q 2638 -91 1925 -91 
Q 1213 -91 811 264 
Q 409 619 409 1247 
Q 409 1747 657 2061 
Q 906 2375 1375 2478 
z
M 1147 3481 
Q 1147 3106 1347 2909 
Q 1547 2713 1925 2713 
Q 2306 2713 2506 2909 
Q 2706 3106 2706 3481 
Q 2706 3863 2507 4063 
Q 2309 4263 1925 4263 
Q 1547 4263 1347 4061 
Q 1147 3859 1147 3481 
z
" transform="scale(0.015625)"/>
       </defs>
       <use xlink:href="#DejaVuSansMono-2212"/>
       <use xlink:href="#DejaVuSansMono-38" x="60.205078"/>
       <use xlink:href="#DejaVuSansMono-30" x="120.410156"/>
      </g>
     </g>
    </g>
    <g id="ytick_2">
     <g id="line2d_18">
      <g>
       <use xlink:href="#ma5c9d1112d" x="144" y="558.8196" style="stroke: #000000; stroke-width: 0.8"/>
      </g>
     </g>
     <g id="text_19">
      <!-- −60 -->
      <g transform="translate(118.939063 562.645381)scale(0.1 -0.1)">
       <use xlink:href="#DejaVuSansMono-2212"/>
       <use xlink:href="#DejaVuSansMono-36" x="60.205078"/>
       <use xlink:href="#DejaVuSansMono-30" x="120.410156"/>
      </g>
     </g>
    </g>
    <g id="ytick_3">
     <g id="line2d_19">
      <g>
       <use xlink:href="#ma5c9d1112d" x="144" y="496.0492" style="stroke: #000000; stroke-width: 0.8"/>
      </g>
     </g>
     <g id="text_20">
      <!-- −40 -->
      <g transform="translate(118.939063 499.874981)scale(0.1 -0.1)">
       <use xlink:href="#DejaVuSansMono-2212"/>
       <use xlink:href="#DejaVuSansMono-34" x="60.205078"/>
       <use xlink:href="#DejaVuSansMono-30" x="120.410156"/>
      </g>
     </g>
    </g>
    <g id="ytick_4">
     <g id="line2d_20">
      <g>
       <use xlink:href="#ma5c9d1112d" x="144" y="433.2788" style="stroke: #000000; stroke-width: 0.8"/>
      </g>
     </g>
     <g id="text_21">
      <!-- −20 -->
      <g transform="translate(118.939063 437.104581)scale(0.1 -0.1)">
       <use xlink:href="#DejaVuSansMono-2212"/>
       <use xlink:href="#DejaVuSansMono-32" x="60.205078"/>
       <use xlink:href="#DejaVuSansMono-30" x="120.410156"/>
      </g>
     </g>
    </g>
    <g id="ytick_5">
     <g id="line2d_21">
      <g>
       <use xlink:href="#ma5c9d1112d" x="144" y="370.5084" style="stroke: #000000; stroke-width: 0.8"/>
      </g>
     </g>
     <g id="text_22">
      <!-- 0 -->
      <g transform="translate(130.979688 374.334181)scale(0.1 -0.1)">
       <use xlink:href="#DejaVuSansMono-30"/>
      </g>
     </g>
    </g>
    <g id="ytick_6">
     <g id="line2d_22">
      <g>
       <use xlink:href="#ma5c9d1112d" x="144" y="307.738" style="stroke: #000000; stroke-width: 0.8"/>
      </g>
     </g>
     <g id="text_23">
      <!-- 20 -->
      <g transform="translate(124.959375 311.563781)scale(0.1 -0.1)">
       <use xlink:href="#DejaVuSansMono-32"/>
       <use xlink:href="#DejaVuSansMono-30" x="60.205078"/>
      </g>
     </g>
    </g>
    <g id="ytick_7">
     <g id="line2d_23">
      <g>
       <use xlink:href="#ma5c9d1112d" x="144" y="244.9676" style="stroke: #000000; stroke-width: 0.8"/>
      </g>
     </g>
     <g id="text_24">
      <!-- 40 -->
      <g transform="translate(124.959375 248.793381)scale(0.1 -0.1)">
       <use xlink:href="#DejaVuSansMono-34"/>
       <use xlink:href="#DejaVuSansMono-30" x="60.205078"/>
      </g>
     </g>
    </g>
    <g id="ytick_8">
     <g id="line2d_24">
      <g>
       <use xlink:href="#ma5c9d1112d" x="144" y="182.1972" style="stroke: #000000; stroke-width: 0.8"/>
      </g>
     </g>
     <g id="text_25">
      <!-- 60 -->
      <g transform="translate(124.959375 186.022981)scale(0.1 -0.1)">
       <use xlink:href="#DejaVuSansMono-36"/>
       <use xlink:href="#DejaVuSansMono-30" x="60.205078"/>
      </g>
     </g>
    </g>
    <g id="ytick_9">
     <g id="line2d_25">
      <g>
       <use xlink:href="#ma5c9d1112d" x="144" y="119.4268" style="stroke: #000000; stroke-width: 0.8"/>
      </g>
     </g>
     <g id="text_26">
      <!-- 80 -->
      <g transform="translate(124.959375 123.252581)scale(0.1 -0.1)">
       <use xlink:href="#DejaVuSansMono-38"/>
       <use xlink:href="#DejaVuSansMono-30" x="60.205078"/>
      </g>
     </g>
    </g>
    <g id="text_27">
     <!-- Latitude (°) -->
     <g transform="translate(112.443438 413.85465)rotate(-90)scale(0.12 -0.12)">
      <defs>
       <path id="DejaVuSansMono-4c" d="M 672 4666 
L 1306 4666 
L 1306 531 
L 3559 531 
L 3559 0 
L 672 0 
L 672 4666 
z
" transform="scale(0.015625)"/>
       <path id="DejaVuSansMono-61" d="M 2194 1759 
L 2003 1759 
Q 1500 1759 1245 1582 
Q 991 1406 991 1056 
Q 991 741 1181 566 
Q 1372 391 1709 391 
Q 2184 391 2456 720 
Q 2728 1050 2731 1631 
L 2731 1759 
L 2194 1759 
z
M 3309 1997 
L 3309 0 
L 2731 0 
L 2731 519 
Q 2547 206 2267 57 
Q 1988 -91 1588 -91 
Q 1053 -91 734 211 
Q 416 513 416 1019 
Q 416 1603 808 1906 
Q 1200 2209 1959 2209 
L 2731 2209 
L 2731 2300 
Q 2728 2719 2518 2908 
Q 2309 3097 1850 3097 
Q 1556 3097 1256 3012 
Q 956 2928 672 2766 
L 672 3341 
Q 991 3463 1283 3523 
Q 1575 3584 1850 3584 
Q 2284 3584 2592 3456 
Q 2900 3328 3091 3072 
Q 3209 2916 3259 2686 
Q 3309 2456 3309 1997 
z
" transform="scale(0.015625)"/>
       <path id="DejaVuSansMono-74" d="M 1919 4494 
L 1919 3500 
L 3225 3500 
L 3225 3053 
L 1919 3053 
L 1919 1153 
Q 1919 766 2066 612 
Q 2213 459 2578 459 
L 3225 459 
L 3225 0 
L 2522 0 
Q 1875 0 1609 259 
Q 1344 519 1344 1153 
L 1344 3053 
L 409 3053 
L 409 3500 
L 1344 3500 
L 1344 4494 
L 1919 4494 
z
" transform="scale(0.015625)"/>
       <path id="DejaVuSansMono-69" d="M 800 3500 
L 2272 3500 
L 2272 447 
L 3413 447 
L 3413 0 
L 556 0 
L 556 447 
L 1697 447 
L 1697 3053 
L 800 3053 
L 800 3500 
z
M 1697 4863 
L 2272 4863 
L 2272 4134 
L 1697 4134 
L 1697 4863 
z
" transform="scale(0.015625)"/>
       <path id="DejaVuSansMono-75" d="M 609 1325 
L 609 3494 
L 1184 3494 
L 1184 1325 
Q 1184 853 1351 631 
Q 1519 409 1869 409 
Q 2275 409 2490 695 
Q 2706 981 2706 1516 
L 2706 3494 
L 3284 3494 
L 3284 0 
L 2706 0 
L 2706 525 
Q 2553 222 2289 65 
Q 2025 -91 1672 -91 
Q 1134 -91 871 261 
Q 609 613 609 1325 
z
" transform="scale(0.015625)"/>
       <path id="DejaVuSansMono-64" d="M 2681 3053 
L 2681 4863 
L 3256 4863 
L 3256 0 
L 2681 0 
L 2681 441 
Q 2538 181 2298 45 
Q 2059 -91 1747 -91 
Q 1113 -91 748 401 
Q 384 894 384 1759 
Q 384 2613 750 3098 
Q 1116 3584 1747 3584 
Q 2063 3584 2303 3448 
Q 2544 3313 2681 3053 
z
M 991 1747 
Q 991 1078 1203 737 
Q 1416 397 1831 397 
Q 2247 397 2464 740 
Q 2681 1084 2681 1747 
Q 2681 2413 2464 2755 
Q 2247 3097 1831 3097 
Q 1416 3097 1203 2756 
Q 991 2416 991 1747 
z
" transform="scale(0.015625)"/>
       <path id="DejaVuSansMono-65" d="M 3475 1894 
L 3475 1613 
L 984 1613 
L 984 1594 
Q 984 1022 1282 709 
Q 1581 397 2125 397 
Q 2400 397 2700 484 
Q 3000 572 3341 750 
L 3341 178 
Q 3013 44 2708 -23 
Q 2403 -91 2119 -91 
Q 1303 -91 843 398 
Q 384 888 384 1747 
Q 384 2584 834 3084 
Q 1284 3584 2034 3584 
Q 2703 3584 3089 3131 
Q 3475 2678 3475 1894 
z
M 2900 2063 
Q 2888 2569 2661 2833 
Q 2434 3097 2009 3097 
Q 1594 3097 1325 2822 
Q 1056 2547 1006 2059 
L 2900 2063 
z
" transform="scale(0.015625)"/>
       <path id="DejaVuSansMono-20" transform="scale(0.015625)"/>
       <path id="DejaVuSansMono-28" d="M 2766 4856 
Q 2350 4144 2145 3436 
Q 1941 2728 1941 2009 
Q 1941 1294 2145 584 
Q 2350 -125 2766 -844 
L 2266 -844 
Q 1794 -100 1562 604 
Q 1331 1309 1331 2009 
Q 1331 2706 1562 3412 
Q 1794 4119 2266 4856 
L 2766 4856 
z
" transform="scale(0.015625)"/>
       <path id="DejaVuSansMono-b0" d="M 1925 4750 
Q 2128 4750 2311 4673 
Q 2494 4597 2631 4453 
Q 2772 4313 2845 4134 
Q 2919 3956 2919 3750 
Q 2919 3338 2628 3052 
Q 2338 2766 1919 2766 
Q 1497 2766 1215 3047 
Q 934 3328 934 3750 
Q 934 4169 1221 4459 
Q 1509 4750 1925 4750 
z
M 1925 4347 
Q 1678 4347 1504 4173 
Q 1331 4000 1331 3750 
Q 1331 3500 1501 3331 
Q 1672 3163 1919 3163 
Q 2169 3163 2345 3334 
Q 2522 3506 2522 3750 
Q 2522 3997 2347 4172 
Q 2172 4347 1925 4347 
z
" transform="scale(0.015625)"/>
       <path id="DejaVuSansMono-29" d="M 1088 4856 
L 1588 4856 
Q 2059 4119 2290 3412 
Q 2522 2706 2522 2009 
Q 2522 1306 2290 600 
Q 2059 -106 1588 -844 
L 1088 -844 
Q 1503 -119 1708 590 
Q 1913 1300 1913 2009 
Q 1913 2722 1708 3431 
Q 1503 4141 1088 4856 
z
" transform="scale(0.015625)"/>
      </defs>
      <use xlink:href="#DejaVuSansMono-4c"/>
      <use xlink:href="#DejaVuSansMono-61" x="60.205078"/>
      <use xlink:href="#DejaVuSansMono-74" x="120.410156"/>
      <use xlink:href="#DejaVuSansMono-69" x="180.615234"/>
      <use xlink:href="#DejaVuSansMono-74" x="240.820312"/>
      <use xlink:href="#DejaVuSansMono-75" x="301.025391"/>
      <use xlink:href="#DejaVuSansMono-64" x="361.230469"/>
      <use xlink:href="#DejaVuSansMono-65" x="421.435547"/>
      <use xlink:href="#DejaVuSansMono-20" x="481.640625"/>
      <use xlink:href="#DejaVuSansMono-28" x="541.845703"/>
      <use xlink:href="#DejaVuSansMono-b0" x="602.050781"/>
      <use xlink:href="#DejaVuSansMono-29" x="662.255859"/>
     </g>
    </g>
   </g>
   <g id="line2d_26">
    <path d="M 0 0 
" clip-path="url(#p557da7e0c0)" style="fill: none; stroke: #bf1a00; stroke-width: 1.5; stroke-linecap: square"/>
   </g>
   <g id="line2d_27">
    <path d="M 0 0 
" clip-path="url(#p557da7e0c0)" style="fill: none; stroke-dasharray: 1.5,1.5; stroke-dashoffset: 0; stroke: #bf1a00; stroke-width: 1.5"/>
   </g>
   <g id="line2d_28">
    <path d="M 0 0 
" clip-path="url(#p557da7e0c0)" style="fill: none; stroke-dasharray: 7.5,1.5; stroke-dashoffset: 0; stroke: #bf1a00; stroke-width: 1.5"/>
   </g>
   <g id="line2d_29">
    <path d="M 777.475405 146.10422 
L 777.475405 150.812 
L 769.665878 152.38126 
L 776.485783 153.95052 
L 776.485783 155.51978 
L 778.02077 157.08904 
L 777.960149 158.6583 
L 779.13833 160.22756 
L 782.645865 161.79682 
L 783.945199 163.36608 
L 784.026042 164.93534 
L 803.947131 166.5046 
L 805.192585 168.07386 
L 808.033646 169.64312 
L 808.949255 171.21238 
L 809.003135 172.78164 
L 809.635906 174.3509 
L 809.487835 177.48942 
L 810.039897 179.05868 
L 810.012979 180.62794 
L 810.490939 182.1972 
L 810.322646 183.76646 
L 806.316885 185.33572 
L 806.626552 186.90498 
L 806.491918 188.47424 
L 804.849259 190.0435 
L 804.855955 191.61276 
L 803.623939 193.18202 
L 803.64416 194.75128 
L 802.950724 196.32054 
L 802.021634 199.45906 
L 801.00505 201.02832 
L 800.513609 202.59758 
L 799.382568 204.16684 
L 798.938178 205.7361 
L 797.046428 207.30536 
L 796.770375 208.87462 
L 796.72328 210.44388 
L 793.363815 212.01314 
L 794.010156 213.5824 
L 793.289758 215.15166 
L 793.50519 216.72092 
L 788.758897 218.29018 
L 788.725239 221.4287 
L 773.866894 222.99796 
L 774.661305 224.56722 
L 773.698557 226.13648 
L 768.864726 227.70574 
L 768.642553 232.41352 
L 756.780125 233.98278 
L 756.611833 235.55204 
L 756.894537 237.1213 
L 754.901812 238.69056 
L 754.403631 240.25982 
L 755.938574 241.82908 
L 754.194895 243.39834 
L 754.686336 244.9676 
L 754.255471 246.53686 
L 752.942701 248.10612 
L 750.875829 249.67538 
L 749.455298 251.24464 
L 749.051352 252.8139 
L 747.32785 254.38316 
L 744.830159 255.95242 
L 744.177166 257.52168 
L 741.228344 260.6602 
L 740.824398 262.22946 
L 739.201916 263.79872 
L 738.239212 265.36798 
L 737.996817 266.93724 
L 737.242805 268.5065 
L 737.895842 270.07576 
L 734.489237 273.21428 
L 732.523386 274.78354 
L 732.254117 277.92206 
L 732.072299 279.49132 
L 730.645072 281.06058 
L 730.052656 282.62984 
L 728.578245 284.1991 
L 726.302682 285.76836 
L 722.519138 287.33762 
L 722.593151 288.90688 
L 720.835991 290.47614 
L 718.183488 292.0454 
L 717.644863 293.61466 
L 713.706419 295.18392 
L 712.629258 296.75318 
L 709.579461 298.32244 
L 709.215913 299.8917 
L 705.950728 303.03022 
L 704.988024 304.59948 
L 701.143815 306.16874 
L 700.147452 307.738 
L 698.450868 309.30726 
L 695.522312 310.87652 
L 694.579785 312.44578 
L 693.475662 314.01504 
L 692.762049 315.5843 
L 687.685823 317.15356 
L 687.005868 318.72282 
L 685.336246 320.29208 
L 682.522103 321.86134 
L 681.842148 323.4306 
L 681.364144 324.99986 
L 677.600777 326.56912 
L 676.725523 328.13838 
L 675.33191 329.70764 
L 673.507477 331.2769 
L 670.040297 332.84616 
L 667.583004 335.98468 
L 663.482964 337.55394 
L 662.493297 339.1232 
L 661.207445 340.69246 
L 655.552239 342.26172 
L 655.242572 343.83098 
L 652.556366 346.9695 
L 648.362091 348.53876 
L 645.595087 351.67728 
L 640.417886 353.24654 
L 639.906223 354.8158 
L 638.553054 356.38506 
L 634.796383 357.95432 
L 632.137051 361.09284 
L 630.285656 362.6621 
L 626.414529 364.23136 
L 626.057766 365.80062 
L 624.542956 367.36988 
L 621.452804 368.93914 
L 619.601409 370.5084 
L 618.288594 372.07766 
L 614.727134 373.64692 
L 611.704343 375.21618 
L 611.387891 376.78544 
L 607.557163 378.3547 
L 606.109759 379.92396 
L 602.703155 383.06248 
L 599.889011 384.63174 
L 596.549768 386.201 
L 596.233316 387.77026 
L 593.446179 389.33952 
L 590.24157 390.90878 
L 588.706538 392.47804 
L 582.425258 394.0473 
L 581.482731 395.61656 
L 579.597678 397.18582 
L 579.402423 398.75508 
L 575.423624 400.32434 
L 573.881896 401.8936 
L 572.885533 403.46286 
L 568.455604 405.03212 
L 567.405361 406.60138 
L 565.533744 408.17064 
L 561.965588 409.7399 
L 559.488118 411.30916 
L 558.996633 412.87842 
L 557.60302 414.44768 
L 553.651095 416.01694 
L 552.14981 417.5862 
L 549.214469 419.15546 
L 545.208753 420.72472 
L 542.583123 422.29398 
L 542.16574 423.86324 
L 536.362375 425.4325 
L 533.332799 428.57102 
L 531.535329 430.14028 
L 528.680786 431.70954 
L 526.640877 433.2788 
L 526.082075 434.84806 
L 521.773387 436.41732 
L 517.707005 439.55584 
L 511.479561 441.1251 
L 511.041978 442.69436 
L 508.476947 444.26362 
L 507.662314 445.83288 
L 503.340145 447.40214 
L 501.219438 448.9714 
L 499.563275 450.54066 
L 493.080022 452.10992 
L 492.729934 453.67918 
L 488.441401 455.24844 
L 485.647479 456.8177 
L 484.644354 458.38696 
L 481.096397 459.95622 
L 472.97044 463.09474 
L 472.169266 464.664 
L 467.355612 466.23326 
L 463.019984 467.80252 
L 460.879099 469.37178 
L 457.768747 470.94104 
L 451.783675 472.5103 
L 448.356894 474.07956 
L 447.643258 475.64882 
L 438.500695 477.21808 
L 438.184265 478.78734 
L 435.700032 481.92586 
L 432.58294 483.49512 
L 429.061923 485.06438 
L 428.355006 486.63364 
L 423.729888 488.2029 
L 423.494257 489.77216 
L 421.730378 491.34142 
L 418.061224 492.91068 
L 416.162689 494.47994 
L 415.314442 496.0492 
L 415.065329 497.61846 
L 407.632786 499.18772 
L 406.878774 500.75698 
L 405.646735 502.32624 
L 399.116342 503.8955 
L 397.830467 505.46476 
L 391.677103 507.03402 
L 388.418614 508.60328 
L 384.170503 510.17254 
L 382.871147 511.7418 
L 381.753565 513.31106 
L 376.812017 514.88032 
L 375.923349 516.44958 
L 372.301334 518.01884 
L 367.474221 519.5881 
L 365.138104 521.15736 
L 364.754357 522.72662 
L 360.795713 524.29588 
L 358.661547 525.86514 
L 357.624785 527.4344 
L 355.046273 529.00366 
L 351.895522 530.57292 
L 349.411268 532.14218 
L 348.623596 533.71144 
L 346.125883 535.2807 
L 343.958058 536.84996 
L 343.35216 538.41922 
L 337.198751 539.98848 
L 336.559173 541.55774 
L 334.371171 543.127 
L 330.156718 544.69626 
L 327.881166 546.26552 
L 327.423362 547.83478 
L 327.140601 549.40404 
L 320.657337 550.9733 
L 320.845851 552.54256 
L 319.566695 554.11182 
L 314.268319 555.68108 
L 311.555173 557.25034 
L 310.545318 558.8196 
L 306.519368 560.38886 
L 303.186833 561.95812 
L 303.59752 563.52738 
L 301.806712 565.09664 
L 298.016383 566.6659 
L 295.390754 568.23516 
L 295.330166 569.80442 
L 292.967097 571.37368 
L 291.196489 572.94294 
L 290.287621 574.5122 
L 288.012091 576.08146 
L 286.221272 577.65072 
L 284.154434 579.21998 
L 283.898614 580.78924 
L 281.542275 582.3585 
L 278.620426 583.92776 
L 277.36821 585.49702 
L 269.619248 587.06628 
L 270.312696 588.63554 
L 268.373762 590.2048 
L 265.788542 591.77406 
L 264.819075 593.34332 
L 263.351416 594.91258 
L 262.395419 596.48184 
L 260.422838 598.0511 
L 258.955179 599.62036 
L 256.659449 601.18962 
L 255.575526 602.75888 
L 255.636124 604.32814 
L 252.835451 605.8974 
L 252.768134 607.46666 
L 254.5926 609.03592 
L 255.555337 610.60518 
L 252.121837 612.17444 
L 244.117044 613.7437 
L 244.204561 615.31296 
L 245.598174 616.88222 
L 243.194706 618.45148 
L 242.972533 620.02074 
L 243.9218 621.59 
L 248.095865 623.15926 
L 243.10046 624.72852 
L 243.443808 626.29778 
L 239.512104 627.86704 
L 239.296661 629.4363 
L 241.06055 631.00556 
L 240.373844 632.57482 
L 235.237047 634.14408 
L 235.021609 635.71334 
L 233.863645 637.2826 
L 218.466719 638.85186 
L 219.415981 640.42112 
L 218.534048 641.99038 
L 213.868514 643.55964 
L 213.478038 645.1289 
L 213.767528 646.69816 
L 215.948817 648.26742 
L 218.72928 649.83668 
L 216.655718 651.40594 
L 217.928133 652.9752 
L 217.928133 652.9752 
" clip-path="url(#p557da7e0c0)" style="fill: none; stroke: #00bf00; stroke-width: 1.5; stroke-linecap: square"/>
   </g>
   <g id="line2d_30">
    <path d="M 786.727635 146.10422 
L 786.727635 150.812 
L 774.718689 152.38126 
L 774.874432 153.95052 
L 774.874432 155.51978 
L 770.349913 157.08904 
L 770.221221 158.6583 
L 769.191688 160.22756 
L 769.753904 161.79682 
L 769.069781 163.36608 
L 769.04947 164.93534 
L 766.184373 166.5046 
L 765.90668 168.07386 
L 766.313065 169.64312 
L 766.096303 172.78164 
L 766.021801 174.3509 
L 766.936213 175.92016 
L 766.990404 177.48942 
L 766.882022 179.05868 
L 767.092 180.62794 
L 767.715104 182.1972 
L 767.823485 183.76646 
L 760.718392 185.33572 
L 761.158613 186.90498 
L 761.212804 188.47424 
L 758.659281 190.0435 
L 759.268903 191.61276 
L 757.663628 193.18202 
L 757.561987 194.75128 
L 756.363185 196.32054 
L 756.444427 197.8898 
L 756.397021 199.45906 
L 751.64217 201.02832 
L 751.703146 202.59758 
L 750.632991 204.16684 
L 750.328202 205.7361 
L 750.328202 207.30536 
L 750.551705 210.44388 
L 749.833746 212.01314 
L 749.759245 213.5824 
L 749.000665 216.72092 
L 748.953215 219.85944 
L 748.966784 221.4287 
L 738.854289 222.99796 
L 738.366617 224.56722 
L 737.723159 226.13648 
L 734.268838 227.70574 
L 734.431366 230.84426 
L 734.485557 232.41352 
L 721.359006 233.98278 
L 721.907609 237.1213 
L 716.468678 238.69056 
L 716.475419 240.25982 
L 716.041982 241.82908 
L 714.585709 243.39834 
L 714.138702 244.9676 
L 714.070942 248.10612 
L 713.014313 249.67538 
L 712.458926 251.24464 
L 712.309924 252.8139 
L 711.023007 254.38316 
L 710.013784 255.95242 
L 708.767488 257.52168 
L 708.313697 259.09094 
L 706.911614 260.6602 
L 706.430727 262.22946 
L 705.008334 263.79872 
L 705.015119 265.36798 
L 703.680797 266.93724 
L 702.922172 268.5065 
L 702.549667 270.07576 
L 701.696187 271.64502 
L 701.167894 273.21428 
L 699.772596 274.78354 
L 698.641467 276.3528 
L 698.350203 277.92206 
L 697.754195 279.49132 
L 695.952511 281.06058 
L 695.315794 282.62984 
L 693.012913 284.1991 
L 690.134291 285.76836 
L 685.880681 287.33762 
L 685.751989 288.90688 
L 683.950261 290.47614 
L 680.705918 292.0454 
L 680.130176 293.61466 
L 675.422775 295.18392 
L 674.704815 296.75318 
L 671.494264 298.32244 
L 671.243666 299.8917 
L 669.767126 301.46096 
L 667.410011 303.03022 
L 666.441409 304.59948 
L 662.729705 306.16874 
L 661.90332 307.738 
L 659.715606 309.30726 
L 656.268026 310.87652 
L 653.85672 314.01504 
L 652.888118 315.5843 
L 646.22329 317.15356 
L 645.281784 318.72282 
L 643.42591 320.29208 
L 638.942011 321.86134 
L 638.068265 323.4306 
L 637.465472 324.99986 
L 632.730975 326.56912 
L 631.843659 328.13838 
L 630.529647 329.70764 
L 628.47058 331.2769 
L 624.386282 332.84616 
L 623.289033 334.41542 
L 621.832759 335.98468 
L 617.105048 337.55394 
L 614.707312 340.69246 
L 608.448825 342.26172 
L 608.069535 343.83098 
L 606.647142 345.40024 
L 604.98772 346.9695 
L 600.916992 348.53876 
L 597.726796 351.67728 
L 592.287821 353.24654 
L 591.779883 354.8158 
L 590.459086 356.38506 
L 585.995499 357.95432 
L 584.789868 359.52358 
L 583.333594 361.09284 
L 581.504816 362.6621 
L 576.946461 364.23136 
L 576.600962 365.80062 
L 575.341141 367.36988 
L 571.480391 368.93914 
L 568.723675 372.07766 
L 564.978046 373.64692 
L 562.438138 375.21618 
L 562.140045 376.78544 
L 558.435126 378.3547 
L 556.694418 379.92396 
L 555.170428 381.49322 
L 553.450031 383.06248 
L 547.022188 386.201 
L 546.595492 387.77026 
L 543.066626 389.33952 
L 540.580819 390.90878 
L 539.11102 392.47804 
L 533.076081 394.0473 
L 531.823 395.61656 
L 529.228857 397.18582 
L 528.768281 398.75508 
L 525.049747 400.32434 
L 523.153253 401.8936 
L 521.839241 403.46286 
L 517.612681 405.03212 
L 516.291929 406.60138 
L 508.333355 411.30916 
L 507.981138 412.87842 
L 506.389433 414.44768 
L 502.440634 416.01694 
L 500.645713 417.5862 
L 495.152614 420.72472 
L 492.477162 422.29398 
L 492.104635 423.86324 
L 488.379361 425.4325 
L 486.482844 427.00176 
L 484.796305 428.57102 
L 481.944755 430.14028 
L 478.537796 431.70954 
L 475.76077 433.2788 
L 475.090239 434.84806 
L 469.468426 436.41732 
L 467.091022 437.98658 
L 464.991313 439.55584 
L 457.533958 441.1251 
L 457.147861 442.69436 
L 454.242143 444.26362 
L 453.483541 445.83288 
L 448.735497 447.40214 
L 444.908582 450.54066 
L 438.413067 452.10992 
L 437.999875 453.67918 
L 431.876865 456.8177 
L 430.806667 458.38696 
L 428.625693 459.95622 
L 424.121485 461.52548 
L 420.213306 463.09474 
L 419.075392 464.664 
L 414.584731 466.23326 
L 410.676575 467.80252 
L 408.495579 469.37178 
L 405.285072 470.94104 
L 399.893548 472.5103 
L 396.838805 474.07956 
L 396.168252 475.64882 
L 387.904889 477.21808 
L 387.451076 478.78734 
L 385.85937 480.3566 
L 383.285537 481.92586 
L 378.144633 483.49512 
L 374.073905 485.06438 
L 373.504947 486.63364 
L 366.467548 488.2029 
L 366.122094 489.77216 
L 364.04948 491.34142 
L 358.420926 492.91068 
L 356.747912 494.47994 
L 353.158093 496.0492 
L 352.501087 497.61846 
L 344.549299 499.18772 
L 344.03451 500.75698 
L 342.124467 502.32624 
L 334.680639 503.8955 
L 332.608046 505.46476 
L 324.087289 508.60328 
L 320.470364 510.17254 
L 319.779489 511.7418 
L 318.072639 513.31106 
L 310.994586 514.88032 
L 309.504465 516.44958 
L 305.088305 518.01884 
L 299.019475 519.5881 
L 295.416097 521.15736 
L 294.718459 522.72662 
L 288.161947 524.29588 
L 285.418779 525.86514 
L 283.908348 527.4344 
L 280.582675 529.00366 
L 275.265662 530.57292 
L 271.953548 532.14218 
L 270.991753 533.71144 
L 266.358841 535.2807 
L 263.514066 536.84996 
L 262.477758 538.41922 
L 253.950239 539.98848 
L 252.805561 541.55774 
L 249.513757 543.127 
L 244.528651 544.69626 
L 241.643233 546.26552 
L 241.013322 547.83478 
L 239.963467 549.40404 
L 232.824455 550.9733 
L 232.147133 552.54256 
L 228.977253 554.11182 
L 224.310478 555.68108 
L 221.391201 557.25034 
L 220.415858 558.8196 
L 216.609288 560.38886 
L 213.981264 561.95812 
L 213.459723 563.52738 
L 211.041671 565.09664 
L 207.539901 566.6659 
L 205.433417 568.23516 
L 204.695131 569.80442 
L 200.78019 571.37368 
L 198.260541 572.94294 
L 197.745775 574.5122 
L 193.261877 576.08146 
L 192.692925 577.65072 
L 190.884467 579.21998 
L 190.410338 580.78924 
L 187.389465 582.3585 
L 185.49973 583.92776 
L 185.188159 585.49702 
L 181.347725 587.06628 
L 181.076797 588.63554 
L 179.48508 590.2048 
L 177.419236 591.77406 
L 177.100894 593.34332 
L 175.786882 594.91258 
L 175.529499 596.48184 
L 173.240138 598.0511 
L 172.84729 599.62036 
L 172.142872 601.18962 
L 170.801768 602.75888 
L 171.167524 604.32814 
L 170.706942 605.8974 
L 169.846738 607.46666 
L 169.575807 609.03592 
L 169.704502 610.60518 
L 170.287001 612.17444 
L 169.528396 613.7437 
L 169.779008 615.31296 
L 170.34796 616.88222 
L 169.670632 618.45148 
L 169.372612 621.59 
L 168.329531 623.15926 
L 167.84863 624.72852 
L 167.137438 626.29778 
L 165.315431 627.86704 
L 165.051274 629.4363 
L 164.590693 631.00556 
L 163.120896 632.57482 
L 161.224386 634.14408 
L 161.312438 635.71334 
L 160.594473 637.2826 
L 158.291566 638.85186 
L 157.648108 641.99038 
L 153.916044 643.55964 
L 153.706074 645.1289 
L 153.658661 646.69816 
L 153.929591 648.26742 
L 153.861858 649.83668 
L 153.618022 651.40594 
L 153.184533 652.9752 
L 153.184533 652.9752 
" clip-path="url(#p557da7e0c0)" style="fill: none; stroke-dasharray: 1.5,1.5; stroke-dashoffset: 0; stroke: #00bf00; stroke-width: 1.5"/>
   </g>
   <g id="line2d_31">
    <path d="M 873.800413 146.10422 
L 873.800413 150.812 
L 858.486503 152.38126 
L 868.418334 153.95052 
L 868.418334 155.51978 
L 861.995635 157.08904 
L 861.256522 158.6583 
L 859.376347 160.22756 
L 861.227786 161.79682 
L 860.201623 163.36608 
L 859.749517 164.93534 
L 854.27409 166.5046 
L 853.147439 168.07386 
L 857.725838 169.64312 
L 857.424464 171.21238 
L 856.319321 172.78164 
L 855.860031 174.3509 
L 854.862559 175.92016 
L 854.604245 177.48942 
L 853.865088 179.05868 
L 852.752805 180.62794 
L 852.264779 182.1972 
L 850.79365 183.76646 
L 846.416226 185.33572 
L 845.66993 186.90498 
L 845.806249 188.47424 
L 843.366384 190.0435 
L 843.82563 191.61276 
L 842.84971 193.18202 
L 842.648735 194.75128 
L 841.988514 196.32054 
L 842.806606 197.8898 
L 842.368913 199.45906 
L 839.713705 201.02832 
L 839.211355 202.59758 
L 836.900625 205.7361 
L 835.43668 207.30536 
L 834.963066 208.87462 
L 835.027634 210.44388 
L 832.394022 212.01314 
L 832.566217 213.5824 
L 832.106971 215.15166 
L 831.798413 216.72092 
L 828.081166 218.29018 
L 827.377885 219.85944 
L 827.277397 221.4287 
L 815.910357 222.99796 
L 815.307608 224.56722 
L 815.443972 226.13648 
L 810.822513 227.70574 
L 809.344244 230.84426 
L 809.344244 232.41352 
L 796.140088 233.98278 
L 794.137961 237.1213 
L 787.765506 238.69056 
L 786.488168 240.25982 
L 785.770563 241.82908 
L 782.663293 243.39834 
L 780.639615 244.9676 
L 779.936334 246.53686 
L 778.666135 248.10612 
L 776.814696 249.67538 
L 775.738289 251.24464 
L 775.157003 252.8139 
L 773.29124 254.38316 
L 770.435101 255.95242 
L 769.164947 257.52168 
L 765.813642 259.09094 
L 763.761271 262.22946 
L 761.9744 263.79872 
L 759.190101 265.36798 
L 757.833783 266.93724 
L 757.697419 268.5065 
L 755.207311 271.64502 
L 750.686339 274.78354 
L 748.497605 276.3528 
L 747.53601 279.49132 
L 745.203773 281.06058 
L 744.098629 282.62984 
L 741.615661 284.1991 
L 737.231053 285.76836 
L 731.569063 287.33762 
L 731.360948 288.90688 
L 728.346982 290.47614 
L 724.766054 292.0454 
L 724.270932 293.61466 
L 718.15688 295.18392 
L 717.080429 296.75318 
L 713.363182 298.32244 
L 712.882384 299.8917 
L 707.737068 303.03022 
L 706.251615 304.59948 
L 700.948427 306.16874 
L 699.678228 307.738 
L 696.628386 309.30726 
L 692.121783 310.87652 
L 691.045332 312.44578 
L 689.409147 314.01504 
L 688.339924 315.5843 
L 684.019884 317.15356 
L 683.022368 318.72282 
L 680.525076 320.29208 
L 676.750445 321.86134 
L 675.551999 323.4306 
L 674.167033 324.99986 
L 669.445131 326.56912 
L 667.837638 328.13838 
L 666.861674 329.70764 
L 664.479193 331.2769 
L 660.740438 332.84616 
L 659.549176 334.41542 
L 657.805364 335.98468 
L 652.380225 337.55394 
L 649.674817 340.69246 
L 642.591941 342.26172 
L 642.297751 343.83098 
L 640.654382 345.40024 
L 638.738375 346.9695 
L 633.872925 348.53876 
L 631.849247 350.10802 
L 630.291997 351.67728 
L 623.919587 353.24654 
L 623.417281 354.8158 
L 622.096839 356.38506 
L 617.001766 357.95432 
L 615.588065 359.52358 
L 613.736625 361.09284 
L 611.167581 362.6621 
L 606.280579 364.23136 
L 606.115568 365.80062 
L 604.206701 367.36988 
L 599.994288 368.93914 
L 597.733802 370.5084 
L 596.564092 372.07766 
L 590.220373 375.21618 
L 589.904586 376.78544 
L 585.484102 378.3547 
L 583.77621 379.92396 
L 579.944152 383.06248 
L 574.368237 386.201 
L 573.865887 387.77026 
L 570.930901 389.33952 
L 568.84261 390.90878 
L 567.550904 392.47804 
L 563.281064 394.0473 
L 562.319468 395.61656 
L 561.171309 397.18582 
L 561.400977 398.75508 
L 557.776989 401.8936 
L 556.542711 403.46286 
L 552.990519 405.03212 
L 551.856684 406.60138 
L 549.610522 408.17064 
L 548.103561 409.7399 
L 545.168487 411.30916 
L 544.027468 412.87842 
L 541.73829 414.44768 
L 539.09745 416.01694 
L 537.597629 417.5862 
L 534.719982 419.15546 
L 534.217677 420.72472 
L 531.655817 422.29398 
L 531.282646 423.86324 
L 528.455243 425.4325 
L 527.192229 427.00176 
L 525.756975 428.57102 
L 523.647221 430.14028 
L 521.042257 431.70954 
L 519.233877 433.2788 
L 518.559332 434.84806 
L 514.519137 436.41732 
L 513.24896 437.98658 
L 511.519516 439.55584 
L 509.467124 441.1251 
L 509.029364 442.69436 
L 507.091805 444.26362 
L 506.625375 445.83288 
L 503.525267 447.40214 
L 501.96804 448.9714 
L 500.61895 450.54066 
L 493.780043 452.10992 
L 493.500177 453.67918 
L 488.577343 456.8177 
L 488.03914 458.38696 
L 486.036969 459.95622 
L 482.204932 461.52548 
L 479.334447 463.09474 
L 478.695778 464.664 
L 473.241925 467.80252 
L 472.868755 469.37178 
L 471.124943 470.94104 
L 468.046365 472.5103 
L 465.850469 474.07956 
L 465.132842 475.64882 
L 455.150834 477.21808 
L 455.028816 478.78734 
L 453.988285 480.3566 
L 451.26137 481.92586 
L 447.981839 483.49512 
L 442.614083 485.06438 
L 441.494594 486.63364 
L 437.382669 488.2029 
L 437.310895 489.77216 
L 435.997682 491.34142 
L 430.751899 492.91068 
L 429.402788 494.47994 
L 425.915164 496.0492 
L 425.900818 497.61846 
L 419.054771 499.18772 
L 418.459162 500.75698 
L 417.339651 502.32624 
L 410.780677 503.8955 
L 409.144492 505.46476 
L 406.467798 507.03402 
L 402.262592 508.60328 
L 399.837029 510.17254 
L 399.621752 511.7418 
L 398.215212 513.31106 
L 392.775705 514.88032 
L 391.562935 516.44958 
L 387.974867 518.01884 
L 383.389284 519.5881 
L 379.87299 521.15736 
L 378.918556 522.72662 
L 373.184793 524.29588 
L 371.297477 525.86514 
L 370.687522 527.4344 
L 367.759631 529.00366 
L 363.030545 530.57292 
L 360.353829 532.14218 
L 359.822788 533.71144 
L 355.875918 535.2807 
L 353.579556 536.84996 
L 352.883459 538.41922 
L 344.882048 539.98848 
L 344.494554 541.55774 
L 341.473382 543.127 
L 335.947733 546.26552 
L 334.612967 549.40404 
L 330.501042 550.9733 
L 329.840843 552.54256 
L 327.881754 554.11182 
L 325.140459 555.68108 
L 324.092744 557.25034 
L 322.700561 558.8196 
L 319.327771 560.38886 
L 316.227685 561.95812 
L 315.868872 563.52738 
L 313.565326 565.09664 
L 310.673333 566.6659 
L 308.8793 568.23516 
L 309.094576 569.80442 
L 304.602308 572.94294 
L 302.679095 574.5122 
L 299.622058 576.08146 
L 300.081337 577.65072 
L 297.784964 579.21998 
L 296.371252 580.78924 
L 290.781035 582.3585 
L 288.506193 583.92776 
L 288.836303 585.49702 
L 279.593418 587.06628 
L 280.32538 588.63554 
L 275.30207 590.2048 
L 271.326486 591.77406 
L 271.864701 593.34332 
L 269.410446 594.91258 
L 269.611388 596.48184 
L 269.33151 598.0511 
L 267.114084 599.62036 
L 263.059554 601.18962 
L 265.406159 602.75888 
L 265.420505 604.32814 
L 261.882659 605.8974 
L 264.667014 607.46666 
L 266.489761 609.03592 
L 266.841391 610.60518 
L 267.910636 612.17444 
L 265.05453 613.7437 
L 265.62862 615.31296 
L 269.101876 616.88222 
L 269.525279 618.45148 
L 267.458541 620.02074 
L 267.752764 621.59 
L 288.398554 623.15926 
L 286.927447 624.72852 
L 288.577955 626.29778 
L 282.937495 627.86704 
L 279.449893 629.4363 
L 277.497977 631.00556 
L 276.141681 632.57482 
L 272.661252 634.14408 
L 271.355189 635.71334 
L 271.391065 637.2826 
L 253.321514 638.85186 
L 252.338378 640.42112 
L 252.044165 641.99038 
L 243.052444 643.55964 
L 240.806305 645.1289 
L 240.210684 646.69816 
L 239.851882 648.26742 
L 245.793728 649.83668 
L 243.77006 651.40594 
L 248.671364 652.9752 
L 248.671364 652.9752 
" clip-path="url(#p557da7e0c0)" style="fill: none; stroke-dasharray: 7.5,1.5; stroke-dashoffset: 0; stroke: #00bf00; stroke-width: 1.5"/>
   </g>
   <g id="line2d_32">
    <path d="M 789.25903 88.0416 
L 788.804707 91.18012 
L 781.02702 94.31864 
L 780.281965 97.45716 
L 779.936644 100.59568 
L 781.844758 103.7342 
L 783.898192 106.87272 
L 783.516641 110.01124 
L 783.007772 113.14976 
L 783.135 116.28828 
L 782.989635 119.4268 
L 783.716507 122.56532 
L 787.62351 125.70384 
L 787.914286 128.84236 
L 788.150517 135.1194 
L 785.333845 138.25792 
L 784.479744 141.39644 
L 784.225332 144.53496 
L 781.045202 150.812 
L 777.156336 153.95052 
L 777.883254 157.08904 
L 779.827642 160.22756 
L 784.20715 163.36608 
L 786.751272 166.5046 
L 795.746518 172.78164 
L 797.72727 175.92016 
L 801.034628 179.05868 
L 799.87157 185.33572 
L 798.38146 188.47424 
L 795.673791 191.61276 
L 791.675923 194.75128 
L 789.731491 197.8898 
L 790.531091 201.02832 
L 790.549273 204.16684 
L 789.240892 207.30536 
L 789.658852 210.44388 
L 795.074102 219.85944 
L 793.256897 222.99796 
L 788.986436 226.13648 
L 786.842136 229.275 
L 784.952249 232.41352 
L 787.169231 235.55204 
L 792.184748 238.69056 
L 792.402841 241.82908 
L 793.184215 244.9676 
L 792.620889 248.10612 
L 791.312465 251.24464 
L 795.237694 254.38316 
L 794.147362 257.52168 
L 791.803152 260.6602 
L 790.98537 263.79872 
L 790.658275 266.93724 
L 796.109932 270.07576 
L 802.070459 273.21428 
L 798.94483 276.3528 
L 800.943764 279.49132 
L 799.417291 282.62984 
L 796.273524 285.76836 
L 796.600619 288.90688 
L 791.857653 292.0454 
L 789.858719 295.18392 
L 791.675923 298.32244 
L 793.129714 301.46096 
L 792.8208 304.59948 
L 791.312465 307.738 
L 784.261695 310.87652 
L 780.391012 314.01504 
L 775.429952 317.15356 
L 771.631996 320.29208 
L 764.708366 323.4306 
L 756.98518 326.56912 
L 749.770775 329.70764 
L 746.209049 332.84616 
L 746.445323 335.98468 
L 749.298314 339.1232 
L 754.749972 342.26172 
L 758.111831 345.40024 
L 758.293561 348.53876 
L 750.079732 351.67728 
L 738.976506 354.8158 
L 730.762633 357.95432 
L 732.961478 361.09284 
L 741.556991 364.23136 
L 757.40314 367.36988 
L 774.66676 370.5084 
L 767.488718 373.64692 
L 707.992855 379.92396 
L 704.085852 383.06248 
L 707.356846 386.201 
L 704.485674 389.33952 
L 693.182492 392.47804 
L 680.02583 395.61656 
L 674.665037 398.75508 
L 669.813024 401.8936 
L 666.978171 405.03212 
L 665.760655 408.17064 
L 668.740874 411.30916 
L 670.830673 414.44768 
L 670.9034 417.5862 
L 669.140697 420.72472 
L 666.560211 423.86324 
L 655.74776 430.14028 
L 646.879742 433.2788 
L 638.24791 439.55584 
L 633.214212 442.69436 
L 626.326946 445.83288 
L 615.896091 452.10992 
L 608.772594 455.24844 
L 602.97566 458.38696 
L 597.905598 461.52548 
L 593.598773 464.664 
L 588.401572 467.80252 
L 585.003349 470.94104 
L 585.730222 474.07956 
L 588.746804 477.21808 
L 581.732354 480.3566 
L 570.211123 483.49512 
L 565.341017 486.63364 
L 568.775515 489.77216 
L 567.648864 492.91068 
L 558.235658 496.0492 
L 549.22223 499.18772 
L 546.060282 502.32624 
L 547.441345 505.46476 
L 544.006803 508.60328 
L 548.967818 511.7418 
L 542.934653 514.88032 
L 535.70211 518.01884 
L 523.672099 521.15736 
L 525.743716 524.29588 
L 529.541761 527.4344 
L 530.741095 530.57292 
L 532.267568 533.71144 
L 523.326822 536.84996 
L 508.407435 539.98848 
L 501.011367 543.127 
L 491.034791 546.26552 
L 492.215987 549.40404 
L 492.379535 552.54256 
L 490.798561 555.68108 
L 487.563907 558.8196 
L 478.786732 561.95812 
L 460.560009 565.09664 
L 450.001925 568.23516 
L 443.568983 571.37368 
L 447.203436 574.5122 
L 447.639555 577.65072 
L 446.240288 580.78924 
L 447.73042 583.92776 
L 442.224217 590.2048 
L 438.662468 593.34332 
L 437.64482 596.48184 
L 419.508961 599.62036 
L 418.382266 602.75888 
L 414.929564 605.8974 
L 400.391795 609.03592 
L 395.703352 612.17444 
L 403.935384 615.31296 
L 406.770237 618.45148 
L 406.897443 624.72852 
L 407.89691 627.86704 
L 407.915092 631.00556 
L 404.280639 634.14408 
L 410.132097 637.2826 
L 410.386509 643.55964 
L 410.42285 646.69816 
L 438.062779 649.83668 
L 469.736962 652.9752 
L 469.736962 652.9752 
" clip-path="url(#p557da7e0c0)" style="fill: none; stroke: #0080ff; stroke-width: 1.5; stroke-linecap: square"/>
   </g>
   <g id="line2d_33">
    <path d="M 719.884861 88.0416 
L 738.785952 91.18012 
L 733.460635 94.31864 
L 741.261116 97.45716 
L 747.374014 100.59568 
L 752.024298 103.7342 
L 755.755736 106.87272 
L 756.430768 110.01124 
L 759.243493 113.14976 
L 765.243842 116.28828 
L 769.012796 119.4268 
L 771.656696 122.56532 
L 779.58844 125.70384 
L 781.332297 128.84236 
L 783.58245 131.98088 
L 783.676197 135.1194 
L 788.982755 138.25792 
L 793.708028 141.39644 
L 795.020621 144.53496 
L 797.064521 147.67348 
L 799.258399 150.812 
L 808.033912 157.08904 
L 810.415329 160.22756 
L 814.128008 163.36608 
L 817.146986 166.5046 
L 819.772127 169.64312 
L 822.603566 172.78164 
L 825.622454 175.92016 
L 829.091453 179.05868 
L 830.554068 182.1972 
L 832.204133 185.33572 
L 833.254154 188.47424 
L 833.83544 191.61276 
L 832.635396 194.75128 
L 834.398011 201.02832 
L 835.148077 204.16684 
L 835.391846 207.30536 
L 836.141868 213.5824 
L 835.373044 216.72092 
L 835.279296 219.85944 
L 834.623022 222.99796 
L 833.572957 226.13648 
L 833.122935 229.275 
L 830.83531 232.41352 
L 827.910124 238.69056 
L 826.803828 241.82908 
L 825.472432 244.9676 
L 823.972389 248.10612 
L 821.834742 251.24464 
L 820.840951 254.38316 
L 819.340864 257.52168 
L 817.371996 260.6602 
L 814.259316 263.79872 
L 811.896658 266.93724 
L 809.383977 273.21428 
L 806.065045 276.3528 
L 803.833694 279.49132 
L 800.214674 282.62984 
L 796.239467 285.76836 
L 794.870599 288.90688 
L 792.545501 292.0454 
L 789.657832 295.18392 
L 787.126393 298.32244 
L 783.994999 301.46096 
L 772.688048 310.87652 
L 769.800334 314.01504 
L 766.556435 317.15356 
L 762.299898 320.29208 
L 757.012054 323.4306 
L 745.742663 329.70764 
L 741.111094 332.84616 
L 735.185733 335.98468 
L 729.597934 339.1232 
L 723.766321 342.26172 
L 718.928543 345.40024 
L 715.834577 348.53876 
L 707.809085 354.8158 
L 702.371264 357.95432 
L 697.308475 361.09284 
L 692.751982 364.23136 
L 691.608125 367.36988 
L 689.733005 370.5084 
L 687.107863 373.64692 
L 681.295009 376.78544 
L 675.219626 379.92396 
L 667.156619 386.201 
L 657.143546 392.47804 
L 650.899428 395.61656 
L 641.73008 401.8936 
L 636.686049 405.03212 
L 632.504545 408.17064 
L 628.791821 411.30916 
L 624.010274 414.44768 
L 617.503673 417.5862 
L 612.984653 420.72472 
L 606.946743 423.86324 
L 601.471404 427.00176 
L 595.246044 430.14028 
L 588.158113 433.2788 
L 578.444996 439.55584 
L 573.082207 442.69436 
L 566.500573 445.83288 
L 555.493621 452.10992 
L 548.124404 455.24844 
L 541.280286 458.38696 
L 535.148674 461.52548 
L 530.704642 464.664 
L 518.160131 470.94104 
L 510.715925 474.07956 
L 505.634378 477.21808 
L 495.846294 480.3566 
L 489.114615 483.49512 
L 476.926379 489.77216 
L 468.132086 492.91068 
L 463.331802 496.0492 
L 456.225135 499.18772 
L 447.2996 502.32624 
L 434.980099 508.60328 
L 424.666983 511.7418 
L 414.953888 514.88032 
L 407.884715 518.01884 
L 399.765477 521.15736 
L 394.533907 524.29588 
L 386.302164 527.4344 
L 380.208023 530.57292 
L 373.420136 533.71144 
L 366.219677 536.84996 
L 357.931681 539.98848 
L 353.243925 543.127 
L 345.368433 546.26552 
L 336.874162 549.40404 
L 330.03 552.54256 
L 325.285958 555.68108 
L 320.223158 558.8196 
L 314.672819 561.95812 
L 307.378625 565.09664 
L 301.95955 568.23516 
L 291.946455 574.5122 
L 288.833764 577.65072 
L 281.464558 580.78924 
L 276.251747 583.92776 
L 272.914046 587.06628 
L 270.120135 590.2048 
L 265.751114 593.34332 
L 263.444731 596.48184 
L 256.844327 599.62036 
L 256.206789 602.75888 
L 255.17547 605.8974 
L 249.943901 609.03592 
L 247.69377 612.17444 
L 243.737277 615.31296 
L 242.312201 618.45148 
L 242.330948 624.72852 
L 242.349696 627.86704 
L 242.649717 631.00556 
L 240.362081 634.14408 
L 239.030752 637.2826 
L 239.293257 646.69816 
L 230.686492 649.83668 
L 235.393028 652.9752 
L 235.393028 652.9752 
" clip-path="url(#p557da7e0c0)" style="fill: none; stroke-dasharray: 1.5,1.5; stroke-dashoffset: 0; stroke: #0080ff; stroke-width: 1.5"/>
   </g>
   <g id="line2d_34">
    <path d="M 768.610047 88.0416 
L 796.133125 91.18012 
L 792.90692 94.31864 
L 788.568831 97.45716 
L 788.22249 100.59568 
L 789.316147 103.7342 
L 791.70395 106.87272 
L 796.005542 110.01124 
L 799.887933 113.14976 
L 801.510149 116.28828 
L 806.868947 119.4268 
L 809.530141 122.56532 
L 821.57829 125.70384 
L 823.874961 128.84236 
L 827.392829 131.98088 
L 833.407768 135.1194 
L 834.063954 138.25792 
L 832.642226 141.39644 
L 829.598282 144.53496 
L 827.830257 150.812 
L 819.190531 153.95052 
L 819.573325 157.08904 
L 818.497893 160.22756 
L 818.224501 163.36608 
L 819.792038 166.5046 
L 822.599042 169.64312 
L 820.794565 172.78164 
L 824.512877 175.92016 
L 816.893904 182.1972 
L 810.897191 185.33572 
L 805.629524 188.47424 
L 799.013034 191.61276 
L 794.401553 194.75128 
L 793.289713 197.8898 
L 794.164568 201.02832 
L 794.638493 204.16684 
L 789.808253 207.30536 
L 781.624226 210.44388 
L 761.957149 216.72092 
L 755.450016 219.85944 
L 753.116936 222.99796 
L 751.312414 226.13648 
L 748.104435 229.275 
L 743.784616 232.41352 
L 739.829277 235.55204 
L 737.095222 238.69056 
L 731.554118 241.82908 
L 727.671727 248.10612 
L 724.245034 251.24464 
L 723.279004 254.38316 
L 718.685705 257.52168 
L 717.118212 260.6602 
L 716.68074 263.79872 
L 715.641761 266.93724 
L 716.68074 270.07576 
L 717.592047 273.21428 
L 712.050988 276.3528 
L 713.308681 279.49132 
L 710.264737 282.62984 
L 704.705408 285.76836 
L 703.812282 288.90688 
L 699.03681 292.0454 
L 695.847013 295.18392 
L 698.070735 298.32244 
L 700.494946 301.46096 
L 699.547142 304.59948 
L 699.74763 307.738 
L 688.501432 310.87652 
L 683.962855 314.01504 
L 678.80459 317.15356 
L 673.901446 320.29208 
L 668.378613 323.4306 
L 657.351129 326.56912 
L 645.649278 329.70764 
L 641.274736 332.84616 
L 640.217576 335.98468 
L 641.274736 339.1232 
L 643.516685 342.26172 
L 645.339389 345.40024 
L 645.959122 348.53876 
L 643.042806 351.67728 
L 637.629285 354.8158 
L 631.122196 357.95432 
L 628.023574 361.09284 
L 620.45928 367.36988 
L 614.116226 370.5084 
L 609.650509 373.64692 
L 604.237033 376.78544 
L 599.35216 379.92396 
L 598.568391 383.06248 
L 599.953667 386.201 
L 604.929716 389.33952 
L 620.31347 392.47804 
L 632.161131 395.61656 
L 626.838786 398.75508 
L 622.956439 401.8936 
L 612.366383 405.03212 
L 605.749937 408.17064 
L 601.958632 411.30916 
L 596.78214 414.44768 
L 589.290751 417.5862 
L 583.822552 420.72472 
L 580.778652 423.86324 
L 571.06354 427.00176 
L 562.44204 430.14028 
L 551.232339 433.2788 
L 547.13119 436.41732 
L 542.410352 439.55584 
L 535.957941 442.69436 
L 532.658831 445.83288 
L 529.924687 448.9714 
L 528.703536 452.10992 
L 528.138481 455.24844 
L 526.643848 458.38696 
L 523.891522 461.52548 
L 521.394407 464.664 
L 519.863322 467.80252 
L 517.566695 470.94104 
L 510.931978 474.07956 
L 506.284023 477.21808 
L 503.695777 480.3566 
L 503.896264 483.49512 
L 501.72722 486.63364 
L 500.196157 489.77216 
L 497.133965 492.91068 
L 497.589641 496.0492 
L 494.272282 499.18772 
L 487.14546 502.32624 
L 483.263069 505.46476 
L 483.828124 508.60328 
L 484.812358 511.7418 
L 472.07155 518.01884 
L 468.079802 521.15736 
L 465.163441 524.29588 
L 463.486547 527.4344 
L 464.999406 530.57292 
L 462.101271 533.71144 
L 457.981918 536.84996 
L 452.860082 539.98848 
L 449.178179 543.127 
L 446.790421 546.26552 
L 438.205396 549.40404 
L 433.593915 552.54256 
L 428.216891 555.68108 
L 425.227625 558.8196 
L 423.240865 561.95812 
L 416.186924 568.23516 
L 415.567213 571.37368 
L 413.507548 574.5122 
L 410.627639 577.65072 
L 402.516516 580.78924 
L 393.895061 583.92776 
L 388.973691 587.06628 
L 384.635624 590.2048 
L 379.532015 593.34332 
L 380.388688 596.48184 
L 373.553506 599.62036 
L 372.80619 602.75888 
L 371.1475 605.8974 
L 367.793689 609.03592 
L 370.035638 612.17444 
L 369.743998 615.31296 
L 369.05136 618.45148 
L 369.178965 624.72852 
L 369.543488 627.86704 
L 371.019894 631.00556 
L 365.679345 634.14408 
L 367.210408 637.2826 
L 367.574975 643.55964 
L 367.538501 646.69816 
L 363.455622 649.83668 
L 374.300822 652.9752 
L 374.300822 652.9752 
" clip-path="url(#p557da7e0c0)" style="fill: none; stroke-dasharray: 7.5,1.5; stroke-dashoffset: 0; stroke: #0080ff; stroke-width: 1.5"/>
   </g>
   <g id="patch_3">
    <path d="M 144 652.9752 
L 144 88.0416 
" style="fill: none; stroke: #000000; stroke-width: 0.8; stroke-linejoin: miter; stroke-linecap: square"/>
   </g>
   <g id="patch_4">
    <path d="M 1036.8 652.9752 
L 1036.8 88.0416 
" style="fill: none; stroke: #000000; stroke-width: 0.8; stroke-linejoin: miter; stroke-linecap: square"/>
   </g>
   <g id="patch_5">
    <path d="M 144 652.9752 
L 1036.8 652.9752 
" style="fill: none; stroke: #000000; stroke-width: 0.8; stroke-linejoin: miter; stroke-linecap: square"/>
   </g>
   <g id="patch_6">
    <path d="M 144 88.0416 
L 1036.8 88.0416 
" style="fill: none; stroke: #000000; stroke-width: 0.8; stroke-linejoin: miter; stroke-linecap: square"/>
   </g>
   <g id="legend_1">
    <g id="patch_7">
     <path d="M 895.454687 228.721287 
L 1029.8 228.721287 
Q 1031.8 228.721287 1031.8 226.721287 
L 1031.8 95.0416 
Q 1031.8 93.0416 1029.8 93.0416 
L 895.454687 93.0416 
Q 893.454687 93.0416 893.454687 95.0416 
L 893.454687 226.721287 
Q 893.454687 228.721287 895.454687 228.721287 
z
" style="fill: #ffffff; opacity: 0.8; stroke: #cccccc; stroke-linejoin: miter"/>
    </g>
    <g id="line2d_35">
     <path d="M 897.454687 101.193162 
L 907.454687 101.193162 
L 917.454687 101.193162 
" style="fill: none; stroke: #bf1a00; stroke-width: 1.5; stroke-linecap: square"/>
    </g>
    <g id="text_28">
     <!-- T85 at 0.35054µm -->
     <g transform="translate(925.454687 104.693162)scale(0.1 -0.1)">
      <defs>
       <path id="DejaVuSansMono-54" d="M 147 4666 
L 3706 4666 
L 3706 4134 
L 2247 4134 
L 2247 0 
L 1613 0 
L 1613 4134 
L 147 4134 
L 147 4666 
z
" transform="scale(0.015625)"/>
       <path id="DejaVuSansMono-b5" d="M 609 -1338 
L 609 3500 
L 1184 3500 
L 1184 1325 
Q 1184 881 1371 645 
Q 1559 409 1906 409 
Q 2303 409 2504 675 
Q 2706 941 2706 1459 
L 2706 3500 
L 3284 3500 
L 3284 800 
Q 3284 616 3334 528 
Q 3384 441 3488 441 
Q 3516 441 3561 456 
Q 3606 472 3694 513 
L 3694 50 
Q 3575 -22 3469 -56 
Q 3363 -91 3256 -91 
Q 3063 -91 2945 32 
Q 2828 156 2791 403 
Q 2647 153 2439 31 
Q 2231 -91 1953 -91 
Q 1666 -91 1467 28 
Q 1269 147 1131 397 
L 1131 -1338 
L 609 -1338 
z
" transform="scale(0.015625)"/>
       <path id="DejaVuSansMono-6d" d="M 2113 3144 
Q 2219 3369 2383 3476 
Q 2547 3584 2778 3584 
Q 3200 3584 3373 3257 
Q 3547 2931 3547 2028 
L 3547 0 
L 3022 0 
L 3022 2003 
Q 3022 2744 2939 2923 
Q 2856 3103 2638 3103 
Q 2388 3103 2295 2911 
Q 2203 2719 2203 2003 
L 2203 0 
L 1678 0 
L 1678 2003 
Q 1678 2753 1589 2928 
Q 1500 3103 1269 3103 
Q 1041 3103 952 2911 
Q 863 2719 863 2003 
L 863 0 
L 341 0 
L 341 3500 
L 863 3500 
L 863 3200 
Q 966 3388 1120 3486 
Q 1275 3584 1472 3584 
Q 1709 3584 1867 3475 
Q 2025 3366 2113 3144 
z
" transform="scale(0.015625)"/>
      </defs>
      <use xlink:href="#DejaVuSansMono-54"/>
      <use xlink:href="#DejaVuSansMono-38" x="60.205078"/>
      <use xlink:href="#DejaVuSansMono-35" x="120.410156"/>
      <use xlink:href="#DejaVuSansMono-20" x="180.615234"/>
      <use xlink:href="#DejaVuSansMono-61" x="240.820312"/>
      <use xlink:href="#DejaVuSansMono-74" x="301.025391"/>
      <use xlink:href="#DejaVuSansMono-20" x="361.230469"/>
      <use xlink:href="#DejaVuSansMono-30" x="421.435547"/>
      <use xlink:href="#DejaVuSansMono-2e" x="481.640625"/>
      <use xlink:href="#DejaVuSansMono-33" x="541.845703"/>
      <use xlink:href="#DejaVuSansMono-35" x="602.050781"/>
      <use xlink:href="#DejaVuSansMono-30" x="662.255859"/>
      <use xlink:href="#DejaVuSansMono-35" x="722.460938"/>
      <use xlink:href="#DejaVuSansMono-34" x="782.666016"/>
      <use xlink:href="#DejaVuSansMono-b5" x="842.871094"/>
      <use xlink:href="#DejaVuSansMono-6d" x="903.076172"/>
     </g>
    </g>
    <g id="line2d_36">
     <path d="M 897.454687 115.93535 
L 907.454687 115.93535 
L 917.454687 115.93535 
" style="fill: none; stroke-dasharray: 1.5,1.5; stroke-dashoffset: 0; stroke: #bf1a00; stroke-width: 1.5"/>
    </g>
    <g id="text_29">
     <!-- T85 at 0.69535µm -->
     <g transform="translate(925.454687 119.43535)scale(0.1 -0.1)">
      <defs>
       <path id="DejaVuSansMono-39" d="M 1863 2069 
Q 2266 2069 2495 2359 
Q 2725 2650 2725 3163 
Q 2725 3675 2495 3965 
Q 2266 4256 1863 4256 
Q 1444 4256 1231 3979 
Q 1019 3703 1019 3163 
Q 1019 2619 1230 2344 
Q 1441 2069 1863 2069 
z
M 738 97 
L 738 678 
Q 934 563 1156 502 
Q 1378 441 1619 441 
Q 2219 441 2526 892 
Q 2834 1344 2834 2222 
Q 2688 1909 2422 1742 
Q 2156 1575 1813 1575 
Q 1138 1575 767 1990 
Q 397 2406 397 3169 
Q 397 3922 776 4336 
Q 1156 4750 1850 4750 
Q 2663 4750 3041 4165 
Q 3419 3581 3419 2328 
Q 3419 1150 2964 529 
Q 2509 -91 1644 -91 
Q 1416 -91 1184 -42 
Q 953 6 738 97 
z
" transform="scale(0.015625)"/>
      </defs>
      <use xlink:href="#DejaVuSansMono-54"/>
      <use xlink:href="#DejaVuSansMono-38" x="60.205078"/>
      <use xlink:href="#DejaVuSansMono-35" x="120.410156"/>
      <use xlink:href="#DejaVuSansMono-20" x="180.615234"/>
      <use xlink:href="#DejaVuSansMono-61" x="240.820312"/>
      <use xlink:href="#DejaVuSansMono-74" x="301.025391"/>
      <use xlink:href="#DejaVuSansMono-20" x="361.230469"/>
      <use xlink:href="#DejaVuSansMono-30" x="421.435547"/>
      <use xlink:href="#DejaVuSansMono-2e" x="481.640625"/>
      <use xlink:href="#DejaVuSansMono-36" x="541.845703"/>
      <use xlink:href="#DejaVuSansMono-39" x="602.050781"/>
      <use xlink:href="#DejaVuSansMono-35" x="662.255859"/>
      <use xlink:href="#DejaVuSansMono-33" x="722.460938"/>
      <use xlink:href="#DejaVuSansMono-35" x="782.666016"/>
      <use xlink:href="#DejaVuSansMono-b5" x="842.871094"/>
      <use xlink:href="#DejaVuSansMono-6d" x="903.076172"/>
     </g>
    </g>
    <g id="line2d_37">
     <path d="M 897.454687 130.677537 
L 907.454687 130.677537 
L 917.454687 130.677537 
" style="fill: none; stroke-dasharray: 7.5,1.5; stroke-dashoffset: 0; stroke: #bf1a00; stroke-width: 1.5"/>
    </g>
    <g id="text_30">
     <!-- T85 at 1.04598µm -->
     <g transform="translate(925.454687 134.177537)scale(0.1 -0.1)">
      <use xlink:href="#DejaVuSansMono-54"/>
      <use xlink:href="#DejaVuSansMono-38" x="60.205078"/>
      <use xlink:href="#DejaVuSansMono-35" x="120.410156"/>
      <use xlink:href="#DejaVuSansMono-20" x="180.615234"/>
      <use xlink:href="#DejaVuSansMono-61" x="240.820312"/>
      <use xlink:href="#DejaVuSansMono-74" x="301.025391"/>
      <use xlink:href="#DejaVuSansMono-20" x="361.230469"/>
      <use xlink:href="#DejaVuSansMono-31" x="421.435547"/>
      <use xlink:href="#DejaVuSansMono-2e" x="481.640625"/>
      <use xlink:href="#DejaVuSansMono-30" x="541.845703"/>
      <use xlink:href="#DejaVuSansMono-34" x="602.050781"/>
      <use xlink:href="#DejaVuSansMono-35" x="662.255859"/>
      <use xlink:href="#DejaVuSansMono-39" x="722.460938"/>
      <use xlink:href="#DejaVuSansMono-38" x="782.666016"/>
      <use xlink:href="#DejaVuSansMono-b5" x="842.871094"/>
      <use xlink:href="#DejaVuSansMono-6d" x="903.076172"/>
     </g>
    </g>
    <g id="line2d_38">
     <path d="M 897.454687 145.419725 
L 907.454687 145.419725 
L 917.454687 145.419725 
" style="fill: none; stroke: #00bf00; stroke-width: 1.5; stroke-linecap: square"/>
    </g>
    <g id="text_31">
     <!-- T108 at 0.35054µm -->
     <g transform="translate(925.454687 148.919725)scale(0.1 -0.1)">
      <use xlink:href="#DejaVuSansMono-54"/>
      <use xlink:href="#DejaVuSansMono-31" x="60.205078"/>
      <use xlink:href="#DejaVuSansMono-30" x="120.410156"/>
      <use xlink:href="#DejaVuSansMono-38" x="180.615234"/>
      <use xlink:href="#DejaVuSansMono-20" x="240.820312"/>
      <use xlink:href="#DejaVuSansMono-61" x="301.025391"/>
      <use xlink:href="#DejaVuSansMono-74" x="361.230469"/>
      <use xlink:href="#DejaVuSansMono-20" x="421.435547"/>
      <use xlink:href="#DejaVuSansMono-30" x="481.640625"/>
      <use xlink:href="#DejaVuSansMono-2e" x="541.845703"/>
      <use xlink:href="#DejaVuSansMono-33" x="602.050781"/>
      <use xlink:href="#DejaVuSansMono-35" x="662.255859"/>
      <use xlink:href="#DejaVuSansMono-30" x="722.460938"/>
      <use xlink:href="#DejaVuSansMono-35" x="782.666016"/>
      <use xlink:href="#DejaVuSansMono-34" x="842.871094"/>
      <use xlink:href="#DejaVuSansMono-b5" x="903.076172"/>
      <use xlink:href="#DejaVuSansMono-6d" x="963.28125"/>
     </g>
    </g>
    <g id="line2d_39">
     <path d="M 897.454687 160.161912 
L 907.454687 160.161912 
L 917.454687 160.161912 
" style="fill: none; stroke-dasharray: 1.5,1.5; stroke-dashoffset: 0; stroke: #00bf00; stroke-width: 1.5"/>
    </g>
    <g id="text_32">
     <!-- T108 at 0.69535µm -->
     <g transform="translate(925.454687 163.661912)scale(0.1 -0.1)">
      <use xlink:href="#DejaVuSansMono-54"/>
      <use xlink:href="#DejaVuSansMono-31" x="60.205078"/>
      <use xlink:href="#DejaVuSansMono-30" x="120.410156"/>
      <use xlink:href="#DejaVuSansMono-38" x="180.615234"/>
      <use xlink:href="#DejaVuSansMono-20" x="240.820312"/>
      <use xlink:href="#DejaVuSansMono-61" x="301.025391"/>
      <use xlink:href="#DejaVuSansMono-74" x="361.230469"/>
      <use xlink:href="#DejaVuSansMono-20" x="421.435547"/>
      <use xlink:href="#DejaVuSansMono-30" x="481.640625"/>
      <use xlink:href="#DejaVuSansMono-2e" x="541.845703"/>
      <use xlink:href="#DejaVuSansMono-36" x="602.050781"/>
      <use xlink:href="#DejaVuSansMono-39" x="662.255859"/>
      <use xlink:href="#DejaVuSansMono-35" x="722.460938"/>
      <use xlink:href="#DejaVuSansMono-33" x="782.666016"/>
      <use xlink:href="#DejaVuSansMono-35" x="842.871094"/>
      <use xlink:href="#DejaVuSansMono-b5" x="903.076172"/>
      <use xlink:href="#DejaVuSansMono-6d" x="963.28125"/>
     </g>
    </g>
    <g id="line2d_40">
     <path d="M 897.454687 174.9041 
L 907.454687 174.9041 
L 917.454687 174.9041 
" style="fill: none; stroke-dasharray: 7.5,1.5; stroke-dashoffset: 0; stroke: #00bf00; stroke-width: 1.5"/>
    </g>
    <g id="text_33">
     <!-- T108 at 1.04598µm -->
     <g transform="translate(925.454687 178.4041)scale(0.1 -0.1)">
      <use xlink:href="#DejaVuSansMono-54"/>
      <use xlink:href="#DejaVuSansMono-31" x="60.205078"/>
      <use xlink:href="#DejaVuSansMono-30" x="120.410156"/>
      <use xlink:href="#DejaVuSansMono-38" x="180.615234"/>
      <use xlink:href="#DejaVuSansMono-20" x="240.820312"/>
      <use xlink:href="#DejaVuSansMono-61" x="301.025391"/>
      <use xlink:href="#DejaVuSansMono-74" x="361.230469"/>
      <use xlink:href="#DejaVuSansMono-20" x="421.435547"/>
      <use xlink:href="#DejaVuSansMono-31" x="481.640625"/>
      <use xlink:href="#DejaVuSansMono-2e" x="541.845703"/>
      <use xlink:href="#DejaVuSansMono-30" x="602.050781"/>
      <use xlink:href="#DejaVuSansMono-34" x="662.255859"/>
      <use xlink:href="#DejaVuSansMono-35" x="722.460938"/>
      <use xlink:href="#DejaVuSansMono-39" x="782.666016"/>
      <use xlink:href="#DejaVuSansMono-38" x="842.871094"/>
      <use xlink:href="#DejaVuSansMono-b5" x="903.076172"/>
      <use xlink:href="#DejaVuSansMono-6d" x="963.28125"/>
     </g>
    </g>
    <g id="line2d_41">
     <path d="M 897.454687 189.646287 
L 907.454687 189.646287 
L 917.454687 189.646287 
" style="fill: none; stroke: #0080ff; stroke-width: 1.5; stroke-linecap: square"/>
    </g>
    <g id="text_34">
     <!-- T114 at 0.35054µm -->
     <g transform="translate(925.454687 193.146287)scale(0.1 -0.1)">
      <use xlink:href="#DejaVuSansMono-54"/>
      <use xlink:href="#DejaVuSansMono-31" x="60.205078"/>
      <use xlink:href="#DejaVuSansMono-31" x="120.410156"/>
      <use xlink:href="#DejaVuSansMono-34" x="180.615234"/>
      <use xlink:href="#DejaVuSansMono-20" x="240.820312"/>
      <use xlink:href="#DejaVuSansMono-61" x="301.025391"/>
      <use xlink:href="#DejaVuSansMono-74" x="361.230469"/>
      <use xlink:href="#DejaVuSansMono-20" x="421.435547"/>
      <use xlink:href="#DejaVuSansMono-30" x="481.640625"/>
      <use xlink:href="#DejaVuSansMono-2e" x="541.845703"/>
      <use xlink:href="#DejaVuSansMono-33" x="602.050781"/>
      <use xlink:href="#DejaVuSansMono-35" x="662.255859"/>
      <use xlink:href="#DejaVuSansMono-30" x="722.460938"/>
      <use xlink:href="#DejaVuSansMono-35" x="782.666016"/>
      <use xlink:href="#DejaVuSansMono-34" x="842.871094"/>
      <use xlink:href="#DejaVuSansMono-b5" x="903.076172"/>
      <use xlink:href="#DejaVuSansMono-6d" x="963.28125"/>
     </g>
    </g>
    <g id="line2d_42">
     <path d="M 897.454687 204.388475 
L 907.454687 204.388475 
L 917.454687 204.388475 
" style="fill: none; stroke-dasharray: 1.5,1.5; stroke-dashoffset: 0; stroke: #0080ff; stroke-width: 1.5"/>
    </g>
    <g id="text_35">
     <!-- T114 at 0.69535µm -->
     <g transform="translate(925.454687 207.888475)scale(0.1 -0.1)">
      <use xlink:href="#DejaVuSansMono-54"/>
      <use xlink:href="#DejaVuSansMono-31" x="60.205078"/>
      <use xlink:href="#DejaVuSansMono-31" x="120.410156"/>
      <use xlink:href="#DejaVuSansMono-34" x="180.615234"/>
      <use xlink:href="#DejaVuSansMono-20" x="240.820312"/>
      <use xlink:href="#DejaVuSansMono-61" x="301.025391"/>
      <use xlink:href="#DejaVuSansMono-74" x="361.230469"/>
      <use xlink:href="#DejaVuSansMono-20" x="421.435547"/>
      <use xlink:href="#DejaVuSansMono-30" x="481.640625"/>
      <use xlink:href="#DejaVuSansMono-2e" x="541.845703"/>
      <use xlink:href="#DejaVuSansMono-36" x="602.050781"/>
      <use xlink:href="#DejaVuSansMono-39" x="662.255859"/>
      <use xlink:href="#DejaVuSansMono-35" x="722.460938"/>
      <use xlink:href="#DejaVuSansMono-33" x="782.666016"/>
      <use xlink:href="#DejaVuSansMono-35" x="842.871094"/>
      <use xlink:href="#DejaVuSansMono-b5" x="903.076172"/>
      <use xlink:href="#DejaVuSansMono-6d" x="963.28125"/>
     </g>
    </g>
    <g id="line2d_43">
     <path d="M 897.454687 219.130662 
L 907.454687 219.130662 
L 917.454687 219.130662 
" style="fill: none; stroke-dasharray: 7.5,1.5; stroke-dashoffset: 0; stroke: #0080ff; stroke-width: 1.5"/>
    </g>
    <g id="text_36">
     <!-- T114 at 1.04598µm -->
     <g transform="translate(925.454687 222.630662)scale(0.1 -0.1)">
      <use xlink:href="#DejaVuSansMono-54"/>
      <use xlink:href="#DejaVuSansMono-31" x="60.205078"/>
      <use xlink:href="#DejaVuSansMono-31" x="120.410156"/>
      <use xlink:href="#DejaVuSansMono-34" x="180.615234"/>
      <use xlink:href="#DejaVuSansMono-20" x="240.820312"/>
      <use xlink:href="#DejaVuSansMono-61" x="301.025391"/>
      <use xlink:href="#DejaVuSansMono-74" x="361.230469"/>
      <use xlink:href="#DejaVuSansMono-20" x="421.435547"/>
      <use xlink:href="#DejaVuSansMono-31" x="481.640625"/>
      <use xlink:href="#DejaVuSansMono-2e" x="541.845703"/>
      <use xlink:href="#DejaVuSansMono-30" x="602.050781"/>
      <use xlink:href="#DejaVuSansMono-34" x="662.255859"/>
      <use xlink:href="#DejaVuSansMono-35" x="722.460938"/>
      <use xlink:href="#DejaVuSansMono-39" x="782.666016"/>
      <use xlink:href="#DejaVuSansMono-38" x="842.871094"/>
      <use xlink:href="#DejaVuSansMono-b5" x="903.076172"/>
      <use xlink:href="#DejaVuSansMono-6d" x="963.28125"/>
     </g>
    </g>
   </g>
  </g>
 </g>
 <defs>
  <clipPath id="p557da7e0c0">
   <rect x="144" y="88.0416" width="892.8" height="564.9336"/>
  </clipPath>
 </defs>
</svg>
