<?xml version="1.0" encoding="utf-8" standalone="no"?>
<!DOCTYPE svg PUBLIC "-//W3C//DTD SVG 1.1//EN"
  "http://www.w3.org/Graphics/SVG/1.1/DTD/svg11.dtd">
<svg xmlns:xlink="http://www.w3.org/1999/xlink" width="1152pt" height="733.68pt" viewBox="0 0 1152 733.68" xmlns="http://www.w3.org/2000/svg" version="1.1">
 <metadata>
  <rdf:RDF xmlns:dc="http://purl.org/dc/elements/1.1/" xmlns:cc="http://creativecommons.org/ns#" xmlns:rdf="http://www.w3.org/1999/02/22-rdf-syntax-ns#">
   <cc:Work>
    <dc:type rdf:resource="http://purl.org/dc/dcmitype/StillImage"/>
    <dc:date>2022-05-02T17:34:29.708848</dc:date>
    <dc:format>image/svg+xml</dc:format>
    <dc:creator>
     <cc:Agent>
      <dc:title>Matplotlib v3.5.1, https://matplotlib.org/</dc:title>
     </cc:Agent>
    </dc:creator>
   </cc:Work>
  </rdf:RDF>
 </metadata>
 <defs>
  <style type="text/css">*{stroke-linejoin: round; stroke-linecap: butt}</style>
 </defs>
 <g id="figure_1">
  <g id="patch_1">
   <path d="M 0 733.68 
L 1152 733.68 
L 1152 0 
L 0 0 
z
" style="fill: #ffffff"/>
  </g>
  <g id="axes_1">
   <g id="patch_2">
    <path d="M 144 652.9752 
L 1036.8 652.9752 
L 1036.8 88.0416 
L 144 88.0416 
z
" style="fill: #ffffff"/>
   </g>
   <g id="matplotlib.axis_1">
    <g id="xtick_1">
     <g id="line2d_1">
      <defs>
       <path id="m890186ad01" d="M 0 0 
L 0 3.5 
" style="stroke: #000000; stroke-width: 0.8"/>
      </defs>
      <g>
       <use xlink:href="#m890186ad01" x="144" y="652.9752" style="stroke: #000000; stroke-width: 0.8"/>
      </g>
     </g>
     <g id="text_1">
      <!-- 0.000 -->
      <g transform="translate(128.949219 667.626762)scale(0.1 -0.1)">
       <defs>
        <path id="DejaVuSansMono-30" d="M 1509 2344 
Q 1509 2516 1629 2641 
Q 1750 2766 1919 2766 
Q 2094 2766 2219 2641 
Q 2344 2516 2344 2344 
Q 2344 2169 2220 2047 
Q 2097 1925 1919 1925 
Q 1744 1925 1626 2044 
Q 1509 2163 1509 2344 
z
M 1925 4250 
Q 1484 4250 1267 3775 
Q 1050 3300 1050 2328 
Q 1050 1359 1267 884 
Q 1484 409 1925 409 
Q 2369 409 2586 884 
Q 2803 1359 2803 2328 
Q 2803 3300 2586 3775 
Q 2369 4250 1925 4250 
z
M 1925 4750 
Q 2672 4750 3055 4137 
Q 3438 3525 3438 2328 
Q 3438 1134 3055 521 
Q 2672 -91 1925 -91 
Q 1178 -91 797 521 
Q 416 1134 416 2328 
Q 416 3525 797 4137 
Q 1178 4750 1925 4750 
z
" transform="scale(0.015625)"/>
        <path id="DejaVuSansMono-2e" d="M 1528 953 
L 2316 953 
L 2316 0 
L 1528 0 
L 1528 953 
z
" transform="scale(0.015625)"/>
       </defs>
       <use xlink:href="#DejaVuSansMono-30"/>
       <use xlink:href="#DejaVuSansMono-2e" x="60.205078"/>
       <use xlink:href="#DejaVuSansMono-30" x="120.410156"/>
       <use xlink:href="#DejaVuSansMono-30" x="180.615234"/>
       <use xlink:href="#DejaVuSansMono-30" x="240.820312"/>
      </g>
     </g>
    </g>
    <g id="xtick_2">
     <g id="line2d_2">
      <g>
       <use xlink:href="#m890186ad01" x="203.52" y="652.9752" style="stroke: #000000; stroke-width: 0.8"/>
      </g>
     </g>
     <g id="text_2">
      <!-- 0.005 -->
      <g transform="translate(188.469219 667.626762)scale(0.1 -0.1)">
       <defs>
        <path id="DejaVuSansMono-35" d="M 647 4666 
L 3009 4666 
L 3009 4134 
L 1222 4134 
L 1222 2988 
Q 1356 3038 1492 3061 
Q 1628 3084 1766 3084 
Q 2491 3084 2916 2656 
Q 3341 2228 3341 1497 
Q 3341 759 2895 334 
Q 2450 -91 1678 -91 
Q 1306 -91 998 -41 
Q 691 9 447 109 
L 447 750 
Q 734 594 1025 517 
Q 1316 441 1619 441 
Q 2141 441 2423 716 
Q 2706 991 2706 1497 
Q 2706 1997 2414 2275 
Q 2122 2553 1600 2553 
Q 1347 2553 1106 2495 
Q 866 2438 647 2322 
L 647 4666 
z
" transform="scale(0.015625)"/>
       </defs>
       <use xlink:href="#DejaVuSansMono-30"/>
       <use xlink:href="#DejaVuSansMono-2e" x="60.205078"/>
       <use xlink:href="#DejaVuSansMono-30" x="120.410156"/>
       <use xlink:href="#DejaVuSansMono-30" x="180.615234"/>
       <use xlink:href="#DejaVuSansMono-35" x="240.820312"/>
      </g>
     </g>
    </g>
    <g id="xtick_3">
     <g id="line2d_3">
      <g>
       <use xlink:href="#m890186ad01" x="263.04" y="652.9752" style="stroke: #000000; stroke-width: 0.8"/>
      </g>
     </g>
     <g id="text_3">
      <!-- 0.010 -->
      <g transform="translate(247.989219 667.626762)scale(0.1 -0.1)">
       <defs>
        <path id="DejaVuSansMono-31" d="M 844 531 
L 1825 531 
L 1825 4097 
L 769 3859 
L 769 4434 
L 1819 4666 
L 2450 4666 
L 2450 531 
L 3419 531 
L 3419 0 
L 844 0 
L 844 531 
z
" transform="scale(0.015625)"/>
       </defs>
       <use xlink:href="#DejaVuSansMono-30"/>
       <use xlink:href="#DejaVuSansMono-2e" x="60.205078"/>
       <use xlink:href="#DejaVuSansMono-30" x="120.410156"/>
       <use xlink:href="#DejaVuSansMono-31" x="180.615234"/>
       <use xlink:href="#DejaVuSansMono-30" x="240.820312"/>
      </g>
     </g>
    </g>
    <g id="xtick_4">
     <g id="line2d_4">
      <g>
       <use xlink:href="#m890186ad01" x="322.56" y="652.9752" style="stroke: #000000; stroke-width: 0.8"/>
      </g>
     </g>
     <g id="text_4">
      <!-- 0.015 -->
      <g transform="translate(307.509219 667.626762)scale(0.1 -0.1)">
       <use xlink:href="#DejaVuSansMono-30"/>
       <use xlink:href="#DejaVuSansMono-2e" x="60.205078"/>
       <use xlink:href="#DejaVuSansMono-30" x="120.410156"/>
       <use xlink:href="#DejaVuSansMono-31" x="180.615234"/>
       <use xlink:href="#DejaVuSansMono-35" x="240.820312"/>
      </g>
     </g>
    </g>
    <g id="xtick_5">
     <g id="line2d_5">
      <g>
       <use xlink:href="#m890186ad01" x="382.08" y="652.9752" style="stroke: #000000; stroke-width: 0.8"/>
      </g>
     </g>
     <g id="text_5">
      <!-- 0.020 -->
      <g transform="translate(367.029219 667.626762)scale(0.1 -0.1)">
       <defs>
        <path id="DejaVuSansMono-32" d="M 1166 531 
L 3309 531 
L 3309 0 
L 475 0 
L 475 531 
Q 1059 1147 1496 1619 
Q 1934 2091 2100 2284 
Q 2413 2666 2522 2902 
Q 2631 3138 2631 3384 
Q 2631 3775 2401 3997 
Q 2172 4219 1772 4219 
Q 1488 4219 1175 4116 
Q 863 4013 513 3803 
L 513 4441 
Q 834 4594 1145 4672 
Q 1456 4750 1759 4750 
Q 2444 4750 2861 4386 
Q 3278 4022 3278 3431 
Q 3278 3131 3139 2831 
Q 3000 2531 2688 2169 
Q 2513 1966 2180 1606 
Q 1847 1247 1166 531 
z
" transform="scale(0.015625)"/>
       </defs>
       <use xlink:href="#DejaVuSansMono-30"/>
       <use xlink:href="#DejaVuSansMono-2e" x="60.205078"/>
       <use xlink:href="#DejaVuSansMono-30" x="120.410156"/>
       <use xlink:href="#DejaVuSansMono-32" x="180.615234"/>
       <use xlink:href="#DejaVuSansMono-30" x="240.820312"/>
      </g>
     </g>
    </g>
    <g id="xtick_6">
     <g id="line2d_6">
      <g>
       <use xlink:href="#m890186ad01" x="441.6" y="652.9752" style="stroke: #000000; stroke-width: 0.8"/>
      </g>
     </g>
     <g id="text_6">
      <!-- 0.025 -->
      <g transform="translate(426.549219 667.626762)scale(0.1 -0.1)">
       <use xlink:href="#DejaVuSansMono-30"/>
       <use xlink:href="#DejaVuSansMono-2e" x="60.205078"/>
       <use xlink:href="#DejaVuSansMono-30" x="120.410156"/>
       <use xlink:href="#DejaVuSansMono-32" x="180.615234"/>
       <use xlink:href="#DejaVuSansMono-35" x="240.820312"/>
      </g>
     </g>
    </g>
    <g id="xtick_7">
     <g id="line2d_7">
      <g>
       <use xlink:href="#m890186ad01" x="501.12" y="652.9752" style="stroke: #000000; stroke-width: 0.8"/>
      </g>
     </g>
     <g id="text_7">
      <!-- 0.030 -->
      <g transform="translate(486.069219 667.626762)scale(0.1 -0.1)">
       <defs>
        <path id="DejaVuSansMono-33" d="M 2425 2497 
Q 2884 2375 3128 2064 
Q 3372 1753 3372 1288 
Q 3372 644 2939 276 
Q 2506 -91 1741 -91 
Q 1419 -91 1084 -31 
Q 750 28 428 141 
L 428 769 
Q 747 603 1056 522 
Q 1366 441 1672 441 
Q 2191 441 2469 675 
Q 2747 909 2747 1350 
Q 2747 1756 2469 1995 
Q 2191 2234 1716 2234 
L 1234 2234 
L 1234 2753 
L 1716 2753 
Q 2150 2753 2394 2943 
Q 2638 3134 2638 3475 
Q 2638 3834 2411 4026 
Q 2184 4219 1766 4219 
Q 1488 4219 1191 4156 
Q 894 4094 569 3969 
L 569 4550 
Q 947 4650 1242 4700 
Q 1538 4750 1766 4750 
Q 2447 4750 2855 4408 
Q 3263 4066 3263 3500 
Q 3263 3116 3048 2859 
Q 2834 2603 2425 2497 
z
" transform="scale(0.015625)"/>
       </defs>
       <use xlink:href="#DejaVuSansMono-30"/>
       <use xlink:href="#DejaVuSansMono-2e" x="60.205078"/>
       <use xlink:href="#DejaVuSansMono-30" x="120.410156"/>
       <use xlink:href="#DejaVuSansMono-33" x="180.615234"/>
       <use xlink:href="#DejaVuSansMono-30" x="240.820312"/>
      </g>
     </g>
    </g>
    <g id="xtick_8">
     <g id="line2d_8">
      <g>
       <use xlink:href="#m890186ad01" x="560.64" y="652.9752" style="stroke: #000000; stroke-width: 0.8"/>
      </g>
     </g>
     <g id="text_8">
      <!-- 0.035 -->
      <g transform="translate(545.589219 667.626762)scale(0.1 -0.1)">
       <use xlink:href="#DejaVuSansMono-30"/>
       <use xlink:href="#DejaVuSansMono-2e" x="60.205078"/>
       <use xlink:href="#DejaVuSansMono-30" x="120.410156"/>
       <use xlink:href="#DejaVuSansMono-33" x="180.615234"/>
       <use xlink:href="#DejaVuSansMono-35" x="240.820312"/>
      </g>
     </g>
    </g>
    <g id="xtick_9">
     <g id="line2d_9">
      <g>
       <use xlink:href="#m890186ad01" x="620.16" y="652.9752" style="stroke: #000000; stroke-width: 0.8"/>
      </g>
     </g>
     <g id="text_9">
      <!-- 0.040 -->
      <g transform="translate(605.109219 667.626762)scale(0.1 -0.1)">
       <defs>
        <path id="DejaVuSansMono-34" d="M 2297 4091 
L 825 1625 
L 2297 1625 
L 2297 4091 
z
M 2194 4666 
L 2925 4666 
L 2925 1625 
L 3547 1625 
L 3547 1113 
L 2925 1113 
L 2925 0 
L 2297 0 
L 2297 1113 
L 319 1113 
L 319 1709 
L 2194 4666 
z
" transform="scale(0.015625)"/>
       </defs>
       <use xlink:href="#DejaVuSansMono-30"/>
       <use xlink:href="#DejaVuSansMono-2e" x="60.205078"/>
       <use xlink:href="#DejaVuSansMono-30" x="120.410156"/>
       <use xlink:href="#DejaVuSansMono-34" x="180.615234"/>
       <use xlink:href="#DejaVuSansMono-30" x="240.820312"/>
      </g>
     </g>
    </g>
    <g id="xtick_10">
     <g id="line2d_10">
      <g>
       <use xlink:href="#m890186ad01" x="679.68" y="652.9752" style="stroke: #000000; stroke-width: 0.8"/>
      </g>
     </g>
     <g id="text_10">
      <!-- 0.045 -->
      <g transform="translate(664.629219 667.626762)scale(0.1 -0.1)">
       <use xlink:href="#DejaVuSansMono-30"/>
       <use xlink:href="#DejaVuSansMono-2e" x="60.205078"/>
       <use xlink:href="#DejaVuSansMono-30" x="120.410156"/>
       <use xlink:href="#DejaVuSansMono-34" x="180.615234"/>
       <use xlink:href="#DejaVuSansMono-35" x="240.820312"/>
      </g>
     </g>
    </g>
    <g id="xtick_11">
     <g id="line2d_11">
      <g>
       <use xlink:href="#m890186ad01" x="739.2" y="652.9752" style="stroke: #000000; stroke-width: 0.8"/>
      </g>
     </g>
     <g id="text_11">
      <!-- 0.050 -->
      <g transform="translate(724.149219 667.626762)scale(0.1 -0.1)">
       <use xlink:href="#DejaVuSansMono-30"/>
       <use xlink:href="#DejaVuSansMono-2e" x="60.205078"/>
       <use xlink:href="#DejaVuSansMono-30" x="120.410156"/>
       <use xlink:href="#DejaVuSansMono-35" x="180.615234"/>
       <use xlink:href="#DejaVuSansMono-30" x="240.820312"/>
      </g>
     </g>
    </g>
    <g id="xtick_12">
     <g id="line2d_12">
      <g>
       <use xlink:href="#m890186ad01" x="798.72" y="652.9752" style="stroke: #000000; stroke-width: 0.8"/>
      </g>
     </g>
     <g id="text_12">
      <!-- 0.055 -->
      <g transform="translate(783.669219 667.626762)scale(0.1 -0.1)">
       <use xlink:href="#DejaVuSansMono-30"/>
       <use xlink:href="#DejaVuSansMono-2e" x="60.205078"/>
       <use xlink:href="#DejaVuSansMono-30" x="120.410156"/>
       <use xlink:href="#DejaVuSansMono-35" x="180.615234"/>
       <use xlink:href="#DejaVuSansMono-35" x="240.820312"/>
      </g>
     </g>
    </g>
    <g id="xtick_13">
     <g id="line2d_13">
      <g>
       <use xlink:href="#m890186ad01" x="858.24" y="652.9752" style="stroke: #000000; stroke-width: 0.8"/>
      </g>
     </g>
     <g id="text_13">
      <!-- 0.060 -->
      <g transform="translate(843.189219 667.626762)scale(0.1 -0.1)">
       <defs>
        <path id="DejaVuSansMono-36" d="M 3097 4563 
L 3097 3981 
Q 2900 4097 2678 4158 
Q 2456 4219 2216 4219 
Q 1616 4219 1306 3767 
Q 997 3316 997 2438 
Q 1147 2750 1412 2917 
Q 1678 3084 2022 3084 
Q 2697 3084 3067 2670 
Q 3438 2256 3438 1497 
Q 3438 741 3056 325 
Q 2675 -91 1984 -91 
Q 1172 -91 794 492 
Q 416 1075 416 2328 
Q 416 3509 870 4129 
Q 1325 4750 2188 4750 
Q 2419 4750 2650 4701 
Q 2881 4653 3097 4563 
z
M 1972 2591 
Q 1569 2591 1337 2300 
Q 1106 2009 1106 1497 
Q 1106 984 1337 693 
Q 1569 403 1972 403 
Q 2391 403 2603 679 
Q 2816 956 2816 1497 
Q 2816 2041 2603 2316 
Q 2391 2591 1972 2591 
z
" transform="scale(0.015625)"/>
       </defs>
       <use xlink:href="#DejaVuSansMono-30"/>
       <use xlink:href="#DejaVuSansMono-2e" x="60.205078"/>
       <use xlink:href="#DejaVuSansMono-30" x="120.410156"/>
       <use xlink:href="#DejaVuSansMono-36" x="180.615234"/>
       <use xlink:href="#DejaVuSansMono-30" x="240.820312"/>
      </g>
     </g>
    </g>
    <g id="xtick_14">
     <g id="line2d_14">
      <g>
       <use xlink:href="#m890186ad01" x="917.76" y="652.9752" style="stroke: #000000; stroke-width: 0.8"/>
      </g>
     </g>
     <g id="text_14">
      <!-- 0.065 -->
      <g transform="translate(902.709219 667.626762)scale(0.1 -0.1)">
       <use xlink:href="#DejaVuSansMono-30"/>
       <use xlink:href="#DejaVuSansMono-2e" x="60.205078"/>
       <use xlink:href="#DejaVuSansMono-30" x="120.410156"/>
       <use xlink:href="#DejaVuSansMono-36" x="180.615234"/>
       <use xlink:href="#DejaVuSansMono-35" x="240.820312"/>
      </g>
     </g>
    </g>
    <g id="xtick_15">
     <g id="line2d_15">
      <g>
       <use xlink:href="#m890186ad01" x="977.28" y="652.9752" style="stroke: #000000; stroke-width: 0.8"/>
      </g>
     </g>
     <g id="text_15">
      <!-- 0.070 -->
      <g transform="translate(962.229219 667.626762)scale(0.1 -0.1)">
       <defs>
        <path id="DejaVuSansMono-37" d="M 434 4666 
L 3372 4666 
L 3372 4397 
L 1703 0 
L 1044 0 
L 2669 4134 
L 434 4134 
L 434 4666 
z
" transform="scale(0.015625)"/>
       </defs>
       <use xlink:href="#DejaVuSansMono-30"/>
       <use xlink:href="#DejaVuSansMono-2e" x="60.205078"/>
       <use xlink:href="#DejaVuSansMono-30" x="120.410156"/>
       <use xlink:href="#DejaVuSansMono-37" x="180.615234"/>
       <use xlink:href="#DejaVuSansMono-30" x="240.820312"/>
      </g>
     </g>
    </g>
    <g id="xtick_16">
     <g id="line2d_16">
      <g>
       <use xlink:href="#m890186ad01" x="1036.8" y="652.9752" style="stroke: #000000; stroke-width: 0.8"/>
      </g>
     </g>
     <g id="text_16">
      <!-- 0.075 -->
      <g transform="translate(1021.749219 667.626762)scale(0.1 -0.1)">
       <use xlink:href="#DejaVuSansMono-30"/>
       <use xlink:href="#DejaVuSansMono-2e" x="60.205078"/>
       <use xlink:href="#DejaVuSansMono-30" x="120.410156"/>
       <use xlink:href="#DejaVuSansMono-37" x="180.615234"/>
       <use xlink:href="#DejaVuSansMono-35" x="240.820312"/>
      </g>
     </g>
    </g>
    <g id="text_17">
     <!-- I/F -->
     <g transform="translate(579.563437 682.888325)scale(0.12 -0.12)">
      <defs>
       <path id="DejaVuSansMono-49" d="M 628 4666 
L 3219 4666 
L 3219 4134 
L 2241 4134 
L 2241 531 
L 3219 531 
L 3219 0 
L 628 0 
L 628 531 
L 1606 531 
L 1606 4134 
L 628 4134 
L 628 4666 
z
" transform="scale(0.015625)"/>
       <path id="DejaVuSansMono-2f" d="M 2778 4666 
L 3372 4666 
L 916 -594 
L 319 -594 
L 2778 4666 
z
" transform="scale(0.015625)"/>
       <path id="DejaVuSansMono-46" d="M 728 4666 
L 3475 4666 
L 3475 4134 
L 1363 4134 
L 1363 2759 
L 3278 2759 
L 3278 2228 
L 1363 2228 
L 1363 0 
L 728 0 
L 728 4666 
z
" transform="scale(0.015625)"/>
      </defs>
      <use xlink:href="#DejaVuSansMono-49"/>
      <use xlink:href="#DejaVuSansMono-2f" x="60.205078"/>
      <use xlink:href="#DejaVuSansMono-46" x="120.410156"/>
     </g>
    </g>
   </g>
   <g id="matplotlib.axis_2">
    <g id="ytick_1">
     <g id="line2d_17">
      <defs>
       <path id="m27c46b1e54" d="M 0 0 
L -3.5 0 
" style="stroke: #000000; stroke-width: 0.8"/>
      </defs>
      <g>
       <use xlink:href="#m27c46b1e54" x="144" y="621.59" style="stroke: #000000; stroke-width: 0.8"/>
      </g>
     </g>
     <g id="text_18">
      <!-- −80 -->
      <g transform="translate(118.939063 625.415781)scale(0.1 -0.1)">
       <defs>
        <path id="DejaVuSansMono-2212" d="M 275 2272 
L 3578 2272 
L 3578 1741 
L 275 1741 
L 275 2272 
z
" transform="scale(0.015625)"/>
        <path id="DejaVuSansMono-38" d="M 1925 2216 
Q 1503 2216 1273 1980 
Q 1044 1744 1044 1313 
Q 1044 881 1276 642 
Q 1509 403 1925 403 
Q 2350 403 2579 639 
Q 2809 875 2809 1313 
Q 2809 1741 2576 1978 
Q 2344 2216 1925 2216 
z
M 1375 2478 
Q 972 2581 745 2862 
Q 519 3144 519 3541 
Q 519 4097 897 4423 
Q 1275 4750 1925 4750 
Q 2578 4750 2956 4423 
Q 3334 4097 3334 3541 
Q 3334 3144 3107 2862 
Q 2881 2581 2478 2478 
Q 2947 2375 3195 2062 
Q 3444 1750 3444 1253 
Q 3444 622 3041 265 
Q 2638 -91 1925 -91 
Q 1213 -91 811 264 
Q 409 619 409 1247 
Q 409 1747 657 2061 
Q 906 2375 1375 2478 
z
M 1147 3481 
Q 1147 3106 1347 2909 
Q 1547 2713 1925 2713 
Q 2306 2713 2506 2909 
Q 2706 3106 2706 3481 
Q 2706 3863 2507 4063 
Q 2309 4263 1925 4263 
Q 1547 4263 1347 4061 
Q 1147 3859 1147 3481 
z
" transform="scale(0.015625)"/>
       </defs>
       <use xlink:href="#DejaVuSansMono-2212"/>
       <use xlink:href="#DejaVuSansMono-38" x="60.205078"/>
       <use xlink:href="#DejaVuSansMono-30" x="120.410156"/>
      </g>
     </g>
    </g>
    <g id="ytick_2">
     <g id="line2d_18">
      <g>
       <use xlink:href="#m27c46b1e54" x="144" y="558.8196" style="stroke: #000000; stroke-width: 0.8"/>
      </g>
     </g>
     <g id="text_19">
      <!-- −60 -->
      <g transform="translate(118.939063 562.645381)scale(0.1 -0.1)">
       <use xlink:href="#DejaVuSansMono-2212"/>
       <use xlink:href="#DejaVuSansMono-36" x="60.205078"/>
       <use xlink:href="#DejaVuSansMono-30" x="120.410156"/>
      </g>
     </g>
    </g>
    <g id="ytick_3">
     <g id="line2d_19">
      <g>
       <use xlink:href="#m27c46b1e54" x="144" y="496.0492" style="stroke: #000000; stroke-width: 0.8"/>
      </g>
     </g>
     <g id="text_20">
      <!-- −40 -->
      <g transform="translate(118.939063 499.874981)scale(0.1 -0.1)">
       <use xlink:href="#DejaVuSansMono-2212"/>
       <use xlink:href="#DejaVuSansMono-34" x="60.205078"/>
       <use xlink:href="#DejaVuSansMono-30" x="120.410156"/>
      </g>
     </g>
    </g>
    <g id="ytick_4">
     <g id="line2d_20">
      <g>
       <use xlink:href="#m27c46b1e54" x="144" y="433.2788" style="stroke: #000000; stroke-width: 0.8"/>
      </g>
     </g>
     <g id="text_21">
      <!-- −20 -->
      <g transform="translate(118.939063 437.104581)scale(0.1 -0.1)">
       <use xlink:href="#DejaVuSansMono-2212"/>
       <use xlink:href="#DejaVuSansMono-32" x="60.205078"/>
       <use xlink:href="#DejaVuSansMono-30" x="120.410156"/>
      </g>
     </g>
    </g>
    <g id="ytick_5">
     <g id="line2d_21">
      <g>
       <use xlink:href="#m27c46b1e54" x="144" y="370.5084" style="stroke: #000000; stroke-width: 0.8"/>
      </g>
     </g>
     <g id="text_22">
      <!-- 0 -->
      <g transform="translate(130.979688 374.334181)scale(0.1 -0.1)">
       <use xlink:href="#DejaVuSansMono-30"/>
      </g>
     </g>
    </g>
    <g id="ytick_6">
     <g id="line2d_22">
      <g>
       <use xlink:href="#m27c46b1e54" x="144" y="307.738" style="stroke: #000000; stroke-width: 0.8"/>
      </g>
     </g>
     <g id="text_23">
      <!-- 20 -->
      <g transform="translate(124.959375 311.563781)scale(0.1 -0.1)">
       <use xlink:href="#DejaVuSansMono-32"/>
       <use xlink:href="#DejaVuSansMono-30" x="60.205078"/>
      </g>
     </g>
    </g>
    <g id="ytick_7">
     <g id="line2d_23">
      <g>
       <use xlink:href="#m27c46b1e54" x="144" y="244.9676" style="stroke: #000000; stroke-width: 0.8"/>
      </g>
     </g>
     <g id="text_24">
      <!-- 40 -->
      <g transform="translate(124.959375 248.793381)scale(0.1 -0.1)">
       <use xlink:href="#DejaVuSansMono-34"/>
       <use xlink:href="#DejaVuSansMono-30" x="60.205078"/>
      </g>
     </g>
    </g>
    <g id="ytick_8">
     <g id="line2d_24">
      <g>
       <use xlink:href="#m27c46b1e54" x="144" y="182.1972" style="stroke: #000000; stroke-width: 0.8"/>
      </g>
     </g>
     <g id="text_25">
      <!-- 60 -->
      <g transform="translate(124.959375 186.022981)scale(0.1 -0.1)">
       <use xlink:href="#DejaVuSansMono-36"/>
       <use xlink:href="#DejaVuSansMono-30" x="60.205078"/>
      </g>
     </g>
    </g>
    <g id="ytick_9">
     <g id="line2d_25">
      <g>
       <use xlink:href="#m27c46b1e54" x="144" y="119.4268" style="stroke: #000000; stroke-width: 0.8"/>
      </g>
     </g>
     <g id="text_26">
      <!-- 80 -->
      <g transform="translate(124.959375 123.252581)scale(0.1 -0.1)">
       <use xlink:href="#DejaVuSansMono-38"/>
       <use xlink:href="#DejaVuSansMono-30" x="60.205078"/>
      </g>
     </g>
    </g>
    <g id="text_27">
     <!-- Latitude (°) -->
     <g transform="translate(112.443438 413.85465)rotate(-90)scale(0.12 -0.12)">
      <defs>
       <path id="DejaVuSansMono-4c" d="M 672 4666 
L 1306 4666 
L 1306 531 
L 3559 531 
L 3559 0 
L 672 0 
L 672 4666 
z
" transform="scale(0.015625)"/>
       <path id="DejaVuSansMono-61" d="M 2194 1759 
L 2003 1759 
Q 1500 1759 1245 1582 
Q 991 1406 991 1056 
Q 991 741 1181 566 
Q 1372 391 1709 391 
Q 2184 391 2456 720 
Q 2728 1050 2731 1631 
L 2731 1759 
L 2194 1759 
z
M 3309 1997 
L 3309 0 
L 2731 0 
L 2731 519 
Q 2547 206 2267 57 
Q 1988 -91 1588 -91 
Q 1053 -91 734 211 
Q 416 513 416 1019 
Q 416 1603 808 1906 
Q 1200 2209 1959 2209 
L 2731 2209 
L 2731 2300 
Q 2728 2719 2518 2908 
Q 2309 3097 1850 3097 
Q 1556 3097 1256 3012 
Q 956 2928 672 2766 
L 672 3341 
Q 991 3463 1283 3523 
Q 1575 3584 1850 3584 
Q 2284 3584 2592 3456 
Q 2900 3328 3091 3072 
Q 3209 2916 3259 2686 
Q 3309 2456 3309 1997 
z
" transform="scale(0.015625)"/>
       <path id="DejaVuSansMono-74" d="M 1919 4494 
L 1919 3500 
L 3225 3500 
L 3225 3053 
L 1919 3053 
L 1919 1153 
Q 1919 766 2066 612 
Q 2213 459 2578 459 
L 3225 459 
L 3225 0 
L 2522 0 
Q 1875 0 1609 259 
Q 1344 519 1344 1153 
L 1344 3053 
L 409 3053 
L 409 3500 
L 1344 3500 
L 1344 4494 
L 1919 4494 
z
" transform="scale(0.015625)"/>
       <path id="DejaVuSansMono-69" d="M 800 3500 
L 2272 3500 
L 2272 447 
L 3413 447 
L 3413 0 
L 556 0 
L 556 447 
L 1697 447 
L 1697 3053 
L 800 3053 
L 800 3500 
z
M 1697 4863 
L 2272 4863 
L 2272 4134 
L 1697 4134 
L 1697 4863 
z
" transform="scale(0.015625)"/>
       <path id="DejaVuSansMono-75" d="M 609 1325 
L 609 3494 
L 1184 3494 
L 1184 1325 
Q 1184 853 1351 631 
Q 1519 409 1869 409 
Q 2275 409 2490 695 
Q 2706 981 2706 1516 
L 2706 3494 
L 3284 3494 
L 3284 0 
L 2706 0 
L 2706 525 
Q 2553 222 2289 65 
Q 2025 -91 1672 -91 
Q 1134 -91 871 261 
Q 609 613 609 1325 
z
" transform="scale(0.015625)"/>
       <path id="DejaVuSansMono-64" d="M 2681 3053 
L 2681 4863 
L 3256 4863 
L 3256 0 
L 2681 0 
L 2681 441 
Q 2538 181 2298 45 
Q 2059 -91 1747 -91 
Q 1113 -91 748 401 
Q 384 894 384 1759 
Q 384 2613 750 3098 
Q 1116 3584 1747 3584 
Q 2063 3584 2303 3448 
Q 2544 3313 2681 3053 
z
M 991 1747 
Q 991 1078 1203 737 
Q 1416 397 1831 397 
Q 2247 397 2464 740 
Q 2681 1084 2681 1747 
Q 2681 2413 2464 2755 
Q 2247 3097 1831 3097 
Q 1416 3097 1203 2756 
Q 991 2416 991 1747 
z
" transform="scale(0.015625)"/>
       <path id="DejaVuSansMono-65" d="M 3475 1894 
L 3475 1613 
L 984 1613 
L 984 1594 
Q 984 1022 1282 709 
Q 1581 397 2125 397 
Q 2400 397 2700 484 
Q 3000 572 3341 750 
L 3341 178 
Q 3013 44 2708 -23 
Q 2403 -91 2119 -91 
Q 1303 -91 843 398 
Q 384 888 384 1747 
Q 384 2584 834 3084 
Q 1284 3584 2034 3584 
Q 2703 3584 3089 3131 
Q 3475 2678 3475 1894 
z
M 2900 2063 
Q 2888 2569 2661 2833 
Q 2434 3097 2009 3097 
Q 1594 3097 1325 2822 
Q 1056 2547 1006 2059 
L 2900 2063 
z
" transform="scale(0.015625)"/>
       <path id="DejaVuSansMono-20" transform="scale(0.015625)"/>
       <path id="DejaVuSansMono-28" d="M 2766 4856 
Q 2350 4144 2145 3436 
Q 1941 2728 1941 2009 
Q 1941 1294 2145 584 
Q 2350 -125 2766 -844 
L 2266 -844 
Q 1794 -100 1562 604 
Q 1331 1309 1331 2009 
Q 1331 2706 1562 3412 
Q 1794 4119 2266 4856 
L 2766 4856 
z
" transform="scale(0.015625)"/>
       <path id="DejaVuSansMono-b0" d="M 1925 4750 
Q 2128 4750 2311 4673 
Q 2494 4597 2631 4453 
Q 2772 4313 2845 4134 
Q 2919 3956 2919 3750 
Q 2919 3338 2628 3052 
Q 2338 2766 1919 2766 
Q 1497 2766 1215 3047 
Q 934 3328 934 3750 
Q 934 4169 1221 4459 
Q 1509 4750 1925 4750 
z
M 1925 4347 
Q 1678 4347 1504 4173 
Q 1331 4000 1331 3750 
Q 1331 3500 1501 3331 
Q 1672 3163 1919 3163 
Q 2169 3163 2345 3334 
Q 2522 3506 2522 3750 
Q 2522 3997 2347 4172 
Q 2172 4347 1925 4347 
z
" transform="scale(0.015625)"/>
       <path id="DejaVuSansMono-29" d="M 1088 4856 
L 1588 4856 
Q 2059 4119 2290 3412 
Q 2522 2706 2522 2009 
Q 2522 1306 2290 600 
Q 2059 -106 1588 -844 
L 1088 -844 
Q 1503 -119 1708 590 
Q 1913 1300 1913 2009 
Q 1913 2722 1708 3431 
Q 1503 4141 1088 4856 
z
" transform="scale(0.015625)"/>
      </defs>
      <use xlink:href="#DejaVuSansMono-4c"/>
      <use xlink:href="#DejaVuSansMono-61" x="60.205078"/>
      <use xlink:href="#DejaVuSansMono-74" x="120.410156"/>
      <use xlink:href="#DejaVuSansMono-69" x="180.615234"/>
      <use xlink:href="#DejaVuSansMono-74" x="240.820312"/>
      <use xlink:href="#DejaVuSansMono-75" x="301.025391"/>
      <use xlink:href="#DejaVuSansMono-64" x="361.230469"/>
      <use xlink:href="#DejaVuSansMono-65" x="421.435547"/>
      <use xlink:href="#DejaVuSansMono-20" x="481.640625"/>
      <use xlink:href="#DejaVuSansMono-28" x="541.845703"/>
      <use xlink:href="#DejaVuSansMono-b0" x="602.050781"/>
      <use xlink:href="#DejaVuSansMono-29" x="662.255859"/>
     </g>
    </g>
   </g>
   <g id="line2d_26">
    <path d="M 563.5745 92.74938 
L 563.5745 97.45716 
L 571.695291 99.02642 
L 575.85981 100.59568 
L 563.827626 102.16494 
L 565.39543 103.7342 
L 566.310019 105.30346 
L 566.310019 106.87272 
L 578.076792 108.44198 
L 577.30921 110.01124 
L 576.32114 111.5805 
L 576.21094 113.14976 
L 575.802648 114.71902 
L 569.074096 116.28828 
L 569.155781 117.85754 
L 570.486777 119.4268 
L 571.474803 120.99606 
L 571.789171 122.56532 
L 573.303936 124.13458 
L 574.157239 125.70384 
L 574.765576 127.2731 
L 574.994223 128.84236 
L 575.590364 130.41162 
L 575.95369 133.55014 
L 576.472226 135.1194 
L 577.158123 136.68866 
L 578.215595 138.25792 
L 578.791293 139.82718 
L 579.648675 142.9657 
L 580.849029 144.53496 
L 581.845259 146.10422 
L 582.367875 147.67348 
L 588.190042 152.38126 
L 588.900418 153.95052 
L 590.647911 155.51978 
L 591.554296 157.08904 
L 592.146313 158.6583 
L 593.599793 160.22756 
L 596.384314 161.79682 
L 597.2499 163.36608 
L 600.369143 166.5046 
L 600.838722 168.07386 
L 602.308521 169.64312 
L 604.39078 171.21238 
L 606.068828 172.78164 
L 607.183461 174.3509 
L 612.107358 179.05868 
L 615.826823 180.62794 
L 617.231345 182.1972 
L 619.38305 183.76646 
L 620.550721 185.33572 
L 623.739409 188.47424 
L 624.768322 190.0435 
L 626.683132 191.61276 
L 631.451908 194.75128 
L 632.444057 196.32054 
L 635.281616 197.8898 
L 636.812701 199.45906 
L 638.131502 201.02832 
L 639.703385 202.59758 
L 642.614469 204.16684 
L 645.786839 207.30536 
L 647.166837 208.87462 
L 658.464121 210.44388 
L 659.158223 212.01314 
L 659.505229 213.5824 
L 663.339061 219.85944 
L 666.568548 221.4287 
L 667.642339 224.56722 
L 668.381318 226.13648 
L 668.552848 227.70574 
L 669.41431 229.275 
L 669.704199 230.84426 
L 670.671826 232.41352 
L 672.85209 237.1213 
L 673.211336 238.69056 
L 674.248452 240.25982 
L 674.905746 241.82908 
L 675.950978 243.39834 
L 676.081621 244.9676 
L 676.040779 246.53686 
L 676.453151 248.10612 
L 676.649115 249.67538 
L 677.016565 251.24464 
L 677.192174 252.8139 
L 678.310843 255.95242 
L 679.115188 257.52168 
L 679.462194 259.09094 
L 680.26654 260.6602 
L 680.760597 262.22946 
L 680.944322 263.79872 
L 680.597271 266.93724 
L 680.687071 268.5065 
L 680.60951 271.64502 
L 680.883036 273.21428 
L 680.883036 274.78354 
L 681.405696 277.92206 
L 681.71186 279.49132 
L 681.769022 281.06058 
L 682.022192 282.62984 
L 682.614165 284.1991 
L 682.618245 285.76836 
L 682.773411 287.33762 
L 682.810174 288.90688 
L 682.569287 290.47614 
L 683.079619 293.61466 
L 682.871415 295.18392 
L 683.05514 296.75318 
L 682.985739 298.32244 
L 683.308266 299.8917 
L 683.206182 301.46096 
L 683.867645 303.03022 
L 684.688265 306.16874 
L 684.851591 307.738 
L 684.87607 309.30726 
L 684.578021 310.87652 
L 684.663786 312.44578 
L 684.116647 314.01504 
L 684.14525 315.5843 
L 683.961525 317.15356 
L 684.13301 318.72282 
L 684.647467 320.29208 
L 684.916912 323.4306 
L 685.304761 326.56912 
L 685.361967 328.13838 
L 685.708973 329.70764 
L 685.398685 331.2769 
L 685.896778 332.84616 
L 685.121036 334.41542 
L 682.544764 335.98468 
L 681.61798 337.55394 
L 681.687381 339.1232 
L 680.723834 340.69246 
L 679.233592 342.26172 
L 678.80082 343.83098 
L 678.216963 345.40024 
L 678.216963 346.9695 
L 677.792307 348.53876 
L 677.494258 350.10802 
L 677.477939 351.67728 
L 677.081931 353.24654 
L 676.82468 354.8158 
L 675.779449 356.38506 
L 674.950669 357.95432 
L 673.652311 361.09284 
L 673.288941 362.6621 
L 672.684684 364.23136 
L 672.22739 365.80062 
L 671.521049 367.36988 
L 669.798124 368.93914 
L 656.377738 370.5084 
L 655.867405 372.07766 
L 654.532285 373.64692 
L 652.409227 376.78544 
L 651.882531 378.3547 
L 651.625325 379.92396 
L 650.604617 383.06248 
L 649.853354 384.63174 
L 650.077921 386.201 
L 649.138853 387.77026 
L 649.106215 389.33952 
L 648.710162 390.90878 
L 648.608078 392.47804 
L 649.498143 394.0473 
L 649.73087 395.61656 
L 649.391979 397.18582 
L 649.669629 398.75508 
L 649.049053 400.32434 
L 647.697613 401.8936 
L 646.921871 405.03212 
L 646.864709 406.60138 
L 647.522048 409.7399 
L 647.346482 411.30916 
L 647.607812 412.87842 
L 647.342402 414.44768 
L 647.599608 416.01694 
L 647.391405 417.5862 
L 647.505684 419.15546 
L 647.395484 420.72472 
L 647.452646 422.29398 
L 647.370961 423.86324 
L 646.84431 425.4325 
L 646.762625 428.57102 
L 646.366616 431.70954 
L 646.362536 434.84806 
L 645.827681 437.98658 
L 644.447638 442.69436 
L 644.349678 444.26362 
L 643.851585 445.83288 
L 643.308526 448.9714 
L 642.936996 450.54066 
L 642.810433 452.10992 
L 642.438859 453.67918 
L 642.365378 455.24844 
L 642.128616 456.8177 
L 642.287817 458.38696 
L 641.985689 461.52548 
L 641.97345 463.09474 
L 641.458993 464.664 
L 641.512075 466.23326 
L 641.189548 467.80252 
L 640.295403 469.37178 
L 639.968795 470.94104 
L 641.928527 472.5103 
L 641.663162 474.07956 
L 641.258949 478.78734 
L 640.789415 480.3566 
L 640.695491 481.92586 
L 640.417886 483.49512 
L 640.491367 485.06438 
L 639.666667 489.77216 
L 638.143742 494.47994 
L 637.233277 496.0492 
L 636.841304 497.61846 
L 635.379664 499.18772 
L 634.812126 500.75698 
L 633.089157 503.8955 
L 632.533902 505.46476 
L 631.6602 507.03402 
L 631.40295 508.60328 
L 630.280157 510.17254 
L 629.606499 511.7418 
L 628.728673 513.31106 
L 628.267299 514.88032 
L 627.97333 516.44958 
L 626.683132 518.01884 
L 625.225616 521.15736 
L 624.102824 522.72662 
L 625.564463 524.29588 
L 624.760118 525.86514 
L 624.151826 529.00366 
L 623.229077 530.57292 
L 622.530896 532.14218 
L 621.710276 533.71144 
L 621.559145 535.2807 
L 620.995776 536.84996 
L 620.297595 538.41922 
L 619.787218 539.98848 
L 618.443982 541.55774 
L 618.084648 543.127 
L 618.068373 544.69626 
L 617.704958 546.26552 
L 617.031301 547.83478 
L 616.492365 549.40404 
L 616.565846 550.9733 
L 615.59006 554.11182 
L 613.842567 555.68108 
L 613.548599 557.25034 
L 611.666428 558.8196 
L 608.832905 563.52738 
L 608.767628 565.09664 
L 607.661154 566.6659 
L 608.098005 568.23516 
L 607.130379 569.80442 
L 605.832021 571.37368 
L 604.680669 572.94294 
L 603.802843 574.5122 
L 601.887989 579.21998 
L 601.23881 580.78924 
L 600.287503 583.92776 
L 600.271183 587.06628 
L 600.458988 588.63554 
L 598.911628 591.77406 
L 598.687061 593.34332 
L 595.367685 598.0511 
L 594.816466 599.62036 
L 593.305824 601.18962 
L 592.979217 602.75888 
L 592.795492 604.32814 
L 591.864584 605.8974 
L 591.542012 610.60518 
L 590.202856 612.17444 
L 589.541438 613.7437 
L 588.332924 615.31296 
L 588.520729 616.88222 
L 588.010353 618.45148 
L 589.137225 620.02074 
L 589.753721 621.59 
L 586.454789 623.15926 
L 586.43031 624.72852 
L 586.732438 626.29778 
L 590.598909 627.86704 
L 590.541747 629.4363 
L 587.716384 631.00556 
L 587.830708 632.57482 
L 585.168715 634.14408 
L 585.087029 635.71334 
L 584.568538 637.2826 
L 581.151157 638.85186 
L 586.952926 640.42112 
L 586.030177 641.99038 
L 585.728049 643.55964 
L 583.572308 645.1289 
L 583.743749 646.69816 
L 574.287882 648.26742 
L 573.589701 649.83668 
L 573.373338 652.9752 
L 573.373338 652.9752 
" clip-path="url(#pa0b0371259)" style="fill: none; stroke: #bf1a00; stroke-width: 1.5; stroke-linecap: square"/>
   </g>
   <g id="line2d_27">
    <path d="M 552.865286 92.74938 
L 552.865286 99.02642 
L 554.612557 100.59568 
L 554.098678 102.16494 
L 554.690695 103.7342 
L 555.03606 105.30346 
L 555.03606 106.87272 
L 555.471803 108.44198 
L 555.504707 111.5805 
L 555.623953 114.71902 
L 559.040402 116.28828 
L 559.188429 117.85754 
L 558.89242 119.4268 
L 559.110336 120.99606 
L 559.78457 124.13458 
L 559.805102 125.70384 
L 560.269714 127.2731 
L 560.290246 128.84236 
L 560.6808 130.41162 
L 561.165944 133.55014 
L 562.206076 136.68866 
L 564.335741 139.82718 
L 564.796184 141.39644 
L 566.522923 144.53496 
L 567.36576 146.10422 
L 568.068775 147.67348 
L 569.199373 149.24274 
L 570.642387 150.812 
L 571.337242 152.38126 
L 571.83467 155.51978 
L 572.508904 157.08904 
L 573.438083 158.6583 
L 574.108193 160.22756 
L 574.235643 161.79682 
L 574.478215 163.36608 
L 575.604688 166.5046 
L 576.883312 169.64312 
L 577.286194 171.21238 
L 578.531914 172.78164 
L 579.070494 174.3509 
L 579.847522 175.92016 
L 580.932887 177.48942 
L 581.882598 179.05868 
L 584.143793 180.62794 
L 584.485034 182.1972 
L 585.274391 183.76646 
L 585.706098 185.33572 
L 587.387604 188.47424 
L 589.360994 191.61276 
L 589.985916 193.18202 
L 591.375494 194.75128 
L 591.700327 196.32054 
L 593.221478 197.8898 
L 595.133228 201.02832 
L 594.808439 204.16684 
L 595.277086 205.7361 
L 595.515578 207.30536 
L 596.074691 208.87462 
L 593.702498 210.44388 
L 594.319171 212.01314 
L 594.602852 213.5824 
L 597.793181 219.85944 
L 597.534202 221.4287 
L 600.148966 226.13648 
L 600.597081 227.70574 
L 601.620761 229.275 
L 601.998987 230.84426 
L 603.816191 233.98278 
L 604.358896 235.55204 
L 605.349715 237.1213 
L 605.703285 238.69056 
L 606.472109 240.25982 
L 606.920224 241.82908 
L 607.894591 243.39834 
L 608.897738 248.10612 
L 608.971707 249.67538 
L 609.391086 252.8139 
L 610.098225 254.38316 
L 610.332593 255.95242 
L 611.397381 259.09094 
L 611.586472 260.6602 
L 612.063367 262.22946 
L 612.388156 265.36798 
L 612.318312 266.93724 
L 613.004919 271.64502 
L 613.395428 273.21428 
L 613.670905 276.3528 
L 613.909352 277.92206 
L 613.880572 279.49132 
L 613.975162 282.62984 
L 614.345139 284.1991 
L 613.843587 285.76836 
L 614.02035 287.33762 
L 613.724341 288.90688 
L 613.60922 290.47614 
L 613.370772 292.0454 
L 612.754098 293.61466 
L 610.760131 306.16874 
L 610.238003 307.738 
L 610.114677 309.30726 
L 608.285145 315.5843 
L 608.034369 317.15356 
L 607.240889 318.72282 
L 607.092906 320.29208 
L 605.92528 321.86134 
L 604.531579 324.99986 
L 603.244706 328.13838 
L 602.924041 329.70764 
L 602.426614 331.2769 
L 602.188122 332.84616 
L 601.250783 334.41542 
L 597.118947 335.98468 
L 596.317263 337.55394 
L 593.501035 342.26172 
L 593.118685 343.83098 
L 591.868886 346.9695 
L 591.346713 348.53876 
L 590.446359 350.10802 
L 590.039353 351.67728 
L 589.467912 353.24654 
L 589.093766 354.8158 
L 587.753501 357.95432 
L 587.404012 359.52358 
L 586.478957 361.09284 
L 586.055543 362.6621 
L 583.876565 367.36988 
L 578.601803 368.93914 
L 555.924086 370.5084 
L 555.138854 372.07766 
L 554.074021 373.64692 
L 552.367815 376.78544 
L 550.858991 379.92396 
L 550.328659 381.49322 
L 549.670833 383.06248 
L 548.840368 384.63174 
L 548.462142 386.201 
L 547.500103 387.77026 
L 547.204094 389.33952 
L 546.455802 390.90878 
L 546.122809 392.47804 
L 546.953274 394.0473 
L 546.776512 395.61656 
L 545.666491 397.18582 
L 545.370482 398.75508 
L 544.803121 400.32434 
L 544.075406 403.46286 
L 544.063077 405.03212 
L 543.878067 406.60138 
L 543.927379 408.17064 
L 543.85341 409.7399 
L 544.33443 419.15546 
L 544.227512 420.72472 
L 544.305649 422.29398 
L 543.915095 430.14028 
L 543.528621 431.70954 
L 543.417624 433.2788 
L 542.274653 437.98658 
L 541.982769 439.55584 
L 541.834787 441.1251 
L 541.505874 442.69436 
L 541.407204 444.26362 
L 541.008402 445.83288 
L 540.510974 448.9714 
L 540.157361 452.10992 
L 539.713326 453.67918 
L 539.58592 455.24844 
L 539.182993 456.8177 
L 538.619757 461.52548 
L 537.5508 466.23326 
L 537.172574 467.80252 
L 536.416167 469.37178 
L 536.009116 470.94104 
L 536.325701 472.5103 
L 535.811777 474.07956 
L 535.585658 475.64882 
L 534.911379 477.21808 
L 534.755193 478.78734 
L 534.191956 480.3566 
L 533.410804 483.49512 
L 533.044862 485.06438 
L 532.835195 486.63364 
L 532.222645 488.2029 
L 532.078743 489.77216 
L 530.656261 492.91068 
L 530.068324 494.47994 
L 529.188502 496.0492 
L 528.954178 497.61846 
L 527.835909 499.18772 
L 527.486464 500.75698 
L 525.899503 503.8955 
L 525.303361 505.46476 
L 524.061766 507.03402 
L 523.868507 508.60328 
L 522.72975 510.17254 
L 522.404961 511.7418 
L 521.299019 513.31106 
L 520.69055 514.88032 
L 518.972015 518.01884 
L 517.944211 519.5881 
L 516.608026 521.15736 
L 515.666564 522.72662 
L 517.031529 524.29588 
L 514.91009 527.4344 
L 514.009736 529.00366 
L 511.925325 532.14218 
L 510.338387 533.71144 
L 506.56012 539.98848 
L 504.701851 541.55774 
L 504.451053 543.127 
L 503.061409 544.69626 
L 502.35019 546.26552 
L 499.521657 549.40404 
L 498.49383 550.9733 
L 496.783522 552.54256 
L 496.096937 554.11182 
L 494.431883 555.68108 
L 493.860398 557.25034 
L 492.05969 558.8196 
L 489.510713 561.95812 
L 487.940182 563.52738 
L 487.335837 565.09664 
L 485.65433 566.6659 
L 485.054087 568.23516 
L 482.829899 569.80442 
L 481.773292 571.37368 
L 480.478238 572.94294 
L 479.536775 574.5122 
L 477.999149 576.08146 
L 475.906535 577.65072 
L 474.664917 579.21998 
L 473.032746 580.78924 
L 472.157048 582.3585 
L 470.718114 583.92776 
L 469.743747 585.49702 
L 468.510356 587.06628 
L 467.51131 588.63554 
L 465.805148 590.2048 
L 464.41965 591.77406 
L 463.461713 593.34332 
L 460.703068 596.48184 
L 458.799567 598.0511 
L 458.236308 599.62036 
L 456.591808 601.18962 
L 456.143693 602.75888 
L 454.236046 604.32814 
L 453.467244 605.8974 
L 452.270881 607.46666 
L 450.519486 609.03592 
L 450.050772 610.60518 
L 448.134921 612.17444 
L 447.497693 613.7437 
L 445.680511 615.31296 
L 445.220045 616.88222 
L 443.427541 620.02074 
L 443.485102 621.59 
L 442.745081 623.15926 
L 442.650513 624.72852 
L 440.820981 626.29778 
L 440.660648 627.86704 
L 440.335859 629.4363 
L 438.502247 631.00556 
L 438.485795 632.57482 
L 437.182536 634.14408 
L 436.808413 635.71334 
L 435.139212 638.85186 
L 434.925443 640.42112 
L 433.86061 641.99038 
L 435.546241 643.55964 
L 435.159789 645.1289 
L 434.510211 646.69816 
L 434.855532 648.26742 
L 433.979834 649.83668 
L 433.979834 652.9752 
L 433.979834 652.9752 
" clip-path="url(#pa0b0371259)" style="fill: none; stroke-dasharray: 1.5,1.5; stroke-dashoffset: 0; stroke: #bf1a00; stroke-width: 1.5"/>
   </g>
   <g id="line2d_28">
    <path d="M 716.759809 92.74938 
L 716.759809 97.45716 
L 682.394209 99.02642 
L 680.558468 100.59568 
L 703.581151 102.16494 
L 702.959157 103.7342 
L 702.596319 105.30346 
L 702.596319 106.87272 
L 727.545519 108.44198 
L 727.631905 110.01124 
L 723.411731 111.5805 
L 723.001399 113.14976 
L 721.239095 114.71902 
L 724.608227 116.28828 
L 724.901974 117.85754 
L 722.457142 119.4268 
L 720.919405 120.99606 
L 720.150537 122.56532 
L 720.41404 124.13458 
L 718.759674 127.2731 
L 718.370938 128.84236 
L 716.306239 131.98088 
L 715.761982 133.55014 
L 714.86358 135.1194 
L 714.332272 136.68866 
L 713.675732 138.25792 
L 712.435999 139.82718 
L 711.420922 141.39644 
L 710.12079 142.9657 
L 709.360569 144.53496 
L 707.641458 146.10422 
L 707.952456 147.67348 
L 707.930815 149.24274 
L 707.645715 150.812 
L 707.874673 152.38126 
L 708.380083 153.95052 
L 710.652054 157.08904 
L 710.064649 158.6583 
L 709.675913 160.22756 
L 708.112234 161.79682 
L 708.129529 163.36608 
L 707.343365 164.93534 
L 707.857422 166.5046 
L 707.805582 168.07386 
L 708.332544 169.64312 
L 709.602432 171.21238 
L 710.397243 172.78164 
L 710.608905 174.3509 
L 711.04518 175.92016 
L 712.45764 179.05868 
L 712.967307 180.62794 
L 713.174623 182.1972 
L 713.524512 183.76646 
L 713.45112 185.33572 
L 714.483447 190.0435 
L 714.686462 191.61276 
L 714.479101 193.18202 
L 714.660564 194.75128 
L 714.466152 196.32054 
L 714.682117 197.8898 
L 714.042871 199.45906 
L 714.008326 201.02832 
L 712.384159 202.59758 
L 709.779549 204.16684 
L 708.112234 205.7361 
L 703.149179 207.30536 
L 702.073658 208.87462 
L 700.432285 210.44388 
L 698.069494 212.01314 
L 695.020007 215.15166 
L 692.514688 218.29018 
L 688.346399 224.56722 
L 687.318373 226.13648 
L 684.363919 232.41352 
L 683.495672 233.98278 
L 679.457006 240.25982 
L 678.619002 241.82908 
L 677.457052 243.39834 
L 676.804813 244.9676 
L 675.802686 246.53686 
L 674.191556 248.10612 
L 673.906457 249.67538 
L 672.247833 251.24464 
L 671.63014 252.8139 
L 670.52003 254.38316 
L 669.733911 255.95242 
L 669.250142 257.52168 
L 668.472626 259.09094 
L 667.142206 260.6602 
L 666.127174 262.22946 
L 665.276221 263.79872 
L 664.217952 265.36798 
L 662.943718 266.93724 
L 661.937244 268.5065 
L 661.172722 270.07576 
L 660.61117 271.64502 
L 659.224653 273.21428 
L 658.654454 274.78354 
L 657.466606 276.3528 
L 656.654589 277.92206 
L 655.298271 279.49132 
L 653.691399 281.06058 
L 652.564038 284.1991 
L 650.564173 285.76836 
L 649.47566 287.33762 
L 648.024309 288.90688 
L 647.475706 290.47614 
L 642.858238 296.75318 
L 642.162807 298.32244 
L 641.091588 299.8917 
L 640.435048 301.46096 
L 637.934074 306.16874 
L 636.906004 307.738 
L 636.0335 309.30726 
L 635.433101 310.87652 
L 633.839178 314.01504 
L 632.163304 318.72282 
L 631.856564 320.29208 
L 630.366365 321.86134 
L 627.843796 324.99986 
L 626.435682 326.56912 
L 625.316925 328.13838 
L 623.982203 329.70764 
L 622.405619 332.84616 
L 620.807395 334.41542 
L 617.706023 335.98468 
L 615.066823 339.1232 
L 613.494586 340.69246 
L 611.550818 342.26172 
L 611.127492 343.83098 
L 609.922394 345.40024 
L 609.06714 346.9695 
L 608.34581 348.53876 
L 606.881465 350.10802 
L 606.54457 351.67728 
L 604.643995 354.8158 
L 604.466922 356.38506 
L 604.15588 357.95432 
L 603.101957 359.52358 
L 601.585861 361.09284 
L 600.501649 362.6621 
L 599.845064 364.23136 
L 597.171364 367.36988 
L 591.780682 368.93914 
L 574.584911 370.5084 
L 574.671297 372.07766 
L 574.040654 373.64692 
L 573.552584 375.21618 
L 572.93489 376.78544 
L 571.077508 379.92396 
L 569.768729 381.49322 
L 568.07117 383.06248 
L 567.138177 384.63174 
L 565.941682 386.201 
L 561.691353 390.90878 
L 561.483992 392.47804 
L 558.594283 394.0473 
L 557.471269 395.61656 
L 555.644086 397.18582 
L 554.892557 398.75508 
L 553.765108 400.32434 
L 553.968168 401.8936 
L 553.566439 403.46286 
L 553.609632 405.03212 
L 553.255441 406.60138 
L 553.531893 408.17064 
L 553.324576 409.7399 
L 553.25114 411.30916 
L 552.922847 412.87842 
L 552.46063 414.44768 
L 549.90356 417.5862 
L 549.570921 419.15546 
L 548.741654 420.72472 
L 548.581787 422.29398 
L 548.10232 423.86324 
L 547.424183 425.4325 
L 547.121833 428.57102 
L 547.32915 430.14028 
L 546.974959 431.70954 
L 547.10884 433.2788 
L 545.653231 437.98658 
L 545.147821 439.55584 
L 544.996646 441.1251 
L 544.603609 442.69436 
L 544.776336 444.26362 
L 544.089596 445.83288 
L 543.42871 448.9714 
L 543.480506 450.54066 
L 543.182502 453.67918 
L 543.122014 456.8177 
L 543.014032 459.95622 
L 543.91678 466.23326 
L 543.95137 467.80252 
L 543.778599 470.94104 
L 541.938512 472.5103 
L 541.29053 478.78734 
L 541.7441 481.92586 
L 541.852126 483.49512 
L 542.327248 485.06438 
L 542.28401 486.63364 
L 542.426538 488.2029 
L 542.40064 489.77216 
L 542.258112 491.34142 
L 542.197625 497.61846 
L 541.761395 500.75698 
L 541.29053 502.32624 
L 541.182548 503.8955 
L 540.910442 505.46476 
L 540.849954 507.03402 
L 541.143701 508.60328 
L 541.346672 511.7418 
L 541.173945 513.31106 
L 540.551906 514.88032 
L 540.530309 516.44958 
L 539.705299 519.5881 
L 539.066053 521.15736 
L 538.755056 522.72662 
L 532.621403 524.29588 
L 531.554531 529.00366 
L 531.485395 530.57292 
L 531.61932 532.14218 
L 532.517767 535.2807 
L 532.785527 536.84996 
L 533.036081 539.98848 
L 532.565261 541.55774 
L 532.539319 543.127 
L 533.018786 544.69626 
L 532.897855 546.26552 
L 532.310406 547.83478 
L 531.623621 550.9733 
L 531.070717 552.54256 
L 530.906593 554.11182 
L 529.930408 557.25034 
L 529.234976 558.8196 
L 528.284689 560.38886 
L 527.520122 561.95812 
L 526.483493 563.52738 
L 524.647664 566.6659 
L 522.487976 569.80442 
L 522.492278 571.37368 
L 522.915559 572.94294 
L 522.695293 574.5122 
L 522.16403 576.08146 
L 521.248288 577.65072 
L 521.002079 579.21998 
L 520.233211 580.78924 
L 519.753744 582.3585 
L 518.708467 583.92776 
L 518.086473 585.49702 
L 517.667493 587.06628 
L 518.185763 588.63554 
L 516.898624 590.2048 
L 516.220443 591.77406 
L 515.412706 593.34332 
L 514.177341 594.91258 
L 513.144992 596.48184 
L 511.702288 598.0511 
L 511.244417 599.62036 
L 510.130006 601.18962 
L 509.65056 602.75888 
L 508.700273 604.32814 
L 508.674331 605.8974 
L 507.534021 607.46666 
L 506.588058 609.03592 
L 506.648523 610.60518 
L 505.490919 612.17444 
L 505.650742 613.7437 
L 506.596683 615.31296 
L 504.652938 618.45148 
L 505.141052 620.02074 
L 505.400187 621.59 
L 504.484468 623.15926 
L 504.480144 624.72852 
L 502.665977 626.29778 
L 502.808527 627.86704 
L 502.627108 629.4363 
L 502.108794 631.00556 
L 501.175757 632.57482 
L 499.352965 634.14408 
L 498.467467 635.71334 
L 498.838952 637.2826 
L 498.182412 638.85186 
L 499.34434 640.42112 
L 498.074407 641.99038 
L 499.460947 643.55964 
L 498.527955 645.1289 
L 494.346717 646.69816 
L 494.739776 648.26742 
L 495.707336 649.83668 
L 497.607911 651.40594 
L 497.50423 652.9752 
L 497.50423 652.9752 
" clip-path="url(#pa0b0371259)" style="fill: none; stroke-dasharray: 7.5,1.5; stroke-dashoffset: 0; stroke: #bf1a00; stroke-width: 1.5"/>
   </g>
   <g id="line2d_29">
    <path clip-path="url(#pa0b0371259)" style="fill: none; stroke: #00bf00; stroke-width: 1.5; stroke-linecap: square"/>
   </g>
   <g id="line2d_30">
    <path clip-path="url(#pa0b0371259)" style="fill: none; stroke-dasharray: 1.5,1.5; stroke-dashoffset: 0; stroke: #00bf00; stroke-width: 1.5"/>
   </g>
   <g id="line2d_31">
    <path clip-path="url(#pa0b0371259)" style="fill: none; stroke-dasharray: 7.5,1.5; stroke-dashoffset: 0; stroke: #00bf00; stroke-width: 1.5"/>
   </g>
   <g id="line2d_32">
    <path d="M 457.657218 88.0416 
L 481.58021 89.61086 
L 481.58021 91.18012 
L 482.713823 92.74938 
L 482.713823 99.02642 
L 482.4695 100.59568 
L 482.362028 105.30346 
L 484.521715 106.87272 
L 484.521715 108.44198 
L 484.92728 110.01124 
L 490.820091 111.5805 
L 490.820091 113.14976 
L 491.093704 114.71902 
L 493.566141 116.28828 
L 493.69807 117.85754 
L 490.087142 119.4268 
L 491.352684 120.99606 
L 491.714258 122.56532 
L 491.670311 124.13458 
L 492.422772 125.70384 
L 492.921153 127.2731 
L 493.649201 128.84236 
L 494.699776 130.41162 
L 494.538513 131.98088 
L 494.162282 133.55014 
L 494.426118 135.1194 
L 494.812127 136.68866 
L 493.717627 138.25792 
L 493.981462 139.82718 
L 492.623127 141.39644 
L 492.877184 144.53496 
L 492.886962 146.10422 
L 493.551485 147.67348 
L 493.282749 150.812 
L 494.431018 152.38126 
L 494.538513 153.95052 
L 495.203035 155.51978 
L 496.835029 157.08904 
L 496.835029 158.6583 
L 499.527333 160.22756 
L 500.309172 161.79682 
L 500.309172 163.36608 
L 502.087752 164.93534 
L 504.359856 166.5046 
L 506.250808 168.07386 
L 506.250808 169.64312 
L 508.029387 171.21238 
L 511.176124 172.78164 
L 511.957964 174.3509 
L 514.21539 175.92016 
L 516.946784 177.48942 
L 519.521815 180.62794 
L 521.764606 182.1972 
L 524.408063 183.76646 
L 525.986332 185.33572 
L 529.71941 186.90498 
L 532.680428 188.47424 
L 532.680428 190.0435 
L 538.680732 191.61276 
L 542.008312 193.18202 
L 548.111233 194.75128 
L 548.111233 196.32054 
L 549.977706 197.8898 
L 552.650519 199.45906 
L 554.59034 202.59758 
L 556.03668 204.16684 
L 556.549717 205.7361 
L 558.147499 207.30536 
L 560.580844 208.87462 
L 560.859381 210.44388 
L 562.339911 212.01314 
L 565.27166 213.5824 
L 565.926383 215.15166 
L 568.222921 216.72092 
L 568.775116 218.29018 
L 569.117156 219.85944 
L 571.374581 221.4287 
L 572.244337 224.56722 
L 574.237905 226.13648 
L 574.628769 227.70574 
L 575.395908 229.275 
L 577.907435 230.84426 
L 578.303222 232.41352 
L 578.860295 233.98278 
L 580.858741 235.55204 
L 581.244771 237.1213 
L 582.148717 238.69056 
L 583.902906 240.25982 
L 583.902906 241.82908 
L 586.903037 243.39834 
L 587.328092 244.9676 
L 587.328092 246.53686 
L 589.136028 248.10612 
L 589.531815 249.67538 
L 589.531815 251.24464 
L 592.04822 252.8139 
L 592.898419 255.95242 
L 594.67212 257.52168 
L 595.04835 259.09094 
L 595.278018 260.6602 
L 596.885599 262.22946 
L 596.885599 263.79872 
L 597.794423 265.36798 
L 598.405199 266.93724 
L 598.405199 268.5065 
L 598.771717 270.07576 
L 598.615354 271.64502 
L 598.615354 273.21428 
L 597.540366 274.78354 
L 597.252073 279.49132 
L 597.496375 281.06058 
L 597.496375 282.62984 
L 597.085909 284.1991 
L 596.890477 290.47614 
L 596.524003 292.0454 
L 596.28458 293.61466 
L 596.28458 295.18392 
L 596.045156 296.75318 
L 595.966975 299.8917 
L 595.146089 301.46096 
L 594.926222 303.03022 
L 594.926222 304.59948 
L 594.633051 306.16874 
L 594.491322 307.738 
L 594.388706 310.87652 
L 594.330081 314.01504 
L 593.675358 315.5843 
L 593.152476 321.86134 
L 592.84955 323.4306 
L 592.693186 326.56912 
L 592.937532 328.13838 
L 592.092167 329.70764 
L 591.833231 331.2769 
L 591.246891 332.84616 
L 590.982988 334.41542 
L 590.914607 335.98468 
L 590.259885 337.55394 
L 590.005783 339.1232 
L 589.487823 340.69246 
L 589.13115 342.26172 
L 589.052968 343.83098 
L 588.364011 348.53876 
L 588.271151 350.10802 
L 587.850974 353.24654 
L 587.811861 354.8158 
L 587.479577 357.95432 
L 587.591994 359.52358 
L 587.543125 362.6621 
L 587.352571 364.23136 
L 587.494211 365.80062 
L 587.201085 367.36988 
L 587.205963 370.5084 
L 586.956784 372.07766 
L 586.932305 379.92396 
L 587.22552 381.49322 
L 587.372127 384.63174 
L 588.344454 386.201 
L 588.466627 387.77026 
L 589.448755 389.33952 
L 589.448755 390.90878 
L 589.639309 392.47804 
L 590.186581 394.0473 
L 590.186581 395.61656 
L 590.411326 397.18582 
L 591.070971 398.75508 
L 591.070971 400.32434 
L 591.41301 401.8936 
L 592.786047 403.46286 
L 592.786047 405.03212 
L 594.168839 408.17064 
L 594.168839 409.7399 
L 594.838284 411.30916 
L 596.113582 412.87842 
L 596.113582 414.44768 
L 597.203204 416.01694 
L 597.286264 419.15546 
L 598.410121 420.72472 
L 598.6593 423.86324 
L 599.221207 425.4325 
L 599.680497 430.14028 
L 599.680497 431.70954 
L 599.328701 434.84806 
L 599.328701 437.98658 
L 599.7538 439.55584 
L 599.7538 441.1251 
L 599.558368 442.69436 
L 599.602359 445.83288 
L 599.245641 447.40214 
L 599.548568 456.8177 
L 599.426439 458.38696 
L 599.43624 463.09474 
L 599.328701 466.23326 
L 599.499743 467.80252 
L 598.903602 469.37178 
L 598.879167 472.5103 
L 597.980099 474.07956 
L 597.980099 475.64882 
L 597.594113 477.21808 
L 597.598991 480.3566 
L 597.364446 481.92586 
L 597.29602 485.06438 
L 597.447505 486.63364 
L 596.988215 488.2029 
L 597.1299 491.34142 
L 597.173892 492.91068 
L 597.540366 494.47994 
L 597.056597 496.0492 
L 597.682051 497.61846 
L 597.672295 499.18772 
L 596.963737 500.75698 
L 596.83673 503.8955 
L 596.787905 507.03402 
L 596.514247 508.60328 
L 596.709679 510.17254 
L 596.445866 511.7418 
L 595.976731 513.31106 
L 595.76662 514.88032 
L 595.73243 518.01884 
L 595.370878 521.15736 
L 594.911543 522.72662 
L 594.867597 524.29588 
L 594.706311 525.86514 
L 594.12977 527.4344 
L 593.777975 530.57292 
L 594.877353 532.14218 
L 594.457131 533.71144 
L 594.457131 535.2807 
L 593.543385 538.41922 
L 590.665428 539.98848 
L 590.719175 543.127 
L 589.961792 544.69626 
L 590.167025 546.26552 
L 590.098599 547.83478 
L 589.912923 549.40404 
L 590.201215 550.9733 
L 590.201215 552.54256 
L 592.009107 554.11182 
L 592.316956 555.68108 
L 592.316956 557.25034 
L 591.911413 558.8196 
L 591.2127 560.38886 
L 591.2127 561.95812 
L 590.455317 563.52738 
L 590.010661 565.09664 
L 590.342945 566.6659 
L 590.157269 568.23516 
L 589.028533 569.80442 
L 588.085474 571.37368 
L 587.738557 572.94294 
L 587.606628 574.5122 
L 586.648935 576.08146 
L 586.018603 579.21998 
L 586.678247 580.78924 
L 586.101663 582.3585 
L 586.057672 583.92776 
L 585.324768 585.49702 
L 585.793858 587.06628 
L 586.751551 588.63554 
L 587.039844 593.34332 
L 586.409512 594.91258 
L 586.385077 596.48184 
L 586.473015 598.0511 
L 586.907915 599.62036 
L 586.903037 602.75888 
L 587.137537 604.32814 
L 587.23532 605.8974 
L 589.223966 607.46666 
L 589.97647 609.03592 
L 590.108355 610.60518 
L 594.462054 612.17444 
L 596.309014 613.7437 
L 597.022406 615.31296 
L 596.900233 616.88222 
L 596.14285 618.45148 
L 597.076153 620.02074 
L 596.665732 621.59 
L 595.986531 623.15926 
L 595.883915 624.72852 
L 594.799171 626.29778 
L 593.147643 627.86704 
L 593.440813 629.4363 
L 593.220902 631.00556 
L 593.57762 632.57482 
L 593.479882 635.71334 
L 594.603694 637.2826 
L 593.948972 638.85186 
L 593.948972 640.42112 
L 594.271455 641.99038 
L 594.271455 645.1289 
L 595.019038 646.69816 
L 595.019038 649.83668 
L 599.162581 651.40594 
L 599.162581 652.9752 
L 599.162581 652.9752 
" clip-path="url(#pa0b0371259)" style="fill: none; stroke: #0080ff; stroke-width: 1.5; stroke-linecap: square"/>
   </g>
   <g id="line2d_33">
    <path d="M 465.718806 88.0416 
L 470.992881 89.61086 
L 470.992881 91.18012 
L 466.82967 92.74938 
L 466.82967 99.02642 
L 468.127429 100.59568 
L 468.127429 103.7342 
L 468.698449 105.30346 
L 470.006585 106.87272 
L 470.006585 108.44198 
L 470.473768 110.01124 
L 473.91024 111.5805 
L 473.91024 113.14976 
L 474.117867 114.71902 
L 475.75822 116.28828 
L 475.97108 117.85754 
L 475.97108 119.4268 
L 477.66334 120.99606 
L 478.753472 122.56532 
L 478.753472 124.13458 
L 481.328193 125.70384 
L 481.930387 127.2731 
L 481.930387 128.84236 
L 480.243271 130.41162 
L 480.264047 131.98088 
L 479.220656 133.55014 
L 478.571765 135.1194 
L 480.004491 136.68866 
L 480.222517 138.25792 
L 480.881785 139.82718 
L 480.881785 141.39644 
L 481.92001 142.9657 
L 483.222958 144.53496 
L 483.222958 146.10422 
L 484.629719 147.67348 
L 485.460273 149.24274 
L 485.460273 150.812 
L 489.031667 153.95052 
L 489.031667 155.51978 
L 491.954236 157.08904 
L 491.954236 160.22756 
L 496.262768 161.79682 
L 496.262768 164.93534 
L 499.242433 166.5046 
L 499.242433 169.64312 
L 503.109746 171.21238 
L 503.109746 172.78164 
L 504.454224 174.3509 
L 507.594797 175.92016 
L 507.594797 177.48942 
L 509.95668 179.05868 
L 510.870293 180.62794 
L 510.870293 182.1972 
L 513.730579 183.76646 
L 514.638981 185.33572 
L 514.638981 186.90498 
L 517.094367 188.47424 
L 517.094367 191.61276 
L 520.234941 193.18202 
L 520.234941 196.32054 
L 523.593518 197.8898 
L 523.593518 199.45906 
L 524.844559 201.02832 
L 526.770411 202.59758 
L 526.770411 204.16684 
L 527.89684 205.7361 
L 530.518301 207.30536 
L 530.518301 208.87462 
L 531.395639 210.44388 
L 533.37342 212.01314 
L 531.348899 213.5824 
L 532.246947 215.15166 
L 531.893954 216.72092 
L 532.79719 218.29018 
L 533.394174 219.85944 
L 532.96331 221.4287 
L 534.556922 224.56722 
L 534.821712 226.13648 
L 535.371955 227.70574 
L 536.228451 229.275 
L 536.306322 230.84426 
L 537.282241 232.41352 
L 537.744236 233.98278 
L 537.521044 235.55204 
L 538.12836 237.1213 
L 539.815454 238.69056 
L 540.178824 240.25982 
L 540.178824 241.82908 
L 541.673811 244.9676 
L 541.673811 246.53686 
L 542.509598 248.10612 
L 543.122103 249.67538 
L 543.122103 251.24464 
L 544.445827 254.38316 
L 544.726181 255.95242 
L 544.67944 257.52168 
L 545.499617 260.6602 
L 546.184849 262.22946 
L 546.293851 265.36798 
L 546.927155 266.93724 
L 546.927155 268.5065 
L 546.04986 270.07576 
L 545.831856 271.64502 
L 545.831856 273.21428 
L 544.362767 274.78354 
L 544.451015 277.92206 
L 544.134386 279.49132 
L 544.181126 282.62984 
L 543.47514 284.1991 
L 543.578954 287.33762 
L 543.220772 288.90688 
L 543.220772 290.47614 
L 542.769154 292.0454 
L 542.483611 293.61466 
L 542.483611 295.18392 
L 542.182547 296.75318 
L 542.115097 299.8917 
L 541.061306 301.46096 
L 540.947116 303.03022 
L 540.947116 304.59948 
L 540.184012 306.16874 
L 540.147693 309.30726 
L 539.613015 310.87652 
L 539.457273 312.44578 
L 539.457273 314.01504 
L 538.600777 315.5843 
L 538.06091 318.72282 
L 537.240689 320.29208 
L 536.75794 321.86134 
L 536.0312 323.4306 
L 535.709338 324.99986 
L 535.122776 326.56912 
L 534.396036 328.13838 
L 534.006723 329.70764 
L 533.497988 331.2769 
L 532.361137 332.84616 
L 531.878388 335.98468 
L 530.741582 337.55394 
L 529.485353 340.69246 
L 529.319189 342.26172 
L 529.00256 343.83098 
L 528.213514 345.40024 
L 527.990277 346.9695 
L 527.616574 348.53876 
L 526.936531 350.10802 
L 526.718526 351.67728 
L 526.37591 353.24654 
L 525.789303 354.8158 
L 525.664736 356.38506 
L 525.410368 357.95432 
L 524.522697 359.52358 
L 524.413695 361.09284 
L 523.173031 365.80062 
L 522.124473 367.36988 
L 522.124473 368.93914 
L 521.605361 370.5084 
L 520.489264 372.07766 
L 520.489264 373.64692 
L 520.214187 375.21618 
L 519.388777 376.78544 
L 519.388777 378.3547 
L 518.931971 379.92396 
L 517.997559 381.49322 
L 517.701728 384.63174 
L 517.592681 386.201 
L 517.307183 387.77026 
L 517.405808 390.90878 
L 517.250065 392.47804 
L 517.2345 400.32434 
L 517.172194 401.8936 
L 517.654987 403.46286 
L 517.717293 406.60138 
L 518.194854 408.17064 
L 518.194854 409.7399 
L 518.40767 411.30916 
L 519.342037 412.87842 
L 519.342037 414.44768 
L 520.276448 416.01694 
L 520.260883 419.15546 
L 521.418443 420.72472 
L 521.49117 425.4325 
L 521.636491 428.57102 
L 521.345804 430.14028 
L 521.262744 431.70954 
L 520.530816 434.84806 
L 520.312812 436.41732 
L 519.861149 437.98658 
L 519.606826 439.55584 
L 519.606826 441.1251 
L 518.786605 442.69436 
L 518.641284 444.26362 
L 518.641284 445.83288 
L 517.847049 447.40214 
L 517.571928 448.9714 
L 517.416185 450.54066 
L 517.592681 452.10992 
L 517.359067 453.67918 
L 516.917871 455.24844 
L 516.819245 456.8177 
L 516.409135 458.38696 
L 515.78102 461.52548 
L 515.282684 463.09474 
L 514.514414 464.664 
L 514.514414 466.23326 
L 513.699426 467.80252 
L 513.310091 469.37178 
L 513.310091 470.94104 
L 512.598917 472.5103 
L 512.277099 474.07956 
L 512.277099 475.64882 
L 511.358253 477.21808 
L 511.436124 480.3566 
L 510.553664 481.92586 
L 509.816547 483.49512 
L 509.816547 485.06438 
L 509.183244 486.63364 
L 507.200274 489.77216 
L 507.226217 491.34142 
L 505.866174 494.47994 
L 505.175775 497.61846 
L 504.007772 499.18772 
L 504.277705 500.75698 
L 503.519812 502.32624 
L 502.175335 503.8955 
L 501.168307 505.46476 
L 501.168307 507.03402 
L 499.439683 508.60328 
L 498.256114 510.17254 
L 497.487845 511.7418 
L 496.402946 513.31106 
L 494.731417 516.44958 
L 494.342083 518.01884 
L 493.553059 519.5881 
L 492.50969 521.15736 
L 491.310556 522.72662 
L 490.635723 524.29588 
L 489.742841 525.86514 
L 489.078385 527.4344 
L 487.915637 529.00366 
L 487.178498 530.57292 
L 487.370559 532.14218 
L 485.636747 533.71144 
L 485.636747 535.2807 
L 483.86145 536.84996 
L 481.686374 538.41922 
L 480.414602 539.98848 
L 480.414602 541.55774 
L 479.122031 543.127 
L 478.037087 544.69626 
L 477.642586 546.26552 
L 476.495381 547.83478 
L 475.00035 549.40404 
L 474.164608 550.9733 
L 474.164608 552.54256 
L 472.181638 554.11182 
L 471.678091 555.68108 
L 471.678091 557.25034 
L 470.125964 558.8196 
L 467.717341 560.38886 
L 467.717341 561.95812 
L 466.528584 563.52738 
L 464.509295 565.09664 
L 463.907145 566.6659 
L 462.676858 568.23516 
L 459.650497 569.80442 
L 458.342361 571.37368 
L 455.487308 572.94294 
L 454.454294 574.5122 
L 452.632233 576.08146 
L 449.969243 577.65072 
L 448.510574 579.21998 
L 447.249156 580.78924 
L 444.897607 582.3585 
L 444.383705 583.92776 
L 444.793793 585.49702 
L 443.137852 587.06628 
L 445.214258 588.63554 
L 444.664015 590.2048 
L 443.049604 591.77406 
L 445.307695 593.34332 
L 443.329914 594.91258 
L 442.919826 596.48184 
L 446.517206 598.0511 
L 445.759313 599.62036 
L 445.219469 601.18962 
L 448.432703 602.75888 
L 447.602127 604.32814 
L 447.467183 605.8974 
L 453.270725 607.46666 
L 453.244783 609.03592 
L 453.53547 610.60518 
L 464.441801 612.17444 
L 464.960913 613.7437 
L 468.205301 615.31296 
L 466.549382 616.88222 
L 465.45925 618.45148 
L 465.37619 620.02074 
L 464.685792 621.59 
L 464.145925 623.15926 
L 463.107722 624.72852 
L 460.85482 626.29778 
L 460.138457 627.86704 
L 460.138457 629.4363 
L 460.532958 631.00556 
L 462.926037 632.57482 
L 463.704684 634.14408 
L 463.704684 635.71334 
L 469.601685 637.2826 
L 470.992881 638.85186 
L 470.992881 649.83668 
L 468.355833 651.40594 
L 468.355833 652.9752 
L 468.355833 652.9752 
" clip-path="url(#pa0b0371259)" style="fill: none; stroke-dasharray: 1.5,1.5; stroke-dashoffset: 0; stroke: #0080ff; stroke-width: 1.5"/>
   </g>
   <g id="line2d_34">
    <path d="M 609.498935 88.0416 
L 628.779981 89.61086 
L 628.779981 91.18012 
L 624.466061 92.74938 
L 624.466061 99.02642 
L 625.098965 100.59568 
L 625.098965 103.7342 
L 625.377457 105.30346 
L 626.617943 106.87272 
L 626.617943 108.44198 
L 626.845792 110.01124 
L 632.471108 111.5805 
L 632.521751 114.71902 
L 634.85084 116.28828 
L 634.926805 117.85754 
L 637.868576 119.4268 
L 638.111591 120.99606 
L 638.663519 122.56532 
L 639.97997 124.13458 
L 640.719216 125.70384 
L 641.073672 127.2731 
L 638.552123 128.84236 
L 637.579973 130.41162 
L 637.134386 131.98088 
L 628.557188 133.55014 
L 628.03568 135.1194 
L 628.916699 136.68866 
L 624.94708 138.25792 
L 625.240738 139.82718 
L 622.152138 141.39644 
L 622.536927 142.9657 
L 622.724244 144.53496 
L 622.228058 146.10422 
L 623.119233 147.67348 
L 623.14961 149.24274 
L 622.992625 150.812 
L 623.635684 152.38126 
L 624.05085 153.95052 
L 626.597677 155.51978 
L 627.05342 157.08904 
L 627.05342 158.6583 
L 628.030581 160.22756 
L 628.531866 161.79682 
L 628.531866 163.36608 
L 629.124282 164.93534 
L 629.174925 166.5046 
L 630.693904 168.07386 
L 630.638206 171.21238 
L 632.111641 172.78164 
L 634.106539 177.48942 
L 634.445829 179.05868 
L 634.511639 180.62794 
L 635.124277 182.1972 
L 635.929331 183.76646 
L 635.868577 185.33572 
L 637.433144 186.90498 
L 636.628045 188.47424 
L 636.628045 190.0435 
L 637.914163 191.61276 
L 637.240727 193.18202 
L 636.780018 194.75128 
L 636.780018 196.32054 
L 635.671105 197.8898 
L 634.805297 199.45906 
L 634.460996 201.02832 
L 633.807826 202.59758 
L 631.76224 204.16684 
L 631.311597 205.7361 
L 629.372353 210.44388 
L 628.147033 212.01314 
L 624.04074 213.5824 
L 621.595154 215.15166 
L 617.488861 216.72092 
L 616.957154 218.29018 
L 615.974894 219.85944 
L 613.154675 221.4287 
L 612.415385 222.99796 
L 611.883767 224.56722 
L 610.045808 226.13648 
L 609.498935 227.70574 
L 609.078714 229.275 
L 606.866033 230.84426 
L 606.440712 232.41352 
L 605.817963 233.98278 
L 603.802754 235.55204 
L 603.367278 237.1213 
L 602.587589 238.69056 
L 599.159699 240.25982 
L 599.159699 241.82908 
L 597.286308 243.39834 
L 597.06857 244.9676 
L 597.06857 246.53686 
L 594.440679 248.10612 
L 594.121744 249.67538 
L 594.121744 251.24464 
L 591.731857 252.8139 
L 590.96729 255.95242 
L 589.772391 257.52168 
L 589.42299 260.6602 
L 588.060996 262.22946 
L 588.060996 263.79872 
L 586.734389 265.36798 
L 586.359667 266.93724 
L 586.359667 268.5065 
L 583.944503 270.07576 
L 582.855901 271.64502 
L 582.855901 273.21428 
L 578.273643 274.78354 
L 577.215418 276.3528 
L 577.215418 277.92206 
L 574.931828 279.49132 
L 573.817949 281.06058 
L 573.817949 282.62984 
L 570.638174 284.1991 
L 570.243274 285.76836 
L 570.243274 287.33762 
L 566.911614 288.90688 
L 566.911614 290.47614 
L 565.817913 292.0454 
L 564.541994 293.61466 
L 564.541994 295.18392 
L 562.445765 296.75318 
L 561.71663 298.32244 
L 561.71663 299.8917 
L 559.200181 301.46096 
L 558.855879 303.03022 
L 558.855879 304.59948 
L 556.060937 306.16874 
L 555.741958 307.738 
L 555.741958 309.30726 
L 553.301472 310.87652 
L 553.02808 312.44578 
L 553.02808 314.01504 
L 550.541963 315.5843 
L 550.197617 317.15356 
L 548.293894 318.72282 
L 547.752076 320.29208 
L 547.397664 321.86134 
L 545.878685 323.4306 
L 545.174872 326.56912 
L 543.35208 328.13838 
L 543.215406 329.70764 
L 542.724232 331.2769 
L 541.655896 332.84616 
L 541.068535 335.98468 
L 539.498913 337.55394 
L 538.95714 339.1232 
L 538.359668 343.83098 
L 538.30907 345.40024 
L 537.114082 353.24654 
L 536.501488 354.8158 
L 536.18752 357.95432 
L 535.519139 359.52358 
L 535.286279 362.6621 
L 534.557144 364.23136 
L 534.471069 365.80062 
L 532.972356 367.36988 
L 533.012844 370.5084 
L 531.397635 372.07766 
L 531.423001 375.21618 
L 530.602691 376.78544 
L 530.6685 379.92396 
L 530.217902 381.49322 
L 530.228013 386.201 
L 530.076128 387.77026 
L 529.357149 389.33952 
L 529.357149 390.90878 
L 529.169788 392.47804 
L 527.883758 394.0473 
L 527.883758 395.61656 
L 527.574845 397.18582 
L 526.096354 398.75508 
L 526.096354 400.32434 
L 525.898926 401.8936 
L 524.506511 403.46286 
L 524.450812 406.60138 
L 523.255869 408.17064 
L 523.255869 409.7399 
L 522.962211 411.30916 
L 522.29383 412.87842 
L 522.29383 414.44768 
L 521.291303 416.01694 
L 521.195117 419.15546 
L 520.521681 420.72472 
L 520.521681 423.86324 
L 520.850816 425.4325 
L 520.931791 427.00176 
L 520.719153 430.14028 
L 520.364741 436.41732 
L 520.273566 437.98658 
L 519.914098 439.55584 
L 519.914098 441.1251 
L 519.068511 442.69436 
L 519.083722 445.83288 
L 518.455873 447.40214 
L 518.55206 450.54066 
L 518.734321 453.67918 
L 518.557159 455.24844 
L 518.638135 459.95622 
L 518.587536 461.52548 
L 518.72931 467.80252 
L 519.063456 469.37178 
L 519.012813 475.64882 
L 519.336893 478.78734 
L 519.326737 485.06438 
L 519.747003 486.63364 
L 519.139421 488.2029 
L 519.174853 489.77216 
L 519.033079 492.91068 
L 519.579908 494.47994 
L 519.77738 496.0492 
L 519.853344 497.61846 
L 519.610329 499.18772 
L 520.147047 500.75698 
L 520.298932 503.8955 
L 521.210283 505.46476 
L 521.210283 507.03402 
L 521.412811 508.60328 
L 522.303985 510.17254 
L 522.688774 514.88032 
L 522.957155 516.44958 
L 523.640658 518.01884 
L 523.706511 519.5881 
L 523.650813 521.15736 
L 524.192586 522.72662 
L 524.607752 525.86514 
L 525.230546 527.4344 
L 525.139459 529.00366 
L 525.31161 530.57292 
L 526.820433 532.14218 
L 527.088814 533.71144 
L 527.088814 535.2807 
L 526.896398 536.84996 
L 527.022961 538.41922 
L 526.076132 539.98848 
L 526.076132 541.55774 
L 527.701452 544.69626 
L 528.536884 549.40404 
L 529.488812 550.9733 
L 529.488812 552.54256 
L 530.065973 554.11182 
L 530.957148 555.68108 
L 530.957148 557.25034 
L 529.630541 560.38886 
L 529.630541 561.95812 
L 528.709034 563.52738 
L 527.944468 565.09664 
L 528.314135 566.6659 
L 528.207793 568.23516 
L 527.179901 569.80442 
L 525.407752 571.37368 
L 524.562209 572.94294 
L 524.602741 574.5122 
L 521.073609 576.08146 
L 520.526781 579.21998 
L 517.620442 580.78924 
L 517.159688 582.3585 
L 517.083724 583.92776 
L 514.541953 585.49702 
L 514.64825 587.06628 
L 517.301418 588.63554 
L 517.17991 590.2048 
L 516.714057 591.77406 
L 517.696406 593.34332 
L 517.230553 594.91258 
L 517.200176 596.48184 
L 519.260928 598.0511 
L 519.478622 599.62036 
L 519.245762 601.18962 
L 521.0078 602.75888 
L 521.017867 605.8974 
L 524.607752 607.46666 
L 524.957153 609.03592 
L 525.473605 610.60518 
L 529.802692 612.17444 
L 531.058434 613.7437 
L 527.185 615.31296 
L 526.541941 616.88222 
L 526.552096 618.45148 
L 523.711567 620.02074 
L 523.129306 621.59 
L 523.387532 623.15926 
L 520.425495 626.29778 
L 521.544474 627.86704 
L 520.17738 629.4363 
L 520.17738 631.00556 
L 521.873609 632.57482 
L 521.828021 635.71334 
L 526.374846 637.2826 
L 526.374846 640.42112 
L 527.377417 641.99038 
L 527.377417 645.1289 
L 529.70145 646.69816 
L 529.70145 649.83668 
L 527.271076 651.40594 
L 527.271076 652.9752 
L 527.271076 652.9752 
" clip-path="url(#pa0b0371259)" style="fill: none; stroke-dasharray: 7.5,1.5; stroke-dashoffset: 0; stroke: #0080ff; stroke-width: 1.5"/>
   </g>
   <g id="patch_3">
    <path d="M 144 652.9752 
L 144 88.0416 
" style="fill: none; stroke: #000000; stroke-width: 0.8; stroke-linejoin: miter; stroke-linecap: square"/>
   </g>
   <g id="patch_4">
    <path d="M 1036.8 652.9752 
L 1036.8 88.0416 
" style="fill: none; stroke: #000000; stroke-width: 0.8; stroke-linejoin: miter; stroke-linecap: square"/>
   </g>
   <g id="patch_5">
    <path d="M 144 652.9752 
L 1036.8 652.9752 
" style="fill: none; stroke: #000000; stroke-width: 0.8; stroke-linejoin: miter; stroke-linecap: square"/>
   </g>
   <g id="patch_6">
    <path d="M 144 88.0416 
L 1036.8 88.0416 
" style="fill: none; stroke: #000000; stroke-width: 0.8; stroke-linejoin: miter; stroke-linecap: square"/>
   </g>
   <g id="legend_1">
    <g id="patch_7">
     <path d="M 901.475 228.721287 
L 1029.8 228.721287 
Q 1031.8 228.721287 1031.8 226.721287 
L 1031.8 95.0416 
Q 1031.8 93.0416 1029.8 93.0416 
L 901.475 93.0416 
Q 899.475 93.0416 899.475 95.0416 
L 899.475 226.721287 
Q 899.475 228.721287 901.475 228.721287 
z
" style="fill: #ffffff; opacity: 0.8; stroke: #cccccc; stroke-linejoin: miter"/>
    </g>
    <g id="line2d_35">
     <path d="M 903.475 101.193162 
L 913.475 101.193162 
L 923.475 101.193162 
" style="fill: none; stroke: #bf1a00; stroke-width: 1.5; stroke-linecap: square"/>
    </g>
    <g id="text_28">
     <!-- T61 at 0.35054µm -->
     <g transform="translate(931.475 104.693162)scale(0.1 -0.1)">
      <defs>
       <path id="DejaVuSansMono-54" d="M 147 4666 
L 3706 4666 
L 3706 4134 
L 2247 4134 
L 2247 0 
L 1613 0 
L 1613 4134 
L 147 4134 
L 147 4666 
z
" transform="scale(0.015625)"/>
       <path id="DejaVuSansMono-b5" d="M 609 -1338 
L 609 3500 
L 1184 3500 
L 1184 1325 
Q 1184 881 1371 645 
Q 1559 409 1906 409 
Q 2303 409 2504 675 
Q 2706 941 2706 1459 
L 2706 3500 
L 3284 3500 
L 3284 800 
Q 3284 616 3334 528 
Q 3384 441 3488 441 
Q 3516 441 3561 456 
Q 3606 472 3694 513 
L 3694 50 
Q 3575 -22 3469 -56 
Q 3363 -91 3256 -91 
Q 3063 -91 2945 32 
Q 2828 156 2791 403 
Q 2647 153 2439 31 
Q 2231 -91 1953 -91 
Q 1666 -91 1467 28 
Q 1269 147 1131 397 
L 1131 -1338 
L 609 -1338 
z
" transform="scale(0.015625)"/>
       <path id="DejaVuSansMono-6d" d="M 2113 3144 
Q 2219 3369 2383 3476 
Q 2547 3584 2778 3584 
Q 3200 3584 3373 3257 
Q 3547 2931 3547 2028 
L 3547 0 
L 3022 0 
L 3022 2003 
Q 3022 2744 2939 2923 
Q 2856 3103 2638 3103 
Q 2388 3103 2295 2911 
Q 2203 2719 2203 2003 
L 2203 0 
L 1678 0 
L 1678 2003 
Q 1678 2753 1589 2928 
Q 1500 3103 1269 3103 
Q 1041 3103 952 2911 
Q 863 2719 863 2003 
L 863 0 
L 341 0 
L 341 3500 
L 863 3500 
L 863 3200 
Q 966 3388 1120 3486 
Q 1275 3584 1472 3584 
Q 1709 3584 1867 3475 
Q 2025 3366 2113 3144 
z
" transform="scale(0.015625)"/>
      </defs>
      <use xlink:href="#DejaVuSansMono-54"/>
      <use xlink:href="#DejaVuSansMono-36" x="60.205078"/>
      <use xlink:href="#DejaVuSansMono-31" x="120.410156"/>
      <use xlink:href="#DejaVuSansMono-20" x="180.615234"/>
      <use xlink:href="#DejaVuSansMono-61" x="240.820312"/>
      <use xlink:href="#DejaVuSansMono-74" x="301.025391"/>
      <use xlink:href="#DejaVuSansMono-20" x="361.230469"/>
      <use xlink:href="#DejaVuSansMono-30" x="421.435547"/>
      <use xlink:href="#DejaVuSansMono-2e" x="481.640625"/>
      <use xlink:href="#DejaVuSansMono-33" x="541.845703"/>
      <use xlink:href="#DejaVuSansMono-35" x="602.050781"/>
      <use xlink:href="#DejaVuSansMono-30" x="662.255859"/>
      <use xlink:href="#DejaVuSansMono-35" x="722.460938"/>
      <use xlink:href="#DejaVuSansMono-34" x="782.666016"/>
      <use xlink:href="#DejaVuSansMono-b5" x="842.871094"/>
      <use xlink:href="#DejaVuSansMono-6d" x="903.076172"/>
     </g>
    </g>
    <g id="line2d_36">
     <path d="M 903.475 115.93535 
L 913.475 115.93535 
L 923.475 115.93535 
" style="fill: none; stroke-dasharray: 1.5,1.5; stroke-dashoffset: 0; stroke: #bf1a00; stroke-width: 1.5"/>
    </g>
    <g id="text_29">
     <!-- T61 at 0.69535µm -->
     <g transform="translate(931.475 119.43535)scale(0.1 -0.1)">
      <defs>
       <path id="DejaVuSansMono-39" d="M 1863 2069 
Q 2266 2069 2495 2359 
Q 2725 2650 2725 3163 
Q 2725 3675 2495 3965 
Q 2266 4256 1863 4256 
Q 1444 4256 1231 3979 
Q 1019 3703 1019 3163 
Q 1019 2619 1230 2344 
Q 1441 2069 1863 2069 
z
M 738 97 
L 738 678 
Q 934 563 1156 502 
Q 1378 441 1619 441 
Q 2219 441 2526 892 
Q 2834 1344 2834 2222 
Q 2688 1909 2422 1742 
Q 2156 1575 1813 1575 
Q 1138 1575 767 1990 
Q 397 2406 397 3169 
Q 397 3922 776 4336 
Q 1156 4750 1850 4750 
Q 2663 4750 3041 4165 
Q 3419 3581 3419 2328 
Q 3419 1150 2964 529 
Q 2509 -91 1644 -91 
Q 1416 -91 1184 -42 
Q 953 6 738 97 
z
" transform="scale(0.015625)"/>
      </defs>
      <use xlink:href="#DejaVuSansMono-54"/>
      <use xlink:href="#DejaVuSansMono-36" x="60.205078"/>
      <use xlink:href="#DejaVuSansMono-31" x="120.410156"/>
      <use xlink:href="#DejaVuSansMono-20" x="180.615234"/>
      <use xlink:href="#DejaVuSansMono-61" x="240.820312"/>
      <use xlink:href="#DejaVuSansMono-74" x="301.025391"/>
      <use xlink:href="#DejaVuSansMono-20" x="361.230469"/>
      <use xlink:href="#DejaVuSansMono-30" x="421.435547"/>
      <use xlink:href="#DejaVuSansMono-2e" x="481.640625"/>
      <use xlink:href="#DejaVuSansMono-36" x="541.845703"/>
      <use xlink:href="#DejaVuSansMono-39" x="602.050781"/>
      <use xlink:href="#DejaVuSansMono-35" x="662.255859"/>
      <use xlink:href="#DejaVuSansMono-33" x="722.460938"/>
      <use xlink:href="#DejaVuSansMono-35" x="782.666016"/>
      <use xlink:href="#DejaVuSansMono-b5" x="842.871094"/>
      <use xlink:href="#DejaVuSansMono-6d" x="903.076172"/>
     </g>
    </g>
    <g id="line2d_37">
     <path d="M 903.475 130.677537 
L 913.475 130.677537 
L 923.475 130.677537 
" style="fill: none; stroke-dasharray: 7.5,1.5; stroke-dashoffset: 0; stroke: #bf1a00; stroke-width: 1.5"/>
    </g>
    <g id="text_30">
     <!-- T61 at 1.04598µm -->
     <g transform="translate(931.475 134.177537)scale(0.1 -0.1)">
      <use xlink:href="#DejaVuSansMono-54"/>
      <use xlink:href="#DejaVuSansMono-36" x="60.205078"/>
      <use xlink:href="#DejaVuSansMono-31" x="120.410156"/>
      <use xlink:href="#DejaVuSansMono-20" x="180.615234"/>
      <use xlink:href="#DejaVuSansMono-61" x="240.820312"/>
      <use xlink:href="#DejaVuSansMono-74" x="301.025391"/>
      <use xlink:href="#DejaVuSansMono-20" x="361.230469"/>
      <use xlink:href="#DejaVuSansMono-31" x="421.435547"/>
      <use xlink:href="#DejaVuSansMono-2e" x="481.640625"/>
      <use xlink:href="#DejaVuSansMono-30" x="541.845703"/>
      <use xlink:href="#DejaVuSansMono-34" x="602.050781"/>
      <use xlink:href="#DejaVuSansMono-35" x="662.255859"/>
      <use xlink:href="#DejaVuSansMono-39" x="722.460938"/>
      <use xlink:href="#DejaVuSansMono-38" x="782.666016"/>
      <use xlink:href="#DejaVuSansMono-b5" x="842.871094"/>
      <use xlink:href="#DejaVuSansMono-6d" x="903.076172"/>
     </g>
    </g>
    <g id="line2d_38">
     <path d="M 903.475 145.419725 
L 913.475 145.419725 
L 923.475 145.419725 
" style="fill: none; stroke: #00bf00; stroke-width: 1.5; stroke-linecap: square"/>
    </g>
    <g id="text_31">
     <!-- T62 at 0.35054µm -->
     <g transform="translate(931.475 148.919725)scale(0.1 -0.1)">
      <use xlink:href="#DejaVuSansMono-54"/>
      <use xlink:href="#DejaVuSansMono-36" x="60.205078"/>
      <use xlink:href="#DejaVuSansMono-32" x="120.410156"/>
      <use xlink:href="#DejaVuSansMono-20" x="180.615234"/>
      <use xlink:href="#DejaVuSansMono-61" x="240.820312"/>
      <use xlink:href="#DejaVuSansMono-74" x="301.025391"/>
      <use xlink:href="#DejaVuSansMono-20" x="361.230469"/>
      <use xlink:href="#DejaVuSansMono-30" x="421.435547"/>
      <use xlink:href="#DejaVuSansMono-2e" x="481.640625"/>
      <use xlink:href="#DejaVuSansMono-33" x="541.845703"/>
      <use xlink:href="#DejaVuSansMono-35" x="602.050781"/>
      <use xlink:href="#DejaVuSansMono-30" x="662.255859"/>
      <use xlink:href="#DejaVuSansMono-35" x="722.460938"/>
      <use xlink:href="#DejaVuSansMono-34" x="782.666016"/>
      <use xlink:href="#DejaVuSansMono-b5" x="842.871094"/>
      <use xlink:href="#DejaVuSansMono-6d" x="903.076172"/>
     </g>
    </g>
    <g id="line2d_39">
     <path d="M 903.475 160.161912 
L 913.475 160.161912 
L 923.475 160.161912 
" style="fill: none; stroke-dasharray: 1.5,1.5; stroke-dashoffset: 0; stroke: #00bf00; stroke-width: 1.5"/>
    </g>
    <g id="text_32">
     <!-- T62 at 0.69535µm -->
     <g transform="translate(931.475 163.661912)scale(0.1 -0.1)">
      <use xlink:href="#DejaVuSansMono-54"/>
      <use xlink:href="#DejaVuSansMono-36" x="60.205078"/>
      <use xlink:href="#DejaVuSansMono-32" x="120.410156"/>
      <use xlink:href="#DejaVuSansMono-20" x="180.615234"/>
      <use xlink:href="#DejaVuSansMono-61" x="240.820312"/>
      <use xlink:href="#DejaVuSansMono-74" x="301.025391"/>
      <use xlink:href="#DejaVuSansMono-20" x="361.230469"/>
      <use xlink:href="#DejaVuSansMono-30" x="421.435547"/>
      <use xlink:href="#DejaVuSansMono-2e" x="481.640625"/>
      <use xlink:href="#DejaVuSansMono-36" x="541.845703"/>
      <use xlink:href="#DejaVuSansMono-39" x="602.050781"/>
      <use xlink:href="#DejaVuSansMono-35" x="662.255859"/>
      <use xlink:href="#DejaVuSansMono-33" x="722.460938"/>
      <use xlink:href="#DejaVuSansMono-35" x="782.666016"/>
      <use xlink:href="#DejaVuSansMono-b5" x="842.871094"/>
      <use xlink:href="#DejaVuSansMono-6d" x="903.076172"/>
     </g>
    </g>
    <g id="line2d_40">
     <path d="M 903.475 174.9041 
L 913.475 174.9041 
L 923.475 174.9041 
" style="fill: none; stroke-dasharray: 7.5,1.5; stroke-dashoffset: 0; stroke: #00bf00; stroke-width: 1.5"/>
    </g>
    <g id="text_33">
     <!-- T62 at 1.04598µm -->
     <g transform="translate(931.475 178.4041)scale(0.1 -0.1)">
      <use xlink:href="#DejaVuSansMono-54"/>
      <use xlink:href="#DejaVuSansMono-36" x="60.205078"/>
      <use xlink:href="#DejaVuSansMono-32" x="120.410156"/>
      <use xlink:href="#DejaVuSansMono-20" x="180.615234"/>
      <use xlink:href="#DejaVuSansMono-61" x="240.820312"/>
      <use xlink:href="#DejaVuSansMono-74" x="301.025391"/>
      <use xlink:href="#DejaVuSansMono-20" x="361.230469"/>
      <use xlink:href="#DejaVuSansMono-31" x="421.435547"/>
      <use xlink:href="#DejaVuSansMono-2e" x="481.640625"/>
      <use xlink:href="#DejaVuSansMono-30" x="541.845703"/>
      <use xlink:href="#DejaVuSansMono-34" x="602.050781"/>
      <use xlink:href="#DejaVuSansMono-35" x="662.255859"/>
      <use xlink:href="#DejaVuSansMono-39" x="722.460938"/>
      <use xlink:href="#DejaVuSansMono-38" x="782.666016"/>
      <use xlink:href="#DejaVuSansMono-b5" x="842.871094"/>
      <use xlink:href="#DejaVuSansMono-6d" x="903.076172"/>
     </g>
    </g>
    <g id="line2d_41">
     <path d="M 903.475 189.646287 
L 913.475 189.646287 
L 923.475 189.646287 
" style="fill: none; stroke: #0080ff; stroke-width: 1.5; stroke-linecap: square"/>
    </g>
    <g id="text_34">
     <!-- T67 at 0.35054µm -->
     <g transform="translate(931.475 193.146287)scale(0.1 -0.1)">
      <use xlink:href="#DejaVuSansMono-54"/>
      <use xlink:href="#DejaVuSansMono-36" x="60.205078"/>
      <use xlink:href="#DejaVuSansMono-37" x="120.410156"/>
      <use xlink:href="#DejaVuSansMono-20" x="180.615234"/>
      <use xlink:href="#DejaVuSansMono-61" x="240.820312"/>
      <use xlink:href="#DejaVuSansMono-74" x="301.025391"/>
      <use xlink:href="#DejaVuSansMono-20" x="361.230469"/>
      <use xlink:href="#DejaVuSansMono-30" x="421.435547"/>
      <use xlink:href="#DejaVuSansMono-2e" x="481.640625"/>
      <use xlink:href="#DejaVuSansMono-33" x="541.845703"/>
      <use xlink:href="#DejaVuSansMono-35" x="602.050781"/>
      <use xlink:href="#DejaVuSansMono-30" x="662.255859"/>
      <use xlink:href="#DejaVuSansMono-35" x="722.460938"/>
      <use xlink:href="#DejaVuSansMono-34" x="782.666016"/>
      <use xlink:href="#DejaVuSansMono-b5" x="842.871094"/>
      <use xlink:href="#DejaVuSansMono-6d" x="903.076172"/>
     </g>
    </g>
    <g id="line2d_42">
     <path d="M 903.475 204.388475 
L 913.475 204.388475 
L 923.475 204.388475 
" style="fill: none; stroke-dasharray: 1.5,1.5; stroke-dashoffset: 0; stroke: #0080ff; stroke-width: 1.5"/>
    </g>
    <g id="text_35">
     <!-- T67 at 0.69535µm -->
     <g transform="translate(931.475 207.888475)scale(0.1 -0.1)">
      <use xlink:href="#DejaVuSansMono-54"/>
      <use xlink:href="#DejaVuSansMono-36" x="60.205078"/>
      <use xlink:href="#DejaVuSansMono-37" x="120.410156"/>
      <use xlink:href="#DejaVuSansMono-20" x="180.615234"/>
      <use xlink:href="#DejaVuSansMono-61" x="240.820312"/>
      <use xlink:href="#DejaVuSansMono-74" x="301.025391"/>
      <use xlink:href="#DejaVuSansMono-20" x="361.230469"/>
      <use xlink:href="#DejaVuSansMono-30" x="421.435547"/>
      <use xlink:href="#DejaVuSansMono-2e" x="481.640625"/>
      <use xlink:href="#DejaVuSansMono-36" x="541.845703"/>
      <use xlink:href="#DejaVuSansMono-39" x="602.050781"/>
      <use xlink:href="#DejaVuSansMono-35" x="662.255859"/>
      <use xlink:href="#DejaVuSansMono-33" x="722.460938"/>
      <use xlink:href="#DejaVuSansMono-35" x="782.666016"/>
      <use xlink:href="#DejaVuSansMono-b5" x="842.871094"/>
      <use xlink:href="#DejaVuSansMono-6d" x="903.076172"/>
     </g>
    </g>
    <g id="line2d_43">
     <path d="M 903.475 219.130662 
L 913.475 219.130662 
L 923.475 219.130662 
" style="fill: none; stroke-dasharray: 7.5,1.5; stroke-dashoffset: 0; stroke: #0080ff; stroke-width: 1.5"/>
    </g>
    <g id="text_36">
     <!-- T67 at 1.04598µm -->
     <g transform="translate(931.475 222.630662)scale(0.1 -0.1)">
      <use xlink:href="#DejaVuSansMono-54"/>
      <use xlink:href="#DejaVuSansMono-36" x="60.205078"/>
      <use xlink:href="#DejaVuSansMono-37" x="120.410156"/>
      <use xlink:href="#DejaVuSansMono-20" x="180.615234"/>
      <use xlink:href="#DejaVuSansMono-61" x="240.820312"/>
      <use xlink:href="#DejaVuSansMono-74" x="301.025391"/>
      <use xlink:href="#DejaVuSansMono-20" x="361.230469"/>
      <use xlink:href="#DejaVuSansMono-31" x="421.435547"/>
      <use xlink:href="#DejaVuSansMono-2e" x="481.640625"/>
      <use xlink:href="#DejaVuSansMono-30" x="541.845703"/>
      <use xlink:href="#DejaVuSansMono-34" x="602.050781"/>
      <use xlink:href="#DejaVuSansMono-35" x="662.255859"/>
      <use xlink:href="#DejaVuSansMono-39" x="722.460938"/>
      <use xlink:href="#DejaVuSansMono-38" x="782.666016"/>
      <use xlink:href="#DejaVuSansMono-b5" x="842.871094"/>
      <use xlink:href="#DejaVuSansMono-6d" x="903.076172"/>
     </g>
    </g>
   </g>
  </g>
 </g>
 <defs>
  <clipPath id="pa0b0371259">
   <rect x="144" y="88.0416" width="892.8" height="564.9336"/>
  </clipPath>
 </defs>
</svg>
