<?xml version="1.0" encoding="utf-8" standalone="no"?>
<!DOCTYPE svg PUBLIC "-//W3C//DTD SVG 1.1//EN"
  "http://www.w3.org/Graphics/SVG/1.1/DTD/svg11.dtd">
<svg xmlns:xlink="http://www.w3.org/1999/xlink" width="988.56pt" height="655.92pt" viewBox="0 0 988.56 655.92" xmlns="http://www.w3.org/2000/svg" version="1.1">
 <metadata>
  <rdf:RDF xmlns:dc="http://purl.org/dc/elements/1.1/" xmlns:cc="http://creativecommons.org/ns#" xmlns:rdf="http://www.w3.org/1999/02/22-rdf-syntax-ns#">
   <cc:Work>
    <dc:type rdf:resource="http://purl.org/dc/dcmitype/StillImage"/>
    <dc:date>2022-08-04T18:44:08.637421</dc:date>
    <dc:format>image/svg+xml</dc:format>
    <dc:creator>
     <cc:Agent>
      <dc:title>Matplotlib v3.5.1, https://matplotlib.org/</dc:title>
     </cc:Agent>
    </dc:creator>
   </cc:Work>
  </rdf:RDF>
 </metadata>
 <defs>
  <style type="text/css">*{stroke-linejoin: round; stroke-linecap: butt}</style>
 </defs>
 <g id="figure_1">
  <g id="patch_1">
   <path d="M 0 655.92 
L 988.56 655.92 
L 988.56 0 
L 0 0 
z
" style="fill: #ffffff"/>
  </g>
  <g id="axes_1">
   <g id="patch_2">
    <path d="M 123.57 583.7688 
L 889.704 583.7688 
L 889.704 78.7104 
L 123.57 78.7104 
z
" style="fill: #ffffff"/>
   </g>
   <g id="matplotlib.axis_1">
    <g id="xtick_1">
     <g id="line2d_1">
      <defs>
       <path id="mbc458c7dd6" d="M 0 0 
L 0 3.5 
" style="stroke: #000000; stroke-width: 0.8"/>
      </defs>
      <g>
       <use xlink:href="#mbc458c7dd6" x="123.57" y="583.7688" style="stroke: #000000; stroke-width: 0.8"/>
      </g>
     </g>
     <g id="text_1">
      <!-- 0.000 -->
      <g transform="translate(96.478594 604.541612)scale(0.18 -0.18)">
       <defs>
        <path id="DejaVuSansMono-30" d="M 1509 2344 
Q 1509 2516 1629 2641 
Q 1750 2766 1919 2766 
Q 2094 2766 2219 2641 
Q 2344 2516 2344 2344 
Q 2344 2169 2220 2047 
Q 2097 1925 1919 1925 
Q 1744 1925 1626 2044 
Q 1509 2163 1509 2344 
z
M 1925 4250 
Q 1484 4250 1267 3775 
Q 1050 3300 1050 2328 
Q 1050 1359 1267 884 
Q 1484 409 1925 409 
Q 2369 409 2586 884 
Q 2803 1359 2803 2328 
Q 2803 3300 2586 3775 
Q 2369 4250 1925 4250 
z
M 1925 4750 
Q 2672 4750 3055 4137 
Q 3438 3525 3438 2328 
Q 3438 1134 3055 521 
Q 2672 -91 1925 -91 
Q 1178 -91 797 521 
Q 416 1134 416 2328 
Q 416 3525 797 4137 
Q 1178 4750 1925 4750 
z
" transform="scale(0.015625)"/>
        <path id="DejaVuSansMono-2e" d="M 1528 953 
L 2316 953 
L 2316 0 
L 1528 0 
L 1528 953 
z
" transform="scale(0.015625)"/>
       </defs>
       <use xlink:href="#DejaVuSansMono-30"/>
       <use xlink:href="#DejaVuSansMono-2e" x="60.205078"/>
       <use xlink:href="#DejaVuSansMono-30" x="120.410156"/>
       <use xlink:href="#DejaVuSansMono-30" x="180.615234"/>
       <use xlink:href="#DejaVuSansMono-30" x="240.820312"/>
      </g>
     </g>
    </g>
    <g id="xtick_2">
     <g id="line2d_2">
      <g>
       <use xlink:href="#mbc458c7dd6" x="276.7968" y="583.7688" style="stroke: #000000; stroke-width: 0.8"/>
      </g>
     </g>
     <g id="text_2">
      <!-- 0.015 -->
      <g transform="translate(249.705394 604.541612)scale(0.18 -0.18)">
       <defs>
        <path id="DejaVuSansMono-31" d="M 844 531 
L 1825 531 
L 1825 4097 
L 769 3859 
L 769 4434 
L 1819 4666 
L 2450 4666 
L 2450 531 
L 3419 531 
L 3419 0 
L 844 0 
L 844 531 
z
" transform="scale(0.015625)"/>
        <path id="DejaVuSansMono-35" d="M 647 4666 
L 3009 4666 
L 3009 4134 
L 1222 4134 
L 1222 2988 
Q 1356 3038 1492 3061 
Q 1628 3084 1766 3084 
Q 2491 3084 2916 2656 
Q 3341 2228 3341 1497 
Q 3341 759 2895 334 
Q 2450 -91 1678 -91 
Q 1306 -91 998 -41 
Q 691 9 447 109 
L 447 750 
Q 734 594 1025 517 
Q 1316 441 1619 441 
Q 2141 441 2423 716 
Q 2706 991 2706 1497 
Q 2706 1997 2414 2275 
Q 2122 2553 1600 2553 
Q 1347 2553 1106 2495 
Q 866 2438 647 2322 
L 647 4666 
z
" transform="scale(0.015625)"/>
       </defs>
       <use xlink:href="#DejaVuSansMono-30"/>
       <use xlink:href="#DejaVuSansMono-2e" x="60.205078"/>
       <use xlink:href="#DejaVuSansMono-30" x="120.410156"/>
       <use xlink:href="#DejaVuSansMono-31" x="180.615234"/>
       <use xlink:href="#DejaVuSansMono-35" x="240.820312"/>
      </g>
     </g>
    </g>
    <g id="xtick_3">
     <g id="line2d_3">
      <g>
       <use xlink:href="#mbc458c7dd6" x="430.0236" y="583.7688" style="stroke: #000000; stroke-width: 0.8"/>
      </g>
     </g>
     <g id="text_3">
      <!-- 0.030 -->
      <g transform="translate(402.932194 604.541612)scale(0.18 -0.18)">
       <defs>
        <path id="DejaVuSansMono-33" d="M 2425 2497 
Q 2884 2375 3128 2064 
Q 3372 1753 3372 1288 
Q 3372 644 2939 276 
Q 2506 -91 1741 -91 
Q 1419 -91 1084 -31 
Q 750 28 428 141 
L 428 769 
Q 747 603 1056 522 
Q 1366 441 1672 441 
Q 2191 441 2469 675 
Q 2747 909 2747 1350 
Q 2747 1756 2469 1995 
Q 2191 2234 1716 2234 
L 1234 2234 
L 1234 2753 
L 1716 2753 
Q 2150 2753 2394 2943 
Q 2638 3134 2638 3475 
Q 2638 3834 2411 4026 
Q 2184 4219 1766 4219 
Q 1488 4219 1191 4156 
Q 894 4094 569 3969 
L 569 4550 
Q 947 4650 1242 4700 
Q 1538 4750 1766 4750 
Q 2447 4750 2855 4408 
Q 3263 4066 3263 3500 
Q 3263 3116 3048 2859 
Q 2834 2603 2425 2497 
z
" transform="scale(0.015625)"/>
       </defs>
       <use xlink:href="#DejaVuSansMono-30"/>
       <use xlink:href="#DejaVuSansMono-2e" x="60.205078"/>
       <use xlink:href="#DejaVuSansMono-30" x="120.410156"/>
       <use xlink:href="#DejaVuSansMono-33" x="180.615234"/>
       <use xlink:href="#DejaVuSansMono-30" x="240.820312"/>
      </g>
     </g>
    </g>
    <g id="xtick_4">
     <g id="line2d_4">
      <g>
       <use xlink:href="#mbc458c7dd6" x="583.2504" y="583.7688" style="stroke: #000000; stroke-width: 0.8"/>
      </g>
     </g>
     <g id="text_4">
      <!-- 0.045 -->
      <g transform="translate(556.158994 604.541612)scale(0.18 -0.18)">
       <defs>
        <path id="DejaVuSansMono-34" d="M 2297 4091 
L 825 1625 
L 2297 1625 
L 2297 4091 
z
M 2194 4666 
L 2925 4666 
L 2925 1625 
L 3547 1625 
L 3547 1113 
L 2925 1113 
L 2925 0 
L 2297 0 
L 2297 1113 
L 319 1113 
L 319 1709 
L 2194 4666 
z
" transform="scale(0.015625)"/>
       </defs>
       <use xlink:href="#DejaVuSansMono-30"/>
       <use xlink:href="#DejaVuSansMono-2e" x="60.205078"/>
       <use xlink:href="#DejaVuSansMono-30" x="120.410156"/>
       <use xlink:href="#DejaVuSansMono-34" x="180.615234"/>
       <use xlink:href="#DejaVuSansMono-35" x="240.820312"/>
      </g>
     </g>
    </g>
    <g id="xtick_5">
     <g id="line2d_5">
      <g>
       <use xlink:href="#mbc458c7dd6" x="736.4772" y="583.7688" style="stroke: #000000; stroke-width: 0.8"/>
      </g>
     </g>
     <g id="text_5">
      <!-- 0.060 -->
      <g transform="translate(709.385794 604.541612)scale(0.18 -0.18)">
       <defs>
        <path id="DejaVuSansMono-36" d="M 3097 4563 
L 3097 3981 
Q 2900 4097 2678 4158 
Q 2456 4219 2216 4219 
Q 1616 4219 1306 3767 
Q 997 3316 997 2438 
Q 1147 2750 1412 2917 
Q 1678 3084 2022 3084 
Q 2697 3084 3067 2670 
Q 3438 2256 3438 1497 
Q 3438 741 3056 325 
Q 2675 -91 1984 -91 
Q 1172 -91 794 492 
Q 416 1075 416 2328 
Q 416 3509 870 4129 
Q 1325 4750 2188 4750 
Q 2419 4750 2650 4701 
Q 2881 4653 3097 4563 
z
M 1972 2591 
Q 1569 2591 1337 2300 
Q 1106 2009 1106 1497 
Q 1106 984 1337 693 
Q 1569 403 1972 403 
Q 2391 403 2603 679 
Q 2816 956 2816 1497 
Q 2816 2041 2603 2316 
Q 2391 2591 1972 2591 
z
" transform="scale(0.015625)"/>
       </defs>
       <use xlink:href="#DejaVuSansMono-30"/>
       <use xlink:href="#DejaVuSansMono-2e" x="60.205078"/>
       <use xlink:href="#DejaVuSansMono-30" x="120.410156"/>
       <use xlink:href="#DejaVuSansMono-36" x="180.615234"/>
       <use xlink:href="#DejaVuSansMono-30" x="240.820312"/>
      </g>
     </g>
    </g>
    <g id="xtick_6">
     <g id="line2d_6">
      <g>
       <use xlink:href="#mbc458c7dd6" x="889.704" y="583.7688" style="stroke: #000000; stroke-width: 0.8"/>
      </g>
     </g>
     <g id="text_6">
      <!-- 0.075 -->
      <g transform="translate(862.612594 604.541612)scale(0.18 -0.18)">
       <defs>
        <path id="DejaVuSansMono-37" d="M 434 4666 
L 3372 4666 
L 3372 4397 
L 1703 0 
L 1044 0 
L 2669 4134 
L 434 4134 
L 434 4666 
z
" transform="scale(0.015625)"/>
       </defs>
       <use xlink:href="#DejaVuSansMono-30"/>
       <use xlink:href="#DejaVuSansMono-2e" x="60.205078"/>
       <use xlink:href="#DejaVuSansMono-30" x="120.410156"/>
       <use xlink:href="#DejaVuSansMono-37" x="180.615234"/>
       <use xlink:href="#DejaVuSansMono-35" x="240.820312"/>
      </g>
     </g>
    </g>
    <g id="text_7">
     <!-- I/F -->
     <g transform="translate(484.963875 630.6488)scale(0.24 -0.24)">
      <defs>
       <path id="DejaVuSansMono-49" d="M 628 4666 
L 3219 4666 
L 3219 4134 
L 2241 4134 
L 2241 531 
L 3219 531 
L 3219 0 
L 628 0 
L 628 531 
L 1606 531 
L 1606 4134 
L 628 4134 
L 628 4666 
z
" transform="scale(0.015625)"/>
       <path id="DejaVuSansMono-2f" d="M 2778 4666 
L 3372 4666 
L 916 -594 
L 319 -594 
L 2778 4666 
z
" transform="scale(0.015625)"/>
       <path id="DejaVuSansMono-46" d="M 728 4666 
L 3475 4666 
L 3475 4134 
L 1363 4134 
L 1363 2759 
L 3278 2759 
L 3278 2228 
L 1363 2228 
L 1363 0 
L 728 0 
L 728 4666 
z
" transform="scale(0.015625)"/>
      </defs>
      <use xlink:href="#DejaVuSansMono-49"/>
      <use xlink:href="#DejaVuSansMono-2f" x="60.205078"/>
      <use xlink:href="#DejaVuSansMono-46" x="120.410156"/>
     </g>
    </g>
   </g>
   <g id="matplotlib.axis_2">
    <g id="ytick_1">
     <g id="line2d_7">
      <defs>
       <path id="mef67125019" d="M 0 0 
L -3.5 0 
" style="stroke: #000000; stroke-width: 0.8"/>
      </defs>
      <g>
       <use xlink:href="#mef67125019" x="123.57" y="583.7688" style="stroke: #000000; stroke-width: 0.8"/>
      </g>
     </g>
     <g id="text_8">
      <!-- 90°S -->
      <g transform="translate(73.22375 590.655206)scale(0.18 -0.18)">
       <defs>
        <path id="DejaVuSansMono-39" d="M 1863 2069 
Q 2266 2069 2495 2359 
Q 2725 2650 2725 3163 
Q 2725 3675 2495 3965 
Q 2266 4256 1863 4256 
Q 1444 4256 1231 3979 
Q 1019 3703 1019 3163 
Q 1019 2619 1230 2344 
Q 1441 2069 1863 2069 
z
M 738 97 
L 738 678 
Q 934 563 1156 502 
Q 1378 441 1619 441 
Q 2219 441 2526 892 
Q 2834 1344 2834 2222 
Q 2688 1909 2422 1742 
Q 2156 1575 1813 1575 
Q 1138 1575 767 1990 
Q 397 2406 397 3169 
Q 397 3922 776 4336 
Q 1156 4750 1850 4750 
Q 2663 4750 3041 4165 
Q 3419 3581 3419 2328 
Q 3419 1150 2964 529 
Q 2509 -91 1644 -91 
Q 1416 -91 1184 -42 
Q 953 6 738 97 
z
" transform="scale(0.015625)"/>
        <path id="DejaVuSansMono-b0" d="M 1925 4750 
Q 2128 4750 2311 4673 
Q 2494 4597 2631 4453 
Q 2772 4313 2845 4134 
Q 2919 3956 2919 3750 
Q 2919 3338 2628 3052 
Q 2338 2766 1919 2766 
Q 1497 2766 1215 3047 
Q 934 3328 934 3750 
Q 934 4169 1221 4459 
Q 1509 4750 1925 4750 
z
M 1925 4347 
Q 1678 4347 1504 4173 
Q 1331 4000 1331 3750 
Q 1331 3500 1501 3331 
Q 1672 3163 1919 3163 
Q 2169 3163 2345 3334 
Q 2522 3506 2522 3750 
Q 2522 3997 2347 4172 
Q 2172 4347 1925 4347 
z
" transform="scale(0.015625)"/>
        <path id="DejaVuSansMono-53" d="M 3163 4506 
L 3163 3866 
Q 2875 4050 2586 4144 
Q 2297 4238 2003 4238 
Q 1556 4238 1297 4030 
Q 1038 3822 1038 3469 
Q 1038 3159 1208 2996 
Q 1378 2834 1844 2725 
L 2175 2650 
Q 2831 2497 3131 2169 
Q 3431 1841 3431 1275 
Q 3431 609 3018 259 
Q 2606 -91 1819 -91 
Q 1491 -91 1159 -20 
Q 828 50 494 191 
L 494 863 
Q 853 634 1173 528 
Q 1494 422 1819 422 
Q 2297 422 2562 636 
Q 2828 850 2828 1234 
Q 2828 1584 2645 1768 
Q 2463 1953 2009 2053 
L 1672 2131 
Q 1022 2278 728 2575 
Q 434 2872 434 3372 
Q 434 3997 854 4373 
Q 1275 4750 1972 4750 
Q 2241 4750 2537 4689 
Q 2834 4628 3163 4506 
z
" transform="scale(0.015625)"/>
       </defs>
       <use xlink:href="#DejaVuSansMono-39"/>
       <use xlink:href="#DejaVuSansMono-30" x="60.205078"/>
       <use xlink:href="#DejaVuSansMono-b0" x="120.410156"/>
       <use xlink:href="#DejaVuSansMono-53" x="180.615234"/>
      </g>
     </g>
    </g>
    <g id="ytick_2">
     <g id="line2d_8">
      <g>
       <use xlink:href="#mef67125019" x="123.57" y="499.5924" style="stroke: #000000; stroke-width: 0.8"/>
      </g>
     </g>
     <g id="text_9">
      <!-- 60°S -->
      <g transform="translate(73.22375 506.478806)scale(0.18 -0.18)">
       <use xlink:href="#DejaVuSansMono-36"/>
       <use xlink:href="#DejaVuSansMono-30" x="60.205078"/>
       <use xlink:href="#DejaVuSansMono-b0" x="120.410156"/>
       <use xlink:href="#DejaVuSansMono-53" x="180.615234"/>
      </g>
     </g>
    </g>
    <g id="ytick_3">
     <g id="line2d_9">
      <g>
       <use xlink:href="#mef67125019" x="123.57" y="415.416" style="stroke: #000000; stroke-width: 0.8"/>
      </g>
     </g>
     <g id="text_10">
      <!-- 30°S -->
      <g transform="translate(73.22375 422.302406)scale(0.18 -0.18)">
       <use xlink:href="#DejaVuSansMono-33"/>
       <use xlink:href="#DejaVuSansMono-30" x="60.205078"/>
       <use xlink:href="#DejaVuSansMono-b0" x="120.410156"/>
       <use xlink:href="#DejaVuSansMono-53" x="180.615234"/>
      </g>
     </g>
    </g>
    <g id="ytick_4">
     <g id="line2d_10">
      <g>
       <use xlink:href="#mef67125019" x="123.57" y="331.2396" style="stroke: #000000; stroke-width: 0.8"/>
      </g>
     </g>
     <g id="text_11">
      <!-- 0° -->
      <g transform="translate(94.896875 338.126006)scale(0.18 -0.18)">
       <use xlink:href="#DejaVuSansMono-30"/>
       <use xlink:href="#DejaVuSansMono-b0" x="60.205078"/>
      </g>
     </g>
    </g>
    <g id="ytick_5">
     <g id="line2d_11">
      <g>
       <use xlink:href="#mef67125019" x="123.57" y="247.0632" style="stroke: #000000; stroke-width: 0.8"/>
      </g>
     </g>
     <g id="text_12">
      <!-- 30°N -->
      <g transform="translate(73.22375 253.949606)scale(0.18 -0.18)">
       <defs>
        <path id="DejaVuSansMono-4e" d="M 434 4666 
L 1234 4666 
L 2809 825 
L 2809 4666 
L 3419 4666 
L 3419 0 
L 2619 0 
L 1044 3841 
L 1044 0 
L 434 0 
L 434 4666 
z
" transform="scale(0.015625)"/>
       </defs>
       <use xlink:href="#DejaVuSansMono-33"/>
       <use xlink:href="#DejaVuSansMono-30" x="60.205078"/>
       <use xlink:href="#DejaVuSansMono-b0" x="120.410156"/>
       <use xlink:href="#DejaVuSansMono-4e" x="180.615234"/>
      </g>
     </g>
    </g>
    <g id="ytick_6">
     <g id="line2d_12">
      <g>
       <use xlink:href="#mef67125019" x="123.57" y="162.8868" style="stroke: #000000; stroke-width: 0.8"/>
      </g>
     </g>
     <g id="text_13">
      <!-- 60°N -->
      <g transform="translate(73.22375 169.773206)scale(0.18 -0.18)">
       <use xlink:href="#DejaVuSansMono-36"/>
       <use xlink:href="#DejaVuSansMono-30" x="60.205078"/>
       <use xlink:href="#DejaVuSansMono-b0" x="120.410156"/>
       <use xlink:href="#DejaVuSansMono-4e" x="180.615234"/>
      </g>
     </g>
    </g>
    <g id="ytick_7">
     <g id="line2d_13">
      <g>
       <use xlink:href="#mef67125019" x="123.57" y="78.7104" style="stroke: #000000; stroke-width: 0.8"/>
      </g>
     </g>
     <g id="text_14">
      <!-- 90°N -->
      <g transform="translate(73.22375 85.596806)scale(0.18 -0.18)">
       <use xlink:href="#DejaVuSansMono-39"/>
       <use xlink:href="#DejaVuSansMono-30" x="60.205078"/>
       <use xlink:href="#DejaVuSansMono-b0" x="120.410156"/>
       <use xlink:href="#DejaVuSansMono-4e" x="180.615234"/>
      </g>
     </g>
    </g>
    <g id="text_15">
     <!-- Latitude -->
     <g transform="translate(64.2325 389.0346)rotate(-90)scale(0.24 -0.24)">
      <defs>
       <path id="DejaVuSansMono-4c" d="M 672 4666 
L 1306 4666 
L 1306 531 
L 3559 531 
L 3559 0 
L 672 0 
L 672 4666 
z
" transform="scale(0.015625)"/>
       <path id="DejaVuSansMono-61" d="M 2194 1759 
L 2003 1759 
Q 1500 1759 1245 1582 
Q 991 1406 991 1056 
Q 991 741 1181 566 
Q 1372 391 1709 391 
Q 2184 391 2456 720 
Q 2728 1050 2731 1631 
L 2731 1759 
L 2194 1759 
z
M 3309 1997 
L 3309 0 
L 2731 0 
L 2731 519 
Q 2547 206 2267 57 
Q 1988 -91 1588 -91 
Q 1053 -91 734 211 
Q 416 513 416 1019 
Q 416 1603 808 1906 
Q 1200 2209 1959 2209 
L 2731 2209 
L 2731 2300 
Q 2728 2719 2518 2908 
Q 2309 3097 1850 3097 
Q 1556 3097 1256 3012 
Q 956 2928 672 2766 
L 672 3341 
Q 991 3463 1283 3523 
Q 1575 3584 1850 3584 
Q 2284 3584 2592 3456 
Q 2900 3328 3091 3072 
Q 3209 2916 3259 2686 
Q 3309 2456 3309 1997 
z
" transform="scale(0.015625)"/>
       <path id="DejaVuSansMono-74" d="M 1919 4494 
L 1919 3500 
L 3225 3500 
L 3225 3053 
L 1919 3053 
L 1919 1153 
Q 1919 766 2066 612 
Q 2213 459 2578 459 
L 3225 459 
L 3225 0 
L 2522 0 
Q 1875 0 1609 259 
Q 1344 519 1344 1153 
L 1344 3053 
L 409 3053 
L 409 3500 
L 1344 3500 
L 1344 4494 
L 1919 4494 
z
" transform="scale(0.015625)"/>
       <path id="DejaVuSansMono-69" d="M 800 3500 
L 2272 3500 
L 2272 447 
L 3413 447 
L 3413 0 
L 556 0 
L 556 447 
L 1697 447 
L 1697 3053 
L 800 3053 
L 800 3500 
z
M 1697 4863 
L 2272 4863 
L 2272 4134 
L 1697 4134 
L 1697 4863 
z
" transform="scale(0.015625)"/>
       <path id="DejaVuSansMono-75" d="M 609 1325 
L 609 3494 
L 1184 3494 
L 1184 1325 
Q 1184 853 1351 631 
Q 1519 409 1869 409 
Q 2275 409 2490 695 
Q 2706 981 2706 1516 
L 2706 3494 
L 3284 3494 
L 3284 0 
L 2706 0 
L 2706 525 
Q 2553 222 2289 65 
Q 2025 -91 1672 -91 
Q 1134 -91 871 261 
Q 609 613 609 1325 
z
" transform="scale(0.015625)"/>
       <path id="DejaVuSansMono-64" d="M 2681 3053 
L 2681 4863 
L 3256 4863 
L 3256 0 
L 2681 0 
L 2681 441 
Q 2538 181 2298 45 
Q 2059 -91 1747 -91 
Q 1113 -91 748 401 
Q 384 894 384 1759 
Q 384 2613 750 3098 
Q 1116 3584 1747 3584 
Q 2063 3584 2303 3448 
Q 2544 3313 2681 3053 
z
M 991 1747 
Q 991 1078 1203 737 
Q 1416 397 1831 397 
Q 2247 397 2464 740 
Q 2681 1084 2681 1747 
Q 2681 2413 2464 2755 
Q 2247 3097 1831 3097 
Q 1416 3097 1203 2756 
Q 991 2416 991 1747 
z
" transform="scale(0.015625)"/>
       <path id="DejaVuSansMono-65" d="M 3475 1894 
L 3475 1613 
L 984 1613 
L 984 1594 
Q 984 1022 1282 709 
Q 1581 397 2125 397 
Q 2400 397 2700 484 
Q 3000 572 3341 750 
L 3341 178 
Q 3013 44 2708 -23 
Q 2403 -91 2119 -91 
Q 1303 -91 843 398 
Q 384 888 384 1747 
Q 384 2584 834 3084 
Q 1284 3584 2034 3584 
Q 2703 3584 3089 3131 
Q 3475 2678 3475 1894 
z
M 2900 2063 
Q 2888 2569 2661 2833 
Q 2434 3097 2009 3097 
Q 1594 3097 1325 2822 
Q 1056 2547 1006 2059 
L 2900 2063 
z
" transform="scale(0.015625)"/>
      </defs>
      <use xlink:href="#DejaVuSansMono-4c"/>
      <use xlink:href="#DejaVuSansMono-61" x="60.205078"/>
      <use xlink:href="#DejaVuSansMono-74" x="120.410156"/>
      <use xlink:href="#DejaVuSansMono-69" x="180.615234"/>
      <use xlink:href="#DejaVuSansMono-74" x="240.820312"/>
      <use xlink:href="#DejaVuSansMono-75" x="301.025391"/>
      <use xlink:href="#DejaVuSansMono-64" x="361.230469"/>
      <use xlink:href="#DejaVuSansMono-65" x="421.435547"/>
     </g>
    </g>
   </g>
   <g id="line2d_14">
    <path d="M 272.828381 101.15744 
L 272.923317 108.17214 
L 273.04198 109.57508 
L 273.04198 112.38096 
L 273.991311 113.7839 
L 273.991311 115.18684 
L 282.516299 116.58978 
L 282.763119 117.99272 
L 283.584302 119.39566 
L 283.921311 120.7986 
L 284.761454 122.20154 
L 285.312062 125.00742 
L 286.849988 126.41036 
L 287.334133 130.61918 
L 287.894235 132.02212 
L 288.221769 133.42506 
L 288.330927 134.828 
L 288.663198 136.23094 
L 288.815092 137.63388 
L 289.218563 139.03682 
L 289.375213 140.43976 
L 289.940053 141.8427 
L 289.99702 143.24564 
L 290.680532 144.64858 
L 291.0555 146.05152 
L 291.924165 147.45446 
L 292.061789 148.8574 
L 292.783298 150.26034 
L 293.163023 151.66328 
L 293.424094 153.06622 
L 294.297459 154.46916 
L 294.729413 155.8721 
L 294.938274 157.27504 
L 295.303748 158.67798 
L 296.53313 160.08092 
L 296.874914 161.48386 
L 298.412821 162.8868 
L 300.164327 164.28974 
L 300.857333 165.69268 
L 304.417331 171.30444 
L 305.84606 172.70738 
L 306.263782 174.11032 
L 308.214654 175.51326 
L 308.964628 176.9162 
L 312.386964 179.72208 
L 313.303064 181.12502 
L 315.092548 182.52796 
L 315.771322 183.9309 
L 317.546574 185.33384 
L 317.669965 186.73678 
L 319.635088 188.13972 
L 320.423021 189.54266 
L 322.093852 190.9456 
L 322.672943 192.34854 
L 324.590594 193.75148 
L 325.482967 195.15442 
L 326.527214 196.55736 
L 329.095175 199.36324 
L 329.944813 200.76618 
L 331.876696 202.16912 
L 336.404985 206.37794 
L 338.821052 207.78088 
L 339.765635 209.18382 
L 341.873139 210.58676 
L 342.94587 211.9897 
L 344.716384 213.39264 
L 345.262234 214.79558 
L 347.493167 216.19852 
L 348.100742 217.60146 
L 349.709867 219.0044 
L 350.692429 220.40734 
L 352.149623 221.81028 
L 353.160687 223.21322 
L 356.018165 226.0191 
L 356.772857 227.42204 
L 358.472171 228.82498 
L 359.160421 230.22792 
L 360.902451 231.63086 
L 364.766217 235.83968 
L 366.62692 237.24262 
L 368.639497 240.0485 
L 369.968543 241.45144 
L 371.606152 242.85438 
L 372.047582 244.25732 
L 374.862343 247.0632 
L 375.930356 248.46614 
L 377.359085 249.86908 
L 378.616951 251.27202 
L 379.257747 252.67496 
L 380.87161 254.0779 
L 381.953855 255.48084 
L 384.289189 258.28672 
L 385.979009 259.68966 
L 386.795426 261.0926 
L 388.3191 262.49554 
L 389.55322 263.89848 
L 391.162346 265.30142 
L 392.386971 266.70436 
L 394.390053 268.1073 
L 395.633686 269.51024 
L 398.799689 272.31612 
L 399.772775 273.71906 
L 401.904005 275.122 
L 403.261554 276.52494 
L 404.785229 277.92788 
L 405.952905 279.33082 
L 408.663227 282.1367 
L 410.068248 283.53964 
L 411.691587 284.94258 
L 412.754843 286.34552 
L 417.985652 287.74846 
L 419.286233 289.1514 
L 421.322537 290.55434 
L 422.40952 291.95728 
L 423.880984 293.36022 
L 425.575542 294.76316 
L 426.344505 296.1661 
L 428.333355 297.56904 
L 433.383787 298.97198 
L 435.035628 300.37492 
L 435.861539 301.77786 
L 437.931084 303.1808 
L 438.472197 304.58374 
L 440.6509 305.98668 
L 443.797932 308.79256 
L 447.538288 311.59844 
L 449.08569 313.00138 
L 451.596664 314.40432 
L 453.462085 315.80726 
L 454.928811 317.2102 
L 459.148575 320.01608 
L 461.132688 321.41902 
L 462.594695 322.82196 
L 464.640456 324.2249 
L 466.26857 325.62784 
L 470.042148 328.43372 
L 471.613295 329.83666 
L 476.141565 332.64254 
L 478.092456 334.04548 
L 479.535437 335.44842 
L 480.798078 336.85136 
L 482.872341 338.2543 
L 483.945091 339.65724 
L 485.62066 341.06018 
L 486.527265 342.46312 
L 488.463886 343.86606 
L 489.417983 345.269 
L 491.710602 346.67194 
L 492.707396 348.07488 
L 495.052263 349.47782 
L 495.71201 350.88076 
L 497.359114 352.2837 
L 499.333751 353.68664 
L 500.786207 355.08958 
L 502.813016 356.49252 
L 504.066106 357.89546 
L 506.335016 359.2984 
L 507.284357 360.70134 
L 509.876044 362.10428 
L 511.015237 363.50722 
L 512.496196 364.91016 
L 514.489784 366.3131 
L 516.108385 367.71604 
L 518.154183 369.11898 
L 519.635142 370.52192 
L 521.75214 371.92486 
L 523.100213 373.3278 
L 525.483021 374.73074 
L 526.774126 376.13368 
L 529.02401 377.53662 
L 530.281856 378.93956 
L 531.155278 380.3425 
L 533.495351 381.74544 
L 534.401956 383.14838 
L 536.338615 384.55132 
L 537.197728 385.95426 
L 538.787903 387.3572 
L 539.637541 388.76014 
L 541.412774 390.16308 
L 542.025105 391.56602 
L 543.012386 392.96896 
L 544.445891 394.3719 
L 545.091405 395.77484 
L 546.800233 397.17778 
L 547.42204 398.58072 
L 548.732097 399.98366 
L 549.591249 401.3866 
L 551.171872 402.78954 
L 551.765214 404.19248 
L 553.023099 405.59542 
L 554.034087 406.99836 
L 554.428101 408.4013 
L 555.714412 409.80424 
L 556.203295 411.20718 
L 557.556125 412.61012 
L 558.035533 414.01306 
L 559.473795 415.416 
L 559.929457 416.81894 
L 560.98318 418.22188 
L 561.804392 419.62482 
L 562.241103 421.02776 
L 563.593857 422.4307 
L 564.063751 423.83364 
L 565.544748 425.23658 
L 565.772541 426.63952 
L 566.835816 428.04246 
L 567.39118 429.4454 
L 568.250331 430.84834 
L 568.748728 432.25128 
L 569.417989 433.65422 
L 569.816722 435.05716 
L 570.338865 436.4601 
L 571.041385 437.86304 
L 571.435323 439.26598 
L 573.466889 444.87774 
L 574.553872 449.08656 
L 575.413024 450.4895 
L 575.545947 451.89244 
L 576.79428 453.29538 
L 577.188256 454.69832 
L 577.890776 456.10126 
L 578.336963 458.90714 
L 578.284752 461.71302 
L 578.389173 463.11596 
L 578.27052 464.5189 
L 578.327449 465.92184 
L 578.170818 468.72772 
L 578.109094 472.93654 
L 577.852798 478.5483 
L 577.985722 479.95124 
L 577.881263 482.75712 
L 577.639199 484.16006 
L 578.00943 485.563 
L 577.397136 488.36888 
L 576.851247 489.77182 
L 576.186705 492.5777 
L 574.867135 495.38358 
L 574.587131 496.78652 
L 573.362468 500.99534 
L 573.182129 502.39828 
L 572.783396 503.80122 
L 572.522306 505.20416 
L 571.981212 506.6071 
L 571.606187 508.01004 
L 570.903705 509.41298 
L 568.563632 515.02474 
L 568.297785 516.42768 
L 567.296234 517.83062 
L 566.98769 519.23356 
L 566.218765 520.6365 
L 566.185544 522.03944 
L 564.970394 524.84532 
L 564.595407 526.24826 
L 563.460971 527.6512 
L 563.446701 529.05414 
L 562.117655 530.45708 
L 561.96578 531.86002 
L 560.883516 533.26296 
L 560.589242 534.6659 
L 559.810804 536.06884 
L 559.179483 537.47178 
L 558.700075 538.87472 
L 557.84568 540.27766 
L 557.575114 541.6806 
L 556.383711 543.08354 
L 555.951757 544.48648 
L 554.437576 545.88942 
L 553.943936 547.29236 
L 553.132276 548.6953 
L 551.713004 550.09824 
L 550.811155 551.50118 
L 549.553271 552.90412 
L 549.420347 554.30706 
L 548.2337 555.71 
L 547.896691 557.11294 
L 546.885665 558.51588 
L 546.866676 559.91882 
L 545.865125 561.32176 
L 545.176875 562.7247 
L 543.790862 564.12764 
L 541.640605 565.53058 
L 541.184943 566.93352 
L 539.64226 568.33646 
L 539.404953 569.7394 
L 539.400196 571.14234 
L 538.935059 572.54528 
L 538.802135 573.94822 
L 538.455613 575.35116 
L 535.370285 576.7541 
L 517.266567 578.15704 
L 520.698379 579.55998 
L 529.432218 580.96292 
L 533.784906 582.36586 
L 533.784906 583.7688 
L 533.784906 583.7688 
" clip-path="url(#p01f7be74c5)" style="fill: none; stroke: #00005a; stroke-width: 4"/>
   </g>
   <g id="line2d_15">
    <path d="M 183.089056 78.7104 
L 183.089056 81.51628 
L 185.361886 82.91922 
L 186.770779 84.32216 
L 187.45529 88.53098 
L 187.461931 89.93392 
L 188.079985 91.33686 
L 187.840742 92.7398 
L 188.824303 94.14274 
L 189.449007 95.54568 
L 190.52561 101.15744 
L 190.532255 102.56038 
L 190.651879 103.96332 
L 191.429428 105.36626 
L 195.303878 110.97802 
L 196.739357 112.38096 
L 197.609944 113.7839 
L 198.673261 115.18684 
L 199.503972 116.58978 
L 201.211925 117.99272 
L 202.162264 119.39566 
L 202.84677 120.7986 
L 206.182928 122.20154 
L 208.017144 123.60448 
L 208.701646 125.00742 
L 210.283325 126.41036 
L 211.43304 127.8133 
L 213.652709 129.21624 
L 214.556526 130.61918 
L 216.051813 132.02212 
L 218.23825 133.42506 
L 220.850021 136.23094 
L 221.973145 137.63388 
L 223.488372 139.03682 
L 225.183024 140.43976 
L 226.319449 141.8427 
L 229.057484 143.24564 
L 230.798667 144.64858 
L 233.503471 146.05152 
L 234.473741 147.45446 
L 238.408012 150.26034 
L 241.318832 151.66328 
L 243.066656 153.06622 
L 249.971559 157.27504 
L 257.042597 161.48386 
L 261.156304 162.8868 
L 263.395903 164.28974 
L 267.742207 165.69268 
L 269.968526 167.09562 
L 271.72964 168.49856 
L 275.085733 169.9015 
L 277.690844 171.30444 
L 281.47226 172.70738 
L 283.878005 174.11032 
L 286.908458 175.51326 
L 290.52373 176.9162 
L 292.736758 178.31914 
L 297.00995 179.72208 
L 298.126443 181.12502 
L 300.990733 182.52796 
L 304.599364 183.9309 
L 307.151322 185.33384 
L 311.205207 186.73678 
L 313.723926 188.13972 
L 317.093309 189.54266 
L 318.72814 190.9456 
L 321.326639 192.34854 
L 324.822287 193.75148 
L 327.267922 195.15442 
L 331.089181 196.55736 
L 334.086413 197.9603 
L 336.757995 199.36324 
L 339.854891 200.76618 
L 341.948296 202.16912 
L 345.503765 203.57206 
L 347.869619 204.975 
L 353.292545 207.78088 
L 355.472333 209.18382 
L 358.695512 210.58676 
L 360.822138 211.9897 
L 364.032017 213.39264 
L 366.304866 214.79558 
L 368.358371 216.19852 
L 371.495148 217.60146 
L 373.156579 219.0044 
L 375.921223 220.40734 
L 377.968087 221.81028 
L 379.70928 223.21322 
L 382.174817 224.61616 
L 383.384354 226.0191 
L 386.1955 227.42204 
L 393.033931 231.63086 
L 399.094819 235.83968 
L 404.33166 238.64556 
L 405.747184 240.0485 
L 408.717835 241.45144 
L 412.499232 244.25732 
L 414.253706 245.66026 
L 416.32717 247.0632 
L 419.031993 248.46614 
L 422.653886 251.27202 
L 426.887216 254.0779 
L 427.904007 255.48084 
L 430.063874 256.88378 
L 431.984474 258.28672 
L 434.111099 259.68966 
L 435.440259 261.0926 
L 437.128272 262.49554 
L 441.082493 265.30142 
L 442.730605 266.70436 
L 445.056616 268.1073 
L 446.81773 269.51024 
L 448.944356 270.91318 
L 452.214057 273.71906 
L 454.473568 275.122 
L 455.716345 276.52494 
L 457.982516 277.92788 
L 459.43794 279.33082 
L 461.119293 280.73376 
L 463.02665 282.1367 
L 464.32921 283.53964 
L 466.329533 284.94258 
L 469.200539 287.74846 
L 471.08122 289.1514 
L 472.616406 290.55434 
L 474.72313 291.95728 
L 477.96623 294.76316 
L 479.767187 296.1661 
L 480.996645 297.56904 
L 485.449263 300.37492 
L 486.778461 301.77786 
L 488.732245 303.1808 
L 493.344424 307.38962 
L 495.451072 308.79256 
L 498.680929 311.59844 
L 499.817306 313.00138 
L 501.452195 314.40432 
L 503.970894 315.80726 
L 504.755078 317.2102 
L 506.370026 318.61314 
L 507.672587 320.01608 
L 509.267556 321.41902 
L 511.274539 322.82196 
L 512.663521 324.2249 
L 516.53132 327.03078 
L 517.81394 328.43372 
L 520.073489 329.83666 
L 521.263028 331.2396 
L 522.977678 332.64254 
L 525.210628 334.04548 
L 526.347043 335.44842 
L 528.467009 336.85136 
L 529.902493 338.2543 
L 533.504446 341.06018 
L 537.677974 343.86606 
L 539.352705 345.269 
L 541.725237 346.67194 
L 545.666139 349.47782 
L 548.490567 350.88076 
L 551.720386 352.2837 
L 553.262194 353.68664 
L 555.488484 355.08958 
L 558.445873 356.49252 
L 560.612341 357.89546 
L 563.210802 359.2984 
L 567.397649 362.10428 
L 570.933159 363.50722 
L 572.461685 364.91016 
L 575.093368 366.3131 
L 577.332977 367.71604 
L 578.376349 369.11898 
L 583.008431 370.52192 
L 584.570179 371.92486 
L 586.344574 373.3278 
L 587.886382 374.73074 
L 589.228823 376.13368 
L 591.169363 377.53662 
L 592.784273 378.93956 
L 593.98051 380.3425 
L 596.133735 381.74544 
L 597.25687 383.14838 
L 600.898703 385.95426 
L 602.560115 387.3572 
L 604.886107 390.16308 
L 606.580779 391.56602 
L 608.002982 392.96896 
L 609.092857 394.3719 
L 610.402076 395.77484 
L 611.192882 397.17778 
L 612.216352 398.58072 
L 614.794911 401.3866 
L 616.077531 402.78954 
L 617.572836 405.59542 
L 618.882018 406.99836 
L 619.726024 408.4013 
L 620.869098 409.80424 
L 621.706445 411.20718 
L 622.158339 412.61012 
L 623.288133 414.01306 
L 623.15521 415.416 
L 623.833071 416.81894 
L 624.165361 418.22188 
L 624.690358 419.62482 
L 624.743519 421.02776 
L 625.328338 423.83364 
L 625.341657 428.04246 
L 626.185663 429.4454 
L 626.37171 432.25128 
L 625.786892 433.65422 
L 626.411591 435.05716 
L 626.723979 436.4601 
L 626.637557 437.86304 
L 626.438191 439.26598 
L 625.075809 440.66892 
L 625.055869 442.07186 
L 623.952713 443.4748 
L 624.298284 446.28068 
L 624.284965 447.68362 
L 624.603974 449.08656 
L 623.726747 450.4895 
L 623.427678 451.89244 
L 623.407776 453.29538 
L 623.254912 454.69832 
L 622.317825 457.5042 
L 622.550451 458.90714 
L 621.919092 461.71302 
L 622.437506 464.5189 
L 623.653645 465.92184 
L 623.102048 467.32478 
L 623.361197 470.13066 
L 624.15208 471.5336 
L 623.640364 472.93654 
L 624.597315 475.74242 
L 625.607504 477.14536 
L 627.248976 478.5483 
L 626.40497 479.95124 
L 628.119582 482.75712 
L 628.637919 484.16006 
L 628.352169 485.563 
L 628.863885 486.96594 
L 628.232565 488.36888 
L 629.601568 489.77182 
L 629.309121 492.5777 
L 628.98349 493.98064 
L 627.780632 496.78652 
L 626.876843 498.18946 
L 626.331867 499.5924 
L 626.252106 500.99534 
L 626.478072 502.39828 
L 625.76033 505.20416 
L 626.571115 506.6071 
L 627.116052 509.41298 
L 626.218884 510.81592 
L 625.421419 513.6218 
L 625.255273 515.02474 
L 626.105939 516.42768 
L 625.022686 517.83062 
L 624.996086 519.23356 
L 625.527742 520.6365 
L 624.942886 522.03944 
L 623.268193 523.44238 
L 622.430808 524.84532 
L 622.271323 526.24826 
L 622.324523 527.6512 
L 621.214669 530.45708 
L 621.001984 531.86002 
L 621.467198 534.6659 
L 620.051654 537.47178 
L 619.506717 538.87472 
L 620.018433 540.27766 
L 619.30735 541.6806 
L 618.430123 543.08354 
L 617.306989 544.48648 
L 617.373431 545.88942 
L 615.658819 547.29236 
L 614.296476 548.6953 
L 614.203395 550.09824 
L 614.921175 551.50118 
L 615.891445 552.90412 
L 619.141205 554.30706 
L 619.539938 555.71 
L 621.294393 557.11294 
L 621.686504 558.51588 
L 622.231442 559.91882 
L 621.301052 562.7247 
L 620.091535 564.12764 
L 618.410144 565.53058 
L 614.834792 566.93352 
L 614.874635 568.33646 
L 613.73156 569.7394 
L 613.791419 571.14234 
L 612.156531 572.54528 
L 612.262855 573.94822 
L 611.618215 575.35116 
L 612.588523 576.7541 
L 612.262855 578.15704 
L 607.345061 579.55998 
L 607.205478 580.96292 
L 602.287646 582.36586 
L 626.039458 583.7688 
L 626.039458 583.7688 
" clip-path="url(#p01f7be74c5)" style="fill: none; stroke: #00264a; stroke-width: 4"/>
   </g>
   <g id="line2d_16">
    <path d="M 265.560945 78.7104 
L 265.560945 80.11334 
L 266.370702 81.51628 
L 264.80767 84.32216 
L 264.80767 85.7251 
L 264.920662 87.12804 
L 266.653179 88.53098 
L 270.494845 91.33686 
L 270.589001 92.7398 
L 271.229274 94.14274 
L 272.001376 95.54568 
L 274.035206 96.94862 
L 275.221606 98.35156 
L 275.560565 99.7545 
L 276.276176 101.15744 
L 277.933354 102.56038 
L 279.816537 103.96332 
L 281.323069 105.36626 
L 281.511371 106.7692 
L 284.317304 108.17214 
L 286.125149 109.57508 
L 289.044065 110.97802 
L 291.153224 112.38096 
L 292.96105 113.7839 
L 295.277338 115.18684 
L 298.874191 116.58978 
L 304.052904 119.39566 
L 305.371124 120.7986 
L 308.252385 122.20154 
L 316.44416 125.00742 
L 319.457223 126.41036 
L 320.944936 127.8133 
L 327.159391 130.61918 
L 330.643261 132.02212 
L 333.2797 133.42506 
L 334.277769 134.828 
L 337.121357 136.23094 
L 341.019524 137.63388 
L 344.089078 139.03682 
L 345.350806 140.43976 
L 352.431529 143.24564 
L 356.536825 144.64858 
L 360.227844 146.05152 
L 361.056438 147.45446 
L 364.91695 148.8574 
L 371.338554 150.26034 
L 383.089509 153.06622 
L 384.953865 154.46916 
L 405.593388 157.27504 
L 420.545754 160.08092 
L 422.824388 161.48386 
L 426.515387 162.8868 
L 430.809015 164.28974 
L 432.579186 165.69268 
L 435.57343 167.09562 
L 437.456585 168.49856 
L 440.319009 169.9015 
L 442.108037 171.30444 
L 444.46198 172.70738 
L 447.041946 174.11032 
L 448.906264 175.51326 
L 451.373209 176.9162 
L 456.721397 179.72208 
L 461.448158 182.52796 
L 463.482007 183.9309 
L 466.231429 185.33384 
L 471.617291 189.54266 
L 473.048513 190.9456 
L 475.553094 192.34854 
L 476.438198 193.75148 
L 478.321391 195.15442 
L 480.487022 196.55736 
L 481.409763 197.9603 
L 484.140386 199.36324 
L 485.665754 200.76618 
L 491.729514 204.975 
L 494.516611 206.37794 
L 496.060815 207.78088 
L 498.245322 209.18382 
L 500.655718 210.58676 
L 502.538949 211.9897 
L 505.495501 213.39264 
L 507.209161 214.79558 
L 510.203425 216.19852 
L 512.124253 217.60146 
L 517.039345 220.40734 
L 518.71537 221.81028 
L 520.956311 223.21322 
L 522.688808 224.61616 
L 524.892152 226.0191 
L 526.643486 227.42204 
L 528.884465 228.82498 
L 531.74687 230.22792 
L 533.385222 231.63086 
L 543.064748 237.24262 
L 545.155032 238.64556 
L 552.329902 242.85438 
L 554.11891 244.25732 
L 556.661203 245.66026 
L 558.751525 247.0632 
L 560.634679 248.46614 
L 562.743838 249.86908 
L 564.438662 251.27202 
L 566.679679 252.67496 
L 570.577808 255.48084 
L 572.291507 256.88378 
L 574.212335 258.28672 
L 576.34033 259.68966 
L 578.731966 261.0926 
L 581.537861 262.49554 
L 583.439891 263.89848 
L 590.803053 268.1073 
L 593.288835 269.51024 
L 594.96486 270.91318 
L 600.896838 275.122 
L 603.100143 276.52494 
L 604.719696 277.92788 
L 607.205478 279.33082 
L 608.749645 280.73376 
L 610.538691 282.1367 
L 615.152431 284.94258 
L 617.393372 286.34552 
L 618.57979 287.74846 
L 620.896079 289.1514 
L 622.816945 290.55434 
L 624.078635 291.95728 
L 625.660514 293.36022 
L 626.470271 294.76316 
L 628.748923 296.1661 
L 631.347689 297.56904 
L 633.626341 298.97198 
L 636.451073 300.37492 
L 638.993366 301.77786 
L 642.496073 303.1808 
L 645.075963 304.58374 
L 650.706666 307.38962 
L 653.399616 308.79256 
L 656.393803 310.1955 
L 658.145176 311.59844 
L 660.574485 313.00138 
L 662.683606 314.40432 
L 663.964171 315.80726 
L 666.280459 317.2102 
L 668.333107 318.61314 
L 671.120241 321.41902 
L 671.496827 322.82196 
L 672.306584 324.2249 
L 672.476078 325.62784 
L 673.493002 328.43372 
L 674.75473 329.83666 
L 676.336609 331.2396 
L 677.5795 332.64254 
L 678.351584 334.04548 
L 679.669784 335.44842 
L 681.195152 336.85136 
L 682.890052 338.2543 
L 683.850428 339.65724 
L 685.017972 341.06018 
L 685.752419 342.46312 
L 688.125256 345.269 
L 687.654449 346.67194 
L 687.484955 349.47782 
L 686.957675 350.88076 
L 687.560264 352.2837 
L 687.466118 353.68664 
L 687.108332 355.08958 
L 687.390809 356.49252 
L 687.842741 357.89546 
L 688.596026 359.2984 
L 689.02916 360.70134 
L 689.217453 362.10428 
L 690.121394 363.50722 
L 691.364285 364.91016 
L 692.287026 366.3131 
L 693.718247 367.71604 
L 694.113707 369.11898 
L 694.942302 370.52192 
L 696.185193 371.92486 
L 697.107933 373.3278 
L 698.294351 374.73074 
L 698.991125 376.13368 
L 700.704786 378.93956 
L 700.629439 380.3425 
L 701.175594 381.74544 
L 701.213229 383.14838 
L 701.702874 384.55132 
L 702.324339 385.95426 
L 702.437284 387.3572 
L 703.736723 388.76014 
L 703.642539 390.16308 
L 704.88543 392.96896 
L 704.923104 394.3719 
L 705.299727 395.77484 
L 705.450384 397.17778 
L 705.864681 398.58072 
L 706.410798 399.98366 
L 706.655601 401.3866 
L 707.295903 402.78954 
L 708.143334 404.19248 
L 708.124459 405.59542 
L 708.63294 408.4013 
L 709.084911 409.80424 
L 709.0284 411.20718 
L 709.386225 412.61012 
L 709.066074 414.01306 
L 709.122547 415.416 
L 709.292041 416.81894 
L 709.706338 418.22188 
L 709.536882 419.62482 
L 709.706338 421.02776 
L 709.518045 422.4307 
L 709.668702 423.83364 
L 710.082961 425.23658 
L 707.672488 426.63952 
L 707.37125 428.04246 
L 706.523781 429.4454 
L 705.958827 430.84834 
L 705.714024 435.05716 
L 705.619878 436.4601 
L 705.789334 437.86304 
L 705.186744 439.26598 
L 705.638677 440.66892 
L 705.827007 442.07186 
L 705.243255 443.4748 
L 704.866593 444.87774 
L 704.263966 446.28068 
L 704.339313 447.68362 
L 703.69905 449.08656 
L 703.134096 451.89244 
L 702.757434 453.29538 
L 702.512631 454.69832 
L 701.53338 457.5042 
L 700.685987 458.90714 
L 700.309326 461.71302 
L 699.386548 463.11596 
L 699.047598 464.5189 
L 698.011836 465.92184 
L 696.99495 468.72772 
L 696.674837 470.13066 
L 695.60144 471.5336 
L 694.302 474.33948 
L 693.228603 475.74242 
L 690.836967 479.95124 
L 690.272051 481.35418 
L 688.953812 482.75712 
L 688.181729 484.16006 
L 686.656361 485.563 
L 686.260901 488.36888 
L 684.62255 489.77182 
L 683.398495 491.17476 
L 682.381571 492.5777 
L 682.155604 493.98064 
L 681.40232 495.38358 
L 679.594475 496.78652 
L 680.423069 498.18946 
L 678.765881 499.5924 
L 679.293161 500.99534 
L 679.010684 502.39828 
L 678.57755 503.80122 
L 679.180178 505.20416 
L 677.937287 506.6071 
L 677.297023 508.01004 
L 676.901525 509.41298 
L 676.336609 510.81592 
L 675.206663 512.21886 
L 674.396944 513.6218 
L 673.926136 515.02474 
L 673.210525 516.42768 
L 672.363133 517.83062 
L 671.327371 519.23356 
L 670.894237 520.6365 
L 669.105191 523.44238 
L 667.787028 524.84532 
L 667.278547 526.24826 
L 666.336932 527.6512 
L 665.112878 529.05414 
L 665.112878 530.45708 
L 664.378468 531.86002 
L 663.964171 533.26296 
L 663.869986 534.6659 
L 661.553698 536.06884 
L 660.988744 537.47178 
L 659.199774 538.87472 
L 658.89846 540.27766 
L 658.408854 541.6806 
L 657.768514 543.08354 
L 654.943782 544.48648 
L 655.094439 545.88942 
L 652.552147 547.29236 
L 653.173611 548.6953 
L 655.207461 550.09824 
L 655.376916 551.50118 
L 653.776201 552.90412 
L 644.36039 554.30706 
L 643.851909 555.71 
L 637.844621 557.11294 
L 614.606314 558.51588 
L 613.740084 559.91882 
L 613.401059 561.32176 
L 606.904164 562.7247 
L 607.393771 564.12764 
L 605.698909 565.53058 
L 605.303449 566.93352 
L 600.614361 568.33646 
L 564.231532 569.7394 
L 564.231532 571.14234 
L 564.231532 571.14234 
" clip-path="url(#p01f7be74c5)" style="fill: none; stroke: #0077b2; stroke-width: 4"/>
   </g>
   <g id="line2d_17">
    <path d="M 397.670561 82.91922 
L 397.670561 87.12804 
L 399.993452 88.53098 
L 402.078104 89.93392 
L 401.587584 91.33686 
L 402.428451 92.7398 
L 402.91897 94.14274 
L 402.91897 95.54568 
L 403.500554 96.94862 
L 403.794847 99.7545 
L 405.024609 101.15744 
L 405.066678 102.56038 
L 407.438621 103.96332 
L 407.568234 105.36626 
L 408.090282 106.7692 
L 410.139885 109.57508 
L 410.777523 110.97802 
L 410.910675 112.38096 
L 411.380151 113.7839 
L 411.530808 115.18684 
L 412.143938 116.58978 
L 413.24757 120.7986 
L 413.958804 122.20154 
L 415.335723 123.60448 
L 416.211618 125.00742 
L 416.618038 126.41036 
L 417.224167 127.8133 
L 418.793773 130.61918 
L 419.382378 132.02212 
L 420.454481 133.42506 
L 421.982056 134.828 
L 422.93153 136.23094 
L 423.323946 137.63388 
L 424.063169 139.03682 
L 424.998658 140.43976 
L 426.112773 141.8427 
L 427.002711 143.24564 
L 428.116845 144.64858 
L 428.673922 146.05152 
L 430.145424 148.8574 
L 432.377232 153.06622 
L 433.543919 154.46916 
L 434.055445 155.8721 
L 436.728702 160.08092 
L 438.750278 161.48386 
L 439.247781 162.8868 
L 440.102652 164.28974 
L 440.645705 165.69268 
L 441.328932 167.09562 
L 444.215883 171.30444 
L 444.832514 172.70738 
L 445.929163 174.11032 
L 446.356588 175.51326 
L 447.719503 176.9162 
L 448.486753 178.31914 
L 449.450288 179.72208 
L 450.186029 182.52796 
L 451.149526 183.9309 
L 451.678557 185.33384 
L 452.351242 186.73678 
L 452.596502 188.13972 
L 453.332244 189.54266 
L 453.68261 190.9456 
L 456.828862 196.55736 
L 457.182691 197.9603 
L 459.547651 202.16912 
L 459.964535 203.57206 
L 460.917529 204.975 
L 461.373001 206.37794 
L 462.935624 209.18382 
L 463.496201 210.58676 
L 464.435153 211.9897 
L 464.904667 213.39264 
L 465.713967 214.79558 
L 466.137892 216.19852 
L 467.003285 217.60146 
L 467.994789 220.40734 
L 468.663974 221.81028 
L 468.807667 223.21322 
L 469.385749 224.61616 
L 469.66952 226.0191 
L 470.675067 227.42204 
L 472.244654 231.63086 
L 472.633607 233.0338 
L 473.187144 234.43674 
L 473.691668 237.24262 
L 473.772229 238.64556 
L 474.616616 242.85438 
L 475.177193 244.25732 
L 475.839376 247.0632 
L 476.697767 251.27202 
L 476.99204 252.67496 
L 477.500065 254.0779 
L 478.102693 258.28672 
L 478.21834 261.0926 
L 478.064144 262.49554 
L 478.148244 263.89848 
L 478.165749 266.70436 
L 478.361995 268.1073 
L 478.477566 270.91318 
L 478.687777 272.31612 
L 478.708783 276.52494 
L 478.90853 277.92788 
L 478.817428 280.73376 
L 478.915532 283.53964 
L 478.915532 284.94258 
L 479.094235 286.34552 
L 478.785881 287.74846 
L 478.62122 290.55434 
L 478.57567 293.36022 
L 478.754334 294.76316 
L 478.94354 297.56904 
L 478.530119 298.97198 
L 476.29481 300.37492 
L 475.429455 304.58374 
L 475.065085 307.38962 
L 474.83733 310.1955 
L 474.006986 317.2102 
L 473.491959 318.61314 
L 473.110084 321.41902 
L 472.707128 322.82196 
L 472.283241 325.62784 
L 472.118542 327.03078 
L 471.74013 328.43372 
L 469.150992 329.83666 
L 454.548002 331.2396 
L 454.355295 332.64254 
L 453.903324 334.04548 
L 453.647562 335.44842 
L 453.206094 336.85136 
L 452.855766 339.65724 
L 452.796211 343.86606 
L 453.122032 345.269 
L 452.862768 346.67194 
L 453.391799 348.07488 
L 453.55646 349.47782 
L 454.00843 350.88076 
L 456.222695 352.2837 
L 457.844911 356.49252 
L 458.268798 357.89546 
L 458.451002 359.2984 
L 459.039626 360.70134 
L 461.723366 369.11898 
L 461.884526 370.52192 
L 462.805973 373.3278 
L 462.87957 374.73074 
L 463.114289 376.13368 
L 463.429645 378.93956 
L 463.68887 381.74544 
L 463.723918 384.55132 
L 463.545253 388.76014 
L 462.599262 397.17778 
L 462.248896 401.3866 
L 459.463551 415.416 
L 458.233788 419.62482 
L 457.865917 421.02776 
L 458.535102 422.4307 
L 458.044582 423.83364 
L 457.760773 425.23658 
L 457.165186 426.63952 
L 456.94097 428.04246 
L 456.387394 429.4454 
L 455.662156 432.25128 
L 455.231191 433.65422 
L 454.999935 435.05716 
L 454.299241 436.4601 
L 454.13458 437.86304 
L 453.171084 439.26598 
L 451.89227 442.07186 
L 450.967322 443.4748 
L 450.687052 444.87774 
L 449.65346 446.28068 
L 449.313635 447.68362 
L 447.673952 450.4895 
L 446.955715 451.89244 
L 445.753961 453.29538 
L 445.484194 454.69832 
L 444.236889 456.10126 
L 443.728864 457.5042 
L 442.667301 458.90714 
L 439.412442 464.5189 
L 438.30179 465.92184 
L 437.359337 467.32478 
L 438.459449 468.72772 
L 435.565496 472.93654 
L 434.377784 474.33948 
L 433.431811 475.74242 
L 431.851683 477.14536 
L 430.825112 478.5483 
L 430.068345 479.95124 
L 429.174925 481.35418 
L 428.456689 482.75712 
L 427.24445 484.16006 
L 426.981705 485.563 
L 425.906062 486.96594 
L 425.28943 488.36888 
L 422.511087 491.17476 
L 421.645713 492.5777 
L 419.992007 493.98064 
L 419.354332 495.38358 
L 417.882829 496.78652 
L 417.371304 498.18946 
L 415.756147 499.5924 
L 413.541882 502.39828 
L 411.94423 503.80122 
L 411.516804 505.20416 
L 409.877121 506.6071 
L 409.631861 508.01004 
L 407.806492 509.41298 
L 406.888527 510.81592 
L 405.714819 512.21886 
L 404.923023 513.6218 
L 403.738793 515.02474 
L 402.176189 516.42768 
L 401.156657 517.83062 
L 399.926895 519.23356 
L 399.21566 520.6365 
L 398.161062 522.03944 
L 395.365194 526.24826 
L 392.979247 529.05414 
L 392.229483 530.45708 
L 391.013744 531.86002 
L 389.962646 533.26296 
L 388.550699 534.6659 
L 388.133776 536.06884 
L 386.897012 537.47178 
L 386.511598 538.87472 
L 385.2223 540.27766 
L 384.577622 541.6806 
L 383.635169 543.08354 
L 382.387864 544.48648 
L 381.984964 545.88942 
L 380.720154 547.29236 
L 380.149073 548.6953 
L 378.737107 550.09824 
L 378.379758 551.50118 
L 377.030867 554.30706 
L 377.128971 555.71 
L 376.631468 557.11294 
L 376.487813 558.51588 
L 375.314105 559.91882 
L 375.2966 561.32176 
L 375.135421 562.7247 
L 373.87063 564.12764 
L 373.926683 565.53058 
L 372.511235 566.93352 
L 372.343054 568.33646 
L 370.535209 571.14234 
L 369.834478 573.94822 
L 370.94161 575.35116 
L 370.405558 576.7541 
L 370.552714 578.15704 
L 370.055193 579.55998 
L 369.144268 580.96292 
L 368.440054 582.36586 
L 368.440054 583.7688 
L 368.440054 583.7688 
" clip-path="url(#p01f7be74c5)" style="fill: none; stroke: #00b192; stroke-width: 4"/>
   </g>
   <g id="line2d_18">
    <path d="M 335.702293 78.7104 
L 347.107239 80.11334 
L 347.107239 81.51628 
L 346.473388 82.91922 
L 346.473388 88.53098 
L 346.808171 89.93392 
L 346.808171 92.7398 
L 346.955479 94.14274 
L 347.357218 95.54568 
L 347.357218 96.94862 
L 347.477755 98.35156 
L 349.548936 99.7545 
L 349.548936 101.15744 
L 349.665001 102.56038 
L 351.075541 103.96332 
L 351.164816 105.36626 
L 351.664754 106.7692 
L 352.405766 108.17214 
L 352.669121 109.57508 
L 353.628831 110.97802 
L 354.427857 112.38096 
L 354.945643 116.58978 
L 354.802806 117.99272 
L 352.856595 119.39566 
L 352.928004 120.7986 
L 353.637755 123.60448 
L 353.9279 125.00742 
L 353.860943 126.41036 
L 354.575146 127.8133 
L 354.927795 129.21624 
L 356.052661 130.61918 
L 356.78473 132.02212 
L 356.963281 133.42506 
L 358.436324 134.828 
L 359.195165 136.23094 
L 359.757607 137.63388 
L 361.989491 140.43976 
L 361.989491 141.8427 
L 362.257317 143.24564 
L 364.149966 144.64858 
L 364.149966 146.05152 
L 365.453383 147.45446 
L 368.345927 148.8574 
L 369.725224 150.26034 
L 369.725224 151.66328 
L 372.934684 153.06622 
L 374.639859 154.46916 
L 375.787043 155.8721 
L 378.817953 157.27504 
L 378.956319 158.67798 
L 381.125717 160.08092 
L 382.357725 161.48386 
L 382.884453 162.8868 
L 385.303831 164.28974 
L 386.401906 165.69268 
L 386.906335 167.09562 
L 389.955092 168.49856 
L 389.955092 169.9015 
L 390.95944 171.30444 
L 394.427803 172.70738 
L 394.650991 174.11032 
L 394.650991 175.51326 
L 398.083621 176.9162 
L 398.021136 178.31914 
L 399.235277 179.72208 
L 401.297553 181.12502 
L 401.351115 182.52796 
L 402.471528 183.9309 
L 404.9266 185.33384 
L 405.069437 186.73678 
L 405.993452 188.13972 
L 408.095895 189.54266 
L 407.283493 190.9456 
L 409.256474 192.34854 
L 409.582333 193.75148 
L 411.332126 196.55736 
L 411.559786 197.9603 
L 415.831646 204.975 
L 416.206595 206.37794 
L 417.197529 207.78088 
L 417.98316 209.18382 
L 418.442931 210.58676 
L 419.192848 211.9897 
L 421.19262 213.39264 
L 421.906823 214.79558 
L 421.906823 216.19852 
L 423.268291 217.60146 
L 424.067317 219.0044 
L 424.067317 220.40734 
L 425.49127 221.81028 
L 426.129555 223.21322 
L 426.129555 224.61616 
L 427.629408 226.0191 
L 428.883715 228.82498 
L 429.106903 230.22792 
L 430.23626 233.0338 
L 431.338806 234.43674 
L 431.338806 235.83968 
L 431.727169 237.24262 
L 432.83864 238.64556 
L 432.83864 240.0485 
L 432.503838 241.45144 
L 432.945763 242.85438 
L 432.945763 244.25732 
L 432.177999 245.66026 
L 432.713651 247.0632 
L 432.816321 249.86908 
L 433.374292 251.27202 
L 433.374292 252.67496 
L 434.017067 255.48084 
L 434.017067 256.88378 
L 434.713423 258.28672 
L 434.713423 259.68966 
L 434.383111 261.0926 
L 435.266922 262.49554 
L 435.266922 263.89848 
L 435.070524 265.30142 
L 435.686528 266.70436 
L 435.771313 269.51024 
L 436.012387 270.91318 
L 436.012387 272.31612 
L 436.588205 275.122 
L 436.588205 276.52494 
L 437.199757 279.33082 
L 437.199757 280.73376 
L 437.480959 283.53964 
L 437.418474 287.74846 
L 437.025658 289.1514 
L 437.1551 290.55434 
L 437.146195 291.95728 
L 436.833712 296.1661 
L 436.168619 297.56904 
L 436.302513 298.97198 
L 436.289155 300.37492 
L 435.467792 301.77786 
L 435.476734 303.1808 
L 434.93663 304.58374 
L 435.164252 305.98668 
L 435.101767 307.38962 
L 434.65539 308.79256 
L 434.753589 310.1955 
L 434.722365 311.59844 
L 434.454539 313.00138 
L 434.298288 315.80726 
L 434.119738 317.2102 
L 434.164356 318.61314 
L 434.070629 320.01608 
L 433.700132 321.41902 
L 433.731394 322.82196 
L 433.450172 325.62784 
L 433.445701 327.03078 
L 432.910049 328.43372 
L 432.829697 331.2396 
L 432.142285 332.64254 
L 432.066404 335.44842 
L 431.633404 336.85136 
L 431.557523 339.65724 
L 431.999448 342.46312 
L 432.365454 343.86606 
L 433.061809 345.269 
L 433.311769 346.67194 
L 434.909821 348.07488 
L 434.909821 349.47782 
L 435.436568 350.88076 
L 437.012263 352.2837 
L 437.012263 353.68664 
L 437.659509 355.08958 
L 439.538763 356.49252 
L 439.538763 357.89546 
L 440.328846 359.2984 
L 442.76609 360.70134 
L 442.76609 362.10428 
L 444.399837 363.50722 
L 445.676444 364.91016 
L 445.676444 366.3131 
L 447.011122 367.71604 
L 448.631474 369.11898 
L 448.631474 370.52192 
L 450.649112 371.92486 
L 451.073189 373.3278 
L 451.073189 374.73074 
L 453.17116 376.13368 
L 454.104061 385.95426 
L 453.796087 387.3572 
L 453.983543 388.76014 
L 453.82284 390.16308 
L 453.452381 391.56602 
L 453.555014 394.3719 
L 453.153313 397.17778 
L 453.153313 398.58072 
L 452.796211 399.98366 
L 452.559628 401.3866 
L 452.443562 402.78954 
L 452.56408 404.19248 
L 452.327534 405.59542 
L 451.921305 406.99836 
L 452.023937 408.4013 
L 451.622236 409.80424 
L 450.702654 414.01306 
L 450.171493 415.416 
L 450.171493 416.81894 
L 449.167126 418.22188 
L 449.077851 421.02776 
L 448.189549 422.4307 
L 448.019941 423.83364 
L 448.019941 425.23658 
L 446.921847 426.63952 
L 447.002217 429.4454 
L 445.962156 430.84834 
L 445.377414 432.25128 
L 445.377414 433.65422 
L 444.520317 435.05716 
L 444.256981 436.4601 
L 443.141039 437.86304 
L 443.52044 439.26598 
L 441.766195 442.07186 
L 442.051887 443.4748 
L 441.770647 444.87774 
L 440.498492 446.28068 
L 440.877894 447.68362 
L 440.092282 449.08656 
L 438.610315 450.4895 
L 438.235347 451.89244 
L 438.235347 453.29538 
L 436.391788 454.69832 
L 435.775803 456.10126 
L 432.369944 461.71302 
L 432.396716 463.11596 
L 430.459429 465.92184 
L 430.298726 467.32478 
L 429.575618 468.72772 
L 428.727483 470.13066 
L 428.910486 471.5336 
L 427.660631 472.93654 
L 426.870548 474.33948 
L 427.571356 475.74242 
L 425.857277 477.14536 
L 425.857277 478.5483 
L 424.857381 479.95124 
L 422.643364 481.35418 
L 422.161273 482.75712 
L 422.161273 484.16006 
L 420.777486 485.563 
L 420.875704 486.96594 
L 420.41148 488.36888 
L 419.416056 489.77182 
L 419.273219 491.17476 
L 418.268833 492.5777 
L 418.268833 493.98064 
L 418.871461 495.38358 
L 418.179558 496.78652 
L 418.179558 498.18946 
L 417.161834 499.5924 
L 414.987964 500.99534 
L 414.987964 502.39828 
L 413.706866 503.80122 
L 411.92134 505.20416 
L 412.131152 506.6071 
L 410.975025 508.01004 
L 408.569062 509.41298 
L 408.394963 510.81592 
L 405.984529 512.21886 
L 405.091775 513.6218 
L 405.114075 515.02474 
L 403.020575 516.42768 
L 401.944819 517.83062 
L 402.114427 519.23356 
L 400.378028 520.6365 
L 399.864676 522.03944 
L 399.641488 523.44238 
L 398.222006 524.84532 
L 398.355919 526.24826 
L 397.931861 527.6512 
L 396.637368 529.05414 
L 396.507907 530.45708 
L 395.499107 531.86002 
L 395.075049 533.26296 
L 395.021488 534.6659 
L 394.244781 536.06884 
L 393.731448 537.47178 
L 393.673415 538.87472 
L 392.919046 540.27766 
L 392.776209 541.6806 
L 393.289523 543.08354 
L 392.959212 544.48648 
L 393.142234 545.88942 
L 394.99915 547.29236 
L 395.458941 548.6953 
L 396.695382 550.09824 
L 396.074926 551.50118 
L 395.780328 552.90412 
L 393.030621 554.30706 
L 392.597639 557.11294 
L 390.169338 558.51588 
L 389.178385 561.32176 
L 388.1517 562.7247 
L 388.290084 564.12764 
L 389.008777 565.53058 
L 389.321241 566.93352 
L 389.321241 568.33646 
L 391.472773 569.7394 
L 392.070911 571.14234 
L 392.070911 572.54528 
L 392.758342 573.94822 
L 392.758342 576.7541 
L 394.351904 578.15704 
L 394.351904 580.96292 
L 393.280599 582.36586 
L 393.280599 583.7688 
L 393.280599 583.7688 
" clip-path="url(#p01f7be74c5)" style="fill: none; stroke: #00b21d; stroke-width: 4"/>
   </g>
   <g id="line2d_19">
    <path d="M 687.683332 105.36626 
L 657.130724 106.7692 
L 657.130724 108.17214 
L 617.333589 110.97802 
L 617.556815 112.38096 
L 615.395446 113.7839 
L 615.236835 115.18684 
L 614.614305 116.58978 
L 615.184016 117.99272 
L 615.137019 119.39566 
L 615.219254 120.7986 
L 615.054784 122.20154 
L 615.971017 123.60448 
L 615.90054 125.00742 
L 615.413027 126.41036 
L 614.702401 130.61918 
L 614.297161 132.02212 
L 614.279542 133.42506 
L 613.35155 134.828 
L 613.263454 136.23094 
L 612.858176 137.63388 
L 611.360512 140.43976 
L 611.331134 141.8427 
L 610.755563 144.64858 
L 610.18589 146.05152 
L 610.132994 147.45446 
L 609.739513 148.8574 
L 609.404711 151.66328 
L 609.921565 153.06622 
L 609.733653 154.46916 
L 609.387092 155.8721 
L 609.240279 158.67798 
L 609.516325 160.08092 
L 609.310755 161.48386 
L 609.23438 162.8868 
L 609.375372 164.28974 
L 609.334235 165.69268 
L 609.116945 167.09562 
L 609.257898 168.49856 
L 609.175663 171.30444 
L 609.01123 172.70738 
L 609.00537 174.11032 
L 608.705806 175.51326 
L 608.705806 176.9162 
L 608.576612 178.31914 
L 608.770423 179.72208 
L 608.376941 181.12502 
L 608.400421 182.52796 
L 608.153715 185.33384 
L 607.490048 186.73678 
L 607.401952 188.13972 
L 606.932096 190.9456 
L 606.4681 192.34854 
L 606.4681 193.75148 
L 604.976296 195.15442 
L 604.177536 196.55736 
L 604.013104 197.9603 
L 603.33178 199.36324 
L 602.333312 200.76618 
L 602.74445 203.57206 
L 602.027926 204.975 
L 602.198295 206.37794 
L 600.54788 207.78088 
L 600.448026 209.18382 
L 599.966449 210.58676 
L 599.631685 211.9897 
L 599.032597 213.39264 
L 599.155893 214.79558 
L 598.451127 216.19852 
L 598.409991 217.60146 
L 595.913896 219.0044 
L 595.943274 221.81028 
L 593.523478 223.21322 
L 592.542628 224.61616 
L 592.572044 226.0191 
L 592.795195 227.42204 
L 591.667532 228.82498 
L 590.927528 230.22792 
L 589.764589 231.63086 
L 589.14792 233.0338 
L 587.661976 235.83968 
L 586.358122 238.64556 
L 586.428598 240.0485 
L 583.950084 241.45144 
L 584.132136 244.25732 
L 582.616852 245.66026 
L 579.979766 247.0632 
L 579.3161 248.46614 
L 579.216283 249.86908 
L 569.343327 251.27202 
L 569.284609 252.67496 
L 566.412614 254.0779 
L 561.713975 255.48084 
L 558.982933 256.88378 
L 555.053713 258.28672 
L 550.642917 259.68966 
L 549.532874 261.0926 
L 545.768125 262.49554 
L 539.842045 263.89848 
L 536.7821 266.70436 
L 528.988277 268.1073 
L 526.081044 270.91318 
L 523.349964 272.31612 
L 516.061274 273.71906 
L 514.446097 275.122 
L 513.112866 276.52494 
L 510.111638 277.92788 
L 506.452642 279.33082 
L 505.301462 280.73376 
L 502.364851 282.1367 
L 500.244618 283.53964 
L 497.672148 284.94258 
L 496.145106 286.34552 
L 494.154067 287.74846 
L 490.125032 289.1514 
L 488.556852 290.55434 
L 486.724424 291.95728 
L 485.28544 293.36022 
L 482.384066 294.76316 
L 480.469403 296.1661 
L 478.172979 297.56904 
L 476.963081 298.97198 
L 471.85924 301.77786 
L 470.719857 303.1808 
L 468.223686 304.58374 
L 465.96836 305.98668 
L 464.259266 307.38962 
L 462.285847 308.79256 
L 460.570854 310.1955 
L 458.603333 311.59844 
L 457.146729 313.00138 
L 453.405536 315.80726 
L 450.803651 317.2102 
L 450.004891 318.61314 
L 447.796563 320.01608 
L 445.829004 321.41902 
L 444.348958 322.82196 
L 443.315252 324.2249 
L 440.936611 325.62784 
L 439.709094 327.03078 
L 437.606481 328.43372 
L 435.891469 329.83666 
L 433.630283 331.2396 
L 431.90943 332.64254 
L 430.447004 334.04548 
L 427.527993 335.44842 
L 425.906956 336.85136 
L 423.927696 338.2543 
L 422.66494 339.65724 
L 420.427253 341.06018 
L 419.305451 342.46312 
L 416.474535 345.269 
L 414.965112 346.67194 
L 413.949044 348.07488 
L 412.24581 349.47782 
L 409.908268 350.88076 
L 409.285681 352.2837 
L 408.363587 353.68664 
L 406.243355 355.08958 
L 404.95712 356.49252 
L 403.841197 357.89546 
L 401.251108 360.70134 
L 400.035331 362.10428 
L 398.244001 363.50722 
L 396.822673 364.91016 
L 393.580638 367.71604 
L 392.74078 369.11898 
L 391.248976 370.52192 
L 389.011251 371.92486 
L 388.523775 373.3278 
L 387.067209 374.73074 
L 383.883911 377.53662 
L 382.785607 378.93956 
L 382.198278 380.3425 
L 378.850547 381.74544 
L 376.81253 384.55132 
L 375.132776 385.95426 
L 373.135877 387.3572 
L 371.802645 388.76014 
L 370.046554 390.16308 
L 366.082116 392.96896 
L 364.326024 394.3719 
L 362.822461 395.77484 
L 359.50409 397.17778 
L 357.372079 398.58072 
L 356.438246 399.98366 
L 353.900995 401.3866 
L 350.018792 404.19248 
L 348.051252 405.59542 
L 346.459594 406.99836 
L 343.546481 408.4013 
L 340.445399 411.20718 
L 339.352993 412.61012 
L 336.28715 414.01306 
L 335.605845 415.416 
L 333.884992 416.81894 
L 331.670784 418.22188 
L 329.920534 419.62482 
L 328.552083 421.02776 
L 326.743115 422.4307 
L 325.174955 423.83364 
L 322.790436 425.23658 
L 321.762608 426.63952 
L 316.981791 430.84834 
L 315.020131 432.25128 
L 312.430042 435.05716 
L 309.505151 436.4601 
L 307.56111 437.86304 
L 306.327732 439.26598 
L 304.595121 440.66892 
L 301.635011 442.07186 
L 300.425113 443.4748 
L 298.281382 444.87774 
L 297.31817 446.28068 
L 294.55775 447.68362 
L 292.367022 449.08656 
L 291.585901 450.4895 
L 287.621443 451.89244 
L 286.205995 453.29538 
L 285.066593 454.69832 
L 282.458875 456.10126 
L 280.544183 457.5042 
L 278.159644 458.90714 
L 276.844041 460.31008 
L 274.89413 461.71302 
L 272.057354 463.11596 
L 270.318872 464.5189 
L 264.140226 468.72772 
L 262.771746 470.13066 
L 260.33435 471.5336 
L 259.283043 472.93654 
L 257.233287 474.33948 
L 254.602071 475.74242 
L 252.898828 477.14536 
L 251.853391 478.5483 
L 249.010736 479.95124 
L 246.820017 481.35418 
L 245.645376 482.75712 
L 240.940905 485.563 
L 239.824992 486.96594 
L 238.544617 488.36888 
L 236.001506 489.77182 
L 234.039836 491.17476 
L 232.430578 492.5777 
L 231.20307 493.98064 
L 227.602763 495.38358 
L 226.897979 496.78652 
L 225.394426 498.18946 
L 223.450384 499.5924 
L 221.259656 500.99534 
L 220.137882 502.39828 
L 214.012084 506.6071 
L 213.025384 508.01004 
L 211.245784 509.41298 
L 209.660005 510.81592 
L 208.526473 512.21886 
L 206.376872 513.6218 
L 205.296187 515.02474 
L 203.874859 516.42768 
L 201.695894 517.83062 
L 200.274567 519.23356 
L 199.235 520.6365 
L 197.16762 522.03944 
L 196.110438 523.44238 
L 194.847683 524.84532 
L 193.408741 526.24826 
L 192.633475 527.6512 
L 191.435331 529.05414 
L 190.078615 530.45708 
L 189.479541 531.86002 
L 187.617725 534.6659 
L 186.754359 536.06884 
L 186.167034 537.47178 
L 185.714797 538.87472 
L 184.405058 541.6806 
L 184.129017 543.08354 
L 183.594554 544.48648 
L 181.274622 552.90412 
L 180.933975 557.11294 
L 181.104301 558.51588 
L 181.22176 566.93352 
L 181.785592 568.33646 
L 181.12192 571.14234 
L 182.055763 572.54528 
L 181.873692 573.94822 
L 182.461017 575.35116 
L 183.400734 576.7541 
L 182.813409 578.15704 
L 182.90151 579.55998 
L 182.5961 580.96292 
L 182.5961 583.7688 
L 182.5961 583.7688 
" clip-path="url(#p01f7be74c5)" style="fill: none; stroke: #369900; stroke-width: 4"/>
   </g>
   <g id="line2d_20">
    <path d="M 673.653135 130.61918 
L 673.653135 134.828 
L 662.687982 136.23094 
L 664.253612 137.63388 
L 664.253612 139.03682 
L 661.549893 140.43976 
L 661.53254 141.8427 
L 661.076155 143.24564 
L 661.936943 144.64858 
L 661.596091 146.05152 
L 661.63072 147.45446 
L 658.898156 148.8574 
L 658.880803 150.26034 
L 659.042572 151.66328 
L 658.961668 153.06622 
L 659.094554 154.46916 
L 659.106122 155.8721 
L 659.943773 157.27504 
L 660.19223 160.08092 
L 660.515729 161.48386 
L 661.076155 162.8868 
L 661.278337 164.28974 
L 655.992178 165.69268 
L 656.46017 167.09562 
L 656.477484 168.49856 
L 654.640338 169.9015 
L 654.969621 171.30444 
L 653.658233 172.70738 
L 653.398246 174.11032 
L 652.294785 175.51326 
L 651.988563 176.9162 
L 651.948149 178.31914 
L 648.603139 179.72208 
L 648.701357 181.12502 
L 647.823178 182.52796 
L 646.910446 186.73678 
L 646.95086 188.13972 
L 645.390977 189.54266 
L 645.396799 190.9456 
L 645.015495 192.34854 
L 644.819059 193.75148 
L 644.472422 195.15442 
L 644.495521 197.9603 
L 635.072937 199.36324 
L 634.91113 200.76618 
L 634.408509 202.16912 
L 631.485255 203.57206 
L 631.323486 204.975 
L 631.363938 206.37794 
L 631.277288 207.78088 
L 620.433415 209.18382 
L 620.577907 210.58676 
L 620.837856 211.9897 
L 616.649373 213.39264 
L 616.660941 214.79558 
L 617.192407 216.19852 
L 616.198734 217.60146 
L 616.614705 220.40734 
L 616.539586 221.81028 
L 615.938747 223.21322 
L 615.586364 224.61616 
L 615.742349 226.0191 
L 611.704066 231.63086 
L 610.409992 233.0338 
L 609.907332 234.43674 
L 608.775027 235.83968 
L 608.006673 237.24262 
L 607.105395 238.64556 
L 606.602812 240.0485 
L 606.510378 241.45144 
L 605.609101 242.85438 
L 605.152716 244.25732 
L 603.650675 245.66026 
L 602.437428 247.0632 
L 602.212109 248.46614 
L 601.605523 249.86908 
L 600.195878 251.27202 
L 599.635491 252.67496 
L 597.798344 254.0779 
L 595.452792 255.48084 
L 591.888247 256.88378 
L 591.784244 258.28672 
L 590.079983 259.68966 
L 587.23181 261.0926 
L 586.729189 262.49554 
L 582.737142 263.89848 
L 581.945651 265.30142 
L 578.583326 266.70436 
L 578.329124 268.1073 
L 577.063933 269.51024 
L 575.082294 270.91318 
L 573.695786 272.31612 
L 570.899633 273.71906 
L 569.859723 275.122 
L 567.959026 276.52494 
L 565.457489 277.92788 
L 564.169199 279.33082 
L 563.117721 280.73376 
L 561.910297 282.1367 
L 556.999657 283.53964 
L 556.173499 284.94258 
L 554.81009 286.34552 
L 551.586435 287.74846 
L 550.968243 290.55434 
L 547.201478 291.95728 
L 545.670554 294.76316 
L 544.226241 296.1661 
L 541.071883 297.56904 
L 540.043542 298.97198 
L 538.870747 300.37492 
L 535.190669 301.77786 
L 533.261089 304.58374 
L 528.55267 305.98668 
L 528.223348 307.38962 
L 527.114141 308.79256 
L 525.796892 310.1955 
L 522.342172 311.59844 
L 519.921501 314.40432 
L 514.84913 315.80726 
L 514.456258 317.2102 
L 513.289247 318.61314 
L 509.222119 320.01608 
L 506.916981 322.82196 
L 505.461138 324.2249 
L 501.763707 325.62784 
L 501.469091 327.03078 
L 500.423397 328.43372 
L 497.269039 329.83666 
L 494.842622 332.64254 
L 491.728677 334.04548 
L 489.521795 335.44842 
L 489.290729 336.85136 
L 486.15947 338.2543 
L 484.536036 339.65724 
L 483.322866 341.06018 
L 481.641665 342.46312 
L 476.29774 345.269 
L 475.991555 346.67194 
L 473.276267 348.07488 
L 471.265783 349.47782 
L 470.27211 350.88076 
L 465.477041 352.2837 
L 464.581548 353.68664 
L 462.640399 355.08958 
L 462.334252 356.49252 
L 459.341625 357.89546 
L 457.810701 359.2984 
L 456.828519 360.70134 
L 453.616395 362.10428 
L 452.54764 363.50722 
L 448.284038 366.3131 
L 445.898034 367.71604 
L 445.603418 369.11898 
L 444.170674 370.52192 
L 440.877665 371.92486 
L 439.375567 373.3278 
L 434.360964 376.13368 
L 432.009627 377.53662 
L 431.674559 378.93956 
L 427.803829 380.3425 
L 424.649453 383.14838 
L 422.101718 384.55132 
L 416.544022 387.3572 
L 416.006753 388.76014 
L 411.021013 390.16308 
L 408.334609 391.56602 
L 406.312595 392.96896 
L 399.374156 394.3719 
L 398.911987 395.77484 
L 396.196699 397.17778 
L 395.549643 398.58072 
L 391.124291 399.98366 
L 389.477796 401.3866 
L 387.530882 402.78954 
L 381.360798 404.19248 
L 381.002612 405.59542 
L 375.208086 408.4013 
L 374.329926 409.80424 
L 372.290596 411.20718 
L 368.067427 412.61012 
L 364.202481 414.01306 
L 363.122139 415.416 
L 355.247813 418.22188 
L 353.225779 419.62482 
L 350.487393 421.02776 
L 345.241685 422.4307 
L 342.179742 423.83364 
L 341.607805 425.23658 
L 333.820128 426.63952 
L 333.392607 428.04246 
L 331.809644 429.4454 
L 329.568094 430.84834 
L 324.882755 432.25128 
L 321.035144 433.65422 
L 320.474756 435.05716 
L 313.917622 436.4601 
L 313.582554 437.86304 
L 311.745388 439.26598 
L 306.459248 440.66892 
L 304.737634 442.07186 
L 301.311759 443.4748 
L 300.670487 444.87774 
L 293.183211 446.28068 
L 292.790338 447.68362 
L 291.028291 449.08656 
L 284.280524 450.4895 
L 282.356709 451.89244 
L 274.823216 454.69832 
L 271.593758 456.10126 
L 271.062253 457.5042 
L 269.450416 458.90714 
L 263.522985 460.31008 
L 262.234677 461.71302 
L 258.433263 463.11596 
L 253.805718 464.5189 
L 250.859346 465.92184 
L 250.293165 467.32478 
L 245.191893 468.72772 
L 242.915666 470.13066 
L 241.51759 471.5336 
L 238.808067 472.93654 
L 234.434726 474.33948 
L 231.580778 475.74242 
L 230.795071 477.14536 
L 227.062992 478.5483 
L 224.659673 479.95124 
L 223.954851 481.35418 
L 217.097307 482.75712 
L 216.22495 484.16006 
L 213.486545 485.563 
L 209.910459 486.96594 
L 207.686224 488.36888 
L 207.166279 489.77182 
L 206.49034 491.17476 
L 201.14064 492.5777 
L 200.53981 493.98064 
L 198.188488 495.38358 
L 194.519959 496.78652 
L 192.168633 498.18946 
L 191.342493 499.5924 
L 188.494325 500.99534 
L 186.322091 502.39828 
L 186.010117 503.80122 
L 184.092086 505.20416 
L 181.082158 506.6071 
L 179.4241 508.01004 
L 179.019692 509.41298 
L 176.032873 510.81592 
L 174.374814 512.21886 
L 174.207275 513.6218 
L 170.301878 515.02474 
L 167.707907 517.83062 
L 167.361276 519.23356 
L 165.483682 520.6365 
L 164.091375 522.03944 
L 163.426995 523.44238 
L 160.798362 524.84532 
L 160.544166 526.24826 
L 159.342505 527.6512 
L 157.77688 529.05414 
L 157.424471 530.45708 
L 156.442342 531.86002 
L 156.297912 533.26296 
L 154.657185 534.6659 
L 154.535863 536.06884 
L 154.154566 537.47178 
L 153.097337 538.87472 
L 153.126223 540.27766 
L 152.473397 541.6806 
L 151.947672 543.08354 
L 151.878344 544.48648 
L 152.300081 547.29236 
L 150.08741 548.6953 
L 149.994973 550.09824 
L 150.41671 551.50118 
L 149.781215 552.90412 
L 149.301707 554.30706 
L 149.018626 555.71 
L 149.23238 557.11294 
L 149.053287 558.51588 
L 148.256033 559.91882 
L 146.182012 561.32176 
L 145.690948 562.7247 
L 145.667839 564.12764 
L 144.853254 565.53058 
L 142.530814 566.93352 
L 141.964647 569.7394 
L 141.29449 571.14234 
L 140.913194 572.54528 
L 140.710991 573.94822 
L 135.11865 575.35116 
L 134.679581 576.7541 
L 134.748907 578.15704 
L 134.968442 579.55998 
L 134.564037 580.96292 
L 134.928001 582.36586 
L 134.338726 583.7688 
L 134.338726 583.7688 
" clip-path="url(#p01f7be74c5)" style="fill: none; stroke: #57b221; stroke-width: 4"/>
   </g>
   <g id="line2d_21">
    <path d="M 581.88035 80.81481 
L 582.698783 82.21775 
L 584.335574 83.62069 
L 590.337306 86.42657 
L 594.42936 87.82951 
L 597.521119 89.23245 
L 601.249449 90.63539 
L 604.613981 92.03833 
L 607.523878 93.44127 
L 614.889628 96.24715 
L 625.61991 100.45597 
L 628.893568 101.85891 
L 633.167483 103.26185 
L 639.441988 106.06773 
L 642.260935 107.47067 
L 645.352694 108.87361 
L 654.628046 114.48537 
L 659.447584 117.29125 
L 661.357186 118.69419 
L 662.721204 120.09713 
L 666.813257 122.90301 
L 668.268225 124.30595 
L 671.905606 127.11183 
L 673.451485 128.51477 
L 675.452075 129.91771 
L 678.271023 132.72359 
L 680.453436 134.12653 
L 681.999353 135.52947 
L 684.090817 136.93241 
L 685.818634 138.33535 
L 692.729635 142.54417 
L 694.639237 143.94711 
L 699.276951 146.75299 
L 701.277465 148.15593 
L 702.823344 149.55887 
L 705.460469 150.96181 
L 706.915398 152.36475 
L 725.738913 164.99121 
L 729.558118 167.79709 
L 732.286153 170.60297 
L 733.104587 172.00591 
L 733.741159 173.40885 
L 734.559517 174.81179 
L 735.196089 176.21473 
L 737.560364 183.22943 
L 738.560659 186.03531 
L 739.470004 187.43825 
L 739.470004 188.84119 
L 740.288399 190.24413 
L 740.924971 191.64707 
L 741.197745 193.05001 
L 741.652455 194.45295 
L 742.288989 195.85589 
L 742.743624 197.25883 
L 742.834574 198.66177 
L 743.834869 201.46765 
L 744.198591 202.87059 
L 744.289579 204.27353 
L 744.198591 205.67647 
L 744.835164 207.07941 
L 745.017025 209.88529 
L 745.289798 211.28823 
L 745.380748 212.69117 
L 745.744509 214.09411 
L 745.653597 216.89999 
L 746.01732 218.30293 
L 746.01732 219.70587 
L 746.381043 221.10881 
L 746.471955 223.91469 
L 746.471955 225.31763 
L 746.744766 226.72057 
L 746.744766 228.12351 
L 747.108527 229.52645 
L 746.926627 230.92939 
L 747.017615 232.33233 
L 746.835678 235.13821 
L 746.926627 236.54115 
L 746.835678 237.94409 
L 746.108232 242.15291 
L 745.92637 243.55585 
L 745.198886 244.95879 
L 744.926075 246.36173 
L 744.01673 249.16761 
L 743.380196 250.57055 
L 741.652455 253.37643 
L 740.561249 254.77937 
L 739.924676 256.18231 
L 735.014227 264.59995 
L 734.741416 266.00289 
L 733.923021 267.40583 
L 732.922726 268.80877 
L 732.286153 270.21171 
L 731.194985 271.61465 
L 729.467206 274.42053 
L 727.921327 275.82347 
L 727.102931 277.22641 
L 725.102341 280.03229 
L 723.647374 281.43523 
L 722.374305 282.83817 
L 720.919338 284.24111 
L 719.64627 285.64405 
L 718.10039 287.04699 
L 716.918234 288.44993 
L 715.463266 289.85287 
L 714.553921 291.25581 
L 711.734974 294.06169 
L 708.915988 296.86757 
L 706.460764 299.67345 
L 704.733023 301.07639 
L 703.550866 302.47933 
L 702.095899 303.88227 
L 700.095309 305.28521 
L 695.275809 309.49403 
L 693.729892 310.89697 
L 686.45513 316.50873 
L 684.272717 317.91167 
L 682.363076 319.31461 
L 680.999058 320.71755 
L 678.907557 322.12049 
L 677.543539 323.52343 
L 675.452075 324.92637 
L 666.358585 331.94107 
L 664.812705 333.34401 
L 662.812153 334.74695 
L 657.810716 338.95577 
L 655.810203 340.35871 
L 654.264323 341.76165 
L 652.172783 343.16459 
L 650.626904 344.56753 
L 647.080435 347.37341 
L 644.988971 348.77635 
L 641.26064 351.58223 
L 638.896328 352.98517 
L 637.168587 354.38811 
L 631.348754 358.59693 
L 629.075429 359.99987 
L 625.256149 362.80575 
L 620.800334 365.61163 
L 617.344853 368.41751 
L 611.252209 372.62633 
L 609.979141 374.02927 
L 608.342312 375.43221 
L 606.34176 376.83515 
L 605.159641 378.23809 
L 603.704674 379.64103 
L 601.885945 381.04397 
L 599.15791 383.84985 
L 597.430169 385.25279 
L 592.610631 390.86455 
L 591.064752 392.26749 
L 590.155407 393.67043 
L 589.518873 395.07337 
L 586.518026 397.87925 
L 585.881454 399.28219 
L 584.972146 400.68513 
L 583.78999 403.49101 
L 582.698783 404.89395 
L 582.153161 406.29689 
L 581.425677 407.69983 
L 581.061954 409.10277 
L 580.516332 410.50571 
L 580.061659 413.31159 
L 580.061659 414.71453 
L 579.425125 416.11747 
L 579.425125 416.11747 
" clip-path="url(#p01f7be74c5)" style="fill: none; stroke: #80ac00; stroke-width: 4"/>
   </g>
   <g id="line2d_22">
    <path d="M 547.325192 80.81481 
L 547.325192 82.21775 
L 548.68921 83.62069 
L 550.053228 87.82951 
L 557.328028 93.44127 
L 558.237335 94.84421 
L 559.601353 99.05303 
L 559.601353 100.45597 
L 560.965371 101.85891 
L 561.874754 104.66479 
L 562.784099 106.06773 
L 563.238772 107.47067 
L 564.148117 108.87361 
L 566.42148 110.27655 
L 566.876153 111.67949 
L 568.694844 113.08243 
L 569.604189 114.48537 
L 570.968207 115.88831 
L 572.786897 117.29125 
L 573.24157 118.69419 
L 573.24157 120.09713 
L 573.696242 121.50007 
L 573.696242 124.30595 
L 574.150915 125.70889 
L 573.696242 127.11183 
L 572.786897 128.51477 
L 572.786897 132.72359 
L 574.150915 134.12653 
L 573.24157 135.52947 
L 573.696242 136.93241 
L 573.696242 138.33535 
L 575.514933 141.14123 
L 575.514933 142.54417 
L 576.424278 143.94711 
L 578.242969 145.35005 
L 578.242969 146.75299 
L 579.152314 149.55887 
L 579.152314 150.96181 
L 579.607025 152.36475 
L 580.971043 153.76769 
L 581.88035 156.57357 
L 583.699078 157.97651 
L 583.244368 159.37945 
L 584.608386 160.78239 
L 584.608386 162.18533 
L 587.336421 166.39415 
L 587.791132 167.79709 
L 587.336421 169.20003 
L 589.609784 170.60297 
L 590.064457 172.00591 
L 589.609784 173.40885 
L 590.064457 174.81179 
L 590.973802 176.21473 
L 591.428475 177.61767 
L 590.973802 179.02061 
L 590.973802 180.42355 
L 590.064457 181.82649 
L 590.064457 183.22943 
L 588.700439 187.43825 
L 589.609784 188.84119 
L 588.245767 190.24413 
L 588.245767 194.45295 
L 585.517731 195.85589 
L 585.063096 197.25883 
L 585.063096 198.66177 
L 584.608386 200.06471 
L 581.88035 202.87059 
L 581.88035 204.27353 
L 581.425677 205.67647 
L 580.061659 207.07941 
L 579.152314 208.48235 
L 579.152314 209.88529 
L 577.333623 212.69117 
L 576.878951 214.09411 
L 575.514933 215.49705 
L 575.06026 216.89999 
L 575.514933 218.30293 
L 575.514933 219.70587 
L 573.696242 221.10881 
L 572.786897 222.51175 
L 572.332225 223.91469 
L 571.422879 225.31763 
L 570.968207 226.72057 
L 567.330826 232.33233 
L 566.876153 233.73527 
L 565.966808 235.13821 
L 563.693407 236.54115 
L 562.329389 237.94409 
L 560.056064 239.34703 
L 558.692046 240.74997 
L 558.237335 242.15291 
L 556.873317 243.55585 
L 555.054665 244.95879 
L 554.599992 246.36173 
L 553.235974 247.76467 
L 552.326629 249.16761 
L 550.053228 250.57055 
L 550.053228 251.97349 
L 548.234575 253.37643 
L 547.779903 254.77937 
L 545.50654 256.18231 
L 544.597156 257.58525 
L 539.141085 263.19701 
L 537.322432 264.59995 
L 537.322432 266.00289 
L 535.049031 267.40583 
L 534.139686 268.80877 
L 532.320995 270.21171 
L 531.866361 271.61465 
L 530.047632 273.01759 
L 528.228942 275.82347 
L 525.955579 277.22641 
L 525.046233 278.62935 
L 523.682216 280.03229 
L 521.863525 281.43523 
L 520.499507 282.83817 
L 519.590162 284.24111 
L 517.316799 285.64405 
L 515.952781 287.04699 
L 515.043436 288.44993 
L 513.679418 289.85287 
L 511.406055 291.25581 
L 510.042037 292.65875 
L 508.223346 294.06169 
L 507.314001 295.46463 
L 504.585965 296.86757 
L 503.221947 298.27051 
L 502.767275 299.67345 
L 500.493912 301.07639 
L 500.039239 302.47933 
L 498.675221 303.88227 
L 496.401858 305.28521 
L 495.03784 306.68815 
L 494.128457 308.09109 
L 491.855094 309.49403 
L 490.491076 310.89697 
L 490.036403 312.29991 
L 487.308367 313.70285 
L 486.399022 315.10579 
L 484.580332 316.50873 
L 480.488278 320.71755 
L 475.032206 324.92637 
L 472.304171 327.73225 
L 471.394825 329.13519 
L 470.030808 330.53813 
L 469.121462 331.94107 
L 467.302772 333.34401 
L 465.938754 334.74695 
L 465.484081 336.14989 
L 464.574736 337.55283 
L 463.210718 338.95577 
L 461.392028 340.35871 
L 460.02801 341.76165 
L 460.02801 343.16459 
L 458.663992 344.56753 
L 457.754647 345.97047 
L 457.299974 347.37341 
L 454.571938 351.58223 
L 454.117228 352.98517 
L 453.20792 354.38811 
L 452.298575 357.19399 
L 452.298575 358.59693 
L 450.479885 359.99987 
L 450.934557 361.40281 
L 450.025174 362.80575 
L 450.025174 364.20869 
L 448.661156 365.61163 
L 450.025174 367.01457 
L 448.661156 368.41751 
L 447.751849 369.82045 
L 448.661156 371.22339 
L 448.206522 372.62633 
L 448.206522 374.02927 
L 446.387831 375.43221 
L 446.387831 375.43221 
" clip-path="url(#p01f7be74c5)" style="fill: none; stroke: #808907; stroke-width: 4"/>
   </g>
   <g id="patch_3">
    <path d="M 123.57 583.7688 
L 123.57 78.7104 
" style="fill: none; stroke: #000000; stroke-width: 0.8; stroke-linejoin: miter; stroke-linecap: square"/>
   </g>
   <g id="patch_4">
    <path d="M 889.704 583.7688 
L 889.704 78.7104 
" style="fill: none; stroke: #000000; stroke-width: 0.8; stroke-linejoin: miter; stroke-linecap: square"/>
   </g>
   <g id="patch_5">
    <path d="M 123.57 583.7688 
L 889.704 583.7688 
" style="fill: none; stroke: #000000; stroke-width: 0.8; stroke-linejoin: miter; stroke-linecap: square"/>
   </g>
   <g id="patch_6">
    <path d="M 123.57 78.7104 
L 889.704 78.7104 
" style="fill: none; stroke: #000000; stroke-width: 0.8; stroke-linejoin: miter; stroke-linecap: square"/>
   </g>
   <g id="legend_1">
    <g id="line2d_23">
     <path d="M 793.07775 97.64865 
L 807.47775 97.64865 
L 821.87775 97.64865 
" style="fill: none; stroke: #00005a; stroke-width: 4"/>
    </g>
    <g id="text_16">
     <!-- Ta -->
     <g transform="translate(833.39775 102.68865)scale(0.144 -0.144)">
      <defs>
       <path id="DejaVuSansMono-54" d="M 147 4666 
L 3706 4666 
L 3706 4134 
L 2247 4134 
L 2247 0 
L 1613 0 
L 1613 4134 
L 147 4134 
L 147 4666 
z
" transform="scale(0.015625)"/>
      </defs>
      <use xlink:href="#DejaVuSansMono-54"/>
      <use xlink:href="#DejaVuSansMono-61" x="60.205078"/>
     </g>
    </g>
    <g id="line2d_24">
     <path d="M 793.07775 118.86165 
L 807.47775 118.86165 
L 821.87775 118.86165 
" style="fill: none; stroke: #00264a; stroke-width: 4"/>
    </g>
    <g id="text_17">
     <!-- T8 -->
     <g transform="translate(833.39775 123.90165)scale(0.144 -0.144)">
      <defs>
       <path id="DejaVuSansMono-38" d="M 1925 2216 
Q 1503 2216 1273 1980 
Q 1044 1744 1044 1313 
Q 1044 881 1276 642 
Q 1509 403 1925 403 
Q 2350 403 2579 639 
Q 2809 875 2809 1313 
Q 2809 1741 2576 1978 
Q 2344 2216 1925 2216 
z
M 1375 2478 
Q 972 2581 745 2862 
Q 519 3144 519 3541 
Q 519 4097 897 4423 
Q 1275 4750 1925 4750 
Q 2578 4750 2956 4423 
Q 3334 4097 3334 3541 
Q 3334 3144 3107 2862 
Q 2881 2581 2478 2478 
Q 2947 2375 3195 2062 
Q 3444 1750 3444 1253 
Q 3444 622 3041 265 
Q 2638 -91 1925 -91 
Q 1213 -91 811 264 
Q 409 619 409 1247 
Q 409 1747 657 2061 
Q 906 2375 1375 2478 
z
M 1147 3481 
Q 1147 3106 1347 2909 
Q 1547 2713 1925 2713 
Q 2306 2713 2506 2909 
Q 2706 3106 2706 3481 
Q 2706 3863 2507 4063 
Q 2309 4263 1925 4263 
Q 1547 4263 1347 4061 
Q 1147 3859 1147 3481 
z
" transform="scale(0.015625)"/>
      </defs>
      <use xlink:href="#DejaVuSansMono-54"/>
      <use xlink:href="#DejaVuSansMono-38" x="60.205078"/>
     </g>
    </g>
    <g id="line2d_25">
     <path d="M 793.07775 140.07465 
L 807.47775 140.07465 
L 821.87775 140.07465 
" style="fill: none; stroke: #0077b2; stroke-width: 4"/>
    </g>
    <g id="text_18">
     <!-- T31 -->
     <g transform="translate(833.39775 145.11465)scale(0.144 -0.144)">
      <use xlink:href="#DejaVuSansMono-54"/>
      <use xlink:href="#DejaVuSansMono-33" x="60.205078"/>
      <use xlink:href="#DejaVuSansMono-31" x="120.410156"/>
     </g>
    </g>
    <g id="line2d_26">
     <path d="M 793.07775 161.28765 
L 807.47775 161.28765 
L 821.87775 161.28765 
" style="fill: none; stroke: #00b192; stroke-width: 4"/>
    </g>
    <g id="text_19">
     <!-- T61 -->
     <g transform="translate(833.39775 166.32765)scale(0.144 -0.144)">
      <use xlink:href="#DejaVuSansMono-54"/>
      <use xlink:href="#DejaVuSansMono-36" x="60.205078"/>
      <use xlink:href="#DejaVuSansMono-31" x="120.410156"/>
     </g>
    </g>
    <g id="line2d_27">
     <path d="M 793.07775 182.50065 
L 807.47775 182.50065 
L 821.87775 182.50065 
" style="fill: none; stroke: #00b21d; stroke-width: 4"/>
    </g>
    <g id="text_20">
     <!-- T67 -->
     <g transform="translate(833.39775 187.54065)scale(0.144 -0.144)">
      <use xlink:href="#DejaVuSansMono-54"/>
      <use xlink:href="#DejaVuSansMono-36" x="60.205078"/>
      <use xlink:href="#DejaVuSansMono-37" x="120.410156"/>
     </g>
    </g>
    <g id="line2d_28">
     <path d="M 793.07775 203.71365 
L 807.47775 203.71365 
L 821.87775 203.71365 
" style="fill: none; stroke: #369900; stroke-width: 4"/>
    </g>
    <g id="text_21">
     <!-- T85 -->
     <g transform="translate(833.39775 208.75365)scale(0.144 -0.144)">
      <use xlink:href="#DejaVuSansMono-54"/>
      <use xlink:href="#DejaVuSansMono-38" x="60.205078"/>
      <use xlink:href="#DejaVuSansMono-35" x="120.410156"/>
     </g>
    </g>
    <g id="line2d_29">
     <path d="M 793.07775 224.92665 
L 807.47775 224.92665 
L 821.87775 224.92665 
" style="fill: none; stroke: #57b221; stroke-width: 4"/>
    </g>
    <g id="text_22">
     <!-- T108 -->
     <g transform="translate(833.39775 229.96665)scale(0.144 -0.144)">
      <use xlink:href="#DejaVuSansMono-54"/>
      <use xlink:href="#DejaVuSansMono-31" x="60.205078"/>
      <use xlink:href="#DejaVuSansMono-30" x="120.410156"/>
      <use xlink:href="#DejaVuSansMono-38" x="180.615234"/>
     </g>
    </g>
    <g id="line2d_30">
     <path d="M 793.07775 246.13965 
L 807.47775 246.13965 
L 821.87775 246.13965 
" style="fill: none; stroke: #80ac00; stroke-width: 4"/>
    </g>
    <g id="text_23">
     <!-- 278TI -->
     <g transform="translate(833.39775 251.17965)scale(0.144 -0.144)">
      <defs>
       <path id="DejaVuSansMono-32" d="M 1166 531 
L 3309 531 
L 3309 0 
L 475 0 
L 475 531 
Q 1059 1147 1496 1619 
Q 1934 2091 2100 2284 
Q 2413 2666 2522 2902 
Q 2631 3138 2631 3384 
Q 2631 3775 2401 3997 
Q 2172 4219 1772 4219 
Q 1488 4219 1175 4116 
Q 863 4013 513 3803 
L 513 4441 
Q 834 4594 1145 4672 
Q 1456 4750 1759 4750 
Q 2444 4750 2861 4386 
Q 3278 4022 3278 3431 
Q 3278 3131 3139 2831 
Q 3000 2531 2688 2169 
Q 2513 1966 2180 1606 
Q 1847 1247 1166 531 
z
" transform="scale(0.015625)"/>
      </defs>
      <use xlink:href="#DejaVuSansMono-32"/>
      <use xlink:href="#DejaVuSansMono-37" x="60.205078"/>
      <use xlink:href="#DejaVuSansMono-38" x="120.410156"/>
      <use xlink:href="#DejaVuSansMono-54" x="180.615234"/>
      <use xlink:href="#DejaVuSansMono-49" x="240.820312"/>
     </g>
    </g>
    <g id="line2d_31">
     <path d="M 793.07775 267.35265 
L 807.47775 267.35265 
L 821.87775 267.35265 
" style="fill: none; stroke: #808907; stroke-width: 4"/>
    </g>
    <g id="text_24">
     <!-- 283TI -->
     <g transform="translate(833.39775 272.39265)scale(0.144 -0.144)">
      <use xlink:href="#DejaVuSansMono-32"/>
      <use xlink:href="#DejaVuSansMono-38" x="60.205078"/>
      <use xlink:href="#DejaVuSansMono-33" x="120.410156"/>
      <use xlink:href="#DejaVuSansMono-54" x="180.615234"/>
      <use xlink:href="#DejaVuSansMono-49" x="240.820312"/>
     </g>
    </g>
   </g>
  </g>
  <g id="text_25">
   <!-- 0.54954µm -->
   <g transform="translate(494.28 65.592)scale(0.2 -0.2)">
    <defs>
     <path id="DejaVuSansMono-b5" d="M 609 -1338 
L 609 3500 
L 1184 3500 
L 1184 1325 
Q 1184 881 1371 645 
Q 1559 409 1906 409 
Q 2303 409 2504 675 
Q 2706 941 2706 1459 
L 2706 3500 
L 3284 3500 
L 3284 800 
Q 3284 616 3334 528 
Q 3384 441 3488 441 
Q 3516 441 3561 456 
Q 3606 472 3694 513 
L 3694 50 
Q 3575 -22 3469 -56 
Q 3363 -91 3256 -91 
Q 3063 -91 2945 32 
Q 2828 156 2791 403 
Q 2647 153 2439 31 
Q 2231 -91 1953 -91 
Q 1666 -91 1467 28 
Q 1269 147 1131 397 
L 1131 -1338 
L 609 -1338 
z
" transform="scale(0.015625)"/>
     <path id="DejaVuSansMono-6d" d="M 2113 3144 
Q 2219 3369 2383 3476 
Q 2547 3584 2778 3584 
Q 3200 3584 3373 3257 
Q 3547 2931 3547 2028 
L 3547 0 
L 3022 0 
L 3022 2003 
Q 3022 2744 2939 2923 
Q 2856 3103 2638 3103 
Q 2388 3103 2295 2911 
Q 2203 2719 2203 2003 
L 2203 0 
L 1678 0 
L 1678 2003 
Q 1678 2753 1589 2928 
Q 1500 3103 1269 3103 
Q 1041 3103 952 2911 
Q 863 2719 863 2003 
L 863 0 
L 341 0 
L 341 3500 
L 863 3500 
L 863 3200 
Q 966 3388 1120 3486 
Q 1275 3584 1472 3584 
Q 1709 3584 1867 3475 
Q 2025 3366 2113 3144 
z
" transform="scale(0.015625)"/>
    </defs>
    <use xlink:href="#DejaVuSansMono-30"/>
    <use xlink:href="#DejaVuSansMono-2e" x="60.205078"/>
    <use xlink:href="#DejaVuSansMono-35" x="120.410156"/>
    <use xlink:href="#DejaVuSansMono-34" x="180.615234"/>
    <use xlink:href="#DejaVuSansMono-39" x="240.820312"/>
    <use xlink:href="#DejaVuSansMono-35" x="301.025391"/>
    <use xlink:href="#DejaVuSansMono-34" x="361.230469"/>
    <use xlink:href="#DejaVuSansMono-b5" x="421.435547"/>
    <use xlink:href="#DejaVuSansMono-6d" x="481.640625"/>
   </g>
  </g>
 </g>
 <defs>
  <clipPath id="p01f7be74c5">
   <rect x="123.57" y="78.7104" width="766.134" height="505.0584"/>
  </clipPath>
 </defs>
</svg>
