<?xml version="1.0" encoding="utf-8" standalone="no"?>
<!DOCTYPE svg PUBLIC "-//W3C//DTD SVG 1.1//EN"
  "http://www.w3.org/Graphics/SVG/1.1/DTD/svg11.dtd">
<svg xmlns:xlink="http://www.w3.org/1999/xlink" width="1152pt" height="733.68pt" viewBox="0 0 1152 733.68" xmlns="http://www.w3.org/2000/svg" version="1.1">
 <metadata>
  <rdf:RDF xmlns:dc="http://purl.org/dc/elements/1.1/" xmlns:cc="http://creativecommons.org/ns#" xmlns:rdf="http://www.w3.org/1999/02/22-rdf-syntax-ns#">
   <cc:Work>
    <dc:type rdf:resource="http://purl.org/dc/dcmitype/StillImage"/>
    <dc:date>2022-10-17T16:12:47.208134</dc:date>
    <dc:format>image/svg+xml</dc:format>
    <dc:creator>
     <cc:Agent>
      <dc:title>Matplotlib v3.6.1, https://matplotlib.org/</dc:title>
     </cc:Agent>
    </dc:creator>
   </cc:Work>
  </rdf:RDF>
 </metadata>
 <defs>
  <style type="text/css">*{stroke-linejoin: round; stroke-linecap: butt}</style>
 </defs>
 <g id="figure_1">
  <g id="patch_1">
   <path d="M 0 733.68 
L 1152 733.68 
L 1152 0 
L 0 0 
z
" style="fill: #ffffff"/>
  </g>
  <g id="axes_1">
   <g id="patch_2">
    <path d="M 144 652.9752 
L 1036.8 652.9752 
L 1036.8 88.0416 
L 144 88.0416 
z
" style="fill: #ffffff"/>
   </g>
   <g id="matplotlib.axis_1">
    <g id="xtick_1">
     <g id="line2d_1">
      <defs>
       <path id="mf543eadb2e" d="M 0 0 
L 0 3.5 
" style="stroke: #000000; stroke-width: 0.8"/>
      </defs>
      <g>
       <use xlink:href="#mf543eadb2e" x="144" y="652.9752" style="stroke: #000000; stroke-width: 0.8"/>
      </g>
     </g>
     <g id="text_1">
      <!-- 0.000 -->
      <g transform="translate(104.867969 679.869262) scale(0.26 -0.26)">
       <defs>
        <path id="DejaVuSansMono-30" d="M 1509 2344 
Q 1509 2516 1629 2641 
Q 1750 2766 1919 2766 
Q 2094 2766 2219 2641 
Q 2344 2516 2344 2344 
Q 2344 2169 2220 2047 
Q 2097 1925 1919 1925 
Q 1744 1925 1626 2044 
Q 1509 2163 1509 2344 
z
M 1925 4250 
Q 1484 4250 1267 3775 
Q 1050 3300 1050 2328 
Q 1050 1359 1267 884 
Q 1484 409 1925 409 
Q 2369 409 2586 884 
Q 2803 1359 2803 2328 
Q 2803 3300 2586 3775 
Q 2369 4250 1925 4250 
z
M 1925 4750 
Q 2672 4750 3055 4137 
Q 3438 3525 3438 2328 
Q 3438 1134 3055 521 
Q 2672 -91 1925 -91 
Q 1178 -91 797 521 
Q 416 1134 416 2328 
Q 416 3525 797 4137 
Q 1178 4750 1925 4750 
z
" transform="scale(0.015625)"/>
        <path id="DejaVuSansMono-2e" d="M 1528 953 
L 2316 953 
L 2316 0 
L 1528 0 
L 1528 953 
z
" transform="scale(0.015625)"/>
       </defs>
       <use xlink:href="#DejaVuSansMono-30"/>
       <use xlink:href="#DejaVuSansMono-2e" x="60.205078"/>
       <use xlink:href="#DejaVuSansMono-30" x="120.410156"/>
       <use xlink:href="#DejaVuSansMono-30" x="180.615234"/>
       <use xlink:href="#DejaVuSansMono-30" x="240.820312"/>
      </g>
     </g>
    </g>
    <g id="xtick_2">
     <g id="line2d_2">
      <g>
       <use xlink:href="#mf543eadb2e" x="322.56" y="652.9752" style="stroke: #000000; stroke-width: 0.8"/>
      </g>
     </g>
     <g id="text_2">
      <!-- 0.015 -->
      <g transform="translate(283.427969 679.869262) scale(0.26 -0.26)">
       <defs>
        <path id="DejaVuSansMono-31" d="M 844 531 
L 1825 531 
L 1825 4097 
L 769 3859 
L 769 4434 
L 1819 4666 
L 2450 4666 
L 2450 531 
L 3419 531 
L 3419 0 
L 844 0 
L 844 531 
z
" transform="scale(0.015625)"/>
        <path id="DejaVuSansMono-35" d="M 647 4666 
L 3009 4666 
L 3009 4134 
L 1222 4134 
L 1222 2988 
Q 1356 3038 1492 3061 
Q 1628 3084 1766 3084 
Q 2491 3084 2916 2656 
Q 3341 2228 3341 1497 
Q 3341 759 2895 334 
Q 2450 -91 1678 -91 
Q 1306 -91 998 -41 
Q 691 9 447 109 
L 447 750 
Q 734 594 1025 517 
Q 1316 441 1619 441 
Q 2141 441 2423 716 
Q 2706 991 2706 1497 
Q 2706 1997 2414 2275 
Q 2122 2553 1600 2553 
Q 1347 2553 1106 2495 
Q 866 2438 647 2322 
L 647 4666 
z
" transform="scale(0.015625)"/>
       </defs>
       <use xlink:href="#DejaVuSansMono-30"/>
       <use xlink:href="#DejaVuSansMono-2e" x="60.205078"/>
       <use xlink:href="#DejaVuSansMono-30" x="120.410156"/>
       <use xlink:href="#DejaVuSansMono-31" x="180.615234"/>
       <use xlink:href="#DejaVuSansMono-35" x="240.820312"/>
      </g>
     </g>
    </g>
    <g id="xtick_3">
     <g id="line2d_3">
      <g>
       <use xlink:href="#mf543eadb2e" x="501.12" y="652.9752" style="stroke: #000000; stroke-width: 0.8"/>
      </g>
     </g>
     <g id="text_3">
      <!-- 0.030 -->
      <g transform="translate(461.987969 679.869262) scale(0.26 -0.26)">
       <defs>
        <path id="DejaVuSansMono-33" d="M 2425 2497 
Q 2884 2375 3128 2064 
Q 3372 1753 3372 1288 
Q 3372 644 2939 276 
Q 2506 -91 1741 -91 
Q 1419 -91 1084 -31 
Q 750 28 428 141 
L 428 769 
Q 747 603 1056 522 
Q 1366 441 1672 441 
Q 2191 441 2469 675 
Q 2747 909 2747 1350 
Q 2747 1756 2469 1995 
Q 2191 2234 1716 2234 
L 1234 2234 
L 1234 2753 
L 1716 2753 
Q 2150 2753 2394 2943 
Q 2638 3134 2638 3475 
Q 2638 3834 2411 4026 
Q 2184 4219 1766 4219 
Q 1488 4219 1191 4156 
Q 894 4094 569 3969 
L 569 4550 
Q 947 4650 1242 4700 
Q 1538 4750 1766 4750 
Q 2447 4750 2855 4408 
Q 3263 4066 3263 3500 
Q 3263 3116 3048 2859 
Q 2834 2603 2425 2497 
z
" transform="scale(0.015625)"/>
       </defs>
       <use xlink:href="#DejaVuSansMono-30"/>
       <use xlink:href="#DejaVuSansMono-2e" x="60.205078"/>
       <use xlink:href="#DejaVuSansMono-30" x="120.410156"/>
       <use xlink:href="#DejaVuSansMono-33" x="180.615234"/>
       <use xlink:href="#DejaVuSansMono-30" x="240.820312"/>
      </g>
     </g>
    </g>
    <g id="xtick_4">
     <g id="line2d_4">
      <g>
       <use xlink:href="#mf543eadb2e" x="679.68" y="652.9752" style="stroke: #000000; stroke-width: 0.8"/>
      </g>
     </g>
     <g id="text_4">
      <!-- 0.045 -->
      <g transform="translate(640.547969 679.869262) scale(0.26 -0.26)">
       <defs>
        <path id="DejaVuSansMono-34" d="M 2297 4091 
L 825 1625 
L 2297 1625 
L 2297 4091 
z
M 2194 4666 
L 2925 4666 
L 2925 1625 
L 3547 1625 
L 3547 1113 
L 2925 1113 
L 2925 0 
L 2297 0 
L 2297 1113 
L 319 1113 
L 319 1709 
L 2194 4666 
z
" transform="scale(0.015625)"/>
       </defs>
       <use xlink:href="#DejaVuSansMono-30"/>
       <use xlink:href="#DejaVuSansMono-2e" x="60.205078"/>
       <use xlink:href="#DejaVuSansMono-30" x="120.410156"/>
       <use xlink:href="#DejaVuSansMono-34" x="180.615234"/>
       <use xlink:href="#DejaVuSansMono-35" x="240.820312"/>
      </g>
     </g>
    </g>
    <g id="xtick_5">
     <g id="line2d_5">
      <g>
       <use xlink:href="#mf543eadb2e" x="858.24" y="652.9752" style="stroke: #000000; stroke-width: 0.8"/>
      </g>
     </g>
     <g id="text_5">
      <!-- 0.060 -->
      <g transform="translate(819.107969 679.869262) scale(0.26 -0.26)">
       <defs>
        <path id="DejaVuSansMono-36" d="M 3097 4563 
L 3097 3981 
Q 2900 4097 2678 4158 
Q 2456 4219 2216 4219 
Q 1616 4219 1306 3767 
Q 997 3316 997 2438 
Q 1147 2750 1412 2917 
Q 1678 3084 2022 3084 
Q 2697 3084 3067 2670 
Q 3438 2256 3438 1497 
Q 3438 741 3056 325 
Q 2675 -91 1984 -91 
Q 1172 -91 794 492 
Q 416 1075 416 2328 
Q 416 3509 870 4129 
Q 1325 4750 2188 4750 
Q 2419 4750 2650 4701 
Q 2881 4653 3097 4563 
z
M 1972 2591 
Q 1569 2591 1337 2300 
Q 1106 2009 1106 1497 
Q 1106 984 1337 693 
Q 1569 403 1972 403 
Q 2391 403 2603 679 
Q 2816 956 2816 1497 
Q 2816 2041 2603 2316 
Q 2391 2591 1972 2591 
z
" transform="scale(0.015625)"/>
       </defs>
       <use xlink:href="#DejaVuSansMono-30"/>
       <use xlink:href="#DejaVuSansMono-2e" x="60.205078"/>
       <use xlink:href="#DejaVuSansMono-30" x="120.410156"/>
       <use xlink:href="#DejaVuSansMono-36" x="180.615234"/>
       <use xlink:href="#DejaVuSansMono-30" x="240.820312"/>
      </g>
     </g>
    </g>
    <g id="xtick_6">
     <g id="line2d_6">
      <g>
       <use xlink:href="#mf543eadb2e" x="1036.8" y="652.9752" style="stroke: #000000; stroke-width: 0.8"/>
      </g>
     </g>
     <g id="text_6">
      <!-- 0.075 -->
      <g transform="translate(997.667969 679.869262) scale(0.26 -0.26)">
       <defs>
        <path id="DejaVuSansMono-37" d="M 434 4666 
L 3372 4666 
L 3372 4397 
L 1703 0 
L 1044 0 
L 2669 4134 
L 434 4134 
L 434 4666 
z
" transform="scale(0.015625)"/>
       </defs>
       <use xlink:href="#DejaVuSansMono-30"/>
       <use xlink:href="#DejaVuSansMono-2e" x="60.205078"/>
       <use xlink:href="#DejaVuSansMono-30" x="120.410156"/>
       <use xlink:href="#DejaVuSansMono-37" x="180.615234"/>
       <use xlink:href="#DejaVuSansMono-35" x="240.820312"/>
      </g>
     </g>
    </g>
    <g id="text_7">
     <!-- I/F -->
     <g transform="translate(568.726875 707.6402) scale(0.24 -0.24)">
      <defs>
       <path id="DejaVuSansMono-49" d="M 628 4666 
L 3219 4666 
L 3219 4134 
L 2241 4134 
L 2241 531 
L 3219 531 
L 3219 0 
L 628 0 
L 628 531 
L 1606 531 
L 1606 4134 
L 628 4134 
L 628 4666 
z
" transform="scale(0.015625)"/>
       <path id="DejaVuSansMono-2f" d="M 2778 4666 
L 3372 4666 
L 916 -594 
L 319 -594 
L 2778 4666 
z
" transform="scale(0.015625)"/>
       <path id="DejaVuSansMono-46" d="M 728 4666 
L 3475 4666 
L 3475 4134 
L 1363 4134 
L 1363 2759 
L 3278 2759 
L 3278 2228 
L 1363 2228 
L 1363 0 
L 728 0 
L 728 4666 
z
" transform="scale(0.015625)"/>
      </defs>
      <use xlink:href="#DejaVuSansMono-49"/>
      <use xlink:href="#DejaVuSansMono-2f" x="60.205078"/>
      <use xlink:href="#DejaVuSansMono-46" x="120.410156"/>
     </g>
    </g>
   </g>
   <g id="matplotlib.axis_2">
    <g id="ytick_1">
     <g id="line2d_7">
      <defs>
       <path id="m4a2dfb20a3" d="M 0 0 
L -3.5 0 
" style="stroke: #000000; stroke-width: 0.8"/>
      </defs>
      <g>
       <use xlink:href="#m4a2dfb20a3" x="144" y="652.9752" style="stroke: #000000; stroke-width: 0.8"/>
      </g>
     </g>
     <g id="text_8">
      <!-- 90°S -->
      <g transform="translate(74.38875 662.922231) scale(0.26 -0.26)">
       <defs>
        <path id="DejaVuSansMono-39" d="M 1863 2069 
Q 2266 2069 2495 2359 
Q 2725 2650 2725 3163 
Q 2725 3675 2495 3965 
Q 2266 4256 1863 4256 
Q 1444 4256 1231 3979 
Q 1019 3703 1019 3163 
Q 1019 2619 1230 2344 
Q 1441 2069 1863 2069 
z
M 738 97 
L 738 678 
Q 934 563 1156 502 
Q 1378 441 1619 441 
Q 2219 441 2526 892 
Q 2834 1344 2834 2222 
Q 2688 1909 2422 1742 
Q 2156 1575 1813 1575 
Q 1138 1575 767 1990 
Q 397 2406 397 3169 
Q 397 3922 776 4336 
Q 1156 4750 1850 4750 
Q 2663 4750 3041 4165 
Q 3419 3581 3419 2328 
Q 3419 1150 2964 529 
Q 2509 -91 1644 -91 
Q 1416 -91 1184 -42 
Q 953 6 738 97 
z
" transform="scale(0.015625)"/>
        <path id="DejaVuSansMono-b0" d="M 1925 4750 
Q 2128 4750 2311 4673 
Q 2494 4597 2631 4453 
Q 2772 4313 2845 4134 
Q 2919 3956 2919 3750 
Q 2919 3338 2628 3052 
Q 2338 2766 1919 2766 
Q 1497 2766 1215 3047 
Q 934 3328 934 3750 
Q 934 4169 1221 4459 
Q 1509 4750 1925 4750 
z
M 1925 4347 
Q 1678 4347 1504 4173 
Q 1331 4000 1331 3750 
Q 1331 3500 1501 3331 
Q 1672 3163 1919 3163 
Q 2169 3163 2345 3334 
Q 2522 3506 2522 3750 
Q 2522 3997 2347 4172 
Q 2172 4347 1925 4347 
z
" transform="scale(0.015625)"/>
        <path id="DejaVuSansMono-53" d="M 3163 4506 
L 3163 3866 
Q 2875 4050 2586 4144 
Q 2297 4238 2003 4238 
Q 1556 4238 1297 4030 
Q 1038 3822 1038 3469 
Q 1038 3159 1208 2996 
Q 1378 2834 1844 2725 
L 2175 2650 
Q 2831 2497 3131 2169 
Q 3431 1841 3431 1275 
Q 3431 609 3018 259 
Q 2606 -91 1819 -91 
Q 1491 -91 1159 -20 
Q 828 50 494 191 
L 494 863 
Q 853 634 1173 528 
Q 1494 422 1819 422 
Q 2297 422 2562 636 
Q 2828 850 2828 1234 
Q 2828 1584 2645 1768 
Q 2463 1953 2009 2053 
L 1672 2131 
Q 1022 2278 728 2575 
Q 434 2872 434 3372 
Q 434 3997 854 4373 
Q 1275 4750 1972 4750 
Q 2241 4750 2537 4689 
Q 2834 4628 3163 4506 
z
" transform="scale(0.015625)"/>
       </defs>
       <use xlink:href="#DejaVuSansMono-39"/>
       <use xlink:href="#DejaVuSansMono-30" x="60.205078"/>
       <use xlink:href="#DejaVuSansMono-b0" x="120.410156"/>
       <use xlink:href="#DejaVuSansMono-53" x="180.615234"/>
      </g>
     </g>
    </g>
    <g id="ytick_2">
     <g id="line2d_8">
      <g>
       <use xlink:href="#m4a2dfb20a3" x="144" y="558.8196" style="stroke: #000000; stroke-width: 0.8"/>
      </g>
     </g>
     <g id="text_9">
      <!-- 60°S -->
      <g transform="translate(74.38875 568.766631) scale(0.26 -0.26)">
       <use xlink:href="#DejaVuSansMono-36"/>
       <use xlink:href="#DejaVuSansMono-30" x="60.205078"/>
       <use xlink:href="#DejaVuSansMono-b0" x="120.410156"/>
       <use xlink:href="#DejaVuSansMono-53" x="180.615234"/>
      </g>
     </g>
    </g>
    <g id="ytick_3">
     <g id="line2d_9">
      <g>
       <use xlink:href="#m4a2dfb20a3" x="144" y="464.664" style="stroke: #000000; stroke-width: 0.8"/>
      </g>
     </g>
     <g id="text_10">
      <!-- 30°S -->
      <g transform="translate(74.38875 474.611031) scale(0.26 -0.26)">
       <use xlink:href="#DejaVuSansMono-33"/>
       <use xlink:href="#DejaVuSansMono-30" x="60.205078"/>
       <use xlink:href="#DejaVuSansMono-b0" x="120.410156"/>
       <use xlink:href="#DejaVuSansMono-53" x="180.615234"/>
      </g>
     </g>
    </g>
    <g id="ytick_4">
     <g id="line2d_10">
      <g>
       <use xlink:href="#m4a2dfb20a3" x="144" y="370.5084" style="stroke: #000000; stroke-width: 0.8"/>
      </g>
     </g>
     <g id="text_11">
      <!-- 0° -->
      <g transform="translate(105.694375 380.455431) scale(0.26 -0.26)">
       <use xlink:href="#DejaVuSansMono-30"/>
       <use xlink:href="#DejaVuSansMono-b0" x="60.205078"/>
      </g>
     </g>
    </g>
    <g id="ytick_5">
     <g id="line2d_11">
      <g>
       <use xlink:href="#m4a2dfb20a3" x="144" y="276.3528" style="stroke: #000000; stroke-width: 0.8"/>
      </g>
     </g>
     <g id="text_12">
      <!-- 30°N -->
      <g transform="translate(74.38875 286.299831) scale(0.26 -0.26)">
       <defs>
        <path id="DejaVuSansMono-4e" d="M 434 4666 
L 1234 4666 
L 2809 825 
L 2809 4666 
L 3419 4666 
L 3419 0 
L 2619 0 
L 1044 3841 
L 1044 0 
L 434 0 
L 434 4666 
z
" transform="scale(0.015625)"/>
       </defs>
       <use xlink:href="#DejaVuSansMono-33"/>
       <use xlink:href="#DejaVuSansMono-30" x="60.205078"/>
       <use xlink:href="#DejaVuSansMono-b0" x="120.410156"/>
       <use xlink:href="#DejaVuSansMono-4e" x="180.615234"/>
      </g>
     </g>
    </g>
    <g id="ytick_6">
     <g id="line2d_12">
      <g>
       <use xlink:href="#m4a2dfb20a3" x="144" y="182.1972" style="stroke: #000000; stroke-width: 0.8"/>
      </g>
     </g>
     <g id="text_13">
      <!-- 60°N -->
      <g transform="translate(74.38875 192.144231) scale(0.26 -0.26)">
       <use xlink:href="#DejaVuSansMono-36"/>
       <use xlink:href="#DejaVuSansMono-30" x="60.205078"/>
       <use xlink:href="#DejaVuSansMono-b0" x="120.410156"/>
       <use xlink:href="#DejaVuSansMono-4e" x="180.615234"/>
      </g>
     </g>
    </g>
    <g id="ytick_7">
     <g id="line2d_13">
      <g>
       <use xlink:href="#m4a2dfb20a3" x="144" y="88.0416" style="stroke: #000000; stroke-width: 0.8"/>
      </g>
     </g>
     <g id="text_14">
      <!-- 90°N -->
      <g transform="translate(74.38875 97.988631) scale(0.26 -0.26)">
       <use xlink:href="#DejaVuSansMono-39"/>
       <use xlink:href="#DejaVuSansMono-30" x="60.205078"/>
       <use xlink:href="#DejaVuSansMono-b0" x="120.410156"/>
       <use xlink:href="#DejaVuSansMono-4e" x="180.615234"/>
      </g>
     </g>
    </g>
    <g id="text_15">
     <!-- Latitude -->
     <g transform="translate(65.3975 428.3034) rotate(-90) scale(0.24 -0.24)">
      <defs>
       <path id="DejaVuSansMono-4c" d="M 672 4666 
L 1306 4666 
L 1306 531 
L 3559 531 
L 3559 0 
L 672 0 
L 672 4666 
z
" transform="scale(0.015625)"/>
       <path id="DejaVuSansMono-61" d="M 2194 1759 
L 2003 1759 
Q 1500 1759 1245 1582 
Q 991 1406 991 1056 
Q 991 741 1181 566 
Q 1372 391 1709 391 
Q 2184 391 2456 720 
Q 2728 1050 2731 1631 
L 2731 1759 
L 2194 1759 
z
M 3309 1997 
L 3309 0 
L 2731 0 
L 2731 519 
Q 2547 206 2267 57 
Q 1988 -91 1588 -91 
Q 1053 -91 734 211 
Q 416 513 416 1019 
Q 416 1603 808 1906 
Q 1200 2209 1959 2209 
L 2731 2209 
L 2731 2300 
Q 2728 2719 2518 2908 
Q 2309 3097 1850 3097 
Q 1556 3097 1256 3012 
Q 956 2928 672 2766 
L 672 3341 
Q 991 3463 1283 3523 
Q 1575 3584 1850 3584 
Q 2284 3584 2592 3456 
Q 2900 3328 3091 3072 
Q 3209 2916 3259 2686 
Q 3309 2456 3309 1997 
z
" transform="scale(0.015625)"/>
       <path id="DejaVuSansMono-74" d="M 1919 4494 
L 1919 3500 
L 3225 3500 
L 3225 3053 
L 1919 3053 
L 1919 1153 
Q 1919 766 2066 612 
Q 2213 459 2578 459 
L 3225 459 
L 3225 0 
L 2522 0 
Q 1875 0 1609 259 
Q 1344 519 1344 1153 
L 1344 3053 
L 409 3053 
L 409 3500 
L 1344 3500 
L 1344 4494 
L 1919 4494 
z
" transform="scale(0.015625)"/>
       <path id="DejaVuSansMono-69" d="M 800 3500 
L 2272 3500 
L 2272 447 
L 3413 447 
L 3413 0 
L 556 0 
L 556 447 
L 1697 447 
L 1697 3053 
L 800 3053 
L 800 3500 
z
M 1697 4863 
L 2272 4863 
L 2272 4134 
L 1697 4134 
L 1697 4863 
z
" transform="scale(0.015625)"/>
       <path id="DejaVuSansMono-75" d="M 609 1325 
L 609 3494 
L 1184 3494 
L 1184 1325 
Q 1184 853 1351 631 
Q 1519 409 1869 409 
Q 2275 409 2490 695 
Q 2706 981 2706 1516 
L 2706 3494 
L 3284 3494 
L 3284 0 
L 2706 0 
L 2706 525 
Q 2553 222 2289 65 
Q 2025 -91 1672 -91 
Q 1134 -91 871 261 
Q 609 613 609 1325 
z
" transform="scale(0.015625)"/>
       <path id="DejaVuSansMono-64" d="M 2681 3053 
L 2681 4863 
L 3256 4863 
L 3256 0 
L 2681 0 
L 2681 441 
Q 2538 181 2298 45 
Q 2059 -91 1747 -91 
Q 1113 -91 748 401 
Q 384 894 384 1759 
Q 384 2613 750 3098 
Q 1116 3584 1747 3584 
Q 2063 3584 2303 3448 
Q 2544 3313 2681 3053 
z
M 991 1747 
Q 991 1078 1203 737 
Q 1416 397 1831 397 
Q 2247 397 2464 740 
Q 2681 1084 2681 1747 
Q 2681 2413 2464 2755 
Q 2247 3097 1831 3097 
Q 1416 3097 1203 2756 
Q 991 2416 991 1747 
z
" transform="scale(0.015625)"/>
       <path id="DejaVuSansMono-65" d="M 3475 1894 
L 3475 1613 
L 984 1613 
L 984 1594 
Q 984 1022 1282 709 
Q 1581 397 2125 397 
Q 2400 397 2700 484 
Q 3000 572 3341 750 
L 3341 178 
Q 3013 44 2708 -23 
Q 2403 -91 2119 -91 
Q 1303 -91 843 398 
Q 384 888 384 1747 
Q 384 2584 834 3084 
Q 1284 3584 2034 3584 
Q 2703 3584 3089 3131 
Q 3475 2678 3475 1894 
z
M 2900 2063 
Q 2888 2569 2661 2833 
Q 2434 3097 2009 3097 
Q 1594 3097 1325 2822 
Q 1056 2547 1006 2059 
L 2900 2063 
z
" transform="scale(0.015625)"/>
      </defs>
      <use xlink:href="#DejaVuSansMono-4c"/>
      <use xlink:href="#DejaVuSansMono-61" x="60.205078"/>
      <use xlink:href="#DejaVuSansMono-74" x="120.410156"/>
      <use xlink:href="#DejaVuSansMono-69" x="180.615234"/>
      <use xlink:href="#DejaVuSansMono-74" x="240.820312"/>
      <use xlink:href="#DejaVuSansMono-75" x="301.025391"/>
      <use xlink:href="#DejaVuSansMono-64" x="361.230469"/>
      <use xlink:href="#DejaVuSansMono-65" x="421.435547"/>
     </g>
    </g>
   </g>
   <g id="line2d_14">
    <path d="M 317.935477 113.14976 
L 318.046109 120.99606 
L 318.18439 122.56532 
L 318.18439 125.70384 
L 319.290675 127.2731 
L 319.290675 128.84236 
L 329.225112 130.41162 
L 329.512739 131.98088 
L 330.469689 133.55014 
L 330.862416 135.1194 
L 331.841462 136.68866 
L 332.483102 139.82718 
L 334.275295 141.39644 
L 334.435716 142.9657 
L 334.7178 144.53496 
L 334.839485 146.10422 
L 335.49219 147.67348 
L 335.873875 149.24274 
L 336.001081 150.812 
L 336.388287 152.38126 
L 336.565293 153.95052 
L 337.03547 155.51978 
L 337.21802 157.08904 
L 337.876245 158.6583 
L 337.942631 160.22756 
L 338.739149 161.79682 
L 339.176111 163.36608 
L 340.188394 164.93534 
L 340.348771 166.5046 
L 341.189568 168.07386 
L 341.632073 169.64312 
L 341.936308 171.21238 
L 342.954067 172.78164 
L 343.457437 174.3509 
L 343.70083 175.92016 
L 344.126727 177.48942 
L 345.559364 179.05868 
L 345.957657 180.62794 
L 347.749828 182.1972 
L 349.790912 183.76646 
L 350.598495 185.33572 
L 354.747072 191.61276 
L 356.412015 193.18202 
L 356.898799 194.75128 
L 359.172212 196.32054 
L 360.04618 197.8898 
L 364.034336 201.02832 
L 365.101896 202.59758 
L 367.187237 204.16684 
L 367.978234 205.7361 
L 370.046991 207.30536 
L 370.190782 208.87462 
L 372.480802 210.44388 
L 373.399005 212.01314 
L 375.346076 213.5824 
L 376.02091 215.15166 
L 378.255608 216.72092 
L 379.295518 218.29018 
L 380.512413 219.85944 
L 383.504938 222.99796 
L 384.495048 224.56722 
L 386.746332 226.13648 
L 392.023289 230.84426 
L 394.838807 232.41352 
L 395.93956 233.98278 
L 398.3955 235.55204 
L 399.645588 237.1213 
L 401.708823 238.69056 
L 402.34492 240.25982 
L 404.944696 241.82908 
L 405.652722 243.39834 
L 407.527886 244.9676 
L 408.672896 246.53686 
L 410.37101 248.10612 
L 411.549235 249.67538 
L 413.131207 251.24464 
L 414.879143 252.8139 
L 415.75861 254.38316 
L 417.738874 255.95242 
L 418.540913 257.52168 
L 420.570956 259.09094 
L 423.690687 262.22946 
L 425.073524 263.79872 
L 427.241858 265.36798 
L 429.587178 268.5065 
L 431.135957 270.07576 
L 433.044314 271.64502 
L 433.558726 273.21428 
L 436.838856 276.3528 
L 438.083445 277.92206 
L 439.748388 279.49132 
L 441.214218 281.06058 
L 441.960958 282.62984 
L 443.841643 284.1991 
L 445.102817 285.76836 
L 447.824256 288.90688 
L 449.793456 290.47614 
L 450.744852 292.0454 
L 452.520437 293.61466 
L 453.958596 295.18392 
L 455.83376 296.75318 
L 457.260854 298.32244 
L 459.595109 299.8917 
L 461.044354 301.46096 
L 464.733796 304.59948 
L 465.867764 306.16874 
L 468.351354 307.738 
L 469.933348 309.30726 
L 471.708934 310.87652 
L 473.069664 312.44578 
L 474.74015 314.01504 
L 477.865402 317.15356 
L 479.75713 318.72282 
L 480.996175 320.29208 
L 487.091801 321.86134 
L 488.60741 323.4306 
L 490.980379 324.99986 
L 492.247074 326.56912 
L 493.961817 328.13838 
L 495.936538 329.70764 
L 496.832635 331.2769 
L 499.150304 332.84616 
L 505.035731 334.41542 
L 506.960674 335.98468 
L 507.923134 337.55394 
L 510.334839 339.1232 
L 510.965415 340.69246 
L 513.504326 342.26172 
L 517.171662 345.40024 
L 519.461682 346.9695 
L 521.530416 348.53876 
L 523.333652 350.10802 
L 526.259768 351.67728 
L 528.433602 353.24654 
L 530.142825 354.8158 
L 532.70943 356.38506 
L 537.372396 359.52358 
L 539.07612 361.09284 
L 541.460109 362.6621 
L 543.357402 364.23136 
L 547.75487 367.36988 
L 549.585777 368.93914 
L 554.862712 372.07766 
L 557.136147 373.64692 
L 558.817698 375.21618 
L 560.289093 376.78544 
L 562.706297 378.3547 
L 563.956407 379.92396 
L 565.908999 381.49322 
L 566.965495 383.06248 
L 569.2223 384.63174 
L 570.334139 386.201 
L 573.005799 387.77026 
L 574.167395 389.33952 
L 576.899942 390.90878 
L 577.668766 392.47804 
L 579.588188 394.0473 
L 581.889294 395.61656 
L 583.581887 397.18582 
L 585.943791 398.75508 
L 587.404056 400.32434 
L 590.048089 401.8936 
L 591.154385 403.46286 
L 594.17456 405.03212 
L 595.502097 406.60138 
L 597.227905 408.17064 
L 599.551095 409.7399 
L 601.437302 411.30916 
L 603.821335 412.87842 
L 605.547143 414.44768 
L 608.014147 416.01694 
L 609.585099 417.5862 
L 612.361859 419.15546 
L 613.866426 420.72472 
L 616.488286 422.29398 
L 617.954093 423.86324 
L 618.97192 425.4325 
L 621.698879 427.00176 
L 622.755375 428.57102 
L 625.012224 430.14028 
L 626.013376 431.70954 
L 627.866457 433.2788 
L 628.856566 434.84806 
L 630.925301 436.41732 
L 631.63887 437.98658 
L 632.789379 439.55584 
L 634.459887 441.1251 
L 635.212126 442.69436 
L 637.203476 444.26362 
L 637.928088 445.83288 
L 639.454738 447.40214 
L 640.455935 448.9714 
L 642.297884 450.54066 
L 642.989325 452.10992 
L 644.455177 453.67918 
L 645.633313 455.24844 
L 646.09247 456.8177 
L 647.591449 458.38696 
L 648.16116 459.95622 
L 649.737655 461.52548 
L 650.296324 463.09474 
L 651.972376 464.664 
L 652.503373 466.23326 
L 653.73131 467.80252 
L 654.688293 469.37178 
L 655.197206 470.94104 
L 656.773613 472.5103 
L 657.321196 474.07956 
L 659.047048 475.64882 
L 659.312502 477.21808 
L 660.551569 478.78734 
L 661.198753 480.3566 
L 662.199949 481.92586 
L 662.780747 483.49512 
L 663.560658 485.06438 
L 664.025313 486.63364 
L 664.633783 488.2029 
L 665.452452 489.77216 
L 665.91152 491.34142 
L 668.278968 497.61846 
L 669.545663 502.32624 
L 670.546859 503.8955 
L 670.701759 505.46476 
L 672.156481 507.03402 
L 672.615593 508.60328 
L 673.434262 510.17254 
L 673.954217 513.31106 
L 673.893375 516.44958 
L 674.01506 518.01884 
L 673.87679 519.5881 
L 673.943131 521.15736 
L 673.760603 524.29588 
L 673.688674 529.00366 
L 673.390005 535.2807 
L 673.544905 536.84996 
L 673.423176 539.98848 
L 673.141092 541.55774 
L 673.572533 543.127 
L 672.859008 546.26552 
L 672.222867 547.83478 
L 671.448455 550.9733 
L 670.613201 552.54256 
L 669.910718 554.11182 
L 669.584421 555.68108 
L 668.157283 560.38886 
L 667.947128 561.95812 
L 667.482472 563.52738 
L 667.178215 565.09664 
L 666.547661 566.6659 
L 666.110633 568.23516 
L 665.292008 569.80442 
L 662.565049 576.08146 
L 662.255249 577.65072 
L 661.08811 579.21998 
L 660.728554 580.78924 
L 659.832501 582.3585 
L 659.793787 583.92776 
L 658.377736 587.06628 
L 657.940752 588.63554 
L 656.618757 590.2048 
L 656.602128 591.77406 
L 655.053349 593.34332 
L 654.876364 594.91258 
L 653.615168 596.48184 
L 653.272242 598.0511 
L 652.365103 599.62036 
L 651.629405 601.18962 
L 651.070736 602.75888 
L 650.075083 604.32814 
L 649.759784 605.8974 
L 648.371404 607.46666 
L 647.868034 609.03592 
L 646.103512 610.60518 
L 645.528258 612.17444 
L 644.582405 613.7437 
L 642.928482 615.31296 
L 641.87753 616.88222 
L 640.411677 618.45148 
L 640.256777 620.02074 
L 638.87394 621.59 
L 638.481214 623.15926 
L 637.303033 624.72852 
L 637.280904 626.29778 
L 636.113766 627.86704 
L 635.311727 629.4363 
L 633.696562 631.00556 
L 631.190799 632.57482 
L 630.659802 634.14408 
L 628.862065 635.71334 
L 628.585525 637.2826 
L 628.579981 638.85186 
L 628.037942 640.42112 
L 627.883042 641.99038 
L 627.479228 643.55964 
L 623.8838 645.1289 
L 602.786968 646.69816 
L 606.786166 648.26742 
L 616.963984 649.83668 
L 622.036307 651.40594 
L 622.036307 652.9752 
L 622.036307 652.9752 
" clip-path="url(#p10757c75ee)" style="fill: none; stroke: #00005a; stroke-width: 4"/>
   </g>
   <g id="line2d_15">
    <path d="M 213.359424 88.0416 
L 213.359424 91.18012 
L 216.008024 92.74938 
L 217.649852 94.31864 
L 218.447534 99.02642 
L 218.455273 100.59568 
L 219.17551 102.16494 
L 218.896713 103.7342 
L 220.042888 105.30346 
L 220.770875 106.87272 
L 221.467875 110.01124 
L 221.576295 111.5805 
L 222.025474 113.14976 
L 222.033218 114.71902 
L 222.172619 116.28828 
L 223.078722 117.85754 
L 227.59374 124.13458 
L 229.266548 125.70384 
L 230.281071 127.2731 
L 231.520188 128.84236 
L 232.488242 130.41162 
L 234.478572 131.98088 
L 235.586032 133.55014 
L 236.383709 135.1194 
L 240.271438 136.68866 
L 242.408908 138.25792 
L 243.206579 139.82718 
L 245.04976 141.39644 
L 246.389559 142.9657 
L 248.976208 144.53496 
L 250.029455 146.10422 
L 251.771959 147.67348 
L 254.319884 149.24274 
L 257.363462 152.38126 
L 258.672274 153.95052 
L 260.438015 155.51978 
L 262.412847 157.08904 
L 263.737159 158.6583 
L 266.927876 160.22756 
L 268.956932 161.79682 
L 272.108924 163.36608 
L 273.239611 164.93534 
L 277.82434 168.07386 
L 281.21641 169.64312 
L 283.253204 171.21238 
L 291.299704 175.92016 
L 299.539807 180.62794 
L 304.333639 182.1972 
L 306.943514 183.76646 
L 312.008399 185.33572 
L 314.602797 186.90498 
L 316.655079 188.47424 
L 320.56604 190.0435 
L 323.601858 191.61276 
L 328.008461 193.18202 
L 330.81195 194.75128 
L 334.343433 196.32054 
L 338.556422 197.8898 
L 341.135333 199.45906 
L 346.115018 201.02832 
L 347.416103 202.59758 
L 350.753949 204.16684 
L 354.9592 205.7361 
L 357.933078 207.30536 
L 362.657197 208.87462 
L 365.592339 210.44388 
L 369.518787 212.01314 
L 371.423907 213.5824 
L 374.45202 215.15166 
L 378.525608 216.72092 
L 381.375583 218.29018 
L 385.828616 219.85944 
L 389.321385 221.4287 
L 392.434663 222.99796 
L 396.043573 224.56722 
L 398.483083 226.13648 
L 402.626383 227.70574 
L 405.383387 229.275 
L 411.702893 232.41352 
L 414.243068 233.98278 
L 417.99914 235.55204 
L 420.477364 237.1213 
L 424.217937 238.69056 
L 426.86656 240.25982 
L 429.259573 241.82908 
L 432.914957 243.39834 
L 434.851075 244.9676 
L 438.072802 246.53686 
L 440.458076 248.10612 
L 442.487143 249.67538 
L 445.360311 251.24464 
L 446.769822 252.8139 
L 450.045739 254.38316 
L 458.014778 259.09094 
L 465.07772 263.79872 
L 471.180375 266.93724 
L 472.82993 268.5065 
L 476.291723 270.07576 
L 480.698304 273.21428 
L 482.742848 274.78354 
L 485.15912 276.3528 
L 488.311135 277.92206 
L 492.531841 281.06058 
L 497.465073 284.1991 
L 498.649972 285.76836 
L 501.166932 287.33762 
L 503.405067 288.90688 
L 505.883291 290.47614 
L 507.432203 292.0454 
L 509.399297 293.61466 
L 514.007275 296.75318 
L 515.927871 298.32244 
L 518.638445 299.8917 
L 520.690727 301.46096 
L 523.168951 303.03022 
L 525.174758 304.59948 
L 526.979236 306.16874 
L 529.612315 307.738 
L 531.060562 309.30726 
L 533.701402 310.87652 
L 535.397454 312.44578 
L 537.356787 314.01504 
L 539.57949 315.5843 
L 541.097404 317.15356 
L 543.428444 318.72282 
L 546.774117 321.86134 
L 548.965734 323.4306 
L 550.754734 324.99986 
L 553.209765 326.56912 
L 556.989052 329.70764 
L 559.087764 331.2769 
L 560.52049 332.84616 
L 565.709265 335.98468 
L 567.258222 337.55394 
L 569.535027 339.1232 
L 574.909744 343.83098 
L 577.364686 345.40024 
L 579.153687 346.9695 
L 581.128541 348.53876 
L 582.452797 350.10802 
L 584.357984 351.67728 
L 587.293103 353.24654 
L 588.206938 354.8158 
L 590.088887 356.38506 
L 591.606802 357.95432 
L 593.465469 359.52358 
L 595.80427 361.09284 
L 597.422894 362.6621 
L 601.930162 365.80062 
L 603.424839 367.36988 
L 606.057963 368.93914 
L 607.44417 370.5084 
L 609.442306 372.07766 
L 612.044432 373.64692 
L 613.368732 375.21618 
L 615.839195 376.78544 
L 617.51201 378.3547 
L 621.709478 381.49322 
L 626.573021 384.63174 
L 628.524638 386.201 
L 631.289424 387.77026 
L 635.881881 390.90878 
L 639.173275 392.47804 
L 642.937085 394.0473 
L 644.733802 395.61656 
L 647.328167 397.18582 
L 650.774506 398.75508 
L 653.29916 400.32434 
L 656.327228 401.8936 
L 661.206292 405.03212 
L 665.326332 406.60138 
L 667.107572 408.17064 
L 670.174354 409.7399 
L 672.784241 411.30916 
L 674.000115 412.87842 
L 679.398026 414.44768 
L 681.21798 416.01694 
L 683.285738 417.5862 
L 685.082455 419.15546 
L 686.646844 420.72472 
L 688.908216 422.29398 
L 690.790122 423.86324 
L 692.184134 425.4325 
L 694.693355 427.00176 
L 696.002179 428.57102 
L 700.246121 431.70954 
L 702.182217 433.2788 
L 704.892769 436.41732 
L 706.867623 437.98658 
L 708.524961 439.55584 
L 709.795026 441.1251 
L 711.320701 442.69436 
L 712.242252 444.26362 
L 713.434934 445.83288 
L 714.859943 447.40214 
L 717.934486 450.54066 
L 719.677012 453.67918 
L 721.202642 455.24844 
L 722.186189 456.8177 
L 723.51825 458.38696 
L 724.494036 459.95622 
L 725.020643 461.52548 
L 726.337227 463.09474 
L 726.182327 464.664 
L 726.97226 466.23326 
L 727.359488 467.80252 
L 727.971283 469.37178 
L 728.033235 470.94104 
L 728.714742 474.07956 
L 728.730263 478.78734 
L 729.713809 480.3566 
L 729.930616 483.49512 
L 729.249109 485.06438 
L 729.977091 486.63364 
L 730.341126 488.2029 
L 730.240417 489.77216 
L 730.008089 491.34142 
L 728.420463 492.91068 
L 728.397225 494.47994 
L 727.111683 496.0492 
L 727.514388 499.18772 
L 727.498867 500.75698 
L 727.870618 502.32624 
L 726.848358 503.8955 
L 726.499844 505.46476 
L 726.476651 507.03402 
L 726.298513 508.60328 
L 725.206497 511.7418 
L 725.477583 513.31106 
L 724.741841 516.44958 
L 725.345964 519.5881 
L 726.763169 521.15736 
L 726.120376 522.72662 
L 726.422371 525.86514 
L 727.344011 527.4344 
L 726.747693 529.00366 
L 727.367204 530.57292 
L 727.862858 532.14218 
L 729.040063 533.71144 
L 730.952921 535.2807 
L 729.969375 536.84996 
L 731.967466 539.98848 
L 732.571501 541.55774 
L 732.238508 543.127 
L 732.834826 544.69626 
L 732.099129 546.26552 
L 733.694471 547.83478 
L 733.353673 550.9733 
L 732.974205 552.54256 
L 731.572477 555.68108 
L 730.519263 557.25034 
L 729.884186 558.8196 
L 729.791237 560.38886 
L 730.054563 561.95812 
L 729.218156 565.09664 
L 730.162989 566.6659 
L 730.798021 569.80442 
L 729.752523 571.37368 
L 728.823212 574.5122 
L 728.629598 576.08146 
L 729.620905 577.65072 
L 728.358556 579.21998 
L 728.327558 580.78924 
L 728.947114 582.3585 
L 728.265563 583.92776 
L 726.31399 585.49702 
L 725.33816 587.06628 
L 725.152306 588.63554 
L 725.214302 590.2048 
L 723.920955 593.34332 
L 723.673106 594.91258 
L 724.215234 598.0511 
L 722.565657 601.18962 
L 721.930624 602.75888 
L 722.526943 604.32814 
L 721.698296 605.8974 
L 720.676035 607.46666 
L 719.367212 609.03592 
L 719.44464 610.60518 
L 717.446548 612.17444 
L 715.858967 613.7437 
L 715.750497 615.31296 
L 716.586948 616.88222 
L 717.717635 618.45148 
L 721.504682 620.02074 
L 721.969338 621.59 
L 724.013859 623.15926 
L 724.470799 624.72852 
L 725.105832 626.29778 
L 724.02162 629.4363 
L 722.612131 631.00556 
L 720.652754 632.57482 
L 716.486283 634.14408 
L 716.532713 635.71334 
L 715.200653 637.2826 
L 715.270409 638.85186 
L 713.365222 640.42112 
L 713.489124 641.99038 
L 712.737906 643.55964 
L 713.868636 645.1289 
L 713.489124 646.69816 
L 707.758265 648.26742 
L 707.595604 649.83668 
L 701.864701 651.40594 
L 729.543433 652.9752 
L 729.543433 652.9752 
" clip-path="url(#p10757c75ee)" style="fill: none; stroke: #00264a; stroke-width: 4"/>
   </g>
   <g id="line2d_16">
    <path d="M 309.466505 88.0416 
L 309.466505 89.61086 
L 310.410141 91.18012 
L 308.58869 94.31864 
L 308.58869 95.8879 
L 308.720364 97.45716 
L 310.73932 99.02642 
L 315.216134 102.16494 
L 315.325857 103.7342 
L 316.071987 105.30346 
L 316.971742 106.87272 
L 319.341828 108.44198 
L 320.724377 110.01124 
L 321.119377 111.5805 
L 321.9533 113.14976 
L 323.884463 114.71902 
L 326.078995 116.28828 
L 327.834603 117.85754 
L 328.054037 119.4268 
L 331.323879 120.99606 
L 333.430618 122.56532 
L 336.832122 124.13458 
L 339.289991 125.70384 
L 341.396708 127.2731 
L 344.095951 128.84236 
L 348.287477 130.41162 
L 354.322394 133.55014 
L 355.858556 135.1194 
L 359.216181 136.68866 
L 368.762313 139.82718 
L 372.27353 141.39644 
L 374.007209 142.9657 
L 381.249109 146.10422 
L 385.308972 147.67348 
L 388.381297 149.24274 
L 389.544378 150.812 
L 392.8581 152.38126 
L 397.400756 153.95052 
L 400.977804 155.51978 
L 402.448135 157.08904 
L 410.699524 160.22756 
L 415.483555 161.79682 
L 419.784815 163.36608 
L 420.750401 164.93534 
L 425.249177 166.5046 
L 432.732474 168.07386 
L 446.42623 171.21238 
L 448.598823 172.78164 
L 472.650707 175.92016 
L 490.075169 179.05868 
L 492.730532 180.62794 
L 497.03177 182.1972 
L 502.035268 183.76646 
L 504.098104 185.33572 
L 507.587392 186.90498 
L 509.781891 188.47424 
L 513.117564 190.0435 
L 515.202373 191.61276 
L 517.945497 193.18202 
L 520.952013 194.75128 
L 523.124561 196.32054 
L 525.99937 197.8898 
L 532.231781 201.02832 
L 535.106589 202.59758 
L 537.740024 204.16684 
L 540.110132 205.7361 
L 543.31412 207.30536 
L 549.590434 212.01314 
L 551.258281 213.5824 
L 554.176948 215.15166 
L 555.208388 216.72092 
L 557.402932 218.29018 
L 559.92661 219.85944 
L 561.001908 221.4287 
L 564.18399 222.99796 
L 565.961549 224.56722 
L 573.027839 229.275 
L 576.27573 230.84426 
L 578.07524 232.41352 
L 580.620914 233.98278 
L 583.429825 235.55204 
L 585.624413 237.1213 
L 589.069775 238.69056 
L 591.066758 240.25982 
L 594.556067 241.82908 
L 596.794468 243.39834 
L 602.522179 246.53686 
L 604.475304 248.10612 
L 607.086742 249.67538 
L 609.105676 251.24464 
L 611.673301 252.8139 
L 613.714186 254.38316 
L 616.325669 255.95242 
L 619.66132 257.52168 
L 621.570542 259.09094 
L 632.850399 265.36798 
L 635.286272 266.93724 
L 643.647373 271.64502 
L 645.73216 273.21428 
L 648.694774 274.78354 
L 651.130692 276.3528 
L 653.325191 277.92206 
L 655.78306 279.49132 
L 657.758091 281.06058 
L 660.369618 282.62984 
L 664.91223 285.76836 
L 666.909257 287.33762 
L 669.147659 288.90688 
L 671.627479 290.47614 
L 674.414527 292.0454 
L 677.684325 293.61466 
L 679.900819 295.18392 
L 685.694295 298.32244 
L 691.378103 301.46096 
L 693.331228 303.03022 
L 700.243948 307.738 
L 702.811529 309.30726 
L 704.698844 310.87652 
L 707.595604 312.44578 
L 709.395071 314.01504 
L 711.479902 315.5843 
L 714.288857 317.15356 
L 719.467877 320.29208 
L 720.850448 321.86134 
L 723.549691 323.4306 
L 725.788137 324.99986 
L 727.258424 326.56912 
L 729.101837 328.13838 
L 730.045472 329.70764 
L 732.700858 331.2769 
L 735.72928 332.84616 
L 738.384666 334.41542 
L 741.676414 335.98468 
L 744.639028 337.55394 
L 748.720842 339.1232 
L 751.72727 340.69246 
L 755.15077 342.26172 
L 761.427083 345.40024 
L 764.916304 346.9695 
L 766.957233 348.53876 
L 769.788184 350.10802 
L 772.246008 351.67728 
L 773.738291 353.24654 
L 776.437534 354.8158 
L 778.82955 356.38506 
L 782.077485 359.52358 
L 782.516331 361.09284 
L 783.459967 362.6621 
L 783.657483 364.23136 
L 784.842537 367.36988 
L 786.312869 368.93914 
L 788.156281 370.5084 
L 789.604661 372.07766 
L 790.504395 373.64692 
L 792.040535 375.21618 
L 793.818094 376.78544 
L 795.793214 378.3547 
L 796.912371 379.92396 
L 798.272946 381.49322 
L 799.128821 383.06248 
L 801.893962 386.201 
L 801.345315 387.77026 
L 801.147799 390.90878 
L 800.533343 392.47804 
L 801.235559 394.0473 
L 801.125848 395.61656 
L 800.708908 397.18582 
L 801.038087 398.75508 
L 801.564739 400.32434 
L 802.442565 401.8936 
L 802.947309 403.46286 
L 803.166733 405.03212 
L 804.220124 406.60138 
L 805.668504 408.17064 
L 806.743803 409.7399 
L 808.41165 411.30916 
L 808.872492 412.87842 
L 809.838079 414.44768 
L 811.286459 416.01694 
L 812.361757 417.5862 
L 813.744328 419.15546 
L 814.556301 420.72472 
L 816.553283 423.86324 
L 816.465478 425.4325 
L 817.10193 427.00176 
L 817.145788 428.57102 
L 817.716386 430.14028 
L 818.440598 431.70954 
L 818.572217 433.2788 
L 820.086495 434.84806 
L 819.976739 436.41732 
L 821.425119 439.55584 
L 821.469021 441.1251 
L 821.907912 442.69436 
L 822.083477 444.26362 
L 822.566271 445.83288 
L 823.202678 447.40214 
L 823.487955 448.9714 
L 824.234118 450.54066 
L 825.221656 452.10992 
L 825.199661 453.67918 
L 825.79221 456.8177 
L 826.318906 458.38696 
L 826.253052 459.95622 
L 826.670036 461.52548 
L 826.296955 463.09474 
L 826.362764 464.664 
L 826.56028 466.23326 
L 827.043074 467.80252 
L 826.845602 469.37178 
L 827.043074 470.94104 
L 826.82365 472.5103 
L 826.999216 474.07956 
L 827.481965 475.64882 
L 824.672965 477.21808 
L 824.321923 478.78734 
L 823.334341 480.3566 
L 822.675982 481.92586 
L 822.390706 486.63364 
L 822.280994 488.2029 
L 822.478466 489.77216 
L 821.776249 491.34142 
L 822.302901 492.91068 
L 822.522368 494.47994 
L 821.842103 496.0492 
L 821.403168 497.61846 
L 820.700907 499.18772 
L 820.788712 500.75698 
L 820.042593 502.32624 
L 819.384234 505.46476 
L 818.945299 507.03402 
L 818.660022 508.60328 
L 817.51887 511.7418 
L 816.531376 513.31106 
L 816.092441 516.44958 
L 815.017098 518.01884 
L 814.62211 519.5881 
L 813.415104 521.15736 
L 812.230094 524.29588 
L 811.857057 525.86514 
L 810.606194 527.4344 
L 809.091916 530.57292 
L 807.841052 532.14218 
L 805.054004 536.84996 
L 804.395689 538.41922 
L 802.859505 539.98848 
L 801.959772 541.55774 
L 800.182212 543.127 
L 799.72137 546.26552 
L 797.812148 547.83478 
L 796.385719 549.40404 
L 795.200665 550.9733 
L 794.937339 552.54256 
L 794.059513 554.11182 
L 791.952775 555.68108 
L 792.918361 557.25034 
L 790.987188 558.8196 
L 791.601644 560.38886 
L 791.272465 561.95812 
L 790.76772 563.52738 
L 791.469981 565.09664 
L 790.021601 566.6659 
L 789.275482 568.23516 
L 788.814596 569.80442 
L 788.156281 571.37368 
L 786.83952 572.94294 
L 785.895929 574.5122 
L 785.347282 576.08146 
L 784.513358 577.65072 
L 783.525865 579.21998 
L 782.318859 580.78924 
L 781.814115 582.3585 
L 779.729283 585.49702 
L 778.193187 587.06628 
L 777.600637 588.63554 
L 776.503344 590.2048 
L 775.076915 591.77406 
L 775.076915 593.34332 
L 774.221084 594.91258 
L 773.738291 596.48184 
L 773.628535 598.0511 
L 770.929291 599.62036 
L 770.270933 601.18962 
L 768.18619 602.75888 
L 767.835059 604.32814 
L 767.264505 605.8974 
L 766.518298 607.46666 
L 763.226549 609.03592 
L 763.402114 610.60518 
L 760.439501 612.17444 
L 761.163713 613.7437 
L 763.533822 615.31296 
L 763.731294 616.88222 
L 761.86593 618.45148 
L 750.89339 620.02074 
L 750.300841 621.59 
L 743.30036 623.15926 
L 716.220031 624.72852 
L 715.210586 626.29778 
L 714.815509 627.86704 
L 707.244474 629.4363 
L 707.815028 631.00556 
L 705.839952 632.57482 
L 705.37911 634.14408 
L 699.914769 635.71334 
L 657.516716 637.2826 
L 657.516716 638.85186 
L 657.516716 638.85186 
" clip-path="url(#p10757c75ee)" style="fill: none; stroke: #0077b2; stroke-width: 4"/>
   </g>
   <g id="line2d_17">
    <path d="M 463.417988 92.74938 
L 463.417988 97.45716 
L 466.124926 99.02642 
L 468.554236 100.59568 
L 467.982618 102.16494 
L 468.962506 103.7342 
L 469.534124 105.30346 
L 469.534124 106.87272 
L 470.211862 108.44198 
L 470.326185 110.01124 
L 470.554811 111.5805 
L 471.987891 113.14976 
L 472.036916 114.71902 
L 474.801015 116.28828 
L 474.952057 117.85754 
L 475.560416 119.4268 
L 476.83017 120.99606 
L 477.948883 122.56532 
L 478.691942 124.13458 
L 478.847109 125.70384 
L 479.394203 127.2731 
L 479.569769 128.84236 
L 480.284269 130.41162 
L 481.02735 133.55014 
L 481.570365 135.1194 
L 482.399189 136.68866 
L 484.003756 138.25792 
L 485.024464 139.82718 
L 485.498078 141.39644 
L 486.204419 142.9657 
L 488.03353 146.10422 
L 488.71945 147.67348 
L 489.968805 149.24274 
L 491.748937 150.812 
L 492.855388 152.38126 
L 493.312682 153.95052 
L 494.174123 155.51978 
L 495.264277 157.08904 
L 496.562591 158.6583 
L 497.599663 160.22756 
L 498.897999 161.79682 
L 499.547178 163.36608 
L 501.261965 166.5046 
L 502.156133 168.07386 
L 503.180899 169.64312 
L 503.862761 171.21238 
L 505.222338 172.78164 
L 505.818435 174.3509 
L 507.937436 177.48942 
L 508.933665 179.05868 
L 511.289472 180.62794 
L 511.869228 182.1972 
L 512.865435 183.76646 
L 513.498273 185.33572 
L 514.294458 186.90498 
L 517.658712 191.61276 
L 518.377293 193.18202 
L 519.655252 194.75128 
L 520.153344 196.32054 
L 521.741591 197.8898 
L 522.635692 199.45906 
L 523.758529 201.02832 
L 524.615912 204.16684 
L 525.738705 205.7361 
L 526.355201 207.30536 
L 527.139102 208.87462 
L 527.424911 210.44388 
L 528.282294 212.01314 
L 528.690587 213.5824 
L 532.357013 219.85944 
L 532.769341 221.4287 
L 535.525303 226.13648 
L 536.011112 227.70574 
L 537.121665 229.275 
L 537.652441 230.84426 
L 539.473414 233.98278 
L 540.126673 235.55204 
L 541.220863 237.1213 
L 541.768002 238.69056 
L 542.711105 240.25982 
L 543.205118 241.82908 
L 544.213587 243.39834 
L 545.369019 246.53686 
L 546.14884 248.10612 
L 546.31629 249.67538 
L 546.989948 251.24464 
L 547.320635 252.8139 
L 548.49243 254.38316 
L 550.321519 259.09094 
L 550.774778 260.6602 
L 551.419833 262.22946 
L 552.007771 265.36798 
L 552.101651 266.93724 
L 552.808036 270.07576 
L 553.085641 271.64502 
L 553.7389 273.21428 
L 554.510562 276.3528 
L 555.192379 279.49132 
L 555.853798 282.62984 
L 556.445815 284.1991 
L 556.698986 285.76836 
L 557.074595 287.33762 
L 557.282843 292.0454 
L 557.103154 293.61466 
L 557.201158 295.18392 
L 557.221557 298.32244 
L 557.450249 299.8917 
L 557.584927 303.03022 
L 557.829894 304.59948 
L 557.854373 309.30726 
L 558.087144 310.87652 
L 557.98098 314.01504 
L 558.095304 315.5843 
L 558.095304 318.72282 
L 558.303552 320.29208 
L 557.944217 321.86134 
L 557.752333 324.99986 
L 557.699251 328.13838 
L 557.907454 329.70764 
L 558.127942 332.84616 
L 557.646169 334.41542 
L 555.041293 335.98468 
L 554.032868 340.69246 
L 553.608257 343.83098 
L 553.538811 345.40024 
L 552.37522 354.8158 
L 551.775043 356.38506 
L 551.330033 359.52358 
L 550.860455 361.09284 
L 550.67673 362.6621 
L 550.366486 364.23136 
L 550.174557 365.80062 
L 549.733582 367.36988 
L 546.716379 368.93914 
L 529.699056 370.5084 
L 529.474488 372.07766 
L 528.947793 373.64692 
L 528.649744 375.21618 
L 528.135288 376.78544 
L 527.72704 379.92396 
L 527.657639 384.63174 
L 528.037328 386.201 
L 527.735199 387.77026 
L 528.351696 389.33952 
L 528.54358 390.90878 
L 529.070276 392.47804 
L 531.650628 394.0473 
L 533.541048 398.75508 
L 534.035016 400.32434 
L 534.247344 401.8936 
L 534.933286 403.46286 
L 538.060733 412.87842 
L 538.248538 414.44768 
L 538.722151 416.01694 
L 539.322328 417.5862 
L 539.408093 419.15546 
L 539.681618 420.72472 
L 539.804101 422.29398 
L 540.216518 425.4325 
L 540.400243 428.57102 
L 540.387959 433.2788 
L 539.595898 439.55584 
L 539.489734 441.1251 
L 539.187605 442.69436 
L 538.673149 448.9714 
L 538.358781 450.54066 
L 538.170977 452.10992 
L 537.717806 453.67918 
L 537.521798 455.24844 
L 536.83998 458.38696 
L 535.86415 463.09474 
L 534.912842 466.23326 
L 534.386147 467.80252 
L 533.565526 470.94104 
L 534.345348 472.5103 
L 533.77373 474.07956 
L 533.442999 475.64882 
L 532.748942 477.21808 
L 532.487656 478.78734 
L 531.842557 480.3566 
L 530.997414 483.49512 
L 530.495197 485.06438 
L 530.225707 486.63364 
L 529.409167 488.2029 
L 529.217282 489.77216 
L 528.09449 491.34142 
L 526.604247 494.47994 
L 525.526377 496.0492 
L 525.199769 497.61846 
L 523.995292 499.18772 
L 523.599283 500.75698 
L 521.688509 503.8955 
L 520.851525 505.46476 
L 519.451083 507.03402 
L 519.136715 508.60328 
L 517.683191 510.17254 
L 517.091174 511.7418 
L 515.854102 513.31106 
L 514.906875 514.88032 
L 514.09437 516.44958 
L 512.061112 519.5881 
L 510.766834 521.15736 
L 509.668565 522.72662 
L 510.950559 524.29588 
L 507.578146 529.00366 
L 506.194067 530.57292 
L 505.091696 532.14218 
L 503.250323 533.71144 
L 502.054027 535.2807 
L 501.172143 536.84996 
L 500.131013 538.41922 
L 499.294029 539.98848 
L 497.88137 541.55774 
L 497.575184 543.127 
L 496.321704 544.69626 
L 495.603124 546.26552 
L 492.365433 549.40404 
L 491.356986 550.9733 
L 489.42987 552.54256 
L 488.686767 554.11182 
L 486.971979 555.68108 
L 486.375882 557.25034 
L 484.493689 558.8196 
L 481.913336 561.95812 
L 480.051542 563.52738 
L 479.553449 565.09664 
L 477.642675 566.6659 
L 477.356866 568.23516 
L 475.229706 569.80442 
L 474.159973 571.37368 
L 472.792214 572.94294 
L 471.86951 574.5122 
L 470.489489 576.08146 
L 468.668537 577.65072 
L 467.480445 579.21998 
L 466.047365 580.78924 
L 465.218541 582.3585 
L 463.989584 583.92776 
L 460.731472 588.63554 
L 457.951053 591.77406 
L 457.077329 593.34332 
L 455.66059 594.91258 
L 454.435713 596.48184 
L 452.790326 598.0511 
L 452.304473 599.62036 
L 450.863233 601.18962 
L 450.414098 602.75888 
L 448.911638 604.32814 
L 448.160375 605.8974 
L 447.062106 607.46666 
L 445.608582 609.03592 
L 445.13907 610.60518 
L 443.665147 612.17444 
L 442.999648 613.7437 
L 441.35424 615.31296 
L 440.93781 616.88222 
L 439.365905 620.02074 
L 439.480228 621.59 
L 438.900473 623.15926 
L 438.733067 624.72852 
L 437.365308 626.29778 
L 437.344909 627.86704 
L 437.157082 629.4363 
L 435.683181 631.00556 
L 435.748502 632.57482 
L 434.099036 634.14408 
L 433.903049 635.71334 
L 431.796311 638.85186 
L 430.979726 641.99038 
L 432.269902 643.55964 
L 431.645225 645.1289 
L 431.81671 646.69816 
L 431.236932 648.26742 
L 430.175403 649.83668 
L 429.354761 651.40594 
L 429.354761 652.9752 
L 429.354761 652.9752 
" clip-path="url(#p10757c75ee)" style="fill: none; stroke: #00b192; stroke-width: 4"/>
   </g>
   <g id="line2d_18">
    <path d="M 391.204421 88.0416 
L 404.494962 89.61086 
L 404.494962 91.18012 
L 403.756315 92.74938 
L 403.756315 99.02642 
L 404.146448 100.59568 
L 404.146448 103.7342 
L 404.318111 105.30346 
L 404.78627 106.87272 
L 404.78627 108.44198 
L 404.926736 110.01124 
L 407.340348 111.5805 
L 407.340348 113.14976 
L 407.475602 114.71902 
L 409.119348 116.28828 
L 409.223383 117.85754 
L 409.805977 119.4268 
L 410.669502 120.99606 
L 410.976397 122.56532 
L 412.094778 124.13458 
L 413.025908 125.70384 
L 413.629299 130.41162 
L 413.462847 131.98088 
L 411.194867 133.55014 
L 411.278082 135.1194 
L 412.105177 138.25792 
L 412.443292 139.82718 
L 412.365265 141.39644 
L 413.197548 142.9657 
L 413.608501 144.53496 
L 414.919343 146.10422 
L 415.772446 147.67348 
L 415.980517 149.24274 
L 417.6971 150.812 
L 418.581401 152.38126 
L 419.236833 153.95052 
L 421.837717 157.08904 
L 421.837717 158.6583 
L 422.149823 160.22756 
L 424.355387 161.79682 
L 424.355387 163.36608 
L 425.874299 164.93534 
L 429.245072 166.5046 
L 430.852409 168.07386 
L 430.852409 169.64312 
L 434.592494 171.21238 
L 436.579588 172.78164 
L 437.916438 174.3509 
L 441.448452 175.92016 
L 441.609694 177.48942 
L 444.137763 179.05868 
L 445.57346 180.62794 
L 446.187273 182.1972 
L 449.006649 183.76646 
L 450.286271 185.33572 
L 450.874098 186.90498 
L 454.42691 188.47424 
L 454.42691 190.0435 
L 455.597308 191.61276 
L 459.6391 193.18202 
L 459.899189 194.75128 
L 459.899189 196.32054 
L 463.89934 197.8898 
L 463.826524 199.45906 
L 465.241401 201.02832 
L 467.644636 202.59758 
L 467.707053 204.16684 
L 469.012706 205.7361 
L 471.873678 207.30536 
L 472.040131 208.87462 
L 473.116915 210.44388 
L 475.566957 212.01314 
L 474.620239 213.5824 
L 476.919416 215.15166 
L 477.29915 216.72092 
L 479.338239 219.85944 
L 479.603538 221.4287 
L 484.581671 229.275 
L 485.01861 230.84426 
L 486.173377 232.41352 
L 487.088897 233.98278 
L 487.624683 235.55204 
L 488.498585 237.1213 
L 490.828982 238.69056 
L 491.661265 240.25982 
L 491.661265 241.82908 
L 493.247827 243.39834 
L 494.178957 244.9676 
L 494.178957 246.53686 
L 495.838334 248.10612 
L 496.582147 249.67538 
L 496.582147 251.24464 
L 498.329973 252.8139 
L 499.791656 255.95242 
L 500.051745 257.52168 
L 501.367819 260.6602 
L 502.652651 262.22946 
L 502.652651 263.79872 
L 503.105223 265.36798 
L 504.400455 266.93724 
L 504.400455 268.5065 
L 504.0103 270.07576 
L 504.525288 271.64502 
L 504.525288 273.21428 
L 503.630588 274.78354 
L 504.254801 276.3528 
L 504.254801 277.92206 
L 504.374446 279.49132 
L 505.024667 281.06058 
L 505.024667 282.62984 
L 505.773713 285.76836 
L 505.773713 287.33762 
L 506.585197 288.90688 
L 506.585197 290.47614 
L 506.200275 292.0454 
L 507.230208 293.61466 
L 507.230208 295.18392 
L 507.001339 296.75318 
L 507.719187 298.32244 
L 507.81799 301.46096 
L 508.098921 303.03022 
L 508.098921 304.59948 
L 508.76994 307.738 
L 508.76994 309.30726 
L 509.4826 312.44578 
L 509.4826 314.01504 
L 509.810294 317.15356 
L 509.737478 321.86134 
L 509.279718 323.4306 
L 509.430561 324.99986 
L 509.420184 326.56912 
L 509.144463 329.70764 
L 509.056038 331.2769 
L 508.280983 332.84616 
L 508.437014 334.41542 
L 508.421448 335.98468 
L 507.464288 337.55394 
L 507.474709 339.1232 
L 506.845308 340.69246 
L 507.110563 342.26172 
L 507.037747 343.83098 
L 506.51757 345.40024 
L 506.632004 346.9695 
L 506.595619 348.53876 
L 506.283513 350.10802 
L 506.101429 353.24654 
L 505.893358 354.8158 
L 505.945353 356.38506 
L 505.836129 357.95432 
L 505.404378 359.52358 
L 505.440808 361.09284 
L 505.113092 364.23136 
L 505.107882 365.80062 
L 504.48367 367.36988 
L 504.390033 370.5084 
L 503.58897 372.07766 
L 503.500544 375.21618 
L 502.995955 376.78544 
L 502.907529 379.92396 
L 503.422518 383.06248 
L 503.849036 384.63174 
L 504.660521 386.201 
L 504.951807 387.77026 
L 506.814066 389.33952 
L 506.814066 390.90878 
L 507.427902 392.47804 
L 509.264108 394.0473 
L 509.264108 395.61656 
L 510.018365 397.18582 
L 512.208318 398.75508 
L 512.208318 400.32434 
L 513.129027 401.8936 
L 515.969224 403.46286 
L 515.969224 405.03212 
L 517.87308 406.60138 
L 519.360751 408.17064 
L 519.360751 409.7399 
L 520.916093 411.30916 
L 522.804339 412.87842 
L 522.804339 414.44768 
L 525.155557 416.01694 
L 525.649747 417.5862 
L 525.649747 419.15546 
L 528.094578 420.72472 
L 529.15573 430.14028 
L 529.181717 431.70954 
L 528.822826 433.2788 
L 529.041274 434.84806 
L 528.854001 436.41732 
L 528.422294 437.98658 
L 528.541895 439.55584 
L 528.541895 441.1251 
L 528.07378 444.26362 
L 528.07378 445.83288 
L 527.657639 447.40214 
L 527.38194 448.9714 
L 527.246686 450.54066 
L 527.387129 452.10992 
L 527.111475 453.67918 
L 526.638083 455.24844 
L 526.757684 456.8177 
L 526.289569 458.38696 
L 525.961853 459.95622 
L 525.753782 461.52548 
L 524.598972 464.664 
L 524.598972 466.23326 
L 523.428552 467.80252 
L 523.324516 470.94104 
L 522.289351 472.5103 
L 522.091702 474.07956 
L 522.091702 475.64882 
L 520.812057 477.21808 
L 520.905716 480.3566 
L 519.693699 481.92586 
L 519.012281 483.49512 
L 519.012281 485.06438 
L 518.013479 486.63364 
L 517.706606 488.2029 
L 516.406164 489.77216 
L 516.848292 491.34142 
L 514.804014 494.47994 
L 515.136941 496.0492 
L 514.809203 497.61846 
L 513.326721 499.18772 
L 513.768849 500.75698 
L 512.853351 502.32624 
L 511.126368 503.8955 
L 510.689406 505.46476 
L 510.689406 507.03402 
L 508.541049 508.60328 
L 507.823223 510.17254 
L 506.834887 511.7418 
L 505.992205 513.31106 
L 503.854269 516.44958 
L 503.885466 518.01884 
L 501.627885 521.15736 
L 501.440613 522.72662 
L 500.597953 524.29588 
L 499.609594 525.86514 
L 499.822854 527.4344 
L 498.366358 529.00366 
L 497.44565 530.57292 
L 498.262323 532.14218 
L 496.264853 533.71144 
L 496.264853 535.2807 
L 495.099643 536.84996 
L 492.519579 538.41922 
L 491.957783 539.98848 
L 491.957783 541.55774 
L 490.345213 543.127 
L 490.45967 544.69626 
L 489.918694 546.26552 
L 488.758696 547.83478 
L 488.592243 549.40404 
L 487.421801 550.9733 
L 487.421801 552.54256 
L 488.124062 554.11182 
L 487.317766 555.68108 
L 487.317766 557.25034 
L 486.13178 558.8196 
L 483.598501 560.38886 
L 483.598501 561.95812 
L 482.105598 563.52738 
L 480.024868 565.09664 
L 480.269369 566.6659 
L 478.922097 568.23516 
L 476.118353 569.80442 
L 475.915471 571.37368 
L 473.106515 572.94294 
L 472.066162 574.5122 
L 472.092148 576.08146 
L 469.652528 577.65072 
L 468.398915 579.21998 
L 468.596564 580.78924 
L 466.573085 582.3585 
L 465.974859 583.92776 
L 465.714771 585.49702 
L 464.060604 587.06628 
L 464.216657 588.63554 
L 463.722489 590.2048 
L 462.213976 591.77406 
L 462.063111 593.34332 
L 460.887525 594.91258 
L 460.393357 596.48184 
L 460.33094 598.0511 
L 459.425819 599.62036 
L 458.827615 601.18962 
L 458.759988 602.75888 
L 457.880898 604.32814 
L 457.714446 605.8974 
L 458.312627 607.46666 
L 457.927705 609.03592 
L 458.140986 610.60518 
L 460.304909 612.17444 
L 460.840718 613.7437 
L 462.281581 615.31296 
L 461.558544 616.88222 
L 461.215241 618.45148 
L 458.01092 620.02074 
L 457.506353 623.15926 
L 454.676577 624.72852 
L 453.521789 627.86704 
L 452.32536 629.4363 
L 452.486624 631.00556 
L 453.32414 632.57482 
L 453.688263 634.14408 
L 453.688263 635.71334 
L 456.195512 637.2826 
L 456.89254 638.85186 
L 456.89254 640.42112 
L 457.693625 641.99038 
L 457.693625 645.1289 
L 459.550653 646.69816 
L 459.550653 649.83668 
L 458.302228 651.40594 
L 458.302228 652.9752 
L 458.302228 652.9752 
" clip-path="url(#p10757c75ee)" style="fill: none; stroke: #00b21d; stroke-width: 4"/>
   </g>
   <g id="line2d_19">
    <path d="M 144.136566 139.82718 
L 144.016373 652.9752 
L 144.016373 652.9752 
" clip-path="url(#p10757c75ee)" style="fill: none; stroke: #369900; stroke-width: 4"/>
   </g>
   <g id="line2d_20">
    <path d="M 785.029145 146.10422 
L 785.029145 150.812 
L 772.251108 152.38126 
L 774.075585 153.95052 
L 774.075585 155.51978 
L 770.924857 157.08904 
L 770.904635 158.6583 
L 770.372795 160.22756 
L 771.375898 161.79682 
L 770.978693 163.36608 
L 771.019047 164.93534 
L 767.834704 166.5046 
L 767.814483 168.07386 
L 768.002997 169.64312 
L 767.908718 171.21238 
L 768.063573 172.78164 
L 768.077055 174.3509 
L 769.053195 175.92016 
L 769.34273 179.05868 
L 769.719714 180.62794 
L 770.372795 182.1972 
L 770.608405 183.76646 
L 764.448277 185.33572 
L 764.993643 186.90498 
L 765.01382 188.47424 
L 762.872935 190.0435 
L 763.25666 191.61276 
L 761.728457 193.18202 
L 761.425487 194.75128 
L 760.13959 196.32054 
L 759.782739 197.8898 
L 759.735643 199.45906 
L 755.837598 201.02832 
L 755.952055 202.59758 
L 754.928686 204.16684 
L 753.86505 208.87462 
L 753.912146 210.44388 
L 752.094365 212.01314 
L 752.10115 213.5824 
L 751.656804 215.15166 
L 751.427891 216.72092 
L 751.023944 218.29018 
L 751.050862 221.4287 
L 740.070429 222.99796 
L 739.881871 224.56722 
L 739.296151 226.13648 
L 735.889591 227.70574 
L 735.701077 229.275 
L 735.748216 230.84426 
L 735.647241 232.41352 
L 723.010534 233.98278 
L 723.178916 235.55204 
L 723.481842 237.1213 
L 718.600871 238.69056 
L 718.614352 240.25982 
L 719.233686 241.82908 
L 718.075727 243.39834 
L 718.560472 246.53686 
L 718.472933 248.10612 
L 717.772757 249.67538 
L 717.362114 251.24464 
L 717.543888 252.8139 
L 716.399365 254.38316 
L 715.409699 255.95242 
L 714.211341 257.52168 
L 711.329925 260.6602 
L 710.74416 262.22946 
L 709.424649 263.79872 
L 708.529262 265.36798 
L 707.478975 266.93724 
L 706.893299 268.5065 
L 706.785583 270.07576 
L 705.735296 271.64502 
L 705.203456 273.21428 
L 703.453081 274.78354 
L 702.039246 276.3528 
L 701.776674 277.92206 
L 701.069801 279.49132 
L 699.427098 281.06058 
L 698.774061 282.62984 
L 696.633176 284.1991 
L 693.89983 285.76836 
L 689.745954 287.33762 
L 689.624757 288.90688 
L 687.638728 290.47614 
L 684.319662 292.0454 
L 683.733942 293.61466 
L 679.081884 295.18392 
L 678.159535 296.75318 
L 674.241313 298.32244 
L 673.945082 299.8917 
L 672.470716 301.46096 
L 670.161449 303.03022 
L 668.545708 304.59948 
L 665.287263 306.16874 
L 664.075424 307.738 
L 661.860482 309.30726 
L 658.945363 310.87652 
L 657.444078 312.44578 
L 656.218758 314.01504 
L 654.811708 315.5843 
L 649.089186 317.15356 
L 648.126437 318.72282 
L 646.537614 320.29208 
L 642.780988 321.86134 
L 642.060589 324.99986 
L 637.671059 326.56912 
L 635.887025 329.70764 
L 634.203923 331.2769 
L 630.52805 332.84616 
L 629.329692 334.41542 
L 627.962997 335.98468 
L 623.674487 337.55394 
L 621.425886 340.69246 
L 615.939018 342.26172 
L 615.555249 343.83098 
L 614.262656 345.40024 
L 612.727624 346.9695 
L 608.70173 348.53876 
L 605.880846 351.67728 
L 599.969853 353.24654 
L 599.512027 354.8158 
L 598.152072 356.38506 
L 593.41252 357.95432 
L 590.72627 361.09284 
L 589.029731 362.6621 
L 584.720999 364.23136 
L 584.377673 365.80062 
L 583.159093 367.36988 
L 579.483221 368.93914 
L 576.655641 372.07766 
L 573.026864 373.64692 
L 570.455114 375.21618 
L 570.185846 376.78544 
L 566.536892 378.3547 
L 564.645053 379.92396 
L 563.231308 381.49322 
L 561.272152 383.06248 
L 555.044708 386.201 
L 554.687901 387.77026 
L 551.523691 389.33952 
L 549.180811 390.90878 
L 548.022852 392.47804 
L 542.435008 394.0473 
L 541.391461 395.61656 
L 539.129379 397.18582 
L 538.772617 398.75508 
L 535.285214 400.32434 
L 533.501181 401.8936 
L 532.356614 403.46286 
L 528.613425 405.03212 
L 527.367971 406.60138 
L 522.399462 409.7399 
L 519.618977 411.30916 
L 519.275651 412.87842 
L 517.60603 414.44768 
L 513.768583 416.01694 
L 512.018141 417.5862 
L 506.174466 420.72472 
L 503.43438 422.29398 
L 503.043915 423.86324 
L 498.533232 425.4325 
L 494.857337 428.57102 
L 491.888382 430.14028 
L 485.411825 433.2788 
L 484.785728 434.84806 
L 478.975689 436.41732 
L 475.845138 437.98658 
L 473.488821 439.55584 
L 465.403241 441.1251 
L 464.864661 442.69436 
L 461.700451 444.26362 
L 460.946416 445.83288 
L 455.789414 447.40214 
L 453.870702 448.9714 
L 451.601902 450.54066 
L 444.411709 452.10992 
L 443.994304 453.67918 
L 437.24176 456.8177 
L 436.218413 458.38696 
L 433.841919 459.95622 
L 428.920527 461.52548 
L 424.416584 463.09474 
L 423.157627 464.664 
L 418.370914 466.23326 
L 413.981428 467.80252 
L 411.625088 469.37178 
L 408.433961 470.94104 
L 402.320973 472.5103 
L 398.752795 474.07956 
L 398.086299 475.64882 
L 389.011075 477.21808 
L 388.512871 478.78734 
L 386.668194 480.3566 
L 384.056046 481.92586 
L 378.596073 483.49512 
L 374.11233 485.06438 
L 373.459293 486.63364 
L 365.818059 488.2029 
L 365.427594 489.77216 
L 363.286687 491.34142 
L 357.126582 492.91068 
L 355.120331 494.47994 
L 351.128051 496.0492 
L 350.380757 497.61846 
L 341.655599 499.18772 
L 341.197772 500.75698 
L 339.144404 502.32624 
L 331.281019 503.8955 
L 329.039136 505.46476 
L 320.26012 508.60328 
L 316.496731 510.17254 
L 315.877353 511.7418 
L 313.999029 513.31106 
L 307.091607 514.88032 
L 305.5903 516.44958 
L 301.160393 518.01884 
L 295.767771 519.5881 
L 292.334271 521.15736 
L 291.674482 522.72662 
L 285.729809 524.29588 
L 283.077251 525.86514 
L 281.448029 527.4344 
L 278.290537 529.00366 
L 273.194145 530.57292 
L 269.86835 532.14218 
L 268.952741 533.71144 
L 264.603632 535.2807 
L 261.80297 536.84996 
L 260.981618 538.41922 
L 252.990306 539.98848 
L 251.973722 541.55774 
L 248.782572 543.127 
L 244.615248 544.69626 
L 242.023277 546.26552 
L 241.417368 547.83478 
L 240.629675 549.40404 
L 234.395501 550.9733 
L 233.695336 552.54256 
L 230.955266 554.11182 
L 226.680215 555.68108 
L 223.94014 557.25034 
L 222.977414 558.8196 
L 219.658354 560.38886 
L 217.126981 561.95812 
L 216.763428 563.52738 
L 214.528286 565.09664 
L 211.020723 566.6659 
L 209.088535 568.23516 
L 208.617267 569.80442 
L 205.136632 571.37368 
L 203.204445 572.94294 
L 203.009206 574.5122 
L 198.458124 576.08146 
L 195.435289 579.21998 
L 195.031348 580.78924 
L 192.843329 582.3585 
L 191.220831 583.92776 
L 190.446608 585.49702 
L 187.383379 587.06628 
L 187.087157 588.63554 
L 185.686823 590.2048 
L 183.862351 591.77406 
L 183.451678 593.34332 
L 182.307172 594.91258 
L 182.138863 596.48184 
L 180.226872 598.0511 
L 180.085492 599.62036 
L 179.641155 601.18962 
L 178.409133 602.75888 
L 178.442794 604.32814 
L 177.682036 605.8974 
L 177.069392 607.46666 
L 176.988602 609.03592 
L 177.480065 612.17444 
L 174.90157 613.7437 
L 174.793851 615.31296 
L 175.285314 616.88222 
L 174.544752 618.45148 
L 173.985966 620.02074 
L 173.656083 621.59 
L 173.905177 623.15926 
L 173.696474 624.72852 
L 172.767409 626.29778 
L 170.350488 627.86704 
L 169.778235 629.4363 
L 169.751306 631.00556 
L 168.802044 632.57482 
L 166.095632 634.14408 
L 165.43586 637.2826 
L 164.654904 638.85186 
L 164.210568 640.42112 
L 163.974935 641.99038 
L 157.458004 643.55964 
L 156.946343 645.1289 
L 157.027131 646.69816 
L 157.282963 648.26742 
L 156.811696 649.83668 
L 157.235835 651.40594 
L 156.549134 652.9752 
L 156.549134 652.9752 
" clip-path="url(#p10757c75ee)" style="fill: none; stroke: #57b221; stroke-width: 4"/>
   </g>
   <g id="line2d_21">
    <path d="M 678.083437 90.39549 
L 679.037184 91.96475 
L 680.944588 93.53401 
L 687.938594 96.67253 
L 692.707193 98.24179 
L 696.310116 99.81105 
L 700.654857 101.38031 
L 704.575652 102.94957 
L 707.966646 104.51883 
L 712.099458 106.08809 
L 720.78894 109.22661 
L 729.05452 112.36513 
L 732.869416 113.93439 
L 737.849944 115.50365 
L 745.161821 118.64217 
L 748.446829 120.21143 
L 752.049753 121.78069 
L 762.858612 128.05773 
L 768.47497 131.19625 
L 770.700289 132.76551 
L 772.289822 134.33477 
L 777.058421 137.47329 
L 778.75394 139.04255 
L 780.979304 140.61181 
L 782.992694 142.18107 
L 784.794156 143.75033 
L 787.125506 145.31959 
L 790.410514 148.45811 
L 792.953749 150.02737 
L 794.755255 151.59663 
L 797.192503 153.16589 
L 799.205983 154.73515 
L 807.259589 159.44293 
L 809.484909 161.01219 
L 814.889382 164.15071 
L 817.220644 165.71997 
L 819.022106 167.28923 
L 822.095229 168.85849 
L 823.790704 170.42775 
L 831.102582 175.13553 
L 833.327901 176.70479 
L 838.520402 179.84331 
L 843.289001 182.98183 
L 845.726337 184.55109 
L 847.84567 186.12035 
L 850.176976 187.68961 
L 853.356042 190.82813 
L 854.309788 192.39739 
L 855.051606 193.96665 
L 856.005263 195.53591 
L 856.747081 197.10517 
L 859.502244 204.95147 
L 860.66792 208.08999 
L 861.727608 209.65925 
L 861.727608 211.22851 
L 862.68131 212.79777 
L 863.423128 214.36703 
L 863.740999 215.93629 
L 864.270887 217.50555 
L 865.012661 219.07481 
L 865.54246 220.64407 
L 865.648447 222.21333 
L 866.814122 225.35185 
L 867.23798 226.92111 
L 867.344011 228.49037 
L 867.23798 230.05963 
L 867.979797 231.62889 
L 868.191726 234.76741 
L 868.509597 236.33667 
L 868.615584 237.90593 
L 869.039486 239.47519 
L 868.933544 242.61371 
L 869.357401 244.18297 
L 869.357401 245.75223 
L 869.781259 247.32149 
L 869.887201 250.46001 
L 869.887201 252.02927 
L 870.205117 253.59853 
L 870.205117 255.16779 
L 870.629019 256.73705 
L 870.417046 258.30631 
L 870.523077 259.87557 
L 870.311059 263.01409 
L 870.417046 264.58335 
L 870.311059 266.15261 
L 869.463344 270.86039 
L 869.251415 272.42965 
L 868.403655 273.99891 
L 868.08574 275.56817 
L 867.026051 278.70669 
L 866.284278 280.27595 
L 864.270887 283.41447 
L 862.99927 284.98373 
L 862.257452 286.55299 
L 856.535152 295.96855 
L 856.217237 297.53781 
L 855.263535 299.10707 
L 854.097859 300.67633 
L 853.356042 302.24559 
L 852.084469 303.81485 
L 850.071034 306.95337 
L 848.269572 308.52263 
L 847.31587 310.09189 
L 844.98452 313.23041 
L 843.289001 314.79967 
L 841.805454 316.36893 
L 840.109935 317.93819 
L 838.626389 319.50745 
L 836.824927 321.07671 
L 835.447323 322.64597 
L 833.751803 324.21523 
L 832.692115 325.78449 
L 829.407107 328.92301 
L 826.122055 332.06153 
L 823.260904 335.20005 
L 821.247514 336.76931 
L 819.86991 338.33857 
L 818.17439 339.90783 
L 815.84304 341.47709 
L 810.226726 346.18487 
L 808.42522 347.75413 
L 799.947711 354.03117 
L 797.404477 355.60043 
L 795.179113 357.16969 
L 793.58958 358.73895 
L 791.152287 360.30821 
L 789.562755 361.87747 
L 787.125506 363.44673 
L 776.528576 371.29303 
L 774.727115 372.86229 
L 772.395809 374.43155 
L 766.567477 379.13933 
L 764.236216 380.70859 
L 762.434754 382.27785 
L 759.997417 383.84711 
L 758.195955 385.41637 
L 754.063143 388.55489 
L 751.625895 390.12415 
L 747.281154 393.26267 
L 744.525946 394.83193 
L 742.512556 396.40119 
L 735.730522 401.10897 
L 733.081345 402.67823 
L 728.630618 405.81675 
L 723.438117 408.95527 
L 719.411336 412.09379 
L 717.079986 413.66305 
L 714.960653 415.23231 
L 712.311387 416.80157 
L 710.827841 418.37083 
L 708.920393 419.94009 
L 706.589087 421.50935 
L 705.211527 423.07861 
L 703.516007 424.64787 
L 701.396586 426.21713 
L 698.21752 429.35565 
L 696.20413 430.92491 
L 690.587771 437.20195 
L 688.78631 438.77121 
L 687.726621 440.34047 
L 686.984848 441.90973 
L 683.487867 445.04825 
L 682.746049 446.61751 
L 681.686405 448.18677 
L 680.308801 451.32529 
L 679.037184 452.89455 
L 678.401353 454.46381 
L 677.553593 456.03307 
L 677.129735 457.60233 
L 676.493905 459.17159 
L 675.96406 462.31011 
L 675.96406 463.87937 
L 675.222287 465.44863 
L 675.222287 465.44863 
" clip-path="url(#p10757c75ee)" style="fill: none; stroke: #80ac00; stroke-width: 4"/>
   </g>
   <g id="line2d_22">
    <path d="M 637.815228 90.39549 
L 637.815228 91.96475 
L 639.40476 93.53401 
L 640.994293 98.24179 
L 649.471846 104.51883 
L 650.53149 106.08809 
L 652.121023 110.79587 
L 652.121023 112.36513 
L 653.710556 113.93439 
L 654.770289 117.07291 
L 655.829978 118.64217 
L 656.359822 120.21143 
L 657.41951 121.78069 
L 660.068732 123.34995 
L 660.598576 124.91921 
L 662.717953 126.48847 
L 663.777642 128.05773 
L 665.367175 129.62699 
L 667.486552 131.19625 
L 668.016396 132.76551 
L 668.016396 134.33477 
L 668.54624 135.90403 
L 668.54624 139.04255 
L 669.076085 140.61181 
L 668.54624 142.18107 
L 667.486552 143.75033 
L 667.486552 148.45811 
L 669.076085 150.02737 
L 668.016396 151.59663 
L 668.54624 153.16589 
L 668.54624 154.73515 
L 670.665617 157.87367 
L 670.665617 159.44293 
L 671.725306 161.01219 
L 673.844683 162.58145 
L 673.844683 164.15071 
L 674.904372 167.28923 
L 674.904372 168.85849 
L 675.43426 170.42775 
L 677.023793 171.99701 
L 678.083437 175.13553 
L 680.202859 176.70479 
L 679.67297 178.27405 
L 681.262503 179.84331 
L 681.262503 181.41257 
L 684.441569 186.12035 
L 684.971457 187.68961 
L 684.441569 189.25887 
L 687.09079 190.82813 
L 687.620635 192.39739 
L 687.09079 193.96665 
L 687.620635 195.53591 
L 688.680323 197.10517 
L 689.210167 198.67443 
L 688.680323 200.24369 
L 688.680323 201.81295 
L 687.620635 203.38221 
L 687.620635 204.95147 
L 686.031102 209.65925 
L 687.09079 211.22851 
L 685.501257 212.79777 
L 685.501257 217.50555 
L 682.322192 219.07481 
L 681.792392 220.64407 
L 681.792392 222.21333 
L 681.262503 223.78259 
L 678.083437 226.92111 
L 678.083437 228.49037 
L 677.553593 230.05963 
L 675.96406 231.62889 
L 674.904372 233.19815 
L 674.904372 234.76741 
L 672.784995 237.90593 
L 672.25515 239.47519 
L 670.665617 241.04445 
L 670.135773 242.61371 
L 670.665617 244.18297 
L 670.665617 245.75223 
L 668.54624 247.32149 
L 667.486552 248.89075 
L 666.956707 250.46001 
L 665.897019 252.02927 
L 665.367175 253.59853 
L 661.12842 259.87557 
L 660.598576 261.44483 
L 659.538888 263.01409 
L 656.889622 264.58335 
L 655.300089 266.15261 
L 652.650912 267.72187 
L 651.061379 269.29113 
L 650.53149 270.86039 
L 648.941957 272.42965 
L 646.822625 273.99891 
L 646.29278 275.56817 
L 644.703248 277.13743 
L 643.643559 278.70669 
L 640.994293 280.27595 
L 640.994293 281.84521 
L 638.87496 283.41447 
L 638.345116 284.98373 
L 635.695895 286.55299 
L 634.636162 288.12225 
L 628.27803 294.39929 
L 626.158698 295.96855 
L 626.158698 297.53781 
L 623.509432 299.10707 
L 622.449743 300.67633 
L 620.330366 302.24559 
L 619.800566 303.81485 
L 617.681145 305.38411 
L 615.561768 308.52263 
L 612.912546 310.09189 
L 611.852858 311.66115 
L 610.263325 313.23041 
L 608.143948 314.79967 
L 606.554415 316.36893 
L 605.494726 317.93819 
L 602.845505 319.50745 
L 601.255972 321.07671 
L 600.196283 322.64597 
L 598.60675 324.21523 
L 595.957529 325.78449 
L 594.367996 327.35375 
L 592.248619 328.92301 
L 591.188931 330.49227 
L 588.009865 332.06153 
L 586.420332 333.63079 
L 585.890488 335.20005 
L 583.241266 336.76931 
L 582.711422 338.33857 
L 581.121889 339.90783 
L 578.472668 341.47709 
L 576.883135 343.04635 
L 575.823402 344.61561 
L 573.174181 346.18487 
L 571.584648 347.75413 
L 571.054803 349.32339 
L 567.875738 350.89265 
L 566.816049 352.46191 
L 564.696672 354.03117 
L 559.928073 358.73895 
L 553.569942 363.44673 
L 550.390876 366.58525 
L 549.331188 368.15451 
L 547.741655 369.72377 
L 546.681966 371.29303 
L 544.562589 372.86229 
L 542.973056 374.43155 
L 542.443212 376.00081 
L 541.383523 377.57007 
L 539.793991 379.13933 
L 537.674613 380.70859 
L 536.085081 382.27785 
L 536.085081 383.84711 
L 534.495548 385.41637 
L 533.435859 386.98563 
L 532.906015 388.55489 
L 529.726949 393.26267 
L 529.197061 394.83193 
L 528.137416 396.40119 
L 527.077728 399.53971 
L 527.077728 401.10897 
L 524.958351 402.67823 
L 525.488195 404.24749 
L 524.428462 405.81675 
L 524.428462 407.38601 
L 522.838929 408.95527 
L 524.428462 410.52453 
L 522.838929 412.09379 
L 521.779285 413.66305 
L 522.838929 415.23231 
L 522.309129 416.80157 
L 522.309129 418.37083 
L 520.189752 419.94009 
L 520.189752 419.94009 
" clip-path="url(#p10757c75ee)" style="fill: none; stroke: #808907; stroke-width: 4"/>
   </g>
   <g id="patch_3">
    <path d="M 144 652.9752 
L 144 88.0416 
" style="fill: none; stroke: #000000; stroke-width: 0.8; stroke-linejoin: miter; stroke-linecap: square"/>
   </g>
   <g id="patch_4">
    <path d="M 1036.8 652.9752 
L 1036.8 88.0416 
" style="fill: none; stroke: #000000; stroke-width: 0.8; stroke-linejoin: miter; stroke-linecap: square"/>
   </g>
   <g id="patch_5">
    <path d="M 144 652.9752 
L 1036.8 652.9752 
" style="fill: none; stroke: #000000; stroke-width: 0.8; stroke-linejoin: miter; stroke-linecap: square"/>
   </g>
   <g id="patch_6">
    <path d="M 144 88.0416 
L 1036.8 88.0416 
" style="fill: none; stroke: #000000; stroke-width: 0.8; stroke-linejoin: miter; stroke-linecap: square"/>
   </g>
   <g id="legend_1">
    <g id="line2d_23">
     <path d="M 902.596875 114.344725 
L 922.596875 114.344725 
L 942.596875 114.344725 
" style="fill: none; stroke: #00005a; stroke-width: 4"/>
    </g>
    <g id="text_16">
     <!-- Ta -->
     <g transform="translate(958.596875 121.344725) scale(0.2 -0.2)">
      <defs>
       <path id="DejaVuSansMono-54" d="M 147 4666 
L 3706 4666 
L 3706 4134 
L 2247 4134 
L 2247 0 
L 1613 0 
L 1613 4134 
L 147 4134 
L 147 4666 
z
" transform="scale(0.015625)"/>
      </defs>
      <use xlink:href="#DejaVuSansMono-54"/>
      <use xlink:href="#DejaVuSansMono-61" x="60.205078"/>
     </g>
    </g>
    <g id="line2d_24">
     <path d="M 902.596875 143.807225 
L 922.596875 143.807225 
L 942.596875 143.807225 
" style="fill: none; stroke: #00264a; stroke-width: 4"/>
    </g>
    <g id="text_17">
     <!-- T8 -->
     <g transform="translate(958.596875 150.807225) scale(0.2 -0.2)">
      <defs>
       <path id="DejaVuSansMono-38" d="M 1925 2216 
Q 1503 2216 1273 1980 
Q 1044 1744 1044 1313 
Q 1044 881 1276 642 
Q 1509 403 1925 403 
Q 2350 403 2579 639 
Q 2809 875 2809 1313 
Q 2809 1741 2576 1978 
Q 2344 2216 1925 2216 
z
M 1375 2478 
Q 972 2581 745 2862 
Q 519 3144 519 3541 
Q 519 4097 897 4423 
Q 1275 4750 1925 4750 
Q 2578 4750 2956 4423 
Q 3334 4097 3334 3541 
Q 3334 3144 3107 2862 
Q 2881 2581 2478 2478 
Q 2947 2375 3195 2062 
Q 3444 1750 3444 1253 
Q 3444 622 3041 265 
Q 2638 -91 1925 -91 
Q 1213 -91 811 264 
Q 409 619 409 1247 
Q 409 1747 657 2061 
Q 906 2375 1375 2478 
z
M 1147 3481 
Q 1147 3106 1347 2909 
Q 1547 2713 1925 2713 
Q 2306 2713 2506 2909 
Q 2706 3106 2706 3481 
Q 2706 3863 2507 4063 
Q 2309 4263 1925 4263 
Q 1547 4263 1347 4061 
Q 1147 3859 1147 3481 
z
" transform="scale(0.015625)"/>
      </defs>
      <use xlink:href="#DejaVuSansMono-54"/>
      <use xlink:href="#DejaVuSansMono-38" x="60.205078"/>
     </g>
    </g>
    <g id="line2d_25">
     <path d="M 902.596875 173.269725 
L 922.596875 173.269725 
L 942.596875 173.269725 
" style="fill: none; stroke: #0077b2; stroke-width: 4"/>
    </g>
    <g id="text_18">
     <!-- T31 -->
     <g transform="translate(958.596875 180.269725) scale(0.2 -0.2)">
      <use xlink:href="#DejaVuSansMono-54"/>
      <use xlink:href="#DejaVuSansMono-33" x="60.205078"/>
      <use xlink:href="#DejaVuSansMono-31" x="120.410156"/>
     </g>
    </g>
    <g id="line2d_26">
     <path d="M 902.596875 202.732225 
L 922.596875 202.732225 
L 942.596875 202.732225 
" style="fill: none; stroke: #00b192; stroke-width: 4"/>
    </g>
    <g id="text_19">
     <!-- T61 -->
     <g transform="translate(958.596875 209.732225) scale(0.2 -0.2)">
      <use xlink:href="#DejaVuSansMono-54"/>
      <use xlink:href="#DejaVuSansMono-36" x="60.205078"/>
      <use xlink:href="#DejaVuSansMono-31" x="120.410156"/>
     </g>
    </g>
    <g id="line2d_27">
     <path d="M 902.596875 232.194725 
L 922.596875 232.194725 
L 942.596875 232.194725 
" style="fill: none; stroke: #00b21d; stroke-width: 4"/>
    </g>
    <g id="text_20">
     <!-- T67 -->
     <g transform="translate(958.596875 239.194725) scale(0.2 -0.2)">
      <use xlink:href="#DejaVuSansMono-54"/>
      <use xlink:href="#DejaVuSansMono-36" x="60.205078"/>
      <use xlink:href="#DejaVuSansMono-37" x="120.410156"/>
     </g>
    </g>
    <g id="line2d_28">
     <path d="M 902.596875 261.657225 
L 922.596875 261.657225 
L 942.596875 261.657225 
" style="fill: none; stroke: #369900; stroke-width: 4"/>
    </g>
    <g id="text_21">
     <!-- T85 -->
     <g transform="translate(958.596875 268.657225) scale(0.2 -0.2)">
      <use xlink:href="#DejaVuSansMono-54"/>
      <use xlink:href="#DejaVuSansMono-38" x="60.205078"/>
      <use xlink:href="#DejaVuSansMono-35" x="120.410156"/>
     </g>
    </g>
    <g id="line2d_29">
     <path d="M 902.596875 291.119725 
L 922.596875 291.119725 
L 942.596875 291.119725 
" style="fill: none; stroke: #57b221; stroke-width: 4"/>
    </g>
    <g id="text_22">
     <!-- T108 -->
     <g transform="translate(958.596875 298.119725) scale(0.2 -0.2)">
      <use xlink:href="#DejaVuSansMono-54"/>
      <use xlink:href="#DejaVuSansMono-31" x="60.205078"/>
      <use xlink:href="#DejaVuSansMono-30" x="120.410156"/>
      <use xlink:href="#DejaVuSansMono-38" x="180.615234"/>
     </g>
    </g>
    <g id="line2d_30">
     <path d="M 902.596875 320.582225 
L 922.596875 320.582225 
L 942.596875 320.582225 
" style="fill: none; stroke: #80ac00; stroke-width: 4"/>
    </g>
    <g id="text_23">
     <!-- 278TI -->
     <g transform="translate(958.596875 327.582225) scale(0.2 -0.2)">
      <defs>
       <path id="DejaVuSansMono-32" d="M 1166 531 
L 3309 531 
L 3309 0 
L 475 0 
L 475 531 
Q 1059 1147 1496 1619 
Q 1934 2091 2100 2284 
Q 2413 2666 2522 2902 
Q 2631 3138 2631 3384 
Q 2631 3775 2401 3997 
Q 2172 4219 1772 4219 
Q 1488 4219 1175 4116 
Q 863 4013 513 3803 
L 513 4441 
Q 834 4594 1145 4672 
Q 1456 4750 1759 4750 
Q 2444 4750 2861 4386 
Q 3278 4022 3278 3431 
Q 3278 3131 3139 2831 
Q 3000 2531 2688 2169 
Q 2513 1966 2180 1606 
Q 1847 1247 1166 531 
z
" transform="scale(0.015625)"/>
      </defs>
      <use xlink:href="#DejaVuSansMono-32"/>
      <use xlink:href="#DejaVuSansMono-37" x="60.205078"/>
      <use xlink:href="#DejaVuSansMono-38" x="120.410156"/>
      <use xlink:href="#DejaVuSansMono-54" x="180.615234"/>
      <use xlink:href="#DejaVuSansMono-49" x="240.820312"/>
     </g>
    </g>
    <g id="line2d_31">
     <path d="M 902.596875 350.044725 
L 922.596875 350.044725 
L 942.596875 350.044725 
" style="fill: none; stroke: #808907; stroke-width: 4"/>
    </g>
    <g id="text_24">
     <!-- 283TI -->
     <g transform="translate(958.596875 357.044725) scale(0.2 -0.2)">
      <use xlink:href="#DejaVuSansMono-32"/>
      <use xlink:href="#DejaVuSansMono-38" x="60.205078"/>
      <use xlink:href="#DejaVuSansMono-33" x="120.410156"/>
      <use xlink:href="#DejaVuSansMono-54" x="180.615234"/>
      <use xlink:href="#DejaVuSansMono-49" x="240.820312"/>
     </g>
    </g>
   </g>
  </g>
  <g id="text_25">
   <!-- 0.54954µm -->
   <g transform="translate(576 73.368) scale(0.24 -0.24)">
    <defs>
     <path id="DejaVuSansMono-b5" d="M 609 -1338 
L 609 3500 
L 1184 3500 
L 1184 1325 
Q 1184 881 1371 645 
Q 1559 409 1906 409 
Q 2303 409 2504 675 
Q 2706 941 2706 1459 
L 2706 3500 
L 3284 3500 
L 3284 800 
Q 3284 616 3334 528 
Q 3384 441 3488 441 
Q 3516 441 3561 456 
Q 3606 472 3694 513 
L 3694 50 
Q 3575 -22 3469 -56 
Q 3363 -91 3256 -91 
Q 3063 -91 2945 32 
Q 2828 156 2791 403 
Q 2647 153 2439 31 
Q 2231 -91 1953 -91 
Q 1666 -91 1467 28 
Q 1269 147 1131 397 
L 1131 -1338 
L 609 -1338 
z
" transform="scale(0.015625)"/>
     <path id="DejaVuSansMono-6d" d="M 2113 3144 
Q 2219 3369 2383 3476 
Q 2547 3584 2778 3584 
Q 3200 3584 3373 3257 
Q 3547 2931 3547 2028 
L 3547 0 
L 3022 0 
L 3022 2003 
Q 3022 2744 2939 2923 
Q 2856 3103 2638 3103 
Q 2388 3103 2295 2911 
Q 2203 2719 2203 2003 
L 2203 0 
L 1678 0 
L 1678 2003 
Q 1678 2753 1589 2928 
Q 1500 3103 1269 3103 
Q 1041 3103 952 2911 
Q 863 2719 863 2003 
L 863 0 
L 341 0 
L 341 3500 
L 863 3500 
L 863 3200 
Q 966 3388 1120 3486 
Q 1275 3584 1472 3584 
Q 1709 3584 1867 3475 
Q 2025 3366 2113 3144 
z
" transform="scale(0.015625)"/>
    </defs>
    <use xlink:href="#DejaVuSansMono-30"/>
    <use xlink:href="#DejaVuSansMono-2e" x="60.205078"/>
    <use xlink:href="#DejaVuSansMono-35" x="120.410156"/>
    <use xlink:href="#DejaVuSansMono-34" x="180.615234"/>
    <use xlink:href="#DejaVuSansMono-39" x="240.820312"/>
    <use xlink:href="#DejaVuSansMono-35" x="301.025391"/>
    <use xlink:href="#DejaVuSansMono-34" x="361.230469"/>
    <use xlink:href="#DejaVuSansMono-b5" x="421.435547"/>
    <use xlink:href="#DejaVuSansMono-6d" x="481.640625"/>
   </g>
  </g>
 </g>
 <defs>
  <clipPath id="p10757c75ee">
   <rect x="144" y="88.0416" width="892.8" height="564.9336"/>
  </clipPath>
 </defs>
</svg>
