<?xml version="1.0" encoding="utf-8" standalone="no"?>
<!DOCTYPE svg PUBLIC "-//W3C//DTD SVG 1.1//EN"
  "http://www.w3.org/Graphics/SVG/1.1/DTD/svg11.dtd">
<svg xmlns:xlink="http://www.w3.org/1999/xlink" width="1152pt" height="733.68pt" viewBox="0 0 1152 733.68" xmlns="http://www.w3.org/2000/svg" version="1.1">
 <metadata>
  <rdf:RDF xmlns:dc="http://purl.org/dc/elements/1.1/" xmlns:cc="http://creativecommons.org/ns#" xmlns:rdf="http://www.w3.org/1999/02/22-rdf-syntax-ns#">
   <cc:Work>
    <dc:type rdf:resource="http://purl.org/dc/dcmitype/StillImage"/>
    <dc:date>2022-05-09T23:55:44.325691</dc:date>
    <dc:format>image/svg+xml</dc:format>
    <dc:creator>
     <cc:Agent>
      <dc:title>Matplotlib v3.5.1, https://matplotlib.org/</dc:title>
     </cc:Agent>
    </dc:creator>
   </cc:Work>
  </rdf:RDF>
 </metadata>
 <defs>
  <style type="text/css">*{stroke-linejoin: round; stroke-linecap: butt}</style>
 </defs>
 <g id="figure_1">
  <g id="patch_1">
   <path d="M 0 733.68 
L 1152 733.68 
L 1152 0 
L 0 0 
z
" style="fill: #ffffff"/>
  </g>
  <g id="axes_1">
   <g id="patch_2">
    <path d="M 144 652.9752 
L 1036.8 652.9752 
L 1036.8 88.0416 
L 144 88.0416 
z
" style="fill: #ffffff"/>
   </g>
   <g id="matplotlib.axis_1">
    <g id="xtick_1">
     <g id="line2d_1">
      <defs>
       <path id="md6c7915de3" d="M 0 0 
L 0 3.5 
" style="stroke: #000000; stroke-width: 0.8"/>
      </defs>
      <g>
       <use xlink:href="#md6c7915de3" x="144" y="652.9752" style="stroke: #000000; stroke-width: 0.8"/>
      </g>
     </g>
     <g id="text_1">
      <!-- 0.000 -->
      <g transform="translate(122.928906 670.687387)scale(0.14 -0.14)">
       <defs>
        <path id="DejaVuSansMono-30" d="M 1509 2344 
Q 1509 2516 1629 2641 
Q 1750 2766 1919 2766 
Q 2094 2766 2219 2641 
Q 2344 2516 2344 2344 
Q 2344 2169 2220 2047 
Q 2097 1925 1919 1925 
Q 1744 1925 1626 2044 
Q 1509 2163 1509 2344 
z
M 1925 4250 
Q 1484 4250 1267 3775 
Q 1050 3300 1050 2328 
Q 1050 1359 1267 884 
Q 1484 409 1925 409 
Q 2369 409 2586 884 
Q 2803 1359 2803 2328 
Q 2803 3300 2586 3775 
Q 2369 4250 1925 4250 
z
M 1925 4750 
Q 2672 4750 3055 4137 
Q 3438 3525 3438 2328 
Q 3438 1134 3055 521 
Q 2672 -91 1925 -91 
Q 1178 -91 797 521 
Q 416 1134 416 2328 
Q 416 3525 797 4137 
Q 1178 4750 1925 4750 
z
" transform="scale(0.015625)"/>
        <path id="DejaVuSansMono-2e" d="M 1528 953 
L 2316 953 
L 2316 0 
L 1528 0 
L 1528 953 
z
" transform="scale(0.015625)"/>
       </defs>
       <use xlink:href="#DejaVuSansMono-30"/>
       <use xlink:href="#DejaVuSansMono-2e" x="60.205078"/>
       <use xlink:href="#DejaVuSansMono-30" x="120.410156"/>
       <use xlink:href="#DejaVuSansMono-30" x="180.615234"/>
       <use xlink:href="#DejaVuSansMono-30" x="240.820312"/>
      </g>
     </g>
    </g>
    <g id="xtick_2">
     <g id="line2d_2">
      <g>
       <use xlink:href="#md6c7915de3" x="203.52" y="652.9752" style="stroke: #000000; stroke-width: 0.8"/>
      </g>
     </g>
     <g id="text_2">
      <!-- 0.005 -->
      <g transform="translate(182.448906 670.687387)scale(0.14 -0.14)">
       <defs>
        <path id="DejaVuSansMono-35" d="M 647 4666 
L 3009 4666 
L 3009 4134 
L 1222 4134 
L 1222 2988 
Q 1356 3038 1492 3061 
Q 1628 3084 1766 3084 
Q 2491 3084 2916 2656 
Q 3341 2228 3341 1497 
Q 3341 759 2895 334 
Q 2450 -91 1678 -91 
Q 1306 -91 998 -41 
Q 691 9 447 109 
L 447 750 
Q 734 594 1025 517 
Q 1316 441 1619 441 
Q 2141 441 2423 716 
Q 2706 991 2706 1497 
Q 2706 1997 2414 2275 
Q 2122 2553 1600 2553 
Q 1347 2553 1106 2495 
Q 866 2438 647 2322 
L 647 4666 
z
" transform="scale(0.015625)"/>
       </defs>
       <use xlink:href="#DejaVuSansMono-30"/>
       <use xlink:href="#DejaVuSansMono-2e" x="60.205078"/>
       <use xlink:href="#DejaVuSansMono-30" x="120.410156"/>
       <use xlink:href="#DejaVuSansMono-30" x="180.615234"/>
       <use xlink:href="#DejaVuSansMono-35" x="240.820312"/>
      </g>
     </g>
    </g>
    <g id="xtick_3">
     <g id="line2d_3">
      <g>
       <use xlink:href="#md6c7915de3" x="263.04" y="652.9752" style="stroke: #000000; stroke-width: 0.8"/>
      </g>
     </g>
     <g id="text_3">
      <!-- 0.010 -->
      <g transform="translate(241.968906 670.687387)scale(0.14 -0.14)">
       <defs>
        <path id="DejaVuSansMono-31" d="M 844 531 
L 1825 531 
L 1825 4097 
L 769 3859 
L 769 4434 
L 1819 4666 
L 2450 4666 
L 2450 531 
L 3419 531 
L 3419 0 
L 844 0 
L 844 531 
z
" transform="scale(0.015625)"/>
       </defs>
       <use xlink:href="#DejaVuSansMono-30"/>
       <use xlink:href="#DejaVuSansMono-2e" x="60.205078"/>
       <use xlink:href="#DejaVuSansMono-30" x="120.410156"/>
       <use xlink:href="#DejaVuSansMono-31" x="180.615234"/>
       <use xlink:href="#DejaVuSansMono-30" x="240.820312"/>
      </g>
     </g>
    </g>
    <g id="xtick_4">
     <g id="line2d_4">
      <g>
       <use xlink:href="#md6c7915de3" x="322.56" y="652.9752" style="stroke: #000000; stroke-width: 0.8"/>
      </g>
     </g>
     <g id="text_4">
      <!-- 0.015 -->
      <g transform="translate(301.488906 670.687387)scale(0.14 -0.14)">
       <use xlink:href="#DejaVuSansMono-30"/>
       <use xlink:href="#DejaVuSansMono-2e" x="60.205078"/>
       <use xlink:href="#DejaVuSansMono-30" x="120.410156"/>
       <use xlink:href="#DejaVuSansMono-31" x="180.615234"/>
       <use xlink:href="#DejaVuSansMono-35" x="240.820312"/>
      </g>
     </g>
    </g>
    <g id="xtick_5">
     <g id="line2d_5">
      <g>
       <use xlink:href="#md6c7915de3" x="382.08" y="652.9752" style="stroke: #000000; stroke-width: 0.8"/>
      </g>
     </g>
     <g id="text_5">
      <!-- 0.020 -->
      <g transform="translate(361.008906 670.687387)scale(0.14 -0.14)">
       <defs>
        <path id="DejaVuSansMono-32" d="M 1166 531 
L 3309 531 
L 3309 0 
L 475 0 
L 475 531 
Q 1059 1147 1496 1619 
Q 1934 2091 2100 2284 
Q 2413 2666 2522 2902 
Q 2631 3138 2631 3384 
Q 2631 3775 2401 3997 
Q 2172 4219 1772 4219 
Q 1488 4219 1175 4116 
Q 863 4013 513 3803 
L 513 4441 
Q 834 4594 1145 4672 
Q 1456 4750 1759 4750 
Q 2444 4750 2861 4386 
Q 3278 4022 3278 3431 
Q 3278 3131 3139 2831 
Q 3000 2531 2688 2169 
Q 2513 1966 2180 1606 
Q 1847 1247 1166 531 
z
" transform="scale(0.015625)"/>
       </defs>
       <use xlink:href="#DejaVuSansMono-30"/>
       <use xlink:href="#DejaVuSansMono-2e" x="60.205078"/>
       <use xlink:href="#DejaVuSansMono-30" x="120.410156"/>
       <use xlink:href="#DejaVuSansMono-32" x="180.615234"/>
       <use xlink:href="#DejaVuSansMono-30" x="240.820312"/>
      </g>
     </g>
    </g>
    <g id="xtick_6">
     <g id="line2d_6">
      <g>
       <use xlink:href="#md6c7915de3" x="441.6" y="652.9752" style="stroke: #000000; stroke-width: 0.8"/>
      </g>
     </g>
     <g id="text_6">
      <!-- 0.025 -->
      <g transform="translate(420.528906 670.687387)scale(0.14 -0.14)">
       <use xlink:href="#DejaVuSansMono-30"/>
       <use xlink:href="#DejaVuSansMono-2e" x="60.205078"/>
       <use xlink:href="#DejaVuSansMono-30" x="120.410156"/>
       <use xlink:href="#DejaVuSansMono-32" x="180.615234"/>
       <use xlink:href="#DejaVuSansMono-35" x="240.820312"/>
      </g>
     </g>
    </g>
    <g id="xtick_7">
     <g id="line2d_7">
      <g>
       <use xlink:href="#md6c7915de3" x="501.12" y="652.9752" style="stroke: #000000; stroke-width: 0.8"/>
      </g>
     </g>
     <g id="text_7">
      <!-- 0.030 -->
      <g transform="translate(480.048906 670.687387)scale(0.14 -0.14)">
       <defs>
        <path id="DejaVuSansMono-33" d="M 2425 2497 
Q 2884 2375 3128 2064 
Q 3372 1753 3372 1288 
Q 3372 644 2939 276 
Q 2506 -91 1741 -91 
Q 1419 -91 1084 -31 
Q 750 28 428 141 
L 428 769 
Q 747 603 1056 522 
Q 1366 441 1672 441 
Q 2191 441 2469 675 
Q 2747 909 2747 1350 
Q 2747 1756 2469 1995 
Q 2191 2234 1716 2234 
L 1234 2234 
L 1234 2753 
L 1716 2753 
Q 2150 2753 2394 2943 
Q 2638 3134 2638 3475 
Q 2638 3834 2411 4026 
Q 2184 4219 1766 4219 
Q 1488 4219 1191 4156 
Q 894 4094 569 3969 
L 569 4550 
Q 947 4650 1242 4700 
Q 1538 4750 1766 4750 
Q 2447 4750 2855 4408 
Q 3263 4066 3263 3500 
Q 3263 3116 3048 2859 
Q 2834 2603 2425 2497 
z
" transform="scale(0.015625)"/>
       </defs>
       <use xlink:href="#DejaVuSansMono-30"/>
       <use xlink:href="#DejaVuSansMono-2e" x="60.205078"/>
       <use xlink:href="#DejaVuSansMono-30" x="120.410156"/>
       <use xlink:href="#DejaVuSansMono-33" x="180.615234"/>
       <use xlink:href="#DejaVuSansMono-30" x="240.820312"/>
      </g>
     </g>
    </g>
    <g id="xtick_8">
     <g id="line2d_8">
      <g>
       <use xlink:href="#md6c7915de3" x="560.64" y="652.9752" style="stroke: #000000; stroke-width: 0.8"/>
      </g>
     </g>
     <g id="text_8">
      <!-- 0.035 -->
      <g transform="translate(539.568906 670.687387)scale(0.14 -0.14)">
       <use xlink:href="#DejaVuSansMono-30"/>
       <use xlink:href="#DejaVuSansMono-2e" x="60.205078"/>
       <use xlink:href="#DejaVuSansMono-30" x="120.410156"/>
       <use xlink:href="#DejaVuSansMono-33" x="180.615234"/>
       <use xlink:href="#DejaVuSansMono-35" x="240.820312"/>
      </g>
     </g>
    </g>
    <g id="xtick_9">
     <g id="line2d_9">
      <g>
       <use xlink:href="#md6c7915de3" x="620.16" y="652.9752" style="stroke: #000000; stroke-width: 0.8"/>
      </g>
     </g>
     <g id="text_9">
      <!-- 0.040 -->
      <g transform="translate(599.088906 670.687387)scale(0.14 -0.14)">
       <defs>
        <path id="DejaVuSansMono-34" d="M 2297 4091 
L 825 1625 
L 2297 1625 
L 2297 4091 
z
M 2194 4666 
L 2925 4666 
L 2925 1625 
L 3547 1625 
L 3547 1113 
L 2925 1113 
L 2925 0 
L 2297 0 
L 2297 1113 
L 319 1113 
L 319 1709 
L 2194 4666 
z
" transform="scale(0.015625)"/>
       </defs>
       <use xlink:href="#DejaVuSansMono-30"/>
       <use xlink:href="#DejaVuSansMono-2e" x="60.205078"/>
       <use xlink:href="#DejaVuSansMono-30" x="120.410156"/>
       <use xlink:href="#DejaVuSansMono-34" x="180.615234"/>
       <use xlink:href="#DejaVuSansMono-30" x="240.820312"/>
      </g>
     </g>
    </g>
    <g id="xtick_10">
     <g id="line2d_10">
      <g>
       <use xlink:href="#md6c7915de3" x="679.68" y="652.9752" style="stroke: #000000; stroke-width: 0.8"/>
      </g>
     </g>
     <g id="text_10">
      <!-- 0.045 -->
      <g transform="translate(658.608906 670.687387)scale(0.14 -0.14)">
       <use xlink:href="#DejaVuSansMono-30"/>
       <use xlink:href="#DejaVuSansMono-2e" x="60.205078"/>
       <use xlink:href="#DejaVuSansMono-30" x="120.410156"/>
       <use xlink:href="#DejaVuSansMono-34" x="180.615234"/>
       <use xlink:href="#DejaVuSansMono-35" x="240.820312"/>
      </g>
     </g>
    </g>
    <g id="xtick_11">
     <g id="line2d_11">
      <g>
       <use xlink:href="#md6c7915de3" x="739.2" y="652.9752" style="stroke: #000000; stroke-width: 0.8"/>
      </g>
     </g>
     <g id="text_11">
      <!-- 0.050 -->
      <g transform="translate(718.128906 670.687387)scale(0.14 -0.14)">
       <use xlink:href="#DejaVuSansMono-30"/>
       <use xlink:href="#DejaVuSansMono-2e" x="60.205078"/>
       <use xlink:href="#DejaVuSansMono-30" x="120.410156"/>
       <use xlink:href="#DejaVuSansMono-35" x="180.615234"/>
       <use xlink:href="#DejaVuSansMono-30" x="240.820312"/>
      </g>
     </g>
    </g>
    <g id="xtick_12">
     <g id="line2d_12">
      <g>
       <use xlink:href="#md6c7915de3" x="798.72" y="652.9752" style="stroke: #000000; stroke-width: 0.8"/>
      </g>
     </g>
     <g id="text_12">
      <!-- 0.055 -->
      <g transform="translate(777.648906 670.687387)scale(0.14 -0.14)">
       <use xlink:href="#DejaVuSansMono-30"/>
       <use xlink:href="#DejaVuSansMono-2e" x="60.205078"/>
       <use xlink:href="#DejaVuSansMono-30" x="120.410156"/>
       <use xlink:href="#DejaVuSansMono-35" x="180.615234"/>
       <use xlink:href="#DejaVuSansMono-35" x="240.820312"/>
      </g>
     </g>
    </g>
    <g id="xtick_13">
     <g id="line2d_13">
      <g>
       <use xlink:href="#md6c7915de3" x="858.24" y="652.9752" style="stroke: #000000; stroke-width: 0.8"/>
      </g>
     </g>
     <g id="text_13">
      <!-- 0.060 -->
      <g transform="translate(837.168906 670.687387)scale(0.14 -0.14)">
       <defs>
        <path id="DejaVuSansMono-36" d="M 3097 4563 
L 3097 3981 
Q 2900 4097 2678 4158 
Q 2456 4219 2216 4219 
Q 1616 4219 1306 3767 
Q 997 3316 997 2438 
Q 1147 2750 1412 2917 
Q 1678 3084 2022 3084 
Q 2697 3084 3067 2670 
Q 3438 2256 3438 1497 
Q 3438 741 3056 325 
Q 2675 -91 1984 -91 
Q 1172 -91 794 492 
Q 416 1075 416 2328 
Q 416 3509 870 4129 
Q 1325 4750 2188 4750 
Q 2419 4750 2650 4701 
Q 2881 4653 3097 4563 
z
M 1972 2591 
Q 1569 2591 1337 2300 
Q 1106 2009 1106 1497 
Q 1106 984 1337 693 
Q 1569 403 1972 403 
Q 2391 403 2603 679 
Q 2816 956 2816 1497 
Q 2816 2041 2603 2316 
Q 2391 2591 1972 2591 
z
" transform="scale(0.015625)"/>
       </defs>
       <use xlink:href="#DejaVuSansMono-30"/>
       <use xlink:href="#DejaVuSansMono-2e" x="60.205078"/>
       <use xlink:href="#DejaVuSansMono-30" x="120.410156"/>
       <use xlink:href="#DejaVuSansMono-36" x="180.615234"/>
       <use xlink:href="#DejaVuSansMono-30" x="240.820312"/>
      </g>
     </g>
    </g>
    <g id="xtick_14">
     <g id="line2d_14">
      <g>
       <use xlink:href="#md6c7915de3" x="917.76" y="652.9752" style="stroke: #000000; stroke-width: 0.8"/>
      </g>
     </g>
     <g id="text_14">
      <!-- 0.065 -->
      <g transform="translate(896.688906 670.687387)scale(0.14 -0.14)">
       <use xlink:href="#DejaVuSansMono-30"/>
       <use xlink:href="#DejaVuSansMono-2e" x="60.205078"/>
       <use xlink:href="#DejaVuSansMono-30" x="120.410156"/>
       <use xlink:href="#DejaVuSansMono-36" x="180.615234"/>
       <use xlink:href="#DejaVuSansMono-35" x="240.820312"/>
      </g>
     </g>
    </g>
    <g id="xtick_15">
     <g id="line2d_15">
      <g>
       <use xlink:href="#md6c7915de3" x="977.28" y="652.9752" style="stroke: #000000; stroke-width: 0.8"/>
      </g>
     </g>
     <g id="text_15">
      <!-- 0.070 -->
      <g transform="translate(956.208906 670.687387)scale(0.14 -0.14)">
       <defs>
        <path id="DejaVuSansMono-37" d="M 434 4666 
L 3372 4666 
L 3372 4397 
L 1703 0 
L 1044 0 
L 2669 4134 
L 434 4134 
L 434 4666 
z
" transform="scale(0.015625)"/>
       </defs>
       <use xlink:href="#DejaVuSansMono-30"/>
       <use xlink:href="#DejaVuSansMono-2e" x="60.205078"/>
       <use xlink:href="#DejaVuSansMono-30" x="120.410156"/>
       <use xlink:href="#DejaVuSansMono-37" x="180.615234"/>
       <use xlink:href="#DejaVuSansMono-30" x="240.820312"/>
      </g>
     </g>
    </g>
    <g id="xtick_16">
     <g id="line2d_16">
      <g>
       <use xlink:href="#md6c7915de3" x="1036.8" y="652.9752" style="stroke: #000000; stroke-width: 0.8"/>
      </g>
     </g>
     <g id="text_16">
      <!-- 0.075 -->
      <g transform="translate(1015.728906 670.687387)scale(0.14 -0.14)">
       <use xlink:href="#DejaVuSansMono-30"/>
       <use xlink:href="#DejaVuSansMono-2e" x="60.205078"/>
       <use xlink:href="#DejaVuSansMono-30" x="120.410156"/>
       <use xlink:href="#DejaVuSansMono-37" x="180.615234"/>
       <use xlink:href="#DejaVuSansMono-35" x="240.820312"/>
      </g>
     </g>
    </g>
    <g id="text_17">
     <!-- I/F -->
     <g transform="translate(576.854297 689.076294)scale(0.15 -0.15)">
      <defs>
       <path id="DejaVuSansMono-49" d="M 628 4666 
L 3219 4666 
L 3219 4134 
L 2241 4134 
L 2241 531 
L 3219 531 
L 3219 0 
L 628 0 
L 628 531 
L 1606 531 
L 1606 4134 
L 628 4134 
L 628 4666 
z
" transform="scale(0.015625)"/>
       <path id="DejaVuSansMono-2f" d="M 2778 4666 
L 3372 4666 
L 916 -594 
L 319 -594 
L 2778 4666 
z
" transform="scale(0.015625)"/>
       <path id="DejaVuSansMono-46" d="M 728 4666 
L 3475 4666 
L 3475 4134 
L 1363 4134 
L 1363 2759 
L 3278 2759 
L 3278 2228 
L 1363 2228 
L 1363 0 
L 728 0 
L 728 4666 
z
" transform="scale(0.015625)"/>
      </defs>
      <use xlink:href="#DejaVuSansMono-49"/>
      <use xlink:href="#DejaVuSansMono-2f" x="60.205078"/>
      <use xlink:href="#DejaVuSansMono-46" x="120.410156"/>
     </g>
    </g>
   </g>
   <g id="matplotlib.axis_2">
    <g id="ytick_1">
     <g id="line2d_17">
      <defs>
       <path id="m3533aa2970" d="M 0 0 
L -3.5 0 
" style="stroke: #000000; stroke-width: 0.8"/>
      </defs>
      <g>
       <use xlink:href="#m3533aa2970" x="144" y="652.9752" style="stroke: #000000; stroke-width: 0.8"/>
      </g>
     </g>
     <g id="text_18">
      <!-- 90°S -->
      <g transform="translate(103.28625 658.331294)scale(0.14 -0.14)">
       <defs>
        <path id="DejaVuSansMono-39" d="M 1863 2069 
Q 2266 2069 2495 2359 
Q 2725 2650 2725 3163 
Q 2725 3675 2495 3965 
Q 2266 4256 1863 4256 
Q 1444 4256 1231 3979 
Q 1019 3703 1019 3163 
Q 1019 2619 1230 2344 
Q 1441 2069 1863 2069 
z
M 738 97 
L 738 678 
Q 934 563 1156 502 
Q 1378 441 1619 441 
Q 2219 441 2526 892 
Q 2834 1344 2834 2222 
Q 2688 1909 2422 1742 
Q 2156 1575 1813 1575 
Q 1138 1575 767 1990 
Q 397 2406 397 3169 
Q 397 3922 776 4336 
Q 1156 4750 1850 4750 
Q 2663 4750 3041 4165 
Q 3419 3581 3419 2328 
Q 3419 1150 2964 529 
Q 2509 -91 1644 -91 
Q 1416 -91 1184 -42 
Q 953 6 738 97 
z
" transform="scale(0.015625)"/>
        <path id="DejaVuSansMono-b0" d="M 1925 4750 
Q 2128 4750 2311 4673 
Q 2494 4597 2631 4453 
Q 2772 4313 2845 4134 
Q 2919 3956 2919 3750 
Q 2919 3338 2628 3052 
Q 2338 2766 1919 2766 
Q 1497 2766 1215 3047 
Q 934 3328 934 3750 
Q 934 4169 1221 4459 
Q 1509 4750 1925 4750 
z
M 1925 4347 
Q 1678 4347 1504 4173 
Q 1331 4000 1331 3750 
Q 1331 3500 1501 3331 
Q 1672 3163 1919 3163 
Q 2169 3163 2345 3334 
Q 2522 3506 2522 3750 
Q 2522 3997 2347 4172 
Q 2172 4347 1925 4347 
z
" transform="scale(0.015625)"/>
        <path id="DejaVuSansMono-53" d="M 3163 4506 
L 3163 3866 
Q 2875 4050 2586 4144 
Q 2297 4238 2003 4238 
Q 1556 4238 1297 4030 
Q 1038 3822 1038 3469 
Q 1038 3159 1208 2996 
Q 1378 2834 1844 2725 
L 2175 2650 
Q 2831 2497 3131 2169 
Q 3431 1841 3431 1275 
Q 3431 609 3018 259 
Q 2606 -91 1819 -91 
Q 1491 -91 1159 -20 
Q 828 50 494 191 
L 494 863 
Q 853 634 1173 528 
Q 1494 422 1819 422 
Q 2297 422 2562 636 
Q 2828 850 2828 1234 
Q 2828 1584 2645 1768 
Q 2463 1953 2009 2053 
L 1672 2131 
Q 1022 2278 728 2575 
Q 434 2872 434 3372 
Q 434 3997 854 4373 
Q 1275 4750 1972 4750 
Q 2241 4750 2537 4689 
Q 2834 4628 3163 4506 
z
" transform="scale(0.015625)"/>
       </defs>
       <use xlink:href="#DejaVuSansMono-39"/>
       <use xlink:href="#DejaVuSansMono-30" x="60.205078"/>
       <use xlink:href="#DejaVuSansMono-b0" x="120.410156"/>
       <use xlink:href="#DejaVuSansMono-53" x="180.615234"/>
      </g>
     </g>
    </g>
    <g id="ytick_2">
     <g id="line2d_18">
      <g>
       <use xlink:href="#m3533aa2970" x="144" y="605.8974" style="stroke: #000000; stroke-width: 0.8"/>
      </g>
     </g>
     <g id="text_19">
      <!-- 75°S -->
      <g transform="translate(103.28625 611.253494)scale(0.14 -0.14)">
       <use xlink:href="#DejaVuSansMono-37"/>
       <use xlink:href="#DejaVuSansMono-35" x="60.205078"/>
       <use xlink:href="#DejaVuSansMono-b0" x="120.410156"/>
       <use xlink:href="#DejaVuSansMono-53" x="180.615234"/>
      </g>
     </g>
    </g>
    <g id="ytick_3">
     <g id="line2d_19">
      <g>
       <use xlink:href="#m3533aa2970" x="144" y="558.8196" style="stroke: #000000; stroke-width: 0.8"/>
      </g>
     </g>
     <g id="text_20">
      <!-- 60°S -->
      <g transform="translate(103.28625 564.175694)scale(0.14 -0.14)">
       <use xlink:href="#DejaVuSansMono-36"/>
       <use xlink:href="#DejaVuSansMono-30" x="60.205078"/>
       <use xlink:href="#DejaVuSansMono-b0" x="120.410156"/>
       <use xlink:href="#DejaVuSansMono-53" x="180.615234"/>
      </g>
     </g>
    </g>
    <g id="ytick_4">
     <g id="line2d_20">
      <g>
       <use xlink:href="#m3533aa2970" x="144" y="511.7418" style="stroke: #000000; stroke-width: 0.8"/>
      </g>
     </g>
     <g id="text_21">
      <!-- 45°S -->
      <g transform="translate(103.28625 517.097894)scale(0.14 -0.14)">
       <use xlink:href="#DejaVuSansMono-34"/>
       <use xlink:href="#DejaVuSansMono-35" x="60.205078"/>
       <use xlink:href="#DejaVuSansMono-b0" x="120.410156"/>
       <use xlink:href="#DejaVuSansMono-53" x="180.615234"/>
      </g>
     </g>
    </g>
    <g id="ytick_5">
     <g id="line2d_21">
      <g>
       <use xlink:href="#m3533aa2970" x="144" y="464.664" style="stroke: #000000; stroke-width: 0.8"/>
      </g>
     </g>
     <g id="text_22">
      <!-- 30°S -->
      <g transform="translate(103.28625 470.020094)scale(0.14 -0.14)">
       <use xlink:href="#DejaVuSansMono-33"/>
       <use xlink:href="#DejaVuSansMono-30" x="60.205078"/>
       <use xlink:href="#DejaVuSansMono-b0" x="120.410156"/>
       <use xlink:href="#DejaVuSansMono-53" x="180.615234"/>
      </g>
     </g>
    </g>
    <g id="ytick_6">
     <g id="line2d_22">
      <g>
       <use xlink:href="#m3533aa2970" x="144" y="417.5862" style="stroke: #000000; stroke-width: 0.8"/>
      </g>
     </g>
     <g id="text_23">
      <!-- 15°S -->
      <g transform="translate(103.28625 422.942294)scale(0.14 -0.14)">
       <use xlink:href="#DejaVuSansMono-31"/>
       <use xlink:href="#DejaVuSansMono-35" x="60.205078"/>
       <use xlink:href="#DejaVuSansMono-b0" x="120.410156"/>
       <use xlink:href="#DejaVuSansMono-53" x="180.615234"/>
      </g>
     </g>
    </g>
    <g id="ytick_7">
     <g id="line2d_23">
      <g>
       <use xlink:href="#m3533aa2970" x="144" y="370.5084" style="stroke: #000000; stroke-width: 0.8"/>
      </g>
     </g>
     <g id="text_24">
      <!-- 0° -->
      <g transform="translate(120.143125 375.864494)scale(0.14 -0.14)">
       <use xlink:href="#DejaVuSansMono-30"/>
       <use xlink:href="#DejaVuSansMono-b0" x="60.205078"/>
      </g>
     </g>
    </g>
    <g id="ytick_8">
     <g id="line2d_24">
      <g>
       <use xlink:href="#m3533aa2970" x="144" y="323.4306" style="stroke: #000000; stroke-width: 0.8"/>
      </g>
     </g>
     <g id="text_25">
      <!-- 15°N -->
      <g transform="translate(103.28625 328.786694)scale(0.14 -0.14)">
       <defs>
        <path id="DejaVuSansMono-4e" d="M 434 4666 
L 1234 4666 
L 2809 825 
L 2809 4666 
L 3419 4666 
L 3419 0 
L 2619 0 
L 1044 3841 
L 1044 0 
L 434 0 
L 434 4666 
z
" transform="scale(0.015625)"/>
       </defs>
       <use xlink:href="#DejaVuSansMono-31"/>
       <use xlink:href="#DejaVuSansMono-35" x="60.205078"/>
       <use xlink:href="#DejaVuSansMono-b0" x="120.410156"/>
       <use xlink:href="#DejaVuSansMono-4e" x="180.615234"/>
      </g>
     </g>
    </g>
    <g id="ytick_9">
     <g id="line2d_25">
      <g>
       <use xlink:href="#m3533aa2970" x="144" y="276.3528" style="stroke: #000000; stroke-width: 0.8"/>
      </g>
     </g>
     <g id="text_26">
      <!-- 30°N -->
      <g transform="translate(103.28625 281.708894)scale(0.14 -0.14)">
       <use xlink:href="#DejaVuSansMono-33"/>
       <use xlink:href="#DejaVuSansMono-30" x="60.205078"/>
       <use xlink:href="#DejaVuSansMono-b0" x="120.410156"/>
       <use xlink:href="#DejaVuSansMono-4e" x="180.615234"/>
      </g>
     </g>
    </g>
    <g id="ytick_10">
     <g id="line2d_26">
      <g>
       <use xlink:href="#m3533aa2970" x="144" y="229.275" style="stroke: #000000; stroke-width: 0.8"/>
      </g>
     </g>
     <g id="text_27">
      <!-- 45°N -->
      <g transform="translate(103.28625 234.631094)scale(0.14 -0.14)">
       <use xlink:href="#DejaVuSansMono-34"/>
       <use xlink:href="#DejaVuSansMono-35" x="60.205078"/>
       <use xlink:href="#DejaVuSansMono-b0" x="120.410156"/>
       <use xlink:href="#DejaVuSansMono-4e" x="180.615234"/>
      </g>
     </g>
    </g>
    <g id="ytick_11">
     <g id="line2d_27">
      <g>
       <use xlink:href="#m3533aa2970" x="144" y="182.1972" style="stroke: #000000; stroke-width: 0.8"/>
      </g>
     </g>
     <g id="text_28">
      <!-- 60°N -->
      <g transform="translate(103.28625 187.553294)scale(0.14 -0.14)">
       <use xlink:href="#DejaVuSansMono-36"/>
       <use xlink:href="#DejaVuSansMono-30" x="60.205078"/>
       <use xlink:href="#DejaVuSansMono-b0" x="120.410156"/>
       <use xlink:href="#DejaVuSansMono-4e" x="180.615234"/>
      </g>
     </g>
    </g>
    <g id="ytick_12">
     <g id="line2d_28">
      <g>
       <use xlink:href="#m3533aa2970" x="144" y="135.1194" style="stroke: #000000; stroke-width: 0.8"/>
      </g>
     </g>
     <g id="text_29">
      <!-- 75°N -->
      <g transform="translate(103.28625 140.475494)scale(0.14 -0.14)">
       <use xlink:href="#DejaVuSansMono-37"/>
       <use xlink:href="#DejaVuSansMono-35" x="60.205078"/>
       <use xlink:href="#DejaVuSansMono-b0" x="120.410156"/>
       <use xlink:href="#DejaVuSansMono-4e" x="180.615234"/>
      </g>
     </g>
    </g>
    <g id="ytick_13">
     <g id="line2d_29">
      <g>
       <use xlink:href="#m3533aa2970" x="144" y="88.0416" style="stroke: #000000; stroke-width: 0.8"/>
      </g>
     </g>
     <g id="text_30">
      <!-- 90°N -->
      <g transform="translate(103.28625 93.397694)scale(0.14 -0.14)">
       <use xlink:href="#DejaVuSansMono-39"/>
       <use xlink:href="#DejaVuSansMono-30" x="60.205078"/>
       <use xlink:href="#DejaVuSansMono-b0" x="120.410156"/>
       <use xlink:href="#DejaVuSansMono-4e" x="180.615234"/>
      </g>
     </g>
    </g>
    <g id="text_31">
     <!-- Latitude -->
     <g transform="translate(96.166719 406.630275)rotate(-90)scale(0.15 -0.15)">
      <defs>
       <path id="DejaVuSansMono-4c" d="M 672 4666 
L 1306 4666 
L 1306 531 
L 3559 531 
L 3559 0 
L 672 0 
L 672 4666 
z
" transform="scale(0.015625)"/>
       <path id="DejaVuSansMono-61" d="M 2194 1759 
L 2003 1759 
Q 1500 1759 1245 1582 
Q 991 1406 991 1056 
Q 991 741 1181 566 
Q 1372 391 1709 391 
Q 2184 391 2456 720 
Q 2728 1050 2731 1631 
L 2731 1759 
L 2194 1759 
z
M 3309 1997 
L 3309 0 
L 2731 0 
L 2731 519 
Q 2547 206 2267 57 
Q 1988 -91 1588 -91 
Q 1053 -91 734 211 
Q 416 513 416 1019 
Q 416 1603 808 1906 
Q 1200 2209 1959 2209 
L 2731 2209 
L 2731 2300 
Q 2728 2719 2518 2908 
Q 2309 3097 1850 3097 
Q 1556 3097 1256 3012 
Q 956 2928 672 2766 
L 672 3341 
Q 991 3463 1283 3523 
Q 1575 3584 1850 3584 
Q 2284 3584 2592 3456 
Q 2900 3328 3091 3072 
Q 3209 2916 3259 2686 
Q 3309 2456 3309 1997 
z
" transform="scale(0.015625)"/>
       <path id="DejaVuSansMono-74" d="M 1919 4494 
L 1919 3500 
L 3225 3500 
L 3225 3053 
L 1919 3053 
L 1919 1153 
Q 1919 766 2066 612 
Q 2213 459 2578 459 
L 3225 459 
L 3225 0 
L 2522 0 
Q 1875 0 1609 259 
Q 1344 519 1344 1153 
L 1344 3053 
L 409 3053 
L 409 3500 
L 1344 3500 
L 1344 4494 
L 1919 4494 
z
" transform="scale(0.015625)"/>
       <path id="DejaVuSansMono-69" d="M 800 3500 
L 2272 3500 
L 2272 447 
L 3413 447 
L 3413 0 
L 556 0 
L 556 447 
L 1697 447 
L 1697 3053 
L 800 3053 
L 800 3500 
z
M 1697 4863 
L 2272 4863 
L 2272 4134 
L 1697 4134 
L 1697 4863 
z
" transform="scale(0.015625)"/>
       <path id="DejaVuSansMono-75" d="M 609 1325 
L 609 3494 
L 1184 3494 
L 1184 1325 
Q 1184 853 1351 631 
Q 1519 409 1869 409 
Q 2275 409 2490 695 
Q 2706 981 2706 1516 
L 2706 3494 
L 3284 3494 
L 3284 0 
L 2706 0 
L 2706 525 
Q 2553 222 2289 65 
Q 2025 -91 1672 -91 
Q 1134 -91 871 261 
Q 609 613 609 1325 
z
" transform="scale(0.015625)"/>
       <path id="DejaVuSansMono-64" d="M 2681 3053 
L 2681 4863 
L 3256 4863 
L 3256 0 
L 2681 0 
L 2681 441 
Q 2538 181 2298 45 
Q 2059 -91 1747 -91 
Q 1113 -91 748 401 
Q 384 894 384 1759 
Q 384 2613 750 3098 
Q 1116 3584 1747 3584 
Q 2063 3584 2303 3448 
Q 2544 3313 2681 3053 
z
M 991 1747 
Q 991 1078 1203 737 
Q 1416 397 1831 397 
Q 2247 397 2464 740 
Q 2681 1084 2681 1747 
Q 2681 2413 2464 2755 
Q 2247 3097 1831 3097 
Q 1416 3097 1203 2756 
Q 991 2416 991 1747 
z
" transform="scale(0.015625)"/>
       <path id="DejaVuSansMono-65" d="M 3475 1894 
L 3475 1613 
L 984 1613 
L 984 1594 
Q 984 1022 1282 709 
Q 1581 397 2125 397 
Q 2400 397 2700 484 
Q 3000 572 3341 750 
L 3341 178 
Q 3013 44 2708 -23 
Q 2403 -91 2119 -91 
Q 1303 -91 843 398 
Q 384 888 384 1747 
Q 384 2584 834 3084 
Q 1284 3584 2034 3584 
Q 2703 3584 3089 3131 
Q 3475 2678 3475 1894 
z
M 2900 2063 
Q 2888 2569 2661 2833 
Q 2434 3097 2009 3097 
Q 1594 3097 1325 2822 
Q 1056 2547 1006 2059 
L 2900 2063 
z
" transform="scale(0.015625)"/>
      </defs>
      <use xlink:href="#DejaVuSansMono-4c"/>
      <use xlink:href="#DejaVuSansMono-61" x="60.205078"/>
      <use xlink:href="#DejaVuSansMono-74" x="120.410156"/>
      <use xlink:href="#DejaVuSansMono-69" x="180.615234"/>
      <use xlink:href="#DejaVuSansMono-74" x="240.820312"/>
      <use xlink:href="#DejaVuSansMono-75" x="301.025391"/>
      <use xlink:href="#DejaVuSansMono-64" x="361.230469"/>
      <use xlink:href="#DejaVuSansMono-65" x="421.435547"/>
     </g>
    </g>
   </g>
   <g id="line2d_30">
    <path d="M 426.279642 113.14976 
L 426.279642 117.85754 
L 426.42319 119.4268 
L 426.42319 120.99606 
L 426.602613 122.56532 
L 426.602613 125.70384 
L 428.337046 127.2731 
L 428.337046 128.84236 
L 446.369002 130.41162 
L 446.674013 131.98088 
L 448.575918 135.1194 
L 449.461061 136.68866 
L 451.464629 138.25792 
L 452.295937 139.82718 
L 451.566292 141.39644 
L 452.852144 144.53496 
L 453.097355 146.10422 
L 456.673848 149.24274 
L 457.074557 150.812 
L 458.366419 152.38126 
L 459.024267 153.95052 
L 459.945331 155.51978 
L 460.298191 157.08904 
L 461.721604 158.6583 
L 461.978788 160.22756 
L 463.067279 161.79682 
L 463.605549 163.36608 
L 464.93925 164.93534 
L 465.052887 166.5046 
L 466.488273 168.07386 
L 467.409315 169.64312 
L 468.162862 171.21238 
L 469.819534 172.78164 
L 470.818336 174.3509 
L 470.327915 175.92016 
L 471.230996 177.48942 
L 471.565918 179.05868 
L 472.923544 180.62794 
L 473.276427 182.1972 
L 475.285959 183.76646 
L 476.18904 185.33572 
L 478.384005 188.47424 
L 480.010744 190.0435 
L 480.973648 191.61276 
L 483.048989 193.18202 
L 483.593224 194.75128 
L 486.10515 196.32054 
L 487.175704 197.8898 
L 489.346699 199.45906 
L 490.728272 202.59758 
L 492.055987 204.16684 
L 492.582306 205.7361 
L 494.125342 207.30536 
L 494.298757 208.87462 
L 496.535562 210.44388 
L 497.594164 212.01314 
L 499.131213 213.5824 
L 499.448198 215.15166 
L 501.732852 216.72092 
L 505.889477 221.4287 
L 507.671737 222.99796 
L 508.521027 224.56722 
L 510.769783 226.13648 
L 512.294882 227.70574 
L 514.184791 229.275 
L 515.404879 230.84426 
L 517.121329 232.41352 
L 518.132104 233.98278 
L 520.966958 235.55204 
L 522.330593 237.1213 
L 524.651123 238.69056 
L 525.045845 240.25982 
L 528.831651 241.82908 
L 529.399854 243.39834 
L 531.044509 244.9676 
L 531.851958 246.53686 
L 533.269385 248.10612 
L 533.969118 249.67538 
L 535.494216 251.24464 
L 537.258516 252.8139 
L 537.581487 254.38316 
L 539.75847 255.95242 
L 540.374478 257.52168 
L 542.461793 259.09094 
L 544.244053 260.6602 
L 546.923429 263.79872 
L 548.86121 265.36798 
L 551.696064 270.07576 
L 553.101561 271.64502 
L 553.460408 273.21428 
L 555.685239 276.3528 
L 557.186435 277.92206 
L 558.789272 281.06058 
L 559.118229 282.62984 
L 560.505723 285.76836 
L 560.685146 287.33762 
L 561.606165 290.47614 
L 562.461463 292.0454 
L 562.754457 293.61466 
L 564.482925 296.75318 
L 565.571438 298.32244 
L 567.616847 299.8917 
L 567.96372 301.46096 
L 570.362032 304.59948 
L 570.816577 306.16874 
L 572.485179 307.738 
L 573.723227 310.87652 
L 574.452849 315.5843 
L 575.033026 317.15356 
L 575.427748 318.72282 
L 576.025796 320.29208 
L 579.7877 321.86134 
L 580.224285 323.4306 
L 581.324727 324.99986 
L 581.940735 326.56912 
L 582.311555 328.13838 
L 583.196743 329.70764 
L 583.346233 331.2769 
L 584.123704 332.84616 
L 587.072216 334.41542 
L 587.57461 335.98468 
L 587.604499 337.55394 
L 588.286361 339.1232 
L 588.328224 340.69246 
L 588.591328 342.26172 
L 589.368844 343.83098 
L 589.781482 345.40024 
L 590.517135 346.9695 
L 591.486048 348.53876 
L 591.832921 350.10802 
L 593.621168 351.67728 
L 594.865202 354.8158 
L 596.527817 357.95432 
L 597.526574 359.52358 
L 597.975177 361.09284 
L 598.776595 362.6621 
L 599.374643 364.23136 
L 601.497834 367.36988 
L 602.197567 368.93914 
L 603.14852 370.5084 
L 604.715436 372.07766 
L 606.102974 375.21618 
L 606.629315 378.3547 
L 606.928383 379.92396 
L 607.394857 381.49322 
L 607.705855 383.06248 
L 608.154413 384.63174 
L 608.405588 386.201 
L 608.991707 387.77026 
L 609.18306 389.33952 
L 609.781152 390.90878 
L 610.361285 394.0473 
L 610.96532 395.61656 
L 611.832592 398.75508 
L 612.095695 401.8936 
L 612.257203 403.46286 
L 612.807446 405.03212 
L 613.202169 406.60138 
L 613.770328 411.30916 
L 613.919862 412.87842 
L 613.86004 414.44768 
L 613.871969 417.5862 
L 614.553831 419.15546 
L 614.984429 420.72472 
L 615.546601 422.29398 
L 616.222432 425.4325 
L 616.958041 427.00176 
L 617.209305 428.57102 
L 619.278615 431.70954 
L 620.337195 433.2788 
L 621.581185 434.84806 
L 623.524953 436.41732 
L 624.834752 439.55584 
L 626.12056 441.1251 
L 626.772489 442.69436 
L 628.225791 444.26362 
L 630.097807 447.40214 
L 632.065477 450.54066 
L 632.388448 452.10992 
L 633.315409 453.67918 
L 634.571417 455.24844 
L 634.954166 456.8177 
L 636.467291 458.38696 
L 636.915849 459.95622 
L 638.010349 461.52548 
L 638.488797 463.09474 
L 639.978019 464.664 
L 640.922985 467.80252 
L 641.993494 469.37178 
L 642.095223 470.94104 
L 643.835621 472.5103 
L 644.331984 474.07956 
L 645.187194 475.64882 
L 645.354688 477.21808 
L 646.33553 478.78734 
L 646.921649 480.3566 
L 646.861826 481.92586 
L 648.578321 485.06438 
L 649.110605 486.63364 
L 650.378541 488.2029 
L 651.975391 489.77216 
L 652.956233 491.34142 
L 654.720577 492.91068 
L 657.053081 494.47994 
L 658.219332 496.0492 
L 660.93454 497.61846 
L 662.429749 499.18772 
L 664.552896 500.75698 
L 665.898571 502.32624 
L 669.708368 503.8955 
L 670.043223 505.46476 
L 673.434351 507.03402 
L 674.989338 508.60328 
L 676.801487 510.17254 
L 678.398337 511.7418 
L 681.00002 513.31106 
L 681.68778 514.88032 
L 683.272656 516.44958 
L 685.138686 518.01884 
L 685.222366 519.5881 
L 687.453229 521.15736 
L 688.344315 522.72662 
L 689.426886 524.29588 
L 690.288082 525.86514 
L 691.657704 527.4344 
L 692.429233 529.00366 
L 693.84666 530.57292 
L 694.253356 532.14218 
L 695.515261 533.71144 
L 695.987766 535.2807 
L 697.728164 536.84996 
L 698.32027 538.41922 
L 701.38244 541.55774 
L 703.541462 543.127 
L 704.211306 544.69626 
L 706.232812 546.26552 
L 707.470815 547.83478 
L 708.553298 549.40404 
L 709.031789 550.9733 
L 710.526999 552.54256 
L 710.652542 554.11182 
L 712.06407 555.68108 
L 712.506598 557.25034 
L 713.666907 558.8196 
L 714.067572 560.38886 
L 715.514932 561.95812 
L 715.730231 563.52738 
L 717.500517 565.09664 
L 717.799586 566.6659 
L 719.438298 568.23516 
L 719.539983 569.80442 
L 720.209783 571.37368 
L 720.562687 572.94294 
L 720.64047 574.5122 
L 721.226545 576.08146 
L 720.945436 577.65072 
L 722.338961 579.21998 
L 723.134392 580.78924 
L 725.562594 582.3585 
L 725.95133 583.92776 
L 728.235984 585.49702 
L 730.819662 590.2048 
L 732.2072 591.77406 
L 732.74547 593.34332 
L 733.899792 594.91258 
L 735.382984 596.48184 
L 736.286087 598.0511 
L 737.74542 599.62036 
L 741.519253 601.18962 
L 742.529984 602.75888 
L 744.898363 604.32814 
L 745.759604 605.8974 
L 747.242839 607.46666 
L 746.812197 609.03592 
L 746.692596 610.60518 
L 746.387585 612.17444 
L 745.173484 613.7437 
L 743.295526 615.31296 
L 742.673531 616.88222 
L 740.622092 618.45148 
L 740.472646 620.02074 
L 739.073091 621.59 
L 736.710699 623.15926 
L 733.564848 624.72852 
L 733.182055 626.29778 
L 732.966755 627.86704 
L 732.428485 629.4363 
L 730.640239 631.00556 
L 729.426182 632.57482 
L 727.954875 634.14408 
L 725.76592 635.71334 
L 726.053015 637.2826 
L 725.287517 638.85186 
L 725.568581 640.42112 
L 725.544678 641.99038 
L 722.326987 643.55964 
L 718.355772 645.1289 
L 710.927708 646.69816 
L 715.688368 648.26742 
L 721.082997 649.83668 
L 723.864059 651.40594 
L 723.864059 652.9752 
L 723.864059 652.9752 
" clip-path="url(#p452b4047e6)" style="fill: none; stroke: #f0f921; stroke-width: 1.5; stroke-linecap: square"/>
   </g>
   <g id="line2d_31">
    <path d="M 284.821917 88.0416 
L 284.821917 91.18012 
L 291.822897 92.74938 
L 292.870989 94.31864 
L 292.789104 95.8879 
L 293.288594 97.45716 
L 293.165756 99.02642 
L 293.272208 102.16494 
L 291.675502 103.7342 
L 292.870989 105.30346 
L 290.471823 106.87272 
L 289.988708 108.44198 
L 290.078785 110.01124 
L 288.38382 111.5805 
L 289.841324 113.14976 
L 291.544482 114.71902 
L 292.592586 116.28828 
L 295.483048 117.85754 
L 297.685685 119.4268 
L 300.780859 120.99606 
L 302.958939 122.56532 
L 306.692794 124.13458 
L 310.017236 125.70384 
L 311.949662 127.2731 
L 314.11955 128.84236 
L 314.602664 130.41162 
L 318.475721 131.98088 
L 323.274042 135.1194 
L 332.035497 136.68866 
L 336.277023 138.25792 
L 337.1368 139.82718 
L 340.837883 141.39644 
L 343.253424 142.9657 
L 348.117255 144.53496 
L 349.926855 146.10422 
L 352.637185 147.67348 
L 357.468266 149.24274 
L 360.342344 150.812 
L 362.610501 152.38126 
L 365.197993 153.95052 
L 372.141667 157.08904 
L 374.057696 158.6583 
L 380.166161 160.22756 
L 383.662565 161.79682 
L 388.853913 163.36608 
L 390.933756 164.93534 
L 398.442396 168.07386 
L 404.78831 169.64312 
L 408.505779 171.21238 
L 417.316347 174.3509 
L 424.251839 177.48942 
L 428.968265 179.05868 
L 432.964159 180.62794 
L 439.735838 182.1972 
L 442.896522 183.76646 
L 449.02135 185.33572 
L 452.149263 186.90498 
L 454.474737 188.47424 
L 459.150232 190.0435 
L 462.1881 191.61276 
L 467.313949 193.18202 
L 470.048824 194.75128 
L 477.434671 197.8898 
L 479.932074 199.45906 
L 486.998542 201.02832 
L 488.022089 202.59758 
L 491.010822 204.16684 
L 494.744677 205.7361 
L 497.487734 207.30536 
L 502.065002 208.87462 
L 504.636108 210.44388 
L 508.026039 212.01314 
L 509.933908 213.5824 
L 512.55415 215.15166 
L 515.96867 216.72092 
L 518.490641 218.29018 
L 522.412854 219.85944 
L 525.794625 221.4287 
L 531.624641 224.56722 
L 534.302244 226.13648 
L 538.175278 227.70574 
L 540.680908 229.275 
L 542.572347 230.84426 
L 544.946935 232.41352 
L 547.051323 233.98278 
L 549.614247 235.55204 
L 552.439256 237.1213 
L 557.409495 240.25982 
L 559.456588 241.82908 
L 560.799425 243.39834 
L 561.831176 244.9676 
L 563.272327 246.53686 
L 563.960132 248.10612 
L 564.991838 249.67538 
L 566.27738 251.24464 
L 566.916093 252.8139 
L 569.34802 254.38316 
L 571.49334 255.95242 
L 573.695998 259.09094 
L 574.662206 260.6602 
L 576.742026 262.22946 
L 579.010184 263.79872 
L 580.688763 265.36798 
L 583.169825 266.93724 
L 584.258871 268.5065 
L 586.748137 270.07576 
L 588.369377 271.64502 
L 591.620105 276.3528 
L 592.037755 277.92206 
L 593.560769 279.49132 
L 594.191234 281.06058 
L 595.48498 282.62984 
L 596.926087 284.1991 
L 598.072472 285.76836 
L 599.718324 287.33762 
L 601.798144 290.47614 
L 603.296591 293.61466 
L 604.352865 295.18392 
L 605.712154 296.75318 
L 605.859515 298.32244 
L 607.145102 299.8917 
L 607.488959 301.46096 
L 608.578005 304.59948 
L 608.840089 306.16874 
L 609.855387 307.738 
L 610.575963 309.30726 
L 611.673168 310.87652 
L 612.230019 314.01504 
L 612.844121 315.5843 
L 613.228998 317.15356 
L 613.83494 318.72282 
L 614.252501 320.29208 
L 615.407089 323.4306 
L 615.881989 324.99986 
L 617.274005 326.56912 
L 617.847176 328.13838 
L 618.829791 329.70764 
L 619.591298 331.2769 
L 620.172628 332.84616 
L 623.112226 335.98468 
L 623.742735 337.55394 
L 625.028277 339.1232 
L 627.632177 343.83098 
L 629.187919 345.40024 
L 630.309736 346.9695 
L 631.513371 350.10802 
L 631.701708 351.67728 
L 633.003613 353.24654 
L 633.363924 354.8158 
L 634.199178 356.38506 
L 634.551239 357.95432 
L 635.296383 359.52358 
L 636.426315 362.6621 
L 637.384363 364.23136 
L 638.023077 365.80062 
L 638.809107 367.36988 
L 641.879747 372.07766 
L 643.574734 373.64692 
L 644.50817 376.78544 
L 645.310608 378.3547 
L 645.875619 379.92396 
L 648.094597 383.06248 
L 648.618676 384.63174 
L 648.864352 386.201 
L 650.330027 387.77026 
L 652.262486 390.90878 
L 653.875567 392.47804 
L 655.857162 394.0473 
L 656.332061 395.61656 
L 657.060797 397.18582 
L 657.994233 398.75508 
L 658.534676 400.32434 
L 659.525495 401.8936 
L 661.015738 403.46286 
L 661.08944 405.03212 
L 663.455824 406.60138 
L 664.094537 408.17064 
L 664.872408 409.7399 
L 665.31458 411.30916 
L 665.159015 412.87842 
L 668.18868 414.44768 
L 668.60624 417.5862 
L 668.565353 419.15546 
L 669.43329 420.72472 
L 669.826328 422.29398 
L 670.563267 423.86324 
L 670.653289 425.4325 
L 671.447568 427.00176 
L 671.799718 428.57102 
L 672.372889 430.14028 
L 673.46189 431.70954 
L 674.411734 433.2788 
L 675.566322 434.84806 
L 675.877453 436.41732 
L 677.457762 437.98658 
L 678.227517 439.55584 
L 678.849823 441.1251 
L 680.217227 442.69436 
L 680.528402 444.26362 
L 681.756649 445.83288 
L 682.812923 447.40214 
L 683.541658 448.9714 
L 685.031945 450.54066 
L 685.318552 452.10992 
L 685.916246 453.67918 
L 687.046267 455.24844 
L 687.480236 456.8177 
L 688.888616 459.95622 
L 688.99509 461.52548 
L 690.264268 463.09474 
L 691.312383 464.664 
L 692.589676 466.23326 
L 694.513976 467.80252 
L 695.349142 469.37178 
L 695.234508 470.94104 
L 695.750383 472.5103 
L 695.66852 474.07956 
L 695.799518 475.64882 
L 695.627545 477.21808 
L 695.774951 478.78734 
L 696.094285 480.3566 
L 695.733975 481.92586 
L 696.012378 483.49512 
L 696.700227 485.06438 
L 698.902885 486.63364 
L 700.286698 488.2029 
L 701.269313 489.77216 
L 701.67051 491.34142 
L 700.728826 492.91068 
L 701.351131 496.0492 
L 703.250819 497.61846 
L 704.921239 499.18772 
L 705.797424 500.75698 
L 707.705272 502.32624 
L 708.630504 503.8955 
L 711.258971 507.03402 
L 710.775823 508.60328 
L 712.282518 510.17254 
L 713.027661 511.7418 
L 715.418612 513.31106 
L 715.516883 514.88032 
L 717.179099 516.44958 
L 719.471824 518.01884 
L 722.124815 519.5881 
L 725.35102 521.15736 
L 726.087915 522.72662 
L 731.934384 525.86514 
L 735.438948 527.4344 
L 736.126752 529.00366 
L 741.801204 532.14218 
L 745.690646 533.71144 
L 748.892239 535.2807 
L 749.162483 536.84996 
L 752.192147 538.41922 
L 756.138928 539.98848 
L 759.176708 541.55774 
L 760.339501 543.127 
L 762.795951 544.69626 
L 764.638299 546.26552 
L 769.665922 547.83478 
L 771.246275 549.40404 
L 773.407959 550.9733 
L 773.596295 552.54256 
L 774.59523 555.68108 
L 774.300463 557.25034 
L 774.603478 558.8196 
L 775.798954 560.38886 
L 777.952477 561.95812 
L 779.254383 563.52738 
L 778.320947 565.09664 
L 780.187863 566.6659 
L 780.670967 568.23516 
L 782.005644 569.80442 
L 781.293272 571.37368 
L 781.841919 572.94294 
L 781.972873 574.5122 
L 784.453979 577.65072 
L 783.577794 579.21998 
L 785.010741 580.78924 
L 786.206217 582.3585 
L 785.927814 583.92776 
L 785.305508 585.49702 
L 786.288124 593.34332 
L 785.420187 594.91258 
L 785.272781 596.48184 
L 785.91145 598.0511 
L 784.593136 599.62036 
L 784.584932 601.18962 
L 783.585998 602.75888 
L 782.750788 605.8974 
L 781.882806 607.46666 
L 781.211366 610.60518 
L 779.459128 612.17444 
L 780.3762 613.7437 
L 781.064004 615.31296 
L 778.083475 616.88222 
L 776.961658 618.45148 
L 777.985249 620.02074 
L 773.841971 621.59 
L 775.42228 624.72852 
L 772.883879 626.29778 
L 774.865474 627.86704 
L 773.588091 629.4363 
L 776.183787 631.00556 
L 775.831681 632.57482 
L 782.922717 634.14408 
L 784.060897 635.71334 
L 781.366975 637.2826 
L 780.27793 638.85186 
L 776.716026 640.42112 
L 776.797933 641.99038 
L 777.338332 643.55964 
L 776.339353 645.1289 
L 776.175628 646.69816 
L 780.883872 648.26742 
L 780.883872 649.83668 
L 772.13062 651.40594 
L 768.576877 652.9752 
L 768.576877 652.9752 
" clip-path="url(#p452b4047e6)" style="fill: none; stroke: #f0f921; stroke-width: 1.5; stroke-linecap: square"/>
   </g>
   <g id="line2d_32">
    <path d="M 367.719254 88.0416 
L 367.719254 89.61086 
L 361.114649 91.18012 
L 356.742591 92.74938 
L 351.417053 94.31864 
L 351.417053 95.8879 
L 353.486807 97.45716 
L 363.463471 99.02642 
L 369.30065 100.59568 
L 376.602905 102.16494 
L 377.091285 103.7342 
L 381.74239 105.30346 
L 386.905156 106.87272 
L 389.858613 108.44198 
L 392.533045 110.01124 
L 393.881846 111.5805 
L 395.974859 113.14976 
L 397.742286 114.71902 
L 406.32363 117.85754 
L 407.532897 119.4268 
L 430.346689 120.99606 
L 442.951245 122.56532 
L 457.48602 124.13458 
L 466.416211 125.70384 
L 468.137119 127.2731 
L 473.718466 128.84236 
L 480.020744 131.98088 
L 482.323048 133.55014 
L 484.88116 135.1194 
L 488.276501 136.68866 
L 495.253191 138.25792 
L 501.601987 139.82718 
L 507.0438 141.39644 
L 509.997256 142.9657 
L 515.276298 144.53496 
L 528.1599 147.67348 
L 532.904064 149.24274 
L 534.834261 150.812 
L 539.741219 152.38126 
L 547.299305 153.95052 
L 553.392292 155.51978 
L 554.857391 157.08904 
L 561.322484 158.6583 
L 566.252679 160.22756 
L 579.252578 163.36608 
L 581.275814 164.93534 
L 589.01993 166.5046 
L 595.717574 168.07386 
L 598.833801 169.64312 
L 604.717476 171.21238 
L 606.647674 172.78164 
L 611.322082 174.3509 
L 619.32203 177.48942 
L 623.112714 179.05868 
L 624.345263 180.62794 
L 633.880065 183.76646 
L 637.810261 185.33572 
L 642.43815 186.90498 
L 643.531187 188.47424 
L 648.531093 190.0435 
L 651.949671 191.61276 
L 661.46128 194.75128 
L 662.437998 196.32054 
L 666.112362 197.8898 
L 668.530985 199.45906 
L 669.693734 201.02832 
L 671.298388 202.59758 
L 671.08912 204.16684 
L 671.298388 205.7361 
L 670.205396 207.30536 
L 670.391427 208.87462 
L 669.158834 210.44388 
L 668.949566 212.01314 
L 669.29839 213.5824 
L 670.06584 215.15166 
L 671.01932 216.72092 
L 672.763487 218.29018 
L 674.019273 219.85944 
L 674.437898 221.4287 
L 676.298339 222.99796 
L 679.368093 226.13648 
L 682.065784 229.275 
L 683.670394 230.84426 
L 684.972699 232.41352 
L 685.321524 233.98278 
L 685.902942 235.55204 
L 686.740103 237.1213 
L 687.042453 238.69056 
L 686.181966 240.25982 
L 686.530835 241.82908 
L 685.856423 243.39834 
L 685.46108 244.9676 
L 685.507599 246.53686 
L 686.41456 248.10612 
L 687.019216 249.67538 
L 688.693627 251.24464 
L 690.577306 252.8139 
L 691.414511 255.95242 
L 691.414511 257.52168 
L 691.949411 259.09094 
L 692.740098 260.6602 
L 693.228478 262.22946 
L 693.507503 263.79872 
L 693.623822 266.93724 
L 694.251715 268.5065 
L 694.600539 270.07576 
L 695.74005 271.64502 
L 696.321469 273.21428 
L 697.298186 274.78354 
L 698.088873 276.3528 
L 698.158673 277.92206 
L 698.64701 279.49132 
L 698.344704 281.06058 
L 698.902841 282.62984 
L 699.90284 284.1991 
L 700.55397 285.76836 
L 701.414457 287.33762 
L 702.088869 288.90688 
L 703.553923 290.47614 
L 704.623723 292.0454 
L 706.088821 293.61466 
L 706.391127 295.18392 
L 707.39117 296.75318 
L 707.739995 298.32244 
L 707.716713 299.8917 
L 708.298087 301.46096 
L 709.22833 303.03022 
L 710.019061 304.59948 
L 710.019061 306.16874 
L 711.019016 307.738 
L 712.530633 309.30726 
L 712.367839 310.87652 
L 711.693428 312.44578 
L 712.344602 314.01504 
L 714.181807 315.5843 
L 714.484112 320.29208 
L 713.995776 321.86134 
L 713.902694 323.4306 
L 713.97245 324.99986 
L 713.553869 326.56912 
L 716.739897 329.70764 
L 717.01901 331.2769 
L 717.693377 332.84616 
L 717.577147 334.41542 
L 718.111958 335.98468 
L 718.274752 337.55394 
L 717.507347 339.1232 
L 715.925973 340.69246 
L 714.460831 343.83098 
L 712.995732 345.40024 
L 711.088772 346.9695 
L 709.53068 348.53876 
L 708.972499 350.10802 
L 708.670193 351.67728 
L 707.553964 353.24654 
L 707.530638 354.8158 
L 707.925981 356.38506 
L 708.065537 357.95432 
L 708.530681 359.52358 
L 710.437642 361.09284 
L 710.856222 362.6621 
L 710.809748 364.23136 
L 712.065489 367.36988 
L 712.460833 368.93914 
L 713.065533 370.5084 
L 712.902739 372.07766 
L 712.902739 373.64692 
L 713.042295 375.21618 
L 711.228328 378.3547 
L 711.298084 379.92396 
L 710.367841 381.49322 
L 710.251611 383.06248 
L 710.367841 384.63174 
L 711.205091 386.201 
L 711.321321 387.77026 
L 713.251564 390.90878 
L 713.62367 392.47804 
L 713.112007 394.0473 
L 713.298082 395.61656 
L 711.90274 397.18582 
L 713.112007 398.75508 
L 716.832935 400.32434 
L 721.832886 401.8936 
L 721.693329 403.46286 
L 724.042196 405.03212 
L 725.414257 406.60138 
L 724.088671 408.17064 
L 721.181756 409.7399 
L 720.670093 411.30916 
L 716.367791 412.87842 
L 712.925976 414.44768 
L 710.809748 416.01694 
L 709.902742 419.15546 
L 709.949261 420.72472 
L 710.716666 425.4325 
L 712.577152 428.57102 
L 713.274845 430.14028 
L 713.832982 433.2788 
L 714.623624 434.84806 
L 715.902736 436.41732 
L 717.600384 437.98658 
L 717.995728 439.55584 
L 719.065438 441.1251 
L 718.391071 442.69436 
L 718.972445 444.26362 
L 718.949208 445.83288 
L 721.739892 447.40214 
L 721.902642 448.9714 
L 727.693324 450.54066 
L 734.437441 452.10992 
L 739.949055 453.67918 
L 742.274596 455.24844 
L 741.90249 456.8177 
L 739.739742 458.38696 
L 737.088614 459.95622 
L 735.786265 461.52548 
L 735.181653 463.09474 
L 735.321121 464.664 
L 734.669991 466.23326 
L 733.437487 467.80252 
L 731.274695 469.37178 
L 730.390971 470.94104 
L 730.716558 472.5103 
L 729.832789 474.07956 
L 728.623522 477.21808 
L 728.995628 478.78734 
L 729.67004 480.3566 
L 730.925826 481.92586 
L 732.34445 483.49512 
L 733.181655 485.06438 
L 735.390922 486.63364 
L 736.390921 488.2029 
L 738.274644 489.77216 
L 739.321162 491.34142 
L 745.042043 494.47994 
L 748.669889 497.61846 
L 748.995476 499.18772 
L 748.576896 500.75698 
L 751.158224 502.32624 
L 749.344345 503.8955 
L 749.321064 505.46476 
L 748.786208 507.03402 
L 749.902482 508.60328 
L 752.390817 510.17254 
L 752.576848 511.7418 
L 754.158221 513.31106 
L 754.181458 514.88032 
L 754.623364 516.44958 
L 756.204738 518.01884 
L 758.181454 521.15736 
L 762.041894 525.86514 
L 766.041846 529.00366 
L 769.227874 530.57292 
L 771.995321 532.14218 
L 776.460372 533.71144 
L 779.041789 535.2807 
L 782.576642 536.84996 
L 784.181252 538.41922 
L 788.390516 539.98848 
L 790.157965 541.55774 
L 793.204481 543.127 
L 795.925365 544.69626 
L 798.157913 546.26552 
L 800.692766 547.83478 
L 801.948552 549.40404 
L 803.622963 550.9733 
L 804.622962 552.54256 
L 805.460167 554.11182 
L 806.948547 555.68108 
L 808.692714 557.25034 
L 808.971783 558.8196 
L 810.204331 560.38886 
L 810.506637 561.95812 
L 811.413599 563.52738 
L 812.018254 565.09664 
L 812.204285 566.6659 
L 812.041536 568.23516 
L 812.367079 569.80442 
L 811.576392 571.37368 
L 812.529872 572.94294 
L 813.320559 576.08146 
L 812.739185 577.65072 
L 813.320559 580.78924 
L 813.762465 582.3585 
L 813.785703 583.92776 
L 814.320602 585.49702 
L 814.483352 587.06628 
L 814.483352 588.63554 
L 812.878741 590.2048 
L 813.204329 591.77406 
L 812.204285 593.34332 
L 814.506633 594.91258 
L 813.762465 596.48184 
L 815.06477 598.0511 
L 813.622909 599.62036 
L 813.73914 601.18962 
L 814.018252 602.75888 
L 812.925216 604.32814 
L 813.762465 605.8974 
L 815.436832 607.46666 
L 812.413598 609.03592 
L 813.134528 610.60518 
L 811.785705 612.17444 
L 812.506635 613.7437 
L 816.390357 615.31296 
L 816.01825 616.88222 
L 818.739135 618.45148 
L 810.111294 620.02074 
L 804.460168 621.59 
L 796.855564 623.15926 
L 764.762778 624.72852 
L 763.181405 626.29778 
L 762.274444 627.86704 
L 765.181448 629.4363 
L 763.948854 631.00556 
L 765.809296 632.57482 
L 765.809296 634.14408 
L 751.437336 635.71334 
L 772.832527 637.2826 
L 772.832527 638.85186 
L 772.832527 638.85186 
" clip-path="url(#p452b4047e6)" style="fill: none; stroke: #fdca26; stroke-width: 1.5; stroke-linecap: square"/>
   </g>
   <g id="line2d_33">
    <path d="M 716.759809 92.74938 
L 716.759809 97.45716 
L 682.394209 99.02642 
L 680.558468 100.59568 
L 703.581151 102.16494 
L 702.959157 103.7342 
L 702.596319 105.30346 
L 702.596319 106.87272 
L 727.545519 108.44198 
L 727.631905 110.01124 
L 723.411731 111.5805 
L 723.001399 113.14976 
L 721.239095 114.71902 
L 724.608227 116.28828 
L 724.901974 117.85754 
L 722.457142 119.4268 
L 720.919405 120.99606 
L 720.150537 122.56532 
L 720.41404 124.13458 
L 718.759674 127.2731 
L 718.370938 128.84236 
L 716.306239 131.98088 
L 715.761982 133.55014 
L 714.86358 135.1194 
L 714.332272 136.68866 
L 713.675732 138.25792 
L 712.435999 139.82718 
L 711.420922 141.39644 
L 710.12079 142.9657 
L 709.360569 144.53496 
L 707.641458 146.10422 
L 707.952456 147.67348 
L 707.930815 149.24274 
L 707.645715 150.812 
L 707.874673 152.38126 
L 708.380083 153.95052 
L 710.652054 157.08904 
L 710.064649 158.6583 
L 709.675913 160.22756 
L 708.112234 161.79682 
L 708.129529 163.36608 
L 707.343365 164.93534 
L 707.857422 166.5046 
L 707.805582 168.07386 
L 708.332544 169.64312 
L 709.602432 171.21238 
L 710.397243 172.78164 
L 710.608905 174.3509 
L 711.04518 175.92016 
L 712.45764 179.05868 
L 712.967307 180.62794 
L 713.174623 182.1972 
L 713.524512 183.76646 
L 713.45112 185.33572 
L 714.483447 190.0435 
L 714.686462 191.61276 
L 714.479101 193.18202 
L 714.660564 194.75128 
L 714.466152 196.32054 
L 714.682117 197.8898 
L 714.042871 199.45906 
L 714.008326 201.02832 
L 712.384159 202.59758 
L 709.779549 204.16684 
L 708.112234 205.7361 
L 703.149179 207.30536 
L 702.073658 208.87462 
L 700.432285 210.44388 
L 698.069494 212.01314 
L 695.020007 215.15166 
L 692.514688 218.29018 
L 688.346399 224.56722 
L 687.318373 226.13648 
L 684.363919 232.41352 
L 683.495672 233.98278 
L 679.457006 240.25982 
L 678.619002 241.82908 
L 677.457052 243.39834 
L 676.804813 244.9676 
L 675.802686 246.53686 
L 674.191556 248.10612 
L 673.906457 249.67538 
L 672.247833 251.24464 
L 671.63014 252.8139 
L 670.52003 254.38316 
L 669.733911 255.95242 
L 669.250142 257.52168 
L 668.472626 259.09094 
L 667.142206 260.6602 
L 666.127174 262.22946 
L 665.276221 263.79872 
L 664.217952 265.36798 
L 662.943718 266.93724 
L 661.937244 268.5065 
L 661.172722 270.07576 
L 660.61117 271.64502 
L 659.224653 273.21428 
L 658.654454 274.78354 
L 657.466606 276.3528 
L 656.654589 277.92206 
L 655.298271 279.49132 
L 653.691399 281.06058 
L 652.564038 284.1991 
L 650.564173 285.76836 
L 649.47566 287.33762 
L 648.024309 288.90688 
L 647.475706 290.47614 
L 642.858238 296.75318 
L 642.162807 298.32244 
L 641.091588 299.8917 
L 640.435048 301.46096 
L 637.934074 306.16874 
L 636.906004 307.738 
L 636.0335 309.30726 
L 635.433101 310.87652 
L 633.839178 314.01504 
L 632.163304 318.72282 
L 631.856564 320.29208 
L 630.366365 321.86134 
L 627.843796 324.99986 
L 626.435682 326.56912 
L 625.316925 328.13838 
L 623.982203 329.70764 
L 622.405619 332.84616 
L 620.807395 334.41542 
L 617.706023 335.98468 
L 615.066823 339.1232 
L 613.494586 340.69246 
L 611.550818 342.26172 
L 611.127492 343.83098 
L 609.922394 345.40024 
L 609.06714 346.9695 
L 608.34581 348.53876 
L 606.881465 350.10802 
L 606.54457 351.67728 
L 604.643995 354.8158 
L 604.466922 356.38506 
L 604.15588 357.95432 
L 603.101957 359.52358 
L 601.585861 361.09284 
L 600.501649 362.6621 
L 599.845064 364.23136 
L 597.171364 367.36988 
L 591.780682 368.93914 
L 574.584911 370.5084 
L 574.671297 372.07766 
L 574.040654 373.64692 
L 573.552584 375.21618 
L 572.93489 376.78544 
L 571.077508 379.92396 
L 569.768729 381.49322 
L 568.07117 383.06248 
L 567.138177 384.63174 
L 565.941682 386.201 
L 561.691353 390.90878 
L 561.483992 392.47804 
L 558.594283 394.0473 
L 557.471269 395.61656 
L 555.644086 397.18582 
L 554.892557 398.75508 
L 553.765108 400.32434 
L 553.968168 401.8936 
L 553.566439 403.46286 
L 553.609632 405.03212 
L 553.255441 406.60138 
L 553.531893 408.17064 
L 553.324576 409.7399 
L 553.25114 411.30916 
L 552.922847 412.87842 
L 552.46063 414.44768 
L 549.90356 417.5862 
L 549.570921 419.15546 
L 548.741654 420.72472 
L 548.581787 422.29398 
L 548.10232 423.86324 
L 547.424183 425.4325 
L 547.121833 428.57102 
L 547.32915 430.14028 
L 546.974959 431.70954 
L 547.10884 433.2788 
L 545.653231 437.98658 
L 545.147821 439.55584 
L 544.996646 441.1251 
L 544.603609 442.69436 
L 544.776336 444.26362 
L 544.089596 445.83288 
L 543.42871 448.9714 
L 543.480506 450.54066 
L 543.182502 453.67918 
L 543.122014 456.8177 
L 543.014032 459.95622 
L 543.91678 466.23326 
L 543.95137 467.80252 
L 543.778599 470.94104 
L 541.938512 472.5103 
L 541.29053 478.78734 
L 541.7441 481.92586 
L 541.852126 483.49512 
L 542.327248 485.06438 
L 542.28401 486.63364 
L 542.426538 488.2029 
L 542.40064 489.77216 
L 542.258112 491.34142 
L 542.197625 497.61846 
L 541.761395 500.75698 
L 541.29053 502.32624 
L 541.182548 503.8955 
L 540.910442 505.46476 
L 540.849954 507.03402 
L 541.143701 508.60328 
L 541.346672 511.7418 
L 541.173945 513.31106 
L 540.551906 514.88032 
L 540.530309 516.44958 
L 539.705299 519.5881 
L 539.066053 521.15736 
L 538.755056 522.72662 
L 532.621403 524.29588 
L 531.554531 529.00366 
L 531.485395 530.57292 
L 531.61932 532.14218 
L 532.517767 535.2807 
L 532.785527 536.84996 
L 533.036081 539.98848 
L 532.565261 541.55774 
L 532.539319 543.127 
L 533.018786 544.69626 
L 532.897855 546.26552 
L 532.310406 547.83478 
L 531.623621 550.9733 
L 531.070717 552.54256 
L 530.906593 554.11182 
L 529.930408 557.25034 
L 529.234976 558.8196 
L 528.284689 560.38886 
L 527.520122 561.95812 
L 526.483493 563.52738 
L 524.647664 566.6659 
L 522.487976 569.80442 
L 522.492278 571.37368 
L 522.915559 572.94294 
L 522.695293 574.5122 
L 522.16403 576.08146 
L 521.248288 577.65072 
L 521.002079 579.21998 
L 520.233211 580.78924 
L 519.753744 582.3585 
L 518.708467 583.92776 
L 518.086473 585.49702 
L 517.667493 587.06628 
L 518.185763 588.63554 
L 516.898624 590.2048 
L 516.220443 591.77406 
L 515.412706 593.34332 
L 514.177341 594.91258 
L 513.144992 596.48184 
L 511.702288 598.0511 
L 511.244417 599.62036 
L 510.130006 601.18962 
L 509.65056 602.75888 
L 508.700273 604.32814 
L 508.674331 605.8974 
L 507.534021 607.46666 
L 506.588058 609.03592 
L 506.648523 610.60518 
L 505.490919 612.17444 
L 505.650742 613.7437 
L 506.596683 615.31296 
L 504.652938 618.45148 
L 505.141052 620.02074 
L 505.400187 621.59 
L 504.484468 623.15926 
L 504.480144 624.72852 
L 502.665977 626.29778 
L 502.808527 627.86704 
L 502.627108 629.4363 
L 502.108794 631.00556 
L 501.175757 632.57482 
L 499.352965 634.14408 
L 498.467467 635.71334 
L 498.838952 637.2826 
L 498.182412 638.85186 
L 499.34434 640.42112 
L 498.074407 641.99038 
L 499.460947 643.55964 
L 498.527955 645.1289 
L 494.346717 646.69816 
L 494.739776 648.26742 
L 495.707336 649.83668 
L 497.607911 651.40594 
L 497.50423 652.9752 
L 497.50423 652.9752 
" clip-path="url(#p452b4047e6)" style="fill: none; stroke: #fb9f3a; stroke-width: 1.5; stroke-linecap: square"/>
   </g>
   <g id="line2d_34">
    <path d="M 609.498935 88.0416 
L 628.779981 89.61086 
L 628.779981 91.18012 
L 624.466061 92.74938 
L 624.466061 99.02642 
L 625.098965 100.59568 
L 625.098965 103.7342 
L 625.377457 105.30346 
L 626.617943 106.87272 
L 626.617943 108.44198 
L 626.845792 110.01124 
L 632.471108 111.5805 
L 632.521751 114.71902 
L 634.85084 116.28828 
L 634.926805 117.85754 
L 637.868576 119.4268 
L 638.111591 120.99606 
L 638.663519 122.56532 
L 639.97997 124.13458 
L 640.719216 125.70384 
L 641.073672 127.2731 
L 638.552123 128.84236 
L 637.579973 130.41162 
L 637.134386 131.98088 
L 628.557188 133.55014 
L 628.03568 135.1194 
L 628.916699 136.68866 
L 624.94708 138.25792 
L 625.240738 139.82718 
L 622.152138 141.39644 
L 622.536927 142.9657 
L 622.724244 144.53496 
L 622.228058 146.10422 
L 623.119233 147.67348 
L 623.14961 149.24274 
L 622.992625 150.812 
L 623.635684 152.38126 
L 624.05085 153.95052 
L 626.597677 155.51978 
L 627.05342 157.08904 
L 627.05342 158.6583 
L 628.030581 160.22756 
L 628.531866 161.79682 
L 628.531866 163.36608 
L 629.124282 164.93534 
L 629.174925 166.5046 
L 630.693904 168.07386 
L 630.638206 171.21238 
L 632.111641 172.78164 
L 634.106539 177.48942 
L 634.445829 179.05868 
L 634.511639 180.62794 
L 635.124277 182.1972 
L 635.929331 183.76646 
L 635.868577 185.33572 
L 637.433144 186.90498 
L 636.628045 188.47424 
L 636.628045 190.0435 
L 637.914163 191.61276 
L 637.240727 193.18202 
L 636.780018 194.75128 
L 636.780018 196.32054 
L 635.671105 197.8898 
L 634.805297 199.45906 
L 634.460996 201.02832 
L 633.807826 202.59758 
L 631.76224 204.16684 
L 631.311597 205.7361 
L 629.372353 210.44388 
L 628.147033 212.01314 
L 624.04074 213.5824 
L 621.595154 215.15166 
L 617.488861 216.72092 
L 616.957154 218.29018 
L 615.974894 219.85944 
L 613.154675 221.4287 
L 612.415385 222.99796 
L 611.883767 224.56722 
L 610.045808 226.13648 
L 609.498935 227.70574 
L 609.078714 229.275 
L 606.866033 230.84426 
L 606.440712 232.41352 
L 605.817963 233.98278 
L 603.802754 235.55204 
L 603.367278 237.1213 
L 602.587589 238.69056 
L 599.159699 240.25982 
L 599.159699 241.82908 
L 597.286308 243.39834 
L 597.06857 244.9676 
L 597.06857 246.53686 
L 594.440679 248.10612 
L 594.121744 249.67538 
L 594.121744 251.24464 
L 591.731857 252.8139 
L 590.96729 255.95242 
L 589.772391 257.52168 
L 589.42299 260.6602 
L 588.060996 262.22946 
L 588.060996 263.79872 
L 586.734389 265.36798 
L 586.359667 266.93724 
L 586.359667 268.5065 
L 583.944503 270.07576 
L 582.855901 271.64502 
L 582.855901 273.21428 
L 578.273643 274.78354 
L 577.215418 276.3528 
L 577.215418 277.92206 
L 574.931828 279.49132 
L 573.817949 281.06058 
L 573.817949 282.62984 
L 570.638174 284.1991 
L 570.243274 285.76836 
L 570.243274 287.33762 
L 566.911614 288.90688 
L 566.911614 290.47614 
L 565.817913 292.0454 
L 564.541994 293.61466 
L 564.541994 295.18392 
L 562.445765 296.75318 
L 561.71663 298.32244 
L 561.71663 299.8917 
L 559.200181 301.46096 
L 558.855879 303.03022 
L 558.855879 304.59948 
L 556.060937 306.16874 
L 555.741958 307.738 
L 555.741958 309.30726 
L 553.301472 310.87652 
L 553.02808 312.44578 
L 553.02808 314.01504 
L 550.541963 315.5843 
L 550.197617 317.15356 
L 548.293894 318.72282 
L 547.752076 320.29208 
L 547.397664 321.86134 
L 545.878685 323.4306 
L 545.174872 326.56912 
L 543.35208 328.13838 
L 543.215406 329.70764 
L 542.724232 331.2769 
L 541.655896 332.84616 
L 541.068535 335.98468 
L 539.498913 337.55394 
L 538.95714 339.1232 
L 538.359668 343.83098 
L 538.30907 345.40024 
L 537.114082 353.24654 
L 536.501488 354.8158 
L 536.18752 357.95432 
L 535.519139 359.52358 
L 535.286279 362.6621 
L 534.557144 364.23136 
L 534.471069 365.80062 
L 532.972356 367.36988 
L 533.012844 370.5084 
L 531.397635 372.07766 
L 531.423001 375.21618 
L 530.602691 376.78544 
L 530.6685 379.92396 
L 530.217902 381.49322 
L 530.228013 386.201 
L 530.076128 387.77026 
L 529.357149 389.33952 
L 529.357149 390.90878 
L 529.169788 392.47804 
L 527.883758 394.0473 
L 527.883758 395.61656 
L 527.574845 397.18582 
L 526.096354 398.75508 
L 526.096354 400.32434 
L 525.898926 401.8936 
L 524.506511 403.46286 
L 524.450812 406.60138 
L 523.255869 408.17064 
L 523.255869 409.7399 
L 522.962211 411.30916 
L 522.29383 412.87842 
L 522.29383 414.44768 
L 521.291303 416.01694 
L 521.195117 419.15546 
L 520.521681 420.72472 
L 520.521681 423.86324 
L 520.850816 425.4325 
L 520.931791 427.00176 
L 520.719153 430.14028 
L 520.364741 436.41732 
L 520.273566 437.98658 
L 519.914098 439.55584 
L 519.914098 441.1251 
L 519.068511 442.69436 
L 519.083722 445.83288 
L 518.455873 447.40214 
L 518.55206 450.54066 
L 518.734321 453.67918 
L 518.557159 455.24844 
L 518.638135 459.95622 
L 518.587536 461.52548 
L 518.72931 467.80252 
L 519.063456 469.37178 
L 519.012813 475.64882 
L 519.336893 478.78734 
L 519.326737 485.06438 
L 519.747003 486.63364 
L 519.139421 488.2029 
L 519.174853 489.77216 
L 519.033079 492.91068 
L 519.579908 494.47994 
L 519.77738 496.0492 
L 519.853344 497.61846 
L 519.610329 499.18772 
L 520.147047 500.75698 
L 520.298932 503.8955 
L 521.210283 505.46476 
L 521.210283 507.03402 
L 521.412811 508.60328 
L 522.303985 510.17254 
L 522.688774 514.88032 
L 522.957155 516.44958 
L 523.640658 518.01884 
L 523.706511 519.5881 
L 523.650813 521.15736 
L 524.192586 522.72662 
L 524.607752 525.86514 
L 525.230546 527.4344 
L 525.139459 529.00366 
L 525.31161 530.57292 
L 526.820433 532.14218 
L 527.088814 533.71144 
L 527.088814 535.2807 
L 526.896398 536.84996 
L 527.022961 538.41922 
L 526.076132 539.98848 
L 526.076132 541.55774 
L 527.701452 544.69626 
L 528.536884 549.40404 
L 529.488812 550.9733 
L 529.488812 552.54256 
L 530.065973 554.11182 
L 530.957148 555.68108 
L 530.957148 557.25034 
L 529.630541 560.38886 
L 529.630541 561.95812 
L 528.709034 563.52738 
L 527.944468 565.09664 
L 528.314135 566.6659 
L 528.207793 568.23516 
L 527.179901 569.80442 
L 525.407752 571.37368 
L 524.562209 572.94294 
L 524.602741 574.5122 
L 521.073609 576.08146 
L 520.526781 579.21998 
L 517.620442 580.78924 
L 517.159688 582.3585 
L 517.083724 583.92776 
L 514.541953 585.49702 
L 514.64825 587.06628 
L 517.301418 588.63554 
L 517.17991 590.2048 
L 516.714057 591.77406 
L 517.696406 593.34332 
L 517.230553 594.91258 
L 517.200176 596.48184 
L 519.260928 598.0511 
L 519.478622 599.62036 
L 519.245762 601.18962 
L 521.0078 602.75888 
L 521.017867 605.8974 
L 524.607752 607.46666 
L 524.957153 609.03592 
L 525.473605 610.60518 
L 529.802692 612.17444 
L 531.058434 613.7437 
L 527.185 615.31296 
L 526.541941 616.88222 
L 526.552096 618.45148 
L 523.711567 620.02074 
L 523.129306 621.59 
L 523.387532 623.15926 
L 520.425495 626.29778 
L 521.544474 627.86704 
L 520.17738 629.4363 
L 520.17738 631.00556 
L 521.873609 632.57482 
L 521.828021 635.71334 
L 526.374846 637.2826 
L 526.374846 640.42112 
L 527.377417 641.99038 
L 527.377417 645.1289 
L 529.70145 646.69816 
L 529.70145 649.83668 
L 527.271076 651.40594 
L 527.271076 652.9752 
L 527.271076 652.9752 
" clip-path="url(#p452b4047e6)" style="fill: none; stroke: #ed7953; stroke-width: 1.5; stroke-linecap: square"/>
   </g>
   <g id="line2d_35">
    <path d="M 932.182042 114.71902 
L 932.182042 116.28828 
L 925.766705 117.85754 
L 927.982756 119.4268 
L 927.982756 120.99606 
L 892.495339 122.56532 
L 883.383109 124.13458 
L 908.007963 125.70384 
L 909.412751 127.2731 
L 907.66242 128.84236 
L 908.977009 131.98088 
L 910.539579 133.55014 
L 910.554568 135.1194 
L 913.589421 136.68866 
L 912.590309 138.25792 
L 913.341617 139.82718 
L 912.680509 141.39644 
L 913.296473 142.9657 
L 912.026939 144.53496 
L 908.368495 146.10422 
L 907.324327 147.67348 
L 906.573109 149.24274 
L 906.693286 150.812 
L 905.731779 152.38126 
L 904.432179 153.95052 
L 903.538167 155.51978 
L 904.199275 157.08904 
L 904.101625 158.6583 
L 903.816216 160.22756 
L 903.741005 161.79682 
L 902.606727 163.36608 
L 900.676085 164.93534 
L 899.136043 166.5046 
L 898.843094 168.07386 
L 898.677861 169.64312 
L 898.249658 171.21238 
L 897.67121 172.78164 
L 897.250546 174.3509 
L 897.152896 177.48942 
L 896.213917 180.62794 
L 896.086201 182.1972 
L 895.710591 183.76646 
L 895.207266 185.33572 
L 894.80904 188.47424 
L 895.004428 190.0435 
L 894.230681 191.61276 
L 893.922655 193.18202 
L 893.396802 194.75128 
L 891.586338 196.32054 
L 891.518755 197.8898 
L 889.71583 201.02832 
L 889.370287 202.59758 
L 888.739245 204.16684 
L 889.009755 205.7361 
L 888.085765 207.30536 
L 888.431308 210.44388 
L 887.950466 212.01314 
L 888.123281 213.5824 
L 886.853748 215.15166 
L 886.418006 216.72092 
L 885.381333 218.29018 
L 882.338941 219.85944 
L 881.587722 222.99796 
L 878.695574 224.56722 
L 878.132116 226.13648 
L 876.111364 227.70574 
L 876.096331 229.275 
L 872.798507 230.84426 
L 871.033143 232.41352 
L 869.80117 233.98278 
L 866.908978 235.55204 
L 865.556828 237.1213 
L 864.790576 238.69056 
L 862.972618 240.25982 
L 859.855104 241.82908 
L 858.720782 243.39834 
L 855.971294 246.53686 
L 854.581584 248.10612 
L 851.89223 249.67538 
L 850.104293 251.24464 
L 849.781322 252.8139 
L 847.242167 254.38316 
L 846.423321 255.95242 
L 843.591262 257.52168 
L 842.058802 259.09094 
L 839.700002 260.6602 
L 838.362841 262.22946 
L 835.418055 263.79872 
L 834.426481 265.36798 
L 831.308923 266.93724 
L 830.152073 268.5065 
L 827.515313 270.07576 
L 825.374339 271.64502 
L 824.690748 273.21428 
L 821.948799 274.78354 
L 818.583348 276.3528 
L 816.975722 277.92206 
L 815.112752 279.49132 
L 803.98722 281.06058 
L 802.071612 282.62984 
L 799.742878 284.1991 
L 794.34918 285.76836 
L 791.584704 287.33762 
L 785.70267 288.90688 
L 781.698682 290.47614 
L 779.865735 292.0454 
L 776.778244 293.61466 
L 767.350492 295.18392 
L 766.065926 296.75318 
L 762.903312 298.32244 
L 753.730948 299.8917 
L 749.742039 301.46096 
L 747.240489 303.03022 
L 740.637302 304.59948 
L 728.137093 306.16874 
L 725.259933 307.738 
L 717.327081 310.87652 
L 710.213119 312.44578 
L 706.50208 314.01504 
L 701.761907 315.5843 
L 688.014692 318.72282 
L 684.957222 320.29208 
L 682.177757 321.86134 
L 676.340823 323.4306 
L 673.741623 324.99986 
L 669.910408 326.56912 
L 667.468946 328.13838 
L 657.658135 332.84616 
L 655.704967 334.41542 
L 650.296191 335.98468 
L 645.623646 339.1232 
L 636.173367 342.26172 
L 633.634256 343.83098 
L 630.877274 345.40024 
L 626.798209 346.9695 
L 621.434578 348.53876 
L 620.059812 350.10802 
L 616.73946 351.67728 
L 612.637824 353.24654 
L 608.070422 354.8158 
L 603.750914 357.95432 
L 599.499078 359.52358 
L 597.222894 361.09284 
L 595.825644 362.6621 
L 592.077089 364.23136 
L 590.694829 365.80062 
L 587.081484 367.36988 
L 584.594968 368.93914 
L 581.807964 370.5084 
L 578.299808 372.07766 
L 576.241495 373.64692 
L 570.194183 375.21618 
L 568.323631 376.78544 
L 565.168556 378.3547 
L 563.410686 379.92396 
L 559.474327 381.49322 
L 558.407631 383.06248 
L 556.57464 384.63174 
L 553.524709 386.201 
L 551.977216 387.77026 
L 549.242806 389.33952 
L 547.432387 390.90878 
L 542.617092 392.47804 
L 541.445164 394.0473 
L 539.03377 395.61656 
L 535.728451 397.18582 
L 533.399673 398.75508 
L 532.160162 400.32434 
L 529.936572 401.8936 
L 527.352406 403.46286 
L 525.74478 405.03212 
L 522.214096 406.60138 
L 520.260927 408.17064 
L 514.499137 411.30916 
L 513.537563 412.87842 
L 510.795637 414.44768 
L 506.776616 416.01694 
L 506.010386 417.5862 
L 502.87784 419.15546 
L 500.286135 420.72472 
L 497.348865 422.29398 
L 494.494278 425.4325 
L 490.467763 427.00176 
L 489.581333 428.57102 
L 488.462022 430.14028 
L 486.599008 431.70954 
L 484.150053 433.2788 
L 482.234445 434.84806 
L 481.017461 436.41732 
L 478.568528 437.98658 
L 476.292322 441.1251 
L 473.467757 444.26362 
L 471.920264 445.83288 
L 471.108956 447.40214 
L 468.261842 448.9714 
L 464.265371 452.10992 
L 461.816437 453.67918 
L 460.208834 455.24844 
L 458.991873 456.8177 
L 457.218992 458.38696 
L 456.490323 459.95622 
L 455.453628 461.52548 
L 453.936179 463.09474 
L 453.417842 464.664 
L 451.314452 466.23326 
L 451.532301 467.80252 
L 450.976403 469.37178 
L 448.32461 470.94104 
L 446.912328 472.5103 
L 445.883171 474.07956 
L 444.606099 475.64882 
L 442.472642 477.21808 
L 439.167302 478.78734 
L 437.244199 480.3566 
L 435.824378 481.92586 
L 433.082474 483.49512 
L 429.904827 485.06438 
L 428.808065 486.63364 
L 426.374121 488.2029 
L 423.572084 489.77216 
L 422.452772 491.34142 
L 421.761642 492.91068 
L 418.982177 494.47994 
L 418.230958 496.0492 
L 415.969785 497.61846 
L 415.368832 499.18772 
L 413.115176 500.75698 
L 411.995864 502.32624 
L 410.703781 503.8955 
L 408.209748 505.46476 
L 406.39179 507.03402 
L 405.76077 508.60328 
L 404.521259 510.17254 
L 404.618931 511.7418 
L 403.176582 513.31106 
L 402.740884 514.88032 
L 401.163347 516.44958 
L 398.504037 518.01884 
L 398.654303 519.5881 
L 396.145214 521.15736 
L 394.041824 522.72662 
L 392.682135 524.29588 
L 391.097081 525.86514 
L 388.535443 527.4344 
L 387.701564 529.00366 
L 385.470457 530.57292 
L 382.736047 532.14218 
L 381.466514 533.71144 
L 380.797912 535.2807 
L 377.274722 536.84996 
L 376.470909 538.41922 
L 375.344103 539.98848 
L 374.375035 541.55774 
L 371.595526 543.127 
L 371.64812 544.69626 
L 371.340116 546.26552 
L 368.770961 547.83478 
L 367.554 549.40404 
L 366.539854 550.9733 
L 365.232738 552.54256 
L 361.829748 554.11182 
L 361.641943 555.68108 
L 360.620281 557.25034 
L 358.04361 558.8196 
L 357.02197 560.38886 
L 355.406849 561.95812 
L 354.144811 563.52738 
L 352.597318 565.09664 
L 349.50231 566.6659 
L 349.261933 568.23516 
L 347.699384 569.80442 
L 346.820472 571.37368 
L 345.483311 572.94294 
L 343.890718 574.5122 
L 343.214644 576.08146 
L 341.930055 577.65072 
L 340.480212 579.21998 
L 338.226578 582.3585 
L 336.31097 583.92776 
L 335.28933 585.49702 
L 334.455472 587.06628 
L 332.855385 588.63554 
L 331.698513 590.2048 
L 331.19521 591.77406 
L 329.302151 593.34332 
L 328.002541 594.91258 
L 327.153672 596.48184 
L 323.65301 599.62036 
L 322.653898 601.18962 
L 321.835063 602.75888 
L 319.581429 604.32814 
L 319.002993 605.8974 
L 318.296852 607.46666 
L 317.079868 609.03592 
L 316.073251 610.60518 
L 315.329548 612.17444 
L 313.166047 613.7437 
L 311.84392 616.88222 
L 310.183733 618.45148 
L 308.703845 620.02074 
L 307.411751 621.59 
L 306.397606 623.15926 
L 305.105512 624.72852 
L 303.618107 626.29778 
L 301.124074 627.86704 
L 299.448865 629.4363 
L 298.449753 631.00556 
L 298.419698 632.57482 
L 295.58011 634.14408 
L 294.678659 635.71334 
L 293.063539 637.2826 
L 292.702962 638.85186 
L 293.544314 640.42112 
L 293.198771 641.99038 
L 295.196995 643.55964 
L 295.399811 645.1289 
L 292.980911 646.69816 
L 291.981788 648.26742 
L 291.208041 649.83668 
L 291.208041 652.9752 
L 291.208041 652.9752 
" clip-path="url(#p452b4047e6)" style="fill: none; stroke: #d8576b; stroke-width: 1.5; stroke-linecap: square"/>
   </g>
   <g id="line2d_36">
    <path d="M 873.800413 146.10422 
L 873.800413 150.812 
L 858.486503 152.38126 
L 868.418334 153.95052 
L 868.418334 155.51978 
L 861.995635 157.08904 
L 861.256522 158.6583 
L 859.376347 160.22756 
L 861.227786 161.79682 
L 860.201623 163.36608 
L 859.749517 164.93534 
L 854.27409 166.5046 
L 853.147439 168.07386 
L 857.725838 169.64312 
L 857.424464 171.21238 
L 856.319321 172.78164 
L 855.860031 174.3509 
L 854.862559 175.92016 
L 854.604245 177.48942 
L 853.865088 179.05868 
L 852.752805 180.62794 
L 852.264779 182.1972 
L 850.79365 183.76646 
L 846.416226 185.33572 
L 845.66993 186.90498 
L 845.806249 188.47424 
L 843.366384 190.0435 
L 843.82563 191.61276 
L 842.84971 193.18202 
L 842.648735 194.75128 
L 841.988514 196.32054 
L 842.806606 197.8898 
L 842.368913 199.45906 
L 839.713705 201.02832 
L 839.211355 202.59758 
L 836.900625 205.7361 
L 835.43668 207.30536 
L 834.963066 208.87462 
L 835.027634 210.44388 
L 832.394022 212.01314 
L 832.566217 213.5824 
L 832.106971 215.15166 
L 831.798413 216.72092 
L 828.081166 218.29018 
L 827.377885 219.85944 
L 827.277397 221.4287 
L 815.910357 222.99796 
L 815.307608 224.56722 
L 815.443972 226.13648 
L 810.822513 227.70574 
L 809.344244 230.84426 
L 809.344244 232.41352 
L 796.140088 233.98278 
L 794.137961 237.1213 
L 787.765506 238.69056 
L 786.488168 240.25982 
L 785.770563 241.82908 
L 782.663293 243.39834 
L 780.639615 244.9676 
L 779.936334 246.53686 
L 778.666135 248.10612 
L 776.814696 249.67538 
L 775.738289 251.24464 
L 775.157003 252.8139 
L 773.29124 254.38316 
L 770.435101 255.95242 
L 769.164947 257.52168 
L 765.813642 259.09094 
L 763.761271 262.22946 
L 761.9744 263.79872 
L 759.190101 265.36798 
L 757.833783 266.93724 
L 757.697419 268.5065 
L 755.207311 271.64502 
L 750.686339 274.78354 
L 748.497605 276.3528 
L 747.53601 279.49132 
L 745.203773 281.06058 
L 744.098629 282.62984 
L 741.615661 284.1991 
L 737.231053 285.76836 
L 731.569063 287.33762 
L 731.360948 288.90688 
L 728.346982 290.47614 
L 724.766054 292.0454 
L 724.270932 293.61466 
L 718.15688 295.18392 
L 717.080429 296.75318 
L 713.363182 298.32244 
L 712.882384 299.8917 
L 707.737068 303.03022 
L 706.251615 304.59948 
L 700.948427 306.16874 
L 699.678228 307.738 
L 696.628386 309.30726 
L 692.121783 310.87652 
L 691.045332 312.44578 
L 689.409147 314.01504 
L 688.339924 315.5843 
L 684.019884 317.15356 
L 683.022368 318.72282 
L 680.525076 320.29208 
L 676.750445 321.86134 
L 675.551999 323.4306 
L 674.167033 324.99986 
L 669.445131 326.56912 
L 667.837638 328.13838 
L 666.861674 329.70764 
L 664.479193 331.2769 
L 660.740438 332.84616 
L 659.549176 334.41542 
L 657.805364 335.98468 
L 652.380225 337.55394 
L 649.674817 340.69246 
L 642.591941 342.26172 
L 642.297751 343.83098 
L 640.654382 345.40024 
L 638.738375 346.9695 
L 633.872925 348.53876 
L 631.849247 350.10802 
L 630.291997 351.67728 
L 623.919587 353.24654 
L 623.417281 354.8158 
L 622.096839 356.38506 
L 617.001766 357.95432 
L 615.588065 359.52358 
L 613.736625 361.09284 
L 611.167581 362.6621 
L 606.280579 364.23136 
L 606.115568 365.80062 
L 604.206701 367.36988 
L 599.994288 368.93914 
L 597.733802 370.5084 
L 596.564092 372.07766 
L 590.220373 375.21618 
L 589.904586 376.78544 
L 585.484102 378.3547 
L 583.77621 379.92396 
L 579.944152 383.06248 
L 574.368237 386.201 
L 573.865887 387.77026 
L 570.930901 389.33952 
L 568.84261 390.90878 
L 567.550904 392.47804 
L 563.281064 394.0473 
L 562.319468 395.61656 
L 561.171309 397.18582 
L 561.400977 398.75508 
L 557.776989 401.8936 
L 556.542711 403.46286 
L 552.990519 405.03212 
L 551.856684 406.60138 
L 549.610522 408.17064 
L 548.103561 409.7399 
L 545.168487 411.30916 
L 544.027468 412.87842 
L 541.73829 414.44768 
L 539.09745 416.01694 
L 537.597629 417.5862 
L 534.719982 419.15546 
L 534.217677 420.72472 
L 531.655817 422.29398 
L 531.282646 423.86324 
L 528.455243 425.4325 
L 527.192229 427.00176 
L 525.756975 428.57102 
L 523.647221 430.14028 
L 521.042257 431.70954 
L 519.233877 433.2788 
L 518.559332 434.84806 
L 514.519137 436.41732 
L 513.24896 437.98658 
L 511.519516 439.55584 
L 509.467124 441.1251 
L 509.029364 442.69436 
L 507.091805 444.26362 
L 506.625375 445.83288 
L 503.525267 447.40214 
L 501.96804 448.9714 
L 500.61895 450.54066 
L 493.780043 452.10992 
L 493.500177 453.67918 
L 488.577343 456.8177 
L 488.03914 458.38696 
L 486.036969 459.95622 
L 482.204932 461.52548 
L 479.334447 463.09474 
L 478.695778 464.664 
L 473.241925 467.80252 
L 472.868755 469.37178 
L 471.124943 470.94104 
L 468.046365 472.5103 
L 465.850469 474.07956 
L 465.132842 475.64882 
L 455.150834 477.21808 
L 455.028816 478.78734 
L 453.988285 480.3566 
L 451.26137 481.92586 
L 447.981839 483.49512 
L 442.614083 485.06438 
L 441.494594 486.63364 
L 437.382669 488.2029 
L 437.310895 489.77216 
L 435.997682 491.34142 
L 430.751899 492.91068 
L 429.402788 494.47994 
L 425.915164 496.0492 
L 425.900818 497.61846 
L 419.054771 499.18772 
L 418.459162 500.75698 
L 417.339651 502.32624 
L 410.780677 503.8955 
L 409.144492 505.46476 
L 406.467798 507.03402 
L 402.262592 508.60328 
L 399.837029 510.17254 
L 399.621752 511.7418 
L 398.215212 513.31106 
L 392.775705 514.88032 
L 391.562935 516.44958 
L 387.974867 518.01884 
L 383.389284 519.5881 
L 379.87299 521.15736 
L 378.918556 522.72662 
L 373.184793 524.29588 
L 371.297477 525.86514 
L 370.687522 527.4344 
L 367.759631 529.00366 
L 363.030545 530.57292 
L 360.353829 532.14218 
L 359.822788 533.71144 
L 355.875918 535.2807 
L 353.579556 536.84996 
L 352.883459 538.41922 
L 344.882048 539.98848 
L 344.494554 541.55774 
L 341.473382 543.127 
L 335.947733 546.26552 
L 334.612967 549.40404 
L 330.501042 550.9733 
L 329.840843 552.54256 
L 327.881754 554.11182 
L 325.140459 555.68108 
L 324.092744 557.25034 
L 322.700561 558.8196 
L 319.327771 560.38886 
L 316.227685 561.95812 
L 315.868872 563.52738 
L 313.565326 565.09664 
L 310.673333 566.6659 
L 308.8793 568.23516 
L 309.094576 569.80442 
L 304.602308 572.94294 
L 302.679095 574.5122 
L 299.622058 576.08146 
L 300.081337 577.65072 
L 297.784964 579.21998 
L 296.371252 580.78924 
L 290.781035 582.3585 
L 288.506193 583.92776 
L 288.836303 585.49702 
L 279.593418 587.06628 
L 280.32538 588.63554 
L 275.30207 590.2048 
L 271.326486 591.77406 
L 271.864701 593.34332 
L 269.410446 594.91258 
L 269.611388 596.48184 
L 269.33151 598.0511 
L 267.114084 599.62036 
L 263.059554 601.18962 
L 265.406159 602.75888 
L 265.420505 604.32814 
L 261.882659 605.8974 
L 264.667014 607.46666 
L 266.489761 609.03592 
L 266.841391 610.60518 
L 267.910636 612.17444 
L 265.05453 613.7437 
L 265.62862 615.31296 
L 269.101876 616.88222 
L 269.525279 618.45148 
L 267.458541 620.02074 
L 267.752764 621.59 
L 288.398554 623.15926 
L 286.927447 624.72852 
L 288.577955 626.29778 
L 282.937495 627.86704 
L 279.449893 629.4363 
L 277.497977 631.00556 
L 276.141681 632.57482 
L 272.661252 634.14408 
L 271.355189 635.71334 
L 271.391065 637.2826 
L 253.321514 638.85186 
L 252.338378 640.42112 
L 252.044165 641.99038 
L 243.052444 643.55964 
L 240.806305 645.1289 
L 240.210684 646.69816 
L 239.851882 648.26742 
L 245.793728 649.83668 
L 243.77006 651.40594 
L 248.671364 652.9752 
L 248.671364 652.9752 
" clip-path="url(#p452b4047e6)" style="fill: none; stroke: #bd3786; stroke-width: 1.5; stroke-linecap: square"/>
   </g>
   <g id="line2d_37">
    <path d="M 0 0 
" clip-path="url(#p452b4047e6)" style="fill: none; stroke: #9c179e; stroke-width: 1.5; stroke-linecap: square"/>
   </g>
   <g id="patch_3">
    <path d="M 144 652.9752 
L 144 88.0416 
" style="fill: none; stroke: #000000; stroke-width: 0.8; stroke-linejoin: miter; stroke-linecap: square"/>
   </g>
   <g id="patch_4">
    <path d="M 1036.8 652.9752 
L 1036.8 88.0416 
" style="fill: none; stroke: #000000; stroke-width: 0.8; stroke-linejoin: miter; stroke-linecap: square"/>
   </g>
   <g id="patch_5">
    <path d="M 144 652.9752 
L 1036.8 652.9752 
" style="fill: none; stroke: #000000; stroke-width: 0.8; stroke-linejoin: miter; stroke-linecap: square"/>
   </g>
   <g id="patch_6">
    <path d="M 144 88.0416 
L 1036.8 88.0416 
" style="fill: none; stroke: #000000; stroke-width: 0.8; stroke-linejoin: miter; stroke-linecap: square"/>
   </g>
   <g id="legend_1">
    <g id="patch_7">
     <path d="M 859.96125 646.9752 
L 1028.4 646.9752 
Q 1030.8 646.9752 1030.8 644.5752 
L 1030.8 504.2502 
Q 1030.8 501.8502 1028.4 501.8502 
L 859.96125 501.8502 
Q 857.56125 501.8502 857.56125 504.2502 
L 857.56125 644.5752 
Q 857.56125 646.9752 859.96125 646.9752 
z
" style="fill: #ffffff; opacity: 0.8; stroke: #cccccc; stroke-linejoin: miter"/>
    </g>
    <g id="line2d_38">
     <path d="M 862.36125 511.632075 
L 874.36125 511.632075 
L 886.36125 511.632075 
" style="fill: none; stroke: #f0f921; stroke-width: 1.5; stroke-linecap: square"/>
    </g>
    <g id="text_32">
     <!-- Ta at 1.04598µm -->
     <g transform="translate(895.96125 515.832075)scale(0.12 -0.12)">
      <defs>
       <path id="DejaVuSansMono-54" d="M 147 4666 
L 3706 4666 
L 3706 4134 
L 2247 4134 
L 2247 0 
L 1613 0 
L 1613 4134 
L 147 4134 
L 147 4666 
z
" transform="scale(0.015625)"/>
       <path id="DejaVuSansMono-20" transform="scale(0.015625)"/>
       <path id="DejaVuSansMono-38" d="M 1925 2216 
Q 1503 2216 1273 1980 
Q 1044 1744 1044 1313 
Q 1044 881 1276 642 
Q 1509 403 1925 403 
Q 2350 403 2579 639 
Q 2809 875 2809 1313 
Q 2809 1741 2576 1978 
Q 2344 2216 1925 2216 
z
M 1375 2478 
Q 972 2581 745 2862 
Q 519 3144 519 3541 
Q 519 4097 897 4423 
Q 1275 4750 1925 4750 
Q 2578 4750 2956 4423 
Q 3334 4097 3334 3541 
Q 3334 3144 3107 2862 
Q 2881 2581 2478 2478 
Q 2947 2375 3195 2062 
Q 3444 1750 3444 1253 
Q 3444 622 3041 265 
Q 2638 -91 1925 -91 
Q 1213 -91 811 264 
Q 409 619 409 1247 
Q 409 1747 657 2061 
Q 906 2375 1375 2478 
z
M 1147 3481 
Q 1147 3106 1347 2909 
Q 1547 2713 1925 2713 
Q 2306 2713 2506 2909 
Q 2706 3106 2706 3481 
Q 2706 3863 2507 4063 
Q 2309 4263 1925 4263 
Q 1547 4263 1347 4061 
Q 1147 3859 1147 3481 
z
" transform="scale(0.015625)"/>
       <path id="DejaVuSansMono-b5" d="M 609 -1338 
L 609 3500 
L 1184 3500 
L 1184 1325 
Q 1184 881 1371 645 
Q 1559 409 1906 409 
Q 2303 409 2504 675 
Q 2706 941 2706 1459 
L 2706 3500 
L 3284 3500 
L 3284 800 
Q 3284 616 3334 528 
Q 3384 441 3488 441 
Q 3516 441 3561 456 
Q 3606 472 3694 513 
L 3694 50 
Q 3575 -22 3469 -56 
Q 3363 -91 3256 -91 
Q 3063 -91 2945 32 
Q 2828 156 2791 403 
Q 2647 153 2439 31 
Q 2231 -91 1953 -91 
Q 1666 -91 1467 28 
Q 1269 147 1131 397 
L 1131 -1338 
L 609 -1338 
z
" transform="scale(0.015625)"/>
       <path id="DejaVuSansMono-6d" d="M 2113 3144 
Q 2219 3369 2383 3476 
Q 2547 3584 2778 3584 
Q 3200 3584 3373 3257 
Q 3547 2931 3547 2028 
L 3547 0 
L 3022 0 
L 3022 2003 
Q 3022 2744 2939 2923 
Q 2856 3103 2638 3103 
Q 2388 3103 2295 2911 
Q 2203 2719 2203 2003 
L 2203 0 
L 1678 0 
L 1678 2003 
Q 1678 2753 1589 2928 
Q 1500 3103 1269 3103 
Q 1041 3103 952 2911 
Q 863 2719 863 2003 
L 863 0 
L 341 0 
L 341 3500 
L 863 3500 
L 863 3200 
Q 966 3388 1120 3486 
Q 1275 3584 1472 3584 
Q 1709 3584 1867 3475 
Q 2025 3366 2113 3144 
z
" transform="scale(0.015625)"/>
      </defs>
      <use xlink:href="#DejaVuSansMono-54"/>
      <use xlink:href="#DejaVuSansMono-61" x="60.205078"/>
      <use xlink:href="#DejaVuSansMono-20" x="120.410156"/>
      <use xlink:href="#DejaVuSansMono-61" x="180.615234"/>
      <use xlink:href="#DejaVuSansMono-74" x="240.820312"/>
      <use xlink:href="#DejaVuSansMono-20" x="301.025391"/>
      <use xlink:href="#DejaVuSansMono-31" x="361.230469"/>
      <use xlink:href="#DejaVuSansMono-2e" x="421.435547"/>
      <use xlink:href="#DejaVuSansMono-30" x="481.640625"/>
      <use xlink:href="#DejaVuSansMono-34" x="541.845703"/>
      <use xlink:href="#DejaVuSansMono-35" x="602.050781"/>
      <use xlink:href="#DejaVuSansMono-39" x="662.255859"/>
      <use xlink:href="#DejaVuSansMono-38" x="722.460938"/>
      <use xlink:href="#DejaVuSansMono-b5" x="782.666016"/>
      <use xlink:href="#DejaVuSansMono-6d" x="842.871094"/>
     </g>
    </g>
    <g id="line2d_39">
     <path d="M 862.36125 529.3227 
L 874.36125 529.3227 
L 886.36125 529.3227 
" style="fill: none; stroke: #f0f921; stroke-width: 1.5; stroke-linecap: square"/>
    </g>
    <g id="text_33">
     <!-- T8 at 1.04598µm -->
     <g transform="translate(895.96125 533.5227)scale(0.12 -0.12)">
      <use xlink:href="#DejaVuSansMono-54"/>
      <use xlink:href="#DejaVuSansMono-38" x="60.205078"/>
      <use xlink:href="#DejaVuSansMono-20" x="120.410156"/>
      <use xlink:href="#DejaVuSansMono-61" x="180.615234"/>
      <use xlink:href="#DejaVuSansMono-74" x="240.820312"/>
      <use xlink:href="#DejaVuSansMono-20" x="301.025391"/>
      <use xlink:href="#DejaVuSansMono-31" x="361.230469"/>
      <use xlink:href="#DejaVuSansMono-2e" x="421.435547"/>
      <use xlink:href="#DejaVuSansMono-30" x="481.640625"/>
      <use xlink:href="#DejaVuSansMono-34" x="541.845703"/>
      <use xlink:href="#DejaVuSansMono-35" x="602.050781"/>
      <use xlink:href="#DejaVuSansMono-39" x="662.255859"/>
      <use xlink:href="#DejaVuSansMono-38" x="722.460938"/>
      <use xlink:href="#DejaVuSansMono-b5" x="782.666016"/>
      <use xlink:href="#DejaVuSansMono-6d" x="842.871094"/>
     </g>
    </g>
    <g id="line2d_40">
     <path d="M 862.36125 547.013325 
L 874.36125 547.013325 
L 886.36125 547.013325 
" style="fill: none; stroke: #fdca26; stroke-width: 1.5; stroke-linecap: square"/>
    </g>
    <g id="text_34">
     <!-- T31 at 1.04598µm -->
     <g transform="translate(895.96125 551.213325)scale(0.12 -0.12)">
      <use xlink:href="#DejaVuSansMono-54"/>
      <use xlink:href="#DejaVuSansMono-33" x="60.205078"/>
      <use xlink:href="#DejaVuSansMono-31" x="120.410156"/>
      <use xlink:href="#DejaVuSansMono-20" x="180.615234"/>
      <use xlink:href="#DejaVuSansMono-61" x="240.820312"/>
      <use xlink:href="#DejaVuSansMono-74" x="301.025391"/>
      <use xlink:href="#DejaVuSansMono-20" x="361.230469"/>
      <use xlink:href="#DejaVuSansMono-31" x="421.435547"/>
      <use xlink:href="#DejaVuSansMono-2e" x="481.640625"/>
      <use xlink:href="#DejaVuSansMono-30" x="541.845703"/>
      <use xlink:href="#DejaVuSansMono-34" x="602.050781"/>
      <use xlink:href="#DejaVuSansMono-35" x="662.255859"/>
      <use xlink:href="#DejaVuSansMono-39" x="722.460938"/>
      <use xlink:href="#DejaVuSansMono-38" x="782.666016"/>
      <use xlink:href="#DejaVuSansMono-b5" x="842.871094"/>
      <use xlink:href="#DejaVuSansMono-6d" x="903.076172"/>
     </g>
    </g>
    <g id="line2d_41">
     <path d="M 862.36125 564.70395 
L 874.36125 564.70395 
L 886.36125 564.70395 
" style="fill: none; stroke: #fb9f3a; stroke-width: 1.5; stroke-linecap: square"/>
    </g>
    <g id="text_35">
     <!-- T61 at 1.04598µm -->
     <g transform="translate(895.96125 568.90395)scale(0.12 -0.12)">
      <use xlink:href="#DejaVuSansMono-54"/>
      <use xlink:href="#DejaVuSansMono-36" x="60.205078"/>
      <use xlink:href="#DejaVuSansMono-31" x="120.410156"/>
      <use xlink:href="#DejaVuSansMono-20" x="180.615234"/>
      <use xlink:href="#DejaVuSansMono-61" x="240.820312"/>
      <use xlink:href="#DejaVuSansMono-74" x="301.025391"/>
      <use xlink:href="#DejaVuSansMono-20" x="361.230469"/>
      <use xlink:href="#DejaVuSansMono-31" x="421.435547"/>
      <use xlink:href="#DejaVuSansMono-2e" x="481.640625"/>
      <use xlink:href="#DejaVuSansMono-30" x="541.845703"/>
      <use xlink:href="#DejaVuSansMono-34" x="602.050781"/>
      <use xlink:href="#DejaVuSansMono-35" x="662.255859"/>
      <use xlink:href="#DejaVuSansMono-39" x="722.460938"/>
      <use xlink:href="#DejaVuSansMono-38" x="782.666016"/>
      <use xlink:href="#DejaVuSansMono-b5" x="842.871094"/>
      <use xlink:href="#DejaVuSansMono-6d" x="903.076172"/>
     </g>
    </g>
    <g id="line2d_42">
     <path d="M 862.36125 582.394575 
L 874.36125 582.394575 
L 886.36125 582.394575 
" style="fill: none; stroke: #ed7953; stroke-width: 1.5; stroke-linecap: square"/>
    </g>
    <g id="text_36">
     <!-- T67 at 1.04598µm -->
     <g transform="translate(895.96125 586.594575)scale(0.12 -0.12)">
      <use xlink:href="#DejaVuSansMono-54"/>
      <use xlink:href="#DejaVuSansMono-36" x="60.205078"/>
      <use xlink:href="#DejaVuSansMono-37" x="120.410156"/>
      <use xlink:href="#DejaVuSansMono-20" x="180.615234"/>
      <use xlink:href="#DejaVuSansMono-61" x="240.820312"/>
      <use xlink:href="#DejaVuSansMono-74" x="301.025391"/>
      <use xlink:href="#DejaVuSansMono-20" x="361.230469"/>
      <use xlink:href="#DejaVuSansMono-31" x="421.435547"/>
      <use xlink:href="#DejaVuSansMono-2e" x="481.640625"/>
      <use xlink:href="#DejaVuSansMono-30" x="541.845703"/>
      <use xlink:href="#DejaVuSansMono-34" x="602.050781"/>
      <use xlink:href="#DejaVuSansMono-35" x="662.255859"/>
      <use xlink:href="#DejaVuSansMono-39" x="722.460938"/>
      <use xlink:href="#DejaVuSansMono-38" x="782.666016"/>
      <use xlink:href="#DejaVuSansMono-b5" x="842.871094"/>
      <use xlink:href="#DejaVuSansMono-6d" x="903.076172"/>
     </g>
    </g>
    <g id="line2d_43">
     <path d="M 862.36125 600.0852 
L 874.36125 600.0852 
L 886.36125 600.0852 
" style="fill: none; stroke: #d8576b; stroke-width: 1.5; stroke-linecap: square"/>
    </g>
    <g id="text_37">
     <!-- T85 at 1.04598µm -->
     <g transform="translate(895.96125 604.2852)scale(0.12 -0.12)">
      <use xlink:href="#DejaVuSansMono-54"/>
      <use xlink:href="#DejaVuSansMono-38" x="60.205078"/>
      <use xlink:href="#DejaVuSansMono-35" x="120.410156"/>
      <use xlink:href="#DejaVuSansMono-20" x="180.615234"/>
      <use xlink:href="#DejaVuSansMono-61" x="240.820312"/>
      <use xlink:href="#DejaVuSansMono-74" x="301.025391"/>
      <use xlink:href="#DejaVuSansMono-20" x="361.230469"/>
      <use xlink:href="#DejaVuSansMono-31" x="421.435547"/>
      <use xlink:href="#DejaVuSansMono-2e" x="481.640625"/>
      <use xlink:href="#DejaVuSansMono-30" x="541.845703"/>
      <use xlink:href="#DejaVuSansMono-34" x="602.050781"/>
      <use xlink:href="#DejaVuSansMono-35" x="662.255859"/>
      <use xlink:href="#DejaVuSansMono-39" x="722.460938"/>
      <use xlink:href="#DejaVuSansMono-38" x="782.666016"/>
      <use xlink:href="#DejaVuSansMono-b5" x="842.871094"/>
      <use xlink:href="#DejaVuSansMono-6d" x="903.076172"/>
     </g>
    </g>
    <g id="line2d_44">
     <path d="M 862.36125 617.775825 
L 874.36125 617.775825 
L 886.36125 617.775825 
" style="fill: none; stroke: #bd3786; stroke-width: 1.5; stroke-linecap: square"/>
    </g>
    <g id="text_38">
     <!-- T108 at 1.04598µm -->
     <g transform="translate(895.96125 621.975825)scale(0.12 -0.12)">
      <use xlink:href="#DejaVuSansMono-54"/>
      <use xlink:href="#DejaVuSansMono-31" x="60.205078"/>
      <use xlink:href="#DejaVuSansMono-30" x="120.410156"/>
      <use xlink:href="#DejaVuSansMono-38" x="180.615234"/>
      <use xlink:href="#DejaVuSansMono-20" x="240.820312"/>
      <use xlink:href="#DejaVuSansMono-61" x="301.025391"/>
      <use xlink:href="#DejaVuSansMono-74" x="361.230469"/>
      <use xlink:href="#DejaVuSansMono-20" x="421.435547"/>
      <use xlink:href="#DejaVuSansMono-31" x="481.640625"/>
      <use xlink:href="#DejaVuSansMono-2e" x="541.845703"/>
      <use xlink:href="#DejaVuSansMono-30" x="602.050781"/>
      <use xlink:href="#DejaVuSansMono-34" x="662.255859"/>
      <use xlink:href="#DejaVuSansMono-35" x="722.460938"/>
      <use xlink:href="#DejaVuSansMono-39" x="782.666016"/>
      <use xlink:href="#DejaVuSansMono-38" x="842.871094"/>
      <use xlink:href="#DejaVuSansMono-b5" x="903.076172"/>
      <use xlink:href="#DejaVuSansMono-6d" x="963.28125"/>
     </g>
    </g>
    <g id="line2d_45">
     <path d="M 862.36125 635.46645 
L 874.36125 635.46645 
L 886.36125 635.46645 
" style="fill: none; stroke: #9c179e; stroke-width: 1.5; stroke-linecap: square"/>
    </g>
    <g id="text_39">
     <!-- 278TI at 1.04598µm -->
     <g transform="translate(895.96125 639.66645)scale(0.12 -0.12)">
      <use xlink:href="#DejaVuSansMono-32"/>
      <use xlink:href="#DejaVuSansMono-37" x="60.205078"/>
      <use xlink:href="#DejaVuSansMono-38" x="120.410156"/>
      <use xlink:href="#DejaVuSansMono-54" x="180.615234"/>
      <use xlink:href="#DejaVuSansMono-49" x="240.820312"/>
      <use xlink:href="#DejaVuSansMono-20" x="301.025391"/>
      <use xlink:href="#DejaVuSansMono-61" x="361.230469"/>
      <use xlink:href="#DejaVuSansMono-74" x="421.435547"/>
      <use xlink:href="#DejaVuSansMono-20" x="481.640625"/>
      <use xlink:href="#DejaVuSansMono-31" x="541.845703"/>
      <use xlink:href="#DejaVuSansMono-2e" x="602.050781"/>
      <use xlink:href="#DejaVuSansMono-30" x="662.255859"/>
      <use xlink:href="#DejaVuSansMono-34" x="722.460938"/>
      <use xlink:href="#DejaVuSansMono-35" x="782.666016"/>
      <use xlink:href="#DejaVuSansMono-39" x="842.871094"/>
      <use xlink:href="#DejaVuSansMono-38" x="903.076172"/>
      <use xlink:href="#DejaVuSansMono-b5" x="963.28125"/>
      <use xlink:href="#DejaVuSansMono-6d" x="1023.486328"/>
     </g>
    </g>
   </g>
  </g>
 </g>
 <defs>
  <clipPath id="p452b4047e6">
   <rect x="144" y="88.0416" width="892.8" height="564.9336"/>
  </clipPath>
 </defs>
</svg>
