<?xml version="1.0" encoding="utf-8" standalone="no"?>
<!DOCTYPE svg PUBLIC "-//W3C//DTD SVG 1.1//EN"
  "http://www.w3.org/Graphics/SVG/1.1/DTD/svg11.dtd">
<svg xmlns:xlink="http://www.w3.org/1999/xlink" width="1152pt" height="733.68pt" viewBox="0 0 1152 733.68" xmlns="http://www.w3.org/2000/svg" version="1.1">
 <metadata>
  <rdf:RDF xmlns:dc="http://purl.org/dc/elements/1.1/" xmlns:cc="http://creativecommons.org/ns#" xmlns:rdf="http://www.w3.org/1999/02/22-rdf-syntax-ns#">
   <cc:Work>
    <dc:type rdf:resource="http://purl.org/dc/dcmitype/StillImage"/>
    <dc:date>2022-10-17T15:07:16.135634</dc:date>
    <dc:format>image/svg+xml</dc:format>
    <dc:creator>
     <cc:Agent>
      <dc:title>Matplotlib v3.6.1, https://matplotlib.org/</dc:title>
     </cc:Agent>
    </dc:creator>
   </cc:Work>
  </rdf:RDF>
 </metadata>
 <defs>
  <style type="text/css">*{stroke-linejoin: round; stroke-linecap: butt}</style>
 </defs>
 <g id="figure_1">
  <g id="patch_1">
   <path d="M 0 733.68 
L 1152 733.68 
L 1152 0 
L 0 0 
z
" style="fill: #ffffff"/>
  </g>
  <g id="axes_1">
   <g id="patch_2">
    <path d="M 144 652.9752 
L 1036.8 652.9752 
L 1036.8 88.0416 
L 144 88.0416 
z
" style="fill: #ffffff"/>
   </g>
   <g id="matplotlib.axis_1">
    <g id="xtick_1">
     <g id="line2d_1">
      <defs>
       <path id="m433ebd1836" d="M 0 0 
L 0 3.5 
" style="stroke: #000000; stroke-width: 0.8"/>
      </defs>
      <g>
       <use xlink:href="#m433ebd1836" x="144" y="652.9752" style="stroke: #000000; stroke-width: 0.8"/>
      </g>
     </g>
     <g id="text_1">
      <!-- 0.000 -->
      <g transform="translate(116.908594 673.748012) scale(0.18 -0.18)">
       <defs>
        <path id="DejaVuSansMono-30" d="M 1509 2344 
Q 1509 2516 1629 2641 
Q 1750 2766 1919 2766 
Q 2094 2766 2219 2641 
Q 2344 2516 2344 2344 
Q 2344 2169 2220 2047 
Q 2097 1925 1919 1925 
Q 1744 1925 1626 2044 
Q 1509 2163 1509 2344 
z
M 1925 4250 
Q 1484 4250 1267 3775 
Q 1050 3300 1050 2328 
Q 1050 1359 1267 884 
Q 1484 409 1925 409 
Q 2369 409 2586 884 
Q 2803 1359 2803 2328 
Q 2803 3300 2586 3775 
Q 2369 4250 1925 4250 
z
M 1925 4750 
Q 2672 4750 3055 4137 
Q 3438 3525 3438 2328 
Q 3438 1134 3055 521 
Q 2672 -91 1925 -91 
Q 1178 -91 797 521 
Q 416 1134 416 2328 
Q 416 3525 797 4137 
Q 1178 4750 1925 4750 
z
" transform="scale(0.015625)"/>
        <path id="DejaVuSansMono-2e" d="M 1528 953 
L 2316 953 
L 2316 0 
L 1528 0 
L 1528 953 
z
" transform="scale(0.015625)"/>
       </defs>
       <use xlink:href="#DejaVuSansMono-30"/>
       <use xlink:href="#DejaVuSansMono-2e" x="60.205078"/>
       <use xlink:href="#DejaVuSansMono-30" x="120.410156"/>
       <use xlink:href="#DejaVuSansMono-30" x="180.615234"/>
       <use xlink:href="#DejaVuSansMono-30" x="240.820312"/>
      </g>
     </g>
    </g>
    <g id="xtick_2">
     <g id="line2d_2">
      <g>
       <use xlink:href="#m433ebd1836" x="322.56" y="652.9752" style="stroke: #000000; stroke-width: 0.8"/>
      </g>
     </g>
     <g id="text_2">
      <!-- 0.015 -->
      <g transform="translate(295.468594 673.748012) scale(0.18 -0.18)">
       <defs>
        <path id="DejaVuSansMono-31" d="M 844 531 
L 1825 531 
L 1825 4097 
L 769 3859 
L 769 4434 
L 1819 4666 
L 2450 4666 
L 2450 531 
L 3419 531 
L 3419 0 
L 844 0 
L 844 531 
z
" transform="scale(0.015625)"/>
        <path id="DejaVuSansMono-35" d="M 647 4666 
L 3009 4666 
L 3009 4134 
L 1222 4134 
L 1222 2988 
Q 1356 3038 1492 3061 
Q 1628 3084 1766 3084 
Q 2491 3084 2916 2656 
Q 3341 2228 3341 1497 
Q 3341 759 2895 334 
Q 2450 -91 1678 -91 
Q 1306 -91 998 -41 
Q 691 9 447 109 
L 447 750 
Q 734 594 1025 517 
Q 1316 441 1619 441 
Q 2141 441 2423 716 
Q 2706 991 2706 1497 
Q 2706 1997 2414 2275 
Q 2122 2553 1600 2553 
Q 1347 2553 1106 2495 
Q 866 2438 647 2322 
L 647 4666 
z
" transform="scale(0.015625)"/>
       </defs>
       <use xlink:href="#DejaVuSansMono-30"/>
       <use xlink:href="#DejaVuSansMono-2e" x="60.205078"/>
       <use xlink:href="#DejaVuSansMono-30" x="120.410156"/>
       <use xlink:href="#DejaVuSansMono-31" x="180.615234"/>
       <use xlink:href="#DejaVuSansMono-35" x="240.820312"/>
      </g>
     </g>
    </g>
    <g id="xtick_3">
     <g id="line2d_3">
      <g>
       <use xlink:href="#m433ebd1836" x="501.12" y="652.9752" style="stroke: #000000; stroke-width: 0.8"/>
      </g>
     </g>
     <g id="text_3">
      <!-- 0.030 -->
      <g transform="translate(474.028594 673.748012) scale(0.18 -0.18)">
       <defs>
        <path id="DejaVuSansMono-33" d="M 2425 2497 
Q 2884 2375 3128 2064 
Q 3372 1753 3372 1288 
Q 3372 644 2939 276 
Q 2506 -91 1741 -91 
Q 1419 -91 1084 -31 
Q 750 28 428 141 
L 428 769 
Q 747 603 1056 522 
Q 1366 441 1672 441 
Q 2191 441 2469 675 
Q 2747 909 2747 1350 
Q 2747 1756 2469 1995 
Q 2191 2234 1716 2234 
L 1234 2234 
L 1234 2753 
L 1716 2753 
Q 2150 2753 2394 2943 
Q 2638 3134 2638 3475 
Q 2638 3834 2411 4026 
Q 2184 4219 1766 4219 
Q 1488 4219 1191 4156 
Q 894 4094 569 3969 
L 569 4550 
Q 947 4650 1242 4700 
Q 1538 4750 1766 4750 
Q 2447 4750 2855 4408 
Q 3263 4066 3263 3500 
Q 3263 3116 3048 2859 
Q 2834 2603 2425 2497 
z
" transform="scale(0.015625)"/>
       </defs>
       <use xlink:href="#DejaVuSansMono-30"/>
       <use xlink:href="#DejaVuSansMono-2e" x="60.205078"/>
       <use xlink:href="#DejaVuSansMono-30" x="120.410156"/>
       <use xlink:href="#DejaVuSansMono-33" x="180.615234"/>
       <use xlink:href="#DejaVuSansMono-30" x="240.820312"/>
      </g>
     </g>
    </g>
    <g id="xtick_4">
     <g id="line2d_4">
      <g>
       <use xlink:href="#m433ebd1836" x="679.68" y="652.9752" style="stroke: #000000; stroke-width: 0.8"/>
      </g>
     </g>
     <g id="text_4">
      <!-- 0.045 -->
      <g transform="translate(652.588594 673.748012) scale(0.18 -0.18)">
       <defs>
        <path id="DejaVuSansMono-34" d="M 2297 4091 
L 825 1625 
L 2297 1625 
L 2297 4091 
z
M 2194 4666 
L 2925 4666 
L 2925 1625 
L 3547 1625 
L 3547 1113 
L 2925 1113 
L 2925 0 
L 2297 0 
L 2297 1113 
L 319 1113 
L 319 1709 
L 2194 4666 
z
" transform="scale(0.015625)"/>
       </defs>
       <use xlink:href="#DejaVuSansMono-30"/>
       <use xlink:href="#DejaVuSansMono-2e" x="60.205078"/>
       <use xlink:href="#DejaVuSansMono-30" x="120.410156"/>
       <use xlink:href="#DejaVuSansMono-34" x="180.615234"/>
       <use xlink:href="#DejaVuSansMono-35" x="240.820312"/>
      </g>
     </g>
    </g>
    <g id="xtick_5">
     <g id="line2d_5">
      <g>
       <use xlink:href="#m433ebd1836" x="858.24" y="652.9752" style="stroke: #000000; stroke-width: 0.8"/>
      </g>
     </g>
     <g id="text_5">
      <!-- 0.060 -->
      <g transform="translate(831.148594 673.748012) scale(0.18 -0.18)">
       <defs>
        <path id="DejaVuSansMono-36" d="M 3097 4563 
L 3097 3981 
Q 2900 4097 2678 4158 
Q 2456 4219 2216 4219 
Q 1616 4219 1306 3767 
Q 997 3316 997 2438 
Q 1147 2750 1412 2917 
Q 1678 3084 2022 3084 
Q 2697 3084 3067 2670 
Q 3438 2256 3438 1497 
Q 3438 741 3056 325 
Q 2675 -91 1984 -91 
Q 1172 -91 794 492 
Q 416 1075 416 2328 
Q 416 3509 870 4129 
Q 1325 4750 2188 4750 
Q 2419 4750 2650 4701 
Q 2881 4653 3097 4563 
z
M 1972 2591 
Q 1569 2591 1337 2300 
Q 1106 2009 1106 1497 
Q 1106 984 1337 693 
Q 1569 403 1972 403 
Q 2391 403 2603 679 
Q 2816 956 2816 1497 
Q 2816 2041 2603 2316 
Q 2391 2591 1972 2591 
z
" transform="scale(0.015625)"/>
       </defs>
       <use xlink:href="#DejaVuSansMono-30"/>
       <use xlink:href="#DejaVuSansMono-2e" x="60.205078"/>
       <use xlink:href="#DejaVuSansMono-30" x="120.410156"/>
       <use xlink:href="#DejaVuSansMono-36" x="180.615234"/>
       <use xlink:href="#DejaVuSansMono-30" x="240.820312"/>
      </g>
     </g>
    </g>
    <g id="xtick_6">
     <g id="line2d_6">
      <g>
       <use xlink:href="#m433ebd1836" x="1036.8" y="652.9752" style="stroke: #000000; stroke-width: 0.8"/>
      </g>
     </g>
     <g id="text_6">
      <!-- 0.075 -->
      <g transform="translate(1009.708594 673.748012) scale(0.18 -0.18)">
       <defs>
        <path id="DejaVuSansMono-37" d="M 434 4666 
L 3372 4666 
L 3372 4397 
L 1703 0 
L 1044 0 
L 2669 4134 
L 434 4134 
L 434 4666 
z
" transform="scale(0.015625)"/>
       </defs>
       <use xlink:href="#DejaVuSansMono-30"/>
       <use xlink:href="#DejaVuSansMono-2e" x="60.205078"/>
       <use xlink:href="#DejaVuSansMono-30" x="120.410156"/>
       <use xlink:href="#DejaVuSansMono-37" x="180.615234"/>
       <use xlink:href="#DejaVuSansMono-35" x="240.820312"/>
      </g>
     </g>
    </g>
    <g id="text_7">
     <!-- I/F -->
     <g transform="translate(568.726875 699.8552) scale(0.24 -0.24)">
      <defs>
       <path id="DejaVuSansMono-49" d="M 628 4666 
L 3219 4666 
L 3219 4134 
L 2241 4134 
L 2241 531 
L 3219 531 
L 3219 0 
L 628 0 
L 628 531 
L 1606 531 
L 1606 4134 
L 628 4134 
L 628 4666 
z
" transform="scale(0.015625)"/>
       <path id="DejaVuSansMono-2f" d="M 2778 4666 
L 3372 4666 
L 916 -594 
L 319 -594 
L 2778 4666 
z
" transform="scale(0.015625)"/>
       <path id="DejaVuSansMono-46" d="M 728 4666 
L 3475 4666 
L 3475 4134 
L 1363 4134 
L 1363 2759 
L 3278 2759 
L 3278 2228 
L 1363 2228 
L 1363 0 
L 728 0 
L 728 4666 
z
" transform="scale(0.015625)"/>
      </defs>
      <use xlink:href="#DejaVuSansMono-49"/>
      <use xlink:href="#DejaVuSansMono-2f" x="60.205078"/>
      <use xlink:href="#DejaVuSansMono-46" x="120.410156"/>
     </g>
    </g>
   </g>
   <g id="matplotlib.axis_2">
    <g id="ytick_1">
     <g id="line2d_7">
      <defs>
       <path id="md4acaf83e0" d="M 0 0 
L -3.5 0 
" style="stroke: #000000; stroke-width: 0.8"/>
      </defs>
      <g>
       <use xlink:href="#md4acaf83e0" x="144" y="652.9752" style="stroke: #000000; stroke-width: 0.8"/>
      </g>
     </g>
     <g id="text_8">
      <!-- 90°S -->
      <g transform="translate(93.65375 659.861606) scale(0.18 -0.18)">
       <defs>
        <path id="DejaVuSansMono-39" d="M 1863 2069 
Q 2266 2069 2495 2359 
Q 2725 2650 2725 3163 
Q 2725 3675 2495 3965 
Q 2266 4256 1863 4256 
Q 1444 4256 1231 3979 
Q 1019 3703 1019 3163 
Q 1019 2619 1230 2344 
Q 1441 2069 1863 2069 
z
M 738 97 
L 738 678 
Q 934 563 1156 502 
Q 1378 441 1619 441 
Q 2219 441 2526 892 
Q 2834 1344 2834 2222 
Q 2688 1909 2422 1742 
Q 2156 1575 1813 1575 
Q 1138 1575 767 1990 
Q 397 2406 397 3169 
Q 397 3922 776 4336 
Q 1156 4750 1850 4750 
Q 2663 4750 3041 4165 
Q 3419 3581 3419 2328 
Q 3419 1150 2964 529 
Q 2509 -91 1644 -91 
Q 1416 -91 1184 -42 
Q 953 6 738 97 
z
" transform="scale(0.015625)"/>
        <path id="DejaVuSansMono-b0" d="M 1925 4750 
Q 2128 4750 2311 4673 
Q 2494 4597 2631 4453 
Q 2772 4313 2845 4134 
Q 2919 3956 2919 3750 
Q 2919 3338 2628 3052 
Q 2338 2766 1919 2766 
Q 1497 2766 1215 3047 
Q 934 3328 934 3750 
Q 934 4169 1221 4459 
Q 1509 4750 1925 4750 
z
M 1925 4347 
Q 1678 4347 1504 4173 
Q 1331 4000 1331 3750 
Q 1331 3500 1501 3331 
Q 1672 3163 1919 3163 
Q 2169 3163 2345 3334 
Q 2522 3506 2522 3750 
Q 2522 3997 2347 4172 
Q 2172 4347 1925 4347 
z
" transform="scale(0.015625)"/>
        <path id="DejaVuSansMono-53" d="M 3163 4506 
L 3163 3866 
Q 2875 4050 2586 4144 
Q 2297 4238 2003 4238 
Q 1556 4238 1297 4030 
Q 1038 3822 1038 3469 
Q 1038 3159 1208 2996 
Q 1378 2834 1844 2725 
L 2175 2650 
Q 2831 2497 3131 2169 
Q 3431 1841 3431 1275 
Q 3431 609 3018 259 
Q 2606 -91 1819 -91 
Q 1491 -91 1159 -20 
Q 828 50 494 191 
L 494 863 
Q 853 634 1173 528 
Q 1494 422 1819 422 
Q 2297 422 2562 636 
Q 2828 850 2828 1234 
Q 2828 1584 2645 1768 
Q 2463 1953 2009 2053 
L 1672 2131 
Q 1022 2278 728 2575 
Q 434 2872 434 3372 
Q 434 3997 854 4373 
Q 1275 4750 1972 4750 
Q 2241 4750 2537 4689 
Q 2834 4628 3163 4506 
z
" transform="scale(0.015625)"/>
       </defs>
       <use xlink:href="#DejaVuSansMono-39"/>
       <use xlink:href="#DejaVuSansMono-30" x="60.205078"/>
       <use xlink:href="#DejaVuSansMono-b0" x="120.410156"/>
       <use xlink:href="#DejaVuSansMono-53" x="180.615234"/>
      </g>
     </g>
    </g>
    <g id="ytick_2">
     <g id="line2d_8">
      <g>
       <use xlink:href="#md4acaf83e0" x="144" y="558.8196" style="stroke: #000000; stroke-width: 0.8"/>
      </g>
     </g>
     <g id="text_9">
      <!-- 60°S -->
      <g transform="translate(93.65375 565.706006) scale(0.18 -0.18)">
       <use xlink:href="#DejaVuSansMono-36"/>
       <use xlink:href="#DejaVuSansMono-30" x="60.205078"/>
       <use xlink:href="#DejaVuSansMono-b0" x="120.410156"/>
       <use xlink:href="#DejaVuSansMono-53" x="180.615234"/>
      </g>
     </g>
    </g>
    <g id="ytick_3">
     <g id="line2d_9">
      <g>
       <use xlink:href="#md4acaf83e0" x="144" y="464.664" style="stroke: #000000; stroke-width: 0.8"/>
      </g>
     </g>
     <g id="text_10">
      <!-- 30°S -->
      <g transform="translate(93.65375 471.550406) scale(0.18 -0.18)">
       <use xlink:href="#DejaVuSansMono-33"/>
       <use xlink:href="#DejaVuSansMono-30" x="60.205078"/>
       <use xlink:href="#DejaVuSansMono-b0" x="120.410156"/>
       <use xlink:href="#DejaVuSansMono-53" x="180.615234"/>
      </g>
     </g>
    </g>
    <g id="ytick_4">
     <g id="line2d_10">
      <g>
       <use xlink:href="#md4acaf83e0" x="144" y="370.5084" style="stroke: #000000; stroke-width: 0.8"/>
      </g>
     </g>
     <g id="text_11">
      <!-- 0° -->
      <g transform="translate(115.326875 377.394806) scale(0.18 -0.18)">
       <use xlink:href="#DejaVuSansMono-30"/>
       <use xlink:href="#DejaVuSansMono-b0" x="60.205078"/>
      </g>
     </g>
    </g>
    <g id="ytick_5">
     <g id="line2d_11">
      <g>
       <use xlink:href="#md4acaf83e0" x="144" y="276.3528" style="stroke: #000000; stroke-width: 0.8"/>
      </g>
     </g>
     <g id="text_12">
      <!-- 30°N -->
      <g transform="translate(93.65375 283.239206) scale(0.18 -0.18)">
       <defs>
        <path id="DejaVuSansMono-4e" d="M 434 4666 
L 1234 4666 
L 2809 825 
L 2809 4666 
L 3419 4666 
L 3419 0 
L 2619 0 
L 1044 3841 
L 1044 0 
L 434 0 
L 434 4666 
z
" transform="scale(0.015625)"/>
       </defs>
       <use xlink:href="#DejaVuSansMono-33"/>
       <use xlink:href="#DejaVuSansMono-30" x="60.205078"/>
       <use xlink:href="#DejaVuSansMono-b0" x="120.410156"/>
       <use xlink:href="#DejaVuSansMono-4e" x="180.615234"/>
      </g>
     </g>
    </g>
    <g id="ytick_6">
     <g id="line2d_12">
      <g>
       <use xlink:href="#md4acaf83e0" x="144" y="182.1972" style="stroke: #000000; stroke-width: 0.8"/>
      </g>
     </g>
     <g id="text_13">
      <!-- 60°N -->
      <g transform="translate(93.65375 189.083606) scale(0.18 -0.18)">
       <use xlink:href="#DejaVuSansMono-36"/>
       <use xlink:href="#DejaVuSansMono-30" x="60.205078"/>
       <use xlink:href="#DejaVuSansMono-b0" x="120.410156"/>
       <use xlink:href="#DejaVuSansMono-4e" x="180.615234"/>
      </g>
     </g>
    </g>
    <g id="ytick_7">
     <g id="line2d_13">
      <g>
       <use xlink:href="#md4acaf83e0" x="144" y="88.0416" style="stroke: #000000; stroke-width: 0.8"/>
      </g>
     </g>
     <g id="text_14">
      <!-- 90°N -->
      <g transform="translate(93.65375 94.928006) scale(0.18 -0.18)">
       <use xlink:href="#DejaVuSansMono-39"/>
       <use xlink:href="#DejaVuSansMono-30" x="60.205078"/>
       <use xlink:href="#DejaVuSansMono-b0" x="120.410156"/>
       <use xlink:href="#DejaVuSansMono-4e" x="180.615234"/>
      </g>
     </g>
    </g>
    <g id="text_15">
     <!-- Latitude -->
     <g transform="translate(84.6625 428.3034) rotate(-90) scale(0.24 -0.24)">
      <defs>
       <path id="DejaVuSansMono-4c" d="M 672 4666 
L 1306 4666 
L 1306 531 
L 3559 531 
L 3559 0 
L 672 0 
L 672 4666 
z
" transform="scale(0.015625)"/>
       <path id="DejaVuSansMono-61" d="M 2194 1759 
L 2003 1759 
Q 1500 1759 1245 1582 
Q 991 1406 991 1056 
Q 991 741 1181 566 
Q 1372 391 1709 391 
Q 2184 391 2456 720 
Q 2728 1050 2731 1631 
L 2731 1759 
L 2194 1759 
z
M 3309 1997 
L 3309 0 
L 2731 0 
L 2731 519 
Q 2547 206 2267 57 
Q 1988 -91 1588 -91 
Q 1053 -91 734 211 
Q 416 513 416 1019 
Q 416 1603 808 1906 
Q 1200 2209 1959 2209 
L 2731 2209 
L 2731 2300 
Q 2728 2719 2518 2908 
Q 2309 3097 1850 3097 
Q 1556 3097 1256 3012 
Q 956 2928 672 2766 
L 672 3341 
Q 991 3463 1283 3523 
Q 1575 3584 1850 3584 
Q 2284 3584 2592 3456 
Q 2900 3328 3091 3072 
Q 3209 2916 3259 2686 
Q 3309 2456 3309 1997 
z
" transform="scale(0.015625)"/>
       <path id="DejaVuSansMono-74" d="M 1919 4494 
L 1919 3500 
L 3225 3500 
L 3225 3053 
L 1919 3053 
L 1919 1153 
Q 1919 766 2066 612 
Q 2213 459 2578 459 
L 3225 459 
L 3225 0 
L 2522 0 
Q 1875 0 1609 259 
Q 1344 519 1344 1153 
L 1344 3053 
L 409 3053 
L 409 3500 
L 1344 3500 
L 1344 4494 
L 1919 4494 
z
" transform="scale(0.015625)"/>
       <path id="DejaVuSansMono-69" d="M 800 3500 
L 2272 3500 
L 2272 447 
L 3413 447 
L 3413 0 
L 556 0 
L 556 447 
L 1697 447 
L 1697 3053 
L 800 3053 
L 800 3500 
z
M 1697 4863 
L 2272 4863 
L 2272 4134 
L 1697 4134 
L 1697 4863 
z
" transform="scale(0.015625)"/>
       <path id="DejaVuSansMono-75" d="M 609 1325 
L 609 3494 
L 1184 3494 
L 1184 1325 
Q 1184 853 1351 631 
Q 1519 409 1869 409 
Q 2275 409 2490 695 
Q 2706 981 2706 1516 
L 2706 3494 
L 3284 3494 
L 3284 0 
L 2706 0 
L 2706 525 
Q 2553 222 2289 65 
Q 2025 -91 1672 -91 
Q 1134 -91 871 261 
Q 609 613 609 1325 
z
" transform="scale(0.015625)"/>
       <path id="DejaVuSansMono-64" d="M 2681 3053 
L 2681 4863 
L 3256 4863 
L 3256 0 
L 2681 0 
L 2681 441 
Q 2538 181 2298 45 
Q 2059 -91 1747 -91 
Q 1113 -91 748 401 
Q 384 894 384 1759 
Q 384 2613 750 3098 
Q 1116 3584 1747 3584 
Q 2063 3584 2303 3448 
Q 2544 3313 2681 3053 
z
M 991 1747 
Q 991 1078 1203 737 
Q 1416 397 1831 397 
Q 2247 397 2464 740 
Q 2681 1084 2681 1747 
Q 2681 2413 2464 2755 
Q 2247 3097 1831 3097 
Q 1416 3097 1203 2756 
Q 991 2416 991 1747 
z
" transform="scale(0.015625)"/>
       <path id="DejaVuSansMono-65" d="M 3475 1894 
L 3475 1613 
L 984 1613 
L 984 1594 
Q 984 1022 1282 709 
Q 1581 397 2125 397 
Q 2400 397 2700 484 
Q 3000 572 3341 750 
L 3341 178 
Q 3013 44 2708 -23 
Q 2403 -91 2119 -91 
Q 1303 -91 843 398 
Q 384 888 384 1747 
Q 384 2584 834 3084 
Q 1284 3584 2034 3584 
Q 2703 3584 3089 3131 
Q 3475 2678 3475 1894 
z
M 2900 2063 
Q 2888 2569 2661 2833 
Q 2434 3097 2009 3097 
Q 1594 3097 1325 2822 
Q 1056 2547 1006 2059 
L 2900 2063 
z
" transform="scale(0.015625)"/>
      </defs>
      <use xlink:href="#DejaVuSansMono-4c"/>
      <use xlink:href="#DejaVuSansMono-61" x="60.205078"/>
      <use xlink:href="#DejaVuSansMono-74" x="120.410156"/>
      <use xlink:href="#DejaVuSansMono-69" x="180.615234"/>
      <use xlink:href="#DejaVuSansMono-74" x="240.820312"/>
      <use xlink:href="#DejaVuSansMono-75" x="301.025391"/>
      <use xlink:href="#DejaVuSansMono-64" x="361.230469"/>
      <use xlink:href="#DejaVuSansMono-65" x="421.435547"/>
     </g>
    </g>
   </g>
   <g id="line2d_14">
    <path d="M 552.362848 113.14976 
L 552.362848 117.85754 
L 552.678989 119.4268 
L 552.678989 120.99606 
L 553.074111 122.56532 
L 553.074111 125.70384 
L 558.583507 127.2731 
L 558.583507 128.84236 
L 569.020925 130.41162 
L 569.478131 131.98088 
L 572.142563 135.1194 
L 575.664954 136.68866 
L 578.363222 138.25792 
L 579.582511 139.82718 
L 574.682782 141.39644 
L 576.551206 144.53496 
L 576.737503 146.10422 
L 580.700204 149.24274 
L 580.965526 150.812 
L 582.777542 152.38126 
L 583.426676 153.95052 
L 584.72499 155.51978 
L 585.142772 157.08904 
L 586.768447 158.6583 
L 587.067648 160.22756 
L 588.580463 161.79682 
L 590.917445 163.36608 
L 592.266579 164.93534 
L 592.537532 166.5046 
L 594.281788 168.07386 
L 596.122052 171.21238 
L 597.747771 172.78164 
L 598.854156 174.3509 
L 599.463823 175.92016 
L 600.327458 177.48942 
L 602.077435 179.05868 
L 603.262844 180.62794 
L 605.407897 182.1972 
L 608.569047 183.76646 
L 610.285099 185.33572 
L 611.6737 186.90498 
L 612.893034 188.47424 
L 614.65423 190.0435 
L 615.60261 191.61276 
L 617.640391 193.18202 
L 618.035512 194.75128 
L 620.965221 196.32054 
L 621.981274 197.8898 
L 624.233644 199.45906 
L 627.315725 201.02832 
L 628.670491 202.59758 
L 631.475987 204.16684 
L 632.41306 205.7361 
L 634.716206 207.30536 
L 634.947603 208.87462 
L 637.250749 210.44388 
L 638.125693 212.01314 
L 639.999837 213.5824 
L 640.620724 215.15166 
L 643.256907 216.72092 
L 645.306041 219.85944 
L 646.813179 221.4287 
L 647.9083 222.99796 
L 648.489718 224.56722 
L 650.313043 226.13648 
L 652.350823 227.70574 
L 654.049935 229.275 
L 656.375653 230.84426 
L 658.944077 232.41352 
L 659.83596 233.98278 
L 662.048774 235.55204 
L 663.064826 237.1213 
L 664.622829 238.69056 
L 665.046199 240.25982 
L 667.439634 241.82908 
L 667.823447 243.39834 
L 669.059721 244.9676 
L 670.899941 248.10612 
L 671.453156 249.67538 
L 673.061934 252.8139 
L 673.395016 254.38316 
L 674.258652 255.95242 
L 674.444904 257.52168 
L 675.427165 259.09094 
L 675.833595 260.6602 
L 676.386765 262.22946 
L 676.618206 263.79872 
L 677.368981 265.36798 
L 677.83754 266.93724 
L 678.334302 270.07576 
L 678.729424 271.64502 
L 678.921352 274.78354 
L 679.293902 276.3528 
L 679.451995 277.92206 
L 679.593059 282.62984 
L 680.044677 284.1991 
L 679.999533 285.76836 
L 680.072881 287.33762 
L 679.869689 288.90688 
L 679.779356 290.47614 
L 679.87532 292.0454 
L 679.852748 293.61466 
L 680.451107 295.18392 
L 680.631728 296.75318 
L 681.235718 298.32244 
L 685.920991 299.8917 
L 685.977443 301.46096 
L 688.128173 303.03022 
L 688.782984 304.59948 
L 690.216774 306.16874 
L 692.192471 307.738 
L 692.965818 310.87652 
L 693.372292 314.01504 
L 693.36094 315.5843 
L 694.055307 317.15356 
L 695.878587 318.72282 
L 695.957655 320.29208 
L 698.949404 321.86134 
L 698.526079 323.4306 
L 699.71712 324.99986 
L 698.559915 328.13838 
L 697.718807 329.70764 
L 697.605947 331.2769 
L 696.911623 332.84616 
L 698.746212 334.41542 
L 698.051888 335.98468 
L 697.775303 337.55394 
L 696.776147 339.1232 
L 696.634994 340.69246 
L 695.489097 342.26172 
L 695.477789 343.83098 
L 694.704486 345.40024 
L 694.134331 346.9695 
L 693.417436 348.53876 
L 693.078722 350.10802 
L 692.50298 354.8158 
L 692.000542 356.38506 
L 690.916729 361.09284 
L 690.431275 362.6621 
L 690.380455 364.23136 
L 689.516819 365.80062 
L 689.43775 367.36988 
L 688.57407 368.93914 
L 688.534603 370.5084 
L 688.687019 372.07766 
L 688.252386 373.64692 
L 688.077353 375.21618 
L 687.349194 376.78544 
L 685.734738 378.3547 
L 685.26618 379.92396 
L 683.657445 381.49322 
L 683.098599 383.06248 
L 681.405075 384.63174 
L 680.699444 386.201 
L 678.735055 387.77026 
L 678.114125 389.33952 
L 675.940867 390.90878 
L 675.269116 392.47804 
L 673.564373 394.0473 
L 672.232135 395.61656 
L 670.171738 397.18582 
L 669.031473 398.75508 
L 665.322829 401.8936 
L 663.917198 403.46286 
L 660.202878 406.60138 
L 659.316626 408.17064 
L 656.719999 409.7399 
L 654.704746 411.30916 
L 653.462884 412.87842 
L 651.571844 414.44768 
L 649.963065 416.01694 
L 644.628613 422.29398 
L 643.369812 423.86324 
L 642.969014 425.4325 
L 641.518284 427.00176 
L 641.21345 428.57102 
L 639.920769 430.14028 
L 639.582055 431.70954 
L 638.690171 433.2788 
L 638.464362 434.84806 
L 637.437046 436.41732 
L 637.245117 437.98658 
L 636.793499 439.55584 
L 636.138732 444.26362 
L 635.980639 448.9714 
L 636.308001 450.54066 
L 636.274165 452.10992 
L 636.940284 455.24844 
L 637.115273 456.8177 
L 637.651547 458.38696 
L 637.787024 459.95622 
L 638.238597 461.52548 
L 638.47567 463.09474 
L 639.068397 464.664 
L 639.37323 466.23326 
L 640.411899 469.37178 
L 640.564316 470.94104 
L 641.258595 472.5103 
L 641.687641 474.07956 
L 642.686753 475.64882 
L 642.969014 477.21808 
L 644.075443 478.78734 
L 644.961695 480.3566 
L 645.977747 481.92586 
L 646.818855 483.49512 
L 648.184885 485.06438 
L 648.653443 486.63364 
L 651.509716 491.34142 
L 652.508916 492.91068 
L 653.762086 494.47994 
L 654.298316 496.0492 
L 655.653082 497.61846 
L 656.556274 499.18772 
L 658.825496 502.32624 
L 661.066514 503.8955 
L 661.331879 505.46476 
L 664.831698 507.03402 
L 665.655822 508.60328 
L 667.315421 510.17254 
L 668.111385 511.7418 
L 669.556483 513.31106 
L 670.149166 514.88032 
L 672.678121 518.01884 
L 673.061934 519.5881 
L 674.602997 521.15736 
L 675.212664 522.72662 
L 676.527918 524.29588 
L 677.498826 525.86514 
L 679.260066 527.4344 
L 680.332526 529.00366 
L 682.014742 530.57292 
L 682.878377 532.14218 
L 685.000903 533.71144 
L 685.446801 535.2807 
L 687.095136 536.84996 
L 689.990965 541.55774 
L 691.989278 543.127 
L 692.50298 544.69626 
L 693.840806 546.26552 
L 695.69229 549.40404 
L 696.318897 550.9733 
L 697.854328 552.54256 
L 698.328518 554.11182 
L 700.631576 557.25034 
L 701.292063 558.8196 
L 702.104922 560.38886 
L 703.4145 561.95812 
L 703.442748 563.52738 
L 704.221772 565.09664 
L 704.599953 566.6659 
L 706.507934 569.80442 
L 707.168376 571.37368 
L 708.060305 572.94294 
L 708.619151 574.5122 
L 709.990813 576.08146 
L 710.16017 577.65072 
L 711.402075 579.21998 
L 711.768993 580.78924 
L 712.694757 582.3585 
L 713.338215 583.92776 
L 714.111607 585.49702 
L 714.743846 587.06628 
L 716.273601 591.77406 
L 716.392137 593.34332 
L 716.939675 594.91258 
L 717.605794 598.0511 
L 718.119452 599.62036 
L 718.520295 602.75888 
L 719.304906 604.32814 
L 719.406502 605.8974 
L 721.105658 607.46666 
L 721.393507 609.03592 
L 722.753949 610.60518 
L 722.844237 612.17444 
L 723.115235 613.7437 
L 723.78131 615.31296 
L 724.594169 616.88222 
L 725.83603 618.45148 
L 729.860816 620.02074 
L 730.549507 621.59 
L 731.458331 623.15926 
L 731.847865 624.72852 
L 731.435759 626.29778 
L 731.836557 629.4363 
L 731.864761 631.00556 
L 733.309859 632.57482 
L 734.22436 634.14408 
L 733.688085 635.71334 
L 734.495313 637.2826 
L 734.286488 638.85186 
L 735.432385 640.42112 
L 736.239568 641.99038 
L 735.827507 643.55964 
L 733.789726 645.1289 
L 725.068315 646.69816 
L 728.79962 648.26742 
L 733.705025 649.83668 
L 736.820987 651.40594 
L 736.820987 652.9752 
L 736.820987 652.9752 
" clip-path="url(#p643358ef30)" style="fill: none; stroke: #00005a; stroke-width: 4"/>
   </g>
   <g id="line2d_15">
    <path d="M 313.673275 88.0416 
L 313.673275 91.18012 
L 319.122194 92.74938 
L 324.897732 95.8879 
L 325.351812 97.45716 
L 325.638596 99.02642 
L 325.678419 100.59568 
L 326.443196 102.16494 
L 326.108607 103.7342 
L 327.279648 105.30346 
L 328.012541 106.87272 
L 328.100179 108.44198 
L 329.087983 110.01124 
L 330.378514 111.5805 
L 331.979732 113.14976 
L 333.34197 116.28828 
L 336.002699 117.85754 
L 338.312919 119.4268 
L 346.175617 122.56532 
L 350.541111 124.13458 
L 357.352258 125.70384 
L 365.095465 128.84236 
L 367.620762 130.41162 
L 372.647476 131.98088 
L 375.810089 133.55014 
L 377.968934 135.1194 
L 388.930498 136.68866 
L 393.630582 138.25792 
L 396.665724 139.82718 
L 401.557027 141.39644 
L 404.998421 142.9657 
L 411.275843 144.53496 
L 413.737415 146.10422 
L 417.529362 147.67348 
L 423.456252 149.24274 
L 427.335805 150.812 
L 430.211634 152.38126 
L 432.768816 153.95052 
L 436.090719 155.51978 
L 440.265061 157.08904 
L 442.989515 158.6583 
L 450.230839 160.22756 
L 454.628218 161.79682 
L 461.463245 163.36608 
L 463.916857 164.93534 
L 467.963727 166.5046 
L 472.870928 168.07386 
L 479.698017 169.64312 
L 483.872337 171.21238 
L 494.300154 174.3509 
L 498.697533 175.92016 
L 502.202696 177.48942 
L 507.181605 179.05868 
L 511.332022 180.62794 
L 519.059288 182.1972 
L 523.217687 183.76646 
L 530.371339 185.33572 
L 533.924329 186.90498 
L 536.640823 188.47424 
L 542.121616 190.0435 
L 546.017089 191.61276 
L 552.390121 193.18202 
L 555.943066 194.75128 
L 560.547541 196.32054 
L 565.765451 197.8898 
L 569.11924 199.45906 
L 577.611249 201.02832 
L 577.985706 202.59758 
L 581.570492 204.16684 
L 586.143126 205.7361 
L 589.19421 207.30536 
L 594.651056 208.87462 
L 597.447239 210.44388 
L 601.223245 212.01314 
L 603.286524 213.5824 
L 605.891444 215.15166 
L 609.181508 216.72092 
L 611.252769 218.29018 
L 614.837555 219.85944 
L 618.008151 221.4287 
L 620.557373 222.99796 
L 623.743844 224.56722 
L 626.245261 226.13648 
L 629.806189 227.70574 
L 631.781796 229.275 
L 633.128092 230.84426 
L 634.753235 232.41352 
L 636.067646 233.98278 
L 638.696513 235.55204 
L 641.723694 237.1213 
L 643.691364 238.69056 
L 644.902227 240.25982 
L 645.682936 241.82908 
L 646.8938 243.39834 
L 647.714287 244.9676 
L 648.965017 246.53686 
L 650.518453 249.67538 
L 651.665591 251.24464 
L 652.406433 252.8139 
L 653.951886 254.38316 
L 656.317871 257.52168 
L 657.106517 259.09094 
L 657.767758 260.6602 
L 658.715695 262.22946 
L 659.281327 263.79872 
L 661.225094 265.36798 
L 662.348286 266.93724 
L 662.611213 268.5065 
L 664.172586 270.07576 
L 664.586865 271.64502 
L 665.710101 273.21428 
L 666.315511 274.78354 
L 667.422827 276.3528 
L 669.071872 279.49132 
L 670.083578 282.62984 
L 671.007657 284.1991 
L 672.099009 287.33762 
L 672.69648 290.47614 
L 672.760205 293.61466 
L 673.246192 295.18392 
L 674.186191 296.75318 
L 674.950979 298.32244 
L 676.042331 299.8917 
L 677.651509 304.59948 
L 677.603704 306.16874 
L 678.241043 307.738 
L 678.400333 309.30726 
L 679.396119 310.87652 
L 679.412039 312.44578 
L 679.786451 317.15356 
L 680.001573 320.29208 
L 679.778513 324.99986 
L 679.921884 326.56912 
L 679.523569 328.13838 
L 679.427959 329.70764 
L 679.929866 331.2769 
L 680.160863 332.84616 
L 682.255983 335.98468 
L 682.279886 337.55394 
L 682.996825 339.1232 
L 683.235849 340.69246 
L 682.877357 342.26172 
L 682.702103 343.83098 
L 682.90126 345.40024 
L 682.415318 346.9695 
L 682.088711 348.53876 
L 681.419532 350.10802 
L 681.021262 351.67728 
L 681.539044 353.24654 
L 681.300064 354.8158 
L 681.236295 356.38506 
L 680.69461 357.95432 
L 680.702592 359.52358 
L 679.993591 362.6621 
L 680.352038 364.23136 
L 680.232571 365.80062 
L 680.248491 367.36988 
L 680.041396 368.93914 
L 679.666984 370.5084 
L 679.698824 372.07766 
L 680.42379 373.64692 
L 680.160863 375.21618 
L 680.272438 376.78544 
L 679.786451 378.3547 
L 679.810398 379.92396 
L 680.200686 381.49322 
L 680.248491 383.06248 
L 680.152925 384.63174 
L 679.531551 386.201 
L 680.399843 387.77026 
L 679.985609 390.90878 
L 679.762593 392.47804 
L 679.969688 394.0473 
L 679.268669 395.61656 
L 677.356786 398.75508 
L 676.591998 400.32434 
L 676.018428 401.8936 
L 675.978606 403.46286 
L 673.652444 405.03212 
L 673.007212 406.60138 
L 671.939718 408.17064 
L 670.673068 409.7399 
L 669.263047 411.30916 
L 667.550321 412.87842 
L 668.23542 414.44768 
L 667.661807 416.01694 
L 665.765844 417.5862 
L 664.077021 419.15546 
L 663.256489 420.72472 
L 661.798664 422.29398 
L 661.32066 423.86324 
L 660.133743 425.4325 
L 659.090107 428.57102 
L 658.731616 430.14028 
L 657.441151 433.2788 
L 656.899422 434.84806 
L 656.89144 436.41732 
L 656.55685 437.98658 
L 656.397516 439.55584 
L 656.55685 441.1251 
L 656.509046 442.69436 
L 656.843679 444.26362 
L 656.899422 445.83288 
L 657.226029 447.40214 
L 658.309443 450.54066 
L 658.492636 452.10992 
L 659.106028 453.67918 
L 660.47627 455.24844 
L 662.196978 459.95622 
L 662.252721 461.52548 
L 662.47578 463.09474 
L 662.404118 464.664 
L 663.049394 466.23326 
L 663.049394 467.80252 
L 663.734449 469.37178 
L 663.909704 470.94104 
L 665.311742 474.07956 
L 665.303804 475.64882 
L 664.610723 477.21808 
L 665.056842 478.78734 
L 666.124336 480.3566 
L 666.745666 481.92586 
L 667.11214 483.49512 
L 667.183847 485.06438 
L 668.745265 486.63364 
L 669.844554 488.2029 
L 671.660916 491.34142 
L 671.334264 492.91068 
L 671.923754 494.47994 
L 672.138875 496.0492 
L 673.907344 497.61846 
L 675.158074 499.18772 
L 675.970623 500.75698 
L 677.930311 502.32624 
L 678.519845 503.8955 
L 679.587294 505.46476 
L 680.94951 507.03402 
L 681.300064 508.60328 
L 682.232125 510.17254 
L 683.498732 511.7418 
L 685.976246 513.31106 
L 685.944361 514.88032 
L 687.681034 516.44958 
L 692.99451 519.5881 
L 696.874063 521.15736 
L 697.423774 522.72662 
L 700.403106 524.29588 
L 703.876406 525.86514 
L 707.907311 527.4344 
L 708.75179 529.00366 
L 715.586816 532.14218 
L 719.992134 533.71144 
L 723.927474 535.2807 
L 724.71612 536.84996 
L 728.205385 538.41922 
L 732.801877 539.98848 
L 736.330921 541.55774 
L 737.270964 543.127 
L 740.481382 544.69626 
L 742.911047 546.26552 
L 747.284569 547.83478 
L 750.024921 549.40404 
L 751.076494 550.9733 
L 752.510417 552.54256 
L 753.330904 554.11182 
L 754.4223 555.68108 
L 755.354362 557.25034 
L 758.891343 560.38886 
L 763.057724 563.52738 
L 764.643044 565.09664 
L 769.645833 568.23516 
L 771.581663 569.80442 
L 771.884324 571.37368 
L 773.899843 572.94294 
L 775.206272 574.5122 
L 778.297178 576.08146 
L 780.487907 577.65072 
L 781.117219 579.21998 
L 787.004309 582.3585 
L 788.932112 583.92776 
L 788.987855 585.49702 
L 789.951801 587.06628 
L 792.054903 588.63554 
L 793.727806 590.2048 
L 795.233437 591.77406 
L 796.045986 593.34332 
L 796.484123 594.91258 
L 798.913877 598.0511 
L 802.18802 601.18962 
L 803.430679 602.75888 
L 805.127529 604.32814 
L 807.66083 607.46666 
L 808.321983 609.03592 
L 809.819631 610.60518 
L 810.305617 612.17444 
L 811.357146 613.7437 
L 811.954574 615.31296 
L 812.042245 616.88222 
L 813.866545 618.45148 
L 814.718873 620.02074 
L 813.866545 623.15926 
L 811.667833 627.86704 
L 812.257323 631.00556 
L 812.026325 632.57482 
L 810.942912 634.14408 
L 811.118122 635.71334 
L 811.588188 637.2826 
L 813.332754 640.42112 
L 813.587698 643.55964 
L 814.049738 645.1289 
L 814.049738 646.69816 
L 814.989737 648.26742 
L 814.989737 649.83668 
L 807.979455 651.40594 
L 808.34593 652.9752 
L 808.34593 652.9752 
" clip-path="url(#p643358ef30)" style="fill: none; stroke: #00264a; stroke-width: 4"/>
   </g>
   <g id="line2d_16">
    <path d="M 428.745161 88.0416 
L 428.745161 89.61086 
L 428.474185 91.18012 
L 419.938606 94.31864 
L 419.983772 95.8879 
L 418.628918 97.45716 
L 419.170868 99.02642 
L 419.328917 100.59568 
L 421.338627 102.16494 
L 420.977319 103.7342 
L 422.693481 105.30346 
L 423.958026 106.87272 
L 428.158066 108.44198 
L 432.809725 110.01124 
L 434.051675 111.5805 
L 436.400076 113.14976 
L 445.635677 116.28828 
L 450.264763 117.85754 
L 451.755095 119.4268 
L 461.351981 120.99606 
L 467.539159 122.56532 
L 475.894074 124.13458 
L 482.600608 125.70384 
L 487.003886 127.2731 
L 494.929776 128.84236 
L 504.233115 130.41162 
L 515.117118 131.98088 
L 521.891391 133.55014 
L 526.768859 135.1194 
L 534.604417 136.68866 
L 551.811097 139.82718 
L 557.749849 141.39644 
L 562.085411 142.9657 
L 569.10802 144.53496 
L 584.350134 147.67348 
L 589.814741 149.24274 
L 591.169551 150.812 
L 596.634158 152.38126 
L 603.272954 153.95052 
L 609.076231 155.51978 
L 610.814943 157.08904 
L 622.015065 160.22756 
L 627.795814 161.79682 
L 632.876518 163.36608 
L 633.779755 164.93534 
L 638.56689 166.5046 
L 642.992784 168.07386 
L 650.783153 171.21238 
L 651.957387 172.78164 
L 656.586473 174.3509 
L 667.131741 177.48942 
L 671.828543 179.05868 
L 673.431823 180.62794 
L 679.00929 182.1972 
L 689.283604 185.33572 
L 696.351447 186.90498 
L 698.022398 188.47424 
L 705.677291 190.0435 
L 711.728993 191.61276 
L 715.861317 193.18202 
L 718.345217 194.75128 
L 719.135549 196.32054 
L 721.145259 197.8898 
L 723.380778 199.45906 
L 724.893681 201.02832 
L 726.813058 202.59758 
L 727.648534 204.16684 
L 729.500151 205.7361 
L 732.119572 207.30536 
L 735.371188 210.44388 
L 736.658326 212.01314 
L 737.606707 213.5824 
L 743.432599 218.29018 
L 744.087454 219.85944 
L 744.968119 222.99796 
L 744.945502 224.56722 
L 745.193928 226.13648 
L 745.080979 229.275 
L 746.639115 232.41352 
L 747.158449 233.98278 
L 748.513304 235.55204 
L 749.41654 240.25982 
L 749.935919 241.82908 
L 750.003635 243.39834 
L 750.319777 244.9676 
L 748.784257 248.10612 
L 749.34878 249.67538 
L 748.129446 254.38316 
L 748.061686 255.95242 
L 748.355255 257.52168 
L 748.242306 259.09094 
L 748.535876 260.6602 
L 748.964922 262.22946 
L 748.964922 265.36798 
L 745.645502 270.07576 
L 744.810026 271.64502 
L 744.674549 273.21428 
L 743.61322 274.78354 
L 742.235837 276.3528 
L 739.909986 277.92206 
L 738.758368 279.49132 
L 738.374511 281.06058 
L 736.455089 285.76836 
L 736.251852 287.33762 
L 736.274424 288.90688 
L 736.026087 290.47614 
L 735.980899 292.0454 
L 735.235755 295.18392 
L 735.100235 296.75318 
L 734.738949 298.32244 
L 733.767996 299.8917 
L 733.519571 301.46096 
L 733.158285 303.03022 
L 733.406711 304.59948 
L 733.361522 306.16874 
L 732.932476 307.738 
L 731.758286 309.30726 
L 732.187333 310.87652 
L 730.764718 314.01504 
L 730.222767 315.5843 
L 730.200195 321.86134 
L 731.216336 323.4306 
L 731.464717 326.56912 
L 730.922766 328.13838 
L 731.013143 329.70764 
L 730.538908 331.2769 
L 730.222767 332.84616 
L 729.342103 334.41542 
L 728.032392 335.98468 
L 727.377581 337.55394 
L 726.158203 339.1232 
L 725.909822 340.69246 
L 724.893681 343.83098 
L 723.674347 345.40024 
L 722.613018 348.53876 
L 721.122687 353.24654 
L 721.325924 354.8158 
L 721.325924 356.38506 
L 720.964594 357.95432 
L 720.422688 359.52358 
L 720.08393 361.09284 
L 719.993597 362.6621 
L 719.519451 365.80062 
L 718.90974 367.36988 
L 718.43555 368.93914 
L 717.66779 370.5084 
L 717.848455 373.64692 
L 717.532313 375.21618 
L 716.380696 378.3547 
L 716.945219 379.92396 
L 717.125839 383.06248 
L 716.719409 384.63174 
L 716.629077 386.201 
L 717.396792 387.77026 
L 716.900074 390.90878 
L 715.838745 392.47804 
L 714.551651 394.0473 
L 713.987128 395.61656 
L 710.012853 398.75508 
L 708.567666 400.32434 
L 706.016049 401.8936 
L 705.338622 403.46286 
L 703.870863 405.03212 
L 702.764434 406.60138 
L 701.274058 408.17064 
L 700.099869 409.7399 
L 699.128872 411.30916 
L 697.503064 412.87842 
L 695.154641 416.01694 
L 693.890074 417.5862 
L 693.799786 419.15546 
L 692.783645 420.72472 
L 692.151406 422.29398 
L 691.315886 423.86324 
L 691.383646 425.4325 
L 690.706219 427.00176 
L 690.796507 428.57102 
L 691.83522 430.14028 
L 693.212647 431.70954 
L 693.122359 433.2788 
L 694.454597 434.84806 
L 694.522402 436.41732 
L 694.115883 437.98658 
L 692.828789 441.1251 
L 691.293314 444.26362 
L 690.751363 445.83288 
L 691.180365 447.40214 
L 691.135221 448.9714 
L 693.144931 450.54066 
L 695.425638 452.10992 
L 696.938541 453.67918 
L 698.677254 455.24844 
L 698.474017 456.8177 
L 699.174016 458.38696 
L 699.219204 459.95622 
L 699.87406 463.09474 
L 699.941776 464.664 
L 701.522439 466.23326 
L 701.11601 467.80252 
L 700.506299 469.37178 
L 701.386963 470.94104 
L 702.674057 472.5103 
L 703.103103 474.07956 
L 704.412814 475.64882 
L 704.864432 477.21808 
L 705.993477 478.78734 
L 707.687001 483.49512 
L 708.070903 485.06438 
L 709.877376 486.63364 
L 710.554803 488.2029 
L 712.654801 489.77216 
L 714.258081 491.34142 
L 718.593598 494.47994 
L 720.62588 496.0492 
L 725.683969 500.75698 
L 727.942104 502.32624 
L 729.455007 503.8955 
L 733.384094 507.03402 
L 738.103513 510.17254 
L 739.616416 511.7418 
L 742.009984 513.31106 
L 743.590648 516.44958 
L 745.555213 518.01884 
L 746.729403 519.5881 
L 748.513304 521.15736 
L 749.642349 522.72662 
L 751.493966 524.29588 
L 752.261726 525.86514 
L 754.565005 527.4344 
L 756.484338 529.00366 
L 758.223095 530.57292 
L 760.187661 532.14218 
L 762.6038 533.71144 
L 763.77799 535.2807 
L 766.758652 536.84996 
L 768.723218 538.41922 
L 771.207118 539.98848 
L 773.103923 541.55774 
L 774.526494 543.127 
L 776.333011 544.69626 
L 780.013673 546.26552 
L 781.639481 547.83478 
L 783.491142 549.40404 
L 786.065374 550.9733 
L 786.945994 552.54256 
L 789.000893 554.11182 
L 790.242798 555.68108 
L 792.862219 557.25034 
L 793.742839 558.8196 
L 795.594501 560.38886 
L 796.746118 561.95812 
L 798.371926 563.52738 
L 798.936449 565.09664 
L 800.155827 566.6659 
L 800.42678 568.23516 
L 801.939727 569.80442 
L 803.633251 572.94294 
L 804.649436 574.5122 
L 805.191387 577.65072 
L 805.778482 579.21998 
L 806.230056 580.78924 
L 806.252672 582.3585 
L 807.246241 583.92776 
L 807.517194 585.49702 
L 807.607527 587.06628 
L 807.87848 588.63554 
L 808.533335 590.2048 
L 809.910806 591.77406 
L 809.594665 593.34332 
L 810.904331 594.91258 
L 810.497901 596.48184 
L 811.943088 598.0511 
L 811.988232 599.62036 
L 812.733376 602.75888 
L 811.762423 604.32814 
L 811.672091 605.8974 
L 810.859187 607.46666 
L 807.065576 609.03592 
L 806.501053 610.60518 
L 805.778482 612.17444 
L 806.501053 613.7437 
L 808.465619 615.31296 
L 808.872049 616.88222 
L 810.520473 618.45148 
L 806.297816 620.02074 
L 809.617237 621.59 
L 803.181677 623.15926 
L 782.971763 624.72852 
L 785.681428 626.29778 
L 788.029851 627.86704 
L 789.158897 629.4363 
L 792.794459 631.00556 
L 793.92346 632.57482 
L 794.397695 634.14408 
L 795.955742 635.71334 
L 825.039971 637.2826 
L 825.039971 638.85186 
L 825.039971 638.85186 
" clip-path="url(#p643358ef30)" style="fill: none; stroke: #0077b2; stroke-width: 4"/>
   </g>
   <g id="line2d_17">
    <path d="M 735.491808 92.74938 
L 735.491808 99.02642 
L 736.889634 100.59568 
L 734.920323 102.16494 
L 735.315046 103.7342 
L 735.545245 105.30346 
L 735.545245 106.87272 
L 755.217643 108.44198 
L 755.262832 111.5805 
L 756.730591 113.14976 
L 756.726467 114.71902 
L 757.540524 116.28828 
L 757.581588 117.85754 
L 757.199282 119.4268 
L 757.700834 120.99606 
L 757.996842 122.56532 
L 758.087308 124.13458 
L 757.972186 125.70384 
L 757.988638 128.84236 
L 758.276443 130.41162 
L 758.810899 136.68866 
L 760.43072 139.82718 
L 762.161583 146.10422 
L 762.334222 147.67348 
L 763.279809 149.24274 
L 764.159675 152.38126 
L 764.065085 153.95052 
L 764.122646 155.51978 
L 764.529652 157.08904 
L 764.295329 158.6583 
L 764.887346 160.22756 
L 764.472091 161.79682 
L 764.628322 163.36608 
L 764.739319 166.5046 
L 764.833909 168.07386 
L 765.216259 169.64312 
L 765.964507 174.3509 
L 765.989163 175.92016 
L 766.535992 177.48942 
L 766.642865 179.05868 
L 767.226634 180.62794 
L 767.008763 182.1972 
L 766.716834 188.47424 
L 766.186502 190.0435 
L 764.981891 196.32054 
L 764.204863 197.8898 
L 764.213111 199.45906 
L 763.497724 201.02832 
L 761.861451 202.59758 
L 756.623717 205.7361 
L 752.130063 207.30536 
L 751.110463 208.87462 
L 747.023904 210.44388 
L 744.931267 212.01314 
L 743.31965 213.5824 
L 740.569232 216.72092 
L 737.798236 219.85944 
L 737.67899 221.4287 
L 735.48356 224.56722 
L 734.114515 226.13648 
L 732.437133 229.275 
L 731.680637 230.84426 
L 728.53554 235.55204 
L 727.454299 237.1213 
L 726.615586 238.69056 
L 725.464457 240.25982 
L 724.658604 241.82908 
L 723.301931 243.39834 
L 722.134305 244.9676 
L 720.592577 246.53686 
L 718.820649 248.10612 
L 717.899719 249.67538 
L 716.415552 251.24464 
L 715.580963 252.8139 
L 714.039235 254.38316 
L 713.216929 255.95242 
L 710.178751 260.6602 
L 708.628774 262.22946 
L 707.707844 263.79872 
L 706.626603 265.36798 
L 704.299643 268.5065 
L 703.543147 270.07576 
L 702.609889 271.64502 
L 701.405278 273.21428 
L 700.574813 274.78354 
L 699.279781 276.3528 
L 697.195348 279.49132 
L 695.974285 281.06058 
L 694.194109 284.1991 
L 692.709942 285.76836 
L 691.723291 287.33762 
L 690.391231 288.90688 
L 689.478504 290.47614 
L 688.031366 292.0454 
L 686.181301 293.61466 
L 685.289151 295.18392 
L 683.751503 296.75318 
L 682.744231 298.32244 
L 681.079177 299.8917 
L 679.956828 301.46096 
L 678.690577 303.03022 
L 677.025478 304.59948 
L 676.199138 306.16874 
L 674.677942 307.738 
L 673.818696 309.30726 
L 669.834887 314.01504 
L 668.186285 315.5843 
L 667.125576 317.15356 
L 665.69897 318.72282 
L 664.90141 320.29208 
L 663.075957 321.86134 
L 661.43556 323.4306 
L 658.713922 326.56912 
L 657.616229 328.13838 
L 656.17317 329.70764 
L 654.245012 332.84616 
L 652.300358 334.41542 
L 646.585685 335.98468 
L 643.144579 339.1232 
L 641.948173 340.69246 
L 640.110436 342.26172 
L 639.164849 343.83098 
L 636.504896 346.9695 
L 635.4935 348.53876 
L 633.663968 350.10802 
L 633.207649 351.67728 
L 631.707029 353.24654 
L 630.831332 354.8158 
L 627.825969 357.95432 
L 626.662511 359.52358 
L 625.009785 361.09284 
L 623.213157 364.23136 
L 622.086639 365.80062 
L 620.384601 367.36988 
L 614.978265 368.93914 
L 591.618065 370.5084 
L 589.99412 372.07766 
L 588.098823 373.64692 
L 586.380332 375.21618 
L 583.444902 378.3547 
L 581.796257 379.92396 
L 580.431335 381.49322 
L 578.400384 383.06248 
L 576.813423 384.63174 
L 575.423801 386.201 
L 573.314713 387.77026 
L 571.534537 389.33952 
L 569.565226 390.90878 
L 568.167445 392.47804 
L 566.128245 394.0473 
L 564.422082 395.61656 
L 561.844302 397.18582 
L 560.302574 398.75508 
L 558.214062 400.32434 
L 556.623021 401.8936 
L 554.633134 403.46286 
L 548.749902 409.7399 
L 547.545336 411.30916 
L 547.088973 412.87842 
L 545.284141 416.01694 
L 543.968532 419.15546 
L 543.076382 420.72472 
L 542.517225 422.29398 
L 540.663036 425.4325 
L 539.109025 428.57102 
L 538.545788 430.14028 
L 537.637141 431.70954 
L 537.51794 433.2788 
L 536.609337 434.84806 
L 534.385171 441.1251 
L 533.678032 442.69436 
L 533.587566 444.26362 
L 532.736569 445.83288 
L 532.399408 447.40214 
L 531.729298 448.9714 
L 531.466149 450.54066 
L 530.648013 453.67918 
L 529.620209 456.8177 
L 529.110409 458.38696 
L 528.571828 461.52548 
L 528.337505 463.09474 
L 527.914046 464.664 
L 527.305577 466.23326 
L 526.927307 467.80252 
L 525.147131 469.37178 
L 524.748373 470.94104 
L 521.804695 472.5103 
L 521.911569 474.07956 
L 521.496314 475.64882 
L 521.389441 477.21808 
L 520.82208 478.78734 
L 520.715206 480.3566 
L 520.119065 481.92586 
L 520.049176 483.49512 
L 519.148822 486.63364 
L 517.718091 492.91068 
L 517.903102 494.47994 
L 517.623546 496.0492 
L 516.266829 499.18772 
L 515.699446 500.75698 
L 514.89366 502.32624 
L 513.709625 503.8955 
L 512.977808 505.46476 
L 513.12579 508.60328 
L 513.754836 511.7418 
L 513.980955 513.31106 
L 514.490755 514.88032 
L 514.618183 516.44958 
L 514.568871 519.5881 
L 514.708649 522.72662 
L 515.152639 524.29588 
L 515.263659 529.00366 
L 515.69122 530.57292 
L 515.921463 532.14218 
L 518.306029 539.98848 
L 519.210463 541.55774 
L 519.333788 543.127 
L 519.691482 544.69626 
L 519.736759 546.26552 
L 520.024519 547.83478 
L 520.5631 549.40404 
L 521.303099 555.68108 
L 521.58678 557.25034 
L 522.010238 558.8196 
L 522.25281 560.38886 
L 523.14496 561.95812 
L 523.486201 563.52738 
L 524.012454 568.23516 
L 524.477021 569.80442 
L 524.563362 571.37368 
L 525.069038 572.94294 
L 525.291033 574.5122 
L 526.479192 579.21998 
L 526.446332 580.78924 
L 526.565578 582.3585 
L 526.442207 583.92776 
L 527.042428 587.06628 
L 527.465887 588.63554 
L 527.934578 593.34332 
L 527.556353 596.48184 
L 527.359014 598.0511 
L 527.359014 599.62036 
L 527.050677 601.18962 
L 527.145222 602.75888 
L 528.012716 604.32814 
L 527.92225 605.8974 
L 528.341629 607.46666 
L 528.769167 610.60518 
L 527.63449 612.17444 
L 528.025 615.31296 
L 527.687927 616.88222 
L 527.716707 618.45148 
L 528.888369 620.02074 
L 529.48451 621.59 
L 528.05378 623.15926 
L 527.914046 624.72852 
L 527.005444 626.29778 
L 527.046553 629.4363 
L 525.286953 631.00556 
L 525.365047 632.57482 
L 522.470726 634.14408 
L 522.705093 635.71334 
L 522.709173 637.2826 
L 522.3474 638.85186 
L 522.754406 640.42112 
L 522.088331 641.99038 
L 523.905536 643.55964 
L 524.238573 645.1289 
L 523.132632 646.69816 
L 524.279682 648.26742 
L 524.67844 649.83668 
L 525.521277 651.40594 
L 525.521277 652.9752 
L 525.521277 652.9752 
" clip-path="url(#p643358ef30)" style="fill: none; stroke: #00b192; stroke-width: 4"/>
   </g>
   <g id="line2d_18">
    <path d="M 642.400456 88.0416 
L 655.585632 89.61086 
L 655.585632 91.18012 
L 654.092596 92.74938 
L 654.092596 99.02642 
L 654.698537 100.59568 
L 654.698537 103.7342 
L 654.965145 105.30346 
L 657.747625 106.87272 
L 657.815475 110.01124 
L 663.230148 111.5805 
L 663.278618 114.71902 
L 665.590855 116.28828 
L 665.663582 117.85754 
L 667.428104 119.4268 
L 668.935641 120.99606 
L 669.042293 122.56532 
L 670.90371 124.13458 
L 672.188321 125.70384 
L 672.30464 127.2731 
L 669.745219 128.84236 
L 667.995243 130.41162 
L 667.675332 131.98088 
L 661.32505 133.55014 
L 659.739952 135.1194 
L 659.93871 136.68866 
L 656.453347 138.25792 
L 656.433924 139.82718 
L 654.281642 141.39644 
L 653.132818 142.9657 
L 653.418805 144.53496 
L 652.759559 146.10422 
L 651.954859 147.67348 
L 652.148739 149.24274 
L 651.557387 150.812 
L 651.378008 152.38126 
L 651.877298 153.95052 
L 650.641202 155.51978 
L 651.528296 157.08904 
L 651.528296 158.6583 
L 650.835082 160.22756 
L 651.237432 161.79682 
L 651.237432 163.36608 
L 651.940314 164.93534 
L 652.837076 166.5046 
L 654.121686 168.07386 
L 654.121686 169.64312 
L 654.446476 171.21238 
L 655.54204 172.78164 
L 655.638936 174.3509 
L 656.026784 175.92016 
L 656.162483 177.48942 
L 656.002483 179.05868 
L 656.409711 182.1972 
L 656.816939 183.76646 
L 657.025364 185.33572 
L 658.450507 186.90498 
L 657.621594 188.47424 
L 657.621594 190.0435 
L 659.114631 191.61276 
L 658.208157 194.75128 
L 658.208157 196.32054 
L 657.447093 197.8898 
L 656.477604 199.45906 
L 656.28368 201.02832 
L 655.609845 202.59758 
L 653.98111 204.16684 
L 653.350955 205.7361 
L 652.570468 207.30536 
L 651.605857 208.87462 
L 651.014417 210.44388 
L 649.807411 212.01314 
L 645.682227 213.5824 
L 643.665643 215.15166 
L 638.900548 216.72092 
L 637.601392 219.85944 
L 634.086983 221.4287 
L 632.782993 224.56722 
L 630.587075 226.13648 
L 629.535191 229.275 
L 626.55883 230.84426 
L 625.443887 233.98278 
L 622.729255 235.55204 
L 622.239721 237.1213 
L 621.502871 238.69056 
L 618.88039 240.25982 
L 618.88039 241.82908 
L 616.534184 243.39834 
L 616.117288 244.9676 
L 616.117288 246.53686 
L 613.291215 248.10612 
L 613.024608 249.67538 
L 613.024608 251.24464 
L 610.145187 252.8139 
L 609.820398 254.38316 
L 609.214457 255.95242 
L 607.270645 257.52168 
L 606.465945 260.6602 
L 604.100359 262.22946 
L 604.100359 263.79872 
L 602.112867 265.36798 
L 601.497258 266.93724 
L 601.497258 268.5065 
L 597.774379 270.07576 
L 595.966221 271.64502 
L 595.966221 273.21428 
L 591.870127 274.78354 
L 590.512834 276.3528 
L 590.512834 277.92206 
L 588.064809 279.49132 
L 586.770576 281.06058 
L 586.770576 282.62984 
L 583.677807 284.1991 
L 583.173683 285.76836 
L 583.173683 287.33762 
L 579.72229 288.90688 
L 579.72229 290.47614 
L 577.846282 292.0454 
L 576.290231 293.61466 
L 576.290231 295.18392 
L 573.318748 296.75318 
L 572.305578 298.32244 
L 572.305578 299.8917 
L 569.227444 301.46096 
L 568.742699 303.03022 
L 568.742699 304.59948 
L 565.945673 306.16874 
L 565.553035 307.738 
L 565.553035 309.30726 
L 562.872372 310.87652 
L 562.455477 312.44578 
L 562.455477 314.01504 
L 559.726344 315.5843 
L 559.391888 317.15356 
L 557.729184 318.72282 
L 556.473664 320.29208 
L 555.702933 321.86134 
L 554.059609 323.4306 
L 553.565197 324.99986 
L 552.765331 326.56912 
L 551.1899 328.13838 
L 550.845732 329.70764 
L 550.099214 331.2769 
L 547.607597 332.84616 
L 547.258595 334.41542 
L 546.773851 335.98468 
L 544.238598 337.55394 
L 543.49208 339.1232 
L 541.858468 340.69246 
L 541.300996 342.26172 
L 540.922903 343.83098 
L 539.017849 345.40024 
L 538.780333 346.9695 
L 538.368271 348.53876 
L 536.545612 350.10802 
L 536.303218 351.67728 
L 535.852398 353.24654 
L 534.490271 354.8158 
L 534.340027 356.38506 
L 533.981269 357.95432 
L 532.735461 359.52358 
L 532.599762 361.09284 
L 532.25555 362.6621 
L 531.140651 364.23136 
L 531.009742 365.80062 
L 529.778523 367.36988 
L 529.778523 368.93914 
L 529.56522 370.5084 
L 527.941275 372.07766 
L 527.941275 373.64692 
L 527.805576 375.21618 
L 526.773027 376.78544 
L 526.714846 379.92396 
L 525.65325 381.49322 
L 525.585401 383.06248 
L 525.367308 384.63174 
L 524.024516 386.201 
L 523.786999 387.77026 
L 522.143719 389.33952 
L 522.143719 390.90878 
L 521.566868 392.47804 
L 518.629221 394.0473 
L 518.629221 395.61656 
L 517.848823 397.18582 
L 514.300423 398.75508 
L 514.300423 400.32434 
L 513.742973 401.8936 
L 510.218853 403.46286 
L 510.218853 405.03212 
L 509.322046 406.60138 
L 506.253579 408.17064 
L 506.253579 409.7399 
L 504.44061 411.30916 
L 502.070191 412.87842 
L 502.070191 414.44768 
L 498.211569 416.01694 
L 497.421459 417.5862 
L 497.421459 419.15546 
L 494.382083 420.72472 
L 493.790664 423.86324 
L 493.082904 425.4325 
L 493.00051 427.00176 
L 492.641818 428.57102 
L 492.147384 430.14028 
L 491.560822 433.2788 
L 490.964592 434.84806 
L 490.596166 437.98658 
L 490.712485 439.55584 
L 490.712485 441.1251 
L 489.980513 442.69436 
L 489.965989 445.83288 
L 489.466677 447.40214 
L 489.403662 448.9714 
L 489.597586 453.67918 
L 489.563662 455.24844 
L 489.9563 458.38696 
L 489.985391 461.52548 
L 490.474969 464.664 
L 490.474969 466.23326 
L 490.615567 467.80252 
L 490.911266 469.37178 
L 490.872485 472.5103 
L 491.347518 474.07956 
L 491.347518 475.64882 
L 491.468715 477.21808 
L 492.2104 478.78734 
L 492.2104 480.3566 
L 493.029601 483.49512 
L 493.029601 485.06438 
L 493.514345 486.63364 
L 494.246318 488.2029 
L 494.73594 489.77216 
L 495.458201 491.34142 
L 495.613323 492.91068 
L 496.849442 494.47994 
L 497.68321 496.0492 
L 497.707423 497.61846 
L 498.352168 499.18772 
L 499.467089 500.75698 
L 499.690082 502.32624 
L 500.218441 503.8955 
L 501.78906 505.46476 
L 501.78906 507.03402 
L 502.288328 508.60328 
L 503.572939 510.17254 
L 503.994668 511.7418 
L 505.986972 513.31106 
L 506.58808 516.44958 
L 508.522202 518.01884 
L 509.234774 521.15736 
L 511.542199 522.72662 
L 512.162709 525.86514 
L 514.247119 527.4344 
L 514.809447 529.00366 
L 515.105101 530.57292 
L 518.774676 532.14218 
L 519.836316 533.71144 
L 519.836316 535.2807 
L 521.11117 536.84996 
L 522.124296 538.41922 
L 524.320214 539.98848 
L 524.320214 541.55774 
L 525.154005 543.127 
L 526.700345 544.69626 
L 527.621364 547.83478 
L 530.70921 550.9733 
L 530.70921 552.54256 
L 535.610048 555.68108 
L 535.610048 557.25034 
L 537.083661 558.8196 
L 537.335722 560.38886 
L 537.335722 561.95812 
L 538.072573 563.52738 
L 538.058028 565.09664 
L 538.348892 566.6659 
L 538.508848 568.23516 
L 537.946542 569.80442 
L 537.180601 571.37368 
L 537.471509 572.94294 
L 537.587829 574.5122 
L 537.233949 576.08146 
L 537.306676 579.21998 
L 537.064281 580.78924 
L 536.972175 582.3585 
L 537.127297 583.92776 
L 537.60233 585.49702 
L 537.849558 588.63554 
L 537.76233 590.2048 
L 537.79142 591.77406 
L 538.329469 593.34332 
L 537.747784 594.91258 
L 539.216563 599.62036 
L 539.172971 602.75888 
L 539.502594 605.8974 
L 540.864721 607.46666 
L 541.722725 610.60518 
L 544.432478 612.17444 
L 545.411679 613.7437 
L 546.749594 615.31296 
L 546.473319 616.88222 
L 546.05159 618.45148 
L 546.163031 620.02074 
L 545.605559 621.59 
L 545.557134 623.15926 
L 546.221213 624.72852 
L 543.967113 626.29778 
L 544.631237 627.86704 
L 544.800904 629.4363 
L 544.568221 631.00556 
L 545.246846 632.57482 
L 545.023875 634.14408 
L 545.023875 635.71334 
L 547.176201 637.2826 
L 545.877045 638.85186 
L 545.877045 640.42112 
L 546.73017 641.99038 
L 546.73017 645.1289 
L 548.707951 646.69816 
L 548.707951 649.83668 
L 549.018239 651.40594 
L 549.018239 652.9752 
L 549.018239 652.9752 
" clip-path="url(#p643358ef30)" style="fill: none; stroke: #00b21d; stroke-width: 4"/>
   </g>
   <g id="line2d_19">
    <path d="M 144.171225 136.68866 
L 144.026434 652.9752 
L 144.026434 652.9752 
" clip-path="url(#p643358ef30)" style="fill: none; stroke: #369900; stroke-width: 4"/>
   </g>
   <g id="line2d_20">
    <path d="M 868.61279 146.10422 
L 868.61279 150.812 
L 862.503483 152.38126 
L 862.819093 153.95052 
L 862.819093 155.51978 
L 860.609472 157.08904 
L 860.688407 158.6583 
L 860.142599 160.22756 
L 861.95763 161.79682 
L 861.64854 163.36608 
L 861.674881 164.93534 
L 855.795685 166.5046 
L 855.591827 168.07386 
L 857.367391 169.64312 
L 857.288499 174.3509 
L 857.538388 175.92016 
L 857.314796 180.62794 
L 857.768588 182.1972 
L 857.886947 183.76646 
L 853.507128 185.33572 
L 853.625487 186.90498 
L 853.447927 188.47424 
L 851.448727 190.0435 
L 851.448727 191.61276 
L 849.903318 193.18202 
L 849.752054 194.75128 
L 847.923896 196.32054 
L 848.002788 199.45906 
L 844.629177 201.02832 
L 844.037292 202.59758 
L 843.248158 204.16684 
L 842.070997 205.7361 
L 840.288826 208.87462 
L 840.157296 210.44388 
L 837.434727 212.01314 
L 837.020448 213.5824 
L 836.158896 215.15166 
L 835.606524 216.72092 
L 834.008477 218.29018 
L 833.344265 219.85944 
L 833.225906 221.4287 
L 823.552212 222.99796 
L 821.750307 224.56722 
L 820.218025 226.13648 
L 816.2657 227.70574 
L 815.266145 230.84426 
L 815.022775 232.41352 
L 802.060969 233.98278 
L 802.205625 235.55204 
L 801.048243 237.1213 
L 794.998093 238.69056 
L 794.287806 240.25982 
L 794.425899 241.82908 
L 791.078585 243.39834 
L 789.414773 246.53686 
L 788.750605 248.10612 
L 786.12666 249.67538 
L 784.988967 251.24464 
L 784.285287 252.8139 
L 782.003338 254.38316 
L 780.648617 255.95242 
L 778.563962 257.52168 
L 776.091282 259.09094 
L 773.855364 262.22946 
L 771.724634 263.79872 
L 769.962197 265.36798 
L 766.77271 266.93724 
L 765.648188 268.5065 
L 764.3132 270.07576 
L 762.563889 271.64502 
L 761.544555 273.21428 
L 757.861854 274.78354 
L 755.875824 276.3528 
L 755.652233 277.92206 
L 754.639506 279.49132 
L 751.897159 281.06058 
L 750.555608 282.62984 
L 747.116276 284.1991 
L 743.012644 285.76836 
L 736.692872 287.33762 
L 736.528437 288.90688 
L 733.431012 290.47614 
L 729.070972 292.0454 
L 728.216028 293.61466 
L 721.758163 295.18392 
L 720.482333 296.75318 
L 715.004289 298.32244 
L 714.636041 299.8917 
L 711.834536 301.46096 
L 708.677954 303.03022 
L 707.487667 304.59948 
L 701.897827 306.16874 
L 700.786431 307.738 
L 697.85996 309.30726 
L 692.54635 310.87652 
L 689.041165 314.01504 
L 687.732519 315.5843 
L 678.762461 317.15356 
L 677.361753 318.72282 
L 674.027565 320.29208 
L 666.918614 321.86134 
L 665.340301 323.4306 
L 663.360879 324.99986 
L 656.04807 326.56912 
L 652.510025 329.70764 
L 649.537522 331.2769 
L 643.881962 332.84616 
L 642.38254 334.41542 
L 640.350524 335.98468 
L 634.109599 337.55394 
L 632.360332 339.1232 
L 630.92672 340.69246 
L 623.041805 342.26172 
L 622.719543 343.83098 
L 619.332762 346.9695 
L 613.821814 348.53876 
L 612.052813 350.10802 
L 610.500841 351.67728 
L 603.220892 353.24654 
L 602.66852 354.8158 
L 601.405861 356.38506 
L 596.532828 357.95432 
L 595.072918 359.52358 
L 593.126312 361.09284 
L 590.436603 362.6621 
L 585.142728 364.23136 
L 584.642906 365.80062 
L 583.261931 367.36988 
L 579.31617 368.93914 
L 577.658921 370.5084 
L 576.271339 372.07766 
L 572.226909 373.64692 
L 569.359683 375.21618 
L 569.037466 376.78544 
L 565.052193 378.3547 
L 562.737383 379.92396 
L 560.86315 381.49322 
L 558.502265 383.06248 
L 555.602135 384.63174 
L 552.07726 386.201 
L 551.597172 387.77026 
L 545.481258 390.90878 
L 544.192301 392.47804 
L 537.780423 394.0473 
L 536.544105 395.61656 
L 533.867566 397.18582 
L 533.47954 398.75508 
L 529.639011 400.32434 
L 527.672716 401.8936 
L 526.370633 403.46286 
L 521.760615 405.03212 
L 520.017912 406.60138 
L 516.887627 408.17064 
L 514.204525 409.7399 
L 510.778275 411.30916 
L 510.16668 412.87842 
L 508.187214 414.44768 
L 503.879768 416.01694 
L 501.74906 417.5862 
L 498.165006 419.15546 
L 494.995231 420.72472 
L 492.404191 422.29398 
L 492.134546 423.86324 
L 487.478542 425.4325 
L 483.973401 428.57102 
L 481.711164 430.14028 
L 478.863627 431.70954 
L 476.621124 433.2788 
L 476.075315 434.84806 
L 471.353524 436.41732 
L 469.281996 437.98658 
L 467.868117 439.55584 
L 461.857391 441.1251 
L 461.482558 442.69436 
L 459.279522 444.26362 
L 458.832316 445.83288 
L 455.018085 447.40214 
L 453.729128 448.9714 
L 452.295515 450.54066 
L 447.955165 452.10992 
L 447.777604 453.67918 
L 445.521952 455.24844 
L 443.63457 456.8177 
L 443.036101 458.38696 
L 441.7669 459.95622 
L 436.637415 463.09474 
L 436.052116 464.664 
L 432.90866 466.23326 
L 430.606955 467.80252 
L 428.627511 469.37178 
L 426.233744 470.94104 
L 422.827251 472.5103 
L 421.097696 474.07956 
L 420.801732 475.64882 
L 415.363178 477.21808 
L 415.284265 478.78734 
L 414.429365 480.3566 
L 413.173269 481.92586 
L 409.924602 483.49512 
L 408.293695 485.06438 
L 408.260812 486.63364 
L 403.795517 488.2029 
L 403.585074 489.77216 
L 402.105408 491.34142 
L 399.13295 492.91068 
L 398.113616 494.47994 
L 395.121423 496.0492 
L 394.67424 497.61846 
L 389.998502 499.18772 
L 389.636817 500.75698 
L 388.643802 502.32624 
L 383.718153 503.8955 
L 382.494983 505.46476 
L 379.844742 507.03402 
L 376.753902 508.60328 
L 374.728405 510.17254 
L 374.123395 511.7418 
L 373.097476 513.31106 
L 368.901825 514.88032 
L 367.750984 516.44958 
L 364.101143 518.01884 
L 359.701635 519.5881 
L 358.103587 521.15736 
L 357.774785 522.72662 
L 352.947805 524.29588 
L 351.198516 525.86514 
L 350.251533 527.4344 
L 341.090788 532.14218 
L 340.222718 533.71144 
L 337.039816 535.2807 
L 334.849907 536.84996 
L 334.32381 538.41922 
L 326.300757 539.98848 
L 325.722044 541.55774 
L 321.914398 543.127 
L 317.56091 544.69626 
L 314.246467 546.26552 
L 313.582255 547.83478 
L 312.503753 549.40404 
L 305.756498 550.9733 
L 305.355345 552.54256 
L 302.27108 554.11182 
L 297.305996 555.68108 
L 294.353249 557.25034 
L 292.696022 558.8196 
L 287.882191 560.38886 
L 284.140299 561.95812 
L 283.305122 563.52738 
L 280.562808 565.09664 
L 275.643755 566.6659 
L 272.947493 568.23516 
L 271.980776 569.80442 
L 267.10118 571.37368 
L 264.161593 572.94294 
L 263.411904 574.5122 
L 256.822476 576.08146 
L 255.704517 577.65072 
L 252.942479 579.21998 
L 252.317735 580.78924 
L 248.35224 582.3585 
L 246.208373 583.92776 
L 245.669116 585.49702 
L 241.315628 587.06628 
L 241.361659 588.63554 
L 235.824452 591.77406 
L 235.567978 593.34332 
L 233.259704 594.91258 
L 233.246556 596.48184 
L 232.332449 598.0511 
L 231.20133 599.62036 
L 230.543703 601.18962 
L 232.542892 602.75888 
L 232.838818 604.32814 
L 232.773058 605.8974 
L 234.417126 607.46666 
L 233.858146 609.03592 
L 234.976111 610.60518 
L 235.350961 612.17444 
L 237.856518 613.7437 
L 238.658823 615.31296 
L 240.769808 616.88222 
L 239.533468 618.45148 
L 240.677735 620.02074 
L 240.756648 621.59 
L 230.872517 623.15926 
L 229.096925 624.72852 
L 227.906622 626.29778 
L 225.453675 627.86704 
L 224.329131 629.4363 
L 222.72452 631.00556 
L 219.88357 632.57482 
L 215.194694 634.14408 
L 214.938214 635.71334 
L 212.873271 637.2826 
L 206.356188 638.85186 
L 204.876527 640.42112 
L 202.62087 641.99038 
L 202.456458 643.55964 
L 204.28466 645.1289 
L 203.114084 646.69816 
L 200.950494 648.26742 
L 203.528391 649.83668 
L 204.679233 651.40594 
L 204.172864 652.9752 
L 204.172864 652.9752 
" clip-path="url(#p643358ef30)" style="fill: none; stroke: #57b221; stroke-width: 4"/>
   </g>
   <g id="line2d_21">
    <path d="M 675.773329 90.39549 
L 676.38508 91.96475 
L 678.373326 93.53401 
L 681.738024 95.10327 
L 683.420328 96.67253 
L 686.326223 98.24179 
L 687.855623 99.81105 
L 688.31447 101.38031 
L 687.855623 102.94957 
L 686.938019 104.51883 
L 687.243872 106.08809 
L 686.632077 107.65735 
L 683.72627 110.79587 
L 682.655628 112.36513 
L 681.126273 113.93439 
L 678.679224 117.07291 
L 678.679224 118.64217 
L 677.914524 120.21143 
L 676.691022 121.78069 
L 675.161578 123.34995 
L 673.326324 124.91921 
L 671.949829 126.48847 
L 671.032225 128.05773 
L 669.349832 129.62699 
L 668.126329 131.19625 
L 667.820476 132.76551 
L 667.055776 134.33477 
L 667.667527 135.90403 
L 668.891029 137.47329 
L 671.032225 139.04255 
L 677.761575 142.18107 
L 680.66747 143.75033 
L 684.796824 146.88885 
L 687.54977 148.45811 
L 689.690876 150.02737 
L 691.220321 151.59663 
L 694.27912 153.16589 
L 697.643818 154.73515 
L 701.92612 156.30441 
L 712.326066 159.44293 
L 717.984818 161.01219 
L 724.714258 162.58145 
L 732.055404 164.15071 
L 744.902354 167.28923 
L 749.9494 168.85849 
L 754.231702 170.42775 
L 764.32575 173.56627 
L 768.608096 175.13553 
L 773.502193 176.70479 
L 785.27859 181.41257 
L 787.725639 182.98183 
L 790.937387 184.55109 
L 795.984389 187.68961 
L 797.819687 189.25887 
L 799.349087 190.82813 
L 799.65494 192.39739 
L 800.572633 193.96665 
L 801.031435 195.53591 
L 801.949084 197.10517 
L 803.019638 198.67443 
L 803.784382 200.24369 
L 804.854935 201.81295 
L 805.313737 203.38221 
L 805.619635 204.95147 
L 806.384335 206.52073 
L 807.301984 208.08999 
L 808.066684 209.65925 
L 809.137281 211.22851 
L 814.490181 215.93629 
L 816.937185 217.50555 
L 818.925432 219.07481 
L 821.219576 220.64407 
L 827.337131 225.35185 
L 830.395931 228.49037 
L 831.313624 230.05963 
L 832.690075 231.62889 
L 833.607679 233.19815 
L 834.83127 236.33667 
L 836.207677 241.04445 
L 836.513575 242.61371 
L 836.972377 244.18297 
L 837.584128 247.32149 
L 837.584128 248.89075 
L 838.195923 250.46001 
L 838.348872 252.02927 
L 838.65477 253.59853 
L 838.807674 255.16779 
L 839.725323 258.30631 
L 840.031177 261.44483 
L 840.795877 263.01409 
L 841.101819 264.58335 
L 840.490023 267.72187 
L 840.337074 269.29113 
L 839.878272 270.86039 
L 839.266521 272.42965 
L 838.348872 275.56817 
L 838.65477 277.13743 
L 838.501821 278.70669 
L 837.278275 280.27595 
L 836.513575 281.84521 
L 836.054772 283.41447 
L 834.984175 284.98373 
L 834.372379 286.55299 
L 833.301826 288.12225 
L 832.384177 289.69151 
L 832.231273 291.26077 
L 831.925375 292.83003 
L 831.466573 294.39929 
L 833.454775 295.96855 
L 835.137124 297.53781 
L 837.737077 299.10707 
L 837.431179 300.67633 
L 840.642928 302.24559 
L 843.548823 303.81485 
L 846.760571 305.38411 
L 848.44292 306.95337 
L 851.348771 308.52263 
L 856.548766 310.09189 
L 859.913419 311.66115 
L 862.972263 313.23041 
L 864.348714 314.79967 
L 866.642814 316.36893 
L 870.466314 317.93819 
L 872.913363 319.50745 
L 872.607509 321.07671 
L 872.607509 322.64597 
L 873.21926 324.21523 
L 874.136865 325.78449 
L 873.98396 327.35375 
L 871.383963 328.92301 
L 869.242812 330.49227 
L 868.784009 332.06153 
L 866.489865 333.63079 
L 864.501619 335.20005 
L 862.972263 336.76931 
L 860.372266 338.33857 
L 858.231071 339.90783 
L 852.878171 343.04635 
L 850.584071 344.61561 
L 844.160574 347.75413 
L 840.031177 350.89265 
L 837.278275 352.46191 
L 836.054772 354.03117 
L 835.137124 355.60043 
L 834.984175 357.16969 
L 835.137124 358.73895 
L 834.372379 360.30821 
L 832.995928 361.87747 
L 833.148877 363.44673 
L 832.995928 365.01599 
L 831.772426 368.15451 
L 831.619522 369.72377 
L 831.313624 371.29303 
L 830.395931 372.86229 
L 829.937129 374.43155 
L 830.090077 376.00081 
L 829.325377 377.57007 
L 829.78418 379.13933 
L 829.78418 380.70859 
L 828.560678 382.27785 
L 828.407773 383.84711 
L 827.948926 385.41637 
L 827.948926 386.98563 
L 827.490124 388.55489 
L 827.490124 390.12415 
L 827.337131 391.69341 
L 826.72538 393.26267 
L 826.878329 394.83193 
L 826.72538 396.40119 
L 826.72538 397.97045 
L 826.878329 399.53971 
L 826.266578 402.67823 
L 827.031278 404.24749 
L 826.878329 405.81675 
L 827.184182 407.38601 
L 827.643073 408.95527 
L 826.878329 410.52453 
L 825.96068 415.23231 
L 824.431324 418.37083 
L 823.819529 419.94009 
L 823.819529 421.50935 
L 821.066627 424.64787 
L 820.760685 426.21713 
L 819.690132 427.78639 
L 819.078381 429.35565 
L 817.548981 432.49417 
L 816.019581 434.06343 
L 815.40783 435.63269 
L 815.40783 437.20195 
L 814.337232 438.77121 
L 813.87843 440.34047 
L 813.266634 441.90973 
L 812.501935 443.47899 
L 811.58433 445.04825 
L 811.278432 446.61751 
L 809.443135 448.18677 
L 809.596084 449.75603 
L 808.678435 451.32529 
L 808.066684 452.89455 
L 807.149079 454.46381 
L 807.607882 456.03307 
L 806.231386 457.60233 
L 805.619635 459.17159 
L 805.313737 460.74085 
L 805.313737 462.31011 
L 805.466686 463.87937 
L 806.078437 465.44863 
L 806.078437 465.44863 
" clip-path="url(#p643358ef30)" style="fill: none; stroke: #80ac00; stroke-width: 4"/>
   </g>
   <g id="line2d_22">
    <path d="M 619.338394 90.39549 
L 619.338394 95.10327 
L 620.408947 96.67253 
L 622.550142 98.24179 
L 622.550142 107.65735 
L 624.691293 109.22661 
L 625.761891 110.79587 
L 625.761891 117.07291 
L 624.691293 118.64217 
L 622.550142 120.21143 
L 622.550142 131.19625 
L 621.479545 132.76551 
L 621.479545 134.33477 
L 620.408947 135.90403 
L 622.550142 137.47329 
L 620.408947 140.61181 
L 617.197198 142.18107 
L 617.197198 146.88885 
L 615.056092 148.45811 
L 615.056092 150.02737 
L 617.197198 153.16589 
L 619.338394 154.73515 
L 625.761891 157.87367 
L 631.11479 159.44293 
L 634.326539 161.01219 
L 639.679439 162.58145 
L 643.961785 164.15071 
L 663.232276 168.85849 
L 667.514578 170.42775 
L 675.008629 171.99701 
L 687.855623 175.13553 
L 689.996774 176.70479 
L 697.490869 178.27405 
L 700.702573 179.84331 
L 704.984964 181.41257 
L 706.055517 182.98183 
L 710.337819 184.55109 
L 713.549568 186.12035 
L 721.043663 187.68961 
L 724.255411 189.25887 
L 728.537757 190.82813 
L 729.608311 192.39739 
L 734.96121 193.96665 
L 739.243556 195.53591 
L 740.314154 197.10517 
L 743.525903 198.67443 
L 743.525903 201.81295 
L 744.596456 203.38221 
L 743.525903 204.95147 
L 743.525903 206.52073 
L 744.596456 208.08999 
L 744.596456 209.65925 
L 740.314154 212.79777 
L 739.243556 214.36703 
L 737.102406 215.93629 
L 737.102406 217.50555 
L 740.314154 219.07481 
L 739.243556 220.64407 
L 732.820059 222.21333 
L 729.608311 223.78259 
L 729.608311 225.35185 
L 728.537757 226.92111 
L 729.608311 228.49037 
L 728.537757 230.05963 
L 725.326009 231.62889 
L 725.326009 234.76741 
L 727.46716 237.90593 
L 726.396562 239.47519 
L 727.46716 241.04445 
L 727.46716 242.61371 
L 726.396562 244.18297 
L 728.537757 245.75223 
L 728.537757 247.32149 
L 729.608311 248.89075 
L 731.749506 250.46001 
L 732.820059 252.02927 
L 732.820059 253.59853 
L 737.102406 256.73705 
L 741.384707 258.30631 
L 743.525903 259.87557 
L 742.455305 261.44483 
L 745.667054 263.01409 
L 745.667054 264.58335 
L 749.9494 266.15261 
L 753.161149 267.72187 
L 754.231702 269.29113 
L 756.372897 270.86039 
L 756.372897 273.99891 
L 757.44345 275.56817 
L 759.584646 277.13743 
L 761.725752 280.27595 
L 761.725752 281.84521 
L 763.866948 284.98373 
L 763.866948 288.12225 
L 764.937501 289.69151 
L 763.866948 291.26077 
L 766.008143 294.39929 
L 766.008143 295.96855 
L 763.866948 299.10707 
L 764.937501 300.67633 
L 762.796394 303.81485 
L 762.796394 308.52263 
L 760.655199 310.09189 
L 757.44345 314.79967 
L 757.44345 316.36893 
L 754.231702 317.93819 
L 754.231702 321.07671 
L 751.019953 325.78449 
L 747.808205 327.35375 
L 747.808205 330.49227 
L 745.667054 333.63079 
L 745.667054 336.76931 
L 744.596456 338.33857 
L 745.667054 339.90783 
L 745.667054 341.47709 
L 743.525903 344.61561 
L 743.525903 346.18487 
L 742.455305 347.75413 
L 742.455305 349.32339 
L 740.314154 352.46191 
L 741.384707 354.03117 
L 740.314154 355.60043 
L 740.314154 358.73895 
L 741.384707 360.30821 
L 739.243556 361.87747 
L 741.384707 363.44673 
L 740.314154 365.01599 
L 741.384707 366.58525 
L 740.314154 368.15451 
L 743.525903 369.72377 
L 743.525903 372.86229 
L 744.596456 374.43155 
L 742.455305 376.00081 
L 743.525903 377.57007 
L 748.878802 379.13933 
L 747.808205 380.70859 
L 744.596456 382.27785 
L 748.878802 383.84711 
L 751.019953 385.41637 
L 747.808205 386.98563 
L 746.737651 388.55489 
L 752.090507 390.12415 
L 748.878802 391.69341 
L 747.808205 393.26267 
L 749.9494 394.83193 
L 754.231702 396.40119 
L 749.9494 399.53971 
L 749.9494 401.10897 
L 756.372897 402.67823 
L 749.9494 404.24749 
L 751.019953 405.81675 
L 756.372897 407.38601 
L 758.514004 408.95527 
L 754.231702 410.52453 
L 758.514004 412.09379 
L 756.372897 413.66305 
L 756.372897 415.23231 
L 753.161149 416.80157 
L 753.161149 418.37083 
L 758.514004 419.94009 
L 758.514004 419.94009 
" clip-path="url(#p643358ef30)" style="fill: none; stroke: #808907; stroke-width: 4"/>
   </g>
   <g id="patch_3">
    <path d="M 144 652.9752 
L 144 88.0416 
" style="fill: none; stroke: #000000; stroke-width: 0.8; stroke-linejoin: miter; stroke-linecap: square"/>
   </g>
   <g id="patch_4">
    <path d="M 1036.8 652.9752 
L 1036.8 88.0416 
" style="fill: none; stroke: #000000; stroke-width: 0.8; stroke-linejoin: miter; stroke-linecap: square"/>
   </g>
   <g id="patch_5">
    <path d="M 144 652.9752 
L 1036.8 652.9752 
" style="fill: none; stroke: #000000; stroke-width: 0.8; stroke-linejoin: miter; stroke-linecap: square"/>
   </g>
   <g id="patch_6">
    <path d="M 144 88.0416 
L 1036.8 88.0416 
" style="fill: none; stroke: #000000; stroke-width: 0.8; stroke-linejoin: miter; stroke-linecap: square"/>
   </g>
   <g id="legend_1">
    <g id="line2d_23">
     <path d="M 940.17375 106.97985 
L 954.57375 106.97985 
L 968.97375 106.97985 
" style="fill: none; stroke: #00005a; stroke-width: 4"/>
    </g>
    <g id="text_16">
     <!-- Ta -->
     <g transform="translate(980.49375 112.01985) scale(0.144 -0.144)">
      <defs>
       <path id="DejaVuSansMono-54" d="M 147 4666 
L 3706 4666 
L 3706 4134 
L 2247 4134 
L 2247 0 
L 1613 0 
L 1613 4134 
L 147 4134 
L 147 4666 
z
" transform="scale(0.015625)"/>
      </defs>
      <use xlink:href="#DejaVuSansMono-54"/>
      <use xlink:href="#DejaVuSansMono-61" x="60.205078"/>
     </g>
    </g>
    <g id="line2d_24">
     <path d="M 940.17375 128.19285 
L 954.57375 128.19285 
L 968.97375 128.19285 
" style="fill: none; stroke: #00264a; stroke-width: 4"/>
    </g>
    <g id="text_17">
     <!-- T8 -->
     <g transform="translate(980.49375 133.23285) scale(0.144 -0.144)">
      <defs>
       <path id="DejaVuSansMono-38" d="M 1925 2216 
Q 1503 2216 1273 1980 
Q 1044 1744 1044 1313 
Q 1044 881 1276 642 
Q 1509 403 1925 403 
Q 2350 403 2579 639 
Q 2809 875 2809 1313 
Q 2809 1741 2576 1978 
Q 2344 2216 1925 2216 
z
M 1375 2478 
Q 972 2581 745 2862 
Q 519 3144 519 3541 
Q 519 4097 897 4423 
Q 1275 4750 1925 4750 
Q 2578 4750 2956 4423 
Q 3334 4097 3334 3541 
Q 3334 3144 3107 2862 
Q 2881 2581 2478 2478 
Q 2947 2375 3195 2062 
Q 3444 1750 3444 1253 
Q 3444 622 3041 265 
Q 2638 -91 1925 -91 
Q 1213 -91 811 264 
Q 409 619 409 1247 
Q 409 1747 657 2061 
Q 906 2375 1375 2478 
z
M 1147 3481 
Q 1147 3106 1347 2909 
Q 1547 2713 1925 2713 
Q 2306 2713 2506 2909 
Q 2706 3106 2706 3481 
Q 2706 3863 2507 4063 
Q 2309 4263 1925 4263 
Q 1547 4263 1347 4061 
Q 1147 3859 1147 3481 
z
" transform="scale(0.015625)"/>
      </defs>
      <use xlink:href="#DejaVuSansMono-54"/>
      <use xlink:href="#DejaVuSansMono-38" x="60.205078"/>
     </g>
    </g>
    <g id="line2d_25">
     <path d="M 940.17375 149.40585 
L 954.57375 149.40585 
L 968.97375 149.40585 
" style="fill: none; stroke: #0077b2; stroke-width: 4"/>
    </g>
    <g id="text_18">
     <!-- T31 -->
     <g transform="translate(980.49375 154.44585) scale(0.144 -0.144)">
      <use xlink:href="#DejaVuSansMono-54"/>
      <use xlink:href="#DejaVuSansMono-33" x="60.205078"/>
      <use xlink:href="#DejaVuSansMono-31" x="120.410156"/>
     </g>
    </g>
    <g id="line2d_26">
     <path d="M 940.17375 170.61885 
L 954.57375 170.61885 
L 968.97375 170.61885 
" style="fill: none; stroke: #00b192; stroke-width: 4"/>
    </g>
    <g id="text_19">
     <!-- T61 -->
     <g transform="translate(980.49375 175.65885) scale(0.144 -0.144)">
      <use xlink:href="#DejaVuSansMono-54"/>
      <use xlink:href="#DejaVuSansMono-36" x="60.205078"/>
      <use xlink:href="#DejaVuSansMono-31" x="120.410156"/>
     </g>
    </g>
    <g id="line2d_27">
     <path d="M 940.17375 191.83185 
L 954.57375 191.83185 
L 968.97375 191.83185 
" style="fill: none; stroke: #00b21d; stroke-width: 4"/>
    </g>
    <g id="text_20">
     <!-- T67 -->
     <g transform="translate(980.49375 196.87185) scale(0.144 -0.144)">
      <use xlink:href="#DejaVuSansMono-54"/>
      <use xlink:href="#DejaVuSansMono-36" x="60.205078"/>
      <use xlink:href="#DejaVuSansMono-37" x="120.410156"/>
     </g>
    </g>
    <g id="line2d_28">
     <path d="M 940.17375 213.04485 
L 954.57375 213.04485 
L 968.97375 213.04485 
" style="fill: none; stroke: #369900; stroke-width: 4"/>
    </g>
    <g id="text_21">
     <!-- T85 -->
     <g transform="translate(980.49375 218.08485) scale(0.144 -0.144)">
      <use xlink:href="#DejaVuSansMono-54"/>
      <use xlink:href="#DejaVuSansMono-38" x="60.205078"/>
      <use xlink:href="#DejaVuSansMono-35" x="120.410156"/>
     </g>
    </g>
    <g id="line2d_29">
     <path d="M 940.17375 234.25785 
L 954.57375 234.25785 
L 968.97375 234.25785 
" style="fill: none; stroke: #57b221; stroke-width: 4"/>
    </g>
    <g id="text_22">
     <!-- T108 -->
     <g transform="translate(980.49375 239.29785) scale(0.144 -0.144)">
      <use xlink:href="#DejaVuSansMono-54"/>
      <use xlink:href="#DejaVuSansMono-31" x="60.205078"/>
      <use xlink:href="#DejaVuSansMono-30" x="120.410156"/>
      <use xlink:href="#DejaVuSansMono-38" x="180.615234"/>
     </g>
    </g>
    <g id="line2d_30">
     <path d="M 940.17375 255.47085 
L 954.57375 255.47085 
L 968.97375 255.47085 
" style="fill: none; stroke: #80ac00; stroke-width: 4"/>
    </g>
    <g id="text_23">
     <!-- 278TI -->
     <g transform="translate(980.49375 260.51085) scale(0.144 -0.144)">
      <defs>
       <path id="DejaVuSansMono-32" d="M 1166 531 
L 3309 531 
L 3309 0 
L 475 0 
L 475 531 
Q 1059 1147 1496 1619 
Q 1934 2091 2100 2284 
Q 2413 2666 2522 2902 
Q 2631 3138 2631 3384 
Q 2631 3775 2401 3997 
Q 2172 4219 1772 4219 
Q 1488 4219 1175 4116 
Q 863 4013 513 3803 
L 513 4441 
Q 834 4594 1145 4672 
Q 1456 4750 1759 4750 
Q 2444 4750 2861 4386 
Q 3278 4022 3278 3431 
Q 3278 3131 3139 2831 
Q 3000 2531 2688 2169 
Q 2513 1966 2180 1606 
Q 1847 1247 1166 531 
z
" transform="scale(0.015625)"/>
      </defs>
      <use xlink:href="#DejaVuSansMono-32"/>
      <use xlink:href="#DejaVuSansMono-37" x="60.205078"/>
      <use xlink:href="#DejaVuSansMono-38" x="120.410156"/>
      <use xlink:href="#DejaVuSansMono-54" x="180.615234"/>
      <use xlink:href="#DejaVuSansMono-49" x="240.820312"/>
     </g>
    </g>
    <g id="line2d_31">
     <path d="M 940.17375 276.68385 
L 954.57375 276.68385 
L 968.97375 276.68385 
" style="fill: none; stroke: #808907; stroke-width: 4"/>
    </g>
    <g id="text_24">
     <!-- 283TI -->
     <g transform="translate(980.49375 281.72385) scale(0.144 -0.144)">
      <use xlink:href="#DejaVuSansMono-32"/>
      <use xlink:href="#DejaVuSansMono-38" x="60.205078"/>
      <use xlink:href="#DejaVuSansMono-33" x="120.410156"/>
      <use xlink:href="#DejaVuSansMono-54" x="180.615234"/>
      <use xlink:href="#DejaVuSansMono-49" x="240.820312"/>
     </g>
    </g>
   </g>
  </g>
  <g id="text_25">
   <!-- 1.00295µm -->
   <g transform="translate(576 73.368) scale(0.2 -0.2)">
    <defs>
     <path id="DejaVuSansMono-b5" d="M 609 -1338 
L 609 3500 
L 1184 3500 
L 1184 1325 
Q 1184 881 1371 645 
Q 1559 409 1906 409 
Q 2303 409 2504 675 
Q 2706 941 2706 1459 
L 2706 3500 
L 3284 3500 
L 3284 800 
Q 3284 616 3334 528 
Q 3384 441 3488 441 
Q 3516 441 3561 456 
Q 3606 472 3694 513 
L 3694 50 
Q 3575 -22 3469 -56 
Q 3363 -91 3256 -91 
Q 3063 -91 2945 32 
Q 2828 156 2791 403 
Q 2647 153 2439 31 
Q 2231 -91 1953 -91 
Q 1666 -91 1467 28 
Q 1269 147 1131 397 
L 1131 -1338 
L 609 -1338 
z
" transform="scale(0.015625)"/>
     <path id="DejaVuSansMono-6d" d="M 2113 3144 
Q 2219 3369 2383 3476 
Q 2547 3584 2778 3584 
Q 3200 3584 3373 3257 
Q 3547 2931 3547 2028 
L 3547 0 
L 3022 0 
L 3022 2003 
Q 3022 2744 2939 2923 
Q 2856 3103 2638 3103 
Q 2388 3103 2295 2911 
Q 2203 2719 2203 2003 
L 2203 0 
L 1678 0 
L 1678 2003 
Q 1678 2753 1589 2928 
Q 1500 3103 1269 3103 
Q 1041 3103 952 2911 
Q 863 2719 863 2003 
L 863 0 
L 341 0 
L 341 3500 
L 863 3500 
L 863 3200 
Q 966 3388 1120 3486 
Q 1275 3584 1472 3584 
Q 1709 3584 1867 3475 
Q 2025 3366 2113 3144 
z
" transform="scale(0.015625)"/>
    </defs>
    <use xlink:href="#DejaVuSansMono-31"/>
    <use xlink:href="#DejaVuSansMono-2e" x="60.205078"/>
    <use xlink:href="#DejaVuSansMono-30" x="120.410156"/>
    <use xlink:href="#DejaVuSansMono-30" x="180.615234"/>
    <use xlink:href="#DejaVuSansMono-32" x="240.820312"/>
    <use xlink:href="#DejaVuSansMono-39" x="301.025391"/>
    <use xlink:href="#DejaVuSansMono-35" x="361.230469"/>
    <use xlink:href="#DejaVuSansMono-b5" x="421.435547"/>
    <use xlink:href="#DejaVuSansMono-6d" x="481.640625"/>
   </g>
  </g>
 </g>
 <defs>
  <clipPath id="p643358ef30">
   <rect x="144" y="88.0416" width="892.8" height="564.9336"/>
  </clipPath>
 </defs>
</svg>
