<?xml version="1.0" encoding="utf-8" standalone="no"?>
<!DOCTYPE svg PUBLIC "-//W3C//DTD SVG 1.1//EN"
  "http://www.w3.org/Graphics/SVG/1.1/DTD/svg11.dtd">
<svg xmlns:xlink="http://www.w3.org/1999/xlink" width="144pt" height="113.76pt" viewBox="0 0 144 113.76" xmlns="http://www.w3.org/2000/svg" version="1.1">
 <metadata>
  <rdf:RDF xmlns:dc="http://purl.org/dc/elements/1.1/" xmlns:cc="http://creativecommons.org/ns#" xmlns:rdf="http://www.w3.org/1999/02/22-rdf-syntax-ns#">
   <cc:Work>
    <dc:type rdf:resource="http://purl.org/dc/dcmitype/StillImage"/>
    <dc:date>2022-10-17T16:10:57.397134</dc:date>
    <dc:format>image/svg+xml</dc:format>
    <dc:creator>
     <cc:Agent>
      <dc:title>Matplotlib v3.6.1, https://matplotlib.org/</dc:title>
     </cc:Agent>
    </dc:creator>
   </cc:Work>
  </rdf:RDF>
 </metadata>
 <defs>
  <style type="text/css">*{stroke-linejoin: round; stroke-linecap: butt}</style>
 </defs>
 <g id="figure_1">
  <g id="patch_1">
   <path d="M 0 113.76 
L 144 113.76 
L 144 0 
L 0 0 
z
" style="fill: #ffffff"/>
  </g>
  <g id="axes_1">
   <g id="patch_2">
    <path d="M 18 101.2464 
L 129.6 101.2464 
L 129.6 13.6512 
L 18 13.6512 
z
" style="fill: #ffffff"/>
   </g>
   <g id="matplotlib.axis_1">
    <g id="xtick_1">
     <g id="line2d_1">
      <defs>
       <path id="m8ff6c347f6" d="M 0 0 
L 0 3.5 
" style="stroke: #000000; stroke-width: 0.8"/>
      </defs>
      <g>
       <use xlink:href="#m8ff6c347f6" x="18" y="101.2464" style="stroke: #000000; stroke-width: 0.8"/>
      </g>
     </g>
     <g id="text_1">
      <!-- 0.000 -->
      <g transform="translate(-21.132031 128.140463) scale(0.26 -0.26)">
       <defs>
        <path id="DejaVuSansMono-30" d="M 1509 2344 
Q 1509 2516 1629 2641 
Q 1750 2766 1919 2766 
Q 2094 2766 2219 2641 
Q 2344 2516 2344 2344 
Q 2344 2169 2220 2047 
Q 2097 1925 1919 1925 
Q 1744 1925 1626 2044 
Q 1509 2163 1509 2344 
z
M 1925 4250 
Q 1484 4250 1267 3775 
Q 1050 3300 1050 2328 
Q 1050 1359 1267 884 
Q 1484 409 1925 409 
Q 2369 409 2586 884 
Q 2803 1359 2803 2328 
Q 2803 3300 2586 3775 
Q 2369 4250 1925 4250 
z
M 1925 4750 
Q 2672 4750 3055 4137 
Q 3438 3525 3438 2328 
Q 3438 1134 3055 521 
Q 2672 -91 1925 -91 
Q 1178 -91 797 521 
Q 416 1134 416 2328 
Q 416 3525 797 4137 
Q 1178 4750 1925 4750 
z
" transform="scale(0.015625)"/>
        <path id="DejaVuSansMono-2e" d="M 1528 953 
L 2316 953 
L 2316 0 
L 1528 0 
L 1528 953 
z
" transform="scale(0.015625)"/>
       </defs>
       <use xlink:href="#DejaVuSansMono-30"/>
       <use xlink:href="#DejaVuSansMono-2e" x="60.205078"/>
       <use xlink:href="#DejaVuSansMono-30" x="120.410156"/>
       <use xlink:href="#DejaVuSansMono-30" x="180.615234"/>
       <use xlink:href="#DejaVuSansMono-30" x="240.820312"/>
      </g>
     </g>
    </g>
    <g id="xtick_2">
     <g id="line2d_2">
      <g>
       <use xlink:href="#m8ff6c347f6" x="40.32" y="101.2464" style="stroke: #000000; stroke-width: 0.8"/>
      </g>
     </g>
     <g id="text_2">
      <!-- 0.015 -->
      <g transform="translate(1.187969 128.140463) scale(0.26 -0.26)">
       <defs>
        <path id="DejaVuSansMono-31" d="M 844 531 
L 1825 531 
L 1825 4097 
L 769 3859 
L 769 4434 
L 1819 4666 
L 2450 4666 
L 2450 531 
L 3419 531 
L 3419 0 
L 844 0 
L 844 531 
z
" transform="scale(0.015625)"/>
        <path id="DejaVuSansMono-35" d="M 647 4666 
L 3009 4666 
L 3009 4134 
L 1222 4134 
L 1222 2988 
Q 1356 3038 1492 3061 
Q 1628 3084 1766 3084 
Q 2491 3084 2916 2656 
Q 3341 2228 3341 1497 
Q 3341 759 2895 334 
Q 2450 -91 1678 -91 
Q 1306 -91 998 -41 
Q 691 9 447 109 
L 447 750 
Q 734 594 1025 517 
Q 1316 441 1619 441 
Q 2141 441 2423 716 
Q 2706 991 2706 1497 
Q 2706 1997 2414 2275 
Q 2122 2553 1600 2553 
Q 1347 2553 1106 2495 
Q 866 2438 647 2322 
L 647 4666 
z
" transform="scale(0.015625)"/>
       </defs>
       <use xlink:href="#DejaVuSansMono-30"/>
       <use xlink:href="#DejaVuSansMono-2e" x="60.205078"/>
       <use xlink:href="#DejaVuSansMono-30" x="120.410156"/>
       <use xlink:href="#DejaVuSansMono-31" x="180.615234"/>
       <use xlink:href="#DejaVuSansMono-35" x="240.820312"/>
      </g>
     </g>
    </g>
    <g id="xtick_3">
     <g id="line2d_3">
      <g>
       <use xlink:href="#m8ff6c347f6" x="62.64" y="101.2464" style="stroke: #000000; stroke-width: 0.8"/>
      </g>
     </g>
     <g id="text_3">
      <!-- 0.030 -->
      <g transform="translate(23.507969 128.140463) scale(0.26 -0.26)">
       <defs>
        <path id="DejaVuSansMono-33" d="M 2425 2497 
Q 2884 2375 3128 2064 
Q 3372 1753 3372 1288 
Q 3372 644 2939 276 
Q 2506 -91 1741 -91 
Q 1419 -91 1084 -31 
Q 750 28 428 141 
L 428 769 
Q 747 603 1056 522 
Q 1366 441 1672 441 
Q 2191 441 2469 675 
Q 2747 909 2747 1350 
Q 2747 1756 2469 1995 
Q 2191 2234 1716 2234 
L 1234 2234 
L 1234 2753 
L 1716 2753 
Q 2150 2753 2394 2943 
Q 2638 3134 2638 3475 
Q 2638 3834 2411 4026 
Q 2184 4219 1766 4219 
Q 1488 4219 1191 4156 
Q 894 4094 569 3969 
L 569 4550 
Q 947 4650 1242 4700 
Q 1538 4750 1766 4750 
Q 2447 4750 2855 4408 
Q 3263 4066 3263 3500 
Q 3263 3116 3048 2859 
Q 2834 2603 2425 2497 
z
" transform="scale(0.015625)"/>
       </defs>
       <use xlink:href="#DejaVuSansMono-30"/>
       <use xlink:href="#DejaVuSansMono-2e" x="60.205078"/>
       <use xlink:href="#DejaVuSansMono-30" x="120.410156"/>
       <use xlink:href="#DejaVuSansMono-33" x="180.615234"/>
       <use xlink:href="#DejaVuSansMono-30" x="240.820312"/>
      </g>
     </g>
    </g>
    <g id="xtick_4">
     <g id="line2d_4">
      <g>
       <use xlink:href="#m8ff6c347f6" x="84.96" y="101.2464" style="stroke: #000000; stroke-width: 0.8"/>
      </g>
     </g>
     <g id="text_4">
      <!-- 0.045 -->
      <g transform="translate(45.827969 128.140463) scale(0.26 -0.26)">
       <defs>
        <path id="DejaVuSansMono-34" d="M 2297 4091 
L 825 1625 
L 2297 1625 
L 2297 4091 
z
M 2194 4666 
L 2925 4666 
L 2925 1625 
L 3547 1625 
L 3547 1113 
L 2925 1113 
L 2925 0 
L 2297 0 
L 2297 1113 
L 319 1113 
L 319 1709 
L 2194 4666 
z
" transform="scale(0.015625)"/>
       </defs>
       <use xlink:href="#DejaVuSansMono-30"/>
       <use xlink:href="#DejaVuSansMono-2e" x="60.205078"/>
       <use xlink:href="#DejaVuSansMono-30" x="120.410156"/>
       <use xlink:href="#DejaVuSansMono-34" x="180.615234"/>
       <use xlink:href="#DejaVuSansMono-35" x="240.820312"/>
      </g>
     </g>
    </g>
    <g id="xtick_5">
     <g id="line2d_5">
      <g>
       <use xlink:href="#m8ff6c347f6" x="107.28" y="101.2464" style="stroke: #000000; stroke-width: 0.8"/>
      </g>
     </g>
     <g id="text_5">
      <!-- 0.060 -->
      <g transform="translate(68.147969 128.140463) scale(0.26 -0.26)">
       <defs>
        <path id="DejaVuSansMono-36" d="M 3097 4563 
L 3097 3981 
Q 2900 4097 2678 4158 
Q 2456 4219 2216 4219 
Q 1616 4219 1306 3767 
Q 997 3316 997 2438 
Q 1147 2750 1412 2917 
Q 1678 3084 2022 3084 
Q 2697 3084 3067 2670 
Q 3438 2256 3438 1497 
Q 3438 741 3056 325 
Q 2675 -91 1984 -91 
Q 1172 -91 794 492 
Q 416 1075 416 2328 
Q 416 3509 870 4129 
Q 1325 4750 2188 4750 
Q 2419 4750 2650 4701 
Q 2881 4653 3097 4563 
z
M 1972 2591 
Q 1569 2591 1337 2300 
Q 1106 2009 1106 1497 
Q 1106 984 1337 693 
Q 1569 403 1972 403 
Q 2391 403 2603 679 
Q 2816 956 2816 1497 
Q 2816 2041 2603 2316 
Q 2391 2591 1972 2591 
z
" transform="scale(0.015625)"/>
       </defs>
       <use xlink:href="#DejaVuSansMono-30"/>
       <use xlink:href="#DejaVuSansMono-2e" x="60.205078"/>
       <use xlink:href="#DejaVuSansMono-30" x="120.410156"/>
       <use xlink:href="#DejaVuSansMono-36" x="180.615234"/>
       <use xlink:href="#DejaVuSansMono-30" x="240.820312"/>
      </g>
     </g>
    </g>
    <g id="xtick_6">
     <g id="line2d_6">
      <g>
       <use xlink:href="#m8ff6c347f6" x="129.6" y="101.2464" style="stroke: #000000; stroke-width: 0.8"/>
      </g>
     </g>
     <g id="text_6">
      <!-- 0.075 -->
      <g transform="translate(90.467969 128.140463) scale(0.26 -0.26)">
       <defs>
        <path id="DejaVuSansMono-37" d="M 434 4666 
L 3372 4666 
L 3372 4397 
L 1703 0 
L 1044 0 
L 2669 4134 
L 434 4134 
L 434 4666 
z
" transform="scale(0.015625)"/>
       </defs>
       <use xlink:href="#DejaVuSansMono-30"/>
       <use xlink:href="#DejaVuSansMono-2e" x="60.205078"/>
       <use xlink:href="#DejaVuSansMono-30" x="120.410156"/>
       <use xlink:href="#DejaVuSansMono-37" x="180.615234"/>
       <use xlink:href="#DejaVuSansMono-35" x="240.820312"/>
      </g>
     </g>
    </g>
    <g id="text_7">
     <!-- I/F -->
     <g transform="translate(52.126875 155.9114) scale(0.24 -0.24)">
      <defs>
       <path id="DejaVuSansMono-49" d="M 628 4666 
L 3219 4666 
L 3219 4134 
L 2241 4134 
L 2241 531 
L 3219 531 
L 3219 0 
L 628 0 
L 628 531 
L 1606 531 
L 1606 4134 
L 628 4134 
L 628 4666 
z
" transform="scale(0.015625)"/>
       <path id="DejaVuSansMono-2f" d="M 2778 4666 
L 3372 4666 
L 916 -594 
L 319 -594 
L 2778 4666 
z
" transform="scale(0.015625)"/>
       <path id="DejaVuSansMono-46" d="M 728 4666 
L 3475 4666 
L 3475 4134 
L 1363 4134 
L 1363 2759 
L 3278 2759 
L 3278 2228 
L 1363 2228 
L 1363 0 
L 728 0 
L 728 4666 
z
" transform="scale(0.015625)"/>
      </defs>
      <use xlink:href="#DejaVuSansMono-49"/>
      <use xlink:href="#DejaVuSansMono-2f" x="60.205078"/>
      <use xlink:href="#DejaVuSansMono-46" x="120.410156"/>
     </g>
    </g>
   </g>
   <g id="matplotlib.axis_2">
    <g id="ytick_1">
     <g id="line2d_7">
      <defs>
       <path id="m38dcbd92c6" d="M 0 0 
L -3.5 0 
" style="stroke: #000000; stroke-width: 0.8"/>
      </defs>
      <g>
       <use xlink:href="#m38dcbd92c6" x="18" y="101.2464" style="stroke: #000000; stroke-width: 0.8"/>
      </g>
     </g>
     <g id="text_8">
      <!-- 90°S -->
      <g transform="translate(-51.61125 111.193431) scale(0.26 -0.26)">
       <defs>
        <path id="DejaVuSansMono-39" d="M 1863 2069 
Q 2266 2069 2495 2359 
Q 2725 2650 2725 3163 
Q 2725 3675 2495 3965 
Q 2266 4256 1863 4256 
Q 1444 4256 1231 3979 
Q 1019 3703 1019 3163 
Q 1019 2619 1230 2344 
Q 1441 2069 1863 2069 
z
M 738 97 
L 738 678 
Q 934 563 1156 502 
Q 1378 441 1619 441 
Q 2219 441 2526 892 
Q 2834 1344 2834 2222 
Q 2688 1909 2422 1742 
Q 2156 1575 1813 1575 
Q 1138 1575 767 1990 
Q 397 2406 397 3169 
Q 397 3922 776 4336 
Q 1156 4750 1850 4750 
Q 2663 4750 3041 4165 
Q 3419 3581 3419 2328 
Q 3419 1150 2964 529 
Q 2509 -91 1644 -91 
Q 1416 -91 1184 -42 
Q 953 6 738 97 
z
" transform="scale(0.015625)"/>
        <path id="DejaVuSansMono-b0" d="M 1925 4750 
Q 2128 4750 2311 4673 
Q 2494 4597 2631 4453 
Q 2772 4313 2845 4134 
Q 2919 3956 2919 3750 
Q 2919 3338 2628 3052 
Q 2338 2766 1919 2766 
Q 1497 2766 1215 3047 
Q 934 3328 934 3750 
Q 934 4169 1221 4459 
Q 1509 4750 1925 4750 
z
M 1925 4347 
Q 1678 4347 1504 4173 
Q 1331 4000 1331 3750 
Q 1331 3500 1501 3331 
Q 1672 3163 1919 3163 
Q 2169 3163 2345 3334 
Q 2522 3506 2522 3750 
Q 2522 3997 2347 4172 
Q 2172 4347 1925 4347 
z
" transform="scale(0.015625)"/>
        <path id="DejaVuSansMono-53" d="M 3163 4506 
L 3163 3866 
Q 2875 4050 2586 4144 
Q 2297 4238 2003 4238 
Q 1556 4238 1297 4030 
Q 1038 3822 1038 3469 
Q 1038 3159 1208 2996 
Q 1378 2834 1844 2725 
L 2175 2650 
Q 2831 2497 3131 2169 
Q 3431 1841 3431 1275 
Q 3431 609 3018 259 
Q 2606 -91 1819 -91 
Q 1491 -91 1159 -20 
Q 828 50 494 191 
L 494 863 
Q 853 634 1173 528 
Q 1494 422 1819 422 
Q 2297 422 2562 636 
Q 2828 850 2828 1234 
Q 2828 1584 2645 1768 
Q 2463 1953 2009 2053 
L 1672 2131 
Q 1022 2278 728 2575 
Q 434 2872 434 3372 
Q 434 3997 854 4373 
Q 1275 4750 1972 4750 
Q 2241 4750 2537 4689 
Q 2834 4628 3163 4506 
z
" transform="scale(0.015625)"/>
       </defs>
       <use xlink:href="#DejaVuSansMono-39"/>
       <use xlink:href="#DejaVuSansMono-30" x="60.205078"/>
       <use xlink:href="#DejaVuSansMono-b0" x="120.410156"/>
       <use xlink:href="#DejaVuSansMono-53" x="180.615234"/>
      </g>
     </g>
    </g>
    <g id="ytick_2">
     <g id="line2d_8">
      <g>
       <use xlink:href="#m38dcbd92c6" x="18" y="86.6472" style="stroke: #000000; stroke-width: 0.8"/>
      </g>
     </g>
     <g id="text_9">
      <!-- 60°S -->
      <g transform="translate(-51.61125 96.594231) scale(0.26 -0.26)">
       <use xlink:href="#DejaVuSansMono-36"/>
       <use xlink:href="#DejaVuSansMono-30" x="60.205078"/>
       <use xlink:href="#DejaVuSansMono-b0" x="120.410156"/>
       <use xlink:href="#DejaVuSansMono-53" x="180.615234"/>
      </g>
     </g>
    </g>
    <g id="ytick_3">
     <g id="line2d_9">
      <g>
       <use xlink:href="#m38dcbd92c6" x="18" y="72.048" style="stroke: #000000; stroke-width: 0.8"/>
      </g>
     </g>
     <g id="text_10">
      <!-- 30°S -->
      <g transform="translate(-51.61125 81.995031) scale(0.26 -0.26)">
       <use xlink:href="#DejaVuSansMono-33"/>
       <use xlink:href="#DejaVuSansMono-30" x="60.205078"/>
       <use xlink:href="#DejaVuSansMono-b0" x="120.410156"/>
       <use xlink:href="#DejaVuSansMono-53" x="180.615234"/>
      </g>
     </g>
    </g>
    <g id="ytick_4">
     <g id="line2d_10">
      <g>
       <use xlink:href="#m38dcbd92c6" x="18" y="57.4488" style="stroke: #000000; stroke-width: 0.8"/>
      </g>
     </g>
     <g id="text_11">
      <!-- 0° -->
      <g transform="translate(-20.305625 67.395831) scale(0.26 -0.26)">
       <use xlink:href="#DejaVuSansMono-30"/>
       <use xlink:href="#DejaVuSansMono-b0" x="60.205078"/>
      </g>
     </g>
    </g>
    <g id="ytick_5">
     <g id="line2d_11">
      <g>
       <use xlink:href="#m38dcbd92c6" x="18" y="42.8496" style="stroke: #000000; stroke-width: 0.8"/>
      </g>
     </g>
     <g id="text_12">
      <!-- 30°N -->
      <g transform="translate(-51.61125 52.796631) scale(0.26 -0.26)">
       <defs>
        <path id="DejaVuSansMono-4e" d="M 434 4666 
L 1234 4666 
L 2809 825 
L 2809 4666 
L 3419 4666 
L 3419 0 
L 2619 0 
L 1044 3841 
L 1044 0 
L 434 0 
L 434 4666 
z
" transform="scale(0.015625)"/>
       </defs>
       <use xlink:href="#DejaVuSansMono-33"/>
       <use xlink:href="#DejaVuSansMono-30" x="60.205078"/>
       <use xlink:href="#DejaVuSansMono-b0" x="120.410156"/>
       <use xlink:href="#DejaVuSansMono-4e" x="180.615234"/>
      </g>
     </g>
    </g>
    <g id="ytick_6">
     <g id="line2d_12">
      <g>
       <use xlink:href="#m38dcbd92c6" x="18" y="28.2504" style="stroke: #000000; stroke-width: 0.8"/>
      </g>
     </g>
     <g id="text_13">
      <!-- 60°N -->
      <g transform="translate(-51.61125 38.197431) scale(0.26 -0.26)">
       <use xlink:href="#DejaVuSansMono-36"/>
       <use xlink:href="#DejaVuSansMono-30" x="60.205078"/>
       <use xlink:href="#DejaVuSansMono-b0" x="120.410156"/>
       <use xlink:href="#DejaVuSansMono-4e" x="180.615234"/>
      </g>
     </g>
    </g>
    <g id="ytick_7">
     <g id="line2d_13">
      <g>
       <use xlink:href="#m38dcbd92c6" x="18" y="13.6512" style="stroke: #000000; stroke-width: 0.8"/>
      </g>
     </g>
     <g id="text_14">
      <!-- 90°N -->
      <g transform="translate(-51.61125 23.598231) scale(0.26 -0.26)">
       <use xlink:href="#DejaVuSansMono-39"/>
       <use xlink:href="#DejaVuSansMono-30" x="60.205078"/>
       <use xlink:href="#DejaVuSansMono-b0" x="120.410156"/>
       <use xlink:href="#DejaVuSansMono-4e" x="180.615234"/>
      </g>
     </g>
    </g>
    <g id="text_15">
     <!-- Latitude -->
     <g transform="translate(-60.6025 115.2438) rotate(-90) scale(0.24 -0.24)">
      <defs>
       <path id="DejaVuSansMono-4c" d="M 672 4666 
L 1306 4666 
L 1306 531 
L 3559 531 
L 3559 0 
L 672 0 
L 672 4666 
z
" transform="scale(0.015625)"/>
       <path id="DejaVuSansMono-61" d="M 2194 1759 
L 2003 1759 
Q 1500 1759 1245 1582 
Q 991 1406 991 1056 
Q 991 741 1181 566 
Q 1372 391 1709 391 
Q 2184 391 2456 720 
Q 2728 1050 2731 1631 
L 2731 1759 
L 2194 1759 
z
M 3309 1997 
L 3309 0 
L 2731 0 
L 2731 519 
Q 2547 206 2267 57 
Q 1988 -91 1588 -91 
Q 1053 -91 734 211 
Q 416 513 416 1019 
Q 416 1603 808 1906 
Q 1200 2209 1959 2209 
L 2731 2209 
L 2731 2300 
Q 2728 2719 2518 2908 
Q 2309 3097 1850 3097 
Q 1556 3097 1256 3012 
Q 956 2928 672 2766 
L 672 3341 
Q 991 3463 1283 3523 
Q 1575 3584 1850 3584 
Q 2284 3584 2592 3456 
Q 2900 3328 3091 3072 
Q 3209 2916 3259 2686 
Q 3309 2456 3309 1997 
z
" transform="scale(0.015625)"/>
       <path id="DejaVuSansMono-74" d="M 1919 4494 
L 1919 3500 
L 3225 3500 
L 3225 3053 
L 1919 3053 
L 1919 1153 
Q 1919 766 2066 612 
Q 2213 459 2578 459 
L 3225 459 
L 3225 0 
L 2522 0 
Q 1875 0 1609 259 
Q 1344 519 1344 1153 
L 1344 3053 
L 409 3053 
L 409 3500 
L 1344 3500 
L 1344 4494 
L 1919 4494 
z
" transform="scale(0.015625)"/>
       <path id="DejaVuSansMono-69" d="M 800 3500 
L 2272 3500 
L 2272 447 
L 3413 447 
L 3413 0 
L 556 0 
L 556 447 
L 1697 447 
L 1697 3053 
L 800 3053 
L 800 3500 
z
M 1697 4863 
L 2272 4863 
L 2272 4134 
L 1697 4134 
L 1697 4863 
z
" transform="scale(0.015625)"/>
       <path id="DejaVuSansMono-75" d="M 609 1325 
L 609 3494 
L 1184 3494 
L 1184 1325 
Q 1184 853 1351 631 
Q 1519 409 1869 409 
Q 2275 409 2490 695 
Q 2706 981 2706 1516 
L 2706 3494 
L 3284 3494 
L 3284 0 
L 2706 0 
L 2706 525 
Q 2553 222 2289 65 
Q 2025 -91 1672 -91 
Q 1134 -91 871 261 
Q 609 613 609 1325 
z
" transform="scale(0.015625)"/>
       <path id="DejaVuSansMono-64" d="M 2681 3053 
L 2681 4863 
L 3256 4863 
L 3256 0 
L 2681 0 
L 2681 441 
Q 2538 181 2298 45 
Q 2059 -91 1747 -91 
Q 1113 -91 748 401 
Q 384 894 384 1759 
Q 384 2613 750 3098 
Q 1116 3584 1747 3584 
Q 2063 3584 2303 3448 
Q 2544 3313 2681 3053 
z
M 991 1747 
Q 991 1078 1203 737 
Q 1416 397 1831 397 
Q 2247 397 2464 740 
Q 2681 1084 2681 1747 
Q 2681 2413 2464 2755 
Q 2247 3097 1831 3097 
Q 1416 3097 1203 2756 
Q 991 2416 991 1747 
z
" transform="scale(0.015625)"/>
       <path id="DejaVuSansMono-65" d="M 3475 1894 
L 3475 1613 
L 984 1613 
L 984 1594 
Q 984 1022 1282 709 
Q 1581 397 2125 397 
Q 2400 397 2700 484 
Q 3000 572 3341 750 
L 3341 178 
Q 3013 44 2708 -23 
Q 2403 -91 2119 -91 
Q 1303 -91 843 398 
Q 384 888 384 1747 
Q 384 2584 834 3084 
Q 1284 3584 2034 3584 
Q 2703 3584 3089 3131 
Q 3475 2678 3475 1894 
z
M 2900 2063 
Q 2888 2569 2661 2833 
Q 2434 3097 2009 3097 
Q 1594 3097 1325 2822 
Q 1056 2547 1006 2059 
L 2900 2063 
z
" transform="scale(0.015625)"/>
      </defs>
      <use xlink:href="#DejaVuSansMono-4c"/>
      <use xlink:href="#DejaVuSansMono-61" x="60.205078"/>
      <use xlink:href="#DejaVuSansMono-74" x="120.410156"/>
      <use xlink:href="#DejaVuSansMono-69" x="180.615234"/>
      <use xlink:href="#DejaVuSansMono-74" x="240.820312"/>
      <use xlink:href="#DejaVuSansMono-75" x="301.025391"/>
      <use xlink:href="#DejaVuSansMono-64" x="361.230469"/>
      <use xlink:href="#DejaVuSansMono-65" x="421.435547"/>
     </g>
    </g>
   </g>
   <g id="line2d_14">
    <path d="M 69.045356 17.54432 
L 69.134264 19.49088 
L 69.822938 19.7342 
L 69.822938 19.97752 
L 71.127616 20.22084 
L 71.184766 20.46416 
L 71.51782 20.9508 
L 72.295403 21.43744 
L 72.447814 21.68076 
L 71.835348 21.92408 
L 72.337736 22.89736 
L 72.587526 23.14068 
L 72.620691 23.384 
L 72.928335 23.87064 
L 73.346056 24.6006 
L 73.383456 24.84392 
L 74.403067 26.30384 
L 75.040932 27.52044 
L 75.675987 28.2504 
L 76.285637 28.73704 
L 77.747659 30.6836 
L 79.339526 32.14352 
L 79.36845 32.38684 
L 79.656344 32.63016 
L 79.765712 32.87348 
L 79.99998 33.1168 
L 80.07759 33.36012 
L 80.407113 33.60344 
L 81.061215 34.82004 
L 82.046957 35.79332 
L 82.36801 36.03664 
L 82.479495 36.27996 
L 82.883103 36.7666 
L 83.429954 37.49656 
L 83.632465 37.9832 
L 84.132742 39.1998 
L 84.305613 39.92976 
L 84.479199 40.4164 
L 84.791788 41.87632 
L 84.931499 43.09292 
L 85.078966 46.01276 
L 85.154465 46.25608 
L 85.740124 46.4994 
L 85.74718 46.74272 
L 86.016022 46.98604 
L 86.277097 47.47268 
L 86.524059 47.716 
L 86.756913 49.17592 
L 86.984823 49.41924 
L 86.994707 49.66256 
L 87.368676 49.90588 
L 87.31576 50.1492 
L 87.46464 50.39252 
L 87.113953 51.60912 
L 87.343276 51.85244 
L 86.67718 54.04232 
L 85.918649 58.42208 
L 85.457181 59.15204 
L 85.387325 59.39536 
L 84.841882 60.12532 
L 84.764266 60.36864 
L 84.492608 60.61196 
L 84.40864 60.85528 
L 80.918682 64.99172 
L 80.421227 65.72168 
L 80.371127 65.965 
L 80.189785 66.20832 
L 80.151681 66.45164 
L 79.947757 66.93828 
L 79.679631 67.66824 
L 79.534271 70.10144 
L 80.371127 73.99456 
L 81.08168 75.45448 
L 82.209246 77.64436 
L 82.353187 77.88768 
L 82.633314 78.131 
L 82.666485 78.37432 
L 83.103962 78.61764 
L 83.513923 79.3476 
L 83.929527 80.07756 
L 84.325375 80.80752 
L 84.56599 81.29416 
L 85.041566 82.02412 
L 85.625113 82.75408 
L 85.68085 82.9974 
L 86.002613 83.48404 
L 86.248871 83.97068 
L 86.49866 84.214 
L 86.730101 84.70064 
L 88.027721 87.62048 
L 88.191424 88.10712 
L 88.748852 89.32372 
L 88.770021 89.56704 
L 88.971124 90.05368 
L 89.342981 91.02696 
L 89.793867 93.21684 
L 89.925813 93.9468 
L 90.138207 94.19012 
L 90.174188 94.43344 
L 90.344244 94.67676 
L 90.472664 95.40672 
L 90.729504 95.89336 
L 91.232602 96.13668 
L 91.480983 96.86664 
L 91.459814 97.35328 
L 91.483095 97.83992 
L 91.778045 98.32656 
L 91.711011 98.56988 
L 91.811914 98.8132 
L 91.785811 99.05652 
L 92.029946 99.54316 
L 91.978438 99.78648 
L 91.723716 100.0298 
L 90.633539 100.27312 
L 92.102623 101.00308 
L 92.102623 101.2464 
L 92.102623 101.2464 
" clip-path="url(#p3b2d00e31a)" style="fill: none; stroke: #00005a; stroke-width: 4"/>
   </g>
   <g id="line2d_15">
    <path d="M 39.209159 13.6512 
L 39.209159 14.13784 
L 40.242782 14.62448 
L 40.612217 14.8678 
L 40.8054 15.84108 
L 40.763576 16.0844 
L 41.001568 16.57104 
L 41.012522 16.81436 
L 41.667746 18.03096 
L 42.78103 18.76092 
L 43.817639 19.24756 
L 45.142031 19.7342 
L 46.976261 20.70748 
L 47.246117 20.9508 
L 48.616312 21.19412 
L 50.194628 21.92408 
L 50.624803 22.1674 
L 51.40948 22.41072 
L 52.19117 22.89736 
L 53.416976 23.384 
L 55.373689 24.6006 
L 57.682906 25.33056 
L 57.989607 25.57388 
L 59.108866 26.06052 
L 60.484042 26.54716 
L 62.337192 27.27712 
L 63.397701 27.76376 
L 63.916503 28.00708 
L 65.402211 28.49372 
L 66.296417 28.73704 
L 68.252136 29.71032 
L 69.492883 30.19696 
L 71.139905 30.92692 
L 72.201406 31.17024 
L 72.248213 31.41356 
L 73.649276 32.14352 
L 74.331382 32.38684 
L 78.280658 35.06336 
L 78.972725 35.55 
L 79.508456 36.27996 
L 80.46142 37.00992 
L 81.120627 38.22652 
L 81.550804 39.1998 
L 82.039734 39.92976 
L 82.410166 40.90304 
L 82.793536 41.38968 
L 82.826402 41.633 
L 83.021573 41.87632 
L 83.289439 42.60628 
L 83.633984 43.33624 
L 84.08507 45.2828 
L 84.155774 45.76944 
L 84.644698 46.98604 
L 84.926505 48.44596 
L 84.990235 50.63584 
L 84.928495 51.12248 
L 85.35967 53.06904 
L 84.962353 57.69212 
L 85.052974 57.93544 
L 84.9763 58.90872 
L 85.019116 59.63868 
L 84.941444 59.882 
L 85.04998 60.12532 
L 84.791084 61.58524 
L 84.502304 62.3152 
L 84.497326 62.55852 
L 84.206555 62.80184 
L 83.992465 63.28848 
L 83.44379 64.01844 
L 83.529428 64.26176 
L 83.457726 64.50508 
L 83.009628 64.99172 
L 82.180144 67.1816 
L 82.069606 67.91156 
L 82.063631 68.64152 
L 82.388253 70.34476 
L 82.63322 70.8314 
L 82.78159 71.56136 
L 83.07435 73.2646 
L 83.162976 73.75124 
L 83.07634 73.99456 
L 83.397981 75.21116 
L 83.847082 75.94112 
L 83.957614 76.18444 
L 83.916783 76.42776 
L 84.238418 77.15772 
L 85.118689 78.61764 
L 85.279016 79.10428 
L 85.437341 79.3476 
L 85.747031 79.59092 
L 85.743045 79.83424 
L 86.282756 80.32088 
L 89.448352 82.51076 
L 90.490934 82.9974 
L 90.589515 83.24072 
L 92.560173 84.45732 
L 92.863881 84.70064 
L 93.753115 85.18728 
L 94.642355 86.6472 
L 95.580381 87.62048 
L 96.447708 88.35044 
L 96.48554 88.59376 
L 98.623482 90.78364 
L 98.743975 91.02696 
L 99.40418 91.75692 
L 99.864235 92.7302 
L 100.797277 93.9468 
L 101.227454 94.67676 
L 101.505281 95.65004 
L 101.839859 96.13668 
L 101.532165 97.83992 
L 101.448524 98.8132 
L 101.679538 99.54316 
L 101.756217 100.27312 
L 101.873717 100.75976 
L 100.997432 101.00308 
L 101.043241 101.2464 
L 101.043241 101.2464 
" clip-path="url(#p3b2d00e31a)" style="fill: none; stroke: #00264a; stroke-width: 4"/>
   </g>
   <g id="line2d_16">
    <path d="M 53.593145 13.6512 
L 53.559273 14.13784 
L 52.492326 14.62448 
L 52.497972 14.8678 
L 52.328615 15.11112 
L 52.416115 15.59776 
L 52.667328 15.84108 
L 52.622165 16.0844 
L 52.994753 16.57104 
L 54.101216 17.05768 
L 54.256459 17.301 
L 54.550009 17.54432 
L 56.283095 18.27428 
L 56.469387 18.5176 
L 58.442395 19.00424 
L 60.325076 19.49088 
L 60.875486 19.7342 
L 63.029139 20.22084 
L 65.236424 20.70748 
L 65.846107 20.9508 
L 69.718731 21.92408 
L 70.260676 22.1674 
L 73.726843 23.14068 
L 73.896194 23.384 
L 79.109565 25.33056 
L 79.222469 25.57388 
L 81.347894 26.54716 
L 81.494673 26.79048 
L 86.160451 28.73704 
L 87.043931 28.98036 
L 87.2528 29.22368 
L 88.966124 29.71032 
L 89.793152 30.19696 
L 89.891944 30.44028 
L 90.851632 31.41356 
L 90.956067 31.65688 
L 92.929075 33.84676 
L 93.121015 34.57672 
L 93.135122 35.55 
L 93.657311 37.00992 
L 93.691181 38.22652 
L 93.598032 38.46984 
L 93.668597 38.71316 
L 93.507711 39.68644 
L 93.620615 41.14636 
L 93.101253 42.11964 
L 93.084319 42.36296 
L 92.77948 42.8496 
L 92.344796 43.33624 
L 91.675839 47.22936 
L 91.61656 47.716 
L 91.469786 47.95932 
L 91.523417 48.20264 
L 91.277846 48.9326 
L 91.275024 49.90588 
L 91.418977 50.39252 
L 91.376643 51.12248 
L 91.167763 51.85244 
L 90.769775 52.5824 
L 90.61171 53.31236 
L 90.388723 53.799 
L 90.16574 55.0156 
L 90.120574 55.50224 
L 89.9992 56.2322 
L 89.804444 57.20548 
L 89.714117 57.69212 
L 89.691539 58.17876 
L 89.547587 58.6654 
L 89.63226 59.15204 
L 89.612509 60.61196 
L 88.994356 61.58524 
L 88.167328 62.55852 
L 87.512484 63.5318 
L 87.043931 64.26176 
L 86.724973 64.99172 
L 86.414486 65.72168 
L 86.479403 66.69496 
L 86.651581 66.93828 
L 86.640295 67.1816 
L 86.806825 67.42492 
L 86.764485 67.91156 
L 86.397546 69.37148 
L 86.391903 69.6148 
L 87.334657 70.58808 
L 87.309252 70.8314 
L 87.402401 71.31804 
L 87.492722 72.048 
L 87.690305 72.29132 
L 87.563287 72.77796 
L 88.460875 74.96784 
L 88.508863 75.21116 
L 92.452052 79.3476 
L 92.751248 79.59092 
L 92.948831 80.07756 
L 93.564163 80.80752 
L 94.032716 81.53748 
L 95.325475 82.75408 
L 95.472249 82.9974 
L 96.40089 83.72736 
L 97.936393 85.18728 
L 98.258172 85.4306 
L 98.368249 85.67392 
L 99.107777 86.40388 
L 99.449313 86.89052 
L 100.349727 88.59376 
L 100.648923 89.56704 
L 100.939649 90.78364 
L 101.066667 91.5136 
L 101.238851 91.75692 
L 101.199333 92.00024 
L 101.363041 92.24356 
L 101.312238 92.48688 
L 101.492886 92.7302 
L 101.459011 93.9468 
L 101.357398 94.19012 
L 100.883197 94.43344 
L 100.72231 94.92008 
L 100.812632 95.1634 
L 101.058202 95.40672 
L 101.109006 95.65004 
L 101.315059 95.89336 
L 100.787227 96.13668 
L 101.202155 96.38 
L 100.39771 96.62332 
L 97.87147 96.86664 
L 98.503731 97.35328 
L 98.644862 97.5966 
L 99.099307 97.83992 
L 99.494468 98.56988 
L 103.129996 98.8132 
L 103.129996 99.05652 
L 103.129996 99.05652 
" clip-path="url(#p3b2d00e31a)" style="fill: none; stroke: #0077b2; stroke-width: 4"/>
   </g>
   <g id="line2d_17">
    <path d="M 91.936476 14.38116 
L 91.936476 15.35444 
L 92.111204 15.59776 
L 91.86504 15.84108 
L 91.943156 16.57104 
L 94.402205 16.81436 
L 94.407854 17.301 
L 94.591324 17.54432 
L 94.64991 18.5176 
L 94.760913 19.24756 
L 94.784555 20.22084 
L 94.954655 21.43744 
L 95.171013 22.1674 
L 95.472166 23.384 
L 95.566207 24.35728 
L 95.559011 25.08724 
L 95.839604 29.22368 
L 95.525608 30.6836 
L 95.437216 31.17024 
L 94.901723 31.65688 
L 94.577965 31.9002 
L 94.016258 32.14352 
L 93.888808 32.38684 
L 93.116408 32.87348 
L 92.22478 34.09008 
L 92.209874 34.3334 
L 91.198506 36.27996 
L 90.074072 38.22652 
L 89.551944 38.95648 
L 89.025187 39.92976 
L 88.174667 41.38968 
L 85.343029 46.25608 
L 84.628185 47.22936 
L 84.227337 47.95932 
L 81.537545 51.85244 
L 80.823211 52.09576 
L 79.895606 53.31236 
L 78.020359 56.2322 
L 77.548075 56.96216 
L 76.872283 57.20548 
L 73.952258 57.4488 
L 70.766031 61.0986 
L 69.577878 62.3152 
L 68.967867 63.04516 
L 68.443167 63.77512 
L 68.160518 64.50508 
L 67.58288 65.965 
L 67.076167 67.42492 
L 66.138801 71.07472 
L 65.865913 72.53464 
L 65.643391 72.77796 
L 65.593547 73.02128 
L 65.225587 73.2646 
L 65.17368 73.99456 
L 65.014883 74.72452 
L 64.893603 75.45448 
L 64.361707 77.88768 
L 64.122226 78.37432 
L 64.461402 82.26744 
L 64.671591 83.24072 
L 65.090942 85.4306 
L 65.281601 86.89052 
L 65.435775 87.37716 
L 65.709178 89.32372 
L 65.805791 90.05368 
L 65.919877 92.97352 
L 65.893153 93.46016 
L 65.990281 93.9468 
L 66.096146 94.67676 
L 65.954311 94.92008 
L 66.185564 96.38 
L 66.006723 96.62332 
L 65.880819 97.5966 
L 65.660869 97.83992 
L 65.670631 98.08324 
L 65.308841 98.32656 
L 65.344301 99.29984 
L 65.261041 99.54316 
L 65.488192 99.78648 
L 65.529822 100.0298 
L 65.391579 100.27312 
L 65.584805 100.75976 
L 65.69016 101.2464 
L 65.69016 101.2464 
" clip-path="url(#p3b2d00e31a)" style="fill: none; stroke: #00b192; stroke-width: 4"/>
   </g>
   <g id="line2d_18">
    <path d="M 80.300057 13.6512 
L 81.948204 13.89452 
L 81.948204 14.13784 
L 81.761574 14.38116 
L 81.870643 16.32772 
L 82.218453 16.57104 
L 82.226934 17.05768 
L 82.903768 17.301 
L 82.909827 17.78764 
L 83.198857 18.03096 
L 83.207948 18.27428 
L 83.616955 18.76092 
L 83.630287 19.00424 
L 84.02354 19.49088 
L 84.03808 19.7342 
L 83.499405 20.22084 
L 83.459417 20.46416 
L 82.665631 20.70748 
L 82.467494 20.9508 
L 82.492339 21.19412 
L 82.056668 21.43744 
L 82.05424 21.68076 
L 81.641602 22.1674 
L 81.677351 22.41072 
L 81.444673 23.384 
L 81.354385 24.84392 
L 81.604634 25.8172 
L 81.765211 26.06052 
L 81.805809 26.54716 
L 81.954867 27.0338 
L 82.00031 27.76376 
L 82.128171 28.73704 
L 82.306313 28.98036 
L 82.202699 29.467 
L 82.389329 29.71032 
L 81.951231 31.41356 
L 81.668869 31.9002 
L 81.225926 32.87348 
L 80.710278 33.1168 
L 80.458205 33.36012 
L 79.862568 33.60344 
L 79.700174 34.09008 
L 79.260873 34.3334 
L 79.097874 34.82004 
L 78.823384 35.06336 
L 78.691899 35.55 
L 78.319854 35.79332 
L 78.180486 36.27996 
L 77.841157 36.52328 
L 77.687859 37.00992 
L 77.360049 37.25324 
L 77.360049 37.49656 
L 77.066773 37.73988 
L 77.014661 38.22652 
L 76.661402 38.46984 
L 76.628076 38.95648 
L 76.268148 39.1998 
L 76.151807 39.68644 
L 75.908831 39.92976 
L 75.808243 40.4164 
L 75.512545 40.65972 
L 75.512545 40.90304 
L 75.264108 41.14636 
L 75.187157 41.633 
L 74.495778 42.11964 
L 74.495778 42.36296 
L 73.983766 42.60628 
L 73.814104 42.8496 
L 73.814104 43.09292 
L 73.346322 43.57956 
L 73.346322 43.82288 
L 72.959726 44.0662 
L 72.89671 44.55284 
L 72.465286 44.79616 
L 72.465286 45.03948 
L 72.036279 45.52612 
L 72.036279 45.76944 
L 71.664843 46.01276 
L 71.538197 46.25608 
L 71.538197 46.4994 
L 71.15343 46.74272 
L 71.092837 47.22936 
L 70.743209 47.47268 
L 70.694129 47.95932 
L 70.359047 48.20264 
L 70.306935 48.68928 
L 69.965793 48.9326 
L 69.923986 49.17592 
L 69.559208 49.66256 
L 69.095666 50.63584 
L 68.898737 50.87916 
L 68.762402 51.3658 
L 68.45095 51.60912 
L 68.346731 52.09576 
L 68.029825 52.33908 
L 67.615363 53.31236 
L 67.377231 53.55568 
L 67.296034 54.04232 
L 67.068202 54.28564 
L 66.98155 54.77228 
L 66.811284 55.0156 
L 66.747659 55.50224 
L 66.591933 55.74556 
L 66.531944 56.2322 
L 66.222315 56.96216 
L 66.195652 57.4488 
L 65.992659 57.69212 
L 65.975697 58.17876 
L 65.846628 58.42208 
L 65.839356 58.90872 
L 65.698175 59.39536 
L 65.670914 59.63868 
L 65.503064 59.882 
L 65.473375 60.12532 
L 65.267965 60.36864 
L 65.195859 60.85528 
L 64.828653 61.0986 
L 64.731103 61.58524 
L 64.287553 61.82856 
L 64.217872 62.3152 
L 63.777357 62.55852 
L 63.777357 62.80184 
L 63.665256 63.04516 
L 63.281697 63.28848 
L 63.281697 63.5318 
L 62.758774 64.01844 
L 62.758774 64.26176 
L 62.276446 64.50508 
L 62.177682 64.99172 
L 61.79776 65.23504 
L 61.445103 67.1816 
L 61.324521 67.91156 
L 61.339061 68.3982 
L 61.245749 68.88484 
L 61.326946 72.53464 
L 61.41844 73.75124 
L 61.575984 74.72452 
L 62.10618 76.67108 
L 62.213428 77.15772 
L 62.999333 79.3476 
L 63.248371 79.59092 
L 63.32351 80.07756 
L 63.565275 80.32088 
L 63.654347 80.80752 
L 63.942775 81.05084 
L 64.020339 81.53748 
L 64.28089 81.7808 
L 64.388138 82.26744 
L 64.846834 82.51076 
L 64.979539 82.75408 
L 64.979539 82.9974 
L 65.837543 84.45732 
L 65.95267 84.94396 
L 66.338651 85.4306 
L 66.338651 85.67392 
L 66.951256 86.16056 
L 66.951256 86.40388 
L 67.135458 86.6472 
L 67.313606 88.10712 
L 67.183939 88.83708 
L 67.163334 89.81036 
L 67.140912 90.54032 
L 67.231195 91.27028 
L 67.277858 92.48688 
L 67.397226 93.21684 
L 67.437824 93.9468 
L 67.655962 94.43344 
L 67.715341 94.67676 
L 68.05406 94.92008 
L 68.309165 95.65004 
L 68.194642 96.62332 
L 68.277652 96.86664 
L 67.995889 97.10996 
L 68.100113 97.5966 
L 68.071028 97.83992 
L 68.127984 98.32656 
L 68.127984 98.56988 
L 68.397025 98.8132 
L 68.234631 99.05652 
L 68.341271 100.0298 
L 68.588494 100.27312 
L 68.62728 101.2464 
L 68.62728 101.2464 
" clip-path="url(#p3b2d00e31a)" style="fill: none; stroke: #00b21d; stroke-width: 4"/>
   </g>
   <g id="line2d_19">
    <path d="M 18.021403 21.19412 
L 18.003304 101.2464 
L 18.003304 101.2464 
" clip-path="url(#p3b2d00e31a)" style="fill: none; stroke: #369900; stroke-width: 4"/>
   </g>
   <g id="line2d_20">
    <path d="M 108.576599 22.65404 
L 108.576599 23.384 
L 107.812935 23.62732 
L 107.852387 24.11396 
L 107.576184 24.35728 
L 107.517825 24.84392 
L 107.744704 25.08724 
L 107.70936 25.57388 
L 106.974461 25.8172 
L 106.948978 26.06052 
L 107.170924 26.30384 
L 107.221073 28.2504 
L 107.235868 28.49372 
L 106.688391 28.73704 
L 106.680991 29.22368 
L 106.431091 29.467 
L 106.431091 29.71032 
L 106.237915 29.95364 
L 106.219007 30.19696 
L 105.990487 30.44028 
L 106.000348 30.92692 
L 105.578647 31.17024 
L 105.258875 31.9002 
L 104.153238 34.3334 
L 102.944027 34.57672 
L 102.527253 35.06336 
L 102.033213 35.30668 
L 101.877847 36.03664 
L 100.257621 36.27996 
L 100.275703 36.52328 
L 100.13103 36.7666 
L 99.374762 37.00992 
L 99.303237 37.49656 
L 98.884823 37.73988 
L 98.593826 38.46984 
L 98.123621 38.95648 
L 98.035661 39.1998 
L 97.01141 40.17308 
L 96.465579 40.90304 
L 96.245275 41.14636 
L 95.846589 41.38968 
L 95.193069 42.36296 
L 94.484478 42.8496 
L 94.329938 43.33624 
L 92.87658 44.30952 
L 92.086609 44.55284 
L 92.066055 44.79616 
L 91.027004 45.52612 
L 90.21977 45.76944 
L 90.060292 46.01276 
L 89.375536 46.25608 
L 89.329505 46.4994 
L 87.232495 47.95932 
L 86.568294 48.20264 
L 85.966565 48.9326 
L 84.845308 49.17592 
L 84.670219 49.41924 
L 84.253446 49.66256 
L 83.364827 49.90588 
L 82.92011 50.39252 
L 82.006009 50.63584 
L 81.563753 51.12248 
L 81.19219 51.3658 
L 80.485245 51.60912 
L 80.043816 52.09576 
L 79.2637 52.33908 
L 78.86584 52.82572 
L 77.880226 53.06904 
L 77.839943 53.31236 
L 77.416595 53.799 
L 76.727727 54.04232 
L 76.312605 54.52896 
L 75.402612 54.77228 
L 75.175733 55.25892 
L 74.566603 55.50224 
L 74.140789 55.98888 
L 73.804575 56.2322 
L 73.142841 56.47552 
L 72.907741 56.96216 
L 72.414521 57.20548 
L 72.033917 57.69212 
L 71.16996 58.17876 
L 71.129683 58.42208 
L 70.342173 58.90872 
L 69.812783 59.39536 
L 69.009658 59.882 
L 68.949647 60.12532 
L 68.024038 60.85528 
L 67.222553 61.0986 
L 67.068013 61.34192 
L 66.733446 61.58524 
L 66.684942 61.82856 
L 65.95909 62.3152 
L 65.796329 62.55852 
L 65.220077 62.80184 
L 65.002239 63.04516 
L 63.847284 63.77512 
L 63.770835 64.01844 
L 63.523402 64.26176 
L 62.984971 64.50508 
L 62.718633 64.7484 
L 61.550524 65.47836 
L 61.516818 65.72168 
L 60.934818 65.965 
L 60.213895 66.69496 
L 59.577641 67.1816 
L 59.509414 67.42492 
L 58.91919 67.66824 
L 58.483515 68.15488 
L 57.732174 68.3982 
L 57.68532 68.64152 
L 57.40994 68.88484 
L 57.35404 69.12816 
L 56.877261 69.37148 
L 56.536939 69.85812 
L 55.994396 70.10144 
L 55.9722 70.34476 
L 55.454321 70.8314 
L 55.220863 71.31804 
L 54.579677 71.80468 
L 54.506515 72.048 
L 53.825869 72.53464 
L 53.279218 73.02128 
L 52.637212 73.50792 
L 52.600216 73.75124 
L 51.920397 73.99456 
L 51.803671 74.4812 
L 51.646659 74.72452 
L 51.036712 75.21116 
L 51.032602 75.45448 
L 50.47444 75.6978 
L 50.448134 75.94112 
L 50.263176 76.18444 
L 49.891619 76.42776 
L 49.764202 76.67108 
L 49.390178 76.9144 
L 49.33428 77.15772 
L 48.749813 77.40104 
L 48.580475 77.88768 
L 47.964769 78.131 
L 47.811873 78.37432 
L 46.841051 79.10428 
L 46.637184 79.59092 
L 46.112728 79.83424 
L 45.968873 80.07756 
L 44.762948 80.80752 
L 44.721848 81.05084 
L 44.118476 81.29416 
L 43.398374 82.02412 
L 42.636348 82.51076 
L 42.52784 82.75408 
L 41.856238 83.24072 
L 41.790476 83.48404 
L 40.787595 83.72736 
L 40.715255 83.97068 
L 39.280808 84.70064 
L 39.062969 85.18728 
L 38.219562 85.4306 
L 38.169418 85.67392 
L 37.783885 85.91724 
L 36.794156 86.40388 
L 36.587003 86.6472 
L 35.517537 87.13384 
L 35.41314 87.37716 
L 35.070351 87.62048 
L 34.118437 88.10712 
L 33.997597 88.35044 
L 33.020199 88.83708 
L 32.926488 89.0804 
L 32.102809 89.32372 
L 31.963065 89.56704 
L 31.61781 89.81036 
L 31.539717 90.05368 
L 30.776047 90.54032 
L 30.708639 90.78364 
L 30.164453 91.02696 
L 30.170207 91.27028 
L 29.478057 91.75692 
L 29.445997 92.00024 
L 29.157463 92.24356 
L 29.155819 92.48688 
L 28.817963 93.21684 
L 29.067862 93.46016 
L 29.096632 93.9468 
L 29.302141 94.19012 
L 29.232268 94.43344 
L 29.832353 95.40672 
L 30.096226 95.65004 
L 29.941683 95.89336 
L 30.084717 96.13668 
L 30.094581 96.38 
L 28.859065 96.62332 
L 27.485446 98.08324 
L 26.899337 98.32656 
L 26.867277 98.56988 
L 26.609159 98.8132 
L 25.794523 99.05652 
L 25.307057 99.78648 
L 25.535582 100.0298 
L 25.118812 100.51644 
L 25.584904 101.00308 
L 25.521608 101.2464 
L 25.521608 101.2464 
" clip-path="url(#p3b2d00e31a)" style="fill: none; stroke: #57b221; stroke-width: 4"/>
   </g>
   <g id="line2d_21">
    <path d="M 84.471666 14.01618 
L 84.548135 14.2595 
L 84.796666 14.50282 
L 85.427541 14.98946 
L 85.981953 15.4761 
L 86.039309 15.71942 
L 85.82901 16.6927 
L 84.987841 17.9093 
L 84.834903 18.15262 
L 84.739316 18.63926 
L 84.165791 19.36922 
L 83.515791 20.3425 
L 83.458441 21.07246 
L 83.879028 21.5591 
L 85.083434 22.28906 
L 86.40254 23.50566 
L 87.740765 24.23562 
L 90.589282 25.2089 
L 93.112794 25.93886 
L 96.687774 27.39878 
L 98.465705 28.37206 
L 99.498049 29.10202 
L 99.918636 29.58866 
L 100.128929 30.31862 
L 100.702454 31.77854 
L 101.14216 32.75182 
L 102.652447 34.21174 
L 103.799491 35.42834 
L 104.411259 36.88826 
L 104.698016 38.34818 
L 104.793609 39.07814 
L 105.099485 41.26802 
L 104.659784 43.4579 
L 103.990672 45.40446 
L 103.933322 45.64778 
L 104.717135 46.37774 
L 104.678897 46.62106 
L 105.845071 47.35102 
L 106.055365 47.59434 
L 106.418596 47.83766 
L 107.489177 48.3243 
L 107.871533 48.56762 
L 108.330352 49.05426 
L 109.11417 49.5409 
L 109.075939 50.02754 
L 109.247995 50.7575 
L 108.655351 51.24414 
L 108.598001 51.48746 
L 105.92154 53.67734 
L 105.252428 54.16398 
L 104.39214 55.13726 
L 104.296547 55.86722 
L 104.124491 56.11054 
L 104.124491 56.59718 
L 103.742141 58.0571 
L 103.76126 58.30042 
L 103.665672 58.54374 
L 103.723022 59.03038 
L 103.570085 59.2737 
L 103.359791 62.9235 
L 103.455384 63.41014 
L 103.283322 64.1401 
L 103.149503 64.62674 
L 100.893635 70.46642 
L 100.950985 70.70974 
L 100.702454 71.19638 
L 100.683336 71.92634 
L 100.759805 72.16966 
L 100.759805 72.16966 
" clip-path="url(#p3b2d00e31a)" style="fill: none; stroke: #80ac00; stroke-width: 4"/>
   </g>
   <g id="line2d_22">
    <path d="M 77.417299 14.01618 
L 77.417299 14.74614 
L 77.551118 14.98946 
L 77.818768 15.23278 
L 77.818768 16.6927 
L 78.220236 17.17934 
L 78.220236 18.15262 
L 78.086412 18.39594 
L 77.818768 18.63926 
L 77.818768 20.3425 
L 77.684943 20.58582 
L 77.684943 20.82914 
L 77.551118 21.07246 
L 77.818768 21.31578 
L 77.551118 21.80242 
L 77.14965 22.04574 
L 77.14965 22.7757 
L 76.882011 23.01902 
L 76.882011 23.26234 
L 77.14965 23.74898 
L 77.818768 24.23562 
L 78.220236 24.47894 
L 79.95993 25.2089 
L 81.29816 25.69554 
L 85.981953 27.15546 
L 86.249597 27.39878 
L 87.186359 27.6421 
L 89.193696 28.8587 
L 90.130458 29.10202 
L 91.870151 30.0753 
L 92.405445 30.31862 
L 92.539269 30.56194 
L 92.940738 30.80526 
L 92.940738 31.2919 
L 93.074557 31.53522 
L 92.940738 31.77854 
L 92.940738 32.02186 
L 93.074557 32.26518 
L 93.074557 32.5085 
L 92.137801 33.48178 
L 92.137801 33.7251 
L 92.539269 33.96842 
L 92.405445 34.21174 
L 91.602507 34.45506 
L 91.201039 34.69838 
L 91.201039 34.9417 
L 91.06722 35.18502 
L 91.201039 35.42834 
L 91.06722 35.67166 
L 90.665751 35.91498 
L 90.665751 36.40162 
L 90.933395 36.88826 
L 90.79957 37.13158 
L 90.933395 37.3749 
L 90.933395 37.61822 
L 90.79957 37.86154 
L 91.06722 38.10486 
L 91.06722 38.34818 
L 91.201039 38.5915 
L 91.602507 39.07814 
L 91.602507 39.32146 
L 92.137801 39.8081 
L 92.940738 40.29474 
L 92.806913 40.53806 
L 93.208382 40.78138 
L 93.208382 41.0247 
L 94.145144 41.51134 
L 94.278963 41.75466 
L 94.546612 41.99798 
L 94.546612 42.48462 
L 94.680431 42.72794 
L 95.0819 43.21458 
L 95.215719 43.4579 
L 95.215719 43.70122 
L 95.483368 44.18786 
L 95.483368 44.6745 
L 95.617188 44.91782 
L 95.483368 45.16114 
L 95.751018 45.64778 
L 95.751018 45.8911 
L 95.483368 46.37774 
L 95.617188 46.62106 
L 95.349549 47.1077 
L 95.349549 47.83766 
L 94.948081 48.3243 
L 94.680431 48.81094 
L 94.680431 49.05426 
L 94.278963 49.29758 
L 94.278963 49.78422 
L 93.877494 50.51418 
L 93.476026 50.7575 
L 93.476026 51.24414 
L 93.208382 51.73078 
L 93.208382 52.21742 
L 93.074557 52.46074 
L 93.208382 52.70406 
L 93.208382 52.94738 
L 92.940738 53.43402 
L 92.940738 53.67734 
L 92.806913 53.92066 
L 92.806913 54.16398 
L 92.539269 54.65062 
L 92.673088 54.89394 
L 92.539269 55.13726 
L 92.539269 55.6239 
L 92.673088 55.86722 
L 92.405445 56.11054 
L 92.673088 56.35386 
L 92.539269 56.59718 
L 92.673088 56.8405 
L 92.539269 57.08382 
L 92.940738 57.32714 
L 92.940738 57.81378 
L 93.074557 58.0571 
L 92.806913 58.30042 
L 92.940738 58.54374 
L 93.60985 58.78706 
L 93.476026 59.03038 
L 93.074557 59.2737 
L 93.877494 59.76034 
L 93.476026 60.00366 
L 93.342206 60.24698 
L 94.011313 60.4903 
L 93.60985 60.73362 
L 93.476026 60.97694 
L 93.743675 61.22026 
L 94.278963 61.46358 
L 93.743675 61.95022 
L 93.743675 62.19354 
L 94.546612 62.43686 
L 93.743675 62.68018 
L 93.877494 62.9235 
L 94.546612 63.16682 
L 94.81425 63.41014 
L 94.278963 63.65346 
L 94.81425 63.89678 
L 94.546612 64.1401 
L 94.546612 64.38342 
L 94.145144 64.62674 
L 94.145144 64.87006 
L 94.81425 65.11338 
L 94.81425 65.11338 
" clip-path="url(#p3b2d00e31a)" style="fill: none; stroke: #808907; stroke-width: 4"/>
   </g>
   <g id="patch_3">
    <path d="M 18 101.2464 
L 18 13.6512 
" style="fill: none; stroke: #000000; stroke-width: 0.8; stroke-linejoin: miter; stroke-linecap: square"/>
   </g>
   <g id="patch_4">
    <path d="M 129.6 101.2464 
L 129.6 13.6512 
" style="fill: none; stroke: #000000; stroke-width: 0.8; stroke-linejoin: miter; stroke-linecap: square"/>
   </g>
   <g id="patch_5">
    <path d="M 18 101.2464 
L 129.6 101.2464 
" style="fill: none; stroke: #000000; stroke-width: 0.8; stroke-linejoin: miter; stroke-linecap: square"/>
   </g>
   <g id="patch_6">
    <path d="M 18 13.6512 
L 129.6 13.6512 
" style="fill: none; stroke: #000000; stroke-width: 0.8; stroke-linejoin: miter; stroke-linecap: square"/>
   </g>
   <g id="legend_1">
    <g id="line2d_23">
     <path d="M 36 39.954325 
L 56 39.954325 
L 76 39.954325 
" style="fill: none; stroke: #00005a; stroke-width: 4"/>
    </g>
    <g id="text_16">
     <!-- Ta -->
     <g transform="translate(92 46.954325) scale(0.2 -0.2)">
      <defs>
       <path id="DejaVuSansMono-54" d="M 147 4666 
L 3706 4666 
L 3706 4134 
L 2247 4134 
L 2247 0 
L 1613 0 
L 1613 4134 
L 147 4134 
L 147 4666 
z
" transform="scale(0.015625)"/>
      </defs>
      <use xlink:href="#DejaVuSansMono-54"/>
      <use xlink:href="#DejaVuSansMono-61" x="60.205078"/>
     </g>
    </g>
    <g id="line2d_24">
     <path d="M 36 69.416825 
L 56 69.416825 
L 76 69.416825 
" style="fill: none; stroke: #00264a; stroke-width: 4"/>
    </g>
    <g id="text_17">
     <!-- T8 -->
     <g transform="translate(92 76.416825) scale(0.2 -0.2)">
      <defs>
       <path id="DejaVuSansMono-38" d="M 1925 2216 
Q 1503 2216 1273 1980 
Q 1044 1744 1044 1313 
Q 1044 881 1276 642 
Q 1509 403 1925 403 
Q 2350 403 2579 639 
Q 2809 875 2809 1313 
Q 2809 1741 2576 1978 
Q 2344 2216 1925 2216 
z
M 1375 2478 
Q 972 2581 745 2862 
Q 519 3144 519 3541 
Q 519 4097 897 4423 
Q 1275 4750 1925 4750 
Q 2578 4750 2956 4423 
Q 3334 4097 3334 3541 
Q 3334 3144 3107 2862 
Q 2881 2581 2478 2478 
Q 2947 2375 3195 2062 
Q 3444 1750 3444 1253 
Q 3444 622 3041 265 
Q 2638 -91 1925 -91 
Q 1213 -91 811 264 
Q 409 619 409 1247 
Q 409 1747 657 2061 
Q 906 2375 1375 2478 
z
M 1147 3481 
Q 1147 3106 1347 2909 
Q 1547 2713 1925 2713 
Q 2306 2713 2506 2909 
Q 2706 3106 2706 3481 
Q 2706 3863 2507 4063 
Q 2309 4263 1925 4263 
Q 1547 4263 1347 4061 
Q 1147 3859 1147 3481 
z
" transform="scale(0.015625)"/>
      </defs>
      <use xlink:href="#DejaVuSansMono-54"/>
      <use xlink:href="#DejaVuSansMono-38" x="60.205078"/>
     </g>
    </g>
    <g id="line2d_25">
     <path d="M 36 98.879325 
L 56 98.879325 
L 76 98.879325 
" style="fill: none; stroke: #0077b2; stroke-width: 4"/>
    </g>
    <g id="text_18">
     <!-- T31 -->
     <g transform="translate(92 105.879325) scale(0.2 -0.2)">
      <use xlink:href="#DejaVuSansMono-54"/>
      <use xlink:href="#DejaVuSansMono-33" x="60.205078"/>
      <use xlink:href="#DejaVuSansMono-31" x="120.410156"/>
     </g>
    </g>
    <g id="line2d_26">
     <path style="fill: none; stroke: #00b192; stroke-width: 4"/>
    </g>
    <g id="text_19">
     <!-- T61 -->
     <g transform="translate(92 135.341825) scale(0.2 -0.2)">
      <use xlink:href="#DejaVuSansMono-54"/>
      <use xlink:href="#DejaVuSansMono-36" x="60.205078"/>
      <use xlink:href="#DejaVuSansMono-31" x="120.410156"/>
     </g>
    </g>
    <g id="line2d_27">
     <path style="fill: none; stroke: #00b21d; stroke-width: 4"/>
    </g>
    <g id="text_20">
     <!-- T67 -->
     <g transform="translate(92 164.804325) scale(0.2 -0.2)">
      <use xlink:href="#DejaVuSansMono-54"/>
      <use xlink:href="#DejaVuSansMono-36" x="60.205078"/>
      <use xlink:href="#DejaVuSansMono-37" x="120.410156"/>
     </g>
    </g>
    <g id="line2d_28">
     <path style="fill: none; stroke: #369900; stroke-width: 4"/>
    </g>
    <g id="text_21">
     <!-- T85 -->
     <g transform="translate(92 194.266825) scale(0.2 -0.2)">
      <use xlink:href="#DejaVuSansMono-54"/>
      <use xlink:href="#DejaVuSansMono-38" x="60.205078"/>
      <use xlink:href="#DejaVuSansMono-35" x="120.410156"/>
     </g>
    </g>
    <g id="line2d_29">
     <path style="fill: none; stroke: #57b221; stroke-width: 4"/>
    </g>
    <g id="text_22">
     <!-- T108 -->
     <g transform="translate(92 223.729325) scale(0.2 -0.2)">
      <use xlink:href="#DejaVuSansMono-54"/>
      <use xlink:href="#DejaVuSansMono-31" x="60.205078"/>
      <use xlink:href="#DejaVuSansMono-30" x="120.410156"/>
      <use xlink:href="#DejaVuSansMono-38" x="180.615234"/>
     </g>
    </g>
    <g id="line2d_30">
     <path style="fill: none; stroke: #80ac00; stroke-width: 4"/>
    </g>
    <g id="text_23">
     <!-- 278TI -->
     <g transform="translate(92 253.191825) scale(0.2 -0.2)">
      <defs>
       <path id="DejaVuSansMono-32" d="M 1166 531 
L 3309 531 
L 3309 0 
L 475 0 
L 475 531 
Q 1059 1147 1496 1619 
Q 1934 2091 2100 2284 
Q 2413 2666 2522 2902 
Q 2631 3138 2631 3384 
Q 2631 3775 2401 3997 
Q 2172 4219 1772 4219 
Q 1488 4219 1175 4116 
Q 863 4013 513 3803 
L 513 4441 
Q 834 4594 1145 4672 
Q 1456 4750 1759 4750 
Q 2444 4750 2861 4386 
Q 3278 4022 3278 3431 
Q 3278 3131 3139 2831 
Q 3000 2531 2688 2169 
Q 2513 1966 2180 1606 
Q 1847 1247 1166 531 
z
" transform="scale(0.015625)"/>
      </defs>
      <use xlink:href="#DejaVuSansMono-32"/>
      <use xlink:href="#DejaVuSansMono-37" x="60.205078"/>
      <use xlink:href="#DejaVuSansMono-38" x="120.410156"/>
      <use xlink:href="#DejaVuSansMono-54" x="180.615234"/>
      <use xlink:href="#DejaVuSansMono-49" x="240.820312"/>
     </g>
    </g>
    <g id="line2d_31">
     <path style="fill: none; stroke: #808907; stroke-width: 4"/>
    </g>
    <g id="text_24">
     <!-- 283TI -->
     <g transform="translate(92 282.654325) scale(0.2 -0.2)">
      <use xlink:href="#DejaVuSansMono-32"/>
      <use xlink:href="#DejaVuSansMono-38" x="60.205078"/>
      <use xlink:href="#DejaVuSansMono-33" x="120.410156"/>
      <use xlink:href="#DejaVuSansMono-54" x="180.615234"/>
      <use xlink:href="#DejaVuSansMono-49" x="240.820312"/>
     </g>
    </g>
   </g>
  </g>
  <g id="text_25">
   <!-- 1.00295µm -->
   <g transform="translate(72 11.376) scale(0.24 -0.24)">
    <defs>
     <path id="DejaVuSansMono-b5" d="M 609 -1338 
L 609 3500 
L 1184 3500 
L 1184 1325 
Q 1184 881 1371 645 
Q 1559 409 1906 409 
Q 2303 409 2504 675 
Q 2706 941 2706 1459 
L 2706 3500 
L 3284 3500 
L 3284 800 
Q 3284 616 3334 528 
Q 3384 441 3488 441 
Q 3516 441 3561 456 
Q 3606 472 3694 513 
L 3694 50 
Q 3575 -22 3469 -56 
Q 3363 -91 3256 -91 
Q 3063 -91 2945 32 
Q 2828 156 2791 403 
Q 2647 153 2439 31 
Q 2231 -91 1953 -91 
Q 1666 -91 1467 28 
Q 1269 147 1131 397 
L 1131 -1338 
L 609 -1338 
z
" transform="scale(0.015625)"/>
     <path id="DejaVuSansMono-6d" d="M 2113 3144 
Q 2219 3369 2383 3476 
Q 2547 3584 2778 3584 
Q 3200 3584 3373 3257 
Q 3547 2931 3547 2028 
L 3547 0 
L 3022 0 
L 3022 2003 
Q 3022 2744 2939 2923 
Q 2856 3103 2638 3103 
Q 2388 3103 2295 2911 
Q 2203 2719 2203 2003 
L 2203 0 
L 1678 0 
L 1678 2003 
Q 1678 2753 1589 2928 
Q 1500 3103 1269 3103 
Q 1041 3103 952 2911 
Q 863 2719 863 2003 
L 863 0 
L 341 0 
L 341 3500 
L 863 3500 
L 863 3200 
Q 966 3388 1120 3486 
Q 1275 3584 1472 3584 
Q 1709 3584 1867 3475 
Q 2025 3366 2113 3144 
z
" transform="scale(0.015625)"/>
    </defs>
    <use xlink:href="#DejaVuSansMono-31"/>
    <use xlink:href="#DejaVuSansMono-2e" x="60.205078"/>
    <use xlink:href="#DejaVuSansMono-30" x="120.410156"/>
    <use xlink:href="#DejaVuSansMono-30" x="180.615234"/>
    <use xlink:href="#DejaVuSansMono-32" x="240.820312"/>
    <use xlink:href="#DejaVuSansMono-39" x="301.025391"/>
    <use xlink:href="#DejaVuSansMono-35" x="361.230469"/>
    <use xlink:href="#DejaVuSansMono-b5" x="421.435547"/>
    <use xlink:href="#DejaVuSansMono-6d" x="481.640625"/>
   </g>
  </g>
 </g>
 <defs>
  <clipPath id="p3b2d00e31a">
   <rect x="18" y="13.6512" width="111.6" height="87.5952"/>
  </clipPath>
 </defs>
</svg>
