<?xml version="1.0" encoding="utf-8" standalone="no"?>
<!DOCTYPE svg PUBLIC "-//W3C//DTD SVG 1.1//EN"
  "http://www.w3.org/Graphics/SVG/1.1/DTD/svg11.dtd">
<svg xmlns:xlink="http://www.w3.org/1999/xlink" width="1152pt" height="733.68pt" viewBox="0 0 1152 733.68" xmlns="http://www.w3.org/2000/svg" version="1.1">
 <metadata>
  <rdf:RDF xmlns:dc="http://purl.org/dc/elements/1.1/" xmlns:cc="http://creativecommons.org/ns#" xmlns:rdf="http://www.w3.org/1999/02/22-rdf-syntax-ns#">
   <cc:Work>
    <dc:type rdf:resource="http://purl.org/dc/dcmitype/StillImage"/>
    <dc:date>2022-05-15T21:08:25.979074</dc:date>
    <dc:format>image/svg+xml</dc:format>
    <dc:creator>
     <cc:Agent>
      <dc:title>Matplotlib v3.5.1, https://matplotlib.org/</dc:title>
     </cc:Agent>
    </dc:creator>
   </cc:Work>
  </rdf:RDF>
 </metadata>
 <defs>
  <style type="text/css">*{stroke-linejoin: round; stroke-linecap: butt}</style>
 </defs>
 <g id="figure_1">
  <g id="patch_1">
   <path d="M 0 733.68 
L 1152 733.68 
L 1152 0 
L 0 0 
z
" style="fill: #ffffff"/>
  </g>
  <g id="axes_1">
   <g id="patch_2">
    <path d="M 144 652.9752 
L 1036.8 652.9752 
L 1036.8 88.0416 
L 144 88.0416 
z
" style="fill: #ffffff"/>
   </g>
   <g id="matplotlib.axis_1">
    <g id="xtick_1">
     <g id="line2d_1">
      <defs>
       <path id="m497822f104" d="M 0 0 
L 0 3.5 
" style="stroke: #000000; stroke-width: 0.8"/>
      </defs>
      <g>
       <use xlink:href="#m497822f104" x="144" y="652.9752" style="stroke: #000000; stroke-width: 0.8"/>
      </g>
     </g>
     <g id="text_1">
      <!-- 0.000 -->
      <g transform="translate(116.908594 673.748012)scale(0.18 -0.18)">
       <defs>
        <path id="DejaVuSansMono-30" d="M 1509 2344 
Q 1509 2516 1629 2641 
Q 1750 2766 1919 2766 
Q 2094 2766 2219 2641 
Q 2344 2516 2344 2344 
Q 2344 2169 2220 2047 
Q 2097 1925 1919 1925 
Q 1744 1925 1626 2044 
Q 1509 2163 1509 2344 
z
M 1925 4250 
Q 1484 4250 1267 3775 
Q 1050 3300 1050 2328 
Q 1050 1359 1267 884 
Q 1484 409 1925 409 
Q 2369 409 2586 884 
Q 2803 1359 2803 2328 
Q 2803 3300 2586 3775 
Q 2369 4250 1925 4250 
z
M 1925 4750 
Q 2672 4750 3055 4137 
Q 3438 3525 3438 2328 
Q 3438 1134 3055 521 
Q 2672 -91 1925 -91 
Q 1178 -91 797 521 
Q 416 1134 416 2328 
Q 416 3525 797 4137 
Q 1178 4750 1925 4750 
z
" transform="scale(0.015625)"/>
        <path id="DejaVuSansMono-2e" d="M 1528 953 
L 2316 953 
L 2316 0 
L 1528 0 
L 1528 953 
z
" transform="scale(0.015625)"/>
       </defs>
       <use xlink:href="#DejaVuSansMono-30"/>
       <use xlink:href="#DejaVuSansMono-2e" x="60.205078"/>
       <use xlink:href="#DejaVuSansMono-30" x="120.410156"/>
       <use xlink:href="#DejaVuSansMono-30" x="180.615234"/>
       <use xlink:href="#DejaVuSansMono-30" x="240.820312"/>
      </g>
     </g>
    </g>
    <g id="xtick_2">
     <g id="line2d_2">
      <g>
       <use xlink:href="#m497822f104" x="322.56" y="652.9752" style="stroke: #000000; stroke-width: 0.8"/>
      </g>
     </g>
     <g id="text_2">
      <!-- 0.015 -->
      <g transform="translate(295.468594 673.748012)scale(0.18 -0.18)">
       <defs>
        <path id="DejaVuSansMono-31" d="M 844 531 
L 1825 531 
L 1825 4097 
L 769 3859 
L 769 4434 
L 1819 4666 
L 2450 4666 
L 2450 531 
L 3419 531 
L 3419 0 
L 844 0 
L 844 531 
z
" transform="scale(0.015625)"/>
        <path id="DejaVuSansMono-35" d="M 647 4666 
L 3009 4666 
L 3009 4134 
L 1222 4134 
L 1222 2988 
Q 1356 3038 1492 3061 
Q 1628 3084 1766 3084 
Q 2491 3084 2916 2656 
Q 3341 2228 3341 1497 
Q 3341 759 2895 334 
Q 2450 -91 1678 -91 
Q 1306 -91 998 -41 
Q 691 9 447 109 
L 447 750 
Q 734 594 1025 517 
Q 1316 441 1619 441 
Q 2141 441 2423 716 
Q 2706 991 2706 1497 
Q 2706 1997 2414 2275 
Q 2122 2553 1600 2553 
Q 1347 2553 1106 2495 
Q 866 2438 647 2322 
L 647 4666 
z
" transform="scale(0.015625)"/>
       </defs>
       <use xlink:href="#DejaVuSansMono-30"/>
       <use xlink:href="#DejaVuSansMono-2e" x="60.205078"/>
       <use xlink:href="#DejaVuSansMono-30" x="120.410156"/>
       <use xlink:href="#DejaVuSansMono-31" x="180.615234"/>
       <use xlink:href="#DejaVuSansMono-35" x="240.820312"/>
      </g>
     </g>
    </g>
    <g id="xtick_3">
     <g id="line2d_3">
      <g>
       <use xlink:href="#m497822f104" x="501.12" y="652.9752" style="stroke: #000000; stroke-width: 0.8"/>
      </g>
     </g>
     <g id="text_3">
      <!-- 0.030 -->
      <g transform="translate(474.028594 673.748012)scale(0.18 -0.18)">
       <defs>
        <path id="DejaVuSansMono-33" d="M 2425 2497 
Q 2884 2375 3128 2064 
Q 3372 1753 3372 1288 
Q 3372 644 2939 276 
Q 2506 -91 1741 -91 
Q 1419 -91 1084 -31 
Q 750 28 428 141 
L 428 769 
Q 747 603 1056 522 
Q 1366 441 1672 441 
Q 2191 441 2469 675 
Q 2747 909 2747 1350 
Q 2747 1756 2469 1995 
Q 2191 2234 1716 2234 
L 1234 2234 
L 1234 2753 
L 1716 2753 
Q 2150 2753 2394 2943 
Q 2638 3134 2638 3475 
Q 2638 3834 2411 4026 
Q 2184 4219 1766 4219 
Q 1488 4219 1191 4156 
Q 894 4094 569 3969 
L 569 4550 
Q 947 4650 1242 4700 
Q 1538 4750 1766 4750 
Q 2447 4750 2855 4408 
Q 3263 4066 3263 3500 
Q 3263 3116 3048 2859 
Q 2834 2603 2425 2497 
z
" transform="scale(0.015625)"/>
       </defs>
       <use xlink:href="#DejaVuSansMono-30"/>
       <use xlink:href="#DejaVuSansMono-2e" x="60.205078"/>
       <use xlink:href="#DejaVuSansMono-30" x="120.410156"/>
       <use xlink:href="#DejaVuSansMono-33" x="180.615234"/>
       <use xlink:href="#DejaVuSansMono-30" x="240.820312"/>
      </g>
     </g>
    </g>
    <g id="xtick_4">
     <g id="line2d_4">
      <g>
       <use xlink:href="#m497822f104" x="679.68" y="652.9752" style="stroke: #000000; stroke-width: 0.8"/>
      </g>
     </g>
     <g id="text_4">
      <!-- 0.045 -->
      <g transform="translate(652.588594 673.748012)scale(0.18 -0.18)">
       <defs>
        <path id="DejaVuSansMono-34" d="M 2297 4091 
L 825 1625 
L 2297 1625 
L 2297 4091 
z
M 2194 4666 
L 2925 4666 
L 2925 1625 
L 3547 1625 
L 3547 1113 
L 2925 1113 
L 2925 0 
L 2297 0 
L 2297 1113 
L 319 1113 
L 319 1709 
L 2194 4666 
z
" transform="scale(0.015625)"/>
       </defs>
       <use xlink:href="#DejaVuSansMono-30"/>
       <use xlink:href="#DejaVuSansMono-2e" x="60.205078"/>
       <use xlink:href="#DejaVuSansMono-30" x="120.410156"/>
       <use xlink:href="#DejaVuSansMono-34" x="180.615234"/>
       <use xlink:href="#DejaVuSansMono-35" x="240.820312"/>
      </g>
     </g>
    </g>
    <g id="xtick_5">
     <g id="line2d_5">
      <g>
       <use xlink:href="#m497822f104" x="858.24" y="652.9752" style="stroke: #000000; stroke-width: 0.8"/>
      </g>
     </g>
     <g id="text_5">
      <!-- 0.060 -->
      <g transform="translate(831.148594 673.748012)scale(0.18 -0.18)">
       <defs>
        <path id="DejaVuSansMono-36" d="M 3097 4563 
L 3097 3981 
Q 2900 4097 2678 4158 
Q 2456 4219 2216 4219 
Q 1616 4219 1306 3767 
Q 997 3316 997 2438 
Q 1147 2750 1412 2917 
Q 1678 3084 2022 3084 
Q 2697 3084 3067 2670 
Q 3438 2256 3438 1497 
Q 3438 741 3056 325 
Q 2675 -91 1984 -91 
Q 1172 -91 794 492 
Q 416 1075 416 2328 
Q 416 3509 870 4129 
Q 1325 4750 2188 4750 
Q 2419 4750 2650 4701 
Q 2881 4653 3097 4563 
z
M 1972 2591 
Q 1569 2591 1337 2300 
Q 1106 2009 1106 1497 
Q 1106 984 1337 693 
Q 1569 403 1972 403 
Q 2391 403 2603 679 
Q 2816 956 2816 1497 
Q 2816 2041 2603 2316 
Q 2391 2591 1972 2591 
z
" transform="scale(0.015625)"/>
       </defs>
       <use xlink:href="#DejaVuSansMono-30"/>
       <use xlink:href="#DejaVuSansMono-2e" x="60.205078"/>
       <use xlink:href="#DejaVuSansMono-30" x="120.410156"/>
       <use xlink:href="#DejaVuSansMono-36" x="180.615234"/>
       <use xlink:href="#DejaVuSansMono-30" x="240.820312"/>
      </g>
     </g>
    </g>
    <g id="xtick_6">
     <g id="line2d_6">
      <g>
       <use xlink:href="#m497822f104" x="1036.8" y="652.9752" style="stroke: #000000; stroke-width: 0.8"/>
      </g>
     </g>
     <g id="text_6">
      <!-- 0.075 -->
      <g transform="translate(1009.708594 673.748012)scale(0.18 -0.18)">
       <defs>
        <path id="DejaVuSansMono-37" d="M 434 4666 
L 3372 4666 
L 3372 4397 
L 1703 0 
L 1044 0 
L 2669 4134 
L 434 4134 
L 434 4666 
z
" transform="scale(0.015625)"/>
       </defs>
       <use xlink:href="#DejaVuSansMono-30"/>
       <use xlink:href="#DejaVuSansMono-2e" x="60.205078"/>
       <use xlink:href="#DejaVuSansMono-30" x="120.410156"/>
       <use xlink:href="#DejaVuSansMono-37" x="180.615234"/>
       <use xlink:href="#DejaVuSansMono-35" x="240.820312"/>
      </g>
     </g>
    </g>
    <g id="text_7">
     <!-- I/F -->
     <g transform="translate(576.854297 692.968794)scale(0.15 -0.15)">
      <defs>
       <path id="DejaVuSansMono-49" d="M 628 4666 
L 3219 4666 
L 3219 4134 
L 2241 4134 
L 2241 531 
L 3219 531 
L 3219 0 
L 628 0 
L 628 531 
L 1606 531 
L 1606 4134 
L 628 4134 
L 628 4666 
z
" transform="scale(0.015625)"/>
       <path id="DejaVuSansMono-2f" d="M 2778 4666 
L 3372 4666 
L 916 -594 
L 319 -594 
L 2778 4666 
z
" transform="scale(0.015625)"/>
       <path id="DejaVuSansMono-46" d="M 728 4666 
L 3475 4666 
L 3475 4134 
L 1363 4134 
L 1363 2759 
L 3278 2759 
L 3278 2228 
L 1363 2228 
L 1363 0 
L 728 0 
L 728 4666 
z
" transform="scale(0.015625)"/>
      </defs>
      <use xlink:href="#DejaVuSansMono-49"/>
      <use xlink:href="#DejaVuSansMono-2f" x="60.205078"/>
      <use xlink:href="#DejaVuSansMono-46" x="120.410156"/>
     </g>
    </g>
   </g>
   <g id="matplotlib.axis_2">
    <g id="ytick_1">
     <g id="line2d_7">
      <defs>
       <path id="m13970c8b29" d="M 0 0 
L -3.5 0 
" style="stroke: #000000; stroke-width: 0.8"/>
      </defs>
      <g>
       <use xlink:href="#m13970c8b29" x="144" y="652.9752" style="stroke: #000000; stroke-width: 0.8"/>
      </g>
     </g>
     <g id="text_8">
      <!-- 90°S -->
      <g transform="translate(93.65375 659.861606)scale(0.18 -0.18)">
       <defs>
        <path id="DejaVuSansMono-39" d="M 1863 2069 
Q 2266 2069 2495 2359 
Q 2725 2650 2725 3163 
Q 2725 3675 2495 3965 
Q 2266 4256 1863 4256 
Q 1444 4256 1231 3979 
Q 1019 3703 1019 3163 
Q 1019 2619 1230 2344 
Q 1441 2069 1863 2069 
z
M 738 97 
L 738 678 
Q 934 563 1156 502 
Q 1378 441 1619 441 
Q 2219 441 2526 892 
Q 2834 1344 2834 2222 
Q 2688 1909 2422 1742 
Q 2156 1575 1813 1575 
Q 1138 1575 767 1990 
Q 397 2406 397 3169 
Q 397 3922 776 4336 
Q 1156 4750 1850 4750 
Q 2663 4750 3041 4165 
Q 3419 3581 3419 2328 
Q 3419 1150 2964 529 
Q 2509 -91 1644 -91 
Q 1416 -91 1184 -42 
Q 953 6 738 97 
z
" transform="scale(0.015625)"/>
        <path id="DejaVuSansMono-b0" d="M 1925 4750 
Q 2128 4750 2311 4673 
Q 2494 4597 2631 4453 
Q 2772 4313 2845 4134 
Q 2919 3956 2919 3750 
Q 2919 3338 2628 3052 
Q 2338 2766 1919 2766 
Q 1497 2766 1215 3047 
Q 934 3328 934 3750 
Q 934 4169 1221 4459 
Q 1509 4750 1925 4750 
z
M 1925 4347 
Q 1678 4347 1504 4173 
Q 1331 4000 1331 3750 
Q 1331 3500 1501 3331 
Q 1672 3163 1919 3163 
Q 2169 3163 2345 3334 
Q 2522 3506 2522 3750 
Q 2522 3997 2347 4172 
Q 2172 4347 1925 4347 
z
" transform="scale(0.015625)"/>
        <path id="DejaVuSansMono-53" d="M 3163 4506 
L 3163 3866 
Q 2875 4050 2586 4144 
Q 2297 4238 2003 4238 
Q 1556 4238 1297 4030 
Q 1038 3822 1038 3469 
Q 1038 3159 1208 2996 
Q 1378 2834 1844 2725 
L 2175 2650 
Q 2831 2497 3131 2169 
Q 3431 1841 3431 1275 
Q 3431 609 3018 259 
Q 2606 -91 1819 -91 
Q 1491 -91 1159 -20 
Q 828 50 494 191 
L 494 863 
Q 853 634 1173 528 
Q 1494 422 1819 422 
Q 2297 422 2562 636 
Q 2828 850 2828 1234 
Q 2828 1584 2645 1768 
Q 2463 1953 2009 2053 
L 1672 2131 
Q 1022 2278 728 2575 
Q 434 2872 434 3372 
Q 434 3997 854 4373 
Q 1275 4750 1972 4750 
Q 2241 4750 2537 4689 
Q 2834 4628 3163 4506 
z
" transform="scale(0.015625)"/>
       </defs>
       <use xlink:href="#DejaVuSansMono-39"/>
       <use xlink:href="#DejaVuSansMono-30" x="60.205078"/>
       <use xlink:href="#DejaVuSansMono-b0" x="120.410156"/>
       <use xlink:href="#DejaVuSansMono-53" x="180.615234"/>
      </g>
     </g>
    </g>
    <g id="ytick_2">
     <g id="line2d_8">
      <g>
       <use xlink:href="#m13970c8b29" x="144" y="558.8196" style="stroke: #000000; stroke-width: 0.8"/>
      </g>
     </g>
     <g id="text_9">
      <!-- 60°S -->
      <g transform="translate(93.65375 565.706006)scale(0.18 -0.18)">
       <use xlink:href="#DejaVuSansMono-36"/>
       <use xlink:href="#DejaVuSansMono-30" x="60.205078"/>
       <use xlink:href="#DejaVuSansMono-b0" x="120.410156"/>
       <use xlink:href="#DejaVuSansMono-53" x="180.615234"/>
      </g>
     </g>
    </g>
    <g id="ytick_3">
     <g id="line2d_9">
      <g>
       <use xlink:href="#m13970c8b29" x="144" y="464.664" style="stroke: #000000; stroke-width: 0.8"/>
      </g>
     </g>
     <g id="text_10">
      <!-- 30°S -->
      <g transform="translate(93.65375 471.550406)scale(0.18 -0.18)">
       <use xlink:href="#DejaVuSansMono-33"/>
       <use xlink:href="#DejaVuSansMono-30" x="60.205078"/>
       <use xlink:href="#DejaVuSansMono-b0" x="120.410156"/>
       <use xlink:href="#DejaVuSansMono-53" x="180.615234"/>
      </g>
     </g>
    </g>
    <g id="ytick_4">
     <g id="line2d_10">
      <g>
       <use xlink:href="#m13970c8b29" x="144" y="370.5084" style="stroke: #000000; stroke-width: 0.8"/>
      </g>
     </g>
     <g id="text_11">
      <!-- 0° -->
      <g transform="translate(115.326875 377.394806)scale(0.18 -0.18)">
       <use xlink:href="#DejaVuSansMono-30"/>
       <use xlink:href="#DejaVuSansMono-b0" x="60.205078"/>
      </g>
     </g>
    </g>
    <g id="ytick_5">
     <g id="line2d_11">
      <g>
       <use xlink:href="#m13970c8b29" x="144" y="276.3528" style="stroke: #000000; stroke-width: 0.8"/>
      </g>
     </g>
     <g id="text_12">
      <!-- 30°N -->
      <g transform="translate(93.65375 283.239206)scale(0.18 -0.18)">
       <defs>
        <path id="DejaVuSansMono-4e" d="M 434 4666 
L 1234 4666 
L 2809 825 
L 2809 4666 
L 3419 4666 
L 3419 0 
L 2619 0 
L 1044 3841 
L 1044 0 
L 434 0 
L 434 4666 
z
" transform="scale(0.015625)"/>
       </defs>
       <use xlink:href="#DejaVuSansMono-33"/>
       <use xlink:href="#DejaVuSansMono-30" x="60.205078"/>
       <use xlink:href="#DejaVuSansMono-b0" x="120.410156"/>
       <use xlink:href="#DejaVuSansMono-4e" x="180.615234"/>
      </g>
     </g>
    </g>
    <g id="ytick_6">
     <g id="line2d_12">
      <g>
       <use xlink:href="#m13970c8b29" x="144" y="182.1972" style="stroke: #000000; stroke-width: 0.8"/>
      </g>
     </g>
     <g id="text_13">
      <!-- 60°N -->
      <g transform="translate(93.65375 189.083606)scale(0.18 -0.18)">
       <use xlink:href="#DejaVuSansMono-36"/>
       <use xlink:href="#DejaVuSansMono-30" x="60.205078"/>
       <use xlink:href="#DejaVuSansMono-b0" x="120.410156"/>
       <use xlink:href="#DejaVuSansMono-4e" x="180.615234"/>
      </g>
     </g>
    </g>
    <g id="ytick_7">
     <g id="line2d_13">
      <g>
       <use xlink:href="#m13970c8b29" x="144" y="88.0416" style="stroke: #000000; stroke-width: 0.8"/>
      </g>
     </g>
     <g id="text_14">
      <!-- 90°N -->
      <g transform="translate(93.65375 94.928006)scale(0.18 -0.18)">
       <use xlink:href="#DejaVuSansMono-39"/>
       <use xlink:href="#DejaVuSansMono-30" x="60.205078"/>
       <use xlink:href="#DejaVuSansMono-b0" x="120.410156"/>
       <use xlink:href="#DejaVuSansMono-4e" x="180.615234"/>
      </g>
     </g>
    </g>
    <g id="text_15">
     <!-- Latitude -->
     <g transform="translate(86.534219 406.630275)rotate(-90)scale(0.15 -0.15)">
      <defs>
       <path id="DejaVuSansMono-4c" d="M 672 4666 
L 1306 4666 
L 1306 531 
L 3559 531 
L 3559 0 
L 672 0 
L 672 4666 
z
" transform="scale(0.015625)"/>
       <path id="DejaVuSansMono-61" d="M 2194 1759 
L 2003 1759 
Q 1500 1759 1245 1582 
Q 991 1406 991 1056 
Q 991 741 1181 566 
Q 1372 391 1709 391 
Q 2184 391 2456 720 
Q 2728 1050 2731 1631 
L 2731 1759 
L 2194 1759 
z
M 3309 1997 
L 3309 0 
L 2731 0 
L 2731 519 
Q 2547 206 2267 57 
Q 1988 -91 1588 -91 
Q 1053 -91 734 211 
Q 416 513 416 1019 
Q 416 1603 808 1906 
Q 1200 2209 1959 2209 
L 2731 2209 
L 2731 2300 
Q 2728 2719 2518 2908 
Q 2309 3097 1850 3097 
Q 1556 3097 1256 3012 
Q 956 2928 672 2766 
L 672 3341 
Q 991 3463 1283 3523 
Q 1575 3584 1850 3584 
Q 2284 3584 2592 3456 
Q 2900 3328 3091 3072 
Q 3209 2916 3259 2686 
Q 3309 2456 3309 1997 
z
" transform="scale(0.015625)"/>
       <path id="DejaVuSansMono-74" d="M 1919 4494 
L 1919 3500 
L 3225 3500 
L 3225 3053 
L 1919 3053 
L 1919 1153 
Q 1919 766 2066 612 
Q 2213 459 2578 459 
L 3225 459 
L 3225 0 
L 2522 0 
Q 1875 0 1609 259 
Q 1344 519 1344 1153 
L 1344 3053 
L 409 3053 
L 409 3500 
L 1344 3500 
L 1344 4494 
L 1919 4494 
z
" transform="scale(0.015625)"/>
       <path id="DejaVuSansMono-69" d="M 800 3500 
L 2272 3500 
L 2272 447 
L 3413 447 
L 3413 0 
L 556 0 
L 556 447 
L 1697 447 
L 1697 3053 
L 800 3053 
L 800 3500 
z
M 1697 4863 
L 2272 4863 
L 2272 4134 
L 1697 4134 
L 1697 4863 
z
" transform="scale(0.015625)"/>
       <path id="DejaVuSansMono-75" d="M 609 1325 
L 609 3494 
L 1184 3494 
L 1184 1325 
Q 1184 853 1351 631 
Q 1519 409 1869 409 
Q 2275 409 2490 695 
Q 2706 981 2706 1516 
L 2706 3494 
L 3284 3494 
L 3284 0 
L 2706 0 
L 2706 525 
Q 2553 222 2289 65 
Q 2025 -91 1672 -91 
Q 1134 -91 871 261 
Q 609 613 609 1325 
z
" transform="scale(0.015625)"/>
       <path id="DejaVuSansMono-64" d="M 2681 3053 
L 2681 4863 
L 3256 4863 
L 3256 0 
L 2681 0 
L 2681 441 
Q 2538 181 2298 45 
Q 2059 -91 1747 -91 
Q 1113 -91 748 401 
Q 384 894 384 1759 
Q 384 2613 750 3098 
Q 1116 3584 1747 3584 
Q 2063 3584 2303 3448 
Q 2544 3313 2681 3053 
z
M 991 1747 
Q 991 1078 1203 737 
Q 1416 397 1831 397 
Q 2247 397 2464 740 
Q 2681 1084 2681 1747 
Q 2681 2413 2464 2755 
Q 2247 3097 1831 3097 
Q 1416 3097 1203 2756 
Q 991 2416 991 1747 
z
" transform="scale(0.015625)"/>
       <path id="DejaVuSansMono-65" d="M 3475 1894 
L 3475 1613 
L 984 1613 
L 984 1594 
Q 984 1022 1282 709 
Q 1581 397 2125 397 
Q 2400 397 2700 484 
Q 3000 572 3341 750 
L 3341 178 
Q 3013 44 2708 -23 
Q 2403 -91 2119 -91 
Q 1303 -91 843 398 
Q 384 888 384 1747 
Q 384 2584 834 3084 
Q 1284 3584 2034 3584 
Q 2703 3584 3089 3131 
Q 3475 2678 3475 1894 
z
M 2900 2063 
Q 2888 2569 2661 2833 
Q 2434 3097 2009 3097 
Q 1594 3097 1325 2822 
Q 1056 2547 1006 2059 
L 2900 2063 
z
" transform="scale(0.015625)"/>
      </defs>
      <use xlink:href="#DejaVuSansMono-4c"/>
      <use xlink:href="#DejaVuSansMono-61" x="60.205078"/>
      <use xlink:href="#DejaVuSansMono-74" x="120.410156"/>
      <use xlink:href="#DejaVuSansMono-69" x="180.615234"/>
      <use xlink:href="#DejaVuSansMono-74" x="240.820312"/>
      <use xlink:href="#DejaVuSansMono-75" x="301.025391"/>
      <use xlink:href="#DejaVuSansMono-64" x="361.230469"/>
      <use xlink:href="#DejaVuSansMono-65" x="421.435547"/>
     </g>
    </g>
   </g>
   <g id="line2d_14">
    <path d="M 340.815112 113.14976 
L 340.815112 117.85754 
L 340.973493 119.4268 
L 340.973493 120.99606 
L 341.171431 122.56532 
L 341.171431 125.70384 
L 342.347837 127.2731 
L 342.347837 128.84236 
L 355.48053 130.41162 
L 355.768978 131.98088 
L 356.713478 133.55014 
L 357.194231 135.1194 
L 358.749551 136.68866 
L 359.377356 138.25792 
L 359.812832 139.82718 
L 361.877198 141.39644 
L 362.109082 142.9657 
L 362.465401 144.53496 
L 362.58416 146.10422 
L 363.6305 147.67348 
L 364.196065 149.24274 
L 364.512783 150.812 
L 365.429035 153.95052 
L 365.88715 157.08904 
L 366.379211 158.6583 
L 366.509278 160.22756 
L 368.641493 164.93534 
L 368.856415 166.5046 
L 369.800938 168.07386 
L 370.366503 169.64312 
L 370.666258 171.21238 
L 371.933153 172.78164 
L 372.787188 175.92016 
L 373.369737 177.48942 
L 374.574414 179.05868 
L 375.185234 180.62794 
L 376.288093 182.1972 
L 377.956562 183.76646 
L 379.370507 185.33572 
L 380.337624 186.90498 
L 380.846648 188.47424 
L 382.481169 190.0435 
L 383.340858 191.61276 
L 385.439149 193.18202 
L 386.19702 194.75128 
L 389.194578 196.32054 
L 390.059898 197.8898 
L 393.125328 199.45906 
L 395.082222 201.02832 
L 396.343462 202.59758 
L 399.985765 204.16684 
L 400.952926 205.7361 
L 403.232192 207.30536 
L 403.611127 208.87462 
L 406.241058 210.44388 
L 407.671966 212.01314 
L 409.380013 213.5824 
L 410.79959 215.15166 
L 412.937482 216.72092 
L 415.612668 219.85944 
L 418.061623 221.4287 
L 419.701799 222.99796 
L 421.969757 224.56722 
L 425.662969 227.70574 
L 427.631171 229.275 
L 429.802987 230.84426 
L 432.54039 232.41352 
L 437.353445 235.55204 
L 439.0332 237.1213 
L 442.262642 238.69056 
L 442.635946 240.25982 
L 445.644812 241.82908 
L 447.398092 243.39834 
L 449.620795 244.9676 
L 451.447623 246.53686 
L 453.670326 248.10612 
L 455.593295 249.67538 
L 456.566088 251.24464 
L 459.427903 252.8139 
L 460.417681 254.38316 
L 462.832689 255.95242 
L 464.772599 257.52168 
L 467.368627 259.09094 
L 469.065344 260.6602 
L 473.216671 263.79872 
L 475.94842 265.36798 
L 478.866798 268.5065 
L 480.91418 270.07576 
L 482.390342 271.64502 
L 483.685508 273.21428 
L 485.478388 274.78354 
L 487.802909 276.3528 
L 489.403484 277.92206 
L 491.631864 279.49132 
L 494.21654 282.62984 
L 497.423366 285.76836 
L 499.125759 287.33762 
L 501.003473 288.90688 
L 503.576863 290.47614 
L 505.030365 292.0454 
L 506.857193 293.61466 
L 508.395573 295.18392 
L 510.731402 296.75318 
L 512.264106 298.32244 
L 514.75264 299.8917 
L 516.958403 301.46096 
L 518.773878 303.03022 
L 521.098399 304.59948 
L 522.348331 306.16874 
L 524.927397 307.738 
L 526.573205 309.30726 
L 528.530099 310.87652 
L 530.04584 312.44578 
L 531.216615 314.01504 
L 533.224374 315.5843 
L 534.389472 317.15356 
L 536.50477 318.72282 
L 537.794259 320.29208 
L 544.417179 321.86134 
L 545.865071 323.4306 
L 548.57416 324.99986 
L 549.824048 326.56912 
L 551.865819 328.13838 
L 553.703955 329.70764 
L 554.880362 331.2769 
L 556.882489 332.84616 
L 563.618491 334.41542 
L 565.360485 335.98468 
L 566.508599 337.55394 
L 568.584296 339.1232 
L 569.308197 340.69246 
L 571.553517 342.26172 
L 575.190187 345.40024 
L 579.364152 348.53876 
L 581.224905 350.10802 
L 583.843527 351.67728 
L 587.491506 354.8158 
L 592.027422 357.95432 
L 594.221877 359.52358 
L 595.715002 361.09284 
L 598.073447 362.6621 
L 599.634466 364.23136 
L 601.987235 365.80062 
L 605.833174 368.93914 
L 611.160885 372.07766 
L 613.496714 373.64692 
L 621.115066 381.49322 
L 622.189655 383.06248 
L 623.892004 384.63174 
L 624.847834 386.201 
L 626.782112 387.77026 
L 627.777543 389.33952 
L 629.943705 390.90878 
L 630.305656 392.47804 
L 633.563391 395.61656 
L 634.807647 397.18582 
L 636.753233 398.75508 
L 637.584673 400.32434 
L 639.564139 401.8936 
L 640.378595 403.46286 
L 642.26764 405.03212 
L 642.98591 406.60138 
L 644.467727 408.17064 
L 645.587593 409.7399 
L 649.620139 414.44768 
L 651.316855 416.01694 
L 652.566743 417.5862 
L 654.246564 419.15546 
L 655.179734 420.72472 
L 657.159289 422.29398 
L 658.199953 423.86324 
L 659.025673 425.4325 
L 660.976891 427.00176 
L 661.842256 428.57102 
L 664.048018 430.14028 
L 664.732364 431.70954 
L 666.372495 433.2788 
L 667.073825 434.84806 
L 669.454887 436.41732 
L 670.161893 437.98658 
L 671.236482 439.55584 
L 672.984107 441.1251 
L 673.691069 442.69436 
L 675.879848 444.26362 
L 676.287076 445.83288 
L 677.983792 447.40214 
L 678.702106 448.9714 
L 680.155631 450.54066 
L 680.681572 452.10992 
L 683.20973 455.24844 
L 683.605649 456.8177 
L 685.607776 458.38696 
L 686.065913 459.95622 
L 688.169858 461.52548 
L 688.91642 463.09474 
L 690.794157 464.664 
L 691.410564 466.23326 
L 692.626572 467.80252 
L 693.559786 469.37178 
L 694.097081 470.94104 
L 696.025726 472.5103 
L 696.596945 474.07956 
L 698.768739 475.64882 
L 699.017608 477.21808 
L 700.408959 478.78734 
L 701.234679 480.3566 
L 703.23685 483.49512 
L 703.86461 485.06438 
L 705.035385 486.63364 
L 705.459509 488.2029 
L 706.83392 489.77216 
L 707.224119 491.34142 
L 708.813386 494.47994 
L 709.593917 496.0492 
L 710.532763 497.61846 
L 711.262341 499.18772 
L 712.879901 502.32624 
L 714.808502 503.8955 
L 715.210098 505.46476 
L 716.918123 507.03402 
L 717.98708 508.60328 
L 719.310493 510.17254 
L 719.779939 511.7418 
L 720.56047 513.31106 
L 720.871512 514.88032 
L 721.917808 518.01884 
L 722.059227 519.5881 
L 722.342021 521.15736 
L 722.777497 524.29588 
L 724.123571 529.00366 
L 724.864501 530.57292 
L 724.98326 532.14218 
L 725.345211 533.71144 
L 725.639312 536.84996 
L 726.380198 539.98848 
L 726.663036 541.55774 
L 726.623435 543.127 
L 727.019311 544.69626 
L 726.906229 546.26552 
L 726.96277 547.83478 
L 726.64042 550.9733 
L 726.521617 552.54256 
L 725.656297 554.11182 
L 725.984323 555.68108 
L 725.30561 557.25034 
L 725.916474 558.8196 
L 725.017184 560.38886 
L 725.034169 561.95812 
L 724.496874 566.6659 
L 722.800113 568.23516 
L 722.291067 569.80442 
L 721.233463 571.37368 
L 721.012931 572.94294 
L 719.955238 574.5122 
L 719.598963 576.08146 
L 719.638564 577.65072 
L 718.5979 579.21998 
L 718.394308 580.78924 
L 717.104731 582.3585 
L 718.456481 583.92776 
L 717.065174 585.49702 
L 717.336659 587.06628 
L 716.838966 588.63554 
L 715.894444 590.2048 
L 716.047126 591.77406 
L 714.446551 593.34332 
L 714.254268 594.91258 
L 712.687617 596.48184 
L 712.563183 598.0511 
L 710.53844 599.62036 
L 710.097243 601.18962 
L 709.282831 602.75888 
L 708.717288 604.32814 
L 709.20935 605.8974 
L 708.343985 607.46666 
L 708.592854 609.03592 
L 706.601991 610.60518 
L 706.664208 612.17444 
L 703.395165 615.31296 
L 701.500533 616.88222 
L 699.877297 618.45148 
L 699.209936 620.02074 
L 697.275614 621.59 
L 697.168164 623.15926 
L 695.222579 624.72852 
L 694.78147 626.29778 
L 692.807592 627.86704 
L 691.59726 629.4363 
L 689.843958 631.00556 
L 687.513761 632.57482 
L 686.823784 634.14408 
L 684.035494 635.71334 
L 683.656514 637.2826 
L 682.593278 638.85186 
L 680.545874 640.42112 
L 679.188492 641.99038 
L 676.869603 643.55964 
L 669.765973 645.1289 
L 643.421386 646.69816 
L 647.782003 648.26742 
L 657.804033 649.83668 
L 663.776533 651.40594 
L 663.776533 652.9752 
L 663.776533 652.9752 
" clip-path="url(#pf5e6c781d8)" style="fill: none; stroke: #b900ff; stroke-width: 1.5; stroke-linecap: square"/>
   </g>
   <g id="line2d_15">
    <path d="M 215.465281 88.0416 
L 215.465281 91.18012 
L 218.189741 92.74938 
L 220.635376 94.31864 
L 221.925912 97.45716 
L 222.300324 99.02642 
L 222.332192 100.59568 
L 222.587115 102.16494 
L 222.60304 103.7342 
L 223.598827 105.30346 
L 224.45918 106.87272 
L 224.809701 108.44198 
L 225.287672 110.01124 
L 225.988702 111.5805 
L 226.458713 113.14976 
L 226.785331 114.71902 
L 227.382797 116.28828 
L 228.195358 117.85754 
L 232.425437 122.56532 
L 234.432935 124.13458 
L 236.711286 125.70384 
L 238.129278 127.2731 
L 239.961516 128.84236 
L 241.212224 130.41162 
L 243.72159 131.98088 
L 245.23517 133.55014 
L 245.92824 135.1194 
L 250.341539 136.68866 
L 253.018211 138.25792 
L 254.316713 139.82718 
L 256.650813 141.39644 
L 258.395434 142.9657 
L 261.542105 144.53496 
L 262.665341 146.10422 
L 265.103022 147.67348 
L 268.257653 149.24274 
L 270.559901 150.812 
L 272.40011 152.38126 
L 274.01726 153.95052 
L 276.327468 155.51978 
L 278.988197 157.08904 
L 280.669083 158.6583 
L 284.978835 160.22756 
L 287.448367 161.79682 
L 291.55099 163.36608 
L 293.048649 164.93534 
L 298.75248 168.07386 
L 303.070192 169.64312 
L 305.675156 171.21238 
L 312.526136 174.3509 
L 315.409925 175.92016 
L 318.59643 177.48942 
L 325.319938 180.62794 
L 330.848536 182.1972 
L 334.050972 183.76646 
L 340.089392 185.33572 
L 343.291828 186.90498 
L 345.705595 188.47424 
L 350.190602 190.0435 
L 353.584235 191.61276 
L 358.961458 193.18202 
L 361.940834 194.75128 
L 365.947859 196.32054 
L 370.926768 197.8898 
L 374.017674 199.45906 
L 379.90472 201.02832 
L 381.27494 202.59758 
L 385.074848 204.16684 
L 389.711185 205.7361 
L 393.057035 207.30536 
L 398.458139 208.87462 
L 401.692437 210.44388 
L 406.201346 212.01314 
L 408.360191 213.5824 
L 411.857394 215.15166 
L 416.445949 216.72092 
L 419.584637 218.29018 
L 424.483901 219.85944 
L 435.995132 224.56722 
L 438.918743 226.13648 
L 443.738339 227.70574 
L 446.741618 229.275 
L 453.720059 232.41352 
L 456.659613 233.98278 
L 460.714443 235.55204 
L 463.805327 237.1213 
L 467.836254 238.69056 
L 470.935121 240.25982 
L 473.635695 241.82908 
L 477.833917 243.39834 
L 480.040566 244.9676 
L 483.681139 246.53686 
L 486.310006 248.10612 
L 488.596323 249.67538 
L 491.862484 251.24464 
L 493.607117 252.8139 
L 497.35922 254.38316 
L 503.556952 257.52168 
L 506.384954 259.09094 
L 508.838566 260.6602 
L 511.594927 262.22946 
L 514.056476 263.79872 
L 517.6094 265.36798 
L 520.875605 266.93724 
L 522.492721 268.5065 
L 526.452008 270.07576 
L 533.462289 274.78354 
L 536.250446 276.3528 
L 539.723747 277.92206 
L 541.938379 279.49132 
L 547.204094 282.62984 
L 549.968349 284.1991 
L 551.219035 285.76836 
L 556.556458 288.90688 
L 559.16936 290.47614 
L 560.914015 292.0454 
L 562.97725 293.61466 
L 567.884429 296.75318 
L 569.836224 298.32244 
L 572.329614 299.8917 
L 574.337151 301.46096 
L 576.902248 303.03022 
L 578.97351 304.59948 
L 580.686235 306.16874 
L 583.331022 307.738 
L 584.81275 309.30726 
L 587.282282 310.87652 
L 590.659973 314.01504 
L 592.842721 315.5843 
L 594.324449 317.15356 
L 596.547019 318.72282 
L 599.821162 321.86134 
L 601.860539 323.4306 
L 603.637034 324.99986 
L 605.779959 326.56912 
L 609.165587 329.70764 
L 611.308512 331.2769 
L 612.702613 332.84616 
L 617.450502 335.98468 
L 618.828682 337.55394 
L 622.636528 340.69246 
L 624.277591 342.26172 
L 625.639851 343.83098 
L 627.981889 345.40024 
L 629.606987 346.9695 
L 631.455189 348.53876 
L 632.466896 350.10802 
L 634.004366 351.67728 
L 636.466005 353.24654 
L 637.015627 354.8158 
L 638.449551 356.38506 
L 639.485204 357.95432 
L 640.919127 359.52358 
L 642.84693 361.09284 
L 644.033891 362.6621 
L 645.874111 364.23136 
L 647.411582 365.80062 
L 648.702135 367.36988 
L 650.74945 368.93914 
L 651.848828 370.5084 
L 653.465989 372.07766 
L 655.752284 373.64692 
L 656.724167 375.21618 
L 658.612148 376.78544 
L 659.846914 378.3547 
L 661.352544 379.92396 
L 667.00061 384.63174 
L 668.362826 386.201 
L 670.34646 387.77026 
L 671.947656 389.33952 
L 673.716169 390.90878 
L 676.241488 392.47804 
L 679.181042 394.0473 
L 680.439666 395.61656 
L 682.080773 397.18582 
L 684.27944 398.75508 
L 686.039971 400.32434 
L 688.246621 401.8936 
L 690.134645 403.46286 
L 691.377349 405.03212 
L 694.340806 406.60138 
L 695.320672 408.17064 
L 697.399827 409.7399 
L 698.809892 411.30916 
L 699.558716 412.87842 
L 704.338446 414.44768 
L 709.118219 420.72472 
L 712.185223 423.86324 
L 712.949967 425.4325 
L 714.949478 427.00176 
L 715.945308 428.57102 
L 721.011822 433.2788 
L 722.023529 434.84806 
L 723.250357 436.41732 
L 726.436872 439.55584 
L 727.265342 441.1251 
L 728.500108 442.69436 
L 729.280817 444.26362 
L 731.583076 447.40214 
L 733.845513 450.54066 
L 735.128039 453.67918 
L 736.41061 455.24844 
L 737.055887 456.8177 
L 738.051629 458.38696 
L 738.688967 459.95622 
L 738.983734 461.52548 
L 739.915795 463.09474 
L 739.605064 464.664 
L 740.82391 469.37178 
L 740.680495 470.94104 
L 740.991227 472.5103 
L 741.150517 474.07956 
L 741.086792 475.64882 
L 742.998675 477.21808 
L 745.778894 478.78734 
L 746.511798 480.3566 
L 746.66315 481.92586 
L 746.42417 483.49512 
L 745.484171 485.06438 
L 745.842663 488.2029 
L 745.157564 489.77216 
L 744.695525 491.34142 
L 742.401203 492.91068 
L 742.393265 494.47994 
L 740.80799 496.0492 
L 740.266261 497.61846 
L 740.210518 499.18772 
L 740.027281 500.75698 
L 740.465462 502.32624 
L 739.469632 503.8955 
L 739.366084 505.46476 
L 739.636949 507.03402 
L 739.557303 508.60328 
L 739.158945 510.17254 
L 738.991672 511.7418 
L 739.405951 513.31106 
L 739.09522 514.88032 
L 739.063379 516.44958 
L 739.828124 518.01884 
L 740.409631 519.5881 
L 742.353398 521.15736 
L 741.732069 522.72662 
L 742.457035 524.29588 
L 742.927012 525.86514 
L 744.18568 527.4344 
L 743.604129 529.00366 
L 744.623817 530.57292 
L 745.444349 532.14218 
L 747.037562 533.71144 
L 749.292017 535.2807 
L 748.367938 536.84996 
L 749.523059 538.41922 
L 751.116317 539.98848 
L 752.05636 541.55774 
L 751.618179 543.127 
L 752.510417 544.69626 
L 751.697868 546.26552 
L 753.792944 547.83478 
L 753.705317 549.40404 
L 753.211437 552.54256 
L 751.992591 555.68108 
L 750.837514 557.25034 
L 750.144433 558.8196 
L 750.136451 560.38886 
L 750.447138 561.95812 
L 750.399333 563.52738 
L 749.674411 565.09664 
L 750.502881 566.6659 
L 750.614455 568.23516 
L 750.91716 569.80442 
L 749.722216 571.37368 
L 748.941552 572.94294 
L 748.678625 574.5122 
L 748.200665 576.08146 
L 749.124789 577.65072 
L 747.523549 579.21998 
L 747.332329 580.78924 
L 747.579291 582.3585 
L 746.75876 583.92776 
L 744.496367 585.49702 
L 743.508519 587.06628 
L 742.887189 590.2048 
L 741.827678 591.77406 
L 741.046969 593.34332 
L 740.752247 594.91258 
L 740.680495 598.0511 
L 739.429809 599.62036 
L 737.557749 602.75888 
L 738.258768 604.32814 
L 735.996376 607.46666 
L 734.65008 609.03592 
L 734.578328 610.60518 
L 732.769993 612.17444 
L 731.256469 613.7437 
L 730.84219 615.31296 
L 731.415759 616.88222 
L 732.252211 618.45148 
L 735.327197 620.02074 
L 735.072252 621.59 
L 736.920455 623.15926 
L 737.334689 624.72852 
L 737.318769 626.29778 
L 736.53806 627.86704 
L 735.494469 629.4363 
L 733.893273 631.00556 
L 732.132743 632.57482 
L 728.603655 634.14408 
L 728.755052 635.71334 
L 727.400774 637.2826 
L 727.926538 638.85186 
L 725.616341 640.42112 
L 725.767694 641.99038 
L 725.090577 643.55964 
L 725.520731 645.1289 
L 725.170222 646.69816 
L 720.047921 648.26742 
L 719.880648 649.83668 
L 716.718035 651.40594 
L 732.204406 652.9752 
L 732.204406 652.9752 
" clip-path="url(#pf5e6c781d8)" style="fill: none; stroke: #5400ff; stroke-width: 1.5; stroke-linecap: square"/>
   </g>
   <g id="line2d_16">
    <path d="M 331.895674 88.0416 
L 331.895674 89.61086 
L 332.776339 91.18012 
L 330.473082 92.74938 
L 328.508549 94.31864 
L 328.508549 95.8879 
L 328.034337 97.45716 
L 330.044035 99.02642 
L 331.240819 100.59568 
L 333.927956 102.16494 
L 333.995695 103.7342 
L 336.524761 106.87272 
L 341.063515 110.01124 
L 342.373203 111.5805 
L 343.863557 113.14976 
L 346.979718 114.71902 
L 349.192642 116.28828 
L 351.87978 117.85754 
L 352.73785 119.4268 
L 357.976625 120.99606 
L 360.979882 122.56532 
L 365.676684 124.13458 
L 369.605772 125.70384 
L 372.563884 127.2731 
L 376.492949 128.84236 
L 387.060833 131.98088 
L 394.151225 133.55014 
L 396.589959 135.1194 
L 420.277342 138.25792 
L 439.538831 139.82718 
L 466.726233 141.39644 
L 467.426255 142.9657 
L 503.804069 146.10422 
L 506.310564 147.67348 
L 507.778323 149.24274 
L 508.86218 150.812 
L 510.488032 152.38126 
L 514.033239 153.95052 
L 515.13969 155.51978 
L 517.759067 157.08904 
L 522.52363 160.22756 
L 526.023671 161.79682 
L 527.875288 163.36608 
L 530.652758 164.93534 
L 536.704415 168.07386 
L 539.685122 169.64312 
L 542.191594 171.21238 
L 545.669063 172.78164 
L 550.230389 174.3509 
L 553.707858 175.92016 
L 563.169268 180.62794 
L 568.385449 182.1972 
L 572.088727 183.76646 
L 574.866152 185.33572 
L 578.592047 186.90498 
L 581.482332 188.47424 
L 586.043703 190.0435 
L 588.821128 191.61276 
L 596.137352 194.75128 
L 599.140675 196.32054 
L 602.572911 197.8898 
L 606.931044 199.45906 
L 616.46017 204.16684 
L 619.011831 205.7361 
L 622.150586 207.30536 
L 624.182868 208.87462 
L 629.195857 212.01314 
L 631.047473 213.5824 
L 633.982992 215.15166 
L 635.653988 216.72092 
L 638.024983 218.29018 
L 640.93793 219.85944 
L 642.383028 221.4287 
L 646.063734 222.99796 
L 648.005728 224.56722 
L 653.58315 227.70574 
L 655.999379 229.275 
L 659.702612 230.84426 
L 661.62199 232.41352 
L 667.334933 235.55204 
L 670.135019 237.1213 
L 673.657632 238.69056 
L 676.073772 240.25982 
L 679.596385 241.82908 
L 681.85452 243.39834 
L 684.586757 244.9676 
L 687.612608 246.53686 
L 689.802983 248.10612 
L 693.00941 249.67538 
L 695.335261 251.24464 
L 703.396673 255.95242 
L 706.625761 257.52168 
L 708.883807 259.09094 
L 720.558164 265.36798 
L 725.842062 268.5065 
L 732.051812 271.64502 
L 734.061522 273.21428 
L 736.929324 274.78354 
L 739.368035 276.3528 
L 745.916499 281.06058 
L 750.59073 284.1991 
L 752.803677 285.76836 
L 754.700482 287.33762 
L 760.187661 290.47614 
L 769.265169 295.18392 
L 774.00716 298.32244 
L 779.200725 301.46096 
L 787.329852 307.738 
L 789.723464 309.30726 
L 791.123463 310.87652 
L 793.268649 312.44578 
L 794.781552 314.01504 
L 796.452549 315.5843 
L 800.697733 318.72282 
L 802.43649 320.29208 
L 803.475203 321.86134 
L 807.268813 324.99986 
L 807.765575 326.56912 
L 808.804333 328.13838 
L 809.075286 329.70764 
L 813.252754 332.84616 
L 814.855946 334.41542 
L 819.214079 337.55394 
L 821.923788 339.1232 
L 823.617356 340.69246 
L 829.646486 345.40024 
L 831.611007 346.9695 
L 832.265862 348.53876 
L 834.862667 351.67728 
L 835.088476 353.24654 
L 836.443331 354.8158 
L 837.346567 356.38506 
L 838.611089 359.52358 
L 838.204659 362.6621 
L 837.707853 364.23136 
L 837.843374 365.80062 
L 838.114327 367.36988 
L 839.15304 368.93914 
L 840.372418 370.5084 
L 842.133702 373.64692 
L 842.653081 375.21618 
L 844.911172 379.92396 
L 845.227314 381.49322 
L 845.407934 383.06248 
L 846.243454 386.201 
L 845.204741 387.77026 
L 842.743369 392.47804 
L 842.201463 394.0473 
L 839.943372 397.18582 
L 839.491754 398.75508 
L 839.333705 400.32434 
L 838.949803 401.8936 
L 838.791754 403.46286 
L 837.97885 405.03212 
L 837.91109 408.17064 
L 838.38528 411.30916 
L 837.775569 412.87842 
L 838.091711 414.44768 
L 837.798185 416.01694 
L 838.182087 417.5862 
L 837.752997 419.15546 
L 837.933662 420.72472 
L 837.640137 422.29398 
L 837.527232 423.86324 
L 836.827188 425.4325 
L 836.330426 428.57102 
L 836.285238 430.14028 
L 836.714328 431.70954 
L 836.66914 433.2788 
L 838.114327 434.84806 
L 838.114327 436.41732 
L 839.175612 437.98658 
L 839.785279 439.55584 
L 840.665943 441.1251 
L 841.365987 442.69436 
L 841.185322 444.26362 
L 841.840177 445.83288 
L 842.698225 448.9714 
L 843.917603 452.10992 
L 843.940175 453.67918 
L 844.459554 458.38696 
L 844.369221 459.95622 
L 844.459554 461.52548 
L 844.233745 463.09474 
L 844.549842 464.664 
L 844.211128 466.23326 
L 844.346649 467.80252 
L 844.053124 469.37178 
L 844.391793 470.94104 
L 844.549842 472.5103 
L 845.069221 474.07956 
L 845.859552 475.64882 
L 843.782126 477.21808 
L 843.985319 478.78734 
L 843.195032 480.3566 
L 843.240176 481.92586 
L 843.736982 485.06438 
L 844.549842 486.63364 
L 844.753079 488.2029 
L 845.633743 489.77216 
L 845.543455 491.34142 
L 846.875693 492.91068 
L 847.77893 494.47994 
L 847.643453 497.61846 
L 847.598309 499.18772 
L 847.982167 502.32624 
L 847.84669 505.46476 
L 847.891879 507.03402 
L 848.230548 508.60328 
L 848.14026 510.17254 
L 847.237023 513.31106 
L 847.146646 514.88032 
L 846.853121 516.44958 
L 846.378931 518.01884 
L 846.040173 519.5881 
L 845.159553 521.15736 
L 844.707935 522.72662 
L 844.504698 524.29588 
L 843.624033 527.4344 
L 842.946651 529.00366 
L 842.427272 530.57292 
L 841.478891 532.14218 
L 840.86918 533.71144 
L 840.011132 535.2807 
L 839.514326 536.84996 
L 838.85947 538.41922 
L 837.707853 539.98848 
L 836.872333 541.55774 
L 835.765903 543.127 
L 835.540094 544.69626 
L 834.794907 546.26552 
L 833.372292 547.83478 
L 831.001296 550.9733 
L 829.781962 554.11182 
L 827.636776 555.68108 
L 827.97549 557.25034 
L 826.575447 558.8196 
L 826.620635 560.38886 
L 826.056157 561.95812 
L 825.356113 563.52738 
L 825.898064 565.09664 
L 824.588398 566.6659 
L 824.001258 568.23516 
L 823.685117 569.80442 
L 821.946404 572.94294 
L 820.614122 574.5122 
L 820.29798 576.08146 
L 819.394744 577.65072 
L 814.585037 583.92776 
L 813.61404 585.49702 
L 812.033376 587.06628 
L 811.491426 588.63554 
L 810.430096 590.2048 
L 808.849477 591.77406 
L 808.488191 593.34332 
L 807.088148 594.91258 
L 806.636574 596.48184 
L 805.913959 598.0511 
L 803.791344 599.62036 
L 803.249393 601.18962 
L 801.352633 602.75888 
L 800.765538 604.32814 
L 800.539684 605.8974 
L 800.065494 607.46666 
L 797.784787 609.03592 
L 797.94288 610.60518 
L 795.752549 612.17444 
L 796.159023 613.7437 
L 798.078356 615.31296 
L 798.055784 616.88222 
L 795.684789 618.45148 
L 787.78147 620.02074 
L 786.562092 621.59 
L 781.707241 623.15926 
L 768.881267 624.72852 
L 768.113551 626.29778 
L 768.000602 627.86704 
L 760.729567 629.4363 
L 761.65542 631.00556 
L 760.074712 632.57482 
L 759.735998 634.14408 
L 758.471476 635.71334 
L 725.232395 637.2826 
L 725.232395 638.85186 
L 725.232395 638.85186 
" clip-path="url(#pf5e6c781d8)" style="fill: none; stroke: #0010ff; stroke-width: 1.5; stroke-linecap: square"/>
   </g>
   <g id="line2d_17">
    <path d="M 552.865286 92.74938 
L 552.865286 99.02642 
L 554.612557 100.59568 
L 554.098678 102.16494 
L 554.690695 103.7342 
L 555.03606 105.30346 
L 555.03606 106.87272 
L 555.471803 108.44198 
L 555.504707 111.5805 
L 555.623953 114.71902 
L 559.040402 116.28828 
L 559.188429 117.85754 
L 558.89242 119.4268 
L 559.110336 120.99606 
L 559.78457 124.13458 
L 559.805102 125.70384 
L 560.269714 127.2731 
L 560.290246 128.84236 
L 560.6808 130.41162 
L 561.165944 133.55014 
L 562.206076 136.68866 
L 564.335741 139.82718 
L 564.796184 141.39644 
L 566.522923 144.53496 
L 567.36576 146.10422 
L 568.068775 147.67348 
L 569.199373 149.24274 
L 570.642387 150.812 
L 571.337242 152.38126 
L 571.83467 155.51978 
L 572.508904 157.08904 
L 573.438083 158.6583 
L 574.108193 160.22756 
L 574.235643 161.79682 
L 574.478215 163.36608 
L 575.604688 166.5046 
L 576.883312 169.64312 
L 577.286194 171.21238 
L 578.531914 172.78164 
L 579.070494 174.3509 
L 579.847522 175.92016 
L 580.932887 177.48942 
L 581.882598 179.05868 
L 584.143793 180.62794 
L 584.485034 182.1972 
L 585.274391 183.76646 
L 585.706098 185.33572 
L 587.387604 188.47424 
L 589.360994 191.61276 
L 589.985916 193.18202 
L 591.375494 194.75128 
L 591.700327 196.32054 
L 593.221478 197.8898 
L 595.133228 201.02832 
L 594.808439 204.16684 
L 595.277086 205.7361 
L 595.515578 207.30536 
L 596.074691 208.87462 
L 593.702498 210.44388 
L 594.319171 212.01314 
L 594.602852 213.5824 
L 597.793181 219.85944 
L 597.534202 221.4287 
L 600.148966 226.13648 
L 600.597081 227.70574 
L 601.620761 229.275 
L 601.998987 230.84426 
L 603.816191 233.98278 
L 604.358896 235.55204 
L 605.349715 237.1213 
L 605.703285 238.69056 
L 606.472109 240.25982 
L 606.920224 241.82908 
L 607.894591 243.39834 
L 608.897738 248.10612 
L 608.971707 249.67538 
L 609.391086 252.8139 
L 610.098225 254.38316 
L 610.332593 255.95242 
L 611.397381 259.09094 
L 611.586472 260.6602 
L 612.063367 262.22946 
L 612.388156 265.36798 
L 612.318312 266.93724 
L 613.004919 271.64502 
L 613.395428 273.21428 
L 613.670905 276.3528 
L 613.909352 277.92206 
L 613.880572 279.49132 
L 613.975162 282.62984 
L 614.345139 284.1991 
L 613.843587 285.76836 
L 614.02035 287.33762 
L 613.724341 288.90688 
L 613.60922 290.47614 
L 613.370772 292.0454 
L 612.754098 293.61466 
L 610.760131 306.16874 
L 610.238003 307.738 
L 610.114677 309.30726 
L 608.285145 315.5843 
L 608.034369 317.15356 
L 607.240889 318.72282 
L 607.092906 320.29208 
L 605.92528 321.86134 
L 604.531579 324.99986 
L 603.244706 328.13838 
L 602.924041 329.70764 
L 602.426614 331.2769 
L 602.188122 332.84616 
L 601.250783 334.41542 
L 597.118947 335.98468 
L 596.317263 337.55394 
L 593.501035 342.26172 
L 593.118685 343.83098 
L 591.868886 346.9695 
L 591.346713 348.53876 
L 590.446359 350.10802 
L 590.039353 351.67728 
L 589.467912 353.24654 
L 589.093766 354.8158 
L 587.753501 357.95432 
L 587.404012 359.52358 
L 586.478957 361.09284 
L 586.055543 362.6621 
L 583.876565 367.36988 
L 578.601803 368.93914 
L 555.924086 370.5084 
L 555.138854 372.07766 
L 554.074021 373.64692 
L 552.367815 376.78544 
L 550.858991 379.92396 
L 550.328659 381.49322 
L 549.670833 383.06248 
L 548.840368 384.63174 
L 548.462142 386.201 
L 547.500103 387.77026 
L 547.204094 389.33952 
L 546.455802 390.90878 
L 546.122809 392.47804 
L 546.953274 394.0473 
L 546.776512 395.61656 
L 545.666491 397.18582 
L 545.370482 398.75508 
L 544.803121 400.32434 
L 544.075406 403.46286 
L 544.063077 405.03212 
L 543.878067 406.60138 
L 543.927379 408.17064 
L 543.85341 409.7399 
L 544.33443 419.15546 
L 544.227512 420.72472 
L 544.305649 422.29398 
L 543.915095 430.14028 
L 543.528621 431.70954 
L 543.417624 433.2788 
L 542.274653 437.98658 
L 541.982769 439.55584 
L 541.834787 441.1251 
L 541.505874 442.69436 
L 541.407204 444.26362 
L 541.008402 445.83288 
L 540.510974 448.9714 
L 540.157361 452.10992 
L 539.713326 453.67918 
L 539.58592 455.24844 
L 539.182993 456.8177 
L 538.619757 461.52548 
L 537.5508 466.23326 
L 537.172574 467.80252 
L 536.416167 469.37178 
L 536.009116 470.94104 
L 536.325701 472.5103 
L 535.811777 474.07956 
L 535.585658 475.64882 
L 534.911379 477.21808 
L 534.755193 478.78734 
L 534.191956 480.3566 
L 533.410804 483.49512 
L 533.044862 485.06438 
L 532.835195 486.63364 
L 532.222645 488.2029 
L 532.078743 489.77216 
L 530.656261 492.91068 
L 530.068324 494.47994 
L 529.188502 496.0492 
L 528.954178 497.61846 
L 527.835909 499.18772 
L 527.486464 500.75698 
L 525.899503 503.8955 
L 525.303361 505.46476 
L 524.061766 507.03402 
L 523.868507 508.60328 
L 522.72975 510.17254 
L 522.404961 511.7418 
L 521.299019 513.31106 
L 520.69055 514.88032 
L 518.972015 518.01884 
L 517.944211 519.5881 
L 516.608026 521.15736 
L 515.666564 522.72662 
L 517.031529 524.29588 
L 514.91009 527.4344 
L 514.009736 529.00366 
L 511.925325 532.14218 
L 510.338387 533.71144 
L 506.56012 539.98848 
L 504.701851 541.55774 
L 504.451053 543.127 
L 503.061409 544.69626 
L 502.35019 546.26552 
L 499.521657 549.40404 
L 498.49383 550.9733 
L 496.783522 552.54256 
L 496.096937 554.11182 
L 494.431883 555.68108 
L 493.860398 557.25034 
L 492.05969 558.8196 
L 489.510713 561.95812 
L 487.940182 563.52738 
L 487.335837 565.09664 
L 485.65433 566.6659 
L 485.054087 568.23516 
L 482.829899 569.80442 
L 481.773292 571.37368 
L 480.478238 572.94294 
L 479.536775 574.5122 
L 477.999149 576.08146 
L 475.906535 577.65072 
L 474.664917 579.21998 
L 473.032746 580.78924 
L 472.157048 582.3585 
L 470.718114 583.92776 
L 469.743747 585.49702 
L 468.510356 587.06628 
L 467.51131 588.63554 
L 465.805148 590.2048 
L 464.41965 591.77406 
L 463.461713 593.34332 
L 460.703068 596.48184 
L 458.799567 598.0511 
L 458.236308 599.62036 
L 456.591808 601.18962 
L 456.143693 602.75888 
L 454.236046 604.32814 
L 453.467244 605.8974 
L 452.270881 607.46666 
L 450.519486 609.03592 
L 450.050772 610.60518 
L 448.134921 612.17444 
L 447.497693 613.7437 
L 445.680511 615.31296 
L 445.220045 616.88222 
L 443.427541 620.02074 
L 443.485102 621.59 
L 442.745081 623.15926 
L 442.650513 624.72852 
L 440.820981 626.29778 
L 440.660648 627.86704 
L 440.335859 629.4363 
L 438.502247 631.00556 
L 438.485795 632.57482 
L 437.182536 634.14408 
L 436.808413 635.71334 
L 435.139212 638.85186 
L 434.925443 640.42112 
L 433.86061 641.99038 
L 435.546241 643.55964 
L 435.159789 645.1289 
L 434.510211 646.69816 
L 434.855532 648.26742 
L 433.979834 649.83668 
L 433.979834 652.9752 
L 433.979834 652.9752 
" clip-path="url(#pf5e6c781d8)" style="fill: none; stroke: #0074ff; stroke-width: 1.5; stroke-linecap: square"/>
   </g>
   <g id="line2d_18">
    <path d="M 465.718806 88.0416 
L 470.992881 89.61086 
L 470.992881 91.18012 
L 466.82967 92.74938 
L 466.82967 99.02642 
L 468.127429 100.59568 
L 468.127429 103.7342 
L 468.698449 105.30346 
L 470.006585 106.87272 
L 470.006585 108.44198 
L 470.473768 110.01124 
L 473.91024 111.5805 
L 473.91024 113.14976 
L 474.117867 114.71902 
L 475.75822 116.28828 
L 475.97108 117.85754 
L 475.97108 119.4268 
L 477.66334 120.99606 
L 478.753472 122.56532 
L 478.753472 124.13458 
L 481.328193 125.70384 
L 481.930387 127.2731 
L 481.930387 128.84236 
L 480.243271 130.41162 
L 480.264047 131.98088 
L 479.220656 133.55014 
L 478.571765 135.1194 
L 480.004491 136.68866 
L 480.222517 138.25792 
L 480.881785 139.82718 
L 480.881785 141.39644 
L 481.92001 142.9657 
L 483.222958 144.53496 
L 483.222958 146.10422 
L 484.629719 147.67348 
L 485.460273 149.24274 
L 485.460273 150.812 
L 489.031667 153.95052 
L 489.031667 155.51978 
L 491.954236 157.08904 
L 491.954236 160.22756 
L 496.262768 161.79682 
L 496.262768 164.93534 
L 499.242433 166.5046 
L 499.242433 169.64312 
L 503.109746 171.21238 
L 503.109746 172.78164 
L 504.454224 174.3509 
L 507.594797 175.92016 
L 507.594797 177.48942 
L 509.95668 179.05868 
L 510.870293 180.62794 
L 510.870293 182.1972 
L 513.730579 183.76646 
L 514.638981 185.33572 
L 514.638981 186.90498 
L 517.094367 188.47424 
L 517.094367 191.61276 
L 520.234941 193.18202 
L 520.234941 196.32054 
L 523.593518 197.8898 
L 523.593518 199.45906 
L 524.844559 201.02832 
L 526.770411 202.59758 
L 526.770411 204.16684 
L 527.89684 205.7361 
L 530.518301 207.30536 
L 530.518301 208.87462 
L 531.395639 210.44388 
L 533.37342 212.01314 
L 531.348899 213.5824 
L 532.246947 215.15166 
L 531.893954 216.72092 
L 532.79719 218.29018 
L 533.394174 219.85944 
L 532.96331 221.4287 
L 534.556922 224.56722 
L 534.821712 226.13648 
L 535.371955 227.70574 
L 536.228451 229.275 
L 536.306322 230.84426 
L 537.282241 232.41352 
L 537.744236 233.98278 
L 537.521044 235.55204 
L 538.12836 237.1213 
L 539.815454 238.69056 
L 540.178824 240.25982 
L 540.178824 241.82908 
L 541.673811 244.9676 
L 541.673811 246.53686 
L 542.509598 248.10612 
L 543.122103 249.67538 
L 543.122103 251.24464 
L 544.445827 254.38316 
L 544.726181 255.95242 
L 544.67944 257.52168 
L 545.499617 260.6602 
L 546.184849 262.22946 
L 546.293851 265.36798 
L 546.927155 266.93724 
L 546.927155 268.5065 
L 546.04986 270.07576 
L 545.831856 271.64502 
L 545.831856 273.21428 
L 544.362767 274.78354 
L 544.451015 277.92206 
L 544.134386 279.49132 
L 544.181126 282.62984 
L 543.47514 284.1991 
L 543.578954 287.33762 
L 543.220772 288.90688 
L 543.220772 290.47614 
L 542.769154 292.0454 
L 542.483611 293.61466 
L 542.483611 295.18392 
L 542.182547 296.75318 
L 542.115097 299.8917 
L 541.061306 301.46096 
L 540.947116 303.03022 
L 540.947116 304.59948 
L 540.184012 306.16874 
L 540.147693 309.30726 
L 539.613015 310.87652 
L 539.457273 312.44578 
L 539.457273 314.01504 
L 538.600777 315.5843 
L 538.06091 318.72282 
L 537.240689 320.29208 
L 536.75794 321.86134 
L 536.0312 323.4306 
L 535.709338 324.99986 
L 535.122776 326.56912 
L 534.396036 328.13838 
L 534.006723 329.70764 
L 533.497988 331.2769 
L 532.361137 332.84616 
L 531.878388 335.98468 
L 530.741582 337.55394 
L 529.485353 340.69246 
L 529.319189 342.26172 
L 529.00256 343.83098 
L 528.213514 345.40024 
L 527.990277 346.9695 
L 527.616574 348.53876 
L 526.936531 350.10802 
L 526.718526 351.67728 
L 526.37591 353.24654 
L 525.789303 354.8158 
L 525.664736 356.38506 
L 525.410368 357.95432 
L 524.522697 359.52358 
L 524.413695 361.09284 
L 523.173031 365.80062 
L 522.124473 367.36988 
L 522.124473 368.93914 
L 521.605361 370.5084 
L 520.489264 372.07766 
L 520.489264 373.64692 
L 520.214187 375.21618 
L 519.388777 376.78544 
L 519.388777 378.3547 
L 518.931971 379.92396 
L 517.997559 381.49322 
L 517.701728 384.63174 
L 517.592681 386.201 
L 517.307183 387.77026 
L 517.405808 390.90878 
L 517.250065 392.47804 
L 517.2345 400.32434 
L 517.172194 401.8936 
L 517.654987 403.46286 
L 517.717293 406.60138 
L 518.194854 408.17064 
L 518.194854 409.7399 
L 518.40767 411.30916 
L 519.342037 412.87842 
L 519.342037 414.44768 
L 520.276448 416.01694 
L 520.260883 419.15546 
L 521.418443 420.72472 
L 521.49117 425.4325 
L 521.636491 428.57102 
L 521.345804 430.14028 
L 521.262744 431.70954 
L 520.530816 434.84806 
L 520.312812 436.41732 
L 519.861149 437.98658 
L 519.606826 439.55584 
L 519.606826 441.1251 
L 518.786605 442.69436 
L 518.641284 444.26362 
L 518.641284 445.83288 
L 517.847049 447.40214 
L 517.571928 448.9714 
L 517.416185 450.54066 
L 517.592681 452.10992 
L 517.359067 453.67918 
L 516.917871 455.24844 
L 516.819245 456.8177 
L 516.409135 458.38696 
L 515.78102 461.52548 
L 515.282684 463.09474 
L 514.514414 464.664 
L 514.514414 466.23326 
L 513.699426 467.80252 
L 513.310091 469.37178 
L 513.310091 470.94104 
L 512.598917 472.5103 
L 512.277099 474.07956 
L 512.277099 475.64882 
L 511.358253 477.21808 
L 511.436124 480.3566 
L 510.553664 481.92586 
L 509.816547 483.49512 
L 509.816547 485.06438 
L 509.183244 486.63364 
L 507.200274 489.77216 
L 507.226217 491.34142 
L 505.866174 494.47994 
L 505.175775 497.61846 
L 504.007772 499.18772 
L 504.277705 500.75698 
L 503.519812 502.32624 
L 502.175335 503.8955 
L 501.168307 505.46476 
L 501.168307 507.03402 
L 499.439683 508.60328 
L 498.256114 510.17254 
L 497.487845 511.7418 
L 496.402946 513.31106 
L 494.731417 516.44958 
L 494.342083 518.01884 
L 493.553059 519.5881 
L 492.50969 521.15736 
L 491.310556 522.72662 
L 490.635723 524.29588 
L 489.742841 525.86514 
L 489.078385 527.4344 
L 487.915637 529.00366 
L 487.178498 530.57292 
L 487.370559 532.14218 
L 485.636747 533.71144 
L 485.636747 535.2807 
L 483.86145 536.84996 
L 481.686374 538.41922 
L 480.414602 539.98848 
L 480.414602 541.55774 
L 479.122031 543.127 
L 478.037087 544.69626 
L 477.642586 546.26552 
L 476.495381 547.83478 
L 475.00035 549.40404 
L 474.164608 550.9733 
L 474.164608 552.54256 
L 472.181638 554.11182 
L 471.678091 555.68108 
L 471.678091 557.25034 
L 470.125964 558.8196 
L 467.717341 560.38886 
L 467.717341 561.95812 
L 466.528584 563.52738 
L 464.509295 565.09664 
L 463.907145 566.6659 
L 462.676858 568.23516 
L 459.650497 569.80442 
L 458.342361 571.37368 
L 455.487308 572.94294 
L 454.454294 574.5122 
L 452.632233 576.08146 
L 449.969243 577.65072 
L 448.510574 579.21998 
L 447.249156 580.78924 
L 444.897607 582.3585 
L 444.383705 583.92776 
L 444.793793 585.49702 
L 443.137852 587.06628 
L 445.214258 588.63554 
L 444.664015 590.2048 
L 443.049604 591.77406 
L 445.307695 593.34332 
L 443.329914 594.91258 
L 442.919826 596.48184 
L 446.517206 598.0511 
L 445.759313 599.62036 
L 445.219469 601.18962 
L 448.432703 602.75888 
L 447.602127 604.32814 
L 447.467183 605.8974 
L 453.270725 607.46666 
L 453.244783 609.03592 
L 453.53547 610.60518 
L 464.441801 612.17444 
L 464.960913 613.7437 
L 468.205301 615.31296 
L 466.549382 616.88222 
L 465.45925 618.45148 
L 465.37619 620.02074 
L 464.685792 621.59 
L 464.145925 623.15926 
L 463.107722 624.72852 
L 460.85482 626.29778 
L 460.138457 627.86704 
L 460.138457 629.4363 
L 460.532958 631.00556 
L 462.926037 632.57482 
L 463.704684 634.14408 
L 463.704684 635.71334 
L 469.601685 637.2826 
L 470.992881 638.85186 
L 470.992881 649.83668 
L 468.355833 651.40594 
L 468.355833 652.9752 
L 468.355833 652.9752 
" clip-path="url(#pf5e6c781d8)" style="fill: none; stroke: #00d9ff; stroke-width: 1.5; stroke-linecap: square"/>
   </g>
   <g id="line2d_19">
    <path d="M 779.231102 117.85754 
L 777.61332 119.4268 
L 777.61332 120.99606 
L 768.441178 122.56532 
L 768.441178 124.13458 
L 768.711954 125.70384 
L 760.423536 127.2731 
L 760.238215 128.84236 
L 761.171828 130.41162 
L 764.777989 131.98088 
L 764.73524 133.55014 
L 764.877723 135.1194 
L 764.086681 136.68866 
L 764.222069 138.25792 
L 763.267081 139.82718 
L 761.321496 141.39644 
L 761.121939 142.9657 
L 760.658702 144.53496 
L 759.283227 146.10422 
L 758.812895 147.67348 
L 757.45875 149.24274 
L 756.952808 150.812 
L 756.731833 152.38126 
L 754.707843 157.08904 
L 754.515427 158.6583 
L 753.653121 161.79682 
L 752.833521 163.36608 
L 751.999686 168.07386 
L 751.436671 169.64312 
L 751.700352 171.21238 
L 751.322614 172.78164 
L 750.66696 174.3509 
L 750.638446 177.48942 
L 750.538668 179.05868 
L 750.631306 180.62794 
L 750.474544 183.76646 
L 750.517293 185.33572 
L 750.218003 186.90498 
L 750.40328 188.47424 
L 750.460309 190.0435 
L 750.111085 191.61276 
L 750.168114 193.18202 
L 749.654943 194.75128 
L 749.861639 196.32054 
L 749.961418 201.02832 
L 749.54807 202.59758 
L 749.647848 204.16684 
L 749.027804 205.7361 
L 748.856762 207.30536 
L 747.923149 208.87462 
L 746.704481 213.5824 
L 745.421644 215.15166 
L 745.421644 216.72092 
L 742.164707 218.29018 
L 741.223998 219.85944 
L 740.5683 221.4287 
L 737.375532 224.56722 
L 737.311408 226.13648 
L 736.335001 227.70574 
L 735.173361 229.275 
L 734.966709 230.84426 
L 734.460679 232.41352 
L 734.36804 233.98278 
L 733.883384 235.55204 
L 732.629062 237.1213 
L 732.443785 238.69056 
L 732.515049 240.25982 
L 730.605072 241.82908 
L 729.172613 244.9676 
L 728.559709 246.53686 
L 727.64033 248.10612 
L 727.241262 249.67538 
L 725.9798 251.24464 
L 725.801618 252.8139 
L 725.003437 254.38316 
L 725.003437 255.95242 
L 724.803881 257.52168 
L 721.824903 259.09094 
L 721.625347 260.6602 
L 719.23076 262.22946 
L 718.354131 263.79872 
L 718.254397 265.36798 
L 715.196972 266.93724 
L 715.139987 268.5065 
L 713.992583 270.07576 
L 713.32265 271.64502 
L 712.517329 273.21428 
L 711.284381 274.78354 
L 706.659109 276.3528 
L 705.875163 277.92206 
L 705.219509 279.49132 
L 698.014328 281.06058 
L 697.080714 282.62984 
L 694.22289 284.1991 
L 685.328663 285.76836 
L 682.634741 287.33762 
L 670.718744 288.90688 
L 662.330548 290.47614 
L 660.755516 292.0454 
L 653.308029 293.61466 
L 642.617884 295.18392 
L 639.026002 296.75318 
L 636.752568 298.32244 
L 625.691824 299.8917 
L 622.819721 301.46096 
L 619.270589 303.03022 
L 615.179772 304.59948 
L 606.891355 306.16874 
L 602.166304 309.30726 
L 595.167818 312.44578 
L 592.85159 314.01504 
L 577.778478 321.86134 
L 575.227083 323.4306 
L 571.749215 324.99986 
L 569.219195 326.56912 
L 568.363986 328.13838 
L 564.12359 329.70764 
L 561.664834 331.2769 
L 560.24661 332.84616 
L 558.065814 334.41542 
L 554.930029 335.98468 
L 551.537704 337.55394 
L 550.311852 339.1232 
L 544.446536 342.26172 
L 542.921393 343.83098 
L 540.29164 345.40024 
L 538.182063 346.9695 
L 536.450313 348.53876 
L 534.005792 350.10802 
L 531.247746 351.67728 
L 529.06695 353.24654 
L 525.72447 354.8158 
L 524.491566 356.38506 
L 519.110817 359.52358 
L 517.329134 361.09284 
L 516.530953 362.6621 
L 513.416521 364.23136 
L 511.143087 365.80062 
L 506.924044 368.93914 
L 503.681342 370.5084 
L 502.220368 372.07766 
L 499.041812 373.64692 
L 494.587604 376.78544 
L 491.893659 378.3547 
L 490.653594 379.92396 
L 487.496457 381.49322 
L 485.907168 383.06248 
L 484.089831 384.63174 
L 481.8948 386.201 
L 479.991941 387.77026 
L 478.495335 389.33952 
L 473.392546 392.47804 
L 471.853168 394.0473 
L 470.719999 395.61656 
L 467.584215 397.18582 
L 465.218119 398.75508 
L 463.664507 400.32434 
L 459.851672 403.46286 
L 457.371564 405.03212 
L 455.539969 406.60138 
L 452.917311 408.17064 
L 448.976206 411.30916 
L 445.76204 414.44768 
L 441.970581 416.01694 
L 441.02271 417.5862 
L 439.126991 419.15546 
L 434.729767 422.29398 
L 433.083494 423.86324 
L 432.349415 425.4325 
L 428.736159 427.00176 
L 427.524585 428.57102 
L 426.583877 430.14028 
L 425.30818 431.70954 
L 423.469467 433.2788 
L 422.428958 434.84806 
L 420.782685 436.41732 
L 418.694527 437.98658 
L 416.969851 439.55584 
L 414.846061 441.1251 
L 413.313801 442.69436 
L 409.166044 444.26362 
L 406.928219 445.83288 
L 406.008863 447.40214 
L 402.901593 448.9714 
L 400.371574 450.54066 
L 398.440223 452.10992 
L 396.259427 453.67918 
L 394.520515 455.24844 
L 391.15666 456.8177 
L 389.987881 458.38696 
L 387.949612 459.95622 
L 386.880589 461.52548 
L 383.751944 463.09474 
L 382.768442 464.664 
L 380.502125 466.23326 
L 377.972127 467.80252 
L 376.42561 469.37178 
L 374.508494 470.94104 
L 370.225305 474.07956 
L 368.443622 475.64882 
L 367.103778 477.21808 
L 365.493137 478.78734 
L 363.269591 480.3566 
L 362.100768 481.92586 
L 359.570792 483.49512 
L 358.04565 485.06438 
L 356.206937 486.63364 
L 353.776718 488.2029 
L 350.099293 491.34142 
L 345.694952 494.47994 
L 344.504753 496.0492 
L 341.632672 497.61846 
L 339.907995 499.18772 
L 335.275583 502.32624 
L 334.007025 503.8955 
L 330.436518 505.46476 
L 328.932762 507.03402 
L 327.614304 508.60328 
L 324.613941 510.17254 
L 323.281226 511.7418 
L 321.513777 513.31106 
L 318.898259 514.88032 
L 310.574176 521.15736 
L 308.464655 522.72662 
L 306.918137 524.29588 
L 305.827739 525.86514 
L 302.414017 527.4344 
L 301.295116 529.00366 
L 295.401264 533.71144 
L 293.904646 535.2807 
L 290.882898 536.84996 
L 288.573809 538.41922 
L 287.184098 539.98848 
L 285.480796 541.55774 
L 282.002928 543.127 
L 279.244871 546.26552 
L 276.807501 547.83478 
L 273.857027 549.40404 
L 272.21786 550.9733 
L 270.906531 552.54256 
L 266.295515 554.11182 
L 265.525815 555.68108 
L 263.829642 557.25034 
L 258.705489 560.38886 
L 257.643595 561.95812 
L 250.124843 566.6659 
L 248.599712 568.23516 
L 246.091089 569.80442 
L 242.791391 572.94294 
L 239.962059 574.5122 
L 238.536706 576.08146 
L 236.683748 577.65072 
L 233.761766 579.21998 
L 231.944439 580.78924 
L 230.61173 582.3585 
L 227.775275 583.92776 
L 226.421185 585.49702 
L 224.603859 587.06628 
L 222.465829 588.63554 
L 221.304161 590.2048 
L 219.465449 591.77406 
L 217.25615 593.34332 
L 216.237021 594.91258 
L 213.26515 598.0511 
L 211.291033 599.62036 
L 210.350303 601.18962 
L 206.50897 605.8974 
L 205.874686 607.46666 
L 204.399444 609.03592 
L 203.152255 610.60518 
L 201.46321 613.7437 
L 200.615123 615.31296 
L 200.137629 616.88222 
L 199.025851 618.45148 
L 197.244162 623.15926 
L 196.282045 626.29778 
L 196.488719 627.86704 
L 195.640633 631.00556 
L 195.597872 632.57482 
L 194.927956 634.14408 
L 194.935079 635.71334 
L 194.357812 638.85186 
L 194.870944 640.42112 
L 195.098998 641.99038 
L 195.861558 643.55964 
L 197.778668 645.1289 
L 196.773791 646.69816 
L 197.108746 648.26742 
L 196.617001 649.83668 
L 196.617001 652.9752 
L 196.617001 652.9752 
" clip-path="url(#pf5e6c781d8)" style="fill: none; stroke: #00ffc1; stroke-width: 1.5; stroke-linecap: square"/>
   </g>
   <g id="line2d_20">
    <path d="M 786.727635 146.10422 
L 786.727635 150.812 
L 774.718689 152.38126 
L 774.874432 153.95052 
L 774.874432 155.51978 
L 770.349913 157.08904 
L 770.221221 158.6583 
L 769.191688 160.22756 
L 769.753904 161.79682 
L 769.069781 163.36608 
L 769.04947 164.93534 
L 766.184373 166.5046 
L 765.90668 168.07386 
L 766.313065 169.64312 
L 766.096303 172.78164 
L 766.021801 174.3509 
L 766.936213 175.92016 
L 766.990404 177.48942 
L 766.882022 179.05868 
L 767.092 180.62794 
L 767.715104 182.1972 
L 767.823485 183.76646 
L 760.718392 185.33572 
L 761.158613 186.90498 
L 761.212804 188.47424 
L 758.659281 190.0435 
L 759.268903 191.61276 
L 757.663628 193.18202 
L 757.561987 194.75128 
L 756.363185 196.32054 
L 756.444427 197.8898 
L 756.397021 199.45906 
L 751.64217 201.02832 
L 751.703146 202.59758 
L 750.632991 204.16684 
L 750.328202 205.7361 
L 750.328202 207.30536 
L 750.551705 210.44388 
L 749.833746 212.01314 
L 749.759245 213.5824 
L 749.000665 216.72092 
L 748.953215 219.85944 
L 748.966784 221.4287 
L 738.854289 222.99796 
L 738.366617 224.56722 
L 737.723159 226.13648 
L 734.268838 227.70574 
L 734.431366 230.84426 
L 734.485557 232.41352 
L 721.359006 233.98278 
L 721.907609 237.1213 
L 716.468678 238.69056 
L 716.475419 240.25982 
L 716.041982 241.82908 
L 714.585709 243.39834 
L 714.138702 244.9676 
L 714.070942 248.10612 
L 713.014313 249.67538 
L 712.458926 251.24464 
L 712.309924 252.8139 
L 711.023007 254.38316 
L 710.013784 255.95242 
L 708.767488 257.52168 
L 708.313697 259.09094 
L 706.911614 260.6602 
L 706.430727 262.22946 
L 705.008334 263.79872 
L 705.015119 265.36798 
L 703.680797 266.93724 
L 702.922172 268.5065 
L 702.549667 270.07576 
L 701.696187 271.64502 
L 701.167894 273.21428 
L 699.772596 274.78354 
L 698.641467 276.3528 
L 698.350203 277.92206 
L 697.754195 279.49132 
L 695.952511 281.06058 
L 695.315794 282.62984 
L 693.012913 284.1991 
L 690.134291 285.76836 
L 685.880681 287.33762 
L 685.751989 288.90688 
L 683.950261 290.47614 
L 680.705918 292.0454 
L 680.130176 293.61466 
L 675.422775 295.18392 
L 674.704815 296.75318 
L 671.494264 298.32244 
L 671.243666 299.8917 
L 669.767126 301.46096 
L 667.410011 303.03022 
L 666.441409 304.59948 
L 662.729705 306.16874 
L 661.90332 307.738 
L 659.715606 309.30726 
L 656.268026 310.87652 
L 653.85672 314.01504 
L 652.888118 315.5843 
L 646.22329 317.15356 
L 645.281784 318.72282 
L 643.42591 320.29208 
L 638.942011 321.86134 
L 638.068265 323.4306 
L 637.465472 324.99986 
L 632.730975 326.56912 
L 631.843659 328.13838 
L 630.529647 329.70764 
L 628.47058 331.2769 
L 624.386282 332.84616 
L 623.289033 334.41542 
L 621.832759 335.98468 
L 617.105048 337.55394 
L 614.707312 340.69246 
L 608.448825 342.26172 
L 608.069535 343.83098 
L 606.647142 345.40024 
L 604.98772 346.9695 
L 600.916992 348.53876 
L 597.726796 351.67728 
L 592.287821 353.24654 
L 591.779883 354.8158 
L 590.459086 356.38506 
L 585.995499 357.95432 
L 584.789868 359.52358 
L 583.333594 361.09284 
L 581.504816 362.6621 
L 576.946461 364.23136 
L 576.600962 365.80062 
L 575.341141 367.36988 
L 571.480391 368.93914 
L 568.723675 372.07766 
L 564.978046 373.64692 
L 562.438138 375.21618 
L 562.140045 376.78544 
L 558.435126 378.3547 
L 556.694418 379.92396 
L 555.170428 381.49322 
L 553.450031 383.06248 
L 547.022188 386.201 
L 546.595492 387.77026 
L 543.066626 389.33952 
L 540.580819 390.90878 
L 539.11102 392.47804 
L 533.076081 394.0473 
L 531.823 395.61656 
L 529.228857 397.18582 
L 528.768281 398.75508 
L 525.049747 400.32434 
L 523.153253 401.8936 
L 521.839241 403.46286 
L 517.612681 405.03212 
L 516.291929 406.60138 
L 508.333355 411.30916 
L 507.981138 412.87842 
L 506.389433 414.44768 
L 502.440634 416.01694 
L 500.645713 417.5862 
L 495.152614 420.72472 
L 492.477162 422.29398 
L 492.104635 423.86324 
L 488.379361 425.4325 
L 486.482844 427.00176 
L 484.796305 428.57102 
L 481.944755 430.14028 
L 478.537796 431.70954 
L 475.76077 433.2788 
L 475.090239 434.84806 
L 469.468426 436.41732 
L 467.091022 437.98658 
L 464.991313 439.55584 
L 457.533958 441.1251 
L 457.147861 442.69436 
L 454.242143 444.26362 
L 453.483541 445.83288 
L 448.735497 447.40214 
L 444.908582 450.54066 
L 438.413067 452.10992 
L 437.999875 453.67918 
L 431.876865 456.8177 
L 430.806667 458.38696 
L 428.625693 459.95622 
L 424.121485 461.52548 
L 420.213306 463.09474 
L 419.075392 464.664 
L 414.584731 466.23326 
L 410.676575 467.80252 
L 408.495579 469.37178 
L 405.285072 470.94104 
L 399.893548 472.5103 
L 396.838805 474.07956 
L 396.168252 475.64882 
L 387.904889 477.21808 
L 387.451076 478.78734 
L 385.85937 480.3566 
L 383.285537 481.92586 
L 378.144633 483.49512 
L 374.073905 485.06438 
L 373.504947 486.63364 
L 366.467548 488.2029 
L 366.122094 489.77216 
L 364.04948 491.34142 
L 358.420926 492.91068 
L 356.747912 494.47994 
L 353.158093 496.0492 
L 352.501087 497.61846 
L 344.549299 499.18772 
L 344.03451 500.75698 
L 342.124467 502.32624 
L 334.680639 503.8955 
L 332.608046 505.46476 
L 324.087289 508.60328 
L 320.470364 510.17254 
L 319.779489 511.7418 
L 318.072639 513.31106 
L 310.994586 514.88032 
L 309.504465 516.44958 
L 305.088305 518.01884 
L 299.019475 519.5881 
L 295.416097 521.15736 
L 294.718459 522.72662 
L 288.161947 524.29588 
L 285.418779 525.86514 
L 283.908348 527.4344 
L 280.582675 529.00366 
L 275.265662 530.57292 
L 271.953548 532.14218 
L 270.991753 533.71144 
L 266.358841 535.2807 
L 263.514066 536.84996 
L 262.477758 538.41922 
L 253.950239 539.98848 
L 252.805561 541.55774 
L 249.513757 543.127 
L 244.528651 544.69626 
L 241.643233 546.26552 
L 241.013322 547.83478 
L 239.963467 549.40404 
L 232.824455 550.9733 
L 232.147133 552.54256 
L 228.977253 554.11182 
L 224.310478 555.68108 
L 221.391201 557.25034 
L 220.415858 558.8196 
L 216.609288 560.38886 
L 213.981264 561.95812 
L 213.459723 563.52738 
L 211.041671 565.09664 
L 207.539901 566.6659 
L 205.433417 568.23516 
L 204.695131 569.80442 
L 200.78019 571.37368 
L 198.260541 572.94294 
L 197.745775 574.5122 
L 193.261877 576.08146 
L 192.692925 577.65072 
L 190.884467 579.21998 
L 190.410338 580.78924 
L 187.389465 582.3585 
L 185.49973 583.92776 
L 185.188159 585.49702 
L 181.347725 587.06628 
L 181.076797 588.63554 
L 179.48508 590.2048 
L 177.419236 591.77406 
L 177.100894 593.34332 
L 175.786882 594.91258 
L 175.529499 596.48184 
L 173.240138 598.0511 
L 172.84729 599.62036 
L 172.142872 601.18962 
L 170.801768 602.75888 
L 171.167524 604.32814 
L 170.706942 605.8974 
L 169.846738 607.46666 
L 169.575807 609.03592 
L 169.704502 610.60518 
L 170.287001 612.17444 
L 169.528396 613.7437 
L 169.779008 615.31296 
L 170.34796 616.88222 
L 169.670632 618.45148 
L 169.372612 621.59 
L 168.329531 623.15926 
L 167.84863 624.72852 
L 167.137438 626.29778 
L 165.315431 627.86704 
L 165.051274 629.4363 
L 164.590693 631.00556 
L 163.120896 632.57482 
L 161.224386 634.14408 
L 161.312438 635.71334 
L 160.594473 637.2826 
L 158.291566 638.85186 
L 157.648108 641.99038 
L 153.916044 643.55964 
L 153.706074 645.1289 
L 153.658661 646.69816 
L 153.929591 648.26742 
L 153.861858 649.83668 
L 153.618022 651.40594 
L 153.184533 652.9752 
L 153.184533 652.9752 
" clip-path="url(#pf5e6c781d8)" style="fill: none; stroke: #00ff5c; stroke-width: 1.5; stroke-linecap: square"/>
   </g>
   <g id="line2d_21">
    <path d="M 0 0 
" clip-path="url(#pf5e6c781d8)" style="fill: none; stroke: #08ff00; stroke-width: 1.5; stroke-linecap: square"/>
   </g>
   <g id="patch_3">
    <path d="M 144 652.9752 
L 144 88.0416 
" style="fill: none; stroke: #000000; stroke-width: 0.8; stroke-linejoin: miter; stroke-linecap: square"/>
   </g>
   <g id="patch_4">
    <path d="M 1036.8 652.9752 
L 1036.8 88.0416 
" style="fill: none; stroke: #000000; stroke-width: 0.8; stroke-linejoin: miter; stroke-linecap: square"/>
   </g>
   <g id="patch_5">
    <path d="M 144 652.9752 
L 1036.8 652.9752 
" style="fill: none; stroke: #000000; stroke-width: 0.8; stroke-linejoin: miter; stroke-linecap: square"/>
   </g>
   <g id="patch_6">
    <path d="M 144 88.0416 
L 1036.8 88.0416 
" style="fill: none; stroke: #000000; stroke-width: 0.8; stroke-linejoin: miter; stroke-linecap: square"/>
   </g>
   <g id="legend_1">
    <g id="line2d_22">
     <path d="M 827.4735 106.97985 
L 841.8735 106.97985 
L 856.2735 106.97985 
" style="fill: none; stroke: #b900ff; stroke-width: 1.5; stroke-linecap: square"/>
    </g>
    <g id="text_16">
     <!-- Ta at 0.69535µm -->
     <g transform="translate(867.7935 112.01985)scale(0.144 -0.144)">
      <defs>
       <path id="DejaVuSansMono-54" d="M 147 4666 
L 3706 4666 
L 3706 4134 
L 2247 4134 
L 2247 0 
L 1613 0 
L 1613 4134 
L 147 4134 
L 147 4666 
z
" transform="scale(0.015625)"/>
       <path id="DejaVuSansMono-20" transform="scale(0.015625)"/>
       <path id="DejaVuSansMono-b5" d="M 609 -1338 
L 609 3500 
L 1184 3500 
L 1184 1325 
Q 1184 881 1371 645 
Q 1559 409 1906 409 
Q 2303 409 2504 675 
Q 2706 941 2706 1459 
L 2706 3500 
L 3284 3500 
L 3284 800 
Q 3284 616 3334 528 
Q 3384 441 3488 441 
Q 3516 441 3561 456 
Q 3606 472 3694 513 
L 3694 50 
Q 3575 -22 3469 -56 
Q 3363 -91 3256 -91 
Q 3063 -91 2945 32 
Q 2828 156 2791 403 
Q 2647 153 2439 31 
Q 2231 -91 1953 -91 
Q 1666 -91 1467 28 
Q 1269 147 1131 397 
L 1131 -1338 
L 609 -1338 
z
" transform="scale(0.015625)"/>
       <path id="DejaVuSansMono-6d" d="M 2113 3144 
Q 2219 3369 2383 3476 
Q 2547 3584 2778 3584 
Q 3200 3584 3373 3257 
Q 3547 2931 3547 2028 
L 3547 0 
L 3022 0 
L 3022 2003 
Q 3022 2744 2939 2923 
Q 2856 3103 2638 3103 
Q 2388 3103 2295 2911 
Q 2203 2719 2203 2003 
L 2203 0 
L 1678 0 
L 1678 2003 
Q 1678 2753 1589 2928 
Q 1500 3103 1269 3103 
Q 1041 3103 952 2911 
Q 863 2719 863 2003 
L 863 0 
L 341 0 
L 341 3500 
L 863 3500 
L 863 3200 
Q 966 3388 1120 3486 
Q 1275 3584 1472 3584 
Q 1709 3584 1867 3475 
Q 2025 3366 2113 3144 
z
" transform="scale(0.015625)"/>
      </defs>
      <use xlink:href="#DejaVuSansMono-54"/>
      <use xlink:href="#DejaVuSansMono-61" x="60.205078"/>
      <use xlink:href="#DejaVuSansMono-20" x="120.410156"/>
      <use xlink:href="#DejaVuSansMono-61" x="180.615234"/>
      <use xlink:href="#DejaVuSansMono-74" x="240.820312"/>
      <use xlink:href="#DejaVuSansMono-20" x="301.025391"/>
      <use xlink:href="#DejaVuSansMono-30" x="361.230469"/>
      <use xlink:href="#DejaVuSansMono-2e" x="421.435547"/>
      <use xlink:href="#DejaVuSansMono-36" x="481.640625"/>
      <use xlink:href="#DejaVuSansMono-39" x="541.845703"/>
      <use xlink:href="#DejaVuSansMono-35" x="602.050781"/>
      <use xlink:href="#DejaVuSansMono-33" x="662.255859"/>
      <use xlink:href="#DejaVuSansMono-35" x="722.460938"/>
      <use xlink:href="#DejaVuSansMono-b5" x="782.666016"/>
      <use xlink:href="#DejaVuSansMono-6d" x="842.871094"/>
     </g>
    </g>
    <g id="line2d_23">
     <path d="M 827.4735 128.2086 
L 841.8735 128.2086 
L 856.2735 128.2086 
" style="fill: none; stroke: #5400ff; stroke-width: 1.5; stroke-linecap: square"/>
    </g>
    <g id="text_17">
     <!-- T8 at 0.69535µm -->
     <g transform="translate(867.7935 133.2486)scale(0.144 -0.144)">
      <defs>
       <path id="DejaVuSansMono-38" d="M 1925 2216 
Q 1503 2216 1273 1980 
Q 1044 1744 1044 1313 
Q 1044 881 1276 642 
Q 1509 403 1925 403 
Q 2350 403 2579 639 
Q 2809 875 2809 1313 
Q 2809 1741 2576 1978 
Q 2344 2216 1925 2216 
z
M 1375 2478 
Q 972 2581 745 2862 
Q 519 3144 519 3541 
Q 519 4097 897 4423 
Q 1275 4750 1925 4750 
Q 2578 4750 2956 4423 
Q 3334 4097 3334 3541 
Q 3334 3144 3107 2862 
Q 2881 2581 2478 2478 
Q 2947 2375 3195 2062 
Q 3444 1750 3444 1253 
Q 3444 622 3041 265 
Q 2638 -91 1925 -91 
Q 1213 -91 811 264 
Q 409 619 409 1247 
Q 409 1747 657 2061 
Q 906 2375 1375 2478 
z
M 1147 3481 
Q 1147 3106 1347 2909 
Q 1547 2713 1925 2713 
Q 2306 2713 2506 2909 
Q 2706 3106 2706 3481 
Q 2706 3863 2507 4063 
Q 2309 4263 1925 4263 
Q 1547 4263 1347 4061 
Q 1147 3859 1147 3481 
z
" transform="scale(0.015625)"/>
      </defs>
      <use xlink:href="#DejaVuSansMono-54"/>
      <use xlink:href="#DejaVuSansMono-38" x="60.205078"/>
      <use xlink:href="#DejaVuSansMono-20" x="120.410156"/>
      <use xlink:href="#DejaVuSansMono-61" x="180.615234"/>
      <use xlink:href="#DejaVuSansMono-74" x="240.820312"/>
      <use xlink:href="#DejaVuSansMono-20" x="301.025391"/>
      <use xlink:href="#DejaVuSansMono-30" x="361.230469"/>
      <use xlink:href="#DejaVuSansMono-2e" x="421.435547"/>
      <use xlink:href="#DejaVuSansMono-36" x="481.640625"/>
      <use xlink:href="#DejaVuSansMono-39" x="541.845703"/>
      <use xlink:href="#DejaVuSansMono-35" x="602.050781"/>
      <use xlink:href="#DejaVuSansMono-33" x="662.255859"/>
      <use xlink:href="#DejaVuSansMono-35" x="722.460938"/>
      <use xlink:href="#DejaVuSansMono-b5" x="782.666016"/>
      <use xlink:href="#DejaVuSansMono-6d" x="842.871094"/>
     </g>
    </g>
    <g id="line2d_24">
     <path d="M 827.4735 149.43735 
L 841.8735 149.43735 
L 856.2735 149.43735 
" style="fill: none; stroke: #0010ff; stroke-width: 1.5; stroke-linecap: square"/>
    </g>
    <g id="text_18">
     <!-- T31 at 0.69535µm -->
     <g transform="translate(867.7935 154.47735)scale(0.144 -0.144)">
      <use xlink:href="#DejaVuSansMono-54"/>
      <use xlink:href="#DejaVuSansMono-33" x="60.205078"/>
      <use xlink:href="#DejaVuSansMono-31" x="120.410156"/>
      <use xlink:href="#DejaVuSansMono-20" x="180.615234"/>
      <use xlink:href="#DejaVuSansMono-61" x="240.820312"/>
      <use xlink:href="#DejaVuSansMono-74" x="301.025391"/>
      <use xlink:href="#DejaVuSansMono-20" x="361.230469"/>
      <use xlink:href="#DejaVuSansMono-30" x="421.435547"/>
      <use xlink:href="#DejaVuSansMono-2e" x="481.640625"/>
      <use xlink:href="#DejaVuSansMono-36" x="541.845703"/>
      <use xlink:href="#DejaVuSansMono-39" x="602.050781"/>
      <use xlink:href="#DejaVuSansMono-35" x="662.255859"/>
      <use xlink:href="#DejaVuSansMono-33" x="722.460938"/>
      <use xlink:href="#DejaVuSansMono-35" x="782.666016"/>
      <use xlink:href="#DejaVuSansMono-b5" x="842.871094"/>
      <use xlink:href="#DejaVuSansMono-6d" x="903.076172"/>
     </g>
    </g>
    <g id="line2d_25">
     <path d="M 827.4735 170.6661 
L 841.8735 170.6661 
L 856.2735 170.6661 
" style="fill: none; stroke: #0074ff; stroke-width: 1.5; stroke-linecap: square"/>
    </g>
    <g id="text_19">
     <!-- T61 at 0.69535µm -->
     <g transform="translate(867.7935 175.7061)scale(0.144 -0.144)">
      <use xlink:href="#DejaVuSansMono-54"/>
      <use xlink:href="#DejaVuSansMono-36" x="60.205078"/>
      <use xlink:href="#DejaVuSansMono-31" x="120.410156"/>
      <use xlink:href="#DejaVuSansMono-20" x="180.615234"/>
      <use xlink:href="#DejaVuSansMono-61" x="240.820312"/>
      <use xlink:href="#DejaVuSansMono-74" x="301.025391"/>
      <use xlink:href="#DejaVuSansMono-20" x="361.230469"/>
      <use xlink:href="#DejaVuSansMono-30" x="421.435547"/>
      <use xlink:href="#DejaVuSansMono-2e" x="481.640625"/>
      <use xlink:href="#DejaVuSansMono-36" x="541.845703"/>
      <use xlink:href="#DejaVuSansMono-39" x="602.050781"/>
      <use xlink:href="#DejaVuSansMono-35" x="662.255859"/>
      <use xlink:href="#DejaVuSansMono-33" x="722.460938"/>
      <use xlink:href="#DejaVuSansMono-35" x="782.666016"/>
      <use xlink:href="#DejaVuSansMono-b5" x="842.871094"/>
      <use xlink:href="#DejaVuSansMono-6d" x="903.076172"/>
     </g>
    </g>
    <g id="line2d_26">
     <path d="M 827.4735 191.89485 
L 841.8735 191.89485 
L 856.2735 191.89485 
" style="fill: none; stroke: #00d9ff; stroke-width: 1.5; stroke-linecap: square"/>
    </g>
    <g id="text_20">
     <!-- T67 at 0.69535µm -->
     <g transform="translate(867.7935 196.93485)scale(0.144 -0.144)">
      <use xlink:href="#DejaVuSansMono-54"/>
      <use xlink:href="#DejaVuSansMono-36" x="60.205078"/>
      <use xlink:href="#DejaVuSansMono-37" x="120.410156"/>
      <use xlink:href="#DejaVuSansMono-20" x="180.615234"/>
      <use xlink:href="#DejaVuSansMono-61" x="240.820312"/>
      <use xlink:href="#DejaVuSansMono-74" x="301.025391"/>
      <use xlink:href="#DejaVuSansMono-20" x="361.230469"/>
      <use xlink:href="#DejaVuSansMono-30" x="421.435547"/>
      <use xlink:href="#DejaVuSansMono-2e" x="481.640625"/>
      <use xlink:href="#DejaVuSansMono-36" x="541.845703"/>
      <use xlink:href="#DejaVuSansMono-39" x="602.050781"/>
      <use xlink:href="#DejaVuSansMono-35" x="662.255859"/>
      <use xlink:href="#DejaVuSansMono-33" x="722.460938"/>
      <use xlink:href="#DejaVuSansMono-35" x="782.666016"/>
      <use xlink:href="#DejaVuSansMono-b5" x="842.871094"/>
      <use xlink:href="#DejaVuSansMono-6d" x="903.076172"/>
     </g>
    </g>
    <g id="line2d_27">
     <path d="M 827.4735 213.1236 
L 841.8735 213.1236 
L 856.2735 213.1236 
" style="fill: none; stroke: #00ffc1; stroke-width: 1.5; stroke-linecap: square"/>
    </g>
    <g id="text_21">
     <!-- T85 at 0.69535µm -->
     <g transform="translate(867.7935 218.1636)scale(0.144 -0.144)">
      <use xlink:href="#DejaVuSansMono-54"/>
      <use xlink:href="#DejaVuSansMono-38" x="60.205078"/>
      <use xlink:href="#DejaVuSansMono-35" x="120.410156"/>
      <use xlink:href="#DejaVuSansMono-20" x="180.615234"/>
      <use xlink:href="#DejaVuSansMono-61" x="240.820312"/>
      <use xlink:href="#DejaVuSansMono-74" x="301.025391"/>
      <use xlink:href="#DejaVuSansMono-20" x="361.230469"/>
      <use xlink:href="#DejaVuSansMono-30" x="421.435547"/>
      <use xlink:href="#DejaVuSansMono-2e" x="481.640625"/>
      <use xlink:href="#DejaVuSansMono-36" x="541.845703"/>
      <use xlink:href="#DejaVuSansMono-39" x="602.050781"/>
      <use xlink:href="#DejaVuSansMono-35" x="662.255859"/>
      <use xlink:href="#DejaVuSansMono-33" x="722.460938"/>
      <use xlink:href="#DejaVuSansMono-35" x="782.666016"/>
      <use xlink:href="#DejaVuSansMono-b5" x="842.871094"/>
      <use xlink:href="#DejaVuSansMono-6d" x="903.076172"/>
     </g>
    </g>
    <g id="line2d_28">
     <path d="M 827.4735 234.35235 
L 841.8735 234.35235 
L 856.2735 234.35235 
" style="fill: none; stroke: #00ff5c; stroke-width: 1.5; stroke-linecap: square"/>
    </g>
    <g id="text_22">
     <!-- T108 at 0.69535µm -->
     <g transform="translate(867.7935 239.39235)scale(0.144 -0.144)">
      <use xlink:href="#DejaVuSansMono-54"/>
      <use xlink:href="#DejaVuSansMono-31" x="60.205078"/>
      <use xlink:href="#DejaVuSansMono-30" x="120.410156"/>
      <use xlink:href="#DejaVuSansMono-38" x="180.615234"/>
      <use xlink:href="#DejaVuSansMono-20" x="240.820312"/>
      <use xlink:href="#DejaVuSansMono-61" x="301.025391"/>
      <use xlink:href="#DejaVuSansMono-74" x="361.230469"/>
      <use xlink:href="#DejaVuSansMono-20" x="421.435547"/>
      <use xlink:href="#DejaVuSansMono-30" x="481.640625"/>
      <use xlink:href="#DejaVuSansMono-2e" x="541.845703"/>
      <use xlink:href="#DejaVuSansMono-36" x="602.050781"/>
      <use xlink:href="#DejaVuSansMono-39" x="662.255859"/>
      <use xlink:href="#DejaVuSansMono-35" x="722.460938"/>
      <use xlink:href="#DejaVuSansMono-33" x="782.666016"/>
      <use xlink:href="#DejaVuSansMono-35" x="842.871094"/>
      <use xlink:href="#DejaVuSansMono-b5" x="903.076172"/>
      <use xlink:href="#DejaVuSansMono-6d" x="963.28125"/>
     </g>
    </g>
    <g id="line2d_29">
     <path d="M 827.4735 255.5811 
L 841.8735 255.5811 
L 856.2735 255.5811 
" style="fill: none; stroke: #08ff00; stroke-width: 1.5; stroke-linecap: square"/>
    </g>
    <g id="text_23">
     <!-- 278TI at 0.69535µm -->
     <g transform="translate(867.7935 260.6211)scale(0.144 -0.144)">
      <defs>
       <path id="DejaVuSansMono-32" d="M 1166 531 
L 3309 531 
L 3309 0 
L 475 0 
L 475 531 
Q 1059 1147 1496 1619 
Q 1934 2091 2100 2284 
Q 2413 2666 2522 2902 
Q 2631 3138 2631 3384 
Q 2631 3775 2401 3997 
Q 2172 4219 1772 4219 
Q 1488 4219 1175 4116 
Q 863 4013 513 3803 
L 513 4441 
Q 834 4594 1145 4672 
Q 1456 4750 1759 4750 
Q 2444 4750 2861 4386 
Q 3278 4022 3278 3431 
Q 3278 3131 3139 2831 
Q 3000 2531 2688 2169 
Q 2513 1966 2180 1606 
Q 1847 1247 1166 531 
z
" transform="scale(0.015625)"/>
      </defs>
      <use xlink:href="#DejaVuSansMono-32"/>
      <use xlink:href="#DejaVuSansMono-37" x="60.205078"/>
      <use xlink:href="#DejaVuSansMono-38" x="120.410156"/>
      <use xlink:href="#DejaVuSansMono-54" x="180.615234"/>
      <use xlink:href="#DejaVuSansMono-49" x="240.820312"/>
      <use xlink:href="#DejaVuSansMono-20" x="301.025391"/>
      <use xlink:href="#DejaVuSansMono-61" x="361.230469"/>
      <use xlink:href="#DejaVuSansMono-74" x="421.435547"/>
      <use xlink:href="#DejaVuSansMono-20" x="481.640625"/>
      <use xlink:href="#DejaVuSansMono-30" x="541.845703"/>
      <use xlink:href="#DejaVuSansMono-2e" x="602.050781"/>
      <use xlink:href="#DejaVuSansMono-36" x="662.255859"/>
      <use xlink:href="#DejaVuSansMono-39" x="722.460938"/>
      <use xlink:href="#DejaVuSansMono-35" x="782.666016"/>
      <use xlink:href="#DejaVuSansMono-33" x="842.871094"/>
      <use xlink:href="#DejaVuSansMono-35" x="903.076172"/>
      <use xlink:href="#DejaVuSansMono-b5" x="963.28125"/>
      <use xlink:href="#DejaVuSansMono-6d" x="1023.486328"/>
     </g>
    </g>
   </g>
  </g>
 </g>
 <defs>
  <clipPath id="pf5e6c781d8">
   <rect x="144" y="88.0416" width="892.8" height="564.9336"/>
  </clipPath>
 </defs>
</svg>
