<?xml version="1.0" encoding="utf-8" standalone="no"?>
<!DOCTYPE svg PUBLIC "-//W3C//DTD SVG 1.1//EN"
  "http://www.w3.org/Graphics/SVG/1.1/DTD/svg11.dtd">
<svg xmlns:xlink="http://www.w3.org/1999/xlink" width="1382.4pt" height="702pt" viewBox="0 0 1382.4 702" xmlns="http://www.w3.org/2000/svg" version="1.1">
 <metadata>
  <rdf:RDF xmlns:dc="http://purl.org/dc/elements/1.1/" xmlns:cc="http://creativecommons.org/ns#" xmlns:rdf="http://www.w3.org/1999/02/22-rdf-syntax-ns#">
   <cc:Work>
    <dc:type rdf:resource="http://purl.org/dc/dcmitype/StillImage"/>
    <dc:date>2022-05-15T21:03:48.290746</dc:date>
    <dc:format>image/svg+xml</dc:format>
    <dc:creator>
     <cc:Agent>
      <dc:title>Matplotlib v3.5.1, https://matplotlib.org/</dc:title>
     </cc:Agent>
    </dc:creator>
   </cc:Work>
  </rdf:RDF>
 </metadata>
 <defs>
  <style type="text/css">*{stroke-linejoin: round; stroke-linecap: butt}</style>
 </defs>
 <g id="figure_1">
  <g id="patch_1">
   <path d="M 0 702 
L 1382.4 702 
L 1382.4 0 
L 0 0 
z
" style="fill: #ffffff"/>
  </g>
  <g id="axes_1">
   <g id="patch_2">
    <path d="M 172.8 624.78 
L 1244.16 624.78 
L 1244.16 84.24 
L 172.8 84.24 
z
" style="fill: #ffffff"/>
   </g>
   <g id="matplotlib.axis_1">
    <g id="xtick_1">
     <g id="line2d_1">
      <defs>
       <path id="m338d77f56b" d="M 0 0 
L 0 3.5 
" style="stroke: #000000; stroke-width: 0.8"/>
      </defs>
      <g>
       <use xlink:href="#m338d77f56b" x="172.8" y="624.78" style="stroke: #000000; stroke-width: 0.8"/>
      </g>
     </g>
     <g id="text_1">
      <!-- 0.000 -->
      <g transform="translate(145.708594 645.552813)scale(0.18 -0.18)">
       <defs>
        <path id="DejaVuSansMono-30" d="M 1509 2344 
Q 1509 2516 1629 2641 
Q 1750 2766 1919 2766 
Q 2094 2766 2219 2641 
Q 2344 2516 2344 2344 
Q 2344 2169 2220 2047 
Q 2097 1925 1919 1925 
Q 1744 1925 1626 2044 
Q 1509 2163 1509 2344 
z
M 1925 4250 
Q 1484 4250 1267 3775 
Q 1050 3300 1050 2328 
Q 1050 1359 1267 884 
Q 1484 409 1925 409 
Q 2369 409 2586 884 
Q 2803 1359 2803 2328 
Q 2803 3300 2586 3775 
Q 2369 4250 1925 4250 
z
M 1925 4750 
Q 2672 4750 3055 4137 
Q 3438 3525 3438 2328 
Q 3438 1134 3055 521 
Q 2672 -91 1925 -91 
Q 1178 -91 797 521 
Q 416 1134 416 2328 
Q 416 3525 797 4137 
Q 1178 4750 1925 4750 
z
" transform="scale(0.015625)"/>
        <path id="DejaVuSansMono-2e" d="M 1528 953 
L 2316 953 
L 2316 0 
L 1528 0 
L 1528 953 
z
" transform="scale(0.015625)"/>
       </defs>
       <use xlink:href="#DejaVuSansMono-30"/>
       <use xlink:href="#DejaVuSansMono-2e" x="60.205078"/>
       <use xlink:href="#DejaVuSansMono-30" x="120.410156"/>
       <use xlink:href="#DejaVuSansMono-30" x="180.615234"/>
       <use xlink:href="#DejaVuSansMono-30" x="240.820312"/>
      </g>
     </g>
    </g>
    <g id="xtick_2">
     <g id="line2d_2">
      <g>
       <use xlink:href="#m338d77f56b" x="387.072" y="624.78" style="stroke: #000000; stroke-width: 0.8"/>
      </g>
     </g>
     <g id="text_2">
      <!-- 0.015 -->
      <g transform="translate(359.980594 645.552813)scale(0.18 -0.18)">
       <defs>
        <path id="DejaVuSansMono-31" d="M 844 531 
L 1825 531 
L 1825 4097 
L 769 3859 
L 769 4434 
L 1819 4666 
L 2450 4666 
L 2450 531 
L 3419 531 
L 3419 0 
L 844 0 
L 844 531 
z
" transform="scale(0.015625)"/>
        <path id="DejaVuSansMono-35" d="M 647 4666 
L 3009 4666 
L 3009 4134 
L 1222 4134 
L 1222 2988 
Q 1356 3038 1492 3061 
Q 1628 3084 1766 3084 
Q 2491 3084 2916 2656 
Q 3341 2228 3341 1497 
Q 3341 759 2895 334 
Q 2450 -91 1678 -91 
Q 1306 -91 998 -41 
Q 691 9 447 109 
L 447 750 
Q 734 594 1025 517 
Q 1316 441 1619 441 
Q 2141 441 2423 716 
Q 2706 991 2706 1497 
Q 2706 1997 2414 2275 
Q 2122 2553 1600 2553 
Q 1347 2553 1106 2495 
Q 866 2438 647 2322 
L 647 4666 
z
" transform="scale(0.015625)"/>
       </defs>
       <use xlink:href="#DejaVuSansMono-30"/>
       <use xlink:href="#DejaVuSansMono-2e" x="60.205078"/>
       <use xlink:href="#DejaVuSansMono-30" x="120.410156"/>
       <use xlink:href="#DejaVuSansMono-31" x="180.615234"/>
       <use xlink:href="#DejaVuSansMono-35" x="240.820312"/>
      </g>
     </g>
    </g>
    <g id="xtick_3">
     <g id="line2d_3">
      <g>
       <use xlink:href="#m338d77f56b" x="601.344" y="624.78" style="stroke: #000000; stroke-width: 0.8"/>
      </g>
     </g>
     <g id="text_3">
      <!-- 0.030 -->
      <g transform="translate(574.252594 645.552813)scale(0.18 -0.18)">
       <defs>
        <path id="DejaVuSansMono-33" d="M 2425 2497 
Q 2884 2375 3128 2064 
Q 3372 1753 3372 1288 
Q 3372 644 2939 276 
Q 2506 -91 1741 -91 
Q 1419 -91 1084 -31 
Q 750 28 428 141 
L 428 769 
Q 747 603 1056 522 
Q 1366 441 1672 441 
Q 2191 441 2469 675 
Q 2747 909 2747 1350 
Q 2747 1756 2469 1995 
Q 2191 2234 1716 2234 
L 1234 2234 
L 1234 2753 
L 1716 2753 
Q 2150 2753 2394 2943 
Q 2638 3134 2638 3475 
Q 2638 3834 2411 4026 
Q 2184 4219 1766 4219 
Q 1488 4219 1191 4156 
Q 894 4094 569 3969 
L 569 4550 
Q 947 4650 1242 4700 
Q 1538 4750 1766 4750 
Q 2447 4750 2855 4408 
Q 3263 4066 3263 3500 
Q 3263 3116 3048 2859 
Q 2834 2603 2425 2497 
z
" transform="scale(0.015625)"/>
       </defs>
       <use xlink:href="#DejaVuSansMono-30"/>
       <use xlink:href="#DejaVuSansMono-2e" x="60.205078"/>
       <use xlink:href="#DejaVuSansMono-30" x="120.410156"/>
       <use xlink:href="#DejaVuSansMono-33" x="180.615234"/>
       <use xlink:href="#DejaVuSansMono-30" x="240.820312"/>
      </g>
     </g>
    </g>
    <g id="xtick_4">
     <g id="line2d_4">
      <g>
       <use xlink:href="#m338d77f56b" x="815.616" y="624.78" style="stroke: #000000; stroke-width: 0.8"/>
      </g>
     </g>
     <g id="text_4">
      <!-- 0.045 -->
      <g transform="translate(788.524594 645.552813)scale(0.18 -0.18)">
       <defs>
        <path id="DejaVuSansMono-34" d="M 2297 4091 
L 825 1625 
L 2297 1625 
L 2297 4091 
z
M 2194 4666 
L 2925 4666 
L 2925 1625 
L 3547 1625 
L 3547 1113 
L 2925 1113 
L 2925 0 
L 2297 0 
L 2297 1113 
L 319 1113 
L 319 1709 
L 2194 4666 
z
" transform="scale(0.015625)"/>
       </defs>
       <use xlink:href="#DejaVuSansMono-30"/>
       <use xlink:href="#DejaVuSansMono-2e" x="60.205078"/>
       <use xlink:href="#DejaVuSansMono-30" x="120.410156"/>
       <use xlink:href="#DejaVuSansMono-34" x="180.615234"/>
       <use xlink:href="#DejaVuSansMono-35" x="240.820312"/>
      </g>
     </g>
    </g>
    <g id="xtick_5">
     <g id="line2d_5">
      <g>
       <use xlink:href="#m338d77f56b" x="1029.888" y="624.78" style="stroke: #000000; stroke-width: 0.8"/>
      </g>
     </g>
     <g id="text_5">
      <!-- 0.060 -->
      <g transform="translate(1002.796594 645.552813)scale(0.18 -0.18)">
       <defs>
        <path id="DejaVuSansMono-36" d="M 3097 4563 
L 3097 3981 
Q 2900 4097 2678 4158 
Q 2456 4219 2216 4219 
Q 1616 4219 1306 3767 
Q 997 3316 997 2438 
Q 1147 2750 1412 2917 
Q 1678 3084 2022 3084 
Q 2697 3084 3067 2670 
Q 3438 2256 3438 1497 
Q 3438 741 3056 325 
Q 2675 -91 1984 -91 
Q 1172 -91 794 492 
Q 416 1075 416 2328 
Q 416 3509 870 4129 
Q 1325 4750 2188 4750 
Q 2419 4750 2650 4701 
Q 2881 4653 3097 4563 
z
M 1972 2591 
Q 1569 2591 1337 2300 
Q 1106 2009 1106 1497 
Q 1106 984 1337 693 
Q 1569 403 1972 403 
Q 2391 403 2603 679 
Q 2816 956 2816 1497 
Q 2816 2041 2603 2316 
Q 2391 2591 1972 2591 
z
" transform="scale(0.015625)"/>
       </defs>
       <use xlink:href="#DejaVuSansMono-30"/>
       <use xlink:href="#DejaVuSansMono-2e" x="60.205078"/>
       <use xlink:href="#DejaVuSansMono-30" x="120.410156"/>
       <use xlink:href="#DejaVuSansMono-36" x="180.615234"/>
       <use xlink:href="#DejaVuSansMono-30" x="240.820312"/>
      </g>
     </g>
    </g>
    <g id="xtick_6">
     <g id="line2d_6">
      <g>
       <use xlink:href="#m338d77f56b" x="1244.16" y="624.78" style="stroke: #000000; stroke-width: 0.8"/>
      </g>
     </g>
     <g id="text_6">
      <!-- 0.075 -->
      <g transform="translate(1217.068594 645.552813)scale(0.18 -0.18)">
       <defs>
        <path id="DejaVuSansMono-37" d="M 434 4666 
L 3372 4666 
L 3372 4397 
L 1703 0 
L 1044 0 
L 2669 4134 
L 434 4134 
L 434 4666 
z
" transform="scale(0.015625)"/>
       </defs>
       <use xlink:href="#DejaVuSansMono-30"/>
       <use xlink:href="#DejaVuSansMono-2e" x="60.205078"/>
       <use xlink:href="#DejaVuSansMono-30" x="120.410156"/>
       <use xlink:href="#DejaVuSansMono-37" x="180.615234"/>
       <use xlink:href="#DejaVuSansMono-35" x="240.820312"/>
      </g>
     </g>
    </g>
    <g id="text_7">
     <!-- I/F -->
     <g transform="translate(694.934297 664.773594)scale(0.15 -0.15)">
      <defs>
       <path id="DejaVuSansMono-49" d="M 628 4666 
L 3219 4666 
L 3219 4134 
L 2241 4134 
L 2241 531 
L 3219 531 
L 3219 0 
L 628 0 
L 628 531 
L 1606 531 
L 1606 4134 
L 628 4134 
L 628 4666 
z
" transform="scale(0.015625)"/>
       <path id="DejaVuSansMono-2f" d="M 2778 4666 
L 3372 4666 
L 916 -594 
L 319 -594 
L 2778 4666 
z
" transform="scale(0.015625)"/>
       <path id="DejaVuSansMono-46" d="M 728 4666 
L 3475 4666 
L 3475 4134 
L 1363 4134 
L 1363 2759 
L 3278 2759 
L 3278 2228 
L 1363 2228 
L 1363 0 
L 728 0 
L 728 4666 
z
" transform="scale(0.015625)"/>
      </defs>
      <use xlink:href="#DejaVuSansMono-49"/>
      <use xlink:href="#DejaVuSansMono-2f" x="60.205078"/>
      <use xlink:href="#DejaVuSansMono-46" x="120.410156"/>
     </g>
    </g>
   </g>
   <g id="matplotlib.axis_2">
    <g id="ytick_1">
     <g id="line2d_7">
      <defs>
       <path id="me32fc19648" d="M 0 0 
L -3.5 0 
" style="stroke: #000000; stroke-width: 0.8"/>
      </defs>
      <g>
       <use xlink:href="#me32fc19648" x="172.8" y="624.78" style="stroke: #000000; stroke-width: 0.8"/>
      </g>
     </g>
     <g id="text_8">
      <!-- 90°S -->
      <g transform="translate(122.45375 631.666406)scale(0.18 -0.18)">
       <defs>
        <path id="DejaVuSansMono-39" d="M 1863 2069 
Q 2266 2069 2495 2359 
Q 2725 2650 2725 3163 
Q 2725 3675 2495 3965 
Q 2266 4256 1863 4256 
Q 1444 4256 1231 3979 
Q 1019 3703 1019 3163 
Q 1019 2619 1230 2344 
Q 1441 2069 1863 2069 
z
M 738 97 
L 738 678 
Q 934 563 1156 502 
Q 1378 441 1619 441 
Q 2219 441 2526 892 
Q 2834 1344 2834 2222 
Q 2688 1909 2422 1742 
Q 2156 1575 1813 1575 
Q 1138 1575 767 1990 
Q 397 2406 397 3169 
Q 397 3922 776 4336 
Q 1156 4750 1850 4750 
Q 2663 4750 3041 4165 
Q 3419 3581 3419 2328 
Q 3419 1150 2964 529 
Q 2509 -91 1644 -91 
Q 1416 -91 1184 -42 
Q 953 6 738 97 
z
" transform="scale(0.015625)"/>
        <path id="DejaVuSansMono-b0" d="M 1925 4750 
Q 2128 4750 2311 4673 
Q 2494 4597 2631 4453 
Q 2772 4313 2845 4134 
Q 2919 3956 2919 3750 
Q 2919 3338 2628 3052 
Q 2338 2766 1919 2766 
Q 1497 2766 1215 3047 
Q 934 3328 934 3750 
Q 934 4169 1221 4459 
Q 1509 4750 1925 4750 
z
M 1925 4347 
Q 1678 4347 1504 4173 
Q 1331 4000 1331 3750 
Q 1331 3500 1501 3331 
Q 1672 3163 1919 3163 
Q 2169 3163 2345 3334 
Q 2522 3506 2522 3750 
Q 2522 3997 2347 4172 
Q 2172 4347 1925 4347 
z
" transform="scale(0.015625)"/>
        <path id="DejaVuSansMono-53" d="M 3163 4506 
L 3163 3866 
Q 2875 4050 2586 4144 
Q 2297 4238 2003 4238 
Q 1556 4238 1297 4030 
Q 1038 3822 1038 3469 
Q 1038 3159 1208 2996 
Q 1378 2834 1844 2725 
L 2175 2650 
Q 2831 2497 3131 2169 
Q 3431 1841 3431 1275 
Q 3431 609 3018 259 
Q 2606 -91 1819 -91 
Q 1491 -91 1159 -20 
Q 828 50 494 191 
L 494 863 
Q 853 634 1173 528 
Q 1494 422 1819 422 
Q 2297 422 2562 636 
Q 2828 850 2828 1234 
Q 2828 1584 2645 1768 
Q 2463 1953 2009 2053 
L 1672 2131 
Q 1022 2278 728 2575 
Q 434 2872 434 3372 
Q 434 3997 854 4373 
Q 1275 4750 1972 4750 
Q 2241 4750 2537 4689 
Q 2834 4628 3163 4506 
z
" transform="scale(0.015625)"/>
       </defs>
       <use xlink:href="#DejaVuSansMono-39"/>
       <use xlink:href="#DejaVuSansMono-30" x="60.205078"/>
       <use xlink:href="#DejaVuSansMono-b0" x="120.410156"/>
       <use xlink:href="#DejaVuSansMono-53" x="180.615234"/>
      </g>
     </g>
    </g>
    <g id="ytick_2">
     <g id="line2d_8">
      <g>
       <use xlink:href="#me32fc19648" x="172.8" y="534.69" style="stroke: #000000; stroke-width: 0.8"/>
      </g>
     </g>
     <g id="text_9">
      <!-- 60°S -->
      <g transform="translate(122.45375 541.576406)scale(0.18 -0.18)">
       <use xlink:href="#DejaVuSansMono-36"/>
       <use xlink:href="#DejaVuSansMono-30" x="60.205078"/>
       <use xlink:href="#DejaVuSansMono-b0" x="120.410156"/>
       <use xlink:href="#DejaVuSansMono-53" x="180.615234"/>
      </g>
     </g>
    </g>
    <g id="ytick_3">
     <g id="line2d_9">
      <g>
       <use xlink:href="#me32fc19648" x="172.8" y="444.6" style="stroke: #000000; stroke-width: 0.8"/>
      </g>
     </g>
     <g id="text_10">
      <!-- 30°S -->
      <g transform="translate(122.45375 451.486406)scale(0.18 -0.18)">
       <use xlink:href="#DejaVuSansMono-33"/>
       <use xlink:href="#DejaVuSansMono-30" x="60.205078"/>
       <use xlink:href="#DejaVuSansMono-b0" x="120.410156"/>
       <use xlink:href="#DejaVuSansMono-53" x="180.615234"/>
      </g>
     </g>
    </g>
    <g id="ytick_4">
     <g id="line2d_10">
      <g>
       <use xlink:href="#me32fc19648" x="172.8" y="354.51" style="stroke: #000000; stroke-width: 0.8"/>
      </g>
     </g>
     <g id="text_11">
      <!-- 0° -->
      <g transform="translate(144.126875 361.396406)scale(0.18 -0.18)">
       <use xlink:href="#DejaVuSansMono-30"/>
       <use xlink:href="#DejaVuSansMono-b0" x="60.205078"/>
      </g>
     </g>
    </g>
    <g id="ytick_5">
     <g id="line2d_11">
      <g>
       <use xlink:href="#me32fc19648" x="172.8" y="264.42" style="stroke: #000000; stroke-width: 0.8"/>
      </g>
     </g>
     <g id="text_12">
      <!-- 30°N -->
      <g transform="translate(122.45375 271.306406)scale(0.18 -0.18)">
       <defs>
        <path id="DejaVuSansMono-4e" d="M 434 4666 
L 1234 4666 
L 2809 825 
L 2809 4666 
L 3419 4666 
L 3419 0 
L 2619 0 
L 1044 3841 
L 1044 0 
L 434 0 
L 434 4666 
z
" transform="scale(0.015625)"/>
       </defs>
       <use xlink:href="#DejaVuSansMono-33"/>
       <use xlink:href="#DejaVuSansMono-30" x="60.205078"/>
       <use xlink:href="#DejaVuSansMono-b0" x="120.410156"/>
       <use xlink:href="#DejaVuSansMono-4e" x="180.615234"/>
      </g>
     </g>
    </g>
    <g id="ytick_6">
     <g id="line2d_12">
      <g>
       <use xlink:href="#me32fc19648" x="172.8" y="174.33" style="stroke: #000000; stroke-width: 0.8"/>
      </g>
     </g>
     <g id="text_13">
      <!-- 60°N -->
      <g transform="translate(122.45375 181.216406)scale(0.18 -0.18)">
       <use xlink:href="#DejaVuSansMono-36"/>
       <use xlink:href="#DejaVuSansMono-30" x="60.205078"/>
       <use xlink:href="#DejaVuSansMono-b0" x="120.410156"/>
       <use xlink:href="#DejaVuSansMono-4e" x="180.615234"/>
      </g>
     </g>
    </g>
    <g id="ytick_7">
     <g id="line2d_13">
      <g>
       <use xlink:href="#me32fc19648" x="172.8" y="84.24" style="stroke: #000000; stroke-width: 0.8"/>
      </g>
     </g>
     <g id="text_14">
      <!-- 90°N -->
      <g transform="translate(122.45375 91.126406)scale(0.18 -0.18)">
       <use xlink:href="#DejaVuSansMono-39"/>
       <use xlink:href="#DejaVuSansMono-30" x="60.205078"/>
       <use xlink:href="#DejaVuSansMono-b0" x="120.410156"/>
       <use xlink:href="#DejaVuSansMono-4e" x="180.615234"/>
      </g>
     </g>
    </g>
    <g id="text_15">
     <!-- Latitude -->
     <g transform="translate(115.334219 390.631875)rotate(-90)scale(0.15 -0.15)">
      <defs>
       <path id="DejaVuSansMono-4c" d="M 672 4666 
L 1306 4666 
L 1306 531 
L 3559 531 
L 3559 0 
L 672 0 
L 672 4666 
z
" transform="scale(0.015625)"/>
       <path id="DejaVuSansMono-61" d="M 2194 1759 
L 2003 1759 
Q 1500 1759 1245 1582 
Q 991 1406 991 1056 
Q 991 741 1181 566 
Q 1372 391 1709 391 
Q 2184 391 2456 720 
Q 2728 1050 2731 1631 
L 2731 1759 
L 2194 1759 
z
M 3309 1997 
L 3309 0 
L 2731 0 
L 2731 519 
Q 2547 206 2267 57 
Q 1988 -91 1588 -91 
Q 1053 -91 734 211 
Q 416 513 416 1019 
Q 416 1603 808 1906 
Q 1200 2209 1959 2209 
L 2731 2209 
L 2731 2300 
Q 2728 2719 2518 2908 
Q 2309 3097 1850 3097 
Q 1556 3097 1256 3012 
Q 956 2928 672 2766 
L 672 3341 
Q 991 3463 1283 3523 
Q 1575 3584 1850 3584 
Q 2284 3584 2592 3456 
Q 2900 3328 3091 3072 
Q 3209 2916 3259 2686 
Q 3309 2456 3309 1997 
z
" transform="scale(0.015625)"/>
       <path id="DejaVuSansMono-74" d="M 1919 4494 
L 1919 3500 
L 3225 3500 
L 3225 3053 
L 1919 3053 
L 1919 1153 
Q 1919 766 2066 612 
Q 2213 459 2578 459 
L 3225 459 
L 3225 0 
L 2522 0 
Q 1875 0 1609 259 
Q 1344 519 1344 1153 
L 1344 3053 
L 409 3053 
L 409 3500 
L 1344 3500 
L 1344 4494 
L 1919 4494 
z
" transform="scale(0.015625)"/>
       <path id="DejaVuSansMono-69" d="M 800 3500 
L 2272 3500 
L 2272 447 
L 3413 447 
L 3413 0 
L 556 0 
L 556 447 
L 1697 447 
L 1697 3053 
L 800 3053 
L 800 3500 
z
M 1697 4863 
L 2272 4863 
L 2272 4134 
L 1697 4134 
L 1697 4863 
z
" transform="scale(0.015625)"/>
       <path id="DejaVuSansMono-75" d="M 609 1325 
L 609 3494 
L 1184 3494 
L 1184 1325 
Q 1184 853 1351 631 
Q 1519 409 1869 409 
Q 2275 409 2490 695 
Q 2706 981 2706 1516 
L 2706 3494 
L 3284 3494 
L 3284 0 
L 2706 0 
L 2706 525 
Q 2553 222 2289 65 
Q 2025 -91 1672 -91 
Q 1134 -91 871 261 
Q 609 613 609 1325 
z
" transform="scale(0.015625)"/>
       <path id="DejaVuSansMono-64" d="M 2681 3053 
L 2681 4863 
L 3256 4863 
L 3256 0 
L 2681 0 
L 2681 441 
Q 2538 181 2298 45 
Q 2059 -91 1747 -91 
Q 1113 -91 748 401 
Q 384 894 384 1759 
Q 384 2613 750 3098 
Q 1116 3584 1747 3584 
Q 2063 3584 2303 3448 
Q 2544 3313 2681 3053 
z
M 991 1747 
Q 991 1078 1203 737 
Q 1416 397 1831 397 
Q 2247 397 2464 740 
Q 2681 1084 2681 1747 
Q 2681 2413 2464 2755 
Q 2247 3097 1831 3097 
Q 1416 3097 1203 2756 
Q 991 2416 991 1747 
z
" transform="scale(0.015625)"/>
       <path id="DejaVuSansMono-65" d="M 3475 1894 
L 3475 1613 
L 984 1613 
L 984 1594 
Q 984 1022 1282 709 
Q 1581 397 2125 397 
Q 2400 397 2700 484 
Q 3000 572 3341 750 
L 3341 178 
Q 3013 44 2708 -23 
Q 2403 -91 2119 -91 
Q 1303 -91 843 398 
Q 384 888 384 1747 
Q 384 2584 834 3084 
Q 1284 3584 2034 3584 
Q 2703 3584 3089 3131 
Q 3475 2678 3475 1894 
z
M 2900 2063 
Q 2888 2569 2661 2833 
Q 2434 3097 2009 3097 
Q 1594 3097 1325 2822 
Q 1056 2547 1006 2059 
L 2900 2063 
z
" transform="scale(0.015625)"/>
      </defs>
      <use xlink:href="#DejaVuSansMono-4c"/>
      <use xlink:href="#DejaVuSansMono-61" x="60.205078"/>
      <use xlink:href="#DejaVuSansMono-74" x="120.410156"/>
      <use xlink:href="#DejaVuSansMono-69" x="180.615234"/>
      <use xlink:href="#DejaVuSansMono-74" x="240.820312"/>
      <use xlink:href="#DejaVuSansMono-75" x="301.025391"/>
      <use xlink:href="#DejaVuSansMono-64" x="361.230469"/>
      <use xlink:href="#DejaVuSansMono-65" x="421.435547"/>
     </g>
    </g>
   </g>
   <g id="line2d_14">
    <path d="M 574.407582 108.264 
L 574.407582 112.7685 
L 574.619989 114.27 
L 574.619989 115.7715 
L 574.885506 117.273 
L 574.885506 120.276 
L 573.411928 121.7775 
L 573.411928 123.279 
L 589.42872 124.7805 
L 589.913243 126.282 
L 590.683238 127.7835 
L 591.240798 129.285 
L 591.599255 130.7865 
L 593.132539 132.288 
L 593.484344 133.7895 
L 594.294143 135.291 
L 594.705682 136.7925 
L 594.765416 138.294 
L 595.004378 139.7955 
L 595.595144 141.297 
L 596.013308 142.7985 
L 596.922673 147.303 
L 597.447054 148.8045 
L 597.672739 150.306 
L 598.635213 151.8075 
L 598.834343 153.309 
L 599.703877 154.8105 
L 600.301242 156.312 
L 601.263716 157.8135 
L 601.482775 159.315 
L 602.478428 160.8165 
L 602.896592 162.318 
L 603.513913 163.8195 
L 604.69542 165.321 
L 605.989769 168.324 
L 606.547329 169.8255 
L 608.319629 171.327 
L 608.910369 172.8285 
L 614.98388 175.8315 
L 616.357865 177.333 
L 617.997394 178.8345 
L 620.758668 181.8375 
L 621.966702 183.339 
L 624.037725 184.8405 
L 624.502345 186.342 
L 627.535761 187.8435 
L 628.703991 189.345 
L 631.033798 190.8465 
L 633.967702 192.348 
L 635.262051 193.8495 
L 637.751184 195.351 
L 638.713684 196.8525 
L 641.28248 198.354 
L 641.514764 199.8555 
L 643.784863 201.357 
L 644.933191 202.8585 
L 647.083823 204.36 
L 647.827237 205.8615 
L 650.170347 207.363 
L 651.146045 208.8645 
L 652.500154 210.366 
L 655.765907 213.369 
L 656.847875 214.8705 
L 659.277248 216.372 
L 661.195543 217.8735 
L 662.908109 219.375 
L 664.30197 220.8765 
L 667.501364 222.378 
L 668.742605 223.8795 
L 671.703063 225.381 
L 673.156685 226.8825 
L 675.8516 228.384 
L 676.30297 229.8855 
L 679.75455 231.387 
L 680.471409 232.8885 
L 682.323346 234.39 
L 683.704009 235.8915 
L 685.456327 237.393 
L 686.418827 238.8945 
L 688.5031 240.396 
L 690.879364 241.8975 
L 691.821909 243.399 
L 694.118563 244.9005 
L 695.014651 246.402 
L 697.59675 247.9035 
L 700.656721 249.405 
L 702.422342 250.9065 
L 705.044193 252.408 
L 708.535631 253.9095 
L 710.440676 255.411 
L 711.894351 256.9125 
L 713.766189 258.414 
L 716.182311 259.9155 
L 716.766399 261.417 
L 718.571879 262.9185 
L 719.952489 264.42 
L 723.311156 267.423 
L 725.036972 268.9245 
L 725.707375 270.426 
L 728.933323 271.9275 
L 730.128107 273.429 
L 731.654793 274.9305 
L 732.444664 276.432 
L 734.329753 277.9335 
L 735.132927 279.435 
L 741.040487 283.9395 
L 742.972033 285.441 
L 746.158176 286.9425 
L 747.479079 288.444 
L 752.317922 291.447 
L 753.320227 292.9485 
L 756.78511 294.45 
L 758.736612 295.9515 
L 760.243342 297.453 
L 761.424875 298.9545 
L 764.020226 300.456 
L 765.029129 301.9575 
L 767.193012 303.459 
L 768.845817 304.9605 
L 770.173373 306.462 
L 776.744683 307.9635 
L 778.138598 309.465 
L 780.28923 310.9665 
L 781.696448 312.468 
L 783.269538 313.9695 
L 785.333855 315.471 
L 785.80518 316.9725 
L 787.822988 318.474 
L 794.095656 319.9755 
L 795.396604 321.477 
L 796.113463 322.9785 
L 798.283998 324.48 
L 798.629204 325.9815 
L 800.467836 327.483 
L 801.795391 328.9845 
L 805.253623 331.9875 
L 807.676397 333.489 
L 808.685354 334.9905 
L 811.194336 336.492 
L 812.920152 337.9935 
L 814.420284 339.495 
L 816.232415 340.9965 
L 818.389646 342.498 
L 820.268083 343.9995 
L 821.469519 345.501 
L 823.6069 347.0025 
L 824.72862 348.504 
L 826.919057 350.0055 
L 830.23132 353.0085 
L 832.322138 354.51 
L 835.090118 356.0115 
L 837.738523 359.0145 
L 838.68772 360.516 
L 840.539656 362.0175 
L 841.150298 363.519 
L 842.690235 365.0205 
L 843.261126 366.522 
L 844.668291 368.0235 
L 845.146215 369.525 
L 846.872031 371.0265 
L 847.356554 372.528 
L 848.969501 374.0295 
L 849.460729 375.531 
L 850.509491 377.0325 
L 854.034082 381.537 
L 856.443605 384.54 
L 857.306487 386.0415 
L 859.974848 389.0445 
L 860.519131 390.546 
L 862.158686 392.0475 
L 864.02382 393.549 
L 865.132342 395.0505 
L 866.898017 396.552 
L 868.690139 399.555 
L 870.017694 401.0565 
L 870.860674 402.558 
L 872.015599 404.0595 
L 872.825426 405.561 
L 873.343155 407.0625 
L 874.829982 408.564 
L 875.26145 410.0655 
L 876.555799 411.567 
L 876.847896 413.0685 
L 877.850148 414.57 
L 878.467496 416.0715 
L 879.708736 417.573 
L 880.053889 419.0745 
L 881.301781 420.576 
L 882.197869 422.0775 
L 882.848369 423.579 
L 884.129415 425.0805 
L 884.872882 426.582 
L 885.350806 428.0835 
L 888.278005 431.0865 
L 888.64306 432.588 
L 890.103387 434.0895 
L 891.138845 435.591 
L 891.55041 437.0925 
L 893.010737 438.594 
L 893.727596 440.0955 
L 894.7365 441.597 
L 895.473262 443.0985 
L 897.225633 444.6 
L 897.849579 446.1015 
L 900.551146 449.1045 
L 900.962658 450.606 
L 902.608812 452.1075 
L 903.571312 453.609 
L 905.21076 455.1105 
L 905.330281 456.612 
L 906.56487 458.1135 
L 907.049446 459.615 
L 907.739751 461.1165 
L 908.284035 462.618 
L 909.266437 464.1195 
L 909.452317 465.621 
L 910.043057 468.624 
L 911.085114 471.627 
L 911.88169 473.1285 
L 912.220244 474.63 
L 913.514593 477.633 
L 913.733626 479.1345 
L 914.769084 480.636 
L 915.565606 482.1375 
L 915.698378 483.639 
L 916.70063 485.1405 
L 916.674076 486.642 
L 916.508151 488.1435 
L 916.687379 489.645 
L 916.514803 492.648 
L 915.910759 495.651 
L 915.937313 497.1525 
L 915.379726 498.654 
L 915.585509 501.657 
L 915.43954 503.1585 
L 915.598759 509.1645 
L 916.282466 510.666 
L 916.289118 512.1675 
L 916.70063 515.1705 
L 916.56126 516.672 
L 916.614368 518.1735 
L 916.820151 519.675 
L 916.833401 522.678 
L 916.548009 525.681 
L 916.727184 530.1855 
L 917.032532 531.687 
L 917.191858 533.1885 
L 917.490554 534.69 
L 917.410891 536.1915 
L 918.101196 537.693 
L 918.087946 539.1945 
L 918.738446 540.696 
L 918.399892 542.1975 
L 918.240619 543.699 
L 916.986075 546.702 
L 916.62102 548.2035 
L 916.428488 549.705 
L 915.943965 551.2065 
L 916.050129 555.711 
L 916.999379 558.714 
L 916.753792 566.2215 
L 916.94627 567.723 
L 916.528107 569.2245 
L 916.640923 570.726 
L 916.255912 572.2275 
L 916.541357 573.729 
L 917.01263 575.2305 
L 917.092292 576.732 
L 917.66313 578.2335 
L 917.583467 579.735 
L 917.756043 581.2365 
L 917.809152 584.2395 
L 917.258217 585.741 
L 917.590066 587.2425 
L 916.647521 590.2455 
L 916.043531 591.747 
L 916.74714 593.2485 
L 916.289118 594.75 
L 914.702725 597.753 
L 914.815541 599.2545 
L 917.357782 600.756 
L 917.344478 603.759 
L 915.605411 605.2605 
L 915.485944 606.762 
L 914.165093 608.2635 
L 914.324313 609.765 
L 913.965963 611.2665 
L 914.981465 612.768 
L 915.001368 614.2695 
L 911.775526 615.771 
L 907.885827 617.2725 
L 897.683601 618.774 
L 900.869745 620.2755 
L 907.182164 621.777 
L 910.826276 623.2785 
L 910.826276 624.78 
L 910.826276 624.78 
" clip-path="url(#p22c7885d9a)" style="fill: none; stroke: #b900ff; stroke-width: 1.5; stroke-linecap: square"/>
   </g>
   <g id="line2d_15">
    <path d="M 342.217887 84.24 
L 342.217887 88.7445 
L 347.98907 90.246 
L 349.085686 91.7475 
L 350.879298 94.7505 
L 350.879298 96.252 
L 352.031669 97.7535 
L 351.817931 99.255 
L 353.518617 100.7565 
L 354.438652 102.258 
L 354.977667 103.7595 
L 355.330815 105.261 
L 354.131987 106.7625 
L 353.946107 108.264 
L 354.150559 109.7655 
L 354.187743 111.267 
L 355.516682 112.7685 
L 359.020292 114.27 
L 360.386402 115.7715 
L 362.272955 117.273 
L 362.746927 118.7745 
L 364.122323 120.276 
L 363.778474 121.7775 
L 364.949444 123.279 
L 365.376934 124.7805 
L 367.653805 126.282 
L 368.927001 127.7835 
L 369.661183 129.285 
L 376.343087 130.7865 
L 378.629272 132.288 
L 382.328022 136.7925 
L 384.827931 138.294 
L 385.738679 139.7955 
L 387.476536 141.297 
L 390.961548 142.7985 
L 393.758849 145.8015 
L 394.92052 147.303 
L 396.398181 148.8045 
L 398.526357 150.306 
L 399.483562 151.8075 
L 404.948054 153.309 
L 408.144973 154.8105 
L 413.367842 156.312 
L 414.557384 157.8135 
L 416.973665 159.315 
L 420.151986 160.8165 
L 424.659245 162.318 
L 427.298578 163.8195 
L 436.275953 166.8225 
L 439.816721 168.324 
L 442.809188 169.8255 
L 450.950156 172.8285 
L 458.48708 174.33 
L 461.999964 175.8315 
L 469.146556 177.333 
L 472.817435 178.8345 
L 475.651906 180.336 
L 481.134996 181.8375 
L 485.149724 183.339 
L 492.584396 184.8405 
L 496.255275 186.342 
L 501.803394 187.8435 
L 507.779042 189.345 
L 511.198985 190.8465 
L 516.960896 192.348 
L 517.165321 193.8495 
L 521.226506 195.351 
L 525.947557 196.8525 
L 529.265274 198.354 
L 534.618254 199.8555 
L 537.796574 201.357 
L 542.183036 202.8585 
L 544.255468 204.36 
L 547.628955 205.8615 
L 552.136241 207.363 
L 555.249507 208.8645 
L 564.607928 211.8675 
L 574.115032 216.372 
L 578.705945 217.8735 
L 585.062587 220.8765 
L 588.519728 222.378 
L 591.447113 223.8795 
L 596.000882 225.381 
L 598.593731 226.8825 
L 602.757142 228.384 
L 608.165864 231.387 
L 612.022623 232.8885 
L 614.160085 234.39 
L 617.152552 235.8915 
L 619.643175 237.393 
L 621.566898 238.8945 
L 624.308483 240.396 
L 625.711763 241.8975 
L 629.17819 243.399 
L 633.87133 246.402 
L 636.640746 247.9035 
L 639.679643 249.405 
L 642.263233 250.9065 
L 644.186956 252.408 
L 647.978633 253.9095 
L 651.249867 255.411 
L 652.550922 256.9125 
L 656.351965 258.414 
L 660.617575 261.417 
L 665.208541 264.42 
L 668.386862 265.9215 
L 670.449956 267.423 
L 672.243568 268.9245 
L 674.576196 270.426 
L 676.407005 271.9275 
L 677.550064 273.429 
L 679.938461 274.9305 
L 681.704189 276.432 
L 683.711566 277.9335 
L 684.938279 279.435 
L 689.111029 282.438 
L 693.423149 285.441 
L 696.248281 286.9425 
L 698.255659 288.444 
L 700.736969 289.9455 
L 702.530634 291.447 
L 703.636549 292.9485 
L 705.653186 294.45 
L 707.14012 295.9515 
L 709.630743 297.453 
L 710.848196 298.9545 
L 712.307246 300.456 
L 713.98006 301.9575 
L 715.411225 303.459 
L 717.353521 304.9605 
L 719.667576 307.9635 
L 722.678642 310.9665 
L 724.676707 312.468 
L 726.163641 313.9695 
L 727.48332 315.471 
L 729.583558 316.9725 
L 730.717357 318.474 
L 736.339897 321.477 
L 737.863976 322.9785 
L 740.24306 324.48 
L 743.542232 327.483 
L 744.74106 328.9845 
L 747.036543 330.486 
L 748.467708 331.9875 
L 750.252008 333.489 
L 751.060504 334.9905 
L 752.761256 336.492 
L 755.093884 337.9935 
L 755.800154 339.495 
L 757.073323 340.9965 
L 758.597455 342.498 
L 760.586207 343.9995 
L 763.20694 345.501 
L 764.842557 347.0025 
L 767.33318 348.504 
L 771.013372 351.507 
L 773.438913 353.0085 
L 774.749333 354.51 
L 776.273411 356.0115 
L 778.940602 357.513 
L 780.306684 359.0145 
L 782.15612 360.516 
L 783.522202 362.0175 
L 791.170692 368.0235 
L 792.285866 369.525 
L 794.358325 371.0265 
L 796.049658 372.528 
L 797.322828 374.0295 
L 799.655509 375.531 
L 802.59218 377.0325 
L 803.930431 378.534 
L 805.58462 380.0355 
L 808.065984 381.537 
L 809.887481 383.0385 
L 814.181029 386.0415 
L 815.101064 387.543 
L 817.963447 389.0445 
L 819.060049 390.546 
L 821.327594 392.0475 
L 822.981783 393.549 
L 823.242005 395.0505 
L 825.277267 396.552 
L 826.950081 398.0535 
L 828.241876 399.555 
L 828.799463 401.0565 
L 830.342167 402.558 
L 833.20455 405.561 
L 834.078074 407.0625 
L 835.890259 408.564 
L 836.838231 410.0655 
L 840.583399 413.0685 
L 842.274838 414.57 
L 843.538748 416.0715 
L 845.174312 417.573 
L 848.845191 420.576 
L 850.109155 422.0775 
L 851.67043 423.579 
L 852.813489 425.0805 
L 853.770668 426.582 
L 855.136857 428.0835 
L 855.954666 429.585 
L 857.395143 431.0865 
L 858.14787 432.588 
L 859.132986 434.0895 
L 861.316931 435.591 
L 864.978497 440.0955 
L 865.610479 441.597 
L 866.911533 443.0985 
L 867.14387 444.6 
L 868.119674 446.1015 
L 868.92817 447.603 
L 870.126998 449.1045 
L 870.610244 450.606 
L 871.279423 452.1075 
L 871.809072 453.609 
L 872.143688 455.1105 
L 871.7905 456.612 
L 872.301683 458.1135 
L 874.699339 461.1165 
L 875.256927 462.618 
L 875.164013 464.1195 
L 877.189962 465.621 
L 878.453819 467.1225 
L 879.959379 468.624 
L 880.340398 470.1255 
L 879.346022 471.627 
L 879.373907 473.1285 
L 877.93343 474.63 
L 879.392532 477.633 
L 879.476133 479.1345 
L 880.721418 480.636 
L 880.108062 482.1375 
L 880.2196 483.639 
L 880.777187 485.1405 
L 880.851582 486.642 
L 880.721418 488.1435 
L 880.842269 489.645 
L 881.966756 491.1465 
L 881.845905 492.648 
L 882.236237 494.1495 
L 884.866283 497.1525 
L 887.542786 498.654 
L 887.654325 500.1555 
L 889.169144 501.657 
L 890.990588 503.1585 
L 893.481264 504.66 
L 893.843658 506.1615 
L 900.033045 510.666 
L 902.765264 512.1675 
L 902.151908 513.669 
L 903.360048 515.1705 
L 905.432508 516.672 
L 907.79302 518.1735 
L 908.480664 519.675 
L 910.450897 521.1765 
L 911.194365 522.678 
L 914.447027 524.1795 
L 915.608711 525.681 
L 915.255576 527.1825 
L 916.454404 528.684 
L 916.630971 530.1855 
L 916.677428 531.687 
L 916.500861 533.1885 
L 917.169986 534.69 
L 918.536069 536.1915 
L 920.413336 537.693 
L 921.816669 539.1945 
L 922.402141 540.696 
L 924.706937 542.1975 
L 927.680806 543.699 
L 928.359191 545.2005 
L 928.377816 546.702 
L 929.49299 548.2035 
L 929.8275 549.705 
L 931.007756 551.2065 
L 933.266095 552.708 
L 933.266095 554.2095 
L 935.700949 557.2125 
L 936.128425 558.714 
L 934.530005 560.2155 
L 934.548577 561.717 
L 937.141426 563.2185 
L 937.475989 564.72 
L 937.503874 566.2215 
L 938.228716 567.723 
L 938.656245 569.2245 
L 941.49069 572.2275 
L 943.730404 576.732 
L 945.096541 578.2335 
L 946.620619 579.735 
L 947.057408 581.2365 
L 946.787874 582.738 
L 947.949611 584.2395 
L 946.434792 585.741 
L 944.659752 587.2425 
L 946.537018 588.744 
L 950.356527 590.2455 
L 955.198402 591.747 
L 960.904543 593.2485 
L 962.103371 594.75 
L 965.597683 596.2515 
L 967.484262 597.753 
L 968.701662 599.2545 
L 968.915374 600.756 
L 967.493521 602.2575 
L 966.703598 603.759 
L 963.962013 605.2605 
L 962.010405 606.762 
L 962.475132 608.2635 
L 960.114566 609.765 
L 958.41392 611.2665 
L 953.441987 612.768 
L 952.168764 614.2695 
L 950.49595 615.771 
L 951.230158 617.2725 
L 950.421609 618.774 
L 946.453364 620.2755 
L 946.648504 621.777 
L 938.907154 623.2785 
L 974.835279 624.78 
L 974.835279 624.78 
" clip-path="url(#p22c7885d9a)" style="fill: none; stroke: #5400ff; stroke-width: 1.5; stroke-linecap: square"/>
   </g>
   <g id="line2d_16">
    <path d="M 432.98181 84.24 
L 432.98181 85.7415 
L 435.588894 87.243 
L 435.457213 88.7445 
L 434.74618 90.246 
L 434.772548 93.249 
L 436.273585 94.7505 
L 437.22161 96.252 
L 439.512677 97.7535 
L 439.618016 99.255 
L 439.907719 100.7565 
L 438.66999 102.258 
L 440.724037 103.7595 
L 441.461411 105.261 
L 442.646457 108.264 
L 445.727553 109.7655 
L 448.755967 112.7685 
L 449.256322 114.27 
L 452.837799 115.7715 
L 454.812849 117.273 
L 457.630611 118.7745 
L 459.974334 120.276 
L 461.396399 121.7775 
L 463.792805 123.279 
L 467.005582 124.7805 
L 468.954316 126.282 
L 472.140752 127.7835 
L 472.45677 129.285 
L 477.328605 130.7865 
L 482.621771 132.288 
L 489.363317 133.7895 
L 493.418781 135.291 
L 495.341174 136.7925 
L 499.212301 138.294 
L 500.976698 139.7955 
L 502.451393 141.297 
L 503.294079 142.7985 
L 503.66278 144.3 
L 505.032135 145.8015 
L 507.823583 147.303 
L 509.798632 148.8045 
L 510.772999 150.306 
L 513.722442 151.8075 
L 517.883245 153.309 
L 522.781396 154.8105 
L 526.441871 156.312 
L 527.258216 157.8135 
L 530.734328 159.315 
L 533.236073 160.8165 
L 534.526431 162.318 
L 536.211831 163.8195 
L 536.738527 165.321 
L 540.161982 168.324 
L 541.426025 169.8255 
L 544.112107 171.327 
L 545.692168 172.8285 
L 550.221618 174.33 
L 555.198766 175.8315 
L 559.62293 177.333 
L 568.681884 178.8345 
L 569.498256 180.336 
L 579.136561 181.8375 
L 586.115127 183.339 
L 591.566288 184.8405 
L 594.910746 186.342 
L 596.332785 187.8435 
L 599.887921 189.345 
L 604.759757 190.8465 
L 610.263574 192.348 
L 614.740368 193.8495 
L 617.321164 195.351 
L 621.613621 196.8525 
L 626.432774 198.354 
L 629.882544 199.8555 
L 634.728038 201.357 
L 636.466094 202.8585 
L 640.863944 204.36 
L 645.920063 205.8615 
L 649.975527 207.363 
L 654.399718 208.8645 
L 656.137721 210.366 
L 660.166897 211.8675 
L 665.144045 213.369 
L 669.015172 214.8705 
L 670.042222 216.372 
L 674.861322 217.8735 
L 679.153859 219.375 
L 684.78933 220.8765 
L 688.054764 222.378 
L 690.635533 223.8795 
L 694.980646 225.381 
L 697.324396 226.8825 
L 702.090919 231.387 
L 704.987679 232.8885 
L 708.20043 234.39 
L 710.280818 235.8915 
L 712.045215 237.393 
L 712.72988 238.8945 
L 714.520672 240.396 
L 716.969734 241.8975 
L 718.707737 243.399 
L 721.420213 244.9005 
L 723.289923 246.402 
L 725.581043 247.9035 
L 728.477749 249.405 
L 730.90047 250.9065 
L 734.21864 252.408 
L 735.693335 253.9095 
L 738.906139 255.411 
L 742.461222 256.9125 
L 745.068332 258.414 
L 747.412082 259.9155 
L 748.834094 261.417 
L 751.072531 262.9185 
L 754.917316 265.9215 
L 756.945022 267.423 
L 757.682422 268.9245 
L 760.105143 270.426 
L 762.817566 271.9275 
L 764.713617 273.429 
L 767.189021 274.9305 
L 768.479379 276.432 
L 771.58687 277.9335 
L 774.220269 279.435 
L 777.617357 280.9365 
L 778.881426 282.438 
L 780.988103 283.9395 
L 782.831525 285.441 
L 785.122644 286.9425 
L 788.019351 288.444 
L 789.336051 289.9455 
L 791.205814 291.447 
L 792.33823 292.9485 
L 794.155257 294.45 
L 796.209303 295.9515 
L 797.552344 297.453 
L 800.080431 298.9545 
L 802.318814 300.456 
L 805.873951 303.459 
L 810.350771 307.9635 
L 812.457501 309.465 
L 815.301578 310.9665 
L 816.249604 312.468 
L 819.146417 313.9695 
L 821.358459 315.471 
L 827.151979 318.474 
L 828.705698 319.9755 
L 831.049394 321.477 
L 832.840187 322.9785 
L 835.183936 324.48 
L 838.028013 325.9815 
L 839.371054 327.483 
L 842.899849 328.9845 
L 845.269886 330.486 
L 847.218621 331.9875 
L 848.983018 333.489 
L 851.247796 334.9905 
L 854.170845 336.492 
L 856.303916 337.9935 
L 859.253359 339.495 
L 860.254067 340.9965 
L 862.782154 342.498 
L 864.730888 343.9995 
L 865.994904 345.501 
L 867.838273 347.0025 
L 868.99703 348.504 
L 871.340779 350.0055 
L 872.578508 351.507 
L 873.631793 353.0085 
L 873.974178 354.51 
L 875.106541 356.0115 
L 876.949963 357.513 
L 878.52997 359.0145 
L 880.557729 360.516 
L 881.716433 362.0175 
L 882.532804 363.519 
L 887.430928 371.0265 
L 888.168276 372.528 
L 889.87999 374.0295 
L 889.906385 375.531 
L 891.328397 377.0325 
L 892.17111 378.534 
L 894.04082 380.0355 
L 896.410911 381.537 
L 901.598737 384.54 
L 902.283402 386.0415 
L 904.785147 389.0445 
L 906.496914 392.0475 
L 907.049925 393.549 
L 907.91898 395.0505 
L 910.499696 396.552 
L 913.396456 398.0535 
L 915.950883 399.555 
L 916.767255 401.0565 
L 918.742278 402.558 
L 919.795669 404.0595 
L 920.243314 405.561 
L 920.559358 407.0625 
L 920.375021 408.564 
L 921.533725 410.0655 
L 924.693793 411.567 
L 929.486604 413.0685 
L 929.53934 414.57 
L 933.568463 416.0715 
L 935.859529 419.0745 
L 936.939209 422.0775 
L 937.123546 423.579 
L 937.070916 425.0805 
L 937.597532 426.582 
L 937.887288 428.0835 
L 938.308591 429.585 
L 939.967623 432.588 
L 940.38898 434.0895 
L 940.573317 435.591 
L 940.546975 437.0925 
L 941.600367 440.0955 
L 942.311373 441.597 
L 942.364109 443.0985 
L 943.812409 446.1015 
L 940.942043 447.603 
L 935.253836 449.1045 
L 932.989111 450.606 
L 934.54283 452.1075 
L 931.330026 453.609 
L 930.671703 455.1105 
L 927.53787 456.612 
L 926.352878 458.1135 
L 925.878892 459.615 
L 922.903107 461.1165 
L 920.66467 462.618 
L 918.768619 464.1195 
L 919.084663 465.621 
L 919.901035 467.1225 
L 919.32163 470.1255 
L 919.295341 471.627 
L 920.322391 473.1285 
L 919.374312 474.63 
L 919.110951 476.1315 
L 917.372948 477.633 
L 916.740914 479.1345 
L 917.16227 480.636 
L 915.950883 482.1375 
L 915.634892 483.639 
L 914.634184 485.1405 
L 914.054779 486.642 
L 914.634184 488.1435 
L 913.159436 489.645 
L 912.817104 491.1465 
L 911.605717 492.648 
L 910.63135 494.1495 
L 911.500351 495.651 
L 911.711029 497.1525 
L 913.923178 501.657 
L 914.291798 503.1585 
L 915.055487 504.66 
L 915.687522 506.1615 
L 916.714572 507.663 
L 917.083246 509.1645 
L 918.689648 510.666 
L 918.320921 512.1675 
L 922.508092 518.1735 
L 922.613405 519.675 
L 924.588534 521.1765 
L 927.327245 522.678 
L 927.53787 524.1795 
L 928.459608 525.681 
L 929.618312 527.1825 
L 931.672412 530.1855 
L 931.172031 531.687 
L 934.437518 533.1885 
L 934.200498 534.69 
L 936.570589 536.1915 
L 937.281595 537.693 
L 939.098622 540.696 
L 939.07228 542.1975 
L 938.650924 543.699 
L 939.599003 545.2005 
L 939.677974 546.702 
L 939.098622 548.2035 
L 939.967623 549.705 
L 939.862311 551.2065 
L 939.625291 552.708 
L 939.098622 554.2095 
L 938.624582 557.2125 
L 937.860947 558.714 
L 936.64956 560.2155 
L 937.281595 561.717 
L 937.149887 563.2185 
L 938.650924 564.72 
L 940.863019 566.2215 
L 941.442371 567.723 
L 942.917066 569.2245 
L 942.759124 570.726 
L 944.971166 572.2275 
L 942.495709 573.729 
L 943.022432 575.2305 
L 942.021723 576.732 
L 942.127089 581.2365 
L 937.623927 582.738 
L 938.124255 584.2395 
L 933.752747 585.741 
L 935.095841 587.2425 
L 939.519978 588.744 
L 939.888652 590.2455 
L 940.731365 591.747 
L 928.433319 593.2485 
L 928.907306 594.75 
L 919.50602 596.2515 
L 872.552113 597.753 
L 872.552113 599.2545 
L 872.288752 600.756 
L 867.100925 602.2575 
L 867.337945 603.759 
L 866.811276 605.2605 
L 866.495232 606.762 
L 846.481273 608.2635 
L 819.831081 609.765 
L 819.831081 611.2665 
L 819.831081 611.2665 
" clip-path="url(#p22c7885d9a)" style="fill: none; stroke: #0010ff; stroke-width: 1.5; stroke-linecap: square"/>
   </g>
   <g id="line2d_17">
    <path d="M 676.2894 88.7445 
L 676.2894 93.249 
L 686.034349 94.7505 
L 691.031772 96.252 
L 676.593151 97.7535 
L 678.474516 99.255 
L 679.572022 100.7565 
L 679.572022 102.258 
L 693.692151 103.7595 
L 692.771052 105.261 
L 691.585368 106.7625 
L 691.453128 108.264 
L 690.963178 109.7655 
L 682.888915 111.267 
L 682.986937 112.7685 
L 684.584133 114.27 
L 685.769764 115.7715 
L 686.147005 117.273 
L 687.964724 118.7745 
L 688.988687 120.276 
L 689.718691 121.7775 
L 689.993068 123.279 
L 690.708437 124.7805 
L 691.144428 127.7835 
L 691.766671 129.285 
L 692.589748 130.7865 
L 693.858714 132.288 
L 694.549551 133.7895 
L 695.578411 136.7925 
L 697.018835 138.294 
L 698.21431 139.7955 
L 698.84145 141.297 
L 705.82805 145.8015 
L 706.680502 147.303 
L 708.777493 148.8045 
L 709.865155 150.306 
L 710.575576 151.8075 
L 712.319752 153.309 
L 715.661176 154.8105 
L 716.69988 156.312 
L 720.442972 159.315 
L 721.006466 160.8165 
L 722.770225 162.318 
L 725.268937 163.8195 
L 727.282593 165.321 
L 728.620153 166.8225 
L 734.52883 171.327 
L 738.992187 172.8285 
L 740.677614 174.33 
L 743.25966 175.8315 
L 744.660865 177.333 
L 748.487291 180.336 
L 749.721986 181.8375 
L 752.019758 183.339 
L 757.742289 186.342 
L 758.932869 187.8435 
L 762.337939 189.345 
L 764.175241 190.8465 
L 765.757803 192.348 
L 767.644062 193.8495 
L 771.137363 195.351 
L 774.944206 198.354 
L 776.600205 199.8555 
L 790.156946 201.357 
L 790.989867 202.8585 
L 791.406275 204.36 
L 794.830981 208.8645 
L 796.006874 210.366 
L 799.882258 211.8675 
L 801.170807 214.8705 
L 802.057582 216.372 
L 802.263417 217.8735 
L 803.297173 219.375 
L 803.645039 220.8765 
L 804.806191 222.378 
L 807.422508 226.8825 
L 807.853603 228.384 
L 809.098143 229.8855 
L 809.886896 231.387 
L 811.141174 232.8885 
L 811.297945 234.39 
L 811.248934 235.8915 
L 811.743781 237.393 
L 811.978938 238.8945 
L 812.419878 240.396 
L 812.630609 241.8975 
L 813.973012 244.9005 
L 814.938226 246.402 
L 815.354633 247.9035 
L 816.319847 249.405 
L 816.912716 250.9065 
L 817.133186 252.408 
L 816.716725 255.411 
L 816.824486 256.9125 
L 816.731413 259.9155 
L 817.059643 261.417 
L 817.059643 262.9185 
L 817.314436 264.42 
L 818.054232 267.423 
L 818.122826 268.9245 
L 818.42663 270.426 
L 819.136998 271.9275 
L 819.141894 273.429 
L 819.328093 274.9305 
L 819.372208 276.432 
L 819.083144 277.9335 
L 819.695543 280.9365 
L 819.445698 282.438 
L 819.666168 283.9395 
L 819.582887 285.441 
L 819.969919 286.9425 
L 819.847418 288.444 
L 820.641174 289.9455 
L 821.625918 292.9485 
L 821.821909 294.45 
L 821.851283 295.9515 
L 821.493625 297.453 
L 821.596543 298.9545 
L 820.939976 300.456 
L 820.9743 301.9575 
L 820.75383 303.459 
L 820.959612 304.9605 
L 821.57696 306.462 
L 821.900294 309.465 
L 822.365713 312.468 
L 822.434361 313.9695 
L 822.850768 315.471 
L 822.478423 316.9725 
L 823.076134 318.474 
L 822.145243 319.9755 
L 819.053716 321.477 
L 817.941575 322.9785 
L 818.024857 324.48 
L 816.868601 325.9815 
L 815.08031 327.483 
L 814.560984 328.9845 
L 813.860355 330.486 
L 813.860355 331.9875 
L 813.350768 333.489 
L 812.99311 334.9905 
L 812.973527 336.492 
L 812.498317 337.9935 
L 812.189616 339.495 
L 810.935338 340.9965 
L 809.940803 342.498 
L 808.382773 345.501 
L 807.946729 347.0025 
L 807.221621 348.504 
L 806.672868 350.0055 
L 805.825259 351.507 
L 803.757749 353.0085 
L 787.653285 354.51 
L 787.040886 356.0115 
L 785.438742 357.513 
L 782.891072 360.516 
L 782.259037 362.0175 
L 781.95039 363.519 
L 780.72554 366.522 
L 779.824024 368.0235 
L 780.093505 369.525 
L 778.966624 371.0265 
L 778.927457 372.528 
L 778.452194 374.0295 
L 778.329693 375.531 
L 779.397772 377.0325 
L 779.677044 378.534 
L 779.270375 380.0355 
L 779.603554 381.537 
L 778.858863 383.0385 
L 777.237135 384.54 
L 776.306245 387.543 
L 776.237651 389.0445 
L 777.026457 392.0475 
L 776.815779 393.549 
L 777.129375 395.0505 
L 776.810883 396.552 
L 777.11953 398.0535 
L 776.869686 399.555 
L 777.006821 401.0565 
L 776.874581 402.558 
L 776.943176 404.0595 
L 776.845153 405.561 
L 776.213172 407.0625 
L 776.11515 410.0655 
L 775.639939 413.0685 
L 775.635044 416.0715 
L 774.993217 419.0745 
L 773.337166 423.579 
L 773.219614 425.0805 
L 772.621902 426.582 
L 771.970231 429.585 
L 771.524396 431.0865 
L 771.37252 432.588 
L 770.926631 434.0895 
L 770.838454 435.591 
L 770.554339 437.0925 
L 770.745381 438.594 
L 770.382827 441.597 
L 770.36814 443.0985 
L 769.750792 444.6 
L 769.814491 446.1015 
L 769.427458 447.603 
L 768.354483 449.1045 
L 767.962554 450.606 
L 770.314233 452.1075 
L 769.995794 453.609 
L 769.692043 456.612 
L 769.510739 458.1135 
L 768.947298 459.615 
L 768.834589 461.1165 
L 768.501463 462.618 
L 768.58964 464.1195 
L 767.6 468.624 
L 765.77249 473.1285 
L 764.679932 474.63 
L 764.209565 476.1315 
L 762.455597 477.633 
L 761.774551 479.1345 
L 759.706988 482.1375 
L 759.040683 483.639 
L 757.99224 485.1405 
L 757.68354 486.642 
L 756.336189 488.1435 
L 755.527799 489.645 
L 754.474408 491.1465 
L 753.920758 492.648 
L 753.567996 494.1495 
L 752.019758 495.651 
L 750.27074 498.654 
L 748.923388 500.1555 
L 750.677356 501.657 
L 749.712142 503.1585 
L 749.413286 504.66 
L 748.982191 506.1615 
L 747.874893 507.663 
L 747.037075 509.1645 
L 746.052331 510.666 
L 745.870975 512.1675 
L 745.194931 513.669 
L 744.357113 515.1705 
L 743.744662 516.672 
L 742.132779 518.1735 
L 741.701577 519.675 
L 741.682047 521.1765 
L 741.24595 522.678 
L 740.437561 524.1795 
L 739.790838 525.681 
L 739.879016 527.1825 
L 738.708072 530.1855 
L 736.611081 531.687 
L 736.258319 533.1885 
L 733.999713 534.69 
L 730.599486 539.1945 
L 730.521153 540.696 
L 729.193385 542.1975 
L 729.717606 543.699 
L 728.556454 545.2005 
L 726.998425 546.702 
L 725.616803 548.2035 
L 724.563412 549.705 
L 723.039706 552.708 
L 721.486572 555.711 
L 720.345003 558.714 
L 720.32542 561.717 
L 720.550786 563.2185 
L 718.693954 566.2215 
L 718.424473 567.723 
L 715.548467 570.726 
L 714.441222 572.2275 
L 713.779759 573.729 
L 711.966989 575.2305 
L 711.57506 576.732 
L 711.354591 578.2335 
L 710.237501 579.735 
L 709.850415 584.2395 
L 708.243427 585.741 
L 707.449725 587.2425 
L 705.999509 588.744 
L 706.224875 590.2455 
L 705.612423 591.747 
L 706.96467 593.2485 
L 707.704465 594.75 
L 703.745746 596.2515 
L 703.716372 597.753 
L 704.078926 599.2545 
L 708.718691 600.756 
L 708.650097 602.2575 
L 705.259661 603.759 
L 705.396849 605.2605 
L 702.202457 606.762 
L 702.104435 608.2635 
L 701.482245 609.765 
L 697.381389 611.2665 
L 704.343511 612.768 
L 703.236213 614.2695 
L 702.873659 615.771 
L 700.28677 617.2725 
L 700.492499 618.774 
L 689.145459 620.2755 
L 688.307641 621.777 
L 688.048005 624.78 
L 688.048005 624.78 
" clip-path="url(#p22c7885d9a)" style="fill: none; stroke: #0074ff; stroke-width: 1.5; stroke-linecap: square"/>
   </g>
   <g id="line2d_18">
    <path d="M 549.188661 84.24 
L 577.896252 85.7415 
L 577.896252 87.243 
L 579.256588 88.7445 
L 579.256588 94.7505 
L 578.9634 96.252 
L 578.9634 99.255 
L 578.834433 100.7565 
L 581.426058 102.258 
L 581.426058 103.7595 
L 581.912736 105.261 
L 588.984109 106.7625 
L 588.984109 108.264 
L 589.312445 109.7655 
L 592.279369 111.267 
L 592.437684 112.7685 
L 588.104571 114.27 
L 589.623221 115.7715 
L 590.05711 117.273 
L 590.004374 118.7745 
L 590.907326 120.276 
L 591.505383 121.7775 
L 592.379041 123.279 
L 593.639732 124.7805 
L 593.446215 126.282 
L 592.994739 127.7835 
L 593.311342 129.285 
L 593.774552 130.7865 
L 592.461152 132.288 
L 592.777755 133.7895 
L 591.147752 135.291 
L 591.364683 136.7925 
L 591.464355 139.7955 
L 592.261782 141.297 
L 591.939299 144.3 
L 593.317222 145.8015 
L 593.446215 147.303 
L 594.243642 148.8045 
L 596.202035 150.306 
L 596.202035 151.8075 
L 599.432799 153.309 
L 600.371007 154.8105 
L 600.371007 156.312 
L 602.505302 157.8135 
L 605.231827 159.315 
L 607.500969 160.8165 
L 607.500969 162.318 
L 609.635264 163.8195 
L 613.411349 165.321 
L 614.349557 166.8225 
L 617.058468 168.324 
L 620.336141 169.8255 
L 623.426178 172.8285 
L 626.117528 174.33 
L 629.289676 175.8315 
L 631.183598 177.333 
L 635.663293 178.8345 
L 639.216513 180.336 
L 639.216513 181.8375 
L 646.416879 183.339 
L 650.409975 184.8405 
L 657.73348 186.342 
L 657.73348 187.8435 
L 659.973247 189.345 
L 663.180623 190.8465 
L 665.508408 193.8495 
L 667.244016 195.351 
L 667.859661 196.8525 
L 669.776998 198.354 
L 672.697013 199.8555 
L 673.031257 201.357 
L 674.807894 202.8585 
L 678.325992 204.36 
L 679.111659 205.8615 
L 681.867506 207.363 
L 682.530139 208.8645 
L 682.940587 210.366 
L 685.649498 211.8675 
L 686.693204 214.8705 
L 689.085485 216.372 
L 689.554523 217.8735 
L 690.475089 219.375 
L 693.488923 220.8765 
L 693.963867 222.378 
L 694.632354 223.8795 
L 697.030489 225.381 
L 697.493726 226.8825 
L 698.578461 228.384 
L 700.683488 229.8855 
L 700.683488 231.387 
L 704.283644 232.8885 
L 704.79371 234.39 
L 704.79371 235.8915 
L 706.963233 237.393 
L 707.438177 238.8945 
L 707.438177 240.396 
L 710.457864 241.8975 
L 711.478103 244.9005 
L 713.606544 246.402 
L 714.05802 247.9035 
L 714.333621 249.405 
L 716.262719 250.9065 
L 716.262719 252.408 
L 717.353308 253.9095 
L 718.086238 255.411 
L 718.086238 256.9125 
L 718.52606 258.414 
L 718.338424 259.9155 
L 718.338424 261.417 
L 717.048439 262.9185 
L 716.972182 265.9215 
L 716.702488 267.423 
L 716.99565 268.9245 
L 716.99565 270.426 
L 716.503091 271.9275 
L 716.268573 277.9335 
L 715.828804 279.435 
L 715.541496 280.9365 
L 715.541496 282.438 
L 715.254188 283.9395 
L 715.16037 286.9425 
L 714.175306 288.444 
L 713.911466 289.9455 
L 713.911466 291.447 
L 713.559662 292.9485 
L 713.389586 294.45 
L 713.389586 295.9515 
L 713.196097 298.9545 
L 713.196097 300.456 
L 712.41043 301.9575 
L 711.782972 307.9635 
L 711.41946 309.465 
L 711.231824 312.468 
L 711.525038 313.9695 
L 710.5106 315.471 
L 710.199878 316.9725 
L 709.496269 318.474 
L 709.179586 319.9755 
L 709.097528 321.477 
L 708.311862 322.9785 
L 708.00694 324.48 
L 707.385388 325.9815 
L 706.95738 327.483 
L 706.863562 328.9845 
L 706.200981 331.9875 
L 705.608751 336.492 
L 705.421168 337.9935 
L 705.374233 339.495 
L 704.975492 342.498 
L 705.110393 343.9995 
L 705.05175 347.0025 
L 704.823085 348.504 
L 704.993053 350.0055 
L 704.641302 351.507 
L 704.647156 354.51 
L 704.348141 356.0115 
L 704.318766 363.519 
L 704.670624 365.0205 
L 704.817178 366.522 
L 704.846552 368.0235 
L 706.013345 369.525 
L 706.159953 371.0265 
L 707.338506 372.528 
L 707.338506 374.0295 
L 707.567171 375.531 
L 708.223897 377.0325 
L 708.223897 378.534 
L 708.493591 380.0355 
L 709.285165 381.537 
L 709.285165 383.0385 
L 709.695612 384.54 
L 711.343256 386.0415 
L 711.343256 387.543 
L 713.002607 390.546 
L 713.002607 392.0475 
L 713.805941 393.549 
L 715.336299 395.0505 
L 715.336299 396.552 
L 716.643845 398.0535 
L 716.743517 401.0565 
L 718.092145 402.558 
L 718.39116 405.561 
L 719.065448 407.0625 
L 719.616596 411.567 
L 719.616596 413.0685 
L 719.194441 416.0715 
L 719.194441 419.0745 
L 719.70456 420.576 
L 719.70456 422.0775 
L 719.470042 423.579 
L 719.522831 426.582 
L 719.094769 428.0835 
L 719.458281 437.0925 
L 719.311727 438.594 
L 719.323488 443.0985 
L 719.194441 444.6 
L 719.194441 446.1015 
L 719.399692 447.603 
L 718.684322 449.1045 
L 718.655 452.1075 
L 717.576119 453.609 
L 717.576119 455.1105 
L 717.112935 456.612 
L 717.118789 459.615 
L 716.837335 461.1165 
L 716.755224 464.1195 
L 716.937007 465.621 
L 716.385859 467.1225 
L 716.41518 468.624 
L 716.60867 471.627 
L 717.048439 473.1285 
L 716.467916 474.63 
L 717.218461 476.1315 
L 717.206754 477.633 
L 716.356484 479.1345 
L 716.22169 480.636 
L 716.145486 485.1405 
L 715.817096 486.642 
L 716.051615 488.1435 
L 715.735039 489.645 
L 715.172077 491.1465 
L 714.919944 492.648 
L 714.878915 495.651 
L 714.445053 498.654 
L 713.893852 500.1555 
L 713.841116 501.657 
L 713.647573 503.1585 
L 712.955724 504.66 
L 712.53357 507.663 
L 713.852823 509.1645 
L 713.348558 510.666 
L 713.348558 512.1675 
L 712.252062 515.1705 
L 708.798513 516.672 
L 708.86301 519.675 
L 707.95415 521.1765 
L 708.20043 522.678 
L 708.118319 524.1795 
L 707.895507 525.681 
L 708.241458 527.1825 
L 708.241458 528.684 
L 710.410929 530.1855 
L 710.780347 531.687 
L 710.780347 533.1885 
L 710.293696 534.69 
L 709.45524 536.1915 
L 709.45524 537.693 
L 708.54638 539.1945 
L 708.012793 540.696 
L 708.411534 542.1975 
L 708.188722 543.699 
L 706.83424 545.2005 
L 705.702569 546.702 
L 705.286268 548.2035 
L 705.127954 549.705 
L 703.978722 551.2065 
L 703.222323 554.2095 
L 704.013897 555.711 
L 703.321995 557.2125 
L 703.269206 558.714 
L 702.389721 560.2155 
L 702.95263 561.717 
L 704.101861 563.2185 
L 704.447812 567.723 
L 703.691414 569.2245 
L 703.662092 570.726 
L 703.767618 572.2275 
L 704.289498 573.729 
L 704.283644 576.732 
L 704.565045 578.2335 
L 704.682384 579.735 
L 707.068759 581.2365 
L 707.971765 582.738 
L 708.130026 584.2395 
L 713.354465 585.741 
L 715.570817 587.2425 
L 716.426887 588.744 
L 716.28028 590.2455 
L 715.37142 591.747 
L 716.491384 593.2485 
L 715.998879 594.75 
L 715.183838 596.2515 
L 715.060698 597.753 
L 713.759005 599.2545 
L 711.777171 600.756 
L 712.128976 602.2575 
L 711.865082 603.759 
L 712.293144 605.2605 
L 712.175858 606.762 
L 712.175858 608.2635 
L 713.524433 609.765 
L 712.738767 611.2665 
L 712.738767 612.768 
L 713.125746 614.2695 
L 713.125746 617.2725 
L 714.022845 618.774 
L 714.022845 621.777 
L 718.995098 623.2785 
L 718.995098 624.78 
L 718.995098 624.78 
" clip-path="url(#p22c7885d9a)" style="fill: none; stroke: #00d9ff; stroke-width: 1.5; stroke-linecap: square"/>
   </g>
   <g id="line2d_19">
    <path d="M 992.256868 109.7655 
L 992.256868 112.7685 
L 985.301505 114.27 
L 985.301505 115.7715 
L 966.02319 117.273 
L 969.020633 118.7745 
L 968.106665 120.276 
L 969.136802 121.7775 
L 971.11193 123.279 
L 971.646316 124.7805 
L 971.925216 126.282 
L 971.166157 127.7835 
L 970.732401 130.7865 
L 970.329616 132.288 
L 970.066255 133.7895 
L 969.578327 135.291 
L 969.330451 136.7925 
L 969.376961 138.294 
L 967.727135 139.7955 
L 968.106665 141.297 
L 967.696164 142.7985 
L 967.672909 145.8015 
L 967.301202 147.303 
L 967.665193 148.8045 
L 967.417371 150.306 
L 967.657477 151.8075 
L 967.773645 153.309 
L 967.734958 154.8105 
L 970.244419 156.312 
L 970.252188 157.8135 
L 970.546521 159.315 
L 970.329616 160.8165 
L 971.096392 162.318 
L 970.724632 163.8195 
L 970.910512 165.321 
L 971.963903 166.8225 
L 971.739282 169.8255 
L 971.909677 171.327 
L 972.343433 172.8285 
L 972.42863 174.33 
L 972.668736 175.8315 
L 973.327112 177.333 
L 973.977719 181.8375 
L 974.829692 183.339 
L 975.031111 184.8405 
L 974.783235 186.342 
L 976.378781 187.8435 
L 976.487234 189.345 
L 976.758311 190.8465 
L 977.625769 193.8495 
L 977.587082 195.351 
L 978.516535 196.8525 
L 978.733387 198.354 
L 979.608614 199.8555 
L 980.212764 201.357 
L 979.779009 202.8585 
L 980.328986 204.36 
L 980.406361 207.363 
L 979.794547 208.8645 
L 978.160261 210.366 
L 976.897734 211.8675 
L 976.820306 213.369 
L 976.254897 214.8705 
L 975.565496 216.372 
L 974.457932 217.8735 
L 975.59652 219.375 
L 974.969115 220.8765 
L 972.413144 222.378 
L 972.924328 223.8795 
L 970.87954 226.8825 
L 970.69366 228.384 
L 971.25907 229.8855 
L 968.989662 231.387 
L 969.25297 232.8885 
L 967.773645 234.39 
L 966.642773 235.8915 
L 966.844192 237.393 
L 964.985284 238.8945 
L 965.488752 240.396 
L 965.287386 241.8975 
L 964.582553 243.399 
L 964.528327 244.9005 
L 964.001605 246.402 
L 963.002493 247.9035 
L 963.002493 250.9065 
L 961.050619 252.408 
L 961.159071 253.9095 
L 959.369875 255.411 
L 959.183942 256.9125 
L 958.618532 258.414 
L 957.844041 259.9155 
L 957.859473 261.417 
L 956.26398 262.9185 
L 954.428275 264.42 
L 953.769898 265.9215 
L 953.258715 267.423 
L 942.980552 268.9245 
L 942.585536 270.426 
L 940.974505 271.9275 
L 937.798898 273.429 
L 935.142191 274.9305 
L 929.859855 276.432 
L 926.823671 277.9335 
L 924.577465 279.435 
L 921.130728 280.9365 
L 910.209727 282.438 
L 909.17959 283.9395 
L 906.383513 285.441 
L 897.135487 286.9425 
L 893.595836 288.444 
L 890.939129 289.9455 
L 882.744494 291.447 
L 869.182325 292.9485 
L 866.579844 294.45 
L 857.324101 297.453 
L 849.687106 298.9545 
L 840.524277 301.9575 
L 832.569748 303.459 
L 823.794164 304.9605 
L 820.76575 306.462 
L 816.048717 307.9635 
L 809.403171 309.465 
L 806.932397 310.9665 
L 801.657777 312.468 
L 798.82296 313.9695 
L 795.306564 315.471 
L 787.251352 318.474 
L 785.733234 319.9755 
L 779.877665 321.477 
L 776.841482 322.9785 
L 775.021315 324.48 
L 769.653728 325.9815 
L 765.811975 327.483 
L 763.395481 328.9845 
L 759.429791 330.486 
L 751.847022 333.489 
L 749.616355 334.9905 
L 742.645505 337.9935 
L 737.703905 339.495 
L 736.123844 340.9965 
L 732.475741 342.498 
L 727.371515 343.9995 
L 723.080522 347.0025 
L 718.704437 348.504 
L 716.024475 350.0055 
L 708.542443 353.0085 
L 705.49072 354.51 
L 701.439886 356.0115 
L 698.132572 357.513 
L 694.469037 359.0145 
L 691.696161 360.516 
L 688.288165 362.0175 
L 686.398286 363.519 
L 684.299273 365.0205 
L 683.106511 366.522 
L 678.281132 369.525 
L 677.452361 371.0265 
L 673.579638 374.0295 
L 670.241353 375.531 
L 669.908333 377.0325 
L 667.607901 378.534 
L 664.378068 380.0355 
L 658.692947 384.54 
L 656.229943 386.0415 
L 654.71954 387.543 
L 651.613645 389.0445 
L 650.118782 390.546 
L 644.348464 393.549 
L 643.085937 395.0505 
L 640.227918 396.552 
L 636.494564 398.0535 
L 635.929208 399.555 
L 632.691606 401.0565 
L 627.943655 404.0595 
L 626.75084 405.561 
L 625.263799 407.0625 
L 622.397957 408.564 
L 621.631182 410.0655 
L 620.693959 411.567 
L 620.043352 413.0685 
L 618.370325 414.57 
L 615.938291 417.573 
L 611.686038 419.0745 
L 608.208383 420.576 
L 603.266782 422.0775 
L 597.496464 423.579 
L 590.711468 425.0805 
L 585.746666 426.582 
L 583.376549 428.0835 
L 580.518503 429.585 
L 578.342035 431.0865 
L 573.075157 434.0895 
L 572.099247 435.591 
L 569.589732 437.0925 
L 565.833204 440.0955 
L 564.640416 441.597 
L 560.086114 443.0985 
L 559.598159 444.6 
L 557.073132 446.1015 
L 553.920781 447.603 
L 551.883709 449.1045 
L 550.133254 450.606 
L 547.251953 452.1075 
L 545.671893 453.609 
L 542.147728 456.612 
L 539.591757 458.1135 
L 537.0745 461.1165 
L 532.605369 464.1195 
L 531.404838 465.621 
L 528.972778 467.1225 
L 526.943476 468.624 
L 524.364277 471.627 
L 522.458886 473.1285 
L 521.529432 474.63 
L 519.352991 476.1315 
L 518.803067 477.633 
L 515.929509 479.1345 
L 513.799524 480.636 
L 513.156633 482.1375 
L 509.771918 483.639 
L 507.97498 485.1405 
L 507.293375 486.642 
L 503.420678 488.1435 
L 502.351801 489.645 
L 499.075485 491.1465 
L 497.356028 492.648 
L 494.668349 494.1495 
L 491.686366 495.651 
L 490.191502 497.1525 
L 484.707773 500.1555 
L 480.509746 503.1585 
L 477.411568 504.66 
L 475.839276 506.1615 
L 469.224675 509.1645 
L 467.110176 510.666 
L 465.42169 512.1675 
L 462.28477 513.669 
L 459.968906 515.1705 
L 458.683151 516.672 
L 455.933557 518.1735 
L 453.88877 519.675 
L 452.269969 521.1765 
L 450.930014 522.678 
L 448.482442 524.1795 
L 444.578774 527.1825 
L 443.432443 528.684 
L 439.993475 530.1855 
L 439.26544 531.687 
L 437.607898 533.1885 
L 435.493399 534.69 
L 433.626749 536.1915 
L 432.263566 537.693 
L 429.854762 539.1945 
L 427.879686 540.696 
L 425.517311 542.1975 
L 424.154128 543.699 
L 422.086113 545.2005 
L 420.606735 546.702 
L 419.390692 548.2035 
L 417.438844 549.705 
L 414.580798 552.708 
L 412.412073 554.2095 
L 406.533303 558.714 
L 404.960985 560.2155 
L 404.00056 561.717 
L 402.26559 563.2185 
L 402.358531 564.72 
L 400.716501 566.2215 
L 399.910985 567.723 
L 399.399802 569.2245 
L 398.516805 570.726 
L 397.904938 572.2275 
L 396.688895 573.729 
L 396.921232 575.2305 
L 395.581304 576.732 
L 395.589034 578.2335 
L 394.450472 579.735 
L 394.768032 581.2365 
L 393.892805 582.738 
L 393.521005 584.2395 
L 392.947852 585.741 
L 392.150092 587.2425 
L 391.584669 588.744 
L 390.670715 590.2455 
L 389.400459 591.747 
L 388.370309 593.2485 
L 386.410732 594.75 
L 385.589704 596.2515 
L 384.001901 597.753 
L 382.197233 599.2545 
L 380.772068 600.756 
L 379.912326 602.2575 
L 378.309024 603.759 
L 378.386478 605.2605 
L 376.798675 606.762 
L 375.993145 608.2635 
L 374.358872 609.765 
L 373.41392 611.2665 
L 375.319297 612.768 
L 374.002584 614.2695 
L 375.985403 615.771 
L 376.008644 617.2725 
L 373.351964 618.774 
L 371.63248 620.2755 
L 371.593753 624.78 
L 371.593753 624.78 
" clip-path="url(#p22c7885d9a)" style="fill: none; stroke: #00ffc1; stroke-width: 1.5; stroke-linecap: square"/>
   </g>
   <g id="line2d_20">
    <path d="M 932.970486 139.7955 
L 932.970486 144.3 
L 923.599053 145.8015 
L 931.782939 147.303 
L 931.782939 148.8045 
L 933.624924 150.306 
L 933.552179 151.8075 
L 934.965996 153.309 
L 939.175039 154.8105 
L 940.734239 156.312 
L 940.83125 157.8135 
L 964.736557 159.315 
L 966.231101 160.8165 
L 969.640375 162.318 
L 970.739106 163.8195 
L 970.803762 165.321 
L 971.563087 166.8225 
L 971.385402 169.8255 
L 972.047876 171.327 
L 972.015575 172.8285 
L 972.589126 174.33 
L 972.387175 175.8315 
L 967.580262 177.333 
L 967.951863 178.8345 
L 967.790302 180.336 
L 965.819111 181.8375 
L 965.827146 183.339 
L 964.348726 184.8405 
L 964.372992 186.342 
L 963.540869 187.8435 
L 962.425961 190.8465 
L 961.20606 192.348 
L 960.616331 193.8495 
L 959.259081 195.351 
L 958.725814 196.8525 
L 956.455714 198.354 
L 956.12445 199.8555 
L 956.067936 201.357 
L 952.036578 202.8585 
L 952.812187 204.36 
L 951.947709 205.8615 
L 952.206228 207.363 
L 946.510677 208.8645 
L 946.470287 211.8675 
L 928.640273 213.369 
L 929.593567 214.8705 
L 928.438268 216.372 
L 922.637671 217.8735 
L 922.371063 222.378 
L 908.13615 223.8795 
L 907.934199 225.381 
L 908.273445 226.8825 
L 905.882174 228.384 
L 905.284357 229.8855 
L 907.126289 231.387 
L 905.033874 232.8885 
L 905.623603 234.39 
L 905.106565 235.8915 
L 903.531241 237.393 
L 901.050995 238.8945 
L 899.346358 240.396 
L 898.861622 241.8975 
L 896.79342 243.399 
L 893.79619 244.9005 
L 893.012599 246.402 
L 889.474013 249.405 
L 888.989277 250.9065 
L 887.042299 252.408 
L 885.887054 253.9095 
L 885.596181 255.411 
L 884.691365 256.9125 
L 885.47501 258.414 
L 881.387085 261.417 
L 879.028063 262.9185 
L 878.931158 264.42 
L 878.486759 267.423 
L 876.774087 268.9245 
L 876.063187 270.426 
L 874.293894 271.9275 
L 871.563218 273.429 
L 867.022965 274.9305 
L 867.111781 276.432 
L 865.003189 277.9335 
L 861.820185 279.435 
L 861.173836 280.9365 
L 856.447703 282.438 
L 855.15511 283.9395 
L 851.495353 285.441 
L 851.059096 286.9425 
L 847.140874 289.9455 
L 845.985629 291.447 
L 841.372577 292.9485 
L 840.176942 294.45 
L 838.141042 295.9515 
L 834.626775 297.453 
L 833.495742 298.9545 
L 832.170795 300.456 
L 831.314458 301.9575 
L 825.222988 303.459 
L 824.407042 304.9605 
L 822.403496 306.462 
L 819.026523 307.9635 
L 818.210577 309.465 
L 817.636973 310.9665 
L 813.120933 312.468 
L 812.070628 313.9695 
L 810.398292 315.471 
L 808.208973 316.9725 
L 804.048356 318.474 
L 801.099605 321.477 
L 796.179556 322.9785 
L 794.991957 324.48 
L 793.448934 325.9815 
L 786.662687 327.483 
L 786.291087 328.9845 
L 783.06764 331.9875 
L 778.034509 333.489 
L 774.714104 336.492 
L 768.501463 337.9935 
L 767.887468 339.495 
L 766.263665 340.9965 
L 761.75566 342.498 
L 758.564461 345.501 
L 756.342787 347.0025 
L 751.697435 348.504 
L 751.26932 350.0055 
L 749.451548 351.507 
L 745.743365 353.0085 
L 743.521691 354.51 
L 741.946313 356.0115 
L 737.672561 357.513 
L 734.045212 359.0145 
L 733.66547 360.516 
L 729.068596 362.0175 
L 727.331711 363.519 
L 723.243785 366.522 
L 719.866813 368.0235 
L 715.859722 369.525 
L 715.479979 371.0265 
L 712.135415 372.528 
L 708.289884 374.0295 
L 706.447846 375.531 
L 698.91031 377.0325 
L 697.779278 378.534 
L 695.517213 380.0355 
L 695.282907 381.537 
L 690.508349 383.0385 
L 688.658275 384.54 
L 687.46264 386.0415 
L 682.146725 387.543 
L 680.886433 389.0445 
L 678.640493 390.546 
L 674.358706 392.0475 
L 671.385742 393.549 
L 670.79596 395.0505 
L 669.123624 396.552 
L 664.381314 398.0535 
L 662.579772 399.555 
L 659.057363 401.0565 
L 654.250503 402.558 
L 651.099748 404.0595 
L 650.598888 405.561 
L 643.63485 407.0625 
L 639.999359 410.0655 
L 637.842395 411.567 
L 634.416943 413.0685 
L 631.969052 414.57 
L 631.29849 416.0715 
L 626.128064 417.573 
L 621.248406 420.576 
L 613.775473 422.0775 
L 613.250374 423.579 
L 610.172337 425.0805 
L 609.194777 426.582 
L 604.008174 428.0835 
L 601.463325 429.585 
L 599.47593 431.0865 
L 591.696026 432.588 
L 591.27592 434.0895 
L 586.129681 435.591 
L 582.776975 437.0925 
L 581.573224 438.594 
L 577.315676 440.0955 
L 567.564528 443.0985 
L 566.603119 444.6 
L 560.826734 446.1015 
L 555.623981 447.603 
L 553.054919 449.1045 
L 549.322497 450.606 
L 542.140411 452.1075 
L 538.028273 453.609 
L 537.17191 455.1105 
L 526.200834 456.612 
L 525.821118 458.1135 
L 522.840039 461.1165 
L 519.099528 462.618 
L 514.874308 464.1195 
L 514.026007 465.621 
L 508.475866 467.1225 
L 508.193108 468.624 
L 506.076454 470.1255 
L 501.673469 471.627 
L 499.395227 473.1285 
L 498.37733 474.63 
L 498.078395 476.1315 
L 489.159344 477.633 
L 488.254528 479.1345 
L 486.776082 480.636 
L 478.93961 482.1375 
L 477.396561 483.639 
L 470.012524 485.1405 
L 466.102337 486.642 
L 461.004603 488.1435 
L 459.445376 489.645 
L 458.104278 491.1465 
L 452.174421 492.648 
L 451.108018 494.1495 
L 446.761601 495.651 
L 440.969066 497.1525 
L 438.165725 498.654 
L 437.705229 500.1555 
L 432.954856 501.657 
L 430.393856 503.1585 
L 429.149742 504.66 
L 426.055528 506.1615 
L 422.274627 507.663 
L 419.293521 509.1645 
L 418.348316 510.666 
L 415.351059 512.1675 
L 412.749669 513.669 
L 412.022592 515.1705 
L 404.638502 516.672 
L 403.871008 518.1735 
L 401.245405 519.675 
L 396.188062 521.1765 
L 393.457399 522.678 
L 392.908034 524.1795 
L 392.568722 525.681 
L 384.788804 527.1825 
L 385.015022 528.684 
L 383.480034 530.1855 
L 377.121983 531.687 
L 373.866207 533.1885 
L 372.654381 534.69 
L 367.823242 536.1915 
L 363.824199 537.693 
L 364.317024 539.1945 
L 362.168054 540.696 
L 357.61966 542.1975 
L 354.468904 543.699 
L 354.396199 545.2005 
L 351.560517 546.702 
L 349.435787 548.2035 
L 348.345145 549.705 
L 345.614509 551.2065 
L 343.465527 552.708 
L 340.985321 554.2095 
L 340.678337 555.711 
L 337.85073 557.2125 
L 334.344511 558.714 
L 332.841852 560.2155 
L 323.543098 561.717 
L 324.375235 563.2185 
L 322.048514 564.72 
L 318.946251 566.2215 
L 317.782891 567.723 
L 316.021699 569.2245 
L 314.874503 570.726 
L 312.507406 572.2275 
L 310.746214 573.729 
L 307.991339 575.2305 
L 306.690631 576.732 
L 306.763349 578.2335 
L 303.402541 579.735 
L 303.32176 581.2365 
L 305.51112 582.738 
L 306.666404 584.2395 
L 302.546204 585.741 
L 292.940453 587.2425 
L 293.045473 588.744 
L 294.717808 590.2455 
L 291.833647 591.747 
L 291.56704 593.2485 
L 292.706161 594.75 
L 297.715038 596.2515 
L 291.720552 597.753 
L 292.132569 599.2545 
L 287.414525 600.756 
L 287.155993 602.2575 
L 289.272661 603.759 
L 288.448613 605.2605 
L 282.284457 606.762 
L 282.025931 608.2635 
L 280.636374 609.765 
L 262.160063 611.2665 
L 263.299178 612.768 
L 262.240857 614.2695 
L 256.642217 615.771 
L 256.173646 617.2725 
L 256.521033 618.774 
L 259.138581 620.2755 
L 262.475136 621.777 
L 259.986861 623.2785 
L 261.51376 624.78 
L 261.51376 624.78 
" clip-path="url(#p22c7885d9a)" style="fill: none; stroke: #00ff5c; stroke-width: 1.5; stroke-linecap: square"/>
   </g>
   <g id="line2d_21">
    <path d="M 0 0 
" clip-path="url(#p22c7885d9a)" style="fill: none; stroke: #08ff00; stroke-width: 1.5; stroke-linecap: square"/>
   </g>
   <g id="patch_3">
    <path d="M 172.8 624.78 
L 172.8 84.24 
" style="fill: none; stroke: #000000; stroke-width: 0.8; stroke-linejoin: miter; stroke-linecap: square"/>
   </g>
   <g id="patch_4">
    <path d="M 1244.16 624.78 
L 1244.16 84.24 
" style="fill: none; stroke: #000000; stroke-width: 0.8; stroke-linejoin: miter; stroke-linecap: square"/>
   </g>
   <g id="patch_5">
    <path d="M 172.8 624.78 
L 1244.16 624.78 
" style="fill: none; stroke: #000000; stroke-width: 0.8; stroke-linejoin: miter; stroke-linecap: square"/>
   </g>
   <g id="patch_6">
    <path d="M 172.8 84.24 
L 1244.16 84.24 
" style="fill: none; stroke: #000000; stroke-width: 0.8; stroke-linejoin: miter; stroke-linecap: square"/>
   </g>
   <g id="legend_1">
    <g id="line2d_22">
     <path d="M 1034.8335 103.17825 
L 1049.2335 103.17825 
L 1063.6335 103.17825 
" style="fill: none; stroke: #b900ff; stroke-width: 1.5; stroke-linecap: square"/>
    </g>
    <g id="text_16">
     <!-- Ta at 0.35054µm -->
     <g transform="translate(1075.1535 108.21825)scale(0.144 -0.144)">
      <defs>
       <path id="DejaVuSansMono-54" d="M 147 4666 
L 3706 4666 
L 3706 4134 
L 2247 4134 
L 2247 0 
L 1613 0 
L 1613 4134 
L 147 4134 
L 147 4666 
z
" transform="scale(0.015625)"/>
       <path id="DejaVuSansMono-20" transform="scale(0.015625)"/>
       <path id="DejaVuSansMono-b5" d="M 609 -1338 
L 609 3500 
L 1184 3500 
L 1184 1325 
Q 1184 881 1371 645 
Q 1559 409 1906 409 
Q 2303 409 2504 675 
Q 2706 941 2706 1459 
L 2706 3500 
L 3284 3500 
L 3284 800 
Q 3284 616 3334 528 
Q 3384 441 3488 441 
Q 3516 441 3561 456 
Q 3606 472 3694 513 
L 3694 50 
Q 3575 -22 3469 -56 
Q 3363 -91 3256 -91 
Q 3063 -91 2945 32 
Q 2828 156 2791 403 
Q 2647 153 2439 31 
Q 2231 -91 1953 -91 
Q 1666 -91 1467 28 
Q 1269 147 1131 397 
L 1131 -1338 
L 609 -1338 
z
" transform="scale(0.015625)"/>
       <path id="DejaVuSansMono-6d" d="M 2113 3144 
Q 2219 3369 2383 3476 
Q 2547 3584 2778 3584 
Q 3200 3584 3373 3257 
Q 3547 2931 3547 2028 
L 3547 0 
L 3022 0 
L 3022 2003 
Q 3022 2744 2939 2923 
Q 2856 3103 2638 3103 
Q 2388 3103 2295 2911 
Q 2203 2719 2203 2003 
L 2203 0 
L 1678 0 
L 1678 2003 
Q 1678 2753 1589 2928 
Q 1500 3103 1269 3103 
Q 1041 3103 952 2911 
Q 863 2719 863 2003 
L 863 0 
L 341 0 
L 341 3500 
L 863 3500 
L 863 3200 
Q 966 3388 1120 3486 
Q 1275 3584 1472 3584 
Q 1709 3584 1867 3475 
Q 2025 3366 2113 3144 
z
" transform="scale(0.015625)"/>
      </defs>
      <use xlink:href="#DejaVuSansMono-54"/>
      <use xlink:href="#DejaVuSansMono-61" x="60.205078"/>
      <use xlink:href="#DejaVuSansMono-20" x="120.410156"/>
      <use xlink:href="#DejaVuSansMono-61" x="180.615234"/>
      <use xlink:href="#DejaVuSansMono-74" x="240.820312"/>
      <use xlink:href="#DejaVuSansMono-20" x="301.025391"/>
      <use xlink:href="#DejaVuSansMono-30" x="361.230469"/>
      <use xlink:href="#DejaVuSansMono-2e" x="421.435547"/>
      <use xlink:href="#DejaVuSansMono-33" x="481.640625"/>
      <use xlink:href="#DejaVuSansMono-35" x="541.845703"/>
      <use xlink:href="#DejaVuSansMono-30" x="602.050781"/>
      <use xlink:href="#DejaVuSansMono-35" x="662.255859"/>
      <use xlink:href="#DejaVuSansMono-34" x="722.460938"/>
      <use xlink:href="#DejaVuSansMono-b5" x="782.666016"/>
      <use xlink:href="#DejaVuSansMono-6d" x="842.871094"/>
     </g>
    </g>
    <g id="line2d_23">
     <path d="M 1034.8335 124.407 
L 1049.2335 124.407 
L 1063.6335 124.407 
" style="fill: none; stroke: #5400ff; stroke-width: 1.5; stroke-linecap: square"/>
    </g>
    <g id="text_17">
     <!-- T8 at 0.35054µm -->
     <g transform="translate(1075.1535 129.447)scale(0.144 -0.144)">
      <defs>
       <path id="DejaVuSansMono-38" d="M 1925 2216 
Q 1503 2216 1273 1980 
Q 1044 1744 1044 1313 
Q 1044 881 1276 642 
Q 1509 403 1925 403 
Q 2350 403 2579 639 
Q 2809 875 2809 1313 
Q 2809 1741 2576 1978 
Q 2344 2216 1925 2216 
z
M 1375 2478 
Q 972 2581 745 2862 
Q 519 3144 519 3541 
Q 519 4097 897 4423 
Q 1275 4750 1925 4750 
Q 2578 4750 2956 4423 
Q 3334 4097 3334 3541 
Q 3334 3144 3107 2862 
Q 2881 2581 2478 2478 
Q 2947 2375 3195 2062 
Q 3444 1750 3444 1253 
Q 3444 622 3041 265 
Q 2638 -91 1925 -91 
Q 1213 -91 811 264 
Q 409 619 409 1247 
Q 409 1747 657 2061 
Q 906 2375 1375 2478 
z
M 1147 3481 
Q 1147 3106 1347 2909 
Q 1547 2713 1925 2713 
Q 2306 2713 2506 2909 
Q 2706 3106 2706 3481 
Q 2706 3863 2507 4063 
Q 2309 4263 1925 4263 
Q 1547 4263 1347 4061 
Q 1147 3859 1147 3481 
z
" transform="scale(0.015625)"/>
      </defs>
      <use xlink:href="#DejaVuSansMono-54"/>
      <use xlink:href="#DejaVuSansMono-38" x="60.205078"/>
      <use xlink:href="#DejaVuSansMono-20" x="120.410156"/>
      <use xlink:href="#DejaVuSansMono-61" x="180.615234"/>
      <use xlink:href="#DejaVuSansMono-74" x="240.820312"/>
      <use xlink:href="#DejaVuSansMono-20" x="301.025391"/>
      <use xlink:href="#DejaVuSansMono-30" x="361.230469"/>
      <use xlink:href="#DejaVuSansMono-2e" x="421.435547"/>
      <use xlink:href="#DejaVuSansMono-33" x="481.640625"/>
      <use xlink:href="#DejaVuSansMono-35" x="541.845703"/>
      <use xlink:href="#DejaVuSansMono-30" x="602.050781"/>
      <use xlink:href="#DejaVuSansMono-35" x="662.255859"/>
      <use xlink:href="#DejaVuSansMono-34" x="722.460938"/>
      <use xlink:href="#DejaVuSansMono-b5" x="782.666016"/>
      <use xlink:href="#DejaVuSansMono-6d" x="842.871094"/>
     </g>
    </g>
    <g id="line2d_24">
     <path d="M 1034.8335 145.63575 
L 1049.2335 145.63575 
L 1063.6335 145.63575 
" style="fill: none; stroke: #0010ff; stroke-width: 1.5; stroke-linecap: square"/>
    </g>
    <g id="text_18">
     <!-- T31 at 0.35054µm -->
     <g transform="translate(1075.1535 150.67575)scale(0.144 -0.144)">
      <use xlink:href="#DejaVuSansMono-54"/>
      <use xlink:href="#DejaVuSansMono-33" x="60.205078"/>
      <use xlink:href="#DejaVuSansMono-31" x="120.410156"/>
      <use xlink:href="#DejaVuSansMono-20" x="180.615234"/>
      <use xlink:href="#DejaVuSansMono-61" x="240.820312"/>
      <use xlink:href="#DejaVuSansMono-74" x="301.025391"/>
      <use xlink:href="#DejaVuSansMono-20" x="361.230469"/>
      <use xlink:href="#DejaVuSansMono-30" x="421.435547"/>
      <use xlink:href="#DejaVuSansMono-2e" x="481.640625"/>
      <use xlink:href="#DejaVuSansMono-33" x="541.845703"/>
      <use xlink:href="#DejaVuSansMono-35" x="602.050781"/>
      <use xlink:href="#DejaVuSansMono-30" x="662.255859"/>
      <use xlink:href="#DejaVuSansMono-35" x="722.460938"/>
      <use xlink:href="#DejaVuSansMono-34" x="782.666016"/>
      <use xlink:href="#DejaVuSansMono-b5" x="842.871094"/>
      <use xlink:href="#DejaVuSansMono-6d" x="903.076172"/>
     </g>
    </g>
    <g id="line2d_25">
     <path d="M 1034.8335 166.8645 
L 1049.2335 166.8645 
L 1063.6335 166.8645 
" style="fill: none; stroke: #0074ff; stroke-width: 1.5; stroke-linecap: square"/>
    </g>
    <g id="text_19">
     <!-- T61 at 0.35054µm -->
     <g transform="translate(1075.1535 171.9045)scale(0.144 -0.144)">
      <use xlink:href="#DejaVuSansMono-54"/>
      <use xlink:href="#DejaVuSansMono-36" x="60.205078"/>
      <use xlink:href="#DejaVuSansMono-31" x="120.410156"/>
      <use xlink:href="#DejaVuSansMono-20" x="180.615234"/>
      <use xlink:href="#DejaVuSansMono-61" x="240.820312"/>
      <use xlink:href="#DejaVuSansMono-74" x="301.025391"/>
      <use xlink:href="#DejaVuSansMono-20" x="361.230469"/>
      <use xlink:href="#DejaVuSansMono-30" x="421.435547"/>
      <use xlink:href="#DejaVuSansMono-2e" x="481.640625"/>
      <use xlink:href="#DejaVuSansMono-33" x="541.845703"/>
      <use xlink:href="#DejaVuSansMono-35" x="602.050781"/>
      <use xlink:href="#DejaVuSansMono-30" x="662.255859"/>
      <use xlink:href="#DejaVuSansMono-35" x="722.460938"/>
      <use xlink:href="#DejaVuSansMono-34" x="782.666016"/>
      <use xlink:href="#DejaVuSansMono-b5" x="842.871094"/>
      <use xlink:href="#DejaVuSansMono-6d" x="903.076172"/>
     </g>
    </g>
    <g id="line2d_26">
     <path d="M 1034.8335 188.09325 
L 1049.2335 188.09325 
L 1063.6335 188.09325 
" style="fill: none; stroke: #00d9ff; stroke-width: 1.5; stroke-linecap: square"/>
    </g>
    <g id="text_20">
     <!-- T67 at 0.35054µm -->
     <g transform="translate(1075.1535 193.13325)scale(0.144 -0.144)">
      <use xlink:href="#DejaVuSansMono-54"/>
      <use xlink:href="#DejaVuSansMono-36" x="60.205078"/>
      <use xlink:href="#DejaVuSansMono-37" x="120.410156"/>
      <use xlink:href="#DejaVuSansMono-20" x="180.615234"/>
      <use xlink:href="#DejaVuSansMono-61" x="240.820312"/>
      <use xlink:href="#DejaVuSansMono-74" x="301.025391"/>
      <use xlink:href="#DejaVuSansMono-20" x="361.230469"/>
      <use xlink:href="#DejaVuSansMono-30" x="421.435547"/>
      <use xlink:href="#DejaVuSansMono-2e" x="481.640625"/>
      <use xlink:href="#DejaVuSansMono-33" x="541.845703"/>
      <use xlink:href="#DejaVuSansMono-35" x="602.050781"/>
      <use xlink:href="#DejaVuSansMono-30" x="662.255859"/>
      <use xlink:href="#DejaVuSansMono-35" x="722.460938"/>
      <use xlink:href="#DejaVuSansMono-34" x="782.666016"/>
      <use xlink:href="#DejaVuSansMono-b5" x="842.871094"/>
      <use xlink:href="#DejaVuSansMono-6d" x="903.076172"/>
     </g>
    </g>
    <g id="line2d_27">
     <path d="M 1034.8335 209.322 
L 1049.2335 209.322 
L 1063.6335 209.322 
" style="fill: none; stroke: #00ffc1; stroke-width: 1.5; stroke-linecap: square"/>
    </g>
    <g id="text_21">
     <!-- T85 at 0.35054µm -->
     <g transform="translate(1075.1535 214.362)scale(0.144 -0.144)">
      <use xlink:href="#DejaVuSansMono-54"/>
      <use xlink:href="#DejaVuSansMono-38" x="60.205078"/>
      <use xlink:href="#DejaVuSansMono-35" x="120.410156"/>
      <use xlink:href="#DejaVuSansMono-20" x="180.615234"/>
      <use xlink:href="#DejaVuSansMono-61" x="240.820312"/>
      <use xlink:href="#DejaVuSansMono-74" x="301.025391"/>
      <use xlink:href="#DejaVuSansMono-20" x="361.230469"/>
      <use xlink:href="#DejaVuSansMono-30" x="421.435547"/>
      <use xlink:href="#DejaVuSansMono-2e" x="481.640625"/>
      <use xlink:href="#DejaVuSansMono-33" x="541.845703"/>
      <use xlink:href="#DejaVuSansMono-35" x="602.050781"/>
      <use xlink:href="#DejaVuSansMono-30" x="662.255859"/>
      <use xlink:href="#DejaVuSansMono-35" x="722.460938"/>
      <use xlink:href="#DejaVuSansMono-34" x="782.666016"/>
      <use xlink:href="#DejaVuSansMono-b5" x="842.871094"/>
      <use xlink:href="#DejaVuSansMono-6d" x="903.076172"/>
     </g>
    </g>
    <g id="line2d_28">
     <path d="M 1034.8335 230.55075 
L 1049.2335 230.55075 
L 1063.6335 230.55075 
" style="fill: none; stroke: #00ff5c; stroke-width: 1.5; stroke-linecap: square"/>
    </g>
    <g id="text_22">
     <!-- T108 at 0.35054µm -->
     <g transform="translate(1075.1535 235.59075)scale(0.144 -0.144)">
      <use xlink:href="#DejaVuSansMono-54"/>
      <use xlink:href="#DejaVuSansMono-31" x="60.205078"/>
      <use xlink:href="#DejaVuSansMono-30" x="120.410156"/>
      <use xlink:href="#DejaVuSansMono-38" x="180.615234"/>
      <use xlink:href="#DejaVuSansMono-20" x="240.820312"/>
      <use xlink:href="#DejaVuSansMono-61" x="301.025391"/>
      <use xlink:href="#DejaVuSansMono-74" x="361.230469"/>
      <use xlink:href="#DejaVuSansMono-20" x="421.435547"/>
      <use xlink:href="#DejaVuSansMono-30" x="481.640625"/>
      <use xlink:href="#DejaVuSansMono-2e" x="541.845703"/>
      <use xlink:href="#DejaVuSansMono-33" x="602.050781"/>
      <use xlink:href="#DejaVuSansMono-35" x="662.255859"/>
      <use xlink:href="#DejaVuSansMono-30" x="722.460938"/>
      <use xlink:href="#DejaVuSansMono-35" x="782.666016"/>
      <use xlink:href="#DejaVuSansMono-34" x="842.871094"/>
      <use xlink:href="#DejaVuSansMono-b5" x="903.076172"/>
      <use xlink:href="#DejaVuSansMono-6d" x="963.28125"/>
     </g>
    </g>
    <g id="line2d_29">
     <path d="M 1034.8335 251.7795 
L 1049.2335 251.7795 
L 1063.6335 251.7795 
" style="fill: none; stroke: #08ff00; stroke-width: 1.5; stroke-linecap: square"/>
    </g>
    <g id="text_23">
     <!-- 278TI at 0.35054µm -->
     <g transform="translate(1075.1535 256.8195)scale(0.144 -0.144)">
      <defs>
       <path id="DejaVuSansMono-32" d="M 1166 531 
L 3309 531 
L 3309 0 
L 475 0 
L 475 531 
Q 1059 1147 1496 1619 
Q 1934 2091 2100 2284 
Q 2413 2666 2522 2902 
Q 2631 3138 2631 3384 
Q 2631 3775 2401 3997 
Q 2172 4219 1772 4219 
Q 1488 4219 1175 4116 
Q 863 4013 513 3803 
L 513 4441 
Q 834 4594 1145 4672 
Q 1456 4750 1759 4750 
Q 2444 4750 2861 4386 
Q 3278 4022 3278 3431 
Q 3278 3131 3139 2831 
Q 3000 2531 2688 2169 
Q 2513 1966 2180 1606 
Q 1847 1247 1166 531 
z
" transform="scale(0.015625)"/>
      </defs>
      <use xlink:href="#DejaVuSansMono-32"/>
      <use xlink:href="#DejaVuSansMono-37" x="60.205078"/>
      <use xlink:href="#DejaVuSansMono-38" x="120.410156"/>
      <use xlink:href="#DejaVuSansMono-54" x="180.615234"/>
      <use xlink:href="#DejaVuSansMono-49" x="240.820312"/>
      <use xlink:href="#DejaVuSansMono-20" x="301.025391"/>
      <use xlink:href="#DejaVuSansMono-61" x="361.230469"/>
      <use xlink:href="#DejaVuSansMono-74" x="421.435547"/>
      <use xlink:href="#DejaVuSansMono-20" x="481.640625"/>
      <use xlink:href="#DejaVuSansMono-30" x="541.845703"/>
      <use xlink:href="#DejaVuSansMono-2e" x="602.050781"/>
      <use xlink:href="#DejaVuSansMono-33" x="662.255859"/>
      <use xlink:href="#DejaVuSansMono-35" x="722.460938"/>
      <use xlink:href="#DejaVuSansMono-30" x="782.666016"/>
      <use xlink:href="#DejaVuSansMono-35" x="842.871094"/>
      <use xlink:href="#DejaVuSansMono-34" x="903.076172"/>
      <use xlink:href="#DejaVuSansMono-b5" x="963.28125"/>
      <use xlink:href="#DejaVuSansMono-6d" x="1023.486328"/>
     </g>
    </g>
   </g>
  </g>
 </g>
 <defs>
  <clipPath id="p22c7885d9a">
   <rect x="172.8" y="84.24" width="1071.36" height="540.54"/>
  </clipPath>
 </defs>
</svg>
