<?xml version="1.0" encoding="utf-8" standalone="no"?>
<!DOCTYPE svg PUBLIC "-//W3C//DTD SVG 1.1//EN"
  "http://www.w3.org/Graphics/SVG/1.1/DTD/svg11.dtd">
<svg xmlns:xlink="http://www.w3.org/1999/xlink" width="1152pt" height="733.68pt" viewBox="0 0 1152 733.68" xmlns="http://www.w3.org/2000/svg" version="1.1">
 <metadata>
  <rdf:RDF xmlns:dc="http://purl.org/dc/elements/1.1/" xmlns:cc="http://creativecommons.org/ns#" xmlns:rdf="http://www.w3.org/1999/02/22-rdf-syntax-ns#">
   <cc:Work>
    <dc:type rdf:resource="http://purl.org/dc/dcmitype/StillImage"/>
    <dc:date>2022-06-23T11:13:26.310972</dc:date>
    <dc:format>image/svg+xml</dc:format>
    <dc:creator>
     <cc:Agent>
      <dc:title>Matplotlib v3.5.1, https://matplotlib.org/</dc:title>
     </cc:Agent>
    </dc:creator>
   </cc:Work>
  </rdf:RDF>
 </metadata>
 <defs>
  <style type="text/css">*{stroke-linejoin: round; stroke-linecap: butt}</style>
 </defs>
 <g id="figure_1">
  <g id="patch_1">
   <path d="M 0 733.68 
L 1152 733.68 
L 1152 0 
L 0 0 
z
" style="fill: #ffffff"/>
  </g>
  <g id="axes_1">
   <g id="patch_2">
    <path d="M 144 652.9752 
L 1036.8 652.9752 
L 1036.8 88.0416 
L 144 88.0416 
z
" style="fill: #ffffff"/>
   </g>
   <g id="matplotlib.axis_1">
    <g id="xtick_1">
     <g id="line2d_1">
      <defs>
       <path id="m5cd0e766aa" d="M 0 0 
L 0 3.5 
" style="stroke: #000000; stroke-width: 0.8"/>
      </defs>
      <g>
       <use xlink:href="#m5cd0e766aa" x="144" y="652.9752" style="stroke: #000000; stroke-width: 0.8"/>
      </g>
     </g>
     <g id="text_1">
      <!-- 0.000 -->
      <g transform="translate(116.908594 673.748012)scale(0.18 -0.18)">
       <defs>
        <path id="DejaVuSansMono-30" d="M 1509 2344 
Q 1509 2516 1629 2641 
Q 1750 2766 1919 2766 
Q 2094 2766 2219 2641 
Q 2344 2516 2344 2344 
Q 2344 2169 2220 2047 
Q 2097 1925 1919 1925 
Q 1744 1925 1626 2044 
Q 1509 2163 1509 2344 
z
M 1925 4250 
Q 1484 4250 1267 3775 
Q 1050 3300 1050 2328 
Q 1050 1359 1267 884 
Q 1484 409 1925 409 
Q 2369 409 2586 884 
Q 2803 1359 2803 2328 
Q 2803 3300 2586 3775 
Q 2369 4250 1925 4250 
z
M 1925 4750 
Q 2672 4750 3055 4137 
Q 3438 3525 3438 2328 
Q 3438 1134 3055 521 
Q 2672 -91 1925 -91 
Q 1178 -91 797 521 
Q 416 1134 416 2328 
Q 416 3525 797 4137 
Q 1178 4750 1925 4750 
z
" transform="scale(0.015625)"/>
        <path id="DejaVuSansMono-2e" d="M 1528 953 
L 2316 953 
L 2316 0 
L 1528 0 
L 1528 953 
z
" transform="scale(0.015625)"/>
       </defs>
       <use xlink:href="#DejaVuSansMono-30"/>
       <use xlink:href="#DejaVuSansMono-2e" x="60.205078"/>
       <use xlink:href="#DejaVuSansMono-30" x="120.410156"/>
       <use xlink:href="#DejaVuSansMono-30" x="180.615234"/>
       <use xlink:href="#DejaVuSansMono-30" x="240.820312"/>
      </g>
     </g>
    </g>
    <g id="xtick_2">
     <g id="line2d_2">
      <g>
       <use xlink:href="#m5cd0e766aa" x="322.56" y="652.9752" style="stroke: #000000; stroke-width: 0.8"/>
      </g>
     </g>
     <g id="text_2">
      <!-- 0.015 -->
      <g transform="translate(295.468594 673.748012)scale(0.18 -0.18)">
       <defs>
        <path id="DejaVuSansMono-31" d="M 844 531 
L 1825 531 
L 1825 4097 
L 769 3859 
L 769 4434 
L 1819 4666 
L 2450 4666 
L 2450 531 
L 3419 531 
L 3419 0 
L 844 0 
L 844 531 
z
" transform="scale(0.015625)"/>
        <path id="DejaVuSansMono-35" d="M 647 4666 
L 3009 4666 
L 3009 4134 
L 1222 4134 
L 1222 2988 
Q 1356 3038 1492 3061 
Q 1628 3084 1766 3084 
Q 2491 3084 2916 2656 
Q 3341 2228 3341 1497 
Q 3341 759 2895 334 
Q 2450 -91 1678 -91 
Q 1306 -91 998 -41 
Q 691 9 447 109 
L 447 750 
Q 734 594 1025 517 
Q 1316 441 1619 441 
Q 2141 441 2423 716 
Q 2706 991 2706 1497 
Q 2706 1997 2414 2275 
Q 2122 2553 1600 2553 
Q 1347 2553 1106 2495 
Q 866 2438 647 2322 
L 647 4666 
z
" transform="scale(0.015625)"/>
       </defs>
       <use xlink:href="#DejaVuSansMono-30"/>
       <use xlink:href="#DejaVuSansMono-2e" x="60.205078"/>
       <use xlink:href="#DejaVuSansMono-30" x="120.410156"/>
       <use xlink:href="#DejaVuSansMono-31" x="180.615234"/>
       <use xlink:href="#DejaVuSansMono-35" x="240.820312"/>
      </g>
     </g>
    </g>
    <g id="xtick_3">
     <g id="line2d_3">
      <g>
       <use xlink:href="#m5cd0e766aa" x="501.12" y="652.9752" style="stroke: #000000; stroke-width: 0.8"/>
      </g>
     </g>
     <g id="text_3">
      <!-- 0.030 -->
      <g transform="translate(474.028594 673.748012)scale(0.18 -0.18)">
       <defs>
        <path id="DejaVuSansMono-33" d="M 2425 2497 
Q 2884 2375 3128 2064 
Q 3372 1753 3372 1288 
Q 3372 644 2939 276 
Q 2506 -91 1741 -91 
Q 1419 -91 1084 -31 
Q 750 28 428 141 
L 428 769 
Q 747 603 1056 522 
Q 1366 441 1672 441 
Q 2191 441 2469 675 
Q 2747 909 2747 1350 
Q 2747 1756 2469 1995 
Q 2191 2234 1716 2234 
L 1234 2234 
L 1234 2753 
L 1716 2753 
Q 2150 2753 2394 2943 
Q 2638 3134 2638 3475 
Q 2638 3834 2411 4026 
Q 2184 4219 1766 4219 
Q 1488 4219 1191 4156 
Q 894 4094 569 3969 
L 569 4550 
Q 947 4650 1242 4700 
Q 1538 4750 1766 4750 
Q 2447 4750 2855 4408 
Q 3263 4066 3263 3500 
Q 3263 3116 3048 2859 
Q 2834 2603 2425 2497 
z
" transform="scale(0.015625)"/>
       </defs>
       <use xlink:href="#DejaVuSansMono-30"/>
       <use xlink:href="#DejaVuSansMono-2e" x="60.205078"/>
       <use xlink:href="#DejaVuSansMono-30" x="120.410156"/>
       <use xlink:href="#DejaVuSansMono-33" x="180.615234"/>
       <use xlink:href="#DejaVuSansMono-30" x="240.820312"/>
      </g>
     </g>
    </g>
    <g id="xtick_4">
     <g id="line2d_4">
      <g>
       <use xlink:href="#m5cd0e766aa" x="679.68" y="652.9752" style="stroke: #000000; stroke-width: 0.8"/>
      </g>
     </g>
     <g id="text_4">
      <!-- 0.045 -->
      <g transform="translate(652.588594 673.748012)scale(0.18 -0.18)">
       <defs>
        <path id="DejaVuSansMono-34" d="M 2297 4091 
L 825 1625 
L 2297 1625 
L 2297 4091 
z
M 2194 4666 
L 2925 4666 
L 2925 1625 
L 3547 1625 
L 3547 1113 
L 2925 1113 
L 2925 0 
L 2297 0 
L 2297 1113 
L 319 1113 
L 319 1709 
L 2194 4666 
z
" transform="scale(0.015625)"/>
       </defs>
       <use xlink:href="#DejaVuSansMono-30"/>
       <use xlink:href="#DejaVuSansMono-2e" x="60.205078"/>
       <use xlink:href="#DejaVuSansMono-30" x="120.410156"/>
       <use xlink:href="#DejaVuSansMono-34" x="180.615234"/>
       <use xlink:href="#DejaVuSansMono-35" x="240.820312"/>
      </g>
     </g>
    </g>
    <g id="xtick_5">
     <g id="line2d_5">
      <g>
       <use xlink:href="#m5cd0e766aa" x="858.24" y="652.9752" style="stroke: #000000; stroke-width: 0.8"/>
      </g>
     </g>
     <g id="text_5">
      <!-- 0.060 -->
      <g transform="translate(831.148594 673.748012)scale(0.18 -0.18)">
       <defs>
        <path id="DejaVuSansMono-36" d="M 3097 4563 
L 3097 3981 
Q 2900 4097 2678 4158 
Q 2456 4219 2216 4219 
Q 1616 4219 1306 3767 
Q 997 3316 997 2438 
Q 1147 2750 1412 2917 
Q 1678 3084 2022 3084 
Q 2697 3084 3067 2670 
Q 3438 2256 3438 1497 
Q 3438 741 3056 325 
Q 2675 -91 1984 -91 
Q 1172 -91 794 492 
Q 416 1075 416 2328 
Q 416 3509 870 4129 
Q 1325 4750 2188 4750 
Q 2419 4750 2650 4701 
Q 2881 4653 3097 4563 
z
M 1972 2591 
Q 1569 2591 1337 2300 
Q 1106 2009 1106 1497 
Q 1106 984 1337 693 
Q 1569 403 1972 403 
Q 2391 403 2603 679 
Q 2816 956 2816 1497 
Q 2816 2041 2603 2316 
Q 2391 2591 1972 2591 
z
" transform="scale(0.015625)"/>
       </defs>
       <use xlink:href="#DejaVuSansMono-30"/>
       <use xlink:href="#DejaVuSansMono-2e" x="60.205078"/>
       <use xlink:href="#DejaVuSansMono-30" x="120.410156"/>
       <use xlink:href="#DejaVuSansMono-36" x="180.615234"/>
       <use xlink:href="#DejaVuSansMono-30" x="240.820312"/>
      </g>
     </g>
    </g>
    <g id="xtick_6">
     <g id="line2d_6">
      <g>
       <use xlink:href="#m5cd0e766aa" x="1036.8" y="652.9752" style="stroke: #000000; stroke-width: 0.8"/>
      </g>
     </g>
     <g id="text_6">
      <!-- 0.075 -->
      <g transform="translate(1009.708594 673.748012)scale(0.18 -0.18)">
       <defs>
        <path id="DejaVuSansMono-37" d="M 434 4666 
L 3372 4666 
L 3372 4397 
L 1703 0 
L 1044 0 
L 2669 4134 
L 434 4134 
L 434 4666 
z
" transform="scale(0.015625)"/>
       </defs>
       <use xlink:href="#DejaVuSansMono-30"/>
       <use xlink:href="#DejaVuSansMono-2e" x="60.205078"/>
       <use xlink:href="#DejaVuSansMono-30" x="120.410156"/>
       <use xlink:href="#DejaVuSansMono-37" x="180.615234"/>
       <use xlink:href="#DejaVuSansMono-35" x="240.820312"/>
      </g>
     </g>
    </g>
    <g id="text_7">
     <!-- I/F -->
     <g transform="translate(568.726875 699.8552)scale(0.24 -0.24)">
      <defs>
       <path id="DejaVuSansMono-49" d="M 628 4666 
L 3219 4666 
L 3219 4134 
L 2241 4134 
L 2241 531 
L 3219 531 
L 3219 0 
L 628 0 
L 628 531 
L 1606 531 
L 1606 4134 
L 628 4134 
L 628 4666 
z
" transform="scale(0.015625)"/>
       <path id="DejaVuSansMono-2f" d="M 2778 4666 
L 3372 4666 
L 916 -594 
L 319 -594 
L 2778 4666 
z
" transform="scale(0.015625)"/>
       <path id="DejaVuSansMono-46" d="M 728 4666 
L 3475 4666 
L 3475 4134 
L 1363 4134 
L 1363 2759 
L 3278 2759 
L 3278 2228 
L 1363 2228 
L 1363 0 
L 728 0 
L 728 4666 
z
" transform="scale(0.015625)"/>
      </defs>
      <use xlink:href="#DejaVuSansMono-49"/>
      <use xlink:href="#DejaVuSansMono-2f" x="60.205078"/>
      <use xlink:href="#DejaVuSansMono-46" x="120.410156"/>
     </g>
    </g>
   </g>
   <g id="matplotlib.axis_2">
    <g id="ytick_1">
     <g id="line2d_7">
      <defs>
       <path id="m70b9e789f4" d="M 0 0 
L -3.5 0 
" style="stroke: #000000; stroke-width: 0.8"/>
      </defs>
      <g>
       <use xlink:href="#m70b9e789f4" x="144" y="652.9752" style="stroke: #000000; stroke-width: 0.8"/>
      </g>
     </g>
     <g id="text_8">
      <!-- 90°S -->
      <g transform="translate(93.65375 659.861606)scale(0.18 -0.18)">
       <defs>
        <path id="DejaVuSansMono-39" d="M 1863 2069 
Q 2266 2069 2495 2359 
Q 2725 2650 2725 3163 
Q 2725 3675 2495 3965 
Q 2266 4256 1863 4256 
Q 1444 4256 1231 3979 
Q 1019 3703 1019 3163 
Q 1019 2619 1230 2344 
Q 1441 2069 1863 2069 
z
M 738 97 
L 738 678 
Q 934 563 1156 502 
Q 1378 441 1619 441 
Q 2219 441 2526 892 
Q 2834 1344 2834 2222 
Q 2688 1909 2422 1742 
Q 2156 1575 1813 1575 
Q 1138 1575 767 1990 
Q 397 2406 397 3169 
Q 397 3922 776 4336 
Q 1156 4750 1850 4750 
Q 2663 4750 3041 4165 
Q 3419 3581 3419 2328 
Q 3419 1150 2964 529 
Q 2509 -91 1644 -91 
Q 1416 -91 1184 -42 
Q 953 6 738 97 
z
" transform="scale(0.015625)"/>
        <path id="DejaVuSansMono-b0" d="M 1925 4750 
Q 2128 4750 2311 4673 
Q 2494 4597 2631 4453 
Q 2772 4313 2845 4134 
Q 2919 3956 2919 3750 
Q 2919 3338 2628 3052 
Q 2338 2766 1919 2766 
Q 1497 2766 1215 3047 
Q 934 3328 934 3750 
Q 934 4169 1221 4459 
Q 1509 4750 1925 4750 
z
M 1925 4347 
Q 1678 4347 1504 4173 
Q 1331 4000 1331 3750 
Q 1331 3500 1501 3331 
Q 1672 3163 1919 3163 
Q 2169 3163 2345 3334 
Q 2522 3506 2522 3750 
Q 2522 3997 2347 4172 
Q 2172 4347 1925 4347 
z
" transform="scale(0.015625)"/>
        <path id="DejaVuSansMono-53" d="M 3163 4506 
L 3163 3866 
Q 2875 4050 2586 4144 
Q 2297 4238 2003 4238 
Q 1556 4238 1297 4030 
Q 1038 3822 1038 3469 
Q 1038 3159 1208 2996 
Q 1378 2834 1844 2725 
L 2175 2650 
Q 2831 2497 3131 2169 
Q 3431 1841 3431 1275 
Q 3431 609 3018 259 
Q 2606 -91 1819 -91 
Q 1491 -91 1159 -20 
Q 828 50 494 191 
L 494 863 
Q 853 634 1173 528 
Q 1494 422 1819 422 
Q 2297 422 2562 636 
Q 2828 850 2828 1234 
Q 2828 1584 2645 1768 
Q 2463 1953 2009 2053 
L 1672 2131 
Q 1022 2278 728 2575 
Q 434 2872 434 3372 
Q 434 3997 854 4373 
Q 1275 4750 1972 4750 
Q 2241 4750 2537 4689 
Q 2834 4628 3163 4506 
z
" transform="scale(0.015625)"/>
       </defs>
       <use xlink:href="#DejaVuSansMono-39"/>
       <use xlink:href="#DejaVuSansMono-30" x="60.205078"/>
       <use xlink:href="#DejaVuSansMono-b0" x="120.410156"/>
       <use xlink:href="#DejaVuSansMono-53" x="180.615234"/>
      </g>
     </g>
    </g>
    <g id="ytick_2">
     <g id="line2d_8">
      <g>
       <use xlink:href="#m70b9e789f4" x="144" y="558.8196" style="stroke: #000000; stroke-width: 0.8"/>
      </g>
     </g>
     <g id="text_9">
      <!-- 60°S -->
      <g transform="translate(93.65375 565.706006)scale(0.18 -0.18)">
       <use xlink:href="#DejaVuSansMono-36"/>
       <use xlink:href="#DejaVuSansMono-30" x="60.205078"/>
       <use xlink:href="#DejaVuSansMono-b0" x="120.410156"/>
       <use xlink:href="#DejaVuSansMono-53" x="180.615234"/>
      </g>
     </g>
    </g>
    <g id="ytick_3">
     <g id="line2d_9">
      <g>
       <use xlink:href="#m70b9e789f4" x="144" y="464.664" style="stroke: #000000; stroke-width: 0.8"/>
      </g>
     </g>
     <g id="text_10">
      <!-- 30°S -->
      <g transform="translate(93.65375 471.550406)scale(0.18 -0.18)">
       <use xlink:href="#DejaVuSansMono-33"/>
       <use xlink:href="#DejaVuSansMono-30" x="60.205078"/>
       <use xlink:href="#DejaVuSansMono-b0" x="120.410156"/>
       <use xlink:href="#DejaVuSansMono-53" x="180.615234"/>
      </g>
     </g>
    </g>
    <g id="ytick_4">
     <g id="line2d_10">
      <g>
       <use xlink:href="#m70b9e789f4" x="144" y="370.5084" style="stroke: #000000; stroke-width: 0.8"/>
      </g>
     </g>
     <g id="text_11">
      <!-- 0° -->
      <g transform="translate(115.326875 377.394806)scale(0.18 -0.18)">
       <use xlink:href="#DejaVuSansMono-30"/>
       <use xlink:href="#DejaVuSansMono-b0" x="60.205078"/>
      </g>
     </g>
    </g>
    <g id="ytick_5">
     <g id="line2d_11">
      <g>
       <use xlink:href="#m70b9e789f4" x="144" y="276.3528" style="stroke: #000000; stroke-width: 0.8"/>
      </g>
     </g>
     <g id="text_12">
      <!-- 30°N -->
      <g transform="translate(93.65375 283.239206)scale(0.18 -0.18)">
       <defs>
        <path id="DejaVuSansMono-4e" d="M 434 4666 
L 1234 4666 
L 2809 825 
L 2809 4666 
L 3419 4666 
L 3419 0 
L 2619 0 
L 1044 3841 
L 1044 0 
L 434 0 
L 434 4666 
z
" transform="scale(0.015625)"/>
       </defs>
       <use xlink:href="#DejaVuSansMono-33"/>
       <use xlink:href="#DejaVuSansMono-30" x="60.205078"/>
       <use xlink:href="#DejaVuSansMono-b0" x="120.410156"/>
       <use xlink:href="#DejaVuSansMono-4e" x="180.615234"/>
      </g>
     </g>
    </g>
    <g id="ytick_6">
     <g id="line2d_12">
      <g>
       <use xlink:href="#m70b9e789f4" x="144" y="182.1972" style="stroke: #000000; stroke-width: 0.8"/>
      </g>
     </g>
     <g id="text_13">
      <!-- 60°N -->
      <g transform="translate(93.65375 189.083606)scale(0.18 -0.18)">
       <use xlink:href="#DejaVuSansMono-36"/>
       <use xlink:href="#DejaVuSansMono-30" x="60.205078"/>
       <use xlink:href="#DejaVuSansMono-b0" x="120.410156"/>
       <use xlink:href="#DejaVuSansMono-4e" x="180.615234"/>
      </g>
     </g>
    </g>
    <g id="ytick_7">
     <g id="line2d_13">
      <g>
       <use xlink:href="#m70b9e789f4" x="144" y="88.0416" style="stroke: #000000; stroke-width: 0.8"/>
      </g>
     </g>
     <g id="text_14">
      <!-- 90°N -->
      <g transform="translate(93.65375 94.928006)scale(0.18 -0.18)">
       <use xlink:href="#DejaVuSansMono-39"/>
       <use xlink:href="#DejaVuSansMono-30" x="60.205078"/>
       <use xlink:href="#DejaVuSansMono-b0" x="120.410156"/>
       <use xlink:href="#DejaVuSansMono-4e" x="180.615234"/>
      </g>
     </g>
    </g>
    <g id="text_15">
     <!-- Latitude -->
     <g transform="translate(84.6625 428.3034)rotate(-90)scale(0.24 -0.24)">
      <defs>
       <path id="DejaVuSansMono-4c" d="M 672 4666 
L 1306 4666 
L 1306 531 
L 3559 531 
L 3559 0 
L 672 0 
L 672 4666 
z
" transform="scale(0.015625)"/>
       <path id="DejaVuSansMono-61" d="M 2194 1759 
L 2003 1759 
Q 1500 1759 1245 1582 
Q 991 1406 991 1056 
Q 991 741 1181 566 
Q 1372 391 1709 391 
Q 2184 391 2456 720 
Q 2728 1050 2731 1631 
L 2731 1759 
L 2194 1759 
z
M 3309 1997 
L 3309 0 
L 2731 0 
L 2731 519 
Q 2547 206 2267 57 
Q 1988 -91 1588 -91 
Q 1053 -91 734 211 
Q 416 513 416 1019 
Q 416 1603 808 1906 
Q 1200 2209 1959 2209 
L 2731 2209 
L 2731 2300 
Q 2728 2719 2518 2908 
Q 2309 3097 1850 3097 
Q 1556 3097 1256 3012 
Q 956 2928 672 2766 
L 672 3341 
Q 991 3463 1283 3523 
Q 1575 3584 1850 3584 
Q 2284 3584 2592 3456 
Q 2900 3328 3091 3072 
Q 3209 2916 3259 2686 
Q 3309 2456 3309 1997 
z
" transform="scale(0.015625)"/>
       <path id="DejaVuSansMono-74" d="M 1919 4494 
L 1919 3500 
L 3225 3500 
L 3225 3053 
L 1919 3053 
L 1919 1153 
Q 1919 766 2066 612 
Q 2213 459 2578 459 
L 3225 459 
L 3225 0 
L 2522 0 
Q 1875 0 1609 259 
Q 1344 519 1344 1153 
L 1344 3053 
L 409 3053 
L 409 3500 
L 1344 3500 
L 1344 4494 
L 1919 4494 
z
" transform="scale(0.015625)"/>
       <path id="DejaVuSansMono-69" d="M 800 3500 
L 2272 3500 
L 2272 447 
L 3413 447 
L 3413 0 
L 556 0 
L 556 447 
L 1697 447 
L 1697 3053 
L 800 3053 
L 800 3500 
z
M 1697 4863 
L 2272 4863 
L 2272 4134 
L 1697 4134 
L 1697 4863 
z
" transform="scale(0.015625)"/>
       <path id="DejaVuSansMono-75" d="M 609 1325 
L 609 3494 
L 1184 3494 
L 1184 1325 
Q 1184 853 1351 631 
Q 1519 409 1869 409 
Q 2275 409 2490 695 
Q 2706 981 2706 1516 
L 2706 3494 
L 3284 3494 
L 3284 0 
L 2706 0 
L 2706 525 
Q 2553 222 2289 65 
Q 2025 -91 1672 -91 
Q 1134 -91 871 261 
Q 609 613 609 1325 
z
" transform="scale(0.015625)"/>
       <path id="DejaVuSansMono-64" d="M 2681 3053 
L 2681 4863 
L 3256 4863 
L 3256 0 
L 2681 0 
L 2681 441 
Q 2538 181 2298 45 
Q 2059 -91 1747 -91 
Q 1113 -91 748 401 
Q 384 894 384 1759 
Q 384 2613 750 3098 
Q 1116 3584 1747 3584 
Q 2063 3584 2303 3448 
Q 2544 3313 2681 3053 
z
M 991 1747 
Q 991 1078 1203 737 
Q 1416 397 1831 397 
Q 2247 397 2464 740 
Q 2681 1084 2681 1747 
Q 2681 2413 2464 2755 
Q 2247 3097 1831 3097 
Q 1416 3097 1203 2756 
Q 991 2416 991 1747 
z
" transform="scale(0.015625)"/>
       <path id="DejaVuSansMono-65" d="M 3475 1894 
L 3475 1613 
L 984 1613 
L 984 1594 
Q 984 1022 1282 709 
Q 1581 397 2125 397 
Q 2400 397 2700 484 
Q 3000 572 3341 750 
L 3341 178 
Q 3013 44 2708 -23 
Q 2403 -91 2119 -91 
Q 1303 -91 843 398 
Q 384 888 384 1747 
Q 384 2584 834 3084 
Q 1284 3584 2034 3584 
Q 2703 3584 3089 3131 
Q 3475 2678 3475 1894 
z
M 2900 2063 
Q 2888 2569 2661 2833 
Q 2434 3097 2009 3097 
Q 1594 3097 1325 2822 
Q 1056 2547 1006 2059 
L 2900 2063 
z
" transform="scale(0.015625)"/>
      </defs>
      <use xlink:href="#DejaVuSansMono-4c"/>
      <use xlink:href="#DejaVuSansMono-61" x="60.205078"/>
      <use xlink:href="#DejaVuSansMono-74" x="120.410156"/>
      <use xlink:href="#DejaVuSansMono-69" x="180.615234"/>
      <use xlink:href="#DejaVuSansMono-74" x="240.820312"/>
      <use xlink:href="#DejaVuSansMono-75" x="301.025391"/>
      <use xlink:href="#DejaVuSansMono-64" x="361.230469"/>
      <use xlink:href="#DejaVuSansMono-65" x="421.435547"/>
     </g>
    </g>
   </g>
   <g id="line2d_14">
    <path d="M 478.672985 113.14976 
L 478.672985 117.85754 
L 478.849991 119.4268 
L 478.849991 120.99606 
L 479.071255 122.56532 
L 479.071255 125.70384 
L 477.843274 127.2731 
L 477.843274 128.84236 
L 491.1906 130.41162 
L 491.594369 131.98088 
L 492.236032 133.55014 
L 492.700665 135.1194 
L 492.999379 136.68866 
L 494.277116 138.25792 
L 494.570287 139.82718 
L 495.24512 141.39644 
L 495.588068 142.9657 
L 495.637846 144.53496 
L 495.836982 146.10422 
L 496.329287 147.67348 
L 496.677757 149.24274 
L 497.435561 153.95052 
L 497.872545 155.51978 
L 498.060616 157.08904 
L 498.862677 158.6583 
L 499.028619 160.22756 
L 499.753231 161.79682 
L 500.251035 163.36608 
L 501.053096 164.93534 
L 501.235646 166.5046 
L 502.065357 168.07386 
L 502.413827 169.64312 
L 502.928261 171.21238 
L 503.91285 172.78164 
L 504.991474 175.92016 
L 505.456108 177.48942 
L 506.933024 179.05868 
L 507.425308 180.62794 
L 512.486567 183.76646 
L 513.631554 185.33572 
L 514.997828 186.90498 
L 517.29889 190.0435 
L 518.305585 191.61276 
L 520.031437 193.18202 
L 520.418621 194.75128 
L 522.946468 196.32054 
L 523.919992 197.8898 
L 525.861498 199.45906 
L 528.306418 201.02832 
L 529.385043 202.59758 
L 531.45932 204.16684 
L 532.261404 205.7361 
L 534.402067 207.30536 
L 534.595636 208.87462 
L 536.487386 210.44388 
L 537.444325 212.01314 
L 539.236519 213.5824 
L 539.85603 215.15166 
L 541.808623 216.72092 
L 542.621704 218.29018 
L 543.750129 219.85944 
L 546.47159 222.99796 
L 547.37323 224.56722 
L 549.397707 226.13648 
L 550.996286 227.70574 
L 552.423424 229.275 
L 553.584975 230.84426 
L 556.251137 232.41352 
L 557.285504 233.98278 
L 559.752553 235.55204 
L 560.963904 237.1213 
L 563.209667 238.69056 
L 563.585808 240.25982 
L 566.462125 241.82908 
L 567.059508 243.39834 
L 568.602788 244.9676 
L 569.753341 246.53686 
L 571.213606 248.10612 
L 572.015689 249.67538 
L 573.752584 251.24464 
L 575.732803 252.8139 
L 576.518257 254.38316 
L 578.432136 255.95242 
L 579.178875 257.52168 
L 581.330625 259.09094 
L 583.8806 260.6602 
L 585.351952 262.22946 
L 587.536828 263.79872 
L 590.446359 265.36798 
L 592.033896 266.93724 
L 593.245292 268.5065 
L 594.805158 270.07576 
L 596.818593 271.64502 
L 597.305333 273.21428 
L 598.809899 274.78354 
L 599.960408 276.3528 
L 602.759296 279.49132 
L 604.197477 281.06058 
L 604.756146 282.62984 
L 607.444436 284.1991 
L 608.440089 285.76836 
L 609.712327 287.33762 
L 610.370553 288.90688 
L 611.941461 290.47614 
L 612.610773 292.0454 
L 617.533739 296.75318 
L 619.143361 298.32244 
L 621.79848 299.8917 
L 622.899233 301.46096 
L 626.931602 304.59948 
L 627.766856 306.16874 
L 630.654259 307.738 
L 632.28051 309.30726 
L 633.536119 310.87652 
L 634.52073 312.44578 
L 636.683521 314.01504 
L 637.524274 315.5843 
L 639.32751 317.15356 
L 640.704848 318.72282 
L 641.811144 320.29208 
L 647.287236 321.86134 
L 648.448832 323.4306 
L 650.241025 324.99986 
L 652.724615 328.13838 
L 654.444879 329.70764 
L 654.83765 331.2769 
L 656.519156 332.84616 
L 661.74638 334.41542 
L 662.830503 335.98468 
L 663.427886 337.55394 
L 665.236665 339.1232 
L 665.524336 340.69246 
L 667.05653 342.26172 
L 668.162826 343.83098 
L 671.044686 346.9695 
L 673.063664 348.53876 
L 673.904461 350.10802 
L 675.99528 351.67728 
L 677.43346 353.24654 
L 678.68357 354.8158 
L 680.193679 356.38506 
L 681.991372 357.95432 
L 683.556736 359.52358 
L 684.557932 361.09284 
L 686.339084 362.6621 
L 687.27385 364.23136 
L 689.099214 365.80062 
L 691.859433 368.93914 
L 693.601782 370.5084 
L 695.908432 372.07766 
L 698.115436 375.21618 
L 698.906433 376.78544 
L 700.449713 378.3547 
L 700.958582 379.92396 
L 702.241862 381.49322 
L 702.717605 383.06248 
L 703.890242 384.63174 
L 704.288512 386.201 
L 705.726693 387.77026 
L 706.130462 389.33952 
L 707.474585 390.90878 
L 707.883941 392.47804 
L 708.757909 394.0473 
L 711.695068 398.75508 
L 713.703004 401.8936 
L 714.422072 403.46286 
L 716.645707 406.60138 
L 717.099276 408.17064 
L 718.465572 409.7399 
L 720.01985 411.30916 
L 720.943618 412.87842 
L 722.415014 414.44768 
L 723.908449 417.5862 
L 725.014745 419.15546 
L 725.717228 420.72472 
L 726.679666 422.29398 
L 727.354521 423.86324 
L 727.785962 425.4325 
L 729.024985 427.00176 
L 729.384542 428.57102 
L 730.463166 430.14028 
L 730.70658 431.70954 
L 731.54179 433.2788 
L 732.056246 434.84806 
L 733.090613 436.41732 
L 733.378241 437.98658 
L 734.418151 439.55584 
L 735.164891 441.1251 
L 735.706975 442.69436 
L 736.774512 444.26362 
L 737.394068 445.83288 
L 737.792338 447.40214 
L 740.231671 450.54066 
L 740.535883 452.10992 
L 741.752822 453.67918 
L 742.615704 455.24844 
L 742.958675 456.8177 
L 744.175614 458.38696 
L 744.772997 459.95622 
L 745.61375 461.52548 
L 746.227718 463.09474 
L 747.688027 464.664 
L 748.207983 466.23326 
L 750.459289 469.37178 
L 750.802215 470.94104 
L 752.17401 472.5103 
L 752.976093 474.07956 
L 754.3423 475.64882 
L 754.441901 477.21808 
L 755.470725 478.78734 
L 755.874538 480.3566 
L 756.449793 481.92586 
L 756.903362 483.49512 
L 757.722031 485.06438 
L 758.131343 488.2029 
L 758.369215 489.77216 
L 759.237595 492.91068 
L 759.901408 494.47994 
L 760.183537 496.0492 
L 761.262161 499.18772 
L 761.444688 500.75698 
L 762.30757 502.32624 
L 762.971339 503.8955 
L 763.081982 505.46476 
L 763.917192 507.03402 
L 763.895063 508.60328 
L 763.756793 510.17254 
L 763.906149 511.7418 
L 763.762336 514.88032 
L 763.258966 518.01884 
L 763.281095 519.5881 
L 762.816439 521.15736 
L 762.987924 524.29588 
L 762.866283 525.86514 
L 762.998966 532.14218 
L 763.568722 533.71144 
L 763.574265 535.2807 
L 763.917192 538.41922 
L 763.80105 539.98848 
L 763.845307 541.55774 
L 764.016792 543.127 
L 764.027834 546.26552 
L 763.790008 549.40404 
L 763.93932 554.11182 
L 764.193777 555.68108 
L 764.326548 557.25034 
L 764.575461 558.8196 
L 764.509076 560.38886 
L 765.08433 561.95812 
L 765.073288 563.52738 
L 765.615372 565.09664 
L 765.333243 566.6659 
L 765.200516 568.23516 
L 763.85085 572.94294 
L 763.690407 574.5122 
L 763.286638 576.08146 
L 763.375108 580.78924 
L 764.166149 583.92776 
L 763.961493 591.77406 
L 764.121892 593.34332 
L 763.773422 594.91258 
L 763.867435 596.48184 
L 763.546593 598.0511 
L 763.784464 599.62036 
L 764.177191 601.18962 
L 764.243577 602.75888 
L 764.719275 604.32814 
L 764.652889 605.8974 
L 764.796703 607.46666 
L 764.84096 610.60518 
L 764.381847 612.17444 
L 764.658388 613.7437 
L 763.872934 616.88222 
L 763.369609 618.45148 
L 763.95595 620.02074 
L 763.574265 621.59 
L 762.252271 624.72852 
L 762.346284 626.29778 
L 764.464818 627.86704 
L 764.453732 631.00556 
L 763.004509 632.57482 
L 762.904953 634.14408 
L 761.804245 635.71334 
L 761.936927 637.2826 
L 761.638302 638.85186 
L 762.484554 640.42112 
L 762.50114 641.99038 
L 759.812938 643.55964 
L 756.571522 645.1289 
L 748.069668 646.69816 
L 750.724787 648.26742 
L 755.985137 649.83668 
L 759.021897 651.40594 
L 759.021897 652.9752 
L 759.021897 652.9752 
" clip-path="url(#pd0977b18f9)" style="fill: none; stroke: #b900ff; stroke-width: 4; stroke-linecap: square"/>
   </g>
   <g id="line2d_15">
    <path d="M 285.181573 88.0416 
L 285.181573 92.74938 
L 289.990892 94.31864 
L 290.904738 95.8879 
L 292.399415 99.02642 
L 292.399415 100.59568 
L 293.359725 102.16494 
L 293.181609 103.7342 
L 294.598848 105.30346 
L 295.365543 106.87272 
L 295.814722 108.44198 
L 296.109012 110.01124 
L 295.109989 111.5805 
L 294.955089 113.14976 
L 295.125466 114.71902 
L 295.156452 116.28828 
L 296.263901 117.85754 
L 299.183577 119.4268 
L 300.322002 120.99606 
L 301.894129 122.56532 
L 302.289106 124.13458 
L 303.435269 125.70384 
L 303.148728 127.2731 
L 304.124537 128.84236 
L 304.480778 130.41162 
L 306.378171 131.98088 
L 307.439168 133.55014 
L 308.050985 135.1194 
L 313.61924 136.68866 
L 315.524393 138.25792 
L 318.606685 142.9657 
L 320.689942 144.53496 
L 321.4489 146.10422 
L 322.897113 147.67348 
L 325.80129 149.24274 
L 328.132374 152.38126 
L 329.100433 153.95052 
L 330.331818 155.51978 
L 332.105297 157.08904 
L 332.902968 158.6583 
L 337.456711 160.22756 
L 340.120811 161.79682 
L 344.473201 163.36608 
L 345.464486 164.93534 
L 347.478054 166.5046 
L 350.126655 168.07386 
L 353.882704 169.64312 
L 356.082148 171.21238 
L 363.563294 174.3509 
L 366.513934 175.92016 
L 369.007657 177.48942 
L 375.791797 180.62794 
L 382.072567 182.1972 
L 384.99997 183.76646 
L 390.955463 185.33572 
L 394.014529 186.90498 
L 396.376589 188.47424 
L 400.94583 190.0435 
L 404.291437 191.61276 
L 410.486996 193.18202 
L 413.546062 194.75128 
L 418.169495 196.32054 
L 423.149202 197.8898 
L 425.999155 199.45906 
L 430.800746 201.02832 
L 430.971101 202.59758 
L 434.355422 204.16684 
L 438.289631 205.7361 
L 441.054395 207.30536 
L 445.515211 208.87462 
L 448.163812 210.44388 
L 451.819196 212.01314 
L 453.546224 213.5824 
L 456.357463 215.15166 
L 460.113534 216.72092 
L 462.707922 218.29018 
L 470.506607 221.4287 
L 478.429193 226.13648 
L 482.254955 227.70574 
L 487.552156 230.84426 
L 490.433106 232.41352 
L 492.872594 233.98278 
L 496.667402 235.55204 
L 498.82811 237.1213 
L 502.297618 238.69056 
L 506.804887 241.82908 
L 510.018853 243.39834 
L 511.800071 244.9676 
L 514.293793 246.53686 
L 516.369312 248.10612 
L 517.972415 249.67538 
L 520.257069 251.24464 
L 521.426469 252.8139 
L 524.315158 254.38316 
L 528.226108 257.52168 
L 530.533955 259.09094 
L 533.06637 260.6602 
L 535.219361 262.22946 
L 536.822464 263.79872 
L 539.982194 265.36798 
L 542.708223 266.93724 
L 543.792435 268.5065 
L 546.95997 270.07576 
L 552.396595 274.78354 
L 554.340451 276.3528 
L 556.989052 277.92206 
L 558.708296 279.49132 
L 560.202973 281.06058 
L 562.14683 282.62984 
L 563.672504 284.1991 
L 564.625053 285.76836 
L 566.615384 287.33762 
L 568.086824 288.90688 
L 569.759638 290.47614 
L 570.781899 292.0454 
L 576.055907 296.75318 
L 577.852624 298.32244 
L 580.206901 299.8917 
L 581.879715 301.46096 
L 583.947474 303.03022 
L 585.442195 304.59948 
L 586.363791 306.16874 
L 588.044322 307.738 
L 589.283433 309.30726 
L 591.358953 310.87652 
L 592.373497 312.44578 
L 593.589372 314.01504 
L 594.983384 315.5843 
L 596.176021 317.15356 
L 597.7946 318.72282 
L 599.72298 321.86134 
L 602.232202 324.99986 
L 603.897255 326.56912 
L 606.2361 329.70764 
L 607.986298 331.2769 
L 608.931131 332.84616 
L 613.616581 335.98468 
L 614.886646 337.55394 
L 616.869216 339.1232 
L 619.618526 342.26172 
L 620.61755 343.83098 
L 622.530453 345.40024 
L 623.72309 346.9695 
L 625.210007 348.53876 
L 625.883753 350.10802 
L 627.301047 351.67728 
L 629.244903 353.24654 
L 629.833461 354.8158 
L 630.894436 356.38506 
L 632.164546 357.95432 
L 633.821839 359.52358 
L 636.005784 361.09284 
L 637.368798 362.6621 
L 639.444317 364.23136 
L 642.511143 367.36988 
L 644.532427 368.93914 
L 645.624444 370.5084 
L 646.894509 372.07766 
L 649.117168 373.64692 
L 650.25557 375.21618 
L 651.796766 376.78544 
L 652.935169 378.3547 
L 659.30891 384.63174 
L 660.238222 386.201 
L 661.965271 387.77026 
L 663.374715 389.33952 
L 664.43569 390.90878 
L 666.379591 392.47804 
L 668.826817 394.0473 
L 669.942026 395.61656 
L 671.320517 397.18582 
L 673.38832 398.75508 
L 674.906234 400.32434 
L 678.484191 403.46286 
L 679.250886 405.03212 
L 681.636206 406.60138 
L 682.550041 408.17064 
L 684.439662 409.7399 
L 685.818153 411.30916 
L 686.035004 412.87842 
L 687.731056 414.44768 
L 689.125068 416.01694 
L 690.201563 417.5862 
L 690.666219 419.15546 
L 691.951806 420.72472 
L 694.337125 423.86324 
L 695.065062 425.4325 
L 696.575216 427.00176 
L 697.365193 428.57102 
L 700.486166 431.70954 
L 701.895699 433.2788 
L 702.948957 434.84806 
L 704.311927 436.41732 
L 707.370993 439.55584 
L 708.424295 441.1251 
L 709.725358 442.69436 
L 710.677907 444.26362 
L 711.475556 445.83288 
L 712.614048 447.40214 
L 713.295555 448.9714 
L 714.495953 450.54066 
L 715.123225 452.10992 
L 715.944155 453.67918 
L 717.764109 455.24844 
L 720.815414 459.95622 
L 721.342066 461.52548 
L 722.426278 463.09474 
L 722.619892 464.664 
L 723.433062 466.23326 
L 724.106808 467.80252 
L 725.105832 469.37178 
L 725.508536 470.94104 
L 726.50756 474.07956 
L 726.786407 475.64882 
L 726.492083 477.21808 
L 726.918069 478.78734 
L 728.916116 481.92586 
L 729.380772 483.49512 
L 729.303344 485.06438 
L 730.991635 486.63364 
L 732.044849 488.2029 
L 733.299482 489.77216 
L 733.616999 491.34142 
L 732.788352 492.91068 
L 732.811589 494.47994 
L 731.611191 496.0492 
L 732.82711 499.18772 
L 732.896778 500.75698 
L 733.934515 502.32624 
L 733.423385 503.8955 
L 733.516334 505.46476 
L 733.980989 507.03402 
L 734.042985 508.60328 
L 733.934515 510.17254 
L 734.035224 511.7418 
L 734.972297 513.31106 
L 734.871587 514.88032 
L 735.196864 516.44958 
L 737.388569 519.5881 
L 739.618989 521.15736 
L 739.711937 522.72662 
L 740.974287 524.29588 
L 742.492157 525.86514 
L 744.56772 527.4344 
L 744.869715 529.00366 
L 750.027537 533.71144 
L 752.304387 535.2807 
L 751.793256 536.84996 
L 752.80004 538.41922 
L 754.52709 539.98848 
L 756.494183 541.55774 
L 757.06722 543.127 
L 758.709081 544.69626 
L 759.328637 546.26552 
L 762.039189 547.83478 
L 763.007259 549.40404 
L 762.71298 550.9733 
L 763.712003 552.54256 
L 763.897857 555.68108 
L 763.750717 557.25034 
L 764.308322 558.8196 
L 765.446724 560.38886 
L 767.011113 561.95812 
L 768.180558 563.52738 
L 768.668451 565.09664 
L 770.589114 566.6659 
L 773.067338 568.23516 
L 773.632659 569.80442 
L 773.64818 571.37368 
L 774.577492 572.94294 
L 774.85625 574.5122 
L 775.839797 576.08146 
L 777.721746 577.65072 
L 777.721746 579.21998 
L 779.750791 582.3585 
L 780.107021 583.92776 
L 778.775004 585.49702 
L 778.790481 587.06628 
L 780.951189 588.63554 
L 781.229991 590.2048 
L 781.253228 591.77406 
L 781.857263 593.34332 
L 782.213538 594.91258 
L 784.575575 598.0511 
L 786.442004 602.75888 
L 788.850516 605.8974 
L 789.214507 607.46666 
L 788.989895 609.03592 
L 789.958009 610.60518 
L 788.69566 612.17444 
L 787.21646 613.7437 
L 788.780849 615.31296 
L 791.963772 616.88222 
L 795.998669 618.45148 
L 800.753786 620.02074 
L 801.75281 621.59 
L 804.664736 623.15926 
L 806.236885 624.72852 
L 807.251385 626.29778 
L 807.429478 627.86704 
L 806.244601 629.4363 
L 805.586331 631.00556 
L 803.301677 632.57482 
L 801.675337 634.14408 
L 802.06261 635.71334 
L 800.095472 637.2826 
L 798.678267 638.85186 
L 794.534989 640.42112 
L 793.47397 641.99038 
L 792.079958 643.55964 
L 792.691798 645.1289 
L 792.018007 646.69816 
L 788.711137 648.26742 
L 788.873753 649.83668 
L 782.422628 651.40594 
L 812.362733 652.9752 
L 812.362733 652.9752 
" clip-path="url(#pd0977b18f9)" style="fill: none; stroke: #5400ff; stroke-width: 4; stroke-linecap: square"/>
   </g>
   <g id="line2d_16">
    <path d="M 360.818175 88.0416 
L 360.818175 89.61086 
L 362.990745 91.18012 
L 362.881011 92.74938 
L 362.288484 94.31864 
L 362.310457 97.45716 
L 363.561321 99.02642 
L 364.351342 100.59568 
L 366.260564 102.16494 
L 366.348347 103.7342 
L 366.589766 105.30346 
L 365.558325 106.87272 
L 367.270031 108.44198 
L 367.884509 110.01124 
L 368.872047 113.14976 
L 371.439628 114.71902 
L 373.963306 117.85754 
L 374.380268 119.4268 
L 377.364833 120.99606 
L 379.010707 122.56532 
L 381.358842 124.13458 
L 383.311945 125.70384 
L 384.496999 127.2731 
L 386.494004 128.84236 
L 389.171318 130.41162 
L 390.795264 131.98088 
L 393.450627 133.55014 
L 393.713975 135.1194 
L 397.773838 136.68866 
L 402.184809 138.25792 
L 407.802764 139.82718 
L 411.182317 141.39644 
L 412.784311 142.9657 
L 416.010251 144.53496 
L 417.480582 146.10422 
L 418.709494 147.67348 
L 419.411733 149.24274 
L 419.718983 150.812 
L 420.860113 152.38126 
L 423.186319 153.95052 
L 424.832193 155.51978 
L 425.644166 157.08904 
L 428.102035 158.6583 
L 431.569371 160.22756 
L 435.651163 161.79682 
L 438.701559 163.36608 
L 439.381847 164.93534 
L 442.278607 166.5046 
L 444.363394 168.07386 
L 445.438693 169.64312 
L 446.843192 171.21238 
L 447.282105 172.78164 
L 450.134985 175.92016 
L 451.188354 177.48942 
L 453.426756 179.05868 
L 454.743473 180.62794 
L 458.518015 182.1972 
L 462.665638 183.76646 
L 466.352442 185.33572 
L 473.90157 186.90498 
L 474.58188 188.47424 
L 482.613801 190.0435 
L 488.429272 191.61276 
L 492.971907 193.18202 
L 495.758955 194.75128 
L 496.943987 196.32054 
L 499.906601 197.8898 
L 503.966464 199.45906 
L 508.552978 201.02832 
L 512.28364 202.59758 
L 514.434303 204.16684 
L 518.011351 205.7361 
L 522.027311 207.30536 
L 524.90212 208.87462 
L 528.940032 210.44388 
L 530.388412 212.01314 
L 534.053287 213.5824 
L 538.266719 215.15166 
L 541.646273 216.72092 
L 545.333098 218.29018 
L 546.781434 219.85944 
L 550.139081 221.4287 
L 554.286704 222.99796 
L 557.512643 224.56722 
L 558.368518 226.13648 
L 562.384435 227.70574 
L 565.961549 229.275 
L 570.657775 230.84426 
L 573.37897 232.41352 
L 575.529611 233.98278 
L 579.150538 235.55204 
L 581.103663 237.1213 
L 585.075766 241.82908 
L 587.489732 243.39834 
L 590.167025 244.9676 
L 591.900681 246.53686 
L 593.371013 248.10612 
L 593.941566 249.67538 
L 595.433893 251.24464 
L 597.474778 252.8139 
L 598.923114 254.38316 
L 601.183511 255.95242 
L 602.741602 257.52168 
L 604.650869 259.09094 
L 607.064791 260.6602 
L 609.083725 262.22946 
L 611.848866 263.79872 
L 613.077779 265.36798 
L 615.755116 266.93724 
L 618.717685 268.5065 
L 620.890277 270.07576 
L 622.843401 271.64502 
L 624.028411 273.21428 
L 625.893775 274.78354 
L 629.097764 277.92206 
L 630.787518 279.49132 
L 631.402019 281.06058 
L 633.420952 282.62984 
L 635.681305 284.1991 
L 637.261348 285.76836 
L 639.324184 287.33762 
L 640.399482 288.90688 
L 642.989058 290.47614 
L 645.183558 292.0454 
L 648.014464 293.61466 
L 649.067855 295.18392 
L 650.823419 296.75318 
L 652.359604 298.32244 
L 654.26887 299.8917 
L 656.682793 301.46096 
L 657.780042 303.03022 
L 659.338178 304.59948 
L 660.281858 306.16874 
L 661.796047 307.738 
L 663.507753 309.30726 
L 664.626954 310.87652 
L 666.733692 312.44578 
L 668.599012 314.01504 
L 671.561625 317.15356 
L 675.292309 321.86134 
L 677.047917 323.4306 
L 679.417982 324.99986 
L 680.208003 326.56912 
L 682.622014 328.13838 
L 684.465383 329.70764 
L 689.293316 332.84616 
L 690.588082 334.41542 
L 692.541162 335.98468 
L 694.033489 337.55394 
L 695.986613 339.1232 
L 698.356678 340.69246 
L 699.475878 342.26172 
L 702.416541 343.83098 
L 704.391572 345.40024 
L 709.373164 350.10802 
L 711.809037 351.67728 
L 713.586596 353.24654 
L 716.044466 354.8158 
L 716.878389 356.38506 
L 718.985128 357.95432 
L 720.609073 359.52358 
L 721.66242 361.09284 
L 723.198561 362.6621 
L 724.164192 364.23136 
L 726.117316 365.80062 
L 727.148757 367.36988 
L 728.026494 368.93914 
L 728.311815 370.5084 
L 729.255451 372.07766 
L 730.791636 373.64692 
L 732.108308 375.21618 
L 733.798107 376.78544 
L 734.763694 378.3547 
L 735.444004 379.92396 
L 739.525774 387.77026 
L 740.14023 389.33952 
L 741.566658 390.90878 
L 741.588654 392.47804 
L 742.773664 394.0473 
L 743.475925 395.61656 
L 745.034017 397.18582 
L 749.159733 400.32434 
L 751.332281 401.8936 
L 751.902835 403.46286 
L 753.987622 406.60138 
L 755.414095 409.7399 
L 755.874938 411.30916 
L 756.59915 412.87842 
L 758.749746 414.44768 
L 761.163713 416.01694 
L 763.292403 417.5862 
L 763.972713 419.15546 
L 765.618565 420.72472 
L 766.496391 422.29398 
L 767.132798 425.4325 
L 766.979184 427.00176 
L 767.944771 428.57102 
L 770.578161 430.14028 
L 774.57217 431.70954 
L 774.616117 433.2788 
L 777.973719 434.84806 
L 779.882941 437.98658 
L 780.782674 441.1251 
L 780.936288 442.69436 
L 780.89243 444.26362 
L 781.331277 445.83288 
L 781.923826 448.9714 
L 783.306353 452.10992 
L 783.657483 453.67918 
L 783.811097 455.24844 
L 783.789146 456.8177 
L 784.666972 459.95622 
L 785.259477 461.52548 
L 785.303424 463.09474 
L 786.510341 466.23326 
L 784.11837 467.80252 
L 779.378197 469.37178 
L 777.490926 470.94104 
L 778.785692 472.5103 
L 776.108355 474.07956 
L 775.559752 475.64882 
L 772.948225 477.21808 
L 771.960732 478.78734 
L 771.565743 480.3566 
L 769.085923 481.92586 
L 767.220559 483.49512 
L 765.640516 485.06438 
L 765.903886 486.63364 
L 766.584196 488.2029 
L 766.101358 491.34142 
L 766.079451 492.91068 
L 766.935326 494.47994 
L 766.14526 496.0492 
L 765.925793 497.61846 
L 764.477457 499.18772 
L 763.950761 500.75698 
L 764.301892 502.32624 
L 763.292403 503.8955 
L 763.029077 505.46476 
L 762.195153 507.03402 
L 761.712316 508.60328 
L 762.195153 510.17254 
L 760.966197 511.7418 
L 760.68092 513.31106 
L 759.671431 514.88032 
L 758.859458 516.44958 
L 759.583626 518.01884 
L 759.759191 519.5881 
L 761.602648 524.29588 
L 761.909832 525.86514 
L 763.92881 530.57292 
L 764.236038 532.14218 
L 765.574707 533.71144 
L 765.267434 535.2807 
L 768.756743 541.55774 
L 768.844504 543.127 
L 770.490445 544.69626 
L 772.772704 546.26552 
L 772.948225 547.83478 
L 773.71634 549.40404 
L 774.681926 550.9733 
L 776.393676 554.11182 
L 775.976692 555.68108 
L 778.697931 557.25034 
L 778.500415 558.8196 
L 780.475491 560.38886 
L 781.067996 561.95812 
L 782.582185 565.09664 
L 782.560234 566.6659 
L 782.209103 568.23516 
L 782.999169 569.80442 
L 783.064978 571.37368 
L 782.582185 572.94294 
L 783.306353 574.5122 
L 783.021076 577.65072 
L 782.582185 579.21998 
L 782.187152 582.3585 
L 781.550789 583.92776 
L 780.5413 585.49702 
L 781.067996 587.06628 
L 780.95824 588.63554 
L 782.209103 590.2048 
L 784.052516 591.77406 
L 784.535309 593.34332 
L 785.764222 594.91258 
L 785.632603 596.48184 
L 787.475972 598.0511 
L 785.413091 599.62036 
L 785.852026 601.18962 
L 785.018103 602.75888 
L 785.105907 607.46666 
L 781.353272 609.03592 
L 781.770212 610.60518 
L 778.127289 612.17444 
L 779.246534 613.7437 
L 782.933315 615.31296 
L 783.240543 616.88222 
L 783.942804 618.45148 
L 773.694433 620.02074 
L 774.089421 621.59 
L 766.255016 623.15926 
L 727.126761 624.72852 
L 727.126761 626.29778 
L 726.907293 627.86704 
L 722.584105 629.4363 
L 722.781621 631.00556 
L 722.34273 632.57482 
L 722.07936 634.14408 
L 705.401061 635.71334 
L 683.192568 637.2826 
L 683.192568 638.85186 
L 683.192568 638.85186 
" clip-path="url(#pd0977b18f9)" style="fill: none; stroke: #0010ff; stroke-width: 4; stroke-linecap: square"/>
   </g>
   <g id="line2d_17">
    <path d="M 563.5745 92.74938 
L 563.5745 97.45716 
L 571.695291 99.02642 
L 575.85981 100.59568 
L 563.827626 102.16494 
L 565.39543 103.7342 
L 566.310019 105.30346 
L 566.310019 106.87272 
L 578.076792 108.44198 
L 577.30921 110.01124 
L 576.32114 111.5805 
L 576.21094 113.14976 
L 575.802648 114.71902 
L 569.074096 116.28828 
L 569.155781 117.85754 
L 570.486777 119.4268 
L 571.474803 120.99606 
L 571.789171 122.56532 
L 573.303936 124.13458 
L 574.157239 125.70384 
L 574.765576 127.2731 
L 574.994223 128.84236 
L 575.590364 130.41162 
L 575.95369 133.55014 
L 576.472226 135.1194 
L 577.158123 136.68866 
L 578.215595 138.25792 
L 578.791293 139.82718 
L 579.648675 142.9657 
L 580.849029 144.53496 
L 581.845259 146.10422 
L 582.367875 147.67348 
L 588.190042 152.38126 
L 588.900418 153.95052 
L 590.647911 155.51978 
L 591.554296 157.08904 
L 592.146313 158.6583 
L 593.599793 160.22756 
L 596.384314 161.79682 
L 597.2499 163.36608 
L 600.369143 166.5046 
L 600.838722 168.07386 
L 602.308521 169.64312 
L 604.39078 171.21238 
L 606.068828 172.78164 
L 607.183461 174.3509 
L 612.107358 179.05868 
L 615.826823 180.62794 
L 617.231345 182.1972 
L 619.38305 183.76646 
L 620.550721 185.33572 
L 623.739409 188.47424 
L 624.768322 190.0435 
L 626.683132 191.61276 
L 631.451908 194.75128 
L 632.444057 196.32054 
L 635.281616 197.8898 
L 636.812701 199.45906 
L 638.131502 201.02832 
L 639.703385 202.59758 
L 642.614469 204.16684 
L 645.786839 207.30536 
L 647.166837 208.87462 
L 658.464121 210.44388 
L 659.158223 212.01314 
L 659.505229 213.5824 
L 663.339061 219.85944 
L 666.568548 221.4287 
L 667.642339 224.56722 
L 668.381318 226.13648 
L 668.552848 227.70574 
L 669.41431 229.275 
L 669.704199 230.84426 
L 670.671826 232.41352 
L 672.85209 237.1213 
L 673.211336 238.69056 
L 674.248452 240.25982 
L 674.905746 241.82908 
L 675.950978 243.39834 
L 676.081621 244.9676 
L 676.040779 246.53686 
L 676.453151 248.10612 
L 676.649115 249.67538 
L 677.016565 251.24464 
L 677.192174 252.8139 
L 678.310843 255.95242 
L 679.115188 257.52168 
L 679.462194 259.09094 
L 680.26654 260.6602 
L 680.760597 262.22946 
L 680.944322 263.79872 
L 680.597271 266.93724 
L 680.687071 268.5065 
L 680.60951 271.64502 
L 680.883036 273.21428 
L 680.883036 274.78354 
L 681.405696 277.92206 
L 681.71186 279.49132 
L 681.769022 281.06058 
L 682.022192 282.62984 
L 682.614165 284.1991 
L 682.618245 285.76836 
L 682.773411 287.33762 
L 682.810174 288.90688 
L 682.569287 290.47614 
L 683.079619 293.61466 
L 682.871415 295.18392 
L 683.05514 296.75318 
L 682.985739 298.32244 
L 683.308266 299.8917 
L 683.206182 301.46096 
L 683.867645 303.03022 
L 684.688265 306.16874 
L 684.851591 307.738 
L 684.87607 309.30726 
L 684.578021 310.87652 
L 684.663786 312.44578 
L 684.116647 314.01504 
L 684.14525 315.5843 
L 683.961525 317.15356 
L 684.13301 318.72282 
L 684.647467 320.29208 
L 684.916912 323.4306 
L 685.304761 326.56912 
L 685.361967 328.13838 
L 685.708973 329.70764 
L 685.398685 331.2769 
L 685.896778 332.84616 
L 685.121036 334.41542 
L 682.544764 335.98468 
L 681.61798 337.55394 
L 681.687381 339.1232 
L 680.723834 340.69246 
L 679.233592 342.26172 
L 678.80082 343.83098 
L 678.216963 345.40024 
L 678.216963 346.9695 
L 677.792307 348.53876 
L 677.494258 350.10802 
L 677.477939 351.67728 
L 677.081931 353.24654 
L 676.82468 354.8158 
L 675.779449 356.38506 
L 674.950669 357.95432 
L 673.652311 361.09284 
L 673.288941 362.6621 
L 672.684684 364.23136 
L 672.22739 365.80062 
L 671.521049 367.36988 
L 669.798124 368.93914 
L 656.377738 370.5084 
L 655.867405 372.07766 
L 654.532285 373.64692 
L 652.409227 376.78544 
L 651.882531 378.3547 
L 651.625325 379.92396 
L 650.604617 383.06248 
L 649.853354 384.63174 
L 650.077921 386.201 
L 649.138853 387.77026 
L 649.106215 389.33952 
L 648.710162 390.90878 
L 648.608078 392.47804 
L 649.498143 394.0473 
L 649.73087 395.61656 
L 649.391979 397.18582 
L 649.669629 398.75508 
L 649.049053 400.32434 
L 647.697613 401.8936 
L 646.921871 405.03212 
L 646.864709 406.60138 
L 647.522048 409.7399 
L 647.346482 411.30916 
L 647.607812 412.87842 
L 647.342402 414.44768 
L 647.599608 416.01694 
L 647.391405 417.5862 
L 647.505684 419.15546 
L 647.395484 420.72472 
L 647.452646 422.29398 
L 647.370961 423.86324 
L 646.84431 425.4325 
L 646.762625 428.57102 
L 646.366616 431.70954 
L 646.362536 434.84806 
L 645.827681 437.98658 
L 644.447638 442.69436 
L 644.349678 444.26362 
L 643.851585 445.83288 
L 643.308526 448.9714 
L 642.936996 450.54066 
L 642.810433 452.10992 
L 642.438859 453.67918 
L 642.365378 455.24844 
L 642.128616 456.8177 
L 642.287817 458.38696 
L 641.985689 461.52548 
L 641.97345 463.09474 
L 641.458993 464.664 
L 641.512075 466.23326 
L 641.189548 467.80252 
L 640.295403 469.37178 
L 639.968795 470.94104 
L 641.928527 472.5103 
L 641.663162 474.07956 
L 641.258949 478.78734 
L 640.789415 480.3566 
L 640.695491 481.92586 
L 640.417886 483.49512 
L 640.491367 485.06438 
L 639.666667 489.77216 
L 638.143742 494.47994 
L 637.233277 496.0492 
L 636.841304 497.61846 
L 635.379664 499.18772 
L 634.812126 500.75698 
L 633.089157 503.8955 
L 632.533902 505.46476 
L 631.6602 507.03402 
L 631.40295 508.60328 
L 630.280157 510.17254 
L 629.606499 511.7418 
L 628.728673 513.31106 
L 628.267299 514.88032 
L 627.97333 516.44958 
L 626.683132 518.01884 
L 625.225616 521.15736 
L 624.102824 522.72662 
L 625.564463 524.29588 
L 624.760118 525.86514 
L 624.151826 529.00366 
L 623.229077 530.57292 
L 622.530896 532.14218 
L 621.710276 533.71144 
L 621.559145 535.2807 
L 620.995776 536.84996 
L 620.297595 538.41922 
L 619.787218 539.98848 
L 618.443982 541.55774 
L 618.084648 543.127 
L 618.068373 544.69626 
L 617.704958 546.26552 
L 617.031301 547.83478 
L 616.492365 549.40404 
L 616.565846 550.9733 
L 615.59006 554.11182 
L 613.842567 555.68108 
L 613.548599 557.25034 
L 611.666428 558.8196 
L 608.832905 563.52738 
L 608.767628 565.09664 
L 607.661154 566.6659 
L 608.098005 568.23516 
L 607.130379 569.80442 
L 605.832021 571.37368 
L 604.680669 572.94294 
L 603.802843 574.5122 
L 601.887989 579.21998 
L 601.23881 580.78924 
L 600.287503 583.92776 
L 600.271183 587.06628 
L 600.458988 588.63554 
L 598.911628 591.77406 
L 598.687061 593.34332 
L 595.367685 598.0511 
L 594.816466 599.62036 
L 593.305824 601.18962 
L 592.979217 602.75888 
L 592.795492 604.32814 
L 591.864584 605.8974 
L 591.542012 610.60518 
L 590.202856 612.17444 
L 589.541438 613.7437 
L 588.332924 615.31296 
L 588.520729 616.88222 
L 588.010353 618.45148 
L 589.137225 620.02074 
L 589.753721 621.59 
L 586.454789 623.15926 
L 586.43031 624.72852 
L 586.732438 626.29778 
L 590.598909 627.86704 
L 590.541747 629.4363 
L 587.716384 631.00556 
L 587.830708 632.57482 
L 585.168715 634.14408 
L 585.087029 635.71334 
L 584.568538 637.2826 
L 581.151157 638.85186 
L 586.952926 640.42112 
L 586.030177 641.99038 
L 585.728049 643.55964 
L 583.572308 645.1289 
L 583.743749 646.69816 
L 574.287882 648.26742 
L 573.589701 649.83668 
L 573.373338 652.9752 
L 573.373338 652.9752 
" clip-path="url(#pd0977b18f9)" style="fill: none; stroke: #0074ff; stroke-width: 4; stroke-linecap: square"/>
   </g>
   <g id="line2d_18">
    <path d="M 457.657218 88.0416 
L 481.58021 89.61086 
L 481.58021 91.18012 
L 482.713823 92.74938 
L 482.713823 99.02642 
L 482.4695 100.59568 
L 482.362028 105.30346 
L 484.521715 106.87272 
L 484.521715 108.44198 
L 484.92728 110.01124 
L 490.820091 111.5805 
L 490.820091 113.14976 
L 491.093704 114.71902 
L 493.566141 116.28828 
L 493.69807 117.85754 
L 490.087142 119.4268 
L 491.352684 120.99606 
L 491.714258 122.56532 
L 491.670311 124.13458 
L 492.422772 125.70384 
L 492.921153 127.2731 
L 493.649201 128.84236 
L 494.699776 130.41162 
L 494.538513 131.98088 
L 494.162282 133.55014 
L 494.426118 135.1194 
L 494.812127 136.68866 
L 493.717627 138.25792 
L 493.981462 139.82718 
L 492.623127 141.39644 
L 492.877184 144.53496 
L 492.886962 146.10422 
L 493.551485 147.67348 
L 493.282749 150.812 
L 494.431018 152.38126 
L 494.538513 153.95052 
L 495.203035 155.51978 
L 496.835029 157.08904 
L 496.835029 158.6583 
L 499.527333 160.22756 
L 500.309172 161.79682 
L 500.309172 163.36608 
L 502.087752 164.93534 
L 504.359856 166.5046 
L 506.250808 168.07386 
L 506.250808 169.64312 
L 508.029387 171.21238 
L 511.176124 172.78164 
L 511.957964 174.3509 
L 514.21539 175.92016 
L 516.946784 177.48942 
L 519.521815 180.62794 
L 521.764606 182.1972 
L 524.408063 183.76646 
L 525.986332 185.33572 
L 529.71941 186.90498 
L 532.680428 188.47424 
L 532.680428 190.0435 
L 538.680732 191.61276 
L 542.008312 193.18202 
L 548.111233 194.75128 
L 548.111233 196.32054 
L 549.977706 197.8898 
L 552.650519 199.45906 
L 554.59034 202.59758 
L 556.03668 204.16684 
L 556.549717 205.7361 
L 558.147499 207.30536 
L 560.580844 208.87462 
L 560.859381 210.44388 
L 562.339911 212.01314 
L 565.27166 213.5824 
L 565.926383 215.15166 
L 568.222921 216.72092 
L 568.775116 218.29018 
L 569.117156 219.85944 
L 571.374581 221.4287 
L 572.244337 224.56722 
L 574.237905 226.13648 
L 574.628769 227.70574 
L 575.395908 229.275 
L 577.907435 230.84426 
L 578.303222 232.41352 
L 578.860295 233.98278 
L 580.858741 235.55204 
L 581.244771 237.1213 
L 582.148717 238.69056 
L 583.902906 240.25982 
L 583.902906 241.82908 
L 586.903037 243.39834 
L 587.328092 244.9676 
L 587.328092 246.53686 
L 589.136028 248.10612 
L 589.531815 249.67538 
L 589.531815 251.24464 
L 592.04822 252.8139 
L 592.898419 255.95242 
L 594.67212 257.52168 
L 595.04835 259.09094 
L 595.278018 260.6602 
L 596.885599 262.22946 
L 596.885599 263.79872 
L 597.794423 265.36798 
L 598.405199 266.93724 
L 598.405199 268.5065 
L 598.771717 270.07576 
L 598.615354 271.64502 
L 598.615354 273.21428 
L 597.540366 274.78354 
L 597.252073 279.49132 
L 597.496375 281.06058 
L 597.496375 282.62984 
L 597.085909 284.1991 
L 596.890477 290.47614 
L 596.524003 292.0454 
L 596.28458 293.61466 
L 596.28458 295.18392 
L 596.045156 296.75318 
L 595.966975 299.8917 
L 595.146089 301.46096 
L 594.926222 303.03022 
L 594.926222 304.59948 
L 594.633051 306.16874 
L 594.491322 307.738 
L 594.388706 310.87652 
L 594.330081 314.01504 
L 593.675358 315.5843 
L 593.152476 321.86134 
L 592.84955 323.4306 
L 592.693186 326.56912 
L 592.937532 328.13838 
L 592.092167 329.70764 
L 591.833231 331.2769 
L 591.246891 332.84616 
L 590.982988 334.41542 
L 590.914607 335.98468 
L 590.259885 337.55394 
L 590.005783 339.1232 
L 589.487823 340.69246 
L 589.13115 342.26172 
L 589.052968 343.83098 
L 588.364011 348.53876 
L 588.271151 350.10802 
L 587.850974 353.24654 
L 587.811861 354.8158 
L 587.479577 357.95432 
L 587.591994 359.52358 
L 587.543125 362.6621 
L 587.352571 364.23136 
L 587.494211 365.80062 
L 587.201085 367.36988 
L 587.205963 370.5084 
L 586.956784 372.07766 
L 586.932305 379.92396 
L 587.22552 381.49322 
L 587.372127 384.63174 
L 588.344454 386.201 
L 588.466627 387.77026 
L 589.448755 389.33952 
L 589.448755 390.90878 
L 589.639309 392.47804 
L 590.186581 394.0473 
L 590.186581 395.61656 
L 590.411326 397.18582 
L 591.070971 398.75508 
L 591.070971 400.32434 
L 591.41301 401.8936 
L 592.786047 403.46286 
L 592.786047 405.03212 
L 594.168839 408.17064 
L 594.168839 409.7399 
L 594.838284 411.30916 
L 596.113582 412.87842 
L 596.113582 414.44768 
L 597.203204 416.01694 
L 597.286264 419.15546 
L 598.410121 420.72472 
L 598.6593 423.86324 
L 599.221207 425.4325 
L 599.680497 430.14028 
L 599.680497 431.70954 
L 599.328701 434.84806 
L 599.328701 437.98658 
L 599.7538 439.55584 
L 599.7538 441.1251 
L 599.558368 442.69436 
L 599.602359 445.83288 
L 599.245641 447.40214 
L 599.548568 456.8177 
L 599.426439 458.38696 
L 599.43624 463.09474 
L 599.328701 466.23326 
L 599.499743 467.80252 
L 598.903602 469.37178 
L 598.879167 472.5103 
L 597.980099 474.07956 
L 597.980099 475.64882 
L 597.594113 477.21808 
L 597.598991 480.3566 
L 597.364446 481.92586 
L 597.29602 485.06438 
L 597.447505 486.63364 
L 596.988215 488.2029 
L 597.1299 491.34142 
L 597.173892 492.91068 
L 597.540366 494.47994 
L 597.056597 496.0492 
L 597.682051 497.61846 
L 597.672295 499.18772 
L 596.963737 500.75698 
L 596.83673 503.8955 
L 596.787905 507.03402 
L 596.514247 508.60328 
L 596.709679 510.17254 
L 596.445866 511.7418 
L 595.976731 513.31106 
L 595.76662 514.88032 
L 595.73243 518.01884 
L 595.370878 521.15736 
L 594.911543 522.72662 
L 594.867597 524.29588 
L 594.706311 525.86514 
L 594.12977 527.4344 
L 593.777975 530.57292 
L 594.877353 532.14218 
L 594.457131 533.71144 
L 594.457131 535.2807 
L 593.543385 538.41922 
L 590.665428 539.98848 
L 590.719175 543.127 
L 589.961792 544.69626 
L 590.167025 546.26552 
L 590.098599 547.83478 
L 589.912923 549.40404 
L 590.201215 550.9733 
L 590.201215 552.54256 
L 592.009107 554.11182 
L 592.316956 555.68108 
L 592.316956 557.25034 
L 591.911413 558.8196 
L 591.2127 560.38886 
L 591.2127 561.95812 
L 590.455317 563.52738 
L 590.010661 565.09664 
L 590.342945 566.6659 
L 590.157269 568.23516 
L 589.028533 569.80442 
L 588.085474 571.37368 
L 587.738557 572.94294 
L 587.606628 574.5122 
L 586.648935 576.08146 
L 586.018603 579.21998 
L 586.678247 580.78924 
L 586.101663 582.3585 
L 586.057672 583.92776 
L 585.324768 585.49702 
L 585.793858 587.06628 
L 586.751551 588.63554 
L 587.039844 593.34332 
L 586.409512 594.91258 
L 586.385077 596.48184 
L 586.473015 598.0511 
L 586.907915 599.62036 
L 586.903037 602.75888 
L 587.137537 604.32814 
L 587.23532 605.8974 
L 589.223966 607.46666 
L 589.97647 609.03592 
L 590.108355 610.60518 
L 594.462054 612.17444 
L 596.309014 613.7437 
L 597.022406 615.31296 
L 596.900233 616.88222 
L 596.14285 618.45148 
L 597.076153 620.02074 
L 596.665732 621.59 
L 595.986531 623.15926 
L 595.883915 624.72852 
L 594.799171 626.29778 
L 593.147643 627.86704 
L 593.440813 629.4363 
L 593.220902 631.00556 
L 593.57762 632.57482 
L 593.479882 635.71334 
L 594.603694 637.2826 
L 593.948972 638.85186 
L 593.948972 640.42112 
L 594.271455 641.99038 
L 594.271455 645.1289 
L 595.019038 646.69816 
L 595.019038 649.83668 
L 599.162581 651.40594 
L 599.162581 652.9752 
L 599.162581 652.9752 
" clip-path="url(#pd0977b18f9)" style="fill: none; stroke: #00d9ff; stroke-width: 4; stroke-linecap: square"/>
   </g>
   <g id="line2d_19">
    <path d="M 826.880723 114.71902 
L 826.880723 117.85754 
L 821.084587 119.4268 
L 821.084587 120.99606 
L 805.019325 122.56532 
L 807.517194 124.13458 
L 806.755554 125.70384 
L 807.614001 127.2731 
L 809.259942 128.84236 
L 809.705263 130.41162 
L 809.93768 131.98088 
L 809.30513 133.55014 
L 808.943667 136.68866 
L 808.608014 138.25792 
L 808.388546 139.82718 
L 807.981939 141.39644 
L 807.775376 142.9657 
L 807.814134 144.53496 
L 806.43928 146.10422 
L 806.755554 147.67348 
L 806.41347 149.24274 
L 806.394091 152.38126 
L 806.084335 153.95052 
L 806.387661 155.51978 
L 806.181142 157.08904 
L 806.478038 160.22756 
L 806.445798 161.79682 
L 808.537016 163.36608 
L 808.54349 164.93534 
L 808.788767 166.5046 
L 808.608014 168.07386 
L 809.246993 169.64312 
L 808.937193 171.21238 
L 809.092093 172.78164 
L 809.969919 174.3509 
L 809.782735 177.48942 
L 809.924731 179.05868 
L 810.286194 180.62794 
L 810.357192 182.1972 
L 810.55728 183.76646 
L 811.105927 185.33572 
L 811.648099 190.0435 
L 812.358077 191.61276 
L 812.525926 193.18202 
L 812.319363 194.75128 
L 813.648984 196.32054 
L 813.739361 197.8898 
L 814.300913 201.02832 
L 814.688141 202.59758 
L 814.655901 204.16684 
L 815.430446 205.7361 
L 815.611156 207.30536 
L 816.340512 208.87462 
L 816.84397 210.44388 
L 816.482507 212.01314 
L 816.940822 213.5824 
L 817.005301 216.72092 
L 816.495456 218.29018 
L 815.133551 219.85944 
L 814.081445 221.4287 
L 814.016922 222.99796 
L 812.971247 226.13648 
L 812.048276 227.70574 
L 812.9971 229.275 
L 812.474263 230.84426 
L 810.344287 232.41352 
L 810.770273 233.98278 
L 809.066284 237.1213 
L 808.911384 238.69056 
L 809.382558 240.25982 
L 807.491385 241.82908 
L 807.710808 243.39834 
L 806.478038 244.9676 
L 805.535644 246.53686 
L 805.703493 248.10612 
L 804.154404 249.67538 
L 804.57396 251.24464 
L 804.406155 252.8139 
L 803.818794 254.38316 
L 803.773606 255.95242 
L 803.334671 257.52168 
L 802.502077 259.09094 
L 802.502077 262.22946 
L 800.875515 263.79872 
L 800.965892 265.36798 
L 799.474896 266.93724 
L 799.319952 268.5065 
L 798.848777 270.07576 
L 798.203367 271.64502 
L 798.216228 273.21428 
L 796.88665 274.78354 
L 795.356895 276.3528 
L 794.808249 277.92206 
L 794.382262 279.49132 
L 785.817126 281.06058 
L 785.487947 282.62984 
L 784.145421 284.1991 
L 781.499082 285.76836 
L 779.285159 287.33762 
L 774.883212 288.90688 
L 772.353059 290.47614 
L 770.481221 292.0454 
L 767.60894 293.61466 
L 758.508106 295.18392 
L 757.649659 296.75318 
L 755.319594 298.32244 
L 747.612906 299.8917 
L 744.663197 301.46096 
L 742.449274 303.03022 
L 735.620411 304.59948 
L 724.318604 306.16874 
L 722.14987 307.738 
L 714.436751 310.87652 
L 708.072588 312.44578 
L 700.436897 315.5843 
L 693.808123 317.15356 
L 686.495137 318.72282 
L 683.971458 320.29208 
L 680.040597 321.86134 
L 674.502643 323.4306 
L 672.443665 324.99986 
L 668.048148 326.56912 
L 665.6858 328.13838 
L 662.75547 329.70764 
L 656.042793 332.84616 
L 654.777695 334.41542 
L 649.898054 335.98468 
L 647.367901 337.55394 
L 645.851096 339.1232 
L 641.378107 340.69246 
L 638.176646 342.26172 
L 636.162901 343.83098 
L 632.858159 345.40024 
L 626.539185 348.53876 
L 624.680295 350.10802 
L 618.871254 353.24654 
L 614.753254 354.8158 
L 613.436537 356.38506 
L 610.396451 357.95432 
L 606.14293 359.52358 
L 602.567101 362.6621 
L 598.920364 364.23136 
L 596.687063 365.80062 
L 590.452035 368.93914 
L 587.908934 370.5084 
L 584.533238 372.07766 
L 581.777143 373.64692 
L 578.724197 375.21618 
L 576.413468 376.78544 
L 573.573471 378.3547 
L 571.998572 379.92396 
L 570.249394 381.49322 
L 569.255426 383.06248 
L 565.234277 386.201 
L 564.543634 387.77026 
L 561.316365 390.90878 
L 558.534461 392.47804 
L 558.256944 394.0473 
L 556.339917 395.61656 
L 553.64839 397.18582 
L 548.910789 401.8936 
L 546.858285 403.46286 
L 545.599617 405.03212 
L 543.011371 406.60138 
L 541.765652 408.17064 
L 536.957053 411.30916 
L 535.904948 412.87842 
L 533.523265 414.44768 
L 530.412137 416.01694 
L 529.941007 417.5862 
L 527.243005 419.15546 
L 523.286379 422.29398 
L 522.292367 423.86324 
L 521.053166 425.4325 
L 518.664964 427.00176 
L 518.025985 428.57102 
L 517.244966 430.14028 
L 516.702793 431.70954 
L 515.308604 433.2788 
L 513.281909 436.41732 
L 509.738365 437.98658 
L 506.840319 439.55584 
L 502.722319 441.1251 
L 497.91372 442.69436 
L 492.259557 444.26362 
L 488.122222 445.83288 
L 486.147124 447.40214 
L 483.765419 448.9714 
L 481.951695 450.54066 
L 477.562631 453.67918 
L 476.749372 455.24844 
L 474.65811 456.8177 
L 471.52767 459.95622 
L 470.53368 461.52548 
L 466.738428 463.09474 
L 466.331799 464.664 
L 464.22761 466.23326 
L 461.600651 467.80252 
L 459.903091 469.37178 
L 458.444379 470.94104 
L 456.043294 472.5103 
L 454.726577 474.07956 
L 451.789773 477.21808 
L 449.659797 478.78734 
L 447.562083 481.92586 
L 443.837807 485.06438 
L 442.837365 486.63364 
L 440.810648 488.2029 
L 439.119563 489.77216 
L 436.970231 492.91068 
L 435.382405 494.47994 
L 434.60786 496.0492 
L 432.794159 497.61846 
L 432.335889 499.18772 
L 429.941257 500.75698 
L 428.16627 502.32624 
L 427.630528 503.8955 
L 424.809932 505.46476 
L 423.312483 507.03402 
L 422.744479 508.60328 
L 419.517232 510.17254 
L 418.626501 511.7418 
L 415.896237 513.31106 
L 414.463356 514.88032 
L 412.223624 516.44958 
L 409.738638 518.01884 
L 408.492918 519.5881 
L 403.923145 522.72662 
L 400.424789 525.86514 
L 397.842973 527.4344 
L 396.53273 529.00366 
L 391.020563 532.14218 
L 389.25848 533.71144 
L 387.851408 535.2807 
L 385.237309 536.84996 
L 383.307421 538.41922 
L 382.235959 539.98848 
L 379.944631 541.55774 
L 378.240641 543.127 
L 376.89164 544.69626 
L 375.775012 546.26552 
L 373.735368 547.83478 
L 370.482312 550.9733 
L 369.527035 552.54256 
L 366.661229 554.11182 
L 366.054533 555.68108 
L 364.673249 557.25034 
L 362.911166 558.8196 
L 361.355624 560.38886 
L 360.219639 561.95812 
L 358.212301 563.52738 
L 356.566405 565.09664 
L 354.597759 566.6659 
L 353.461774 568.23516 
L 351.738427 569.80442 
L 350.505612 571.37368 
L 349.492243 572.94294 
L 347.865704 574.5122 
L 345.483999 577.65072 
L 343.676728 579.21998 
L 338.777752 583.92776 
L 337.467487 585.49702 
L 336.667133 587.06628 
L 335.221325 588.63554 
L 335.298775 590.2048 
L 333.930418 591.77406 
L 333.259154 593.34332 
L 332.833168 594.91258 
L 332.097337 596.48184 
L 331.587449 598.0511 
L 330.574079 599.62036 
L 330.767693 601.18962 
L 329.651087 602.75888 
L 329.657528 604.32814 
L 328.708726 605.8974 
L 328.97336 607.46666 
L 328.244004 609.03592 
L 327.93417 610.60518 
L 327.456543 612.17444 
L 326.791744 613.7437 
L 326.320558 615.31296 
L 325.558929 616.88222 
L 324.500382 618.45148 
L 323.641924 620.02074 
L 322.008943 621.59 
L 321.324753 623.15926 
L 320.001584 624.72852 
L 318.497694 626.29778 
L 317.310056 627.86704 
L 316.593605 629.4363 
L 315.25752 631.00556 
L 315.322065 632.57482 
L 313.998896 634.14408 
L 313.327621 635.71334 
L 311.965727 637.2826 
L 311.178266 638.85186 
L 312.766081 640.42112 
L 311.66882 641.99038 
L 313.321169 643.55964 
L 313.340537 645.1289 
L 311.126637 646.69816 
L 309.693733 648.26742 
L 309.661461 652.9752 
L 309.661461 652.9752 
" clip-path="url(#pd0977b18f9)" style="fill: none; stroke: #00ffc1; stroke-width: 4; stroke-linecap: square"/>
   </g>
   <g id="line2d_20">
    <path d="M 777.475405 146.10422 
L 777.475405 150.812 
L 769.665878 152.38126 
L 776.485783 153.95052 
L 776.485783 155.51978 
L 778.02077 157.08904 
L 777.960149 158.6583 
L 779.13833 160.22756 
L 782.645865 161.79682 
L 783.945199 163.36608 
L 784.026042 164.93534 
L 803.947131 166.5046 
L 805.192585 168.07386 
L 808.033646 169.64312 
L 808.949255 171.21238 
L 809.003135 172.78164 
L 809.635906 174.3509 
L 809.487835 177.48942 
L 810.039897 179.05868 
L 810.012979 180.62794 
L 810.490939 182.1972 
L 810.322646 183.76646 
L 806.316885 185.33572 
L 806.626552 186.90498 
L 806.491918 188.47424 
L 804.849259 190.0435 
L 804.855955 191.61276 
L 803.623939 193.18202 
L 803.64416 194.75128 
L 802.950724 196.32054 
L 802.021634 199.45906 
L 801.00505 201.02832 
L 800.513609 202.59758 
L 799.382568 204.16684 
L 798.938178 205.7361 
L 797.046428 207.30536 
L 796.770375 208.87462 
L 796.72328 210.44388 
L 793.363815 212.01314 
L 794.010156 213.5824 
L 793.289758 215.15166 
L 793.50519 216.72092 
L 788.758897 218.29018 
L 788.725239 221.4287 
L 773.866894 222.99796 
L 774.661305 224.56722 
L 773.698557 226.13648 
L 768.864726 227.70574 
L 768.642553 232.41352 
L 756.780125 233.98278 
L 756.611833 235.55204 
L 756.894537 237.1213 
L 754.901812 238.69056 
L 754.403631 240.25982 
L 755.938574 241.82908 
L 754.194895 243.39834 
L 754.686336 244.9676 
L 754.255471 246.53686 
L 752.942701 248.10612 
L 750.875829 249.67538 
L 749.455298 251.24464 
L 749.051352 252.8139 
L 747.32785 254.38316 
L 744.830159 255.95242 
L 744.177166 257.52168 
L 741.228344 260.6602 
L 740.824398 262.22946 
L 739.201916 263.79872 
L 738.239212 265.36798 
L 737.996817 266.93724 
L 737.242805 268.5065 
L 737.895842 270.07576 
L 734.489237 273.21428 
L 732.523386 274.78354 
L 732.254117 277.92206 
L 732.072299 279.49132 
L 730.645072 281.06058 
L 730.052656 282.62984 
L 728.578245 284.1991 
L 726.302682 285.76836 
L 722.519138 287.33762 
L 722.593151 288.90688 
L 720.835991 290.47614 
L 718.183488 292.0454 
L 717.644863 293.61466 
L 713.706419 295.18392 
L 712.629258 296.75318 
L 709.579461 298.32244 
L 709.215913 299.8917 
L 705.950728 303.03022 
L 704.988024 304.59948 
L 701.143815 306.16874 
L 700.147452 307.738 
L 698.450868 309.30726 
L 695.522312 310.87652 
L 694.579785 312.44578 
L 693.475662 314.01504 
L 692.762049 315.5843 
L 687.685823 317.15356 
L 687.005868 318.72282 
L 685.336246 320.29208 
L 682.522103 321.86134 
L 681.842148 323.4306 
L 681.364144 324.99986 
L 677.600777 326.56912 
L 676.725523 328.13838 
L 675.33191 329.70764 
L 673.507477 331.2769 
L 670.040297 332.84616 
L 667.583004 335.98468 
L 663.482964 337.55394 
L 662.493297 339.1232 
L 661.207445 340.69246 
L 655.552239 342.26172 
L 655.242572 343.83098 
L 652.556366 346.9695 
L 648.362091 348.53876 
L 645.595087 351.67728 
L 640.417886 353.24654 
L 639.906223 354.8158 
L 638.553054 356.38506 
L 634.796383 357.95432 
L 632.137051 361.09284 
L 630.285656 362.6621 
L 626.414529 364.23136 
L 626.057766 365.80062 
L 624.542956 367.36988 
L 621.452804 368.93914 
L 619.601409 370.5084 
L 618.288594 372.07766 
L 614.727134 373.64692 
L 611.704343 375.21618 
L 611.387891 376.78544 
L 607.557163 378.3547 
L 606.109759 379.92396 
L 602.703155 383.06248 
L 599.889011 384.63174 
L 596.549768 386.201 
L 596.233316 387.77026 
L 593.446179 389.33952 
L 590.24157 390.90878 
L 588.706538 392.47804 
L 582.425258 394.0473 
L 581.482731 395.61656 
L 579.597678 397.18582 
L 579.402423 398.75508 
L 575.423624 400.32434 
L 573.881896 401.8936 
L 572.885533 403.46286 
L 568.455604 405.03212 
L 567.405361 406.60138 
L 565.533744 408.17064 
L 561.965588 409.7399 
L 559.488118 411.30916 
L 558.996633 412.87842 
L 557.60302 414.44768 
L 553.651095 416.01694 
L 552.14981 417.5862 
L 549.214469 419.15546 
L 545.208753 420.72472 
L 542.583123 422.29398 
L 542.16574 423.86324 
L 536.362375 425.4325 
L 533.332799 428.57102 
L 531.535329 430.14028 
L 528.680786 431.70954 
L 526.640877 433.2788 
L 526.082075 434.84806 
L 521.773387 436.41732 
L 517.707005 439.55584 
L 511.479561 441.1251 
L 511.041978 442.69436 
L 508.476947 444.26362 
L 507.662314 445.83288 
L 503.340145 447.40214 
L 501.219438 448.9714 
L 499.563275 450.54066 
L 493.080022 452.10992 
L 492.729934 453.67918 
L 488.441401 455.24844 
L 485.647479 456.8177 
L 484.644354 458.38696 
L 481.096397 459.95622 
L 472.97044 463.09474 
L 472.169266 464.664 
L 467.355612 466.23326 
L 463.019984 467.80252 
L 460.879099 469.37178 
L 457.768747 470.94104 
L 451.783675 472.5103 
L 448.356894 474.07956 
L 447.643258 475.64882 
L 438.500695 477.21808 
L 438.184265 478.78734 
L 435.700032 481.92586 
L 432.58294 483.49512 
L 429.061923 485.06438 
L 428.355006 486.63364 
L 423.729888 488.2029 
L 423.494257 489.77216 
L 421.730378 491.34142 
L 418.061224 492.91068 
L 416.162689 494.47994 
L 415.314442 496.0492 
L 415.065329 497.61846 
L 407.632786 499.18772 
L 406.878774 500.75698 
L 405.646735 502.32624 
L 399.116342 503.8955 
L 397.830467 505.46476 
L 391.677103 507.03402 
L 388.418614 508.60328 
L 384.170503 510.17254 
L 382.871147 511.7418 
L 381.753565 513.31106 
L 376.812017 514.88032 
L 375.923349 516.44958 
L 372.301334 518.01884 
L 367.474221 519.5881 
L 365.138104 521.15736 
L 364.754357 522.72662 
L 360.795713 524.29588 
L 358.661547 525.86514 
L 357.624785 527.4344 
L 355.046273 529.00366 
L 351.895522 530.57292 
L 349.411268 532.14218 
L 348.623596 533.71144 
L 346.125883 535.2807 
L 343.958058 536.84996 
L 343.35216 538.41922 
L 337.198751 539.98848 
L 336.559173 541.55774 
L 334.371171 543.127 
L 330.156718 544.69626 
L 327.881166 546.26552 
L 327.423362 547.83478 
L 327.140601 549.40404 
L 320.657337 550.9733 
L 320.845851 552.54256 
L 319.566695 554.11182 
L 314.268319 555.68108 
L 311.555173 557.25034 
L 310.545318 558.8196 
L 306.519368 560.38886 
L 303.186833 561.95812 
L 303.59752 563.52738 
L 301.806712 565.09664 
L 298.016383 566.6659 
L 295.390754 568.23516 
L 295.330166 569.80442 
L 292.967097 571.37368 
L 291.196489 572.94294 
L 290.287621 574.5122 
L 288.012091 576.08146 
L 286.221272 577.65072 
L 284.154434 579.21998 
L 283.898614 580.78924 
L 281.542275 582.3585 
L 278.620426 583.92776 
L 277.36821 585.49702 
L 269.619248 587.06628 
L 270.312696 588.63554 
L 268.373762 590.2048 
L 265.788542 591.77406 
L 264.819075 593.34332 
L 263.351416 594.91258 
L 262.395419 596.48184 
L 260.422838 598.0511 
L 258.955179 599.62036 
L 256.659449 601.18962 
L 255.575526 602.75888 
L 255.636124 604.32814 
L 252.835451 605.8974 
L 252.768134 607.46666 
L 254.5926 609.03592 
L 255.555337 610.60518 
L 252.121837 612.17444 
L 244.117044 613.7437 
L 244.204561 615.31296 
L 245.598174 616.88222 
L 243.194706 618.45148 
L 242.972533 620.02074 
L 243.9218 621.59 
L 248.095865 623.15926 
L 243.10046 624.72852 
L 243.443808 626.29778 
L 239.512104 627.86704 
L 239.296661 629.4363 
L 241.06055 631.00556 
L 240.373844 632.57482 
L 235.237047 634.14408 
L 235.021609 635.71334 
L 233.863645 637.2826 
L 218.466719 638.85186 
L 219.415981 640.42112 
L 218.534048 641.99038 
L 213.868514 643.55964 
L 213.478038 645.1289 
L 213.767528 646.69816 
L 215.948817 648.26742 
L 218.72928 649.83668 
L 216.655718 651.40594 
L 217.928133 652.9752 
L 217.928133 652.9752 
" clip-path="url(#pd0977b18f9)" style="fill: none; stroke: #00ff5c; stroke-width: 4; stroke-linecap: square"/>
   </g>
   <g id="line2d_21">
    <path d="M 0 0 
" clip-path="url(#pd0977b18f9)" style="fill: none; stroke: #08ff00; stroke-width: 4; stroke-linecap: square"/>
   </g>
   <g id="line2d_22">
    <path d="M 0 0 
" clip-path="url(#pd0977b18f9)" style="fill: none; stroke: #6cff00; stroke-width: 4; stroke-linecap: square"/>
   </g>
   <g id="patch_3">
    <path d="M 144 652.9752 
L 144 88.0416 
" style="fill: none; stroke: #000000; stroke-width: 0.8; stroke-linejoin: miter; stroke-linecap: square"/>
   </g>
   <g id="patch_4">
    <path d="M 1036.8 652.9752 
L 1036.8 88.0416 
" style="fill: none; stroke: #000000; stroke-width: 0.8; stroke-linejoin: miter; stroke-linecap: square"/>
   </g>
   <g id="patch_5">
    <path d="M 144 652.9752 
L 1036.8 652.9752 
" style="fill: none; stroke: #000000; stroke-width: 0.8; stroke-linejoin: miter; stroke-linecap: square"/>
   </g>
   <g id="patch_6">
    <path d="M 144 88.0416 
L 1036.8 88.0416 
" style="fill: none; stroke: #000000; stroke-width: 0.8; stroke-linejoin: miter; stroke-linecap: square"/>
   </g>
   <g id="legend_1">
    <g id="line2d_23">
     <path d="M 940.17375 106.97985 
L 954.57375 106.97985 
L 968.97375 106.97985 
" style="fill: none; stroke: #b900ff; stroke-width: 4; stroke-linecap: square"/>
    </g>
    <g id="text_16">
     <!-- Ta -->
     <g transform="translate(980.49375 112.01985)scale(0.144 -0.144)">
      <defs>
       <path id="DejaVuSansMono-54" d="M 147 4666 
L 3706 4666 
L 3706 4134 
L 2247 4134 
L 2247 0 
L 1613 0 
L 1613 4134 
L 147 4134 
L 147 4666 
z
" transform="scale(0.015625)"/>
      </defs>
      <use xlink:href="#DejaVuSansMono-54"/>
      <use xlink:href="#DejaVuSansMono-61" x="60.205078"/>
     </g>
    </g>
    <g id="line2d_24">
     <path d="M 940.17375 128.19285 
L 954.57375 128.19285 
L 968.97375 128.19285 
" style="fill: none; stroke: #5400ff; stroke-width: 4; stroke-linecap: square"/>
    </g>
    <g id="text_17">
     <!-- T8 -->
     <g transform="translate(980.49375 133.23285)scale(0.144 -0.144)">
      <defs>
       <path id="DejaVuSansMono-38" d="M 1925 2216 
Q 1503 2216 1273 1980 
Q 1044 1744 1044 1313 
Q 1044 881 1276 642 
Q 1509 403 1925 403 
Q 2350 403 2579 639 
Q 2809 875 2809 1313 
Q 2809 1741 2576 1978 
Q 2344 2216 1925 2216 
z
M 1375 2478 
Q 972 2581 745 2862 
Q 519 3144 519 3541 
Q 519 4097 897 4423 
Q 1275 4750 1925 4750 
Q 2578 4750 2956 4423 
Q 3334 4097 3334 3541 
Q 3334 3144 3107 2862 
Q 2881 2581 2478 2478 
Q 2947 2375 3195 2062 
Q 3444 1750 3444 1253 
Q 3444 622 3041 265 
Q 2638 -91 1925 -91 
Q 1213 -91 811 264 
Q 409 619 409 1247 
Q 409 1747 657 2061 
Q 906 2375 1375 2478 
z
M 1147 3481 
Q 1147 3106 1347 2909 
Q 1547 2713 1925 2713 
Q 2306 2713 2506 2909 
Q 2706 3106 2706 3481 
Q 2706 3863 2507 4063 
Q 2309 4263 1925 4263 
Q 1547 4263 1347 4061 
Q 1147 3859 1147 3481 
z
" transform="scale(0.015625)"/>
      </defs>
      <use xlink:href="#DejaVuSansMono-54"/>
      <use xlink:href="#DejaVuSansMono-38" x="60.205078"/>
     </g>
    </g>
    <g id="line2d_25">
     <path d="M 940.17375 149.40585 
L 954.57375 149.40585 
L 968.97375 149.40585 
" style="fill: none; stroke: #0010ff; stroke-width: 4; stroke-linecap: square"/>
    </g>
    <g id="text_18">
     <!-- T31 -->
     <g transform="translate(980.49375 154.44585)scale(0.144 -0.144)">
      <use xlink:href="#DejaVuSansMono-54"/>
      <use xlink:href="#DejaVuSansMono-33" x="60.205078"/>
      <use xlink:href="#DejaVuSansMono-31" x="120.410156"/>
     </g>
    </g>
    <g id="line2d_26">
     <path d="M 940.17375 170.61885 
L 954.57375 170.61885 
L 968.97375 170.61885 
" style="fill: none; stroke: #0074ff; stroke-width: 4; stroke-linecap: square"/>
    </g>
    <g id="text_19">
     <!-- T61 -->
     <g transform="translate(980.49375 175.65885)scale(0.144 -0.144)">
      <use xlink:href="#DejaVuSansMono-54"/>
      <use xlink:href="#DejaVuSansMono-36" x="60.205078"/>
      <use xlink:href="#DejaVuSansMono-31" x="120.410156"/>
     </g>
    </g>
    <g id="line2d_27">
     <path d="M 940.17375 191.83185 
L 954.57375 191.83185 
L 968.97375 191.83185 
" style="fill: none; stroke: #00d9ff; stroke-width: 4; stroke-linecap: square"/>
    </g>
    <g id="text_20">
     <!-- T67 -->
     <g transform="translate(980.49375 196.87185)scale(0.144 -0.144)">
      <use xlink:href="#DejaVuSansMono-54"/>
      <use xlink:href="#DejaVuSansMono-36" x="60.205078"/>
      <use xlink:href="#DejaVuSansMono-37" x="120.410156"/>
     </g>
    </g>
    <g id="line2d_28">
     <path d="M 940.17375 213.04485 
L 954.57375 213.04485 
L 968.97375 213.04485 
" style="fill: none; stroke: #00ffc1; stroke-width: 4; stroke-linecap: square"/>
    </g>
    <g id="text_21">
     <!-- T85 -->
     <g transform="translate(980.49375 218.08485)scale(0.144 -0.144)">
      <use xlink:href="#DejaVuSansMono-54"/>
      <use xlink:href="#DejaVuSansMono-38" x="60.205078"/>
      <use xlink:href="#DejaVuSansMono-35" x="120.410156"/>
     </g>
    </g>
    <g id="line2d_29">
     <path d="M 940.17375 234.25785 
L 954.57375 234.25785 
L 968.97375 234.25785 
" style="fill: none; stroke: #00ff5c; stroke-width: 4; stroke-linecap: square"/>
    </g>
    <g id="text_22">
     <!-- T108 -->
     <g transform="translate(980.49375 239.29785)scale(0.144 -0.144)">
      <use xlink:href="#DejaVuSansMono-54"/>
      <use xlink:href="#DejaVuSansMono-31" x="60.205078"/>
      <use xlink:href="#DejaVuSansMono-30" x="120.410156"/>
      <use xlink:href="#DejaVuSansMono-38" x="180.615234"/>
     </g>
    </g>
    <g id="line2d_30">
     <path d="M 940.17375 255.47085 
L 954.57375 255.47085 
L 968.97375 255.47085 
" style="fill: none; stroke: #08ff00; stroke-width: 4; stroke-linecap: square"/>
    </g>
    <g id="text_23">
     <!-- 278TI -->
     <g transform="translate(980.49375 260.51085)scale(0.144 -0.144)">
      <defs>
       <path id="DejaVuSansMono-32" d="M 1166 531 
L 3309 531 
L 3309 0 
L 475 0 
L 475 531 
Q 1059 1147 1496 1619 
Q 1934 2091 2100 2284 
Q 2413 2666 2522 2902 
Q 2631 3138 2631 3384 
Q 2631 3775 2401 3997 
Q 2172 4219 1772 4219 
Q 1488 4219 1175 4116 
Q 863 4013 513 3803 
L 513 4441 
Q 834 4594 1145 4672 
Q 1456 4750 1759 4750 
Q 2444 4750 2861 4386 
Q 3278 4022 3278 3431 
Q 3278 3131 3139 2831 
Q 3000 2531 2688 2169 
Q 2513 1966 2180 1606 
Q 1847 1247 1166 531 
z
" transform="scale(0.015625)"/>
      </defs>
      <use xlink:href="#DejaVuSansMono-32"/>
      <use xlink:href="#DejaVuSansMono-37" x="60.205078"/>
      <use xlink:href="#DejaVuSansMono-38" x="120.410156"/>
      <use xlink:href="#DejaVuSansMono-54" x="180.615234"/>
      <use xlink:href="#DejaVuSansMono-49" x="240.820312"/>
     </g>
    </g>
    <g id="line2d_31">
     <path d="M 940.17375 276.68385 
L 954.57375 276.68385 
L 968.97375 276.68385 
" style="fill: none; stroke: #6cff00; stroke-width: 4; stroke-linecap: square"/>
    </g>
    <g id="text_24">
     <!-- 283TI -->
     <g transform="translate(980.49375 281.72385)scale(0.144 -0.144)">
      <use xlink:href="#DejaVuSansMono-32"/>
      <use xlink:href="#DejaVuSansMono-38" x="60.205078"/>
      <use xlink:href="#DejaVuSansMono-33" x="120.410156"/>
      <use xlink:href="#DejaVuSansMono-54" x="180.615234"/>
      <use xlink:href="#DejaVuSansMono-49" x="240.820312"/>
     </g>
    </g>
   </g>
  </g>
  <g id="text_25">
   <!-- 0.35054µm -->
   <g transform="translate(576 73.368)scale(0.2 -0.2)">
    <defs>
     <path id="DejaVuSansMono-b5" d="M 609 -1338 
L 609 3500 
L 1184 3500 
L 1184 1325 
Q 1184 881 1371 645 
Q 1559 409 1906 409 
Q 2303 409 2504 675 
Q 2706 941 2706 1459 
L 2706 3500 
L 3284 3500 
L 3284 800 
Q 3284 616 3334 528 
Q 3384 441 3488 441 
Q 3516 441 3561 456 
Q 3606 472 3694 513 
L 3694 50 
Q 3575 -22 3469 -56 
Q 3363 -91 3256 -91 
Q 3063 -91 2945 32 
Q 2828 156 2791 403 
Q 2647 153 2439 31 
Q 2231 -91 1953 -91 
Q 1666 -91 1467 28 
Q 1269 147 1131 397 
L 1131 -1338 
L 609 -1338 
z
" transform="scale(0.015625)"/>
     <path id="DejaVuSansMono-6d" d="M 2113 3144 
Q 2219 3369 2383 3476 
Q 2547 3584 2778 3584 
Q 3200 3584 3373 3257 
Q 3547 2931 3547 2028 
L 3547 0 
L 3022 0 
L 3022 2003 
Q 3022 2744 2939 2923 
Q 2856 3103 2638 3103 
Q 2388 3103 2295 2911 
Q 2203 2719 2203 2003 
L 2203 0 
L 1678 0 
L 1678 2003 
Q 1678 2753 1589 2928 
Q 1500 3103 1269 3103 
Q 1041 3103 952 2911 
Q 863 2719 863 2003 
L 863 0 
L 341 0 
L 341 3500 
L 863 3500 
L 863 3200 
Q 966 3388 1120 3486 
Q 1275 3584 1472 3584 
Q 1709 3584 1867 3475 
Q 2025 3366 2113 3144 
z
" transform="scale(0.015625)"/>
    </defs>
    <use xlink:href="#DejaVuSansMono-30"/>
    <use xlink:href="#DejaVuSansMono-2e" x="60.205078"/>
    <use xlink:href="#DejaVuSansMono-33" x="120.410156"/>
    <use xlink:href="#DejaVuSansMono-35" x="180.615234"/>
    <use xlink:href="#DejaVuSansMono-30" x="240.820312"/>
    <use xlink:href="#DejaVuSansMono-35" x="301.025391"/>
    <use xlink:href="#DejaVuSansMono-34" x="361.230469"/>
    <use xlink:href="#DejaVuSansMono-b5" x="421.435547"/>
    <use xlink:href="#DejaVuSansMono-6d" x="481.640625"/>
   </g>
  </g>
 </g>
 <defs>
  <clipPath id="pd0977b18f9">
   <rect x="144" y="88.0416" width="892.8" height="564.9336"/>
  </clipPath>
 </defs>
</svg>
